G04 EAGLE Gerber RS-274X export*
G75*
%MOMM*%
%FSLAX34Y34*%
%LPD*%
%INBottom Copper*%
%IPPOS*%
%AMOC8*
5,1,8,0,0,1.08239X$1,22.5*%
G01*
G04 Define Apertures*
%ADD10R,2.794000X0.889000*%
%ADD11C,0.812800*%
G36*
X27475Y-13402D02*
X27178Y-13462D01*
X3302Y-13462D01*
X3027Y-13411D01*
X2772Y-13247D01*
X2600Y-12997D01*
X2540Y-12700D01*
X2540Y10668D01*
X2591Y10943D01*
X2755Y11198D01*
X3005Y11370D01*
X3302Y11430D01*
X27178Y11430D01*
X27453Y11379D01*
X27708Y11215D01*
X27880Y10965D01*
X27940Y10668D01*
X27940Y-12700D01*
X27889Y-12975D01*
X27725Y-13230D01*
X27475Y-13402D01*
G37*
G36*
X65575Y-13402D02*
X65278Y-13462D01*
X41402Y-13462D01*
X41127Y-13411D01*
X40872Y-13247D01*
X40700Y-12997D01*
X40640Y-12700D01*
X40640Y10668D01*
X40691Y10943D01*
X40855Y11198D01*
X41105Y11370D01*
X41402Y11430D01*
X65278Y11430D01*
X65553Y11379D01*
X65808Y11215D01*
X65980Y10965D01*
X66040Y10668D01*
X66040Y-12700D01*
X65989Y-12975D01*
X65825Y-13230D01*
X65575Y-13402D01*
G37*
D10*
X1298956Y12606D03*
X1298956Y32606D03*
D11*
X1298956Y12606D02*
X56548Y12606D01*
X49784Y5842D01*
X28542Y32606D02*
X1298956Y32606D01*
X28542Y32606D02*
X18542Y22606D01*
X15494Y19558D01*
X15494Y-508D01*
M02*
