G04 EAGLE Gerber RS-274X export*
G75*
%MOMM*%
%FSLAX34Y34*%
%LPD*%
%INSilkscreen Bottom*%
%IPPOS*%
%AMOC8*
5,1,8,0,0,1.08239X$1,22.5*%
G01*
G04 Define Apertures*
G36*
X1256038Y3302D02*
X1253838Y3323D01*
X1251554Y3302D01*
X1251505Y6317D01*
X1251419Y9389D01*
X1251308Y12254D01*
X1251181Y14646D01*
X1250261Y14672D01*
X1249499Y14688D01*
X1248992Y14677D01*
X1248556Y14646D01*
X1248191Y14593D01*
X1247895Y14520D01*
X1247653Y14425D01*
X1247445Y14308D01*
X1247272Y14170D01*
X1247133Y14010D01*
X1247027Y13832D01*
X1246952Y13641D01*
X1246907Y13435D01*
X1246891Y13216D01*
X1246911Y12951D01*
X1246972Y12693D01*
X1247072Y12441D01*
X1247212Y12196D01*
X1247391Y11970D01*
X1247609Y11776D01*
X1247864Y11613D01*
X1248158Y11481D01*
X1248480Y11380D01*
X1248819Y11308D01*
X1249176Y11265D01*
X1249551Y11250D01*
X1249826Y11257D01*
X1250103Y11276D01*
X1250666Y11355D01*
X1249581Y8380D01*
X1248834Y6288D01*
X1248695Y5880D01*
X1248529Y5331D01*
X1247918Y3302D01*
X1245439Y3323D01*
X1243107Y3302D01*
X1243443Y4090D01*
X1244852Y7171D01*
X1245346Y8306D01*
X1245893Y9642D01*
X1245396Y9846D01*
X1244958Y10048D01*
X1244579Y10248D01*
X1244258Y10446D01*
X1243979Y10652D01*
X1243724Y10877D01*
X1243495Y11120D01*
X1243291Y11381D01*
X1243112Y11657D01*
X1242958Y11941D01*
X1242830Y12235D01*
X1242728Y12538D01*
X1242650Y12851D01*
X1242594Y13175D01*
X1242561Y13511D01*
X1242549Y13857D01*
X1242560Y14168D01*
X1242590Y14468D01*
X1242641Y14759D01*
X1242712Y15040D01*
X1242802Y15307D01*
X1242908Y15557D01*
X1243031Y15788D01*
X1243170Y16002D01*
X1243326Y16202D01*
X1243501Y16392D01*
X1243694Y16573D01*
X1243905Y16743D01*
X1244139Y16903D01*
X1244398Y17049D01*
X1244683Y17184D01*
X1244993Y17306D01*
X1245325Y17412D01*
X1245675Y17498D01*
X1246043Y17564D01*
X1246428Y17611D01*
X1246972Y17657D01*
X1247553Y17689D01*
X1248170Y17709D01*
X1248825Y17716D01*
X1249986Y17704D01*
X1251180Y17668D01*
X1252296Y17633D01*
X1253229Y17621D01*
X1254165Y17629D01*
X1255353Y17653D01*
X1255363Y16148D01*
X1255395Y14199D01*
X1255447Y12082D01*
X1255521Y10073D01*
X1255614Y8235D01*
X1255722Y6635D01*
X1255859Y5060D01*
X1256038Y3302D01*
G37*
G36*
X1222746Y26162D02*
X1221253Y26173D01*
X1216627Y26183D01*
X1211003Y26162D01*
X1210908Y27797D01*
X1210793Y29379D01*
X1211764Y29321D01*
X1212410Y29295D01*
X1214585Y29242D01*
X1216802Y29211D01*
X1218010Y29211D01*
X1217885Y31766D01*
X1216175Y31821D01*
X1214639Y31839D01*
X1211844Y31818D01*
X1211747Y33550D01*
X1211644Y35025D01*
X1213700Y34970D01*
X1214778Y34951D01*
X1216326Y34959D01*
X1217670Y34983D01*
X1217542Y37401D01*
X1215886Y37448D01*
X1213841Y37453D01*
X1212301Y37432D01*
X1210435Y37369D01*
X1210414Y38113D01*
X1210351Y39255D01*
X1210298Y40167D01*
X1210277Y40513D01*
X1212950Y40497D01*
X1216006Y40492D01*
X1219267Y40497D01*
X1222008Y40513D01*
X1221998Y39587D01*
X1222028Y38088D01*
X1222119Y35566D01*
X1222240Y32834D01*
X1222361Y30704D01*
X1222518Y28654D01*
X1222746Y26162D01*
G37*
G36*
X1263371Y26162D02*
X1261878Y26173D01*
X1257252Y26183D01*
X1251628Y26162D01*
X1251533Y27797D01*
X1251418Y29379D01*
X1252389Y29321D01*
X1253035Y29295D01*
X1255210Y29242D01*
X1257427Y29211D01*
X1258635Y29211D01*
X1258510Y31766D01*
X1256800Y31821D01*
X1255264Y31839D01*
X1252469Y31818D01*
X1252372Y33550D01*
X1252269Y35025D01*
X1254325Y34970D01*
X1255403Y34951D01*
X1256951Y34959D01*
X1258295Y34983D01*
X1258167Y37401D01*
X1256511Y37448D01*
X1254466Y37453D01*
X1252926Y37432D01*
X1251060Y37369D01*
X1251039Y38113D01*
X1250976Y39255D01*
X1250923Y40167D01*
X1250902Y40513D01*
X1253575Y40497D01*
X1256631Y40492D01*
X1259892Y40497D01*
X1262633Y40513D01*
X1262623Y39587D01*
X1262653Y38088D01*
X1262744Y35566D01*
X1262865Y32834D01*
X1262986Y30704D01*
X1263143Y28654D01*
X1263371Y26162D01*
G37*
G36*
X1200684Y25889D02*
X1199771Y25910D01*
X1198797Y25973D01*
X1197763Y26078D01*
X1196668Y26225D01*
X1196576Y26957D01*
X1196426Y27939D01*
X1196261Y28923D01*
X1196121Y29663D01*
X1196756Y29504D01*
X1197334Y29373D01*
X1197857Y29270D01*
X1198324Y29195D01*
X1198755Y29142D01*
X1199169Y29104D01*
X1199567Y29082D01*
X1199948Y29074D01*
X1200283Y29081D01*
X1200604Y29103D01*
X1200912Y29140D01*
X1201206Y29191D01*
X1201486Y29257D01*
X1201753Y29337D01*
X1202006Y29432D01*
X1202245Y29542D01*
X1202472Y29665D01*
X1202687Y29800D01*
X1202889Y29948D01*
X1203080Y30107D01*
X1203259Y30279D01*
X1203425Y30463D01*
X1203580Y30659D01*
X1203723Y30867D01*
X1203851Y31086D01*
X1203962Y31316D01*
X1204056Y31557D01*
X1204133Y31809D01*
X1204192Y32071D01*
X1204235Y32344D01*
X1204261Y32628D01*
X1204269Y32922D01*
X1204259Y33247D01*
X1204229Y33565D01*
X1204178Y33875D01*
X1204106Y34178D01*
X1204015Y34474D01*
X1203903Y34763D01*
X1203770Y35045D01*
X1203617Y35319D01*
X1203447Y35582D01*
X1203261Y35828D01*
X1203061Y36059D01*
X1202845Y36273D01*
X1202614Y36471D01*
X1202368Y36654D01*
X1202107Y36820D01*
X1201830Y36970D01*
X1201542Y37103D01*
X1201245Y37218D01*
X1200939Y37316D01*
X1200624Y37395D01*
X1200300Y37458D01*
X1199967Y37502D01*
X1199626Y37529D01*
X1199275Y37537D01*
X1198943Y37531D01*
X1198596Y37511D01*
X1197861Y37432D01*
X1196982Y37280D01*
X1195869Y37033D01*
X1195943Y38231D01*
X1196006Y39503D01*
X1196027Y40387D01*
X1197127Y40561D01*
X1198135Y40686D01*
X1199051Y40761D01*
X1199875Y40786D01*
X1200296Y40779D01*
X1200714Y40759D01*
X1201129Y40725D01*
X1201541Y40677D01*
X1201949Y40616D01*
X1202355Y40541D01*
X1203155Y40350D01*
X1203548Y40232D01*
X1203933Y40095D01*
X1204309Y39941D01*
X1204678Y39769D01*
X1205039Y39578D01*
X1205391Y39370D01*
X1205736Y39143D01*
X1206072Y38899D01*
X1206395Y38637D01*
X1206699Y38360D01*
X1206983Y38067D01*
X1207247Y37758D01*
X1207492Y37434D01*
X1207718Y37093D01*
X1207925Y36737D01*
X1208112Y36365D01*
X1208278Y35979D01*
X1208422Y35582D01*
X1208544Y35172D01*
X1208644Y34750D01*
X1208722Y34316D01*
X1208777Y33871D01*
X1208810Y33413D01*
X1208822Y32943D01*
X1208813Y32541D01*
X1208789Y32148D01*
X1208748Y31765D01*
X1208690Y31392D01*
X1208616Y31029D01*
X1208526Y30676D01*
X1208419Y30333D01*
X1208296Y29999D01*
X1208154Y29676D01*
X1207989Y29364D01*
X1207803Y29062D01*
X1207595Y28771D01*
X1207366Y28490D01*
X1207114Y28220D01*
X1206841Y27961D01*
X1206545Y27713D01*
X1206235Y27478D01*
X1205918Y27261D01*
X1205593Y27060D01*
X1205260Y26877D01*
X1204920Y26711D01*
X1204572Y26562D01*
X1204217Y26429D01*
X1203854Y26314D01*
X1203484Y26215D01*
X1203106Y26128D01*
X1202721Y26055D01*
X1202328Y25995D01*
X1201928Y25949D01*
X1201521Y25915D01*
X1201106Y25895D01*
X1200684Y25889D01*
G37*
G36*
X1235912Y26162D02*
X1233450Y26183D01*
X1231187Y26162D01*
X1231187Y26625D01*
X1231176Y28033D01*
X1231067Y31818D01*
X1229493Y31858D01*
X1228044Y31871D01*
X1227008Y31858D01*
X1225536Y31818D01*
X1225528Y32435D01*
X1225507Y33159D01*
X1225420Y34930D01*
X1227670Y34899D01*
X1229373Y34899D01*
X1230897Y34930D01*
X1230803Y37380D01*
X1228711Y37401D01*
X1226640Y37401D01*
X1225904Y37390D01*
X1225168Y37380D01*
X1224253Y37348D01*
X1224243Y37826D01*
X1224211Y38513D01*
X1224085Y40513D01*
X1229363Y40492D01*
X1235251Y40513D01*
X1235251Y39356D01*
X1235279Y37652D01*
X1235366Y34851D01*
X1235484Y31862D01*
X1235608Y29589D01*
X1235726Y28086D01*
X1235912Y26162D01*
G37*
G36*
X1249131Y26162D02*
X1246668Y26183D01*
X1244406Y26162D01*
X1244406Y26625D01*
X1244395Y28033D01*
X1244286Y31818D01*
X1242711Y31858D01*
X1241263Y31871D01*
X1240226Y31858D01*
X1238754Y31818D01*
X1238747Y32435D01*
X1238725Y33159D01*
X1238639Y34930D01*
X1240889Y34899D01*
X1242592Y34899D01*
X1244116Y34930D01*
X1244022Y37380D01*
X1241930Y37401D01*
X1239858Y37401D01*
X1239122Y37390D01*
X1238387Y37380D01*
X1237472Y37348D01*
X1237461Y37826D01*
X1237430Y38513D01*
X1237304Y40513D01*
X1242582Y40492D01*
X1248469Y40513D01*
X1248469Y39356D01*
X1248498Y37652D01*
X1248585Y34851D01*
X1248703Y31862D01*
X1248826Y29589D01*
X1248945Y28086D01*
X1249131Y26162D01*
G37*
G36*
X1190915Y26162D02*
X1188498Y26183D01*
X1186271Y26162D01*
X1186255Y27677D01*
X1186207Y29599D01*
X1186131Y31756D01*
X1186027Y33980D01*
X1185924Y35625D01*
X1185784Y37411D01*
X1185049Y37411D01*
X1184270Y37404D01*
X1183392Y37382D01*
X1181341Y37296D01*
X1181325Y38113D01*
X1181267Y39483D01*
X1181204Y40513D01*
X1182571Y40502D01*
X1185093Y40502D01*
X1187689Y40491D01*
X1191415Y40497D01*
X1194647Y40513D01*
X1194673Y39443D01*
X1194710Y38463D01*
X1194763Y37296D01*
X1190288Y37411D01*
X1190320Y35892D01*
X1190366Y34406D01*
X1190425Y32951D01*
X1190497Y31529D01*
X1190582Y30139D01*
X1190680Y28781D01*
X1190791Y27455D01*
X1190915Y26162D01*
G37*
G36*
X1263319Y3302D02*
X1260734Y3323D01*
X1258579Y3302D01*
X1258563Y5298D01*
X1258516Y7670D01*
X1258432Y10326D01*
X1258305Y13174D01*
X1258170Y15350D01*
X1257999Y17653D01*
X1260261Y17632D01*
X1262723Y17653D01*
X1262712Y16296D01*
X1262722Y15098D01*
X1262750Y13777D01*
X1262798Y12335D01*
X1262864Y10772D01*
X1263053Y7280D01*
X1263319Y3302D01*
G37*
M02*
