G04 EAGLE Gerber RS-274X export*
G75*
%MOMM*%
%FSLAX34Y34*%
%LPD*%
%INSilkscreen Top*%
%IPPOS*%
%AMOC8*
5,1,8,0,0,1.08239X$1,22.5*%
G01*
G04 Define Apertures*
%ADD10C,0.127000*%
%ADD11C,0.152400*%
G36*
X549546Y26416D02*
X547251Y26434D01*
X544965Y26416D01*
X544763Y27616D01*
X543994Y31794D01*
X543885Y32569D01*
X543749Y33808D01*
X543443Y32451D01*
X543206Y31531D01*
X541795Y26416D01*
X539596Y26434D01*
X537397Y26416D01*
X537099Y28028D01*
X536775Y29622D01*
X535346Y36164D01*
X534829Y38371D01*
X536617Y38354D01*
X538405Y38371D01*
X538618Y37134D01*
X538782Y36278D01*
X539518Y32748D01*
X539759Y31485D01*
X540027Y29972D01*
X540315Y31198D01*
X541355Y35245D01*
X542072Y38371D01*
X544104Y38354D01*
X546127Y38371D01*
X546681Y34684D01*
X547445Y29989D01*
X547787Y31277D01*
X547988Y31951D01*
X548426Y33309D01*
X549493Y36672D01*
X549992Y38371D01*
X551743Y38363D01*
X553484Y38371D01*
X550088Y28194D01*
X549546Y26416D01*
G37*
G36*
X621434Y26416D02*
X617895Y26442D01*
X616275Y26416D01*
X616438Y28214D01*
X616540Y29613D01*
X616645Y31662D01*
X616751Y34237D01*
X616810Y36101D01*
X616830Y37347D01*
X616830Y38371D01*
X618599Y38345D01*
X619429Y38355D01*
X620482Y38385D01*
X621611Y38414D01*
X622671Y38424D01*
X623239Y38415D01*
X623772Y38389D01*
X624268Y38345D01*
X624728Y38284D01*
X625163Y38195D01*
X625583Y38069D01*
X625988Y37906D01*
X626379Y37706D01*
X626746Y37470D01*
X627083Y37200D01*
X627388Y36896D01*
X627662Y36558D01*
X627904Y36189D01*
X628117Y35789D01*
X628299Y35359D01*
X628450Y34899D01*
X628568Y34420D01*
X628653Y33934D01*
X628704Y33441D01*
X628721Y32941D01*
X628708Y32451D01*
X628668Y31970D01*
X628603Y31498D01*
X628511Y31036D01*
X628395Y30590D01*
X628259Y30166D01*
X628102Y29764D01*
X627924Y29385D01*
X627728Y29030D01*
X627516Y28701D01*
X627288Y28397D01*
X627044Y28120D01*
X626783Y27864D01*
X626504Y27628D01*
X626207Y27411D01*
X625892Y27213D01*
X625408Y26963D01*
X624920Y26775D01*
X624652Y26700D01*
X624340Y26633D01*
X623982Y26573D01*
X623580Y26521D01*
X623091Y26475D01*
X622570Y26442D01*
X622018Y26423D01*
X621434Y26416D01*
G37*
%LPC*%
G36*
X621068Y29009D02*
X621503Y29018D01*
X621913Y29048D01*
X622299Y29097D01*
X622661Y29166D01*
X623001Y29267D01*
X623319Y29414D01*
X623616Y29605D01*
X623891Y29841D01*
X624139Y30117D01*
X624352Y30431D01*
X624531Y30781D01*
X624675Y31168D01*
X624786Y31575D01*
X624865Y31988D01*
X624913Y32405D01*
X624929Y32827D01*
X624905Y33328D01*
X624834Y33787D01*
X624717Y34206D01*
X624552Y34583D01*
X624348Y34913D01*
X624113Y35189D01*
X623847Y35410D01*
X623549Y35577D01*
X623208Y35700D01*
X622810Y35788D01*
X622356Y35840D01*
X621846Y35858D01*
X621158Y35845D01*
X620357Y35805D01*
X620062Y29052D01*
X620554Y29019D01*
X621068Y29009D01*
G37*
%LPD*%
G36*
X638670Y26416D02*
X636367Y26425D01*
X634668Y26416D01*
X634821Y28137D01*
X634913Y29446D01*
X634999Y31233D01*
X635083Y33580D01*
X635145Y35820D01*
X635166Y37285D01*
X635157Y38371D01*
X637006Y38345D01*
X638039Y38355D01*
X639230Y38385D01*
X640411Y38414D01*
X641411Y38424D01*
X642349Y38409D01*
X642699Y38389D01*
X642971Y38363D01*
X643268Y38316D01*
X643545Y38253D01*
X643804Y38175D01*
X644044Y38082D01*
X644264Y37976D01*
X644465Y37857D01*
X644647Y37726D01*
X644810Y37583D01*
X644972Y37399D01*
X645114Y37198D01*
X645239Y36979D01*
X645344Y36742D01*
X645440Y36457D01*
X645509Y36162D01*
X645550Y35857D01*
X645563Y35542D01*
X645555Y35296D01*
X645532Y35054D01*
X645492Y34818D01*
X645436Y34588D01*
X645366Y34366D01*
X645283Y34157D01*
X645187Y33961D01*
X645077Y33778D01*
X644831Y33452D01*
X644556Y33186D01*
X644270Y32976D01*
X643991Y32818D01*
X643668Y32687D01*
X643251Y32556D01*
X643669Y32471D01*
X643995Y32376D01*
X644286Y32245D01*
X644595Y32052D01*
X644751Y31933D01*
X644899Y31797D01*
X645038Y31646D01*
X645169Y31478D01*
X645288Y31298D01*
X645391Y31107D01*
X645479Y30906D01*
X645550Y30695D01*
X645606Y30475D01*
X645645Y30249D01*
X645669Y30017D01*
X645677Y29779D01*
X645663Y29451D01*
X645622Y29133D01*
X645554Y28825D01*
X645458Y28527D01*
X645338Y28244D01*
X645195Y27982D01*
X645031Y27740D01*
X644845Y27520D01*
X644666Y27347D01*
X644462Y27187D01*
X644233Y27040D01*
X643978Y26906D01*
X643709Y26789D01*
X643437Y26692D01*
X643162Y26614D01*
X642883Y26556D01*
X642609Y26523D01*
X642240Y26495D01*
X641223Y26451D01*
X639983Y26425D01*
X638670Y26416D01*
G37*
%LPC*%
G36*
X640052Y28816D02*
X640631Y28836D01*
X640854Y28860D01*
X641034Y28895D01*
X641374Y29006D01*
X641509Y29074D01*
X641622Y29149D01*
X641717Y29235D01*
X641802Y29335D01*
X641877Y29449D01*
X641941Y29578D01*
X641993Y29717D01*
X642030Y29865D01*
X642052Y30020D01*
X642060Y30182D01*
X642054Y30322D01*
X642036Y30454D01*
X641964Y30690D01*
X641843Y30892D01*
X641674Y31058D01*
X641460Y31186D01*
X641201Y31273D01*
X641042Y31301D01*
X640842Y31322D01*
X640325Y31338D01*
X638477Y31338D01*
X638369Y28816D01*
X640052Y28816D01*
G37*
G36*
X639815Y33712D02*
X640340Y33720D01*
X640688Y33743D01*
X640943Y33785D01*
X641192Y33852D01*
X641421Y33957D01*
X641617Y34115D01*
X641771Y34310D01*
X641871Y34526D01*
X641927Y34754D01*
X641946Y34982D01*
X641936Y35140D01*
X641908Y35288D01*
X641860Y35429D01*
X641793Y35560D01*
X641704Y35679D01*
X641592Y35781D01*
X641457Y35867D01*
X641298Y35937D01*
X641105Y35990D01*
X640866Y36029D01*
X640583Y36051D01*
X640256Y36059D01*
X638679Y36059D01*
X638570Y33712D01*
X639815Y33712D01*
G37*
%LPD*%
G36*
X581095Y26188D02*
X580681Y26207D01*
X580282Y26265D01*
X579896Y26361D01*
X579523Y26495D01*
X579171Y26664D01*
X578846Y26866D01*
X578547Y27100D01*
X578275Y27366D01*
X578034Y27662D01*
X577825Y27984D01*
X577648Y28332D01*
X577505Y28706D01*
X577394Y29097D01*
X577314Y29496D01*
X577267Y29901D01*
X577251Y30314D01*
X577258Y30608D01*
X577280Y30901D01*
X577316Y31193D01*
X577367Y31483D01*
X577432Y31771D01*
X577512Y32058D01*
X577716Y32626D01*
X577966Y33161D01*
X578251Y33635D01*
X578573Y34050D01*
X578747Y34234D01*
X578930Y34404D01*
X579316Y34704D01*
X579727Y34957D01*
X580162Y35162D01*
X580621Y35319D01*
X581102Y35436D01*
X581602Y35519D01*
X582121Y35570D01*
X582659Y35586D01*
X583038Y35578D01*
X583448Y35553D01*
X583888Y35512D01*
X584359Y35455D01*
X584418Y36705D01*
X584454Y38371D01*
X586213Y38354D01*
X587998Y38371D01*
X587875Y36999D01*
X587760Y35483D01*
X587652Y33824D01*
X587552Y32021D01*
X587468Y30265D01*
X587408Y28746D01*
X587372Y27463D01*
X587360Y26416D01*
X585800Y26434D01*
X584100Y26416D01*
X584150Y27528D01*
X583831Y27227D01*
X583555Y26990D01*
X583265Y26787D01*
X582903Y26591D01*
X582489Y26420D01*
X582045Y26293D01*
X581813Y26247D01*
X581577Y26215D01*
X581338Y26195D01*
X581095Y26188D01*
G37*
%LPC*%
G36*
X582238Y28763D02*
X582474Y28780D01*
X582700Y28831D01*
X582915Y28916D01*
X583120Y29035D01*
X583311Y29186D01*
X583482Y29370D01*
X583635Y29585D01*
X583770Y29832D01*
X583885Y30107D01*
X583980Y30407D01*
X584056Y30731D01*
X584112Y31080D01*
X584154Y31482D01*
X584190Y31966D01*
X584239Y33178D01*
X583787Y33256D01*
X583571Y33276D01*
X583361Y33283D01*
X582952Y33262D01*
X582574Y33201D01*
X582228Y33098D01*
X581913Y32954D01*
X581632Y32767D01*
X581385Y32534D01*
X581173Y32255D01*
X580996Y31930D01*
X580856Y31583D01*
X580756Y31239D01*
X580696Y30897D01*
X580676Y30559D01*
X580687Y30311D01*
X580721Y30076D01*
X580777Y29853D01*
X580856Y29644D01*
X580958Y29451D01*
X581084Y29279D01*
X581234Y29129D01*
X581409Y29000D01*
X581600Y28896D01*
X581802Y28822D01*
X582015Y28778D01*
X582238Y28763D01*
G37*
%LPD*%
G36*
X681064Y26188D02*
X680650Y26207D01*
X680250Y26265D01*
X679864Y26361D01*
X679492Y26495D01*
X679140Y26664D01*
X678814Y26866D01*
X678516Y27100D01*
X678244Y27366D01*
X678002Y27662D01*
X677793Y27984D01*
X677617Y28332D01*
X677474Y28706D01*
X677363Y29097D01*
X677283Y29496D01*
X677236Y29901D01*
X677220Y30314D01*
X677227Y30608D01*
X677249Y30901D01*
X677285Y31193D01*
X677336Y31483D01*
X677401Y31771D01*
X677481Y32058D01*
X677684Y32626D01*
X677934Y33161D01*
X678220Y33635D01*
X678541Y34050D01*
X678715Y34234D01*
X678898Y34404D01*
X679285Y34704D01*
X679696Y34957D01*
X680131Y35162D01*
X680590Y35319D01*
X681070Y35436D01*
X681570Y35519D01*
X682089Y35570D01*
X682628Y35586D01*
X683007Y35578D01*
X683416Y35553D01*
X683857Y35512D01*
X684328Y35455D01*
X684386Y36705D01*
X684423Y38371D01*
X686182Y38354D01*
X687966Y38371D01*
X687844Y36999D01*
X687728Y35483D01*
X687621Y33824D01*
X687521Y32021D01*
X687437Y30265D01*
X687377Y28746D01*
X687341Y27463D01*
X687328Y26416D01*
X685769Y26434D01*
X684069Y26416D01*
X684119Y27528D01*
X683800Y27227D01*
X683524Y26990D01*
X683234Y26787D01*
X682871Y26591D01*
X682458Y26420D01*
X682013Y26293D01*
X681782Y26247D01*
X681546Y26215D01*
X681307Y26195D01*
X681064Y26188D01*
G37*
%LPC*%
G36*
X682207Y28763D02*
X682443Y28780D01*
X682669Y28831D01*
X682884Y28916D01*
X683089Y29035D01*
X683279Y29186D01*
X683451Y29370D01*
X683604Y29585D01*
X683738Y29832D01*
X683854Y30107D01*
X683949Y30407D01*
X684025Y30731D01*
X684081Y31080D01*
X684123Y31482D01*
X684159Y31966D01*
X684208Y33178D01*
X683756Y33256D01*
X683540Y33276D01*
X683330Y33283D01*
X682920Y33262D01*
X682542Y33201D01*
X682196Y33098D01*
X681882Y32954D01*
X681601Y32767D01*
X681354Y32534D01*
X681142Y32255D01*
X680965Y31930D01*
X680825Y31583D01*
X680724Y31239D01*
X680664Y30897D01*
X680644Y30559D01*
X680656Y30311D01*
X680689Y30076D01*
X680746Y29853D01*
X680824Y29644D01*
X680926Y29451D01*
X681053Y29279D01*
X681203Y29129D01*
X681377Y29000D01*
X681569Y28896D01*
X681771Y28822D01*
X681984Y28778D01*
X682207Y28763D01*
G37*
%LPD*%
G36*
X614220Y26416D02*
X609534Y26434D01*
X605680Y26425D01*
X604436Y26416D01*
X604626Y28492D01*
X604757Y30200D01*
X604858Y31974D01*
X604959Y34251D01*
X605035Y36351D01*
X605060Y37601D01*
X605051Y38371D01*
X610051Y38354D01*
X614824Y38371D01*
X614806Y38083D01*
X614763Y37324D01*
X614710Y36372D01*
X614693Y35753D01*
X613138Y35805D01*
X611855Y35823D01*
X610151Y35818D01*
X608772Y35779D01*
X608666Y33764D01*
X609785Y33745D01*
X611075Y33738D01*
X613685Y33799D01*
X613600Y32571D01*
X613519Y31128D01*
X611191Y31146D01*
X609910Y31130D01*
X608486Y31084D01*
X608382Y28956D01*
X609388Y28956D01*
X611235Y28982D01*
X613047Y29026D01*
X614395Y29096D01*
X614298Y27778D01*
X614220Y26416D01*
G37*
G36*
X652230Y26188D02*
X651679Y26209D01*
X651139Y26269D01*
X650611Y26371D01*
X650093Y26512D01*
X649601Y26693D01*
X649152Y26911D01*
X648745Y27166D01*
X648380Y27458D01*
X648058Y27785D01*
X647778Y28141D01*
X647541Y28529D01*
X647347Y28947D01*
X647196Y29386D01*
X647088Y29836D01*
X647023Y30297D01*
X647001Y30769D01*
X647022Y31241D01*
X647085Y31702D01*
X647191Y32152D01*
X647338Y32591D01*
X647531Y33013D01*
X647774Y33414D01*
X648066Y33793D01*
X648407Y34150D01*
X648794Y34476D01*
X649225Y34762D01*
X649698Y35008D01*
X650215Y35214D01*
X650760Y35377D01*
X651315Y35493D01*
X651881Y35563D01*
X652458Y35586D01*
X652995Y35565D01*
X653523Y35503D01*
X654040Y35399D01*
X654546Y35253D01*
X655028Y35069D01*
X655472Y34847D01*
X655876Y34589D01*
X656241Y34294D01*
X656565Y33968D01*
X656842Y33616D01*
X657075Y33237D01*
X657262Y32832D01*
X657405Y32405D01*
X657508Y31963D01*
X657570Y31506D01*
X657590Y31032D01*
X657572Y30569D01*
X657517Y30118D01*
X657425Y29678D01*
X657297Y29249D01*
X657125Y28833D01*
X656901Y28430D01*
X656627Y28041D01*
X656303Y27664D01*
X656121Y27485D01*
X655928Y27317D01*
X655723Y27161D01*
X655507Y27017D01*
X655278Y26884D01*
X655037Y26763D01*
X654520Y26556D01*
X653971Y26395D01*
X653407Y26280D01*
X652826Y26211D01*
X652230Y26188D01*
G37*
%LPC*%
G36*
X652204Y28676D02*
X652472Y28694D01*
X652727Y28749D01*
X652967Y28841D01*
X653193Y28969D01*
X653399Y29133D01*
X653578Y29333D01*
X653729Y29567D01*
X653855Y29836D01*
X653952Y30128D01*
X654022Y30431D01*
X654064Y30744D01*
X654078Y31067D01*
X654067Y31332D01*
X654034Y31584D01*
X653979Y31822D01*
X653903Y32048D01*
X653801Y32256D01*
X653672Y32442D01*
X653514Y32606D01*
X653329Y32748D01*
X653121Y32863D01*
X652897Y32945D01*
X652655Y32995D01*
X652396Y33011D01*
X652124Y32993D01*
X651866Y32939D01*
X651624Y32849D01*
X651398Y32722D01*
X651192Y32561D01*
X651014Y32366D01*
X650862Y32138D01*
X650737Y31877D01*
X650639Y31593D01*
X650569Y31296D01*
X650527Y30986D01*
X650513Y30664D01*
X650521Y30430D01*
X650543Y30210D01*
X650581Y30005D01*
X650634Y29813D01*
X650701Y29636D01*
X650784Y29472D01*
X650882Y29323D01*
X650995Y29188D01*
X651119Y29068D01*
X651251Y28964D01*
X651391Y28876D01*
X651538Y28804D01*
X651693Y28748D01*
X651855Y28708D01*
X652026Y28684D01*
X652204Y28676D01*
G37*
%LPD*%
G36*
X448231Y26416D02*
X446577Y26434D01*
X444678Y26416D01*
X444760Y27407D01*
X444846Y28785D01*
X444912Y30124D01*
X444934Y30997D01*
X444928Y31235D01*
X444910Y31454D01*
X444880Y31655D01*
X444839Y31836D01*
X444785Y32000D01*
X444719Y32144D01*
X444642Y32269D01*
X444553Y32376D01*
X444350Y32547D01*
X444122Y32669D01*
X443870Y32742D01*
X443593Y32766D01*
X443342Y32745D01*
X443098Y32683D01*
X442862Y32579D01*
X442633Y32433D01*
X442420Y32248D01*
X442233Y32025D01*
X442071Y31764D01*
X441936Y31465D01*
X441822Y31097D01*
X441726Y30626D01*
X441649Y30052D01*
X441589Y29376D01*
X441505Y27909D01*
X441453Y26416D01*
X439746Y26434D01*
X437846Y26416D01*
X437965Y27436D01*
X438069Y28508D01*
X438158Y29632D01*
X438233Y30808D01*
X438340Y33148D01*
X438374Y34269D01*
X438394Y35358D01*
X440209Y35341D01*
X441910Y35358D01*
X441823Y34167D01*
X442092Y34457D01*
X442322Y34680D01*
X442557Y34866D01*
X442843Y35048D01*
X443164Y35211D01*
X443504Y35341D01*
X443871Y35443D01*
X444271Y35521D01*
X444697Y35570D01*
X445142Y35586D01*
X445456Y35578D01*
X445765Y35552D01*
X446071Y35510D01*
X446373Y35450D01*
X446660Y35375D01*
X446923Y35286D01*
X447162Y35183D01*
X447375Y35065D01*
X447569Y34933D01*
X447746Y34785D01*
X447906Y34622D01*
X448050Y34443D01*
X448174Y34254D01*
X448275Y34057D01*
X448354Y33853D01*
X448409Y33642D01*
X448475Y33206D01*
X448497Y32757D01*
X448479Y32232D01*
X448426Y31321D01*
X448275Y28150D01*
X448242Y27248D01*
X448231Y26416D01*
G37*
G36*
X575606Y26416D02*
X573952Y26434D01*
X572053Y26416D01*
X572135Y27407D01*
X572221Y28785D01*
X572287Y30124D01*
X572309Y30997D01*
X572303Y31235D01*
X572285Y31454D01*
X572255Y31655D01*
X572214Y31836D01*
X572160Y32000D01*
X572094Y32144D01*
X572017Y32269D01*
X571928Y32376D01*
X571725Y32547D01*
X571497Y32669D01*
X571245Y32742D01*
X570968Y32766D01*
X570717Y32745D01*
X570473Y32683D01*
X570237Y32579D01*
X570008Y32433D01*
X569795Y32248D01*
X569608Y32025D01*
X569446Y31764D01*
X569311Y31465D01*
X569197Y31097D01*
X569101Y30626D01*
X569024Y30052D01*
X568964Y29376D01*
X568880Y27909D01*
X568828Y26416D01*
X567121Y26434D01*
X565221Y26416D01*
X565340Y27436D01*
X565444Y28508D01*
X565533Y29632D01*
X565608Y30808D01*
X565715Y33148D01*
X565749Y34269D01*
X565769Y35358D01*
X567584Y35341D01*
X569285Y35358D01*
X569198Y34167D01*
X569467Y34457D01*
X569697Y34680D01*
X569932Y34866D01*
X570218Y35048D01*
X570539Y35211D01*
X570879Y35341D01*
X571246Y35443D01*
X571646Y35521D01*
X572072Y35570D01*
X572517Y35586D01*
X572831Y35578D01*
X573140Y35552D01*
X573446Y35510D01*
X573748Y35450D01*
X574035Y35375D01*
X574298Y35286D01*
X574537Y35183D01*
X574750Y35065D01*
X574944Y34933D01*
X575121Y34785D01*
X575281Y34622D01*
X575425Y34443D01*
X575549Y34254D01*
X575650Y34057D01*
X575729Y33853D01*
X575784Y33642D01*
X575850Y33206D01*
X575872Y32757D01*
X575854Y32232D01*
X575801Y31321D01*
X575650Y28150D01*
X575617Y27248D01*
X575606Y26416D01*
G37*
G36*
X462870Y26188D02*
X462359Y26197D01*
X461869Y26224D01*
X461400Y26270D01*
X460952Y26333D01*
X460529Y26419D01*
X460136Y26533D01*
X459774Y26675D01*
X459441Y26845D01*
X459136Y27040D01*
X458857Y27257D01*
X458604Y27497D01*
X458377Y27759D01*
X458175Y28045D01*
X457999Y28357D01*
X457849Y28695D01*
X457724Y29058D01*
X457627Y29437D01*
X457557Y29822D01*
X457515Y30212D01*
X457501Y30607D01*
X457508Y30886D01*
X457529Y31164D01*
X457564Y31440D01*
X457613Y31715D01*
X457752Y32260D01*
X457948Y32799D01*
X458187Y33306D01*
X458459Y33754D01*
X458763Y34144D01*
X459099Y34475D01*
X459465Y34755D01*
X459858Y34991D01*
X460278Y35184D01*
X460724Y35332D01*
X461187Y35443D01*
X461655Y35523D01*
X462128Y35570D01*
X462607Y35586D01*
X463101Y35572D01*
X463583Y35528D01*
X464053Y35456D01*
X464512Y35354D01*
X464948Y35216D01*
X465350Y35036D01*
X465717Y34811D01*
X466049Y34544D01*
X466342Y34246D01*
X466589Y33929D01*
X466791Y33593D01*
X466947Y33239D01*
X467064Y32868D01*
X467147Y32483D01*
X467198Y32084D01*
X467214Y31671D01*
X467207Y31414D01*
X467186Y31143D01*
X467100Y30559D01*
X463575Y30554D01*
X460961Y30550D01*
X460952Y30297D01*
X460962Y30069D01*
X460994Y29857D01*
X461047Y29661D01*
X461120Y29479D01*
X461215Y29314D01*
X461331Y29164D01*
X461468Y29029D01*
X461626Y28910D01*
X461800Y28806D01*
X461982Y28716D01*
X462174Y28639D01*
X462375Y28577D01*
X462586Y28528D01*
X462805Y28493D01*
X463034Y28472D01*
X463273Y28465D01*
X463572Y28474D01*
X463891Y28499D01*
X464231Y28542D01*
X464591Y28601D01*
X465418Y28784D01*
X466417Y29061D01*
X466251Y28163D01*
X465979Y26521D01*
X465044Y26354D01*
X464271Y26254D01*
X463575Y26205D01*
X462870Y26188D01*
G37*
%LPC*%
G36*
X463921Y31890D02*
X463930Y32144D01*
X463920Y32364D01*
X463889Y32567D01*
X463839Y32753D01*
X463768Y32924D01*
X463678Y33075D01*
X463571Y33204D01*
X463446Y33311D01*
X463304Y33397D01*
X463148Y33462D01*
X462983Y33508D01*
X462808Y33536D01*
X462625Y33545D01*
X462366Y33525D01*
X462117Y33462D01*
X461884Y33359D01*
X461674Y33217D01*
X461494Y33043D01*
X461346Y32845D01*
X461232Y32638D01*
X461153Y32437D01*
X461092Y32202D01*
X461031Y31890D01*
X463921Y31890D01*
G37*
%LPD*%
G36*
X524933Y26188D02*
X524422Y26197D01*
X523932Y26224D01*
X523463Y26270D01*
X523014Y26333D01*
X522592Y26419D01*
X522199Y26533D01*
X521836Y26675D01*
X521504Y26845D01*
X521199Y27040D01*
X520920Y27257D01*
X520667Y27497D01*
X520439Y27759D01*
X520238Y28045D01*
X520062Y28357D01*
X519911Y28695D01*
X519787Y29058D01*
X519689Y29437D01*
X519619Y29822D01*
X519577Y30212D01*
X519564Y30607D01*
X519570Y30886D01*
X519591Y31164D01*
X519626Y31440D01*
X519675Y31715D01*
X519815Y32260D01*
X520010Y32799D01*
X520250Y33306D01*
X520521Y33754D01*
X520826Y34144D01*
X521162Y34475D01*
X521528Y34755D01*
X521921Y34991D01*
X522340Y35184D01*
X522787Y35332D01*
X523249Y35443D01*
X523717Y35523D01*
X524191Y35570D01*
X524670Y35586D01*
X525163Y35572D01*
X525645Y35528D01*
X526116Y35456D01*
X526575Y35354D01*
X527011Y35216D01*
X527412Y35036D01*
X527779Y34811D01*
X528112Y34544D01*
X528404Y34246D01*
X528652Y33929D01*
X528853Y33593D01*
X529010Y33239D01*
X529126Y32868D01*
X529210Y32483D01*
X529260Y32084D01*
X529277Y31671D01*
X529270Y31414D01*
X529248Y31143D01*
X529163Y30559D01*
X525638Y30554D01*
X523023Y30550D01*
X523014Y30297D01*
X523025Y30069D01*
X523057Y29857D01*
X523109Y29661D01*
X523183Y29479D01*
X523278Y29314D01*
X523394Y29164D01*
X523531Y29029D01*
X523689Y28910D01*
X523862Y28806D01*
X524045Y28716D01*
X524236Y28639D01*
X524438Y28577D01*
X524648Y28528D01*
X524868Y28493D01*
X525097Y28472D01*
X525335Y28465D01*
X525635Y28474D01*
X525954Y28499D01*
X526294Y28542D01*
X526654Y28601D01*
X527480Y28784D01*
X528480Y29061D01*
X528313Y28163D01*
X528042Y26521D01*
X527107Y26354D01*
X526334Y26254D01*
X525638Y26205D01*
X524933Y26188D01*
G37*
%LPC*%
G36*
X525984Y31890D02*
X525992Y32144D01*
X525982Y32364D01*
X525952Y32567D01*
X525901Y32753D01*
X525830Y32924D01*
X525740Y33075D01*
X525633Y33204D01*
X525508Y33311D01*
X525366Y33397D01*
X525210Y33462D01*
X525045Y33508D01*
X524871Y33536D01*
X524687Y33545D01*
X524429Y33525D01*
X524179Y33462D01*
X523946Y33359D01*
X523737Y33217D01*
X523556Y33043D01*
X523409Y32845D01*
X523295Y32638D01*
X523216Y32437D01*
X523155Y32202D01*
X523093Y31890D01*
X525984Y31890D01*
G37*
%LPD*%
G36*
X478972Y26188D02*
X478451Y26207D01*
X477976Y26264D01*
X477547Y26358D01*
X477163Y26490D01*
X476822Y26665D01*
X476524Y26886D01*
X476266Y27153D01*
X476051Y27467D01*
X475880Y27804D01*
X475758Y28141D01*
X475685Y28479D01*
X475661Y28816D01*
X475670Y29021D01*
X475697Y29223D01*
X475742Y29423D01*
X475805Y29622D01*
X475888Y29818D01*
X475990Y30011D01*
X476113Y30203D01*
X476256Y30392D01*
X476416Y30574D01*
X476589Y30742D01*
X476775Y30896D01*
X476974Y31036D01*
X477199Y31168D01*
X477461Y31296D01*
X477761Y31420D01*
X478099Y31540D01*
X478480Y31656D01*
X478908Y31770D01*
X479907Y31986D01*
X480344Y32077D01*
X480743Y32175D01*
X481070Y32269D01*
X481286Y32350D01*
X481433Y32431D01*
X481549Y32525D01*
X481635Y32628D01*
X481693Y32735D01*
X481726Y32848D01*
X481737Y32967D01*
X481720Y33124D01*
X481667Y33262D01*
X481579Y33380D01*
X481457Y33480D01*
X481300Y33558D01*
X481111Y33614D01*
X480889Y33648D01*
X480634Y33659D01*
X480247Y33646D01*
X479837Y33606D01*
X479405Y33540D01*
X478951Y33447D01*
X478475Y33327D01*
X477976Y33181D01*
X477456Y33009D01*
X476913Y32810D01*
X477049Y33542D01*
X477124Y34005D01*
X477264Y35034D01*
X478481Y35276D01*
X479056Y35371D01*
X479609Y35448D01*
X480140Y35509D01*
X480649Y35552D01*
X481135Y35578D01*
X481600Y35586D01*
X482105Y35572D01*
X482589Y35528D01*
X483052Y35456D01*
X483492Y35354D01*
X483897Y35220D01*
X484256Y35051D01*
X484568Y34846D01*
X484832Y34605D01*
X484945Y34469D01*
X485043Y34319D01*
X485126Y34155D01*
X485193Y33977D01*
X485246Y33785D01*
X485284Y33579D01*
X485306Y33359D01*
X485314Y33125D01*
X485281Y32328D01*
X485183Y30918D01*
X485121Y29993D01*
X485067Y28934D01*
X485021Y27742D01*
X484982Y26416D01*
X483273Y26434D01*
X481520Y26416D01*
X481582Y27026D01*
X481646Y27892D01*
X481786Y30392D01*
X481266Y30165D01*
X480606Y29954D01*
X479867Y29718D01*
X479618Y29608D01*
X479404Y29473D01*
X479236Y29322D01*
X479125Y29166D01*
X479062Y29000D01*
X479042Y28816D01*
X479056Y28672D01*
X479101Y28540D01*
X479175Y28418D01*
X479278Y28308D01*
X479414Y28216D01*
X479585Y28150D01*
X479790Y28111D01*
X480031Y28098D01*
X480222Y28105D01*
X480425Y28128D01*
X480675Y28182D01*
X481004Y28282D01*
X480725Y27452D01*
X480399Y26311D01*
X480028Y26257D01*
X479666Y26219D01*
X479314Y26196D01*
X478972Y26188D01*
G37*
G36*
X557315Y26188D02*
X556795Y26207D01*
X556320Y26264D01*
X555891Y26358D01*
X555507Y26490D01*
X555166Y26665D01*
X554867Y26886D01*
X554610Y27153D01*
X554394Y27467D01*
X554224Y27804D01*
X554102Y28141D01*
X554029Y28479D01*
X554005Y28816D01*
X554014Y29021D01*
X554041Y29223D01*
X554086Y29423D01*
X554149Y29622D01*
X554231Y29818D01*
X554334Y30011D01*
X554457Y30203D01*
X554600Y30392D01*
X554760Y30574D01*
X554933Y30742D01*
X555119Y30896D01*
X555318Y31036D01*
X555542Y31168D01*
X555805Y31296D01*
X556105Y31420D01*
X556443Y31540D01*
X556824Y31656D01*
X557252Y31770D01*
X558251Y31986D01*
X558688Y32077D01*
X559087Y32175D01*
X559413Y32269D01*
X559630Y32350D01*
X559777Y32431D01*
X559893Y32525D01*
X559979Y32628D01*
X560037Y32735D01*
X560070Y32848D01*
X560081Y32967D01*
X560063Y33124D01*
X560011Y33262D01*
X559923Y33380D01*
X559801Y33480D01*
X559644Y33558D01*
X559455Y33614D01*
X559233Y33648D01*
X558978Y33659D01*
X558590Y33646D01*
X558181Y33606D01*
X557749Y33540D01*
X557295Y33447D01*
X556819Y33327D01*
X556320Y33181D01*
X555800Y33009D01*
X555257Y32810D01*
X555393Y33542D01*
X555467Y34005D01*
X555607Y35034D01*
X556824Y35276D01*
X557400Y35371D01*
X557953Y35448D01*
X558484Y35509D01*
X558992Y35552D01*
X559479Y35578D01*
X559943Y35586D01*
X560449Y35572D01*
X560933Y35528D01*
X561395Y35456D01*
X561835Y35354D01*
X562241Y35220D01*
X562600Y35051D01*
X562911Y34846D01*
X563176Y34605D01*
X563289Y34469D01*
X563387Y34319D01*
X563469Y34155D01*
X563537Y33977D01*
X563590Y33785D01*
X563627Y33579D01*
X563650Y33359D01*
X563658Y33125D01*
X563625Y32328D01*
X563527Y30918D01*
X563465Y29993D01*
X563411Y28934D01*
X563364Y27742D01*
X563326Y26416D01*
X561617Y26434D01*
X559864Y26416D01*
X559926Y27026D01*
X559990Y27892D01*
X560129Y30392D01*
X559609Y30165D01*
X558950Y29954D01*
X558211Y29718D01*
X557962Y29608D01*
X557748Y29473D01*
X557580Y29322D01*
X557468Y29166D01*
X557406Y29000D01*
X557385Y28816D01*
X557400Y28672D01*
X557445Y28540D01*
X557518Y28418D01*
X557622Y28308D01*
X557758Y28216D01*
X557928Y28150D01*
X558134Y28111D01*
X558375Y28098D01*
X558566Y28105D01*
X558769Y28128D01*
X559019Y28182D01*
X559347Y28282D01*
X559069Y27452D01*
X558743Y26311D01*
X558371Y26257D01*
X558009Y26219D01*
X557657Y26196D01*
X557315Y26188D01*
G37*
G36*
X661753Y26188D02*
X661233Y26207D01*
X660758Y26264D01*
X660328Y26358D01*
X659944Y26490D01*
X659604Y26665D01*
X659305Y26886D01*
X659048Y27153D01*
X658832Y27467D01*
X658661Y27804D01*
X658540Y28141D01*
X658466Y28479D01*
X658442Y28816D01*
X658451Y29021D01*
X658478Y29223D01*
X658523Y29423D01*
X658587Y29622D01*
X658669Y29818D01*
X658771Y30011D01*
X658894Y30203D01*
X659037Y30392D01*
X659197Y30574D01*
X659370Y30742D01*
X659556Y30896D01*
X659755Y31036D01*
X659980Y31168D01*
X660242Y31296D01*
X660543Y31420D01*
X660880Y31540D01*
X661261Y31656D01*
X661689Y31770D01*
X662688Y31986D01*
X663125Y32077D01*
X663525Y32175D01*
X663851Y32269D01*
X664067Y32350D01*
X664214Y32431D01*
X664330Y32525D01*
X664417Y32628D01*
X664475Y32735D01*
X664507Y32848D01*
X664518Y32967D01*
X664501Y33124D01*
X664448Y33262D01*
X664361Y33380D01*
X664238Y33480D01*
X664082Y33558D01*
X663892Y33614D01*
X663670Y33648D01*
X663415Y33659D01*
X663028Y33646D01*
X662618Y33606D01*
X662186Y33540D01*
X661732Y33447D01*
X661256Y33327D01*
X660758Y33181D01*
X660237Y33009D01*
X659695Y32810D01*
X659830Y33542D01*
X659905Y34005D01*
X660045Y35034D01*
X661262Y35276D01*
X661837Y35371D01*
X662390Y35448D01*
X662921Y35509D01*
X663430Y35552D01*
X663916Y35578D01*
X664381Y35586D01*
X664887Y35572D01*
X665371Y35528D01*
X665833Y35456D01*
X666273Y35354D01*
X666679Y35220D01*
X667037Y35051D01*
X667349Y34846D01*
X667613Y34605D01*
X667726Y34469D01*
X667824Y34319D01*
X667907Y34155D01*
X667975Y33977D01*
X668027Y33785D01*
X668065Y33579D01*
X668088Y33359D01*
X668095Y33125D01*
X668062Y32328D01*
X667964Y30918D01*
X667902Y29993D01*
X667848Y28934D01*
X667802Y27742D01*
X667763Y26416D01*
X666054Y26434D01*
X664302Y26416D01*
X664363Y27026D01*
X664428Y27892D01*
X664567Y30392D01*
X664047Y30165D01*
X663387Y29954D01*
X662649Y29718D01*
X662400Y29608D01*
X662186Y29473D01*
X662017Y29322D01*
X661906Y29166D01*
X661844Y29000D01*
X661823Y28816D01*
X661838Y28672D01*
X661882Y28540D01*
X661956Y28418D01*
X662059Y28308D01*
X662195Y28216D01*
X662366Y28150D01*
X662572Y28111D01*
X662813Y28098D01*
X663003Y28105D01*
X663207Y28128D01*
X663456Y28182D01*
X663785Y28282D01*
X663507Y27452D01*
X663180Y26311D01*
X662809Y26257D01*
X662447Y26219D01*
X662095Y26196D01*
X661753Y26188D01*
G37*
G36*
X603185Y26416D02*
X598797Y26434D01*
X593858Y26416D01*
X594047Y28293D01*
X594174Y29788D01*
X594336Y32163D01*
X594451Y34522D01*
X594521Y36660D01*
X594544Y38371D01*
X596653Y38354D01*
X598438Y38371D01*
X598227Y35201D01*
X597963Y30243D01*
X597928Y29026D01*
X599891Y29000D01*
X601915Y29015D01*
X603378Y29061D01*
X603185Y26416D01*
G37*
G36*
X515407Y26416D02*
X513585Y26434D01*
X511657Y26416D01*
X510728Y29289D01*
X508633Y35358D01*
X510492Y35341D01*
X512175Y35358D01*
X512396Y34528D01*
X512762Y33243D01*
X513222Y31589D01*
X513726Y29648D01*
X513954Y30375D01*
X514365Y31496D01*
X515757Y35358D01*
X517542Y35341D01*
X519345Y35358D01*
X518137Y32757D01*
X515888Y27590D01*
X515407Y26416D01*
G37*
G36*
X453879Y26188D02*
X453517Y26196D01*
X453176Y26220D01*
X452856Y26260D01*
X452556Y26315D01*
X452279Y26392D01*
X452026Y26495D01*
X451797Y26624D01*
X451593Y26779D01*
X451415Y26954D01*
X451269Y27142D01*
X451153Y27342D01*
X451067Y27555D01*
X451006Y27777D01*
X450962Y28006D01*
X450936Y28241D01*
X450927Y28483D01*
X450936Y28794D01*
X450997Y29788D01*
X451188Y32818D01*
X449823Y32818D01*
X449865Y33519D01*
X449902Y34413D01*
X449928Y35227D01*
X451380Y35227D01*
X451439Y35869D01*
X451510Y36988D01*
X453010Y37294D01*
X453654Y37434D01*
X454763Y37697D01*
X454711Y36506D01*
X454675Y35227D01*
X456673Y35227D01*
X456620Y33714D01*
X456603Y32818D01*
X454588Y32818D01*
X454482Y30629D01*
X454465Y29998D01*
X454470Y29797D01*
X454488Y29613D01*
X454516Y29446D01*
X454557Y29298D01*
X454611Y29167D01*
X454684Y29057D01*
X454773Y28966D01*
X454881Y28895D01*
X455000Y28841D01*
X455125Y28803D01*
X455256Y28780D01*
X455393Y28772D01*
X455608Y28780D01*
X455831Y28803D01*
X456147Y28865D01*
X456638Y28991D01*
X456491Y28264D01*
X456366Y27555D01*
X456173Y26486D01*
X455402Y26328D01*
X454820Y26241D01*
X454342Y26201D01*
X453879Y26188D01*
G37*
G36*
X499785Y26188D02*
X499423Y26196D01*
X499082Y26220D01*
X498762Y26260D01*
X498462Y26315D01*
X498185Y26392D01*
X497932Y26495D01*
X497704Y26624D01*
X497499Y26779D01*
X497322Y26954D01*
X497175Y27142D01*
X497059Y27342D01*
X496973Y27555D01*
X496912Y27777D01*
X496868Y28006D01*
X496842Y28241D01*
X496833Y28483D01*
X496842Y28794D01*
X496903Y29788D01*
X497095Y32818D01*
X495730Y32818D01*
X495771Y33519D01*
X495808Y34413D01*
X495835Y35227D01*
X497286Y35227D01*
X497345Y35869D01*
X497417Y36988D01*
X498916Y37294D01*
X499560Y37434D01*
X500670Y37697D01*
X500617Y36506D01*
X500582Y35227D01*
X502579Y35227D01*
X502526Y33714D01*
X502509Y32818D01*
X500494Y32818D01*
X500388Y30629D01*
X500371Y29998D01*
X500377Y29797D01*
X500394Y29613D01*
X500423Y29446D01*
X500463Y29298D01*
X500518Y29167D01*
X500590Y29057D01*
X500680Y28966D01*
X500787Y28895D01*
X500906Y28841D01*
X501031Y28803D01*
X501162Y28780D01*
X501300Y28772D01*
X501514Y28780D01*
X501738Y28803D01*
X502053Y28865D01*
X502544Y28991D01*
X502397Y28264D01*
X502272Y27555D01*
X502080Y26486D01*
X501308Y26328D01*
X500726Y26241D01*
X500248Y26201D01*
X499785Y26188D01*
G37*
G36*
X491300Y26188D02*
X490838Y26200D01*
X490405Y26236D01*
X490001Y26297D01*
X489628Y26381D01*
X489214Y26517D01*
X488822Y26696D01*
X488452Y26920D01*
X488104Y27187D01*
X487781Y27498D01*
X487506Y27837D01*
X487278Y28203D01*
X487096Y28597D01*
X486932Y29088D01*
X486814Y29608D01*
X486743Y30157D01*
X486720Y30734D01*
X486743Y31272D01*
X486812Y31800D01*
X486927Y32319D01*
X487088Y32827D01*
X487293Y33309D01*
X487543Y33746D01*
X487836Y34139D01*
X488174Y34487D01*
X488543Y34786D01*
X488931Y35032D01*
X489340Y35224D01*
X489768Y35363D01*
X490217Y35461D01*
X490690Y35530D01*
X491185Y35572D01*
X491703Y35586D01*
X492327Y35570D01*
X492956Y35521D01*
X493290Y35478D01*
X493661Y35416D01*
X494515Y35236D01*
X494532Y35034D01*
X494572Y34391D01*
X494629Y33353D01*
X494681Y32573D01*
X494073Y32765D01*
X493501Y32902D01*
X492965Y32984D01*
X492711Y33004D01*
X492465Y33011D01*
X492130Y32994D01*
X491816Y32944D01*
X491524Y32861D01*
X491252Y32744D01*
X491009Y32596D01*
X490799Y32418D01*
X490623Y32210D01*
X490482Y31973D01*
X490372Y31711D01*
X490294Y31429D01*
X490248Y31127D01*
X490232Y30804D01*
X490246Y30481D01*
X490288Y30184D01*
X490358Y29916D01*
X490455Y29674D01*
X490584Y29461D01*
X490745Y29276D01*
X490941Y29119D01*
X491169Y28991D01*
X491420Y28891D01*
X491684Y28820D01*
X491959Y28778D01*
X492246Y28763D01*
X492572Y28779D01*
X492951Y28825D01*
X493332Y28889D01*
X493661Y28960D01*
X494004Y29060D01*
X494427Y29210D01*
X494217Y27922D01*
X493989Y26521D01*
X493306Y26376D01*
X492630Y26272D01*
X491961Y26209D01*
X491300Y26188D01*
G37*
G36*
X435897Y26416D02*
X434103Y26434D01*
X431949Y26416D01*
X432170Y29730D01*
X432328Y32639D01*
X432422Y35143D01*
X432446Y36243D01*
X432454Y37242D01*
X432445Y38371D01*
X434496Y38354D01*
X436381Y38371D01*
X436238Y36453D01*
X436126Y34640D01*
X436020Y32268D01*
X435950Y30055D01*
X435910Y28079D01*
X435897Y26416D01*
G37*
G36*
X471895Y26416D02*
X470186Y26434D01*
X468362Y26416D01*
X468634Y30305D01*
X468721Y32538D01*
X468730Y33773D01*
X468712Y35358D01*
X470394Y35341D01*
X472067Y35358D01*
X472031Y34369D01*
X472342Y34705D01*
X472592Y34942D01*
X472826Y35122D01*
X473091Y35284D01*
X473378Y35418D01*
X473678Y35512D01*
X473992Y35568D01*
X474318Y35586D01*
X474651Y35564D01*
X475019Y35499D01*
X475034Y34627D01*
X475063Y33922D01*
X475124Y32573D01*
X474887Y32635D01*
X474658Y32678D01*
X474437Y32705D01*
X474223Y32713D01*
X473969Y32704D01*
X473734Y32675D01*
X473516Y32627D01*
X473317Y32560D01*
X473132Y32474D01*
X472958Y32367D01*
X472795Y32242D01*
X472643Y32096D01*
X472504Y31931D01*
X472380Y31747D01*
X472270Y31543D01*
X472175Y31321D01*
X472094Y31055D01*
X472026Y30721D01*
X471971Y30319D01*
X471930Y29849D01*
X471877Y28770D01*
X471860Y27546D01*
X471869Y27036D01*
X471895Y26416D01*
G37*
G36*
X673270Y26416D02*
X671561Y26434D01*
X669737Y26416D01*
X670009Y30305D01*
X670096Y32538D01*
X670105Y33773D01*
X670087Y35358D01*
X671769Y35341D01*
X673442Y35358D01*
X673406Y34369D01*
X673717Y34705D01*
X673967Y34942D01*
X674201Y35122D01*
X674466Y35284D01*
X674753Y35418D01*
X675053Y35512D01*
X675367Y35568D01*
X675693Y35586D01*
X676026Y35564D01*
X676394Y35499D01*
X676409Y34627D01*
X676438Y33922D01*
X676499Y32573D01*
X676262Y32635D01*
X676033Y32678D01*
X675812Y32705D01*
X675598Y32713D01*
X675344Y32704D01*
X675109Y32675D01*
X674891Y32627D01*
X674692Y32560D01*
X674507Y32474D01*
X674333Y32367D01*
X674170Y32242D01*
X674018Y32096D01*
X673879Y31931D01*
X673755Y31747D01*
X673645Y31543D01*
X673550Y31321D01*
X673469Y31055D01*
X673401Y30721D01*
X673346Y30319D01*
X673305Y29849D01*
X673252Y28770D01*
X673235Y27546D01*
X673244Y27036D01*
X673270Y26416D01*
G37*
G36*
X507345Y26416D02*
X505551Y26434D01*
X503600Y26416D01*
X503783Y28176D01*
X503843Y28965D01*
X503901Y29946D01*
X504001Y32328D01*
X504040Y33738D01*
X504070Y35358D01*
X505893Y35341D01*
X507681Y35358D01*
X507552Y33804D01*
X507465Y32451D01*
X507410Y31161D01*
X507381Y29797D01*
X507345Y26416D01*
G37*
G36*
X507603Y36480D02*
X505938Y36497D01*
X504152Y36480D01*
X504191Y37412D01*
X504204Y38126D01*
X504196Y38599D01*
X505974Y38582D01*
X507708Y38599D01*
X507673Y38144D01*
X507620Y37058D01*
X507603Y36480D01*
G37*
G36*
X507225Y9678D02*
X506703Y9700D01*
X506198Y9764D01*
X505709Y9870D01*
X505236Y10020D01*
X504787Y10217D01*
X504365Y10469D01*
X503972Y10774D01*
X503607Y11132D01*
X503283Y11535D01*
X503012Y11974D01*
X502896Y12207D01*
X502793Y12448D01*
X502703Y12699D01*
X502626Y12958D01*
X502504Y13495D01*
X502416Y14050D01*
X502364Y14623D01*
X502346Y15214D01*
X502352Y15576D01*
X502371Y15937D01*
X502444Y16654D01*
X502565Y17365D01*
X502736Y18069D01*
X502950Y18737D01*
X503203Y19341D01*
X503345Y19619D01*
X503495Y19880D01*
X503656Y20126D01*
X503826Y20355D01*
X504007Y20569D01*
X504199Y20769D01*
X504402Y20954D01*
X504617Y21125D01*
X504842Y21281D01*
X505079Y21423D01*
X505327Y21551D01*
X505587Y21664D01*
X506124Y21850D01*
X506677Y21983D01*
X506959Y22029D01*
X507245Y22063D01*
X507535Y22082D01*
X507829Y22089D01*
X508177Y22081D01*
X508517Y22055D01*
X508848Y22012D01*
X509170Y21951D01*
X509484Y21874D01*
X509789Y21779D01*
X510086Y21667D01*
X510373Y21537D01*
X510649Y21387D01*
X510909Y21212D01*
X511154Y21013D01*
X511383Y20790D01*
X511596Y20541D01*
X511794Y20269D01*
X511976Y19972D01*
X512143Y19650D01*
X512291Y19309D01*
X512420Y18952D01*
X512530Y18581D01*
X512619Y18195D01*
X512688Y17794D01*
X512738Y17378D01*
X512768Y16947D01*
X512778Y16501D01*
X512772Y16147D01*
X512753Y15793D01*
X512680Y15089D01*
X512558Y14388D01*
X512388Y13690D01*
X512175Y13028D01*
X511928Y12434D01*
X511646Y11909D01*
X511491Y11672D01*
X511328Y11452D01*
X511154Y11247D01*
X510966Y11053D01*
X510766Y10872D01*
X510552Y10702D01*
X510325Y10544D01*
X510084Y10398D01*
X509830Y10264D01*
X509563Y10142D01*
X509287Y10034D01*
X509006Y9939D01*
X508721Y9860D01*
X508431Y9794D01*
X508137Y9744D01*
X507837Y9707D01*
X507533Y9686D01*
X507225Y9678D01*
G37*
%LPC*%
G36*
X507365Y12253D02*
X507495Y12260D01*
X507624Y12282D01*
X507877Y12367D01*
X508004Y12438D01*
X508133Y12538D01*
X508266Y12666D01*
X508403Y12823D01*
X508537Y13012D01*
X508662Y13239D01*
X508780Y13502D01*
X508889Y13804D01*
X508987Y14127D01*
X509071Y14457D01*
X509140Y14795D01*
X509195Y15139D01*
X509268Y15841D01*
X509286Y16196D01*
X509292Y16554D01*
X509285Y16914D01*
X509266Y17251D01*
X509234Y17563D01*
X509189Y17852D01*
X509131Y18117D01*
X509060Y18359D01*
X508977Y18576D01*
X508880Y18770D01*
X508773Y18940D01*
X508656Y19088D01*
X508531Y19213D01*
X508396Y19315D01*
X508253Y19394D01*
X508100Y19451D01*
X507938Y19485D01*
X507768Y19497D01*
X507567Y19481D01*
X507378Y19435D01*
X507199Y19359D01*
X507032Y19251D01*
X506845Y19089D01*
X506679Y18899D01*
X506534Y18682D01*
X506410Y18437D01*
X506279Y18114D01*
X506165Y17769D01*
X506069Y17401D01*
X505990Y17009D01*
X505921Y16556D01*
X505871Y16081D01*
X505842Y15584D01*
X505832Y15065D01*
X505843Y14621D01*
X505876Y14216D01*
X505931Y13852D01*
X506007Y13528D01*
X506106Y13241D01*
X506227Y12988D01*
X506371Y12770D01*
X506537Y12586D01*
X506722Y12441D01*
X506921Y12336D01*
X507136Y12274D01*
X507365Y12253D01*
G37*
%LPD*%
G36*
X442669Y9906D02*
X440726Y9924D01*
X438661Y9906D01*
X438152Y11596D01*
X438014Y12054D01*
X437898Y12393D01*
X437275Y14136D01*
X436372Y16615D01*
X436841Y16549D01*
X437300Y16527D01*
X437613Y16540D01*
X437910Y16576D01*
X438193Y16636D01*
X438461Y16720D01*
X438706Y16830D01*
X438919Y16965D01*
X439100Y17127D01*
X439249Y17316D01*
X439366Y17520D01*
X439449Y17730D01*
X439500Y17945D01*
X439516Y18165D01*
X439504Y18348D01*
X439466Y18519D01*
X439403Y18679D01*
X439315Y18827D01*
X439200Y18960D01*
X439055Y19075D01*
X438882Y19172D01*
X438680Y19251D01*
X438434Y19313D01*
X438129Y19356D01*
X437766Y19383D01*
X437344Y19392D01*
X436709Y19378D01*
X435943Y19356D01*
X435837Y17364D01*
X435744Y14977D01*
X435673Y12418D01*
X435632Y9906D01*
X433729Y9924D01*
X431896Y9906D01*
X432046Y11371D01*
X432160Y12682D01*
X432250Y14016D01*
X432327Y15547D01*
X432388Y17220D01*
X432432Y18984D01*
X432459Y20608D01*
X432467Y21861D01*
X434236Y21835D01*
X435013Y21845D01*
X435944Y21875D01*
X436938Y21904D01*
X437906Y21914D01*
X438965Y21892D01*
X439449Y21865D01*
X439902Y21826D01*
X440223Y21788D01*
X440529Y21732D01*
X440821Y21661D01*
X441098Y21572D01*
X441356Y21471D01*
X441593Y21359D01*
X441809Y21237D01*
X442004Y21104D01*
X442341Y20811D01*
X442487Y20653D01*
X442617Y20486D01*
X442733Y20308D01*
X442835Y20115D01*
X442923Y19907D01*
X442998Y19685D01*
X443057Y19451D01*
X443100Y19209D01*
X443125Y18958D01*
X443134Y18700D01*
X443124Y18411D01*
X443096Y18131D01*
X443050Y17861D01*
X442985Y17600D01*
X442900Y17348D01*
X442793Y17103D01*
X442665Y16866D01*
X442516Y16637D01*
X442346Y16419D01*
X442155Y16217D01*
X441943Y16029D01*
X441710Y15857D01*
X441443Y15692D01*
X441127Y15526D01*
X440762Y15357D01*
X440348Y15187D01*
X440804Y14075D01*
X441215Y13129D01*
X442389Y10563D01*
X442669Y9906D01*
G37*
G36*
X530749Y9678D02*
X530359Y9687D01*
X529982Y9711D01*
X529618Y9753D01*
X529267Y9811D01*
X528929Y9885D01*
X528605Y9976D01*
X528293Y10084D01*
X527994Y10208D01*
X527712Y10347D01*
X527449Y10498D01*
X527207Y10661D01*
X526985Y10837D01*
X526782Y11024D01*
X526600Y11225D01*
X526437Y11437D01*
X526295Y11662D01*
X526171Y11896D01*
X526063Y12136D01*
X525972Y12382D01*
X525897Y12633D01*
X525839Y12891D01*
X525798Y13154D01*
X525773Y13423D01*
X525765Y13698D01*
X525774Y14026D01*
X525801Y14368D01*
X525846Y14726D01*
X525909Y15100D01*
X526004Y15499D01*
X526142Y15935D01*
X526323Y16408D01*
X526549Y16917D01*
X526819Y17465D01*
X527136Y18053D01*
X527498Y18680D01*
X527906Y19348D01*
X528340Y20020D01*
X528777Y20664D01*
X529218Y21277D01*
X529663Y21861D01*
X534147Y21861D01*
X533041Y20576D01*
X532381Y19786D01*
X531779Y18994D01*
X531214Y18178D01*
X530713Y17380D01*
X530305Y16641D01*
X529969Y15938D01*
X529688Y15249D01*
X529560Y14859D01*
X529474Y14495D01*
X529425Y14156D01*
X529409Y13839D01*
X529419Y13635D01*
X529450Y13436D01*
X529502Y13241D01*
X529574Y13050D01*
X529668Y12872D01*
X529782Y12713D01*
X529917Y12574D01*
X530072Y12455D01*
X530246Y12359D01*
X530437Y12291D01*
X530644Y12249D01*
X530867Y12236D01*
X531079Y12249D01*
X531278Y12287D01*
X531465Y12352D01*
X531640Y12442D01*
X531797Y12554D01*
X531933Y12687D01*
X532048Y12839D01*
X532142Y13011D01*
X532214Y13195D01*
X532266Y13384D01*
X532297Y13578D01*
X532308Y13777D01*
X532300Y13949D01*
X532276Y14108D01*
X532236Y14255D01*
X532179Y14390D01*
X532107Y14514D01*
X532019Y14625D01*
X531915Y14724D01*
X531795Y14811D01*
X531539Y14953D01*
X531284Y15054D01*
X531029Y15115D01*
X530775Y15135D01*
X530578Y15124D01*
X530302Y15091D01*
X531055Y16344D01*
X531765Y17535D01*
X532209Y17594D01*
X532632Y17614D01*
X532880Y17607D01*
X533122Y17589D01*
X533587Y17515D01*
X534027Y17392D01*
X534440Y17219D01*
X534635Y17114D01*
X534817Y16995D01*
X534987Y16863D01*
X535144Y16717D01*
X535290Y16557D01*
X535423Y16384D01*
X535544Y16198D01*
X535653Y15998D01*
X535833Y15572D01*
X535962Y15123D01*
X536007Y14889D01*
X536039Y14650D01*
X536059Y14405D01*
X536065Y14154D01*
X536053Y13820D01*
X536018Y13492D01*
X535959Y13169D01*
X535877Y12853D01*
X535772Y12546D01*
X535648Y12251D01*
X535503Y11968D01*
X535338Y11697D01*
X535152Y11439D01*
X534945Y11196D01*
X534716Y10966D01*
X534467Y10751D01*
X534202Y10556D01*
X533928Y10384D01*
X533645Y10238D01*
X533354Y10116D01*
X533054Y10014D01*
X532744Y9925D01*
X532426Y9849D01*
X532097Y9788D01*
X531763Y9740D01*
X531427Y9706D01*
X531089Y9685D01*
X530749Y9678D01*
G37*
G36*
X500074Y9906D02*
X495511Y9924D01*
X490650Y9906D01*
X490682Y10384D01*
X490707Y10995D01*
X490764Y12382D01*
X491637Y13116D01*
X492437Y13828D01*
X493602Y14932D01*
X494626Y15966D01*
X495327Y16730D01*
X495905Y17429D01*
X496152Y17790D01*
X496299Y18086D01*
X496352Y18272D01*
X496369Y18463D01*
X496362Y18586D01*
X496341Y18700D01*
X496305Y18807D01*
X496255Y18905D01*
X496190Y18996D01*
X496109Y19079D01*
X495896Y19225D01*
X495625Y19343D01*
X495301Y19435D01*
X494926Y19494D01*
X494504Y19514D01*
X494193Y19508D01*
X493874Y19488D01*
X493212Y19409D01*
X492409Y19256D01*
X491359Y19006D01*
X491587Y20259D01*
X491683Y20808D01*
X491815Y21704D01*
X492948Y21872D01*
X494046Y21993D01*
X495107Y22065D01*
X496133Y22089D01*
X496588Y22079D01*
X497033Y22048D01*
X497468Y21996D01*
X497893Y21923D01*
X498303Y21825D01*
X498690Y21698D01*
X499056Y21543D01*
X499400Y21358D01*
X499712Y21150D01*
X499982Y20926D01*
X500211Y20686D01*
X500398Y20429D01*
X500544Y20159D01*
X500648Y19879D01*
X500710Y19588D01*
X500731Y19286D01*
X500707Y18886D01*
X500635Y18489D01*
X500497Y18080D01*
X500276Y17605D01*
X500099Y17291D01*
X499903Y16979D01*
X499688Y16669D01*
X499452Y16361D01*
X499075Y15897D01*
X498668Y15426D01*
X497771Y14460D01*
X496768Y13475D01*
X495581Y12376D01*
X496544Y12367D01*
X497898Y12385D01*
X499303Y12420D01*
X499743Y12448D01*
X500276Y12499D01*
X500192Y11448D01*
X500074Y9906D01*
G37*
G36*
X523449Y9906D02*
X518886Y9924D01*
X514025Y9906D01*
X514057Y10384D01*
X514082Y10995D01*
X514139Y12382D01*
X515012Y13116D01*
X515812Y13828D01*
X516977Y14932D01*
X518001Y15966D01*
X518702Y16730D01*
X519280Y17429D01*
X519527Y17790D01*
X519674Y18086D01*
X519727Y18272D01*
X519744Y18463D01*
X519737Y18586D01*
X519716Y18700D01*
X519680Y18807D01*
X519630Y18905D01*
X519565Y18996D01*
X519484Y19079D01*
X519271Y19225D01*
X519000Y19343D01*
X518676Y19435D01*
X518301Y19494D01*
X517879Y19514D01*
X517568Y19508D01*
X517249Y19488D01*
X516587Y19409D01*
X515784Y19256D01*
X514734Y19006D01*
X514962Y20259D01*
X515058Y20808D01*
X515190Y21704D01*
X516323Y21872D01*
X517421Y21993D01*
X518482Y22065D01*
X519508Y22089D01*
X519963Y22079D01*
X520408Y22048D01*
X520843Y21996D01*
X521268Y21923D01*
X521678Y21825D01*
X522065Y21698D01*
X522431Y21543D01*
X522775Y21358D01*
X523087Y21150D01*
X523357Y20926D01*
X523586Y20686D01*
X523773Y20429D01*
X523919Y20159D01*
X524023Y19879D01*
X524085Y19588D01*
X524106Y19286D01*
X524082Y18886D01*
X524010Y18489D01*
X523872Y18080D01*
X523651Y17605D01*
X523474Y17291D01*
X523278Y16979D01*
X523063Y16669D01*
X522827Y16361D01*
X522450Y15897D01*
X522043Y15426D01*
X521146Y14460D01*
X520143Y13475D01*
X518956Y12376D01*
X519919Y12367D01*
X521273Y12385D01*
X522678Y12420D01*
X523118Y12448D01*
X523651Y12499D01*
X523567Y11448D01*
X523449Y9906D01*
G37*
G36*
X449495Y9678D02*
X448984Y9687D01*
X448494Y9714D01*
X448025Y9760D01*
X447577Y9823D01*
X447154Y9909D01*
X446761Y10023D01*
X446399Y10165D01*
X446066Y10335D01*
X445761Y10530D01*
X445482Y10747D01*
X445229Y10987D01*
X445002Y11249D01*
X444800Y11535D01*
X444624Y11847D01*
X444474Y12185D01*
X444349Y12548D01*
X444252Y12927D01*
X444182Y13312D01*
X444140Y13702D01*
X444126Y14097D01*
X444133Y14376D01*
X444154Y14654D01*
X444189Y14930D01*
X444238Y15205D01*
X444377Y15750D01*
X444573Y16289D01*
X444812Y16796D01*
X445084Y17244D01*
X445388Y17634D01*
X445724Y17965D01*
X446090Y18245D01*
X446483Y18481D01*
X446903Y18674D01*
X447349Y18822D01*
X447812Y18933D01*
X448280Y19013D01*
X448753Y19060D01*
X449232Y19076D01*
X449726Y19062D01*
X450208Y19018D01*
X450678Y18946D01*
X451137Y18844D01*
X451573Y18706D01*
X451975Y18526D01*
X452342Y18301D01*
X452674Y18034D01*
X452967Y17736D01*
X453214Y17419D01*
X453416Y17083D01*
X453572Y16729D01*
X453689Y16358D01*
X453772Y15973D01*
X453823Y15574D01*
X453839Y15161D01*
X453832Y14904D01*
X453811Y14633D01*
X453725Y14049D01*
X450200Y14044D01*
X447586Y14040D01*
X447577Y13787D01*
X447587Y13559D01*
X447619Y13347D01*
X447672Y13151D01*
X447745Y12969D01*
X447840Y12804D01*
X447956Y12654D01*
X448093Y12519D01*
X448251Y12400D01*
X448425Y12296D01*
X448607Y12206D01*
X448799Y12129D01*
X449000Y12067D01*
X449211Y12018D01*
X449430Y11983D01*
X449659Y11962D01*
X449898Y11955D01*
X450197Y11964D01*
X450516Y11989D01*
X450856Y12032D01*
X451216Y12091D01*
X452043Y12274D01*
X453042Y12551D01*
X452876Y11653D01*
X452604Y10011D01*
X451669Y9844D01*
X450896Y9744D01*
X450200Y9695D01*
X449495Y9678D01*
G37*
%LPC*%
G36*
X450546Y15380D02*
X450555Y15634D01*
X450545Y15854D01*
X450514Y16057D01*
X450464Y16243D01*
X450393Y16414D01*
X450303Y16565D01*
X450196Y16694D01*
X450071Y16801D01*
X449929Y16887D01*
X449773Y16952D01*
X449608Y16998D01*
X449433Y17026D01*
X449250Y17035D01*
X448991Y17015D01*
X448742Y16952D01*
X448509Y16849D01*
X448299Y16707D01*
X448119Y16533D01*
X447971Y16335D01*
X447857Y16128D01*
X447778Y15927D01*
X447717Y15692D01*
X447656Y15380D01*
X450546Y15380D01*
G37*
%LPD*%
G36*
X461157Y9906D02*
X459335Y9924D01*
X457407Y9906D01*
X456478Y12779D01*
X454383Y18848D01*
X456242Y18831D01*
X457925Y18848D01*
X458146Y18018D01*
X458512Y16733D01*
X458972Y15079D01*
X459476Y13138D01*
X459704Y13865D01*
X460115Y14986D01*
X461507Y18848D01*
X463292Y18831D01*
X465095Y18848D01*
X463887Y16247D01*
X461638Y11080D01*
X461157Y9906D01*
G37*
G36*
X477555Y9906D02*
X475743Y9924D01*
X473676Y9906D01*
X473804Y11682D01*
X473963Y14294D01*
X474100Y16893D01*
X474163Y18630D01*
X473534Y18231D01*
X472205Y17298D01*
X472301Y19046D01*
X472334Y19916D01*
X472344Y20521D01*
X473354Y21126D01*
X474044Y21568D01*
X474424Y21861D01*
X476222Y21844D01*
X478195Y21861D01*
X478020Y19908D01*
X477643Y13427D01*
X477555Y11045D01*
X477555Y9906D01*
G37*
G36*
X924155Y8490D02*
X923821Y8504D01*
X923498Y8545D01*
X923186Y8613D01*
X922884Y8709D01*
X922596Y8835D01*
X922326Y8996D01*
X922075Y9191D01*
X921842Y9420D01*
X921635Y9678D01*
X921461Y9958D01*
X921321Y10262D01*
X921215Y10588D01*
X921136Y10931D01*
X921080Y11285D01*
X921047Y11652D01*
X921036Y12030D01*
X921051Y12492D01*
X921098Y12951D01*
X921176Y13405D01*
X921285Y13855D01*
X921422Y14283D01*
X921584Y14669D01*
X921770Y15013D01*
X921982Y15317D01*
X922220Y15581D01*
X922487Y15809D01*
X922783Y16000D01*
X923108Y16154D01*
X923451Y16273D01*
X923805Y16358D01*
X924168Y16409D01*
X924541Y16426D01*
X924981Y16404D01*
X925399Y16337D01*
X925794Y16227D01*
X926168Y16073D01*
X926344Y15977D01*
X926511Y15865D01*
X926667Y15738D01*
X926813Y15595D01*
X926950Y15436D01*
X927076Y15262D01*
X927193Y15072D01*
X927299Y14866D01*
X927394Y14648D01*
X927477Y14420D01*
X927547Y14183D01*
X927604Y13936D01*
X927648Y13679D01*
X927680Y13413D01*
X927699Y13138D01*
X927705Y12853D01*
X927690Y12400D01*
X927643Y11950D01*
X927565Y11501D01*
X927456Y11055D01*
X927320Y10632D01*
X927162Y10252D01*
X926981Y9916D01*
X926778Y9624D01*
X926547Y9369D01*
X926282Y9145D01*
X925983Y8951D01*
X925650Y8787D01*
X925294Y8657D01*
X924926Y8565D01*
X924546Y8509D01*
X924155Y8490D01*
G37*
%LPC*%
G36*
X924244Y10137D02*
X924410Y10155D01*
X924572Y10210D01*
X924736Y10319D01*
X924908Y10501D01*
X924994Y10622D01*
X925074Y10767D01*
X925219Y11128D01*
X925335Y11546D01*
X925415Y11982D01*
X925461Y12431D01*
X925476Y12886D01*
X925460Y13332D01*
X925411Y13717D01*
X925328Y14040D01*
X925213Y14303D01*
X925070Y14507D01*
X924904Y14652D01*
X924812Y14703D01*
X924714Y14739D01*
X924611Y14761D01*
X924502Y14768D01*
X924374Y14758D01*
X924253Y14729D01*
X924139Y14680D01*
X924032Y14611D01*
X923912Y14507D01*
X923806Y14386D01*
X923713Y14247D01*
X923634Y14090D01*
X923550Y13884D01*
X923477Y13663D01*
X923416Y13428D01*
X923365Y13178D01*
X923321Y12888D01*
X923290Y12584D01*
X923271Y12266D01*
X923264Y11934D01*
X923271Y11650D01*
X923292Y11392D01*
X923327Y11159D01*
X923376Y10952D01*
X923440Y10768D01*
X923517Y10606D01*
X923609Y10467D01*
X923715Y10350D01*
X923833Y10256D01*
X923961Y10190D01*
X924098Y10150D01*
X924244Y10137D01*
G37*
%LPD*%
G36*
X931623Y8490D02*
X931290Y8504D01*
X930967Y8545D01*
X930654Y8613D01*
X930352Y8709D01*
X930065Y8835D01*
X929795Y8996D01*
X929544Y9191D01*
X929311Y9420D01*
X929103Y9678D01*
X928930Y9958D01*
X928790Y10262D01*
X928683Y10588D01*
X928605Y10931D01*
X928549Y11285D01*
X928515Y11652D01*
X928504Y12030D01*
X928520Y12492D01*
X928567Y12951D01*
X928644Y13405D01*
X928753Y13855D01*
X928891Y14283D01*
X929052Y14669D01*
X929239Y15013D01*
X929451Y15317D01*
X929689Y15581D01*
X929956Y15809D01*
X930252Y16000D01*
X930576Y16154D01*
X930920Y16273D01*
X931273Y16358D01*
X931637Y16409D01*
X932010Y16426D01*
X932450Y16404D01*
X932867Y16337D01*
X933263Y16227D01*
X933637Y16073D01*
X933813Y15977D01*
X933979Y15865D01*
X934136Y15738D01*
X934282Y15595D01*
X934418Y15436D01*
X934545Y15262D01*
X934661Y15072D01*
X934768Y14866D01*
X934863Y14648D01*
X934945Y14420D01*
X935015Y14183D01*
X935072Y13936D01*
X935117Y13679D01*
X935148Y13413D01*
X935168Y13138D01*
X935174Y12853D01*
X935158Y12400D01*
X935112Y11950D01*
X935034Y11501D01*
X934925Y11055D01*
X934789Y10632D01*
X934631Y10252D01*
X934450Y9916D01*
X934247Y9624D01*
X934016Y9369D01*
X933751Y9145D01*
X933452Y8951D01*
X933119Y8787D01*
X932763Y8657D01*
X932395Y8565D01*
X932015Y8509D01*
X931623Y8490D01*
G37*
%LPC*%
G36*
X931713Y10137D02*
X931879Y10155D01*
X932041Y10210D01*
X932204Y10319D01*
X932377Y10501D01*
X932462Y10622D01*
X932543Y10767D01*
X932687Y11128D01*
X932804Y11546D01*
X932883Y11982D01*
X932930Y12431D01*
X932945Y12886D01*
X932929Y13332D01*
X932879Y13717D01*
X932797Y14040D01*
X932682Y14303D01*
X932539Y14507D01*
X932372Y14652D01*
X932281Y14703D01*
X932183Y14739D01*
X932080Y14761D01*
X931971Y14768D01*
X931843Y14758D01*
X931721Y14729D01*
X931607Y14680D01*
X931500Y14611D01*
X931381Y14507D01*
X931275Y14386D01*
X931182Y14247D01*
X931103Y14090D01*
X931019Y13884D01*
X930946Y13663D01*
X930884Y13428D01*
X930834Y13178D01*
X930790Y12888D01*
X930758Y12584D01*
X930739Y12266D01*
X930733Y11934D01*
X930740Y11650D01*
X930761Y11392D01*
X930796Y11159D01*
X930845Y10952D01*
X930908Y10768D01*
X930986Y10606D01*
X931078Y10467D01*
X931184Y10350D01*
X931302Y10256D01*
X931430Y10190D01*
X931567Y10150D01*
X931713Y10137D01*
G37*
%LPD*%
G36*
X942155Y8490D02*
X941821Y8504D01*
X941498Y8545D01*
X941186Y8613D01*
X940884Y8709D01*
X940596Y8835D01*
X940326Y8996D01*
X940075Y9191D01*
X939842Y9420D01*
X939635Y9678D01*
X939461Y9958D01*
X939321Y10262D01*
X939215Y10588D01*
X939136Y10931D01*
X939080Y11285D01*
X939047Y11652D01*
X939036Y12030D01*
X939051Y12492D01*
X939098Y12951D01*
X939176Y13405D01*
X939285Y13855D01*
X939422Y14283D01*
X939584Y14669D01*
X939770Y15013D01*
X939982Y15317D01*
X940220Y15581D01*
X940487Y15809D01*
X940783Y16000D01*
X941108Y16154D01*
X941451Y16273D01*
X941805Y16358D01*
X942168Y16409D01*
X942541Y16426D01*
X942981Y16404D01*
X943399Y16337D01*
X943794Y16227D01*
X944168Y16073D01*
X944344Y15977D01*
X944511Y15865D01*
X944667Y15738D01*
X944813Y15595D01*
X944950Y15436D01*
X945076Y15262D01*
X945193Y15072D01*
X945299Y14866D01*
X945394Y14648D01*
X945477Y14420D01*
X945547Y14183D01*
X945604Y13936D01*
X945648Y13679D01*
X945680Y13413D01*
X945699Y13138D01*
X945705Y12853D01*
X945690Y12400D01*
X945643Y11950D01*
X945565Y11501D01*
X945456Y11055D01*
X945320Y10632D01*
X945162Y10252D01*
X944981Y9916D01*
X944778Y9624D01*
X944547Y9369D01*
X944282Y9145D01*
X943983Y8951D01*
X943650Y8787D01*
X943294Y8657D01*
X942926Y8565D01*
X942546Y8509D01*
X942155Y8490D01*
G37*
%LPC*%
G36*
X942244Y10137D02*
X942410Y10155D01*
X942572Y10210D01*
X942736Y10319D01*
X942908Y10501D01*
X942994Y10622D01*
X943074Y10767D01*
X943219Y11128D01*
X943335Y11546D01*
X943415Y11982D01*
X943461Y12431D01*
X943476Y12886D01*
X943460Y13332D01*
X943411Y13717D01*
X943328Y14040D01*
X943213Y14303D01*
X943070Y14507D01*
X942904Y14652D01*
X942812Y14703D01*
X942714Y14739D01*
X942611Y14761D01*
X942502Y14768D01*
X942374Y14758D01*
X942253Y14729D01*
X942139Y14680D01*
X942032Y14611D01*
X941912Y14507D01*
X941806Y14386D01*
X941713Y14247D01*
X941634Y14090D01*
X941550Y13884D01*
X941477Y13663D01*
X941416Y13428D01*
X941365Y13178D01*
X941321Y12888D01*
X941290Y12584D01*
X941271Y12266D01*
X941264Y11934D01*
X941271Y11650D01*
X941292Y11392D01*
X941327Y11159D01*
X941376Y10952D01*
X941440Y10768D01*
X941517Y10606D01*
X941609Y10467D01*
X941715Y10350D01*
X941833Y10256D01*
X941961Y10190D01*
X942098Y10150D01*
X942244Y10137D01*
G37*
%LPD*%
G36*
X949623Y8490D02*
X949290Y8504D01*
X948967Y8545D01*
X948654Y8613D01*
X948352Y8709D01*
X948065Y8835D01*
X947795Y8996D01*
X947544Y9191D01*
X947311Y9420D01*
X947103Y9678D01*
X946930Y9958D01*
X946790Y10262D01*
X946683Y10588D01*
X946605Y10931D01*
X946549Y11285D01*
X946515Y11652D01*
X946504Y12030D01*
X946520Y12492D01*
X946567Y12951D01*
X946644Y13405D01*
X946753Y13855D01*
X946891Y14283D01*
X947052Y14669D01*
X947239Y15013D01*
X947451Y15317D01*
X947689Y15581D01*
X947956Y15809D01*
X948252Y16000D01*
X948576Y16154D01*
X948920Y16273D01*
X949273Y16358D01*
X949637Y16409D01*
X950010Y16426D01*
X950450Y16404D01*
X950867Y16337D01*
X951263Y16227D01*
X951637Y16073D01*
X951813Y15977D01*
X951979Y15865D01*
X952136Y15738D01*
X952282Y15595D01*
X952418Y15436D01*
X952545Y15262D01*
X952661Y15072D01*
X952768Y14866D01*
X952863Y14648D01*
X952945Y14420D01*
X953015Y14183D01*
X953072Y13936D01*
X953117Y13679D01*
X953148Y13413D01*
X953168Y13138D01*
X953174Y12853D01*
X953158Y12400D01*
X953112Y11950D01*
X953034Y11501D01*
X952925Y11055D01*
X952789Y10632D01*
X952631Y10252D01*
X952450Y9916D01*
X952247Y9624D01*
X952016Y9369D01*
X951751Y9145D01*
X951452Y8951D01*
X951119Y8787D01*
X950763Y8657D01*
X950395Y8565D01*
X950015Y8509D01*
X949623Y8490D01*
G37*
%LPC*%
G36*
X949713Y10137D02*
X949879Y10155D01*
X950041Y10210D01*
X950204Y10319D01*
X950377Y10501D01*
X950462Y10622D01*
X950543Y10767D01*
X950687Y11128D01*
X950804Y11546D01*
X950883Y11982D01*
X950930Y12431D01*
X950945Y12886D01*
X950929Y13332D01*
X950879Y13717D01*
X950797Y14040D01*
X950682Y14303D01*
X950539Y14507D01*
X950372Y14652D01*
X950281Y14703D01*
X950183Y14739D01*
X950080Y14761D01*
X949971Y14768D01*
X949843Y14758D01*
X949721Y14729D01*
X949607Y14680D01*
X949500Y14611D01*
X949381Y14507D01*
X949275Y14386D01*
X949182Y14247D01*
X949103Y14090D01*
X949019Y13884D01*
X948946Y13663D01*
X948884Y13428D01*
X948834Y13178D01*
X948790Y12888D01*
X948758Y12584D01*
X948739Y12266D01*
X948733Y11934D01*
X948740Y11650D01*
X948761Y11392D01*
X948796Y11159D01*
X948845Y10952D01*
X948908Y10768D01*
X948986Y10606D01*
X949078Y10467D01*
X949184Y10350D01*
X949302Y10256D01*
X949430Y10190D01*
X949567Y10150D01*
X949713Y10137D01*
G37*
%LPD*%
G36*
X975092Y8490D02*
X974759Y8504D01*
X974436Y8545D01*
X974123Y8613D01*
X973821Y8709D01*
X973533Y8835D01*
X973264Y8996D01*
X973013Y9191D01*
X972779Y9420D01*
X972572Y9678D01*
X972399Y9958D01*
X972259Y10262D01*
X972152Y10588D01*
X972074Y10931D01*
X972018Y11285D01*
X971984Y11652D01*
X971973Y12030D01*
X971989Y12492D01*
X972035Y12951D01*
X972113Y13405D01*
X972222Y13855D01*
X972359Y14283D01*
X972521Y14669D01*
X972708Y15013D01*
X972919Y15317D01*
X973158Y15581D01*
X973425Y15809D01*
X973721Y16000D01*
X974045Y16154D01*
X974389Y16273D01*
X974742Y16358D01*
X975106Y16409D01*
X975479Y16426D01*
X975918Y16404D01*
X976336Y16337D01*
X976732Y16227D01*
X977105Y16073D01*
X977282Y15977D01*
X977448Y15865D01*
X977604Y15738D01*
X977751Y15595D01*
X977887Y15436D01*
X978014Y15262D01*
X978130Y15072D01*
X978237Y14866D01*
X978332Y14648D01*
X978414Y14420D01*
X978484Y14183D01*
X978541Y13936D01*
X978586Y13679D01*
X978617Y13413D01*
X978636Y13138D01*
X978643Y12853D01*
X978627Y12400D01*
X978580Y11950D01*
X978502Y11501D01*
X978393Y11055D01*
X978258Y10632D01*
X978099Y10252D01*
X977919Y9916D01*
X977716Y9624D01*
X977485Y9369D01*
X977220Y9145D01*
X976920Y8951D01*
X976587Y8787D01*
X976231Y8657D01*
X975864Y8565D01*
X975484Y8509D01*
X975092Y8490D01*
G37*
%LPC*%
G36*
X975182Y10137D02*
X975348Y10155D01*
X975509Y10210D01*
X975673Y10319D01*
X975845Y10501D01*
X975931Y10622D01*
X976011Y10767D01*
X976156Y11128D01*
X976272Y11546D01*
X976352Y11982D01*
X976398Y12431D01*
X976414Y12886D01*
X976397Y13332D01*
X976348Y13717D01*
X976266Y14040D01*
X976151Y14303D01*
X976007Y14507D01*
X975841Y14652D01*
X975749Y14703D01*
X975652Y14739D01*
X975549Y14761D01*
X975439Y14768D01*
X975311Y14758D01*
X975190Y14729D01*
X975076Y14680D01*
X974969Y14611D01*
X974850Y14507D01*
X974744Y14386D01*
X974651Y14247D01*
X974571Y14090D01*
X974487Y13884D01*
X974415Y13663D01*
X974353Y13428D01*
X974303Y13178D01*
X974259Y12888D01*
X974227Y12584D01*
X974208Y12266D01*
X974202Y11934D01*
X974209Y11650D01*
X974230Y11392D01*
X974265Y11159D01*
X974314Y10952D01*
X974377Y10768D01*
X974455Y10606D01*
X974546Y10467D01*
X974653Y10350D01*
X974771Y10256D01*
X974898Y10190D01*
X975035Y10150D01*
X975182Y10137D01*
G37*
%LPD*%
G36*
X959360Y8636D02*
X958212Y8647D01*
X956991Y8636D01*
X957083Y9694D01*
X957140Y10585D01*
X956529Y10579D01*
X956069Y10579D01*
X953962Y10546D01*
X953979Y10719D01*
X953995Y11083D01*
X954040Y12147D01*
X954046Y12455D01*
X954661Y13229D01*
X955364Y14172D01*
X956093Y15212D01*
X956788Y16280D01*
X958340Y16269D01*
X959674Y16280D01*
X959590Y15106D01*
X959527Y13959D01*
X959486Y12963D01*
X959469Y12242D01*
X960100Y12231D01*
X960430Y12234D01*
X960648Y12248D01*
X960626Y10831D01*
X960626Y10568D01*
X960211Y10585D01*
X959636Y10590D01*
X959407Y10585D01*
X959372Y9826D01*
X959360Y8636D01*
G37*
%LPC*%
G36*
X957459Y12158D02*
X957579Y14686D01*
X956973Y13767D01*
X956630Y13279D01*
X955816Y12158D01*
X957459Y12158D01*
G37*
%LPD*%
G36*
X965563Y8636D02*
X962646Y8636D01*
X963573Y9784D01*
X964008Y10357D01*
X964446Y10966D01*
X964833Y11537D01*
X965115Y11996D01*
X965323Y12388D01*
X965488Y12758D01*
X965607Y13082D01*
X965678Y13340D01*
X965714Y13563D01*
X965726Y13782D01*
X965719Y13927D01*
X965700Y14063D01*
X965668Y14191D01*
X965622Y14312D01*
X965564Y14421D01*
X965491Y14515D01*
X965405Y14596D01*
X965306Y14662D01*
X965197Y14713D01*
X965082Y14750D01*
X964961Y14772D01*
X964835Y14779D01*
X964625Y14761D01*
X964431Y14708D01*
X964254Y14620D01*
X964093Y14496D01*
X963960Y14344D01*
X963864Y14168D01*
X963807Y13970D01*
X963788Y13749D01*
X963796Y13619D01*
X963818Y13499D01*
X963854Y13388D01*
X963906Y13287D01*
X963972Y13196D01*
X964051Y13116D01*
X964145Y13047D01*
X964253Y12990D01*
X964484Y12912D01*
X964601Y12893D01*
X964718Y12886D01*
X964893Y12902D01*
X965127Y12948D01*
X964586Y12170D01*
X964040Y11346D01*
X963715Y11318D01*
X963527Y11327D01*
X963330Y11353D01*
X963125Y11397D01*
X962912Y11458D01*
X962701Y11537D01*
X962503Y11634D01*
X962317Y11749D01*
X962145Y11881D01*
X961988Y12033D01*
X961851Y12205D01*
X961735Y12397D01*
X961638Y12609D01*
X961562Y12835D01*
X961508Y13066D01*
X961475Y13304D01*
X961464Y13547D01*
X961482Y13873D01*
X961537Y14188D01*
X961628Y14494D01*
X961755Y14790D01*
X961916Y15068D01*
X962105Y15320D01*
X962323Y15546D01*
X962570Y15745D01*
X962838Y15918D01*
X963118Y16063D01*
X963409Y16181D01*
X963713Y16272D01*
X964028Y16339D01*
X964356Y16387D01*
X964696Y16416D01*
X965048Y16426D01*
X965375Y16415D01*
X965696Y16382D01*
X966011Y16328D01*
X966319Y16252D01*
X966611Y16154D01*
X966874Y16032D01*
X967111Y15888D01*
X967319Y15720D01*
X967501Y15532D01*
X967658Y15326D01*
X967791Y15102D01*
X967899Y14860D01*
X967982Y14612D01*
X968041Y14368D01*
X968077Y14129D01*
X968089Y13894D01*
X968069Y13544D01*
X968011Y13155D01*
X967909Y12735D01*
X967761Y12293D01*
X967558Y11808D01*
X967288Y11260D01*
X966958Y10672D01*
X966574Y10070D01*
X965563Y8636D01*
G37*
G36*
X916781Y8490D02*
X916291Y8512D01*
X915834Y8575D01*
X915410Y8681D01*
X915020Y8829D01*
X914672Y9014D01*
X914375Y9231D01*
X914129Y9479D01*
X913934Y9759D01*
X913785Y10062D01*
X913679Y10380D01*
X913616Y10713D01*
X913595Y11061D01*
X913618Y11489D01*
X913687Y11957D01*
X913747Y12212D01*
X913836Y12491D01*
X913952Y12793D01*
X914096Y13119D01*
X914471Y13845D01*
X914964Y14673D01*
X915520Y15514D01*
X916087Y16280D01*
X918954Y16280D01*
X917825Y14953D01*
X917440Y14447D01*
X917079Y13925D01*
X916759Y13415D01*
X916497Y12942D01*
X916283Y12493D01*
X916103Y12052D01*
X916021Y11803D01*
X915966Y11570D01*
X915935Y11353D01*
X915924Y11150D01*
X915931Y11020D01*
X915951Y10893D01*
X916030Y10646D01*
X916090Y10532D01*
X916163Y10431D01*
X916249Y10342D01*
X916349Y10266D01*
X916460Y10204D01*
X916582Y10161D01*
X916714Y10134D01*
X916857Y10126D01*
X916992Y10134D01*
X917120Y10158D01*
X917239Y10200D01*
X917351Y10257D01*
X917452Y10329D01*
X917539Y10414D01*
X917612Y10511D01*
X917672Y10621D01*
X917751Y10860D01*
X917771Y10984D01*
X917778Y11111D01*
X917758Y11323D01*
X917696Y11503D01*
X917594Y11653D01*
X917450Y11772D01*
X917287Y11863D01*
X917123Y11927D01*
X916961Y11966D01*
X916798Y11979D01*
X916496Y11951D01*
X916977Y12752D01*
X917431Y13514D01*
X917715Y13551D01*
X917985Y13564D01*
X918299Y13548D01*
X918596Y13501D01*
X918877Y13422D01*
X919142Y13312D01*
X919382Y13169D01*
X919592Y12991D01*
X919770Y12778D01*
X919917Y12531D01*
X920032Y12259D01*
X920115Y11971D01*
X920164Y11669D01*
X920180Y11352D01*
X920173Y11138D01*
X920150Y10928D01*
X920113Y10723D01*
X920060Y10520D01*
X919914Y10135D01*
X919716Y9781D01*
X919464Y9461D01*
X919158Y9176D01*
X918814Y8942D01*
X918633Y8848D01*
X918447Y8770D01*
X918057Y8648D01*
X917644Y8560D01*
X917215Y8508D01*
X916781Y8490D01*
G37*
G36*
X984291Y8636D02*
X983132Y8647D01*
X981811Y8636D01*
X981893Y9771D01*
X981994Y11442D01*
X982082Y13103D01*
X982122Y14214D01*
X981720Y13959D01*
X980870Y13362D01*
X980931Y14480D01*
X980959Y15423D01*
X981605Y15810D01*
X982046Y16092D01*
X982289Y16280D01*
X983439Y16269D01*
X984700Y16280D01*
X984588Y15031D01*
X984347Y10887D01*
X984291Y9364D01*
X984291Y8636D01*
G37*
G36*
X938527Y10831D02*
X937020Y10848D01*
X935519Y10831D01*
X935574Y11628D01*
X935603Y12388D01*
X937104Y12366D01*
X938611Y12388D01*
X938556Y11636D01*
X938527Y10831D01*
G37*
G36*
X971464Y10831D02*
X969958Y10848D01*
X968457Y10831D01*
X968512Y11628D01*
X968541Y12388D01*
X970042Y12366D01*
X971548Y12388D01*
X971494Y11636D01*
X971464Y10831D01*
G37*
G36*
X1312505Y-1270D02*
X1308799Y-1270D01*
X1308799Y-628D01*
X1310306Y-628D01*
X1310306Y3921D01*
X1308971Y2968D01*
X1308971Y3681D01*
X1310369Y4642D01*
X1311065Y4642D01*
X1311065Y-628D01*
X1312505Y-628D01*
X1312505Y-1270D01*
G37*
G36*
X1305750Y-1354D02*
X1305567Y-1348D01*
X1305393Y-1330D01*
X1305075Y-1257D01*
X1304795Y-1136D01*
X1304553Y-966D01*
X1304349Y-747D01*
X1304183Y-481D01*
X1304056Y-165D01*
X1303967Y199D01*
X1304751Y329D01*
X1304801Y99D01*
X1304874Y-105D01*
X1304971Y-281D01*
X1305091Y-431D01*
X1305232Y-550D01*
X1305389Y-635D01*
X1305563Y-687D01*
X1305754Y-704D01*
X1305961Y-685D01*
X1306144Y-629D01*
X1306305Y-535D01*
X1306442Y-404D01*
X1306552Y-236D01*
X1306631Y-34D01*
X1306678Y204D01*
X1306694Y476D01*
X1306694Y3988D01*
X1305557Y3988D01*
X1305557Y4642D01*
X1307491Y4642D01*
X1307491Y492D01*
X1307484Y283D01*
X1307462Y85D01*
X1307426Y-101D01*
X1307375Y-276D01*
X1307309Y-439D01*
X1307229Y-591D01*
X1307135Y-732D01*
X1307026Y-861D01*
X1306904Y-976D01*
X1306771Y-1077D01*
X1306628Y-1161D01*
X1306474Y-1231D01*
X1306309Y-1285D01*
X1306133Y-1323D01*
X1305947Y-1346D01*
X1305750Y-1354D01*
G37*
D10*
X1359966Y2306D02*
X1315466Y2306D01*
X1315466Y42906D01*
X1359966Y42906D01*
X1359966Y2306D01*
D11*
X1307846Y40386D02*
X1307848Y40486D01*
X1307854Y40587D01*
X1307864Y40686D01*
X1307878Y40786D01*
X1307895Y40885D01*
X1307917Y40983D01*
X1307943Y41080D01*
X1307972Y41176D01*
X1308005Y41270D01*
X1308042Y41364D01*
X1308082Y41456D01*
X1308126Y41546D01*
X1308174Y41634D01*
X1308225Y41721D01*
X1308279Y41805D01*
X1308337Y41887D01*
X1308398Y41967D01*
X1308462Y42044D01*
X1308529Y42119D01*
X1308599Y42191D01*
X1308672Y42260D01*
X1308747Y42326D01*
X1308825Y42390D01*
X1308905Y42450D01*
X1308988Y42507D01*
X1309073Y42560D01*
X1309160Y42610D01*
X1309249Y42657D01*
X1309339Y42700D01*
X1309431Y42740D01*
X1309525Y42776D01*
X1309620Y42808D01*
X1309716Y42836D01*
X1309814Y42861D01*
X1309912Y42881D01*
X1310011Y42898D01*
X1310111Y42911D01*
X1310210Y42920D01*
X1310311Y42925D01*
X1310411Y42926D01*
X1310511Y42923D01*
X1310612Y42916D01*
X1310711Y42905D01*
X1310811Y42890D01*
X1310909Y42872D01*
X1311007Y42849D01*
X1311104Y42822D01*
X1311199Y42792D01*
X1311294Y42758D01*
X1311387Y42720D01*
X1311478Y42679D01*
X1311568Y42634D01*
X1311656Y42586D01*
X1311742Y42534D01*
X1311826Y42479D01*
X1311907Y42420D01*
X1311986Y42358D01*
X1312063Y42294D01*
X1312137Y42226D01*
X1312208Y42155D01*
X1312277Y42082D01*
X1312342Y42006D01*
X1312405Y41927D01*
X1312464Y41846D01*
X1312520Y41763D01*
X1312573Y41678D01*
X1312622Y41590D01*
X1312668Y41501D01*
X1312710Y41410D01*
X1312749Y41317D01*
X1312784Y41223D01*
X1312815Y41128D01*
X1312843Y41031D01*
X1312866Y40934D01*
X1312886Y40835D01*
X1312902Y40736D01*
X1312914Y40637D01*
X1312922Y40536D01*
X1312926Y40436D01*
X1312926Y40336D01*
X1312922Y40236D01*
X1312914Y40135D01*
X1312902Y40036D01*
X1312886Y39937D01*
X1312866Y39838D01*
X1312843Y39741D01*
X1312815Y39644D01*
X1312784Y39549D01*
X1312749Y39455D01*
X1312710Y39362D01*
X1312668Y39271D01*
X1312622Y39182D01*
X1312573Y39094D01*
X1312520Y39009D01*
X1312464Y38926D01*
X1312405Y38845D01*
X1312342Y38766D01*
X1312277Y38690D01*
X1312208Y38617D01*
X1312137Y38546D01*
X1312063Y38478D01*
X1311986Y38414D01*
X1311907Y38352D01*
X1311826Y38293D01*
X1311742Y38238D01*
X1311656Y38186D01*
X1311568Y38138D01*
X1311478Y38093D01*
X1311387Y38052D01*
X1311294Y38014D01*
X1311199Y37980D01*
X1311104Y37950D01*
X1311007Y37923D01*
X1310909Y37900D01*
X1310811Y37882D01*
X1310711Y37867D01*
X1310612Y37856D01*
X1310511Y37849D01*
X1310411Y37846D01*
X1310311Y37847D01*
X1310210Y37852D01*
X1310111Y37861D01*
X1310011Y37874D01*
X1309912Y37891D01*
X1309814Y37911D01*
X1309716Y37936D01*
X1309620Y37964D01*
X1309525Y37996D01*
X1309431Y38032D01*
X1309339Y38072D01*
X1309249Y38115D01*
X1309160Y38162D01*
X1309073Y38212D01*
X1308988Y38265D01*
X1308905Y38322D01*
X1308825Y38382D01*
X1308747Y38446D01*
X1308672Y38512D01*
X1308599Y38581D01*
X1308529Y38653D01*
X1308462Y38728D01*
X1308398Y38805D01*
X1308337Y38885D01*
X1308279Y38967D01*
X1308225Y39051D01*
X1308174Y39138D01*
X1308126Y39226D01*
X1308082Y39316D01*
X1308042Y39408D01*
X1308005Y39502D01*
X1307972Y39596D01*
X1307943Y39692D01*
X1307917Y39789D01*
X1307895Y39887D01*
X1307878Y39986D01*
X1307864Y40086D01*
X1307854Y40185D01*
X1307848Y40286D01*
X1307846Y40386D01*
M02*
