G04 EAGLE Gerber RS-274X export*
G75*
%MOMM*%
%FSLAX34Y34*%
%LPD*%
%INTop Copper*%
%IPPOS*%
%AMOC8*
5,1,8,0,0,1.08239X$1,22.5*%
G01*
G04 Define Apertures*
%ADD10R,1.900000X1.400000*%
%ADD11R,1.400000X1.200000*%
%ADD12R,1.040000X1.000000*%
%ADD13R,1.500000X0.800000*%
%ADD14R,1.400000X1.300000*%
%ADD15C,1.300000*%
%ADD16R,3.500000X1.000000*%
%ADD17R,3.400000X1.500000*%
%ADD18C,0.858000*%
%ADD19R,0.600000X3.500000*%
%ADD20R,0.800000X3.500000*%
%ADD21R,1.650000X1.300000*%
%ADD22R,0.300000X1.000000*%
%ADD23C,4.316000*%
%ADD24R,0.600000X0.700000*%
%ADD25C,0.800000*%
%ADD26C,1.000000*%
%ADD27C,0.756400*%
%ADD28C,0.152400*%
%ADD29C,0.304800*%
%ADD30C,0.254000*%
%ADD31C,0.508000*%
%ADD32C,0.609600*%
%ADD33C,0.812800*%
%ADD34C,1.575000*%
%ADD35C,3.352800*%
G36*
X332788Y6002D02*
X332491Y5942D01*
X330477Y5942D01*
X330340Y5954D01*
X293241Y12753D01*
X293166Y12771D01*
X256788Y23308D01*
X256715Y23333D01*
X221581Y37473D01*
X221511Y37505D01*
X187976Y55106D01*
X187910Y55145D01*
X156314Y76028D01*
X156252Y76073D01*
X126915Y100026D01*
X126858Y100077D01*
X100077Y126858D01*
X100026Y126915D01*
X76073Y156252D01*
X76028Y156314D01*
X55145Y187910D01*
X55106Y187976D01*
X37505Y221511D01*
X37473Y221581D01*
X23333Y256715D01*
X23308Y256788D01*
X12771Y293166D01*
X12753Y293241D01*
X10958Y303033D01*
X10997Y303445D01*
X11161Y303700D01*
X11411Y303872D01*
X11708Y303932D01*
X30035Y303932D01*
X30928Y304825D01*
X30928Y309797D01*
X30960Y310016D01*
X31104Y310283D01*
X31340Y310474D01*
X31632Y310557D01*
X45772Y311645D01*
X45961Y311636D01*
X46244Y311526D01*
X46461Y311314D01*
X46578Y311034D01*
X46777Y310030D01*
X46761Y309853D01*
X46764Y309853D01*
X46764Y305142D01*
X47831Y304075D01*
X48039Y303685D01*
X48524Y301247D01*
X48559Y301102D01*
X55806Y275408D01*
X55852Y275266D01*
X64636Y251454D01*
X64683Y251203D01*
X64628Y250905D01*
X64460Y250652D01*
X62602Y248793D01*
X62602Y244398D01*
X65710Y241289D01*
X68715Y241289D01*
X68967Y241246D01*
X69227Y241091D01*
X69407Y240846D01*
X76325Y225838D01*
X76393Y225705D01*
X89437Y202413D01*
X89516Y202285D01*
X104347Y180089D01*
X104435Y179967D01*
X120962Y159003D01*
X121059Y158890D01*
X122318Y157527D01*
X122456Y157318D01*
X122521Y157022D01*
X122465Y156724D01*
X122298Y156471D01*
X121694Y155868D01*
X121694Y151472D01*
X124802Y148364D01*
X126481Y148364D01*
X126656Y148344D01*
X126931Y148217D01*
X127135Y147993D01*
X129645Y143788D01*
X141887Y128376D01*
X156066Y114725D01*
X171931Y103076D01*
X189202Y93635D01*
X198387Y90102D01*
X198388Y90102D01*
X198406Y90095D01*
X207400Y86636D01*
X207498Y86590D01*
X225705Y76393D01*
X225838Y76325D01*
X250082Y65149D01*
X250220Y65092D01*
X275266Y55852D01*
X275408Y55806D01*
X295193Y50226D01*
X295525Y50031D01*
X296252Y49304D01*
X298356Y49304D01*
X298563Y49275D01*
X301102Y48559D01*
X301247Y48524D01*
X327430Y43316D01*
X327577Y43293D01*
X354088Y40155D01*
X354238Y40143D01*
X380912Y39095D01*
X381062Y39095D01*
X407737Y40143D01*
X407887Y40155D01*
X434397Y43293D01*
X434545Y43316D01*
X443491Y45096D01*
X443926Y45055D01*
X444179Y44887D01*
X447382Y41684D01*
X451778Y41684D01*
X454886Y44792D01*
X454886Y45326D01*
X454957Y45648D01*
X455138Y45892D01*
X455399Y46046D01*
X462365Y48456D01*
X465471Y49848D01*
X465576Y49886D01*
X486567Y55806D01*
X486709Y55852D01*
X511755Y65092D01*
X511893Y65149D01*
X536136Y76325D01*
X536270Y76393D01*
X559562Y89437D01*
X559689Y89516D01*
X581886Y104347D01*
X582007Y104435D01*
X602971Y120962D01*
X603085Y121059D01*
X622689Y139181D01*
X622794Y139286D01*
X640916Y158890D01*
X641013Y159003D01*
X657539Y179967D01*
X657628Y180089D01*
X672459Y202285D01*
X672537Y202413D01*
X685581Y225705D01*
X685649Y225838D01*
X696826Y250082D01*
X696883Y250220D01*
X705582Y273799D01*
X705758Y274074D01*
X706346Y274662D01*
X706346Y275930D01*
X706375Y276137D01*
X713415Y301102D01*
X713450Y301247D01*
X714334Y305690D01*
X714353Y305765D01*
X715304Y308858D01*
X717945Y323842D01*
X717948Y323858D01*
X718658Y327430D01*
X718682Y327577D01*
X718840Y328916D01*
X718846Y328958D01*
X719378Y331977D01*
X719508Y334540D01*
X719512Y334591D01*
X721819Y354088D01*
X721831Y354238D01*
X722879Y380912D01*
X722879Y381062D01*
X721831Y407737D01*
X721819Y407887D01*
X718682Y434397D01*
X718658Y434545D01*
X715251Y451676D01*
X715236Y451825D01*
X715236Y451914D01*
X715184Y452012D01*
X713450Y460727D01*
X713415Y460873D01*
X706169Y486567D01*
X706123Y486709D01*
X696883Y511755D01*
X696826Y511893D01*
X690160Y526352D01*
X690090Y526671D01*
X690090Y527470D01*
X689360Y528200D01*
X689207Y528420D01*
X685649Y536136D01*
X685581Y536270D01*
X672537Y559562D01*
X672459Y559689D01*
X657628Y581886D01*
X657539Y582007D01*
X652614Y588255D01*
X652514Y588423D01*
X644193Y607529D01*
X644130Y607819D01*
X644121Y608271D01*
X643799Y608582D01*
X643628Y608826D01*
X643450Y609237D01*
X643028Y609402D01*
X642779Y609562D01*
X642453Y609876D01*
X642006Y609867D01*
X641712Y609920D01*
X641296Y610084D01*
X640897Y609910D01*
X640600Y609847D01*
X635056Y609793D01*
X634735Y609860D01*
X634489Y610038D01*
X632920Y611735D01*
X632778Y611955D01*
X632717Y612252D01*
X632717Y615673D01*
X629609Y618781D01*
X626740Y618781D01*
X626426Y618848D01*
X626180Y619025D01*
X622794Y622689D01*
X622689Y622794D01*
X603085Y640916D01*
X602971Y641013D01*
X599128Y644042D01*
X599097Y644068D01*
X597492Y645478D01*
X596624Y646022D01*
X596557Y646070D01*
X582007Y657539D01*
X581886Y657628D01*
X559689Y672459D01*
X559562Y672537D01*
X536270Y685581D01*
X536136Y685649D01*
X511893Y696826D01*
X511755Y696883D01*
X486709Y706123D01*
X486567Y706169D01*
X471756Y710346D01*
X471603Y710408D01*
X459414Y716934D01*
X439602Y724511D01*
X418994Y729533D01*
X397917Y731918D01*
X387312Y731774D01*
X378489Y731654D01*
X361010Y729221D01*
X343969Y724633D01*
X330233Y719024D01*
X330034Y718972D01*
X327577Y718682D01*
X327430Y718658D01*
X316407Y716466D01*
X315972Y716507D01*
X315720Y716674D01*
X313348Y719046D01*
X308952Y719046D01*
X305844Y715938D01*
X305844Y714990D01*
X305722Y714577D01*
X305510Y714360D01*
X305231Y714243D01*
X301247Y713450D01*
X301102Y713415D01*
X275408Y706169D01*
X275266Y706123D01*
X250220Y696883D01*
X250082Y696826D01*
X237827Y691176D01*
X237508Y691106D01*
X234022Y691106D01*
X230994Y688078D01*
X230774Y687925D01*
X225838Y685649D01*
X225705Y685581D01*
X202413Y672537D01*
X202285Y672459D01*
X180089Y657628D01*
X179967Y657539D01*
X159003Y641013D01*
X158890Y640916D01*
X158785Y640819D01*
X158587Y640687D01*
X158292Y640617D01*
X157993Y640668D01*
X157738Y640831D01*
X157707Y640876D01*
X154398Y644185D01*
X150002Y644185D01*
X146894Y641077D01*
X146894Y639655D01*
X146838Y639369D01*
X146671Y639116D01*
X141583Y634029D01*
X140495Y631562D01*
X140353Y631348D01*
X140336Y631336D01*
X139918Y630259D01*
X139905Y630227D01*
X139437Y629167D01*
X139391Y628898D01*
X138621Y626911D01*
X138621Y622382D01*
X138576Y622124D01*
X138418Y621864D01*
X121059Y603085D01*
X120962Y602971D01*
X120610Y602525D01*
X120541Y602449D01*
X111822Y594005D01*
X95547Y573805D01*
X81878Y551758D01*
X71022Y528198D01*
X67353Y516688D01*
X67319Y516600D01*
X65149Y511893D01*
X65092Y511755D01*
X55852Y486709D01*
X55805Y486566D01*
X55194Y484397D01*
X55008Y484074D01*
X54758Y483902D01*
X54460Y483842D01*
X52158Y483842D01*
X49050Y480734D01*
X49050Y476338D01*
X51754Y473635D01*
X51874Y473479D01*
X51971Y473191D01*
X51948Y472889D01*
X48559Y460873D01*
X48524Y460727D01*
X47038Y453252D01*
X46829Y452862D01*
X42229Y448262D01*
X42009Y448109D01*
X41714Y448039D01*
X41415Y448090D01*
X41160Y448254D01*
X40988Y448504D01*
X40928Y448801D01*
X40928Y451587D01*
X40035Y452480D01*
X19773Y452480D01*
X18880Y451587D01*
X18880Y436325D01*
X19604Y435601D01*
X19762Y435371D01*
X19827Y435074D01*
X19771Y434776D01*
X19604Y434523D01*
X16792Y431712D01*
X16792Y427316D01*
X19900Y424208D01*
X24296Y424208D01*
X25143Y425055D01*
X25363Y425208D01*
X25658Y425278D01*
X25957Y425227D01*
X26212Y425064D01*
X26384Y424814D01*
X26444Y424517D01*
X26444Y420458D01*
X29422Y417480D01*
X29580Y417249D01*
X29645Y416953D01*
X29590Y416655D01*
X29422Y416402D01*
X27714Y414694D01*
X27714Y410298D01*
X30565Y407447D01*
X30723Y407216D01*
X30788Y406920D01*
X30733Y406622D01*
X30565Y406369D01*
X28984Y404788D01*
X28984Y400392D01*
X31962Y397414D01*
X32120Y397183D01*
X32185Y396887D01*
X32130Y396589D01*
X31962Y396336D01*
X30254Y394628D01*
X30254Y390232D01*
X32879Y387607D01*
X33032Y387387D01*
X33102Y387092D01*
X33051Y386793D01*
X32888Y386538D01*
X32638Y386366D01*
X32341Y386306D01*
X32092Y386306D01*
X28984Y383198D01*
X28984Y378802D01*
X31200Y376586D01*
X31358Y376355D01*
X31423Y376059D01*
X31368Y375761D01*
X31200Y375508D01*
X27968Y372276D01*
X27968Y367880D01*
X31076Y364772D01*
X35472Y364772D01*
X37585Y366885D01*
X37826Y367048D01*
X38123Y367108D01*
X38905Y367108D01*
X39152Y367067D01*
X39413Y366914D01*
X39595Y366671D01*
X39667Y366376D01*
X39799Y362996D01*
X39749Y362691D01*
X39585Y362436D01*
X39335Y362264D01*
X39038Y362204D01*
X34551Y362204D01*
X33272Y360924D01*
X33030Y360761D01*
X32733Y360701D01*
X29855Y360701D01*
X26747Y357593D01*
X26747Y353197D01*
X29855Y350089D01*
X34251Y350089D01*
X37359Y353197D01*
X37359Y355346D01*
X37410Y355621D01*
X37574Y355876D01*
X37824Y356048D01*
X38121Y356108D01*
X39337Y356108D01*
X39584Y356067D01*
X39846Y355914D01*
X40027Y355671D01*
X40099Y355376D01*
X40143Y354238D01*
X40155Y354088D01*
X43293Y327577D01*
X43316Y327430D01*
X45180Y318059D01*
X45163Y317692D01*
X45019Y317424D01*
X44783Y317234D01*
X44491Y317151D01*
X31749Y316170D01*
X31415Y316219D01*
X31160Y316383D01*
X30988Y316633D01*
X30928Y316930D01*
X30928Y320087D01*
X30035Y320980D01*
X9773Y320980D01*
X9022Y320229D01*
X8644Y320023D01*
X8341Y320019D01*
X8060Y320134D01*
X7846Y320349D01*
X7734Y320631D01*
X5954Y330340D01*
X5942Y330477D01*
X5942Y431523D01*
X5954Y431661D01*
X12753Y468759D01*
X12771Y468834D01*
X23308Y505212D01*
X23333Y505285D01*
X37473Y540419D01*
X37505Y540489D01*
X42758Y550498D01*
X42946Y550730D01*
X43213Y550873D01*
X43514Y550902D01*
X43804Y550810D01*
X44034Y550613D01*
X44169Y550341D01*
X44260Y550003D01*
X45598Y548260D01*
X45811Y548136D01*
X45985Y547999D01*
X46145Y547741D01*
X46192Y547442D01*
X46118Y547148D01*
X40886Y536207D01*
X40738Y535997D01*
X40132Y535391D01*
X40132Y534802D01*
X40057Y534474D01*
X39803Y533943D01*
X40089Y533135D01*
X40132Y532881D01*
X40132Y526383D01*
X40163Y526352D01*
X40326Y526110D01*
X40386Y525813D01*
X40386Y524653D01*
X40414Y524515D01*
X40414Y523074D01*
X43522Y519966D01*
X47918Y519966D01*
X51026Y523074D01*
X51026Y527470D01*
X48483Y530013D01*
X48320Y530254D01*
X48260Y530551D01*
X48260Y532614D01*
X48335Y532942D01*
X51930Y540462D01*
X52054Y540646D01*
X52298Y540825D01*
X52594Y540895D01*
X52892Y540844D01*
X53148Y540681D01*
X53319Y540431D01*
X53380Y540133D01*
X53380Y538318D01*
X54261Y536190D01*
X55890Y534561D01*
X58018Y533680D01*
X60322Y533680D01*
X62450Y534561D01*
X64078Y536190D01*
X64960Y538318D01*
X64960Y540622D01*
X64078Y542750D01*
X63290Y543538D01*
X63139Y543752D01*
X63067Y544047D01*
X63116Y544346D01*
X63277Y544603D01*
X63526Y544776D01*
X63822Y544839D01*
X64120Y544781D01*
X64368Y544678D01*
X66672Y544678D01*
X68800Y545560D01*
X70428Y547189D01*
X71310Y549317D01*
X71310Y551620D01*
X70428Y553748D01*
X69640Y554537D01*
X69489Y554751D01*
X69417Y555045D01*
X69466Y555345D01*
X69627Y555602D01*
X69876Y555775D01*
X70172Y555838D01*
X70470Y555780D01*
X70718Y555677D01*
X73022Y555677D01*
X75150Y556558D01*
X76778Y558187D01*
X77660Y560315D01*
X77660Y562619D01*
X76778Y564747D01*
X75990Y565535D01*
X75839Y565749D01*
X75767Y566044D01*
X75816Y566343D01*
X75977Y566600D01*
X76226Y566773D01*
X76522Y566836D01*
X76820Y566778D01*
X77068Y566676D01*
X79372Y566676D01*
X81500Y567557D01*
X83128Y569186D01*
X84010Y571314D01*
X84010Y573617D01*
X83128Y575745D01*
X82340Y576534D01*
X82189Y576748D01*
X82117Y577042D01*
X82166Y577342D01*
X82327Y577599D01*
X82576Y577772D01*
X82872Y577835D01*
X83170Y577777D01*
X83418Y577674D01*
X85722Y577674D01*
X87850Y578556D01*
X89478Y580184D01*
X90360Y582312D01*
X90360Y584616D01*
X89478Y586744D01*
X87850Y588373D01*
X85722Y589254D01*
X83418Y589254D01*
X81290Y588373D01*
X79833Y586915D01*
X79510Y586723D01*
X79208Y586697D01*
X78919Y586790D01*
X78690Y586989D01*
X78557Y587261D01*
X78540Y587564D01*
X78642Y587849D01*
X82082Y593514D01*
X82186Y593648D01*
X82436Y593820D01*
X82733Y593880D01*
X82970Y593880D01*
X86078Y596988D01*
X86078Y601384D01*
X82970Y604492D01*
X78574Y604492D01*
X75466Y601384D01*
X75466Y598491D01*
X75355Y598096D01*
X71127Y591132D01*
X70953Y590934D01*
X70684Y590795D01*
X70382Y590771D01*
X70263Y590811D01*
X67993Y591110D01*
X67990Y591109D01*
X67678Y591092D01*
X67393Y591197D01*
X67172Y591404D01*
X67049Y591681D01*
X67044Y591984D01*
X67157Y592265D01*
X76028Y605687D01*
X76073Y605748D01*
X100026Y635085D01*
X100077Y635142D01*
X126858Y661923D01*
X126915Y661974D01*
X156252Y685927D01*
X156314Y685972D01*
X187910Y706855D01*
X187976Y706894D01*
X221511Y724495D01*
X221581Y724527D01*
X256715Y738667D01*
X256788Y738692D01*
X293166Y749229D01*
X293241Y749247D01*
X330340Y756046D01*
X330477Y756058D01*
X431523Y756058D01*
X431661Y756046D01*
X468759Y749247D01*
X468834Y749229D01*
X505212Y738692D01*
X505285Y738667D01*
X540419Y724527D01*
X540489Y724495D01*
X574024Y706894D01*
X574090Y706855D01*
X605687Y685972D01*
X605748Y685927D01*
X635085Y661974D01*
X635142Y661923D01*
X661923Y635142D01*
X661974Y635085D01*
X685927Y605748D01*
X685972Y605687D01*
X706855Y574090D01*
X706894Y574024D01*
X724495Y540489D01*
X724527Y540419D01*
X738667Y505285D01*
X738692Y505212D01*
X749229Y468834D01*
X749247Y468759D01*
X756046Y431661D01*
X756058Y431523D01*
X756058Y330477D01*
X756046Y330340D01*
X749247Y293241D01*
X749229Y293166D01*
X738692Y256788D01*
X738667Y256715D01*
X724527Y221581D01*
X724495Y221511D01*
X706894Y187976D01*
X706855Y187910D01*
X685972Y156314D01*
X685927Y156252D01*
X661974Y126915D01*
X661923Y126858D01*
X635142Y100077D01*
X635085Y100026D01*
X605748Y76073D01*
X605687Y76028D01*
X574090Y55145D01*
X574024Y55106D01*
X540489Y37505D01*
X540419Y37473D01*
X505285Y23333D01*
X505212Y23308D01*
X468834Y12771D01*
X468759Y12753D01*
X431661Y5954D01*
X431523Y5942D01*
X429509Y5942D01*
X429246Y5989D01*
X428988Y6148D01*
X428812Y6395D01*
X428747Y6692D01*
X428803Y6990D01*
X428970Y7243D01*
X431002Y9275D01*
X432224Y12224D01*
X432224Y28416D01*
X431002Y31365D01*
X428745Y33622D01*
X425796Y34844D01*
X422604Y34844D01*
X419655Y33622D01*
X417398Y31365D01*
X416176Y28416D01*
X416176Y12224D01*
X417398Y9275D01*
X419430Y7243D01*
X419583Y7023D01*
X419653Y6728D01*
X419602Y6429D01*
X419438Y6174D01*
X419188Y6002D01*
X418891Y5942D01*
X343109Y5942D01*
X342846Y5989D01*
X342588Y6148D01*
X342412Y6395D01*
X342347Y6692D01*
X342403Y6990D01*
X342570Y7243D01*
X344602Y9275D01*
X345824Y12224D01*
X345824Y28416D01*
X344602Y31365D01*
X342345Y33622D01*
X339396Y34844D01*
X336204Y34844D01*
X333255Y33622D01*
X330998Y31365D01*
X329776Y28416D01*
X329776Y12224D01*
X330998Y9275D01*
X333030Y7243D01*
X333183Y7023D01*
X333253Y6728D01*
X333202Y6429D01*
X333038Y6174D01*
X332788Y6002D01*
G37*
%LPC*%
G36*
X93261Y147480D02*
X97239Y147480D01*
X100915Y149002D01*
X103728Y151815D01*
X105250Y155491D01*
X105250Y159469D01*
X103728Y163145D01*
X100915Y165958D01*
X97239Y167480D01*
X93261Y167480D01*
X89585Y165958D01*
X86772Y163145D01*
X85250Y159469D01*
X85250Y155491D01*
X86772Y151815D01*
X89585Y149002D01*
X93261Y147480D01*
G37*
G36*
X379011Y10320D02*
X382989Y10320D01*
X386665Y11842D01*
X389478Y14655D01*
X391000Y18331D01*
X391000Y22309D01*
X389478Y25985D01*
X386665Y28798D01*
X382989Y30320D01*
X379011Y30320D01*
X375335Y28798D01*
X372522Y25985D01*
X371000Y22309D01*
X371000Y18331D01*
X372522Y14655D01*
X375335Y11842D01*
X379011Y10320D01*
G37*
%LPD*%
G36*
X702100Y418366D02*
X701804Y418300D01*
X701506Y418356D01*
X701253Y418524D01*
X601108Y518668D01*
X528966Y518668D01*
X526288Y515990D01*
X526288Y515587D01*
X526232Y515301D01*
X526065Y515048D01*
X501432Y490415D01*
X501190Y490252D01*
X500893Y490192D01*
X499452Y490192D01*
X498433Y489173D01*
X498192Y489010D01*
X497895Y488950D01*
X417543Y488950D01*
X417257Y489006D01*
X417004Y489173D01*
X416037Y490140D01*
X415874Y490382D01*
X415814Y490679D01*
X415814Y494440D01*
X415870Y494726D01*
X416037Y494979D01*
X416274Y495216D01*
X416274Y530085D01*
X416325Y530360D01*
X416489Y530615D01*
X416739Y530787D01*
X417036Y530847D01*
X428464Y530847D01*
X428739Y530796D01*
X428994Y530633D01*
X429166Y530383D01*
X429226Y530085D01*
X429226Y495216D01*
X430119Y494323D01*
X439381Y494323D01*
X440274Y495216D01*
X440274Y530085D01*
X440325Y530360D01*
X440489Y530615D01*
X440739Y530787D01*
X441036Y530847D01*
X477307Y530847D01*
X478803Y532343D01*
X478803Y534773D01*
X478803Y534773D01*
X478803Y630023D01*
X478803Y630023D01*
X478803Y637713D01*
X475472Y655530D01*
X468924Y672431D01*
X459383Y687842D01*
X447172Y701237D01*
X432707Y712160D01*
X422966Y717010D01*
X422730Y717193D01*
X422581Y717457D01*
X422546Y717758D01*
X422632Y718049D01*
X422824Y718283D01*
X423093Y718424D01*
X423395Y718449D01*
X434203Y717170D01*
X434262Y717161D01*
X451226Y713786D01*
X451393Y713732D01*
X466083Y707023D01*
X466168Y706977D01*
X469340Y705012D01*
X469635Y704673D01*
X469700Y704377D01*
X469645Y704078D01*
X469477Y703826D01*
X466412Y700760D01*
X466412Y696365D01*
X469520Y693256D01*
X473916Y693256D01*
X474498Y693838D01*
X474739Y694001D01*
X475036Y694061D01*
X475333Y694001D01*
X479939Y692055D01*
X480441Y691843D01*
X480683Y691680D01*
X481102Y691261D01*
X481663Y691261D01*
X481959Y691201D01*
X571596Y653320D01*
X571596Y653320D01*
X572952Y652746D01*
X573008Y652720D01*
X587226Y645318D01*
X587329Y645253D01*
X600182Y635676D01*
X600274Y635595D01*
X611434Y624088D01*
X611511Y623994D01*
X612739Y622236D01*
X612876Y621824D01*
X612825Y621525D01*
X612662Y621270D01*
X612412Y621098D01*
X612114Y621038D01*
X609630Y621038D01*
X606522Y617930D01*
X606522Y613534D01*
X609630Y610426D01*
X613397Y610426D01*
X613683Y610370D01*
X613936Y610203D01*
X620059Y604080D01*
X631798Y604080D01*
X637470Y604190D01*
X637799Y604123D01*
X638045Y603946D01*
X639786Y602062D01*
X639825Y602016D01*
X641270Y600183D01*
X641370Y600016D01*
X700077Y465207D01*
X700140Y464939D01*
X700094Y464640D01*
X699934Y464381D01*
X699687Y464206D01*
X699391Y464141D01*
X699093Y464197D01*
X698840Y464364D01*
X696634Y466570D01*
X692238Y466570D01*
X689130Y463462D01*
X689130Y459066D01*
X691419Y456777D01*
X691582Y456536D01*
X691642Y456239D01*
X691642Y453213D01*
X691562Y452873D01*
X691419Y452588D01*
X691603Y452038D01*
X691642Y451797D01*
X691642Y451217D01*
X691867Y450992D01*
X692051Y450694D01*
X702514Y419303D01*
X702553Y419099D01*
X702507Y418799D01*
X702347Y418541D01*
X702100Y418366D01*
G37*
%LPC*%
G36*
X518711Y650400D02*
X522689Y650400D01*
X526365Y651922D01*
X529178Y654735D01*
X530700Y658411D01*
X530700Y662389D01*
X529178Y666065D01*
X526365Y668878D01*
X522689Y670400D01*
X518711Y670400D01*
X515035Y668878D01*
X512222Y666065D01*
X510700Y662389D01*
X510700Y658411D01*
X512222Y654735D01*
X515035Y651922D01*
X518711Y650400D01*
G37*
G36*
X552622Y611632D02*
X559898Y611632D01*
X566619Y614416D01*
X571764Y619561D01*
X574548Y626282D01*
X574548Y633558D01*
X571764Y640279D01*
X566619Y645424D01*
X559898Y648208D01*
X552622Y648208D01*
X545901Y645424D01*
X540756Y640279D01*
X537972Y633558D01*
X537972Y626282D01*
X540756Y619561D01*
X545901Y614416D01*
X552622Y611632D01*
G37*
%LPD*%
G36*
X197777Y662615D02*
X197461Y662541D01*
X197163Y662597D01*
X196910Y662764D01*
X196508Y663166D01*
X193633Y663166D01*
X193235Y663278D01*
X193013Y663485D01*
X192889Y663762D01*
X192883Y664065D01*
X192996Y664346D01*
X193209Y664562D01*
X203120Y671184D01*
X203171Y671215D01*
X226437Y684244D01*
X226490Y684271D01*
X250706Y695435D01*
X250761Y695458D01*
X275779Y704688D01*
X275836Y704706D01*
X291539Y709135D01*
X291965Y709131D01*
X292232Y708988D01*
X292422Y708752D01*
X292505Y708460D01*
X292468Y708159D01*
X292317Y707897D01*
X292074Y707714D01*
X197777Y662615D01*
G37*
G36*
X407662Y41666D02*
X381017Y40619D01*
X380957Y40619D01*
X354312Y41666D01*
X354253Y41670D01*
X327771Y44805D01*
X327712Y44814D01*
X302791Y49771D01*
X302419Y49963D01*
X302243Y50210D01*
X302178Y50506D01*
X302234Y50804D01*
X302401Y51057D01*
X303756Y52412D01*
X303756Y56808D01*
X300648Y59916D01*
X296252Y59916D01*
X295543Y59207D01*
X295324Y59054D01*
X295029Y58984D01*
X294730Y59034D01*
X201768Y94789D01*
X200393Y95318D01*
X200346Y95338D01*
X187265Y101396D01*
X187162Y101454D01*
X180948Y105606D01*
X180899Y105641D01*
X159959Y122150D01*
X159913Y122188D01*
X146765Y134342D01*
X146590Y134583D01*
X146520Y134878D01*
X146571Y135177D01*
X146735Y135432D01*
X146985Y135604D01*
X147282Y135664D01*
X148248Y135664D01*
X151356Y138772D01*
X151356Y143168D01*
X148248Y146276D01*
X145817Y146276D01*
X145447Y146372D01*
X145217Y146568D01*
X126298Y170742D01*
X125390Y171902D01*
X125369Y171930D01*
X103071Y203321D01*
X103033Y203381D01*
X83742Y236704D01*
X83709Y236767D01*
X67590Y271735D01*
X67564Y271800D01*
X56373Y303527D01*
X56330Y303768D01*
X56386Y304067D01*
X56553Y304319D01*
X57376Y305142D01*
X57376Y309538D01*
X54268Y312646D01*
X49872Y312646D01*
X49161Y311935D01*
X48795Y311731D01*
X48491Y311723D01*
X48209Y311833D01*
X47992Y312045D01*
X47875Y312325D01*
X44814Y327712D01*
X44805Y327771D01*
X41670Y354253D01*
X41666Y354312D01*
X41626Y355316D01*
X41677Y355621D01*
X41840Y355876D01*
X42090Y356048D01*
X42388Y356108D01*
X43018Y356108D01*
X43293Y356057D01*
X43548Y355893D01*
X43720Y355643D01*
X43780Y355346D01*
X43780Y354525D01*
X44673Y353632D01*
X60935Y353632D01*
X61828Y354525D01*
X61828Y363870D01*
X61879Y364145D01*
X62043Y364400D01*
X62293Y364572D01*
X62590Y364632D01*
X64935Y364632D01*
X65828Y365525D01*
X65828Y374787D01*
X64935Y375680D01*
X62590Y375680D01*
X62315Y375731D01*
X62060Y375895D01*
X61888Y376145D01*
X61828Y376442D01*
X61828Y385787D01*
X60935Y386680D01*
X60590Y386680D01*
X60315Y386731D01*
X60060Y386895D01*
X59888Y387145D01*
X59828Y387442D01*
X59828Y396870D01*
X59879Y397145D01*
X60043Y397400D01*
X60293Y397572D01*
X60590Y397632D01*
X60935Y397632D01*
X61828Y398525D01*
X61828Y407787D01*
X61067Y408548D01*
X60904Y408790D01*
X60844Y409087D01*
X60844Y413394D01*
X50042Y413394D01*
X50042Y414918D01*
X60844Y414918D01*
X60844Y419225D01*
X60900Y419511D01*
X61067Y419764D01*
X61828Y420525D01*
X61828Y429787D01*
X61498Y430117D01*
X61340Y430348D01*
X61275Y430644D01*
X61331Y430942D01*
X61498Y431195D01*
X61828Y431525D01*
X61828Y440787D01*
X60935Y441680D01*
X47218Y441680D01*
X46810Y441798D01*
X46591Y442009D01*
X46472Y442287D01*
X46471Y442591D01*
X50016Y460415D01*
X50030Y460473D01*
X52889Y470609D01*
X53058Y470915D01*
X53303Y471094D01*
X53598Y471164D01*
X53897Y471113D01*
X54152Y470949D01*
X54324Y470699D01*
X54384Y470402D01*
X54384Y467702D01*
X57492Y464594D01*
X61888Y464594D01*
X64996Y467702D01*
X64996Y472098D01*
X63553Y473541D01*
X63347Y473917D01*
X63343Y474220D01*
X65975Y488257D01*
X66246Y489705D01*
X66256Y489751D01*
X72394Y514098D01*
X72423Y514188D01*
X81507Y537596D01*
X81546Y537682D01*
X85265Y544598D01*
X85380Y544758D01*
X85628Y544934D01*
X85924Y544999D01*
X86222Y544943D01*
X86475Y544776D01*
X89069Y542181D01*
X93465Y542181D01*
X96193Y544910D01*
X96424Y545068D01*
X96720Y545133D01*
X97018Y545078D01*
X97271Y544910D01*
X104961Y537220D01*
X105124Y536979D01*
X105184Y536681D01*
X105184Y532726D01*
X108292Y529618D01*
X112688Y529618D01*
X115796Y532726D01*
X115796Y537122D01*
X112688Y540230D01*
X108733Y540230D01*
X108447Y540286D01*
X108194Y540453D01*
X100436Y548211D01*
X98953Y549694D01*
X98795Y549925D01*
X98730Y550221D01*
X98785Y550519D01*
X98953Y550772D01*
X101324Y553143D01*
X101565Y553306D01*
X101862Y553366D01*
X102847Y553366D01*
X103122Y553315D01*
X103377Y553151D01*
X103548Y552901D01*
X103609Y552604D01*
X103609Y550455D01*
X106717Y547347D01*
X111113Y547347D01*
X114221Y550455D01*
X114221Y554851D01*
X111113Y557959D01*
X106483Y557959D01*
X106381Y557938D01*
X101862Y557938D01*
X101576Y557994D01*
X101324Y558161D01*
X98527Y560958D01*
X95729Y560958D01*
X95308Y561085D01*
X95093Y561299D01*
X94980Y561580D01*
X94984Y561883D01*
X95107Y562161D01*
X108007Y580361D01*
X108066Y580434D01*
X124994Y598980D01*
X125061Y599045D01*
X143830Y615105D01*
X144050Y615236D01*
X144583Y615443D01*
X144676Y615655D01*
X144915Y615956D01*
X145109Y616103D01*
X145249Y616186D01*
X145544Y616256D01*
X145843Y616205D01*
X146098Y616041D01*
X146270Y615791D01*
X146330Y615494D01*
X146330Y614498D01*
X147818Y613010D01*
X165608Y613010D01*
X165608Y619788D01*
X146198Y619788D01*
X146009Y619587D01*
X145732Y619464D01*
X145429Y619459D01*
X145147Y619572D01*
X144933Y619787D01*
X144819Y620068D01*
X144222Y623262D01*
X144222Y623542D01*
X144569Y625397D01*
X144623Y625570D01*
X144801Y625816D01*
X145051Y626048D01*
X145249Y626180D01*
X145544Y626250D01*
X145843Y626199D01*
X146098Y626035D01*
X146270Y625785D01*
X146330Y625488D01*
X146330Y621312D01*
X165608Y621312D01*
X165608Y628090D01*
X149207Y628090D01*
X148916Y628148D01*
X148664Y628317D01*
X148499Y628571D01*
X148445Y628870D01*
X148513Y629166D01*
X148690Y629412D01*
X152973Y633371D01*
X153193Y633513D01*
X153490Y633573D01*
X154398Y633573D01*
X157506Y636682D01*
X157506Y637228D01*
X157573Y637541D01*
X157751Y637787D01*
X159913Y639786D01*
X159959Y639825D01*
X180899Y656334D01*
X180948Y656369D01*
X187819Y660960D01*
X188218Y661088D01*
X188517Y661037D01*
X188772Y660873D01*
X188944Y660623D01*
X189004Y660326D01*
X189004Y655662D01*
X192112Y652554D01*
X196508Y652554D01*
X199616Y655662D01*
X199616Y656820D01*
X199656Y657062D01*
X199807Y657325D01*
X200049Y657508D01*
X294593Y702724D01*
X294898Y702799D01*
X295197Y702748D01*
X295452Y702584D01*
X295624Y702334D01*
X295684Y702037D01*
X295684Y697572D01*
X298792Y694464D01*
X303188Y694464D01*
X306296Y697572D01*
X306296Y699103D01*
X306321Y699297D01*
X306455Y699569D01*
X306684Y699767D01*
X321112Y707883D01*
X321253Y707945D01*
X321555Y707978D01*
X321845Y707891D01*
X322079Y707697D01*
X322218Y707428D01*
X322242Y707126D01*
X322146Y706838D01*
X321945Y706611D01*
X314828Y701237D01*
X302618Y687842D01*
X293076Y672431D01*
X286528Y655530D01*
X283197Y637713D01*
X283197Y630023D01*
X283197Y630023D01*
X283197Y532343D01*
X284693Y530847D01*
X320964Y530847D01*
X321239Y530796D01*
X321494Y530633D01*
X321666Y530383D01*
X321726Y530085D01*
X321726Y495216D01*
X322619Y494323D01*
X331881Y494323D01*
X332774Y495216D01*
X332774Y530085D01*
X332825Y530360D01*
X332989Y530615D01*
X333239Y530787D01*
X333536Y530847D01*
X353964Y530847D01*
X354239Y530796D01*
X354494Y530633D01*
X354666Y530383D01*
X354726Y530085D01*
X354726Y495216D01*
X355619Y494323D01*
X355854Y494323D01*
X356129Y494272D01*
X356384Y494109D01*
X356556Y493859D01*
X356616Y493561D01*
X356616Y488409D01*
X356560Y488123D01*
X356393Y487871D01*
X354104Y485582D01*
X354104Y481186D01*
X354895Y480395D01*
X355048Y480175D01*
X355118Y479880D01*
X355067Y479581D01*
X354904Y479326D01*
X354654Y479154D01*
X354357Y479094D01*
X287786Y479094D01*
X287500Y479150D01*
X287247Y479317D01*
X269971Y496593D01*
X269808Y496835D01*
X269748Y497132D01*
X269748Y556761D01*
X222911Y603598D01*
X186156Y603598D01*
X185881Y603649D01*
X185626Y603813D01*
X185454Y604063D01*
X185394Y604360D01*
X185394Y606181D01*
X184501Y607074D01*
X148239Y607074D01*
X147346Y606181D01*
X147346Y594919D01*
X148239Y594026D01*
X184501Y594026D01*
X185394Y594919D01*
X185394Y596740D01*
X185445Y597015D01*
X185609Y597270D01*
X185859Y597442D01*
X186156Y597502D01*
X220070Y597502D01*
X220356Y597446D01*
X220609Y597279D01*
X232989Y584899D01*
X233142Y584679D01*
X233211Y584384D01*
X233161Y584085D01*
X232997Y583830D01*
X232747Y583658D01*
X232450Y583598D01*
X186156Y583598D01*
X185881Y583649D01*
X185626Y583813D01*
X185454Y584063D01*
X185394Y584360D01*
X185394Y586181D01*
X184501Y587074D01*
X148239Y587074D01*
X147346Y586181D01*
X147346Y574919D01*
X148239Y574026D01*
X184501Y574026D01*
X185394Y574919D01*
X185394Y576740D01*
X185445Y577015D01*
X185609Y577270D01*
X185859Y577442D01*
X186156Y577502D01*
X233604Y577502D01*
X233890Y577446D01*
X234143Y577279D01*
X258349Y553073D01*
X258512Y552831D01*
X258572Y552534D01*
X258572Y492906D01*
X285896Y465582D01*
X367085Y465582D01*
X367371Y465526D01*
X367623Y465359D01*
X369072Y463910D01*
X373468Y463910D01*
X374917Y465359D01*
X375158Y465522D01*
X375455Y465582D01*
X376004Y465582D01*
X376290Y465526D01*
X376290Y465526D01*
X411183Y465526D01*
X415278Y469621D01*
X415520Y469784D01*
X415817Y469844D01*
X490730Y469844D01*
X491016Y469788D01*
X491269Y469621D01*
X499595Y461295D01*
X499748Y461075D01*
X499817Y460780D01*
X499767Y460481D01*
X499603Y460226D01*
X499353Y460054D01*
X499056Y459994D01*
X270369Y459994D01*
X263452Y453077D01*
X263210Y452914D01*
X262913Y452854D01*
X259676Y452854D01*
X256568Y449746D01*
X256568Y446814D01*
X256517Y446539D01*
X256353Y446284D01*
X256103Y446112D01*
X255806Y446052D01*
X219851Y446052D01*
X213338Y439539D01*
X213096Y439376D01*
X212799Y439316D01*
X209562Y439316D01*
X206454Y436208D01*
X206454Y432559D01*
X206407Y432296D01*
X206247Y432038D01*
X206000Y431862D01*
X205704Y431797D01*
X205406Y431853D01*
X205153Y432020D01*
X201030Y436144D01*
X200893Y436169D01*
X200638Y436333D01*
X200466Y436583D01*
X200406Y436880D01*
X200406Y442207D01*
X195605Y447007D01*
X195442Y447249D01*
X195434Y447291D01*
X191739Y450985D01*
X191576Y451227D01*
X191516Y451524D01*
X191516Y486726D01*
X191572Y487012D01*
X191739Y487265D01*
X192823Y488348D01*
X192823Y492744D01*
X189714Y495852D01*
X189261Y495852D01*
X188975Y495908D01*
X188722Y496075D01*
X175737Y509061D01*
X175574Y509302D01*
X175514Y509599D01*
X175514Y553264D01*
X175565Y553539D01*
X175729Y553794D01*
X175979Y553966D01*
X176276Y554026D01*
X184501Y554026D01*
X185394Y554919D01*
X185394Y566181D01*
X184501Y567074D01*
X148239Y567074D01*
X147346Y566181D01*
X147346Y554919D01*
X148239Y554026D01*
X165608Y554026D01*
X165883Y553975D01*
X166138Y553811D01*
X166310Y553561D01*
X166370Y553264D01*
X166370Y539187D01*
X166323Y538924D01*
X166164Y538666D01*
X165916Y538491D01*
X165620Y538426D01*
X165322Y538481D01*
X165069Y538649D01*
X161964Y541754D01*
X157568Y541754D01*
X155279Y539465D01*
X155038Y539302D01*
X154741Y539242D01*
X133041Y539242D01*
X132755Y539298D01*
X132503Y539465D01*
X131738Y540230D01*
X127342Y540230D01*
X124234Y537122D01*
X124234Y532726D01*
X127342Y529618D01*
X131738Y529618D01*
X134846Y532726D01*
X134846Y532892D01*
X134897Y533167D01*
X135061Y533422D01*
X135311Y533594D01*
X135608Y533654D01*
X154741Y533654D01*
X155027Y533598D01*
X155279Y533431D01*
X157568Y531142D01*
X161964Y531142D01*
X165069Y534247D01*
X165289Y534400D01*
X165584Y534470D01*
X165883Y534419D01*
X166138Y534256D01*
X166310Y534006D01*
X166370Y533709D01*
X166370Y505496D01*
X181987Y489879D01*
X182150Y489637D01*
X182211Y489340D01*
X182211Y488318D01*
X182312Y488168D01*
X182372Y487871D01*
X182372Y461717D01*
X182325Y461454D01*
X182166Y461196D01*
X181918Y461021D01*
X181622Y460956D01*
X181324Y461011D01*
X181071Y461179D01*
X179490Y462760D01*
X175094Y462760D01*
X171986Y459652D01*
X171986Y455256D01*
X174247Y452995D01*
X174410Y452754D01*
X174470Y452457D01*
X174470Y445984D01*
X174594Y445860D01*
X174747Y445640D01*
X174817Y445345D01*
X174766Y445046D01*
X174602Y444791D01*
X174352Y444619D01*
X174055Y444559D01*
X173654Y444559D01*
X170546Y441451D01*
X170546Y437846D01*
X170499Y437582D01*
X170340Y437324D01*
X170092Y437149D01*
X169796Y437084D01*
X169731Y437096D01*
X162166Y437096D01*
X162166Y429318D01*
X170944Y429318D01*
X170944Y434818D01*
X170991Y435081D01*
X171150Y435339D01*
X171398Y435514D01*
X171694Y435579D01*
X171992Y435524D01*
X172245Y435356D01*
X173654Y433947D01*
X176891Y433947D01*
X177177Y433891D01*
X177430Y433724D01*
X178903Y432251D01*
X179066Y432009D01*
X179126Y431712D01*
X179126Y429205D01*
X179079Y428942D01*
X178920Y428684D01*
X178672Y428509D01*
X178376Y428444D01*
X178078Y428499D01*
X177825Y428667D01*
X177542Y428950D01*
X173146Y428950D01*
X172245Y428049D01*
X172025Y427896D01*
X171730Y427826D01*
X171431Y427877D01*
X171325Y427945D01*
X171325Y427794D01*
X151864Y427794D01*
X151864Y421504D01*
X153352Y420016D01*
X157618Y420016D01*
X157893Y419965D01*
X158148Y419801D01*
X158320Y419551D01*
X158380Y419254D01*
X158380Y408425D01*
X159273Y407532D01*
X161548Y407532D01*
X161823Y407481D01*
X162078Y407317D01*
X162250Y407067D01*
X162310Y406770D01*
X162310Y398889D01*
X168433Y392766D01*
X168596Y392524D01*
X168656Y392227D01*
X168656Y380858D01*
X168605Y380583D01*
X168441Y380328D01*
X168191Y380156D01*
X167894Y380096D01*
X162166Y380096D01*
X162166Y362016D01*
X164455Y362016D01*
X164718Y361969D01*
X164976Y361810D01*
X165152Y361562D01*
X165217Y361266D01*
X165161Y360968D01*
X164994Y360715D01*
X157226Y352947D01*
X157226Y341635D01*
X159599Y339262D01*
X159762Y339020D01*
X159822Y338723D01*
X159822Y335486D01*
X162930Y332378D01*
X167326Y332378D01*
X170434Y335486D01*
X170434Y339882D01*
X169756Y340560D01*
X169598Y340790D01*
X169533Y341087D01*
X169588Y341385D01*
X169756Y341638D01*
X172692Y344574D01*
X172692Y345132D01*
X172748Y345418D01*
X172915Y345671D01*
X177825Y350581D01*
X178045Y350734D01*
X178340Y350803D01*
X178639Y350753D01*
X178894Y350589D01*
X179066Y350339D01*
X179126Y350042D01*
X179126Y328624D01*
X179070Y328338D01*
X178903Y328085D01*
X158915Y308097D01*
X158673Y307934D01*
X158376Y307874D01*
X154605Y307874D01*
X154319Y307930D01*
X154067Y308097D01*
X150746Y311418D01*
X146350Y311418D01*
X143242Y308310D01*
X143242Y303914D01*
X146350Y300806D01*
X150746Y300806D01*
X152002Y302063D01*
X152244Y302226D01*
X152541Y302286D01*
X159935Y302286D01*
X160198Y302239D01*
X160457Y302080D01*
X160632Y301832D01*
X160697Y301536D01*
X160641Y301238D01*
X160474Y300985D01*
X135302Y275813D01*
X135060Y275650D01*
X134763Y275590D01*
X126227Y275590D01*
X100076Y249439D01*
X100076Y219363D01*
X177016Y142423D01*
X198662Y142423D01*
X198948Y142367D01*
X199201Y142200D01*
X218829Y122572D01*
X218992Y122330D01*
X219052Y122033D01*
X219052Y121798D01*
X247632Y93218D01*
X335995Y93218D01*
X336281Y93162D01*
X336534Y92995D01*
X350539Y78990D01*
X350702Y78748D01*
X350762Y78451D01*
X350762Y77010D01*
X353870Y73902D01*
X358266Y73902D01*
X361374Y77010D01*
X361374Y78451D01*
X361430Y78737D01*
X361597Y78990D01*
X368490Y85883D01*
X368732Y86046D01*
X369029Y86106D01*
X369831Y86106D01*
X370094Y86059D01*
X370352Y85900D01*
X370528Y85652D01*
X370593Y85356D01*
X370537Y85058D01*
X370370Y84805D01*
X367554Y81990D01*
X367554Y77594D01*
X370662Y74486D01*
X375058Y74486D01*
X377347Y76775D01*
X377588Y76937D01*
X377885Y76998D01*
X383587Y76998D01*
X383873Y76942D01*
X384126Y76775D01*
X384834Y76066D01*
X389230Y76066D01*
X392338Y79174D01*
X392338Y83570D01*
X391103Y84805D01*
X390950Y85025D01*
X390880Y85320D01*
X390931Y85619D01*
X391094Y85874D01*
X391344Y86046D01*
X391641Y86106D01*
X411535Y86106D01*
X411821Y86050D01*
X412073Y85883D01*
X413092Y84864D01*
X417488Y84864D01*
X420596Y87972D01*
X420596Y92368D01*
X417488Y95476D01*
X413092Y95476D01*
X412073Y94457D01*
X411832Y94294D01*
X411535Y94234D01*
X384837Y94234D01*
X384551Y94290D01*
X384298Y94457D01*
X383239Y95517D01*
X378843Y95517D01*
X377783Y94457D01*
X377542Y94294D01*
X377245Y94234D01*
X365347Y94234D01*
X356607Y85494D01*
X356376Y85336D01*
X356080Y85271D01*
X355782Y85327D01*
X355529Y85494D01*
X340724Y100299D01*
X340571Y100519D01*
X340501Y100814D01*
X340552Y101113D01*
X340716Y101368D01*
X340966Y101540D01*
X341263Y101600D01*
X449442Y101600D01*
X505226Y157384D01*
X505467Y157547D01*
X505764Y157607D01*
X507813Y157607D01*
X508987Y158781D01*
X509228Y158944D01*
X509525Y159004D01*
X529250Y159004D01*
X577543Y207297D01*
X577784Y207460D01*
X578082Y207520D01*
X578804Y207520D01*
X581912Y210628D01*
X581912Y211350D01*
X581968Y211636D01*
X582135Y211889D01*
X595575Y225329D01*
X595817Y225492D01*
X596114Y225552D01*
X642820Y225552D01*
X668508Y251240D01*
X668749Y251403D01*
X669047Y251463D01*
X672079Y251463D01*
X678727Y258111D01*
X678988Y258282D01*
X679286Y258334D01*
X679582Y258266D01*
X679827Y258088D01*
X679984Y257828D01*
X680027Y257528D01*
X679949Y257235D01*
X669681Y236457D01*
X669658Y236414D01*
X648647Y199950D01*
X648621Y199909D01*
X625330Y164857D01*
X625302Y164818D01*
X624769Y164116D01*
X624482Y163886D01*
X624187Y163816D01*
X623888Y163867D01*
X623632Y164030D01*
X623461Y164280D01*
X623400Y164578D01*
X623400Y164727D01*
X620292Y167835D01*
X615896Y167835D01*
X612788Y164727D01*
X612788Y162156D01*
X612701Y161802D01*
X612509Y161567D01*
X534170Y97412D01*
X534134Y97384D01*
X507651Y78184D01*
X507576Y78135D01*
X479021Y62178D01*
X478940Y62139D01*
X453225Y51513D01*
X452946Y51455D01*
X452648Y51511D01*
X452396Y51678D01*
X451778Y52296D01*
X447382Y52296D01*
X444274Y49188D01*
X444274Y47431D01*
X444152Y47018D01*
X443940Y46801D01*
X443661Y46683D01*
X434262Y44814D01*
X434203Y44805D01*
X407722Y41670D01*
X407662Y41666D01*
G37*
%LPC*%
G36*
X272331Y665640D02*
X276309Y665640D01*
X279985Y667162D01*
X282798Y669975D01*
X284320Y673651D01*
X284320Y677629D01*
X282798Y681305D01*
X279985Y684118D01*
X276309Y685640D01*
X272331Y685640D01*
X268655Y684118D01*
X265842Y681305D01*
X264320Y677629D01*
X264320Y673651D01*
X265842Y669975D01*
X268655Y667162D01*
X272331Y665640D01*
G37*
G36*
X206239Y635026D02*
X241501Y635026D01*
X242394Y635919D01*
X242394Y652181D01*
X241501Y653074D01*
X206239Y653074D01*
X205346Y652181D01*
X205346Y635919D01*
X206239Y635026D01*
G37*
G36*
X167132Y621312D02*
X186410Y621312D01*
X186410Y626602D01*
X184922Y628090D01*
X167132Y628090D01*
X167132Y621312D01*
G37*
G36*
X167132Y613010D02*
X184922Y613010D01*
X186410Y614498D01*
X186410Y619788D01*
X167132Y619788D01*
X167132Y613010D01*
G37*
G36*
X206239Y528026D02*
X241501Y528026D01*
X242394Y528919D01*
X242394Y545181D01*
X241501Y546074D01*
X206239Y546074D01*
X205346Y545181D01*
X205346Y528919D01*
X206239Y528026D01*
G37*
G36*
X124217Y481677D02*
X131492Y481677D01*
X138214Y484461D01*
X143358Y489605D01*
X146143Y496327D01*
X146143Y503602D01*
X143358Y510324D01*
X138214Y515468D01*
X131492Y518253D01*
X124217Y518253D01*
X117495Y515468D01*
X112351Y510324D01*
X109567Y503602D01*
X109567Y496327D01*
X112351Y489605D01*
X117495Y484461D01*
X124217Y481677D01*
G37*
G36*
X202229Y443738D02*
X206624Y443738D01*
X209732Y446846D01*
X209732Y451242D01*
X206624Y454350D01*
X202229Y454350D01*
X199120Y451242D01*
X199120Y446846D01*
X202229Y443738D01*
G37*
G36*
X101506Y353656D02*
X124492Y353656D01*
X124547Y353665D01*
X124548Y353668D01*
X124554Y353708D01*
X124554Y405294D01*
X124605Y405569D01*
X124769Y405824D01*
X125019Y405996D01*
X125316Y406056D01*
X142792Y406056D01*
X142847Y406065D01*
X142848Y406068D01*
X142854Y406108D01*
X142854Y421094D01*
X142845Y421149D01*
X142842Y421150D01*
X142802Y421156D01*
X125316Y421156D01*
X125041Y421207D01*
X124786Y421371D01*
X124614Y421621D01*
X124554Y421918D01*
X124554Y441294D01*
X124545Y441349D01*
X124542Y441350D01*
X124502Y441356D01*
X101516Y441356D01*
X101461Y441347D01*
X101460Y441344D01*
X101454Y441304D01*
X101454Y353718D01*
X101463Y353663D01*
X101466Y353662D01*
X101506Y353656D01*
G37*
G36*
X151864Y429318D02*
X160642Y429318D01*
X160642Y437096D01*
X153352Y437096D01*
X151864Y435608D01*
X151864Y429318D01*
G37*
G36*
X151864Y371818D02*
X160642Y371818D01*
X160642Y380096D01*
X153352Y380096D01*
X151864Y378608D01*
X151864Y371818D01*
G37*
G36*
X153352Y362016D02*
X160642Y362016D01*
X160642Y370294D01*
X151864Y370294D01*
X151864Y363504D01*
X153352Y362016D01*
G37*
G36*
X85119Y260303D02*
X92394Y260303D01*
X99116Y263087D01*
X104260Y268232D01*
X107045Y274953D01*
X107045Y282229D01*
X104260Y288951D01*
X99116Y294095D01*
X92394Y296879D01*
X85119Y296879D01*
X78397Y294095D01*
X73253Y288951D01*
X70469Y282229D01*
X70469Y274953D01*
X73253Y268232D01*
X78397Y263087D01*
X85119Y260303D01*
G37*
G36*
X617646Y185674D02*
X624922Y185674D01*
X631643Y188458D01*
X636788Y193603D01*
X639572Y200324D01*
X639572Y207600D01*
X636788Y214321D01*
X631643Y219466D01*
X624922Y222250D01*
X617646Y222250D01*
X610925Y219466D01*
X605780Y214321D01*
X602996Y207600D01*
X602996Y200324D01*
X605780Y193603D01*
X610925Y188458D01*
X617646Y185674D01*
G37*
G36*
X336204Y47596D02*
X339396Y47596D01*
X342345Y48818D01*
X344602Y51075D01*
X345766Y53883D01*
X345910Y54108D01*
X346156Y54286D01*
X346451Y54353D01*
X346750Y54300D01*
X347004Y54135D01*
X347174Y53883D01*
X347191Y53840D01*
X348820Y52211D01*
X350948Y51330D01*
X353252Y51330D01*
X355380Y52211D01*
X357009Y53840D01*
X357890Y55968D01*
X357890Y58272D01*
X357009Y60400D01*
X355380Y62029D01*
X353252Y62910D01*
X350948Y62910D01*
X348820Y62029D01*
X347125Y60333D01*
X346905Y60180D01*
X346610Y60110D01*
X346311Y60161D01*
X346056Y60325D01*
X345884Y60575D01*
X345824Y60872D01*
X345824Y70216D01*
X344602Y73165D01*
X342345Y75422D01*
X339396Y76644D01*
X336204Y76644D01*
X333255Y75422D01*
X330998Y73165D01*
X329776Y70216D01*
X329776Y54024D01*
X330998Y51075D01*
X333255Y48818D01*
X336204Y47596D01*
G37*
G36*
X422604Y47596D02*
X425796Y47596D01*
X428745Y48818D01*
X431002Y51075D01*
X432224Y54024D01*
X432224Y70216D01*
X431002Y73165D01*
X428745Y75422D01*
X425796Y76644D01*
X422604Y76644D01*
X419655Y75422D01*
X417398Y73165D01*
X416176Y70216D01*
X416176Y60872D01*
X416129Y60609D01*
X415970Y60351D01*
X415722Y60175D01*
X415426Y60110D01*
X415128Y60166D01*
X414875Y60333D01*
X413180Y62029D01*
X411052Y62910D01*
X408748Y62910D01*
X406620Y62029D01*
X404991Y60400D01*
X404110Y58272D01*
X404110Y55968D01*
X404991Y53840D01*
X406620Y52211D01*
X408748Y51330D01*
X411052Y51330D01*
X413180Y52211D01*
X414809Y53840D01*
X414826Y53883D01*
X414970Y54108D01*
X415216Y54286D01*
X415512Y54353D01*
X415811Y54300D01*
X416065Y54135D01*
X416234Y53883D01*
X417398Y51075D01*
X419655Y48818D01*
X422604Y47596D01*
G37*
%LPD*%
G36*
X578166Y656861D02*
X577869Y656801D01*
X577572Y656861D01*
X576484Y657320D01*
X489003Y694291D01*
X488778Y694437D01*
X488603Y694684D01*
X488537Y694981D01*
X488593Y695279D01*
X488761Y695532D01*
X491116Y697887D01*
X491116Y701779D01*
X491155Y702020D01*
X491306Y702283D01*
X491548Y702466D01*
X491842Y702540D01*
X492141Y702494D01*
X511213Y695458D01*
X511268Y695435D01*
X535485Y684271D01*
X535538Y684244D01*
X558804Y671215D01*
X558855Y671184D01*
X578292Y658196D01*
X578560Y657883D01*
X578630Y657587D01*
X578580Y657288D01*
X578416Y657033D01*
X578166Y656861D01*
G37*
G36*
X712427Y454946D02*
X712130Y454886D01*
X711166Y454886D01*
X710899Y454935D01*
X710641Y455095D01*
X710467Y455344D01*
X657951Y575938D01*
X657896Y576355D01*
X657999Y576640D01*
X658206Y576862D01*
X658483Y576986D01*
X658786Y576992D01*
X659068Y576879D01*
X659283Y576666D01*
X671184Y558855D01*
X671215Y558804D01*
X684244Y535538D01*
X684271Y535485D01*
X695435Y511268D01*
X695458Y511213D01*
X704688Y486196D01*
X704706Y486139D01*
X711945Y460473D01*
X711958Y460415D01*
X712877Y455797D01*
X712841Y455373D01*
X712677Y455118D01*
X712427Y454946D01*
G37*
G36*
X406746Y476254D02*
X406449Y476194D01*
X381110Y476194D01*
X380824Y476250D01*
X380571Y476417D01*
X379259Y477729D01*
X379096Y477971D01*
X379036Y478268D01*
X379036Y493561D01*
X379087Y493836D01*
X379251Y494091D01*
X379501Y494263D01*
X379798Y494323D01*
X380381Y494323D01*
X381274Y495216D01*
X381274Y530085D01*
X381325Y530360D01*
X381489Y530615D01*
X381739Y530787D01*
X382036Y530847D01*
X387948Y530847D01*
X388223Y530796D01*
X388478Y530633D01*
X388650Y530383D01*
X388710Y530085D01*
X388710Y514109D01*
X399790Y514109D01*
X399790Y530085D01*
X399841Y530360D01*
X400005Y530615D01*
X400255Y530787D01*
X400552Y530847D01*
X406464Y530847D01*
X406739Y530796D01*
X406994Y530633D01*
X407166Y530383D01*
X407226Y530085D01*
X407226Y495216D01*
X407463Y494979D01*
X407626Y494738D01*
X407686Y494440D01*
X407686Y486997D01*
X412870Y481813D01*
X413023Y481593D01*
X413093Y481298D01*
X413042Y480999D01*
X412878Y480744D01*
X412628Y480572D01*
X412331Y480512D01*
X411083Y480512D01*
X406988Y476417D01*
X406746Y476254D01*
G37*
%LPC*%
G36*
X390198Y493307D02*
X393488Y493307D01*
X393488Y512585D01*
X388710Y512585D01*
X388710Y494795D01*
X390198Y493307D01*
G37*
G36*
X395012Y493307D02*
X398302Y493307D01*
X399790Y494795D01*
X399790Y512585D01*
X395012Y512585D01*
X395012Y493307D01*
G37*
%LPD*%
G36*
X534571Y442486D02*
X534275Y442421D01*
X533977Y442477D01*
X533724Y442644D01*
X496847Y479521D01*
X496694Y479741D01*
X496625Y480036D01*
X496675Y480335D01*
X496839Y480590D01*
X497089Y480762D01*
X497386Y480822D01*
X497895Y480822D01*
X498181Y480766D01*
X498433Y480599D01*
X499452Y479580D01*
X503848Y479580D01*
X506956Y482688D01*
X506956Y484129D01*
X507012Y484415D01*
X507179Y484668D01*
X531812Y509301D01*
X532054Y509464D01*
X532351Y509524D01*
X597005Y509524D01*
X597291Y509468D01*
X597544Y509301D01*
X640985Y465859D01*
X641166Y465571D01*
X641207Y465270D01*
X641127Y464978D01*
X640939Y464739D01*
X640674Y464593D01*
X640372Y464562D01*
X640353Y464564D01*
X640315Y464566D01*
X593377Y464566D01*
X593311Y464569D01*
X591646Y464715D01*
X591515Y464738D01*
X589933Y465161D01*
X589809Y465207D01*
X588324Y465899D01*
X588209Y465965D01*
X586868Y466905D01*
X586766Y466990D01*
X585608Y468148D01*
X585523Y468250D01*
X584583Y469591D01*
X584517Y469706D01*
X583825Y471191D01*
X583779Y471315D01*
X583356Y472897D01*
X583333Y473028D01*
X583187Y474693D01*
X583184Y474759D01*
X583184Y496299D01*
X583183Y496333D01*
X583033Y498047D01*
X583021Y498113D01*
X582580Y499759D01*
X582557Y499821D01*
X581837Y501366D01*
X581804Y501423D01*
X580826Y502819D01*
X580783Y502870D01*
X579578Y504075D01*
X579527Y504118D01*
X578131Y505096D01*
X578074Y505129D01*
X576529Y505849D01*
X576467Y505872D01*
X574821Y506313D01*
X574755Y506325D01*
X573041Y506475D01*
X573007Y506476D01*
X543833Y506476D01*
X543795Y506474D01*
X542117Y506309D01*
X542044Y506294D01*
X540448Y505810D01*
X540379Y505782D01*
X540172Y505671D01*
X540049Y505619D01*
X539842Y505552D01*
X539629Y505443D01*
X539386Y505266D01*
X539383Y505270D01*
X539282Y505195D01*
X538908Y504995D01*
X538846Y504954D01*
X537557Y503896D01*
X537504Y503843D01*
X536446Y502554D01*
X536405Y502492D01*
X535618Y501021D01*
X535590Y500952D01*
X535106Y499356D01*
X535091Y499283D01*
X534926Y497605D01*
X534924Y497567D01*
X534924Y444265D01*
X534926Y444227D01*
X535021Y443258D01*
X534978Y442920D01*
X534819Y442662D01*
X534571Y442486D01*
G37*
G36*
X54816Y472557D02*
X54532Y472451D01*
X54229Y472464D01*
X53955Y472594D01*
X53753Y472821D01*
X53656Y473108D01*
X53679Y473410D01*
X57268Y486139D01*
X57287Y486196D01*
X59475Y492128D01*
X59730Y492471D01*
X60004Y492603D01*
X60307Y492617D01*
X60591Y492512D01*
X60812Y492304D01*
X60935Y492027D01*
X60939Y491723D01*
X60754Y490735D01*
X60482Y489287D01*
X57959Y475828D01*
X57757Y475438D01*
X57652Y475366D01*
X54951Y472665D01*
X54816Y472557D01*
G37*
G36*
X720562Y370094D02*
X720273Y370003D01*
X719971Y370031D01*
X719704Y370175D01*
X719515Y370412D01*
X719433Y370704D01*
X718833Y378835D01*
X714222Y401853D01*
X710975Y411591D01*
X697269Y452710D01*
X697230Y452951D01*
X697230Y456239D01*
X697286Y456525D01*
X697453Y456777D01*
X699742Y459066D01*
X699742Y462319D01*
X699782Y462563D01*
X699935Y462825D01*
X700178Y463007D01*
X700472Y463080D01*
X700772Y463032D01*
X701029Y462871D01*
X701203Y462623D01*
X705323Y453160D01*
X705387Y452868D01*
X705331Y452570D01*
X705164Y452317D01*
X704624Y451778D01*
X704624Y447382D01*
X707732Y444274D01*
X712128Y444274D01*
X713657Y445803D01*
X714023Y446006D01*
X714326Y446015D01*
X714609Y445904D01*
X714826Y445692D01*
X714943Y445413D01*
X717161Y434262D01*
X717170Y434203D01*
X720304Y407722D01*
X720309Y407662D01*
X721356Y381017D01*
X721356Y380957D01*
X720954Y370730D01*
X720928Y370562D01*
X720793Y370291D01*
X720562Y370094D01*
G37*
G36*
X678024Y294192D02*
X677727Y294132D01*
X549971Y294132D01*
X549708Y294179D01*
X549450Y294338D01*
X549274Y294586D01*
X549209Y294882D01*
X549265Y295180D01*
X549432Y295433D01*
X564388Y310388D01*
X564388Y330001D01*
X564444Y330287D01*
X564611Y330539D01*
X566646Y332574D01*
X566646Y336970D01*
X564611Y339005D01*
X564448Y339246D01*
X564388Y339543D01*
X564388Y394009D01*
X564444Y394295D01*
X564611Y394547D01*
X566646Y396582D01*
X566646Y400978D01*
X564611Y403013D01*
X564448Y403254D01*
X564388Y403551D01*
X564388Y411981D01*
X542212Y434156D01*
X542031Y434445D01*
X541991Y434745D01*
X542071Y435038D01*
X542258Y435276D01*
X542524Y435422D01*
X542826Y435453D01*
X543795Y435358D01*
X543833Y435356D01*
X640298Y435356D01*
X640369Y435363D01*
X641648Y435607D01*
X641719Y435628D01*
X642924Y436117D01*
X642990Y436151D01*
X644076Y436865D01*
X644134Y436912D01*
X645061Y437825D01*
X645108Y437882D01*
X645839Y438957D01*
X645874Y439023D01*
X646381Y440220D01*
X646403Y440291D01*
X646666Y441564D01*
X646674Y441639D01*
X646684Y442974D01*
X646684Y442974D01*
X646684Y442980D01*
X646684Y458197D01*
X646682Y458235D01*
X646680Y458254D01*
X646724Y458592D01*
X646883Y458850D01*
X647130Y459025D01*
X647426Y459090D01*
X647725Y459035D01*
X647977Y458867D01*
X697154Y409691D01*
X697316Y409450D01*
X697377Y409152D01*
X697377Y320110D01*
X697321Y319824D01*
X697154Y319571D01*
X685264Y307682D01*
X685264Y295629D01*
X685217Y295366D01*
X685058Y295108D01*
X684810Y294933D01*
X684514Y294868D01*
X684216Y294923D01*
X683963Y295091D01*
X683680Y295374D01*
X679284Y295374D01*
X678265Y294355D01*
X678024Y294192D01*
G37*
%LPC*%
G36*
X630551Y318224D02*
X634290Y318224D01*
X637745Y319655D01*
X640389Y322299D01*
X640507Y322584D01*
X640651Y322810D01*
X640897Y322987D01*
X641193Y323054D01*
X641491Y323001D01*
X641746Y322836D01*
X641915Y322584D01*
X642018Y322336D01*
X644662Y319692D01*
X648116Y318261D01*
X651856Y318261D01*
X655310Y319692D01*
X657954Y322336D01*
X659385Y325790D01*
X659385Y329530D01*
X657954Y332984D01*
X655310Y335628D01*
X651856Y337059D01*
X650088Y337059D01*
X649824Y337106D01*
X649566Y337265D01*
X649391Y337513D01*
X649326Y337809D01*
X649381Y338107D01*
X649549Y338360D01*
X664972Y353783D01*
X664972Y374705D01*
X665028Y374991D01*
X665195Y375243D01*
X665706Y375754D01*
X665706Y380150D01*
X662598Y383258D01*
X658202Y383258D01*
X655094Y380150D01*
X655094Y375754D01*
X655605Y375243D01*
X655768Y375002D01*
X655828Y374705D01*
X655828Y357886D01*
X655772Y357600D01*
X655605Y357347D01*
X635349Y337092D01*
X635113Y336932D01*
X634817Y336869D01*
X634519Y336927D01*
X634290Y337022D01*
X630551Y337022D01*
X627097Y335591D01*
X624453Y332947D01*
X623022Y329492D01*
X623022Y325753D01*
X624453Y322299D01*
X627097Y319655D01*
X630551Y318224D01*
G37*
%LPD*%
G36*
X448404Y147126D02*
X448107Y147066D01*
X436277Y147066D01*
X436014Y147113D01*
X435756Y147272D01*
X435580Y147520D01*
X435515Y147816D01*
X435571Y148114D01*
X435738Y148367D01*
X437800Y150428D01*
X437800Y154824D01*
X434691Y157932D01*
X430296Y157932D01*
X429858Y157495D01*
X429628Y157337D01*
X429332Y157271D01*
X429034Y157327D01*
X428781Y157495D01*
X413195Y173080D01*
X413042Y173300D01*
X412972Y173595D01*
X413023Y173894D01*
X413186Y174149D01*
X413437Y174321D01*
X413734Y174381D01*
X415339Y174381D01*
X418447Y177489D01*
X418447Y181885D01*
X415339Y184993D01*
X412102Y184993D01*
X411816Y185049D01*
X411563Y185216D01*
X399004Y197775D01*
X398851Y197995D01*
X398781Y198290D01*
X398832Y198589D01*
X398996Y198844D01*
X399246Y199016D01*
X399543Y199076D01*
X400631Y199076D01*
X401524Y199969D01*
X401524Y211231D01*
X401517Y211238D01*
X401354Y211480D01*
X401294Y211777D01*
X401294Y213527D01*
X397397Y217424D01*
X351286Y217424D01*
X351011Y217475D01*
X350756Y217639D01*
X350584Y217889D01*
X350524Y218186D01*
X350524Y231731D01*
X349631Y232624D01*
X331869Y232624D01*
X330976Y231731D01*
X330976Y217469D01*
X331869Y216576D01*
X345325Y216576D01*
X345588Y216529D01*
X345846Y216370D01*
X346022Y216122D01*
X346087Y215826D01*
X346031Y215528D01*
X345864Y215275D01*
X341632Y211043D01*
X341390Y210880D01*
X341093Y210820D01*
X286371Y210820D01*
X273792Y198242D01*
X273486Y198055D01*
X273184Y198022D01*
X272894Y198109D01*
X272660Y198302D01*
X272521Y198572D01*
X272497Y198874D01*
X272594Y199161D01*
X274887Y203134D01*
X277000Y211019D01*
X277000Y219181D01*
X274887Y227066D01*
X270806Y234134D01*
X265034Y239906D01*
X257966Y243987D01*
X250081Y246100D01*
X241919Y246100D01*
X234034Y243987D01*
X226966Y239906D01*
X221194Y234134D01*
X217113Y227066D01*
X215000Y219181D01*
X215000Y211019D01*
X217113Y203134D01*
X218538Y200665D01*
X218640Y200320D01*
X218593Y200021D01*
X218434Y199763D01*
X218187Y199587D01*
X217891Y199522D01*
X217592Y199578D01*
X217340Y199745D01*
X206725Y210360D01*
X206562Y210601D01*
X206502Y210898D01*
X206502Y226410D01*
X206558Y226696D01*
X206725Y226949D01*
X236375Y256599D01*
X236617Y256762D01*
X236914Y256822D01*
X240515Y256822D01*
X266961Y283269D01*
X267203Y283432D01*
X267500Y283492D01*
X271184Y283492D01*
X274292Y286600D01*
X274292Y290996D01*
X271184Y294104D01*
X266788Y294104D01*
X264445Y291761D01*
X264214Y291603D01*
X263918Y291538D01*
X263620Y291593D01*
X263367Y291761D01*
X261230Y293897D01*
X256835Y293897D01*
X253727Y290789D01*
X253727Y286338D01*
X253671Y286052D01*
X253503Y285800D01*
X244628Y276924D01*
X244409Y276771D01*
X244114Y276702D01*
X243815Y276752D01*
X243559Y276916D01*
X243388Y277166D01*
X243327Y277463D01*
X243327Y277864D01*
X242466Y278725D01*
X242308Y278956D01*
X242243Y279252D01*
X242299Y279550D01*
X242466Y279803D01*
X245728Y283064D01*
X245728Y287460D01*
X242619Y290568D01*
X238664Y290568D01*
X238378Y290624D01*
X238125Y290791D01*
X236521Y292396D01*
X236363Y292626D01*
X236298Y292922D01*
X236353Y293221D01*
X236521Y293473D01*
X236839Y293792D01*
X236839Y298188D01*
X233731Y301296D01*
X229336Y301296D01*
X226227Y298188D01*
X226227Y293792D01*
X229336Y290684D01*
X231451Y290684D01*
X231737Y290628D01*
X231990Y290461D01*
X234892Y287558D01*
X235055Y287317D01*
X235116Y287020D01*
X235116Y283790D01*
X235069Y283527D01*
X234909Y283269D01*
X234662Y283094D01*
X234366Y283029D01*
X234068Y283084D01*
X233815Y283252D01*
X228660Y288406D01*
X228497Y288648D01*
X228437Y288945D01*
X228437Y289353D01*
X225329Y292461D01*
X224921Y292461D01*
X224635Y292517D01*
X224382Y292684D01*
X223687Y293379D01*
X223524Y293621D01*
X223464Y293918D01*
X223464Y297545D01*
X219893Y301116D01*
X219795Y301116D01*
X219520Y301167D01*
X219264Y301331D01*
X219093Y301581D01*
X219033Y301878D01*
X219033Y304052D01*
X215924Y307160D01*
X215524Y307160D01*
X215260Y307207D01*
X215002Y307367D01*
X214827Y307614D01*
X214762Y307910D01*
X214817Y308208D01*
X214985Y308461D01*
X216408Y309884D01*
X216408Y321511D01*
X216425Y321673D01*
X216547Y321950D01*
X216768Y322158D01*
X217053Y322264D01*
X217355Y322250D01*
X217629Y322119D01*
X217830Y321892D01*
X221194Y316066D01*
X226966Y310294D01*
X234034Y306213D01*
X241919Y304100D01*
X250081Y304100D01*
X257966Y306213D01*
X265034Y310294D01*
X270806Y316066D01*
X274887Y323134D01*
X277000Y331019D01*
X277000Y339181D01*
X274887Y347066D01*
X270806Y354134D01*
X265034Y359906D01*
X257966Y363987D01*
X250081Y366100D01*
X241919Y366100D01*
X234034Y363987D01*
X226966Y359906D01*
X221194Y354134D01*
X217830Y348308D01*
X217734Y348177D01*
X217489Y347997D01*
X217194Y347927D01*
X216895Y347978D01*
X216640Y348142D01*
X216468Y348392D01*
X216408Y348689D01*
X216408Y355282D01*
X216464Y355568D01*
X216631Y355821D01*
X221432Y360621D01*
X221432Y392755D01*
X213672Y400515D01*
X213514Y400746D01*
X213449Y401042D01*
X213505Y401340D01*
X213672Y401593D01*
X214488Y402409D01*
X214488Y406804D01*
X211380Y409912D01*
X206984Y409912D01*
X203876Y406804D01*
X203876Y402816D01*
X203825Y402541D01*
X203661Y402286D01*
X203411Y402114D01*
X203114Y402054D01*
X201990Y402054D01*
X201707Y401771D01*
X201487Y401618D01*
X201192Y401548D01*
X200893Y401599D01*
X200638Y401762D01*
X200466Y402012D01*
X200406Y402309D01*
X200406Y427025D01*
X200453Y427288D01*
X200612Y427546D01*
X200860Y427722D01*
X201156Y427787D01*
X201454Y427731D01*
X201707Y427564D01*
X217029Y412242D01*
X221289Y412242D01*
X221575Y412186D01*
X221827Y412019D01*
X224116Y409730D01*
X228512Y409730D01*
X231620Y412838D01*
X231620Y417234D01*
X228512Y420342D01*
X224116Y420342D01*
X221827Y418053D01*
X221586Y417890D01*
X221289Y417830D01*
X219659Y417830D01*
X219373Y417886D01*
X219120Y418053D01*
X209770Y427403D01*
X209617Y427622D01*
X209548Y427917D01*
X209598Y428216D01*
X209762Y428472D01*
X210012Y428643D01*
X210309Y428704D01*
X213958Y428704D01*
X217066Y431812D01*
X217066Y435049D01*
X217121Y435335D01*
X217289Y435588D01*
X221942Y440241D01*
X222184Y440404D01*
X222481Y440464D01*
X258741Y440464D01*
X260296Y442019D01*
X260538Y442182D01*
X260835Y442242D01*
X264072Y442242D01*
X267180Y445350D01*
X267180Y448587D01*
X267236Y448873D01*
X267403Y449126D01*
X272460Y454183D01*
X272702Y454346D01*
X272999Y454406D01*
X283718Y454406D01*
X283993Y454355D01*
X284248Y454191D01*
X284420Y453941D01*
X284480Y453644D01*
X284480Y385028D01*
X285968Y383540D01*
X477302Y383540D01*
X478790Y385028D01*
X478790Y453644D01*
X478841Y453919D01*
X479005Y454174D01*
X479255Y454346D01*
X479552Y454406D01*
X498399Y454406D01*
X498685Y454350D01*
X498938Y454183D01*
X530891Y422230D01*
X531054Y421988D01*
X531114Y421691D01*
X531114Y414219D01*
X531058Y413933D01*
X530891Y413681D01*
X528602Y411392D01*
X528602Y406996D01*
X531710Y403888D01*
X536106Y403888D01*
X539211Y406993D01*
X539431Y407146D01*
X539726Y407216D01*
X540025Y407165D01*
X540280Y407002D01*
X540452Y406752D01*
X540512Y406455D01*
X540512Y403551D01*
X540456Y403265D01*
X540289Y403013D01*
X538254Y400978D01*
X538254Y396582D01*
X541362Y393474D01*
X544240Y393474D01*
X544526Y393418D01*
X544779Y393251D01*
X549179Y388851D01*
X549342Y388609D01*
X549402Y388312D01*
X549402Y372309D01*
X549355Y372046D01*
X549196Y371788D01*
X548948Y371613D01*
X548652Y371548D01*
X548354Y371603D01*
X548101Y371771D01*
X546266Y373606D01*
X543388Y373606D01*
X543102Y373662D01*
X542849Y373829D01*
X519399Y397280D01*
X519241Y397510D01*
X519176Y397806D01*
X519232Y398104D01*
X519399Y398357D01*
X520926Y399884D01*
X520926Y404280D01*
X517818Y407388D01*
X513422Y407388D01*
X510314Y404280D01*
X510314Y399884D01*
X512349Y397849D01*
X512512Y397608D01*
X512572Y397311D01*
X512572Y395485D01*
X538539Y369519D01*
X538702Y369277D01*
X538762Y368980D01*
X538762Y366102D01*
X541870Y362994D01*
X546266Y362994D01*
X548101Y364829D01*
X548321Y364982D01*
X548616Y365052D01*
X548915Y365001D01*
X549170Y364838D01*
X549342Y364588D01*
X549402Y364291D01*
X549402Y314297D01*
X549351Y314022D01*
X549187Y313767D01*
X548937Y313595D01*
X548640Y313535D01*
X546061Y313535D01*
X542953Y310427D01*
X542953Y307549D01*
X542897Y307263D01*
X542730Y307010D01*
X539219Y303499D01*
X538977Y303336D01*
X538680Y303276D01*
X522794Y303276D01*
X522445Y303361D01*
X522208Y303550D01*
X522065Y303817D01*
X522036Y304119D01*
X522128Y304408D01*
X522325Y304639D01*
X522597Y304774D01*
X527966Y306213D01*
X535034Y310294D01*
X540806Y316066D01*
X544887Y323134D01*
X547000Y331019D01*
X547000Y339181D01*
X544887Y347066D01*
X540806Y354134D01*
X535034Y359906D01*
X527966Y363987D01*
X520081Y366100D01*
X511919Y366100D01*
X504034Y363987D01*
X496966Y359906D01*
X491194Y354134D01*
X487113Y347066D01*
X485000Y339181D01*
X485000Y331019D01*
X487113Y323134D01*
X487522Y322425D01*
X487624Y322068D01*
X487573Y321769D01*
X487410Y321514D01*
X487160Y321342D01*
X486862Y321282D01*
X482688Y321282D01*
X479580Y318174D01*
X479580Y313778D01*
X481615Y311743D01*
X481778Y311502D01*
X481838Y311205D01*
X481838Y302521D01*
X488927Y295433D01*
X489080Y295213D01*
X489149Y294918D01*
X489099Y294619D01*
X488935Y294364D01*
X488685Y294192D01*
X488388Y294132D01*
X463557Y294132D01*
X438635Y269209D01*
X438393Y269046D01*
X438096Y268986D01*
X277930Y268986D01*
X277644Y269042D01*
X277391Y269209D01*
X274769Y271831D01*
X274606Y272073D01*
X274546Y272370D01*
X274546Y275248D01*
X271438Y278356D01*
X267042Y278356D01*
X263934Y275248D01*
X263934Y270852D01*
X266912Y267874D01*
X267070Y267643D01*
X267135Y267347D01*
X267080Y267049D01*
X266912Y266796D01*
X263934Y263818D01*
X263934Y259422D01*
X267042Y256314D01*
X267291Y256314D01*
X267554Y256267D01*
X267812Y256108D01*
X267987Y255860D01*
X268052Y255564D01*
X267997Y255266D01*
X267829Y255013D01*
X266224Y253407D01*
X266224Y249012D01*
X269332Y245904D01*
X273727Y245904D01*
X276836Y249012D01*
X276836Y251889D01*
X276891Y252175D01*
X277059Y252428D01*
X278153Y253523D01*
X278395Y253686D01*
X278692Y253746D01*
X444724Y253746D01*
X469393Y278415D01*
X469635Y278578D01*
X469932Y278638D01*
X471708Y278638D01*
X471971Y278591D01*
X472229Y278432D01*
X472405Y278184D01*
X472470Y277888D01*
X472414Y277590D01*
X472247Y277337D01*
X459994Y265085D01*
X459994Y180945D01*
X459943Y180671D01*
X459779Y180415D01*
X459529Y180244D01*
X459232Y180183D01*
X456245Y180183D01*
X453137Y177075D01*
X453137Y172679D01*
X456245Y169571D01*
X460641Y169571D01*
X462757Y171688D01*
X462977Y171841D01*
X463272Y171911D01*
X463571Y171860D01*
X463826Y171696D01*
X463998Y171446D01*
X464058Y171149D01*
X464058Y163017D01*
X464002Y162731D01*
X463835Y162478D01*
X448646Y147289D01*
X448404Y147126D01*
G37*
%LPC*%
G36*
X389762Y274610D02*
X390359Y274610D01*
X392869Y275650D01*
X394790Y277571D01*
X395296Y278792D01*
X395440Y279018D01*
X395686Y279195D01*
X395982Y279262D01*
X396280Y279209D01*
X396535Y279044D01*
X396704Y278792D01*
X397210Y277571D01*
X399131Y275650D01*
X401641Y274610D01*
X402238Y274610D01*
X402238Y282202D01*
X409238Y282202D01*
X409238Y289202D01*
X416830Y289202D01*
X416830Y289799D01*
X415790Y292309D01*
X413869Y294230D01*
X412648Y294736D01*
X412422Y294880D01*
X412245Y295126D01*
X412178Y295422D01*
X412231Y295720D01*
X412396Y295975D01*
X412648Y296144D01*
X413869Y296650D01*
X415790Y298571D01*
X416830Y301081D01*
X416830Y301678D01*
X409238Y301678D01*
X409238Y308678D01*
X402238Y308678D01*
X402238Y316270D01*
X401641Y316270D01*
X399131Y315230D01*
X397210Y313309D01*
X396704Y312088D01*
X396560Y311862D01*
X396314Y311685D01*
X396018Y311618D01*
X395720Y311671D01*
X395466Y311836D01*
X395296Y312088D01*
X394790Y313309D01*
X392869Y315230D01*
X390359Y316270D01*
X389762Y316270D01*
X389762Y308678D01*
X382762Y308678D01*
X382762Y301678D01*
X375170Y301678D01*
X375170Y301081D01*
X376210Y298571D01*
X378131Y296650D01*
X379352Y296144D01*
X379578Y296000D01*
X379755Y295754D01*
X379822Y295458D01*
X379769Y295160D01*
X379604Y294906D01*
X379352Y294736D01*
X378131Y294230D01*
X376210Y292309D01*
X375170Y289799D01*
X375170Y289202D01*
X382762Y289202D01*
X382762Y282202D01*
X389762Y282202D01*
X389762Y274610D01*
G37*
G36*
X403762Y310202D02*
X409830Y310202D01*
X409830Y310799D01*
X408790Y313309D01*
X406869Y315230D01*
X404359Y316270D01*
X403762Y316270D01*
X403762Y310202D01*
G37*
G36*
X382170Y310202D02*
X388238Y310202D01*
X388238Y316270D01*
X387641Y316270D01*
X385131Y315230D01*
X383210Y313309D01*
X382170Y310799D01*
X382170Y310202D01*
G37*
G36*
X410762Y303202D02*
X416830Y303202D01*
X416830Y303799D01*
X415790Y306309D01*
X413869Y308230D01*
X411359Y309270D01*
X410762Y309270D01*
X410762Y303202D01*
G37*
G36*
X375170Y303202D02*
X381238Y303202D01*
X381238Y309270D01*
X380641Y309270D01*
X378131Y308230D01*
X376210Y306309D01*
X375170Y303799D01*
X375170Y303202D01*
G37*
G36*
X380641Y281610D02*
X381238Y281610D01*
X381238Y287678D01*
X375170Y287678D01*
X375170Y287081D01*
X376210Y284571D01*
X378131Y282650D01*
X380641Y281610D01*
G37*
G36*
X410762Y281610D02*
X411359Y281610D01*
X413869Y282650D01*
X415790Y284571D01*
X416830Y287081D01*
X416830Y287678D01*
X410762Y287678D01*
X410762Y281610D01*
G37*
G36*
X387641Y274610D02*
X388238Y274610D01*
X388238Y280678D01*
X382170Y280678D01*
X382170Y280081D01*
X383210Y277571D01*
X385131Y275650D01*
X387641Y274610D01*
G37*
G36*
X403762Y274610D02*
X404359Y274610D01*
X406869Y275650D01*
X408790Y277571D01*
X409830Y280081D01*
X409830Y280678D01*
X403762Y280678D01*
X403762Y274610D01*
G37*
G36*
X412369Y216576D02*
X430131Y216576D01*
X431024Y217469D01*
X431024Y231731D01*
X430131Y232624D01*
X412369Y232624D01*
X411476Y231731D01*
X411476Y217469D01*
X412369Y216576D01*
G37*
%LPD*%
G36*
X704082Y293478D02*
X703786Y293413D01*
X703488Y293468D01*
X703235Y293636D01*
X700924Y295947D01*
X696528Y295947D01*
X695709Y295128D01*
X695489Y294975D01*
X695194Y294905D01*
X694895Y294956D01*
X694640Y295119D01*
X694468Y295369D01*
X694408Y295666D01*
X694408Y303579D01*
X694464Y303865D01*
X694631Y304117D01*
X706521Y316007D01*
X706521Y400454D01*
X706606Y400804D01*
X706796Y401040D01*
X707064Y401184D01*
X707366Y401211D01*
X707655Y401119D01*
X707885Y400921D01*
X708019Y400650D01*
X711037Y389292D01*
X711056Y389200D01*
X714119Y366764D01*
X714126Y366670D01*
X714389Y344029D01*
X714385Y343934D01*
X711845Y321434D01*
X711828Y321341D01*
X706524Y299328D01*
X706497Y299237D01*
X704487Y293906D01*
X704330Y293653D01*
X704082Y293478D01*
G37*
G36*
X234159Y266534D02*
X233862Y266474D01*
X204625Y266474D01*
X204339Y266530D01*
X204086Y266697D01*
X197779Y273004D01*
X197616Y273246D01*
X197556Y273543D01*
X197556Y276780D01*
X194448Y279888D01*
X190429Y279888D01*
X190166Y279935D01*
X189908Y280094D01*
X189732Y280342D01*
X189667Y280638D01*
X189723Y280936D01*
X189890Y281189D01*
X207850Y299149D01*
X208081Y299307D01*
X208377Y299372D01*
X208675Y299317D01*
X208928Y299149D01*
X211529Y296548D01*
X215011Y296548D01*
X215297Y296493D01*
X215549Y296325D01*
X216950Y294924D01*
X217136Y294805D01*
X217308Y294555D01*
X217368Y294258D01*
X217368Y291077D01*
X217920Y290526D01*
X218078Y290295D01*
X218143Y289999D01*
X218087Y289701D01*
X217920Y289448D01*
X217825Y289353D01*
X217825Y284957D01*
X220933Y281849D01*
X225329Y281849D01*
X225424Y281944D01*
X225654Y282102D01*
X225950Y282167D01*
X226248Y282112D01*
X226501Y281944D01*
X232492Y275953D01*
X232655Y275712D01*
X232715Y275414D01*
X232715Y273468D01*
X235824Y270360D01*
X236224Y270360D01*
X236488Y270313D01*
X236746Y270154D01*
X236921Y269906D01*
X236986Y269610D01*
X236931Y269312D01*
X236763Y269059D01*
X234401Y266697D01*
X234159Y266534D01*
G37*
G36*
X124196Y158459D02*
X123898Y158405D01*
X123602Y158473D01*
X123356Y158650D01*
X122188Y159913D01*
X122150Y159959D01*
X105641Y180899D01*
X105606Y180948D01*
X90791Y203120D01*
X90760Y203171D01*
X77730Y226437D01*
X77703Y226490D01*
X66539Y250706D01*
X66516Y250761D01*
X57287Y275779D01*
X57268Y275836D01*
X55021Y283804D01*
X54993Y283974D01*
X55039Y284274D01*
X55198Y284532D01*
X55446Y284708D01*
X55742Y284773D01*
X56040Y284718D01*
X56293Y284550D01*
X56461Y284298D01*
X69756Y251534D01*
X87771Y216791D01*
X108930Y183868D01*
X120375Y169244D01*
X127447Y160208D01*
X127538Y160057D01*
X127608Y159762D01*
X127557Y159463D01*
X127394Y159208D01*
X127144Y159036D01*
X126846Y158976D01*
X124802Y158976D01*
X124454Y158628D01*
X124196Y158459D01*
G37*
G36*
X477127Y142284D02*
X476832Y142214D01*
X476533Y142265D01*
X476278Y142428D01*
X476106Y142678D01*
X476046Y142975D01*
X476046Y144106D01*
X472938Y147214D01*
X472537Y147214D01*
X472274Y147261D01*
X472016Y147420D01*
X471840Y147668D01*
X471775Y147964D01*
X471831Y148262D01*
X471998Y148515D01*
X478028Y154545D01*
X478028Y229667D01*
X478084Y229953D01*
X478251Y230206D01*
X488565Y240520D01*
X488565Y240723D01*
X488621Y241009D01*
X488789Y241262D01*
X491077Y243551D01*
X491077Y246339D01*
X491124Y246602D01*
X491284Y246861D01*
X491531Y247036D01*
X491827Y247101D01*
X492125Y247045D01*
X492378Y246878D01*
X493610Y245646D01*
X498006Y245646D01*
X501114Y248754D01*
X501114Y253150D01*
X498825Y255439D01*
X498662Y255680D01*
X498602Y255977D01*
X498602Y271413D01*
X492678Y277337D01*
X492525Y277557D01*
X492455Y277852D01*
X492506Y278151D01*
X492670Y278406D01*
X492920Y278578D01*
X493217Y278638D01*
X659584Y278638D01*
X659870Y278582D01*
X660123Y278415D01*
X667063Y271475D01*
X667226Y271233D01*
X667286Y270936D01*
X667286Y268058D01*
X670394Y264950D01*
X670795Y264950D01*
X671058Y264903D01*
X671316Y264744D01*
X671492Y264496D01*
X671557Y264200D01*
X671501Y263902D01*
X671334Y263649D01*
X668515Y260830D01*
X668273Y260667D01*
X667976Y260607D01*
X664943Y260607D01*
X639256Y234919D01*
X639014Y234756D01*
X638717Y234696D01*
X592011Y234696D01*
X575670Y218355D01*
X575428Y218192D01*
X575131Y218132D01*
X574408Y218132D01*
X571300Y215024D01*
X571300Y214301D01*
X571244Y214015D01*
X571077Y213762D01*
X525686Y168371D01*
X525444Y168208D01*
X525147Y168148D01*
X508199Y168148D01*
X507913Y168204D01*
X507890Y168219D01*
X503344Y168219D01*
X503328Y168208D01*
X503065Y168155D01*
X477347Y142437D01*
X477127Y142284D01*
G37*
%LPC*%
G36*
X511919Y184100D02*
X520081Y184100D01*
X527966Y186213D01*
X535034Y190294D01*
X540806Y196066D01*
X544887Y203134D01*
X547000Y211019D01*
X547000Y219181D01*
X544887Y227066D01*
X540806Y234134D01*
X535034Y239906D01*
X527966Y243987D01*
X520081Y246100D01*
X511919Y246100D01*
X504034Y243987D01*
X496966Y239906D01*
X491194Y234134D01*
X487113Y227066D01*
X485000Y219181D01*
X485000Y211019D01*
X487113Y203134D01*
X491194Y196066D01*
X496966Y190294D01*
X504034Y186213D01*
X511919Y184100D01*
G37*
%LPD*%
G36*
X608367Y128068D02*
X608072Y127998D01*
X607773Y128049D01*
X607518Y128213D01*
X607346Y128463D01*
X607286Y128760D01*
X607286Y129728D01*
X606914Y130100D01*
X606792Y130260D01*
X606696Y130548D01*
X606721Y130850D01*
X606862Y131119D01*
X617548Y144278D01*
X642191Y178918D01*
X664578Y215056D01*
X684618Y252547D01*
X692813Y270552D01*
X693540Y272150D01*
X693790Y272699D01*
X694557Y274384D01*
X694695Y274589D01*
X694942Y274765D01*
X695238Y274830D01*
X695536Y274774D01*
X695789Y274607D01*
X698842Y271554D01*
X702036Y271554D01*
X702276Y271515D01*
X702539Y271364D01*
X702723Y271122D01*
X702797Y270828D01*
X702751Y270528D01*
X695458Y250761D01*
X695435Y250706D01*
X684271Y226490D01*
X684244Y226437D01*
X671215Y203171D01*
X671184Y203120D01*
X656369Y180948D01*
X656334Y180899D01*
X639825Y159959D01*
X639786Y159913D01*
X621685Y140332D01*
X621643Y140289D01*
X608565Y128200D01*
X608367Y128068D01*
G37*
G36*
X212595Y162123D02*
X212299Y162058D01*
X212001Y162114D01*
X211818Y162235D01*
X188840Y162235D01*
X188554Y162291D01*
X188301Y162458D01*
X137637Y213122D01*
X137474Y213364D01*
X137414Y213661D01*
X137414Y221543D01*
X137470Y221829D01*
X137637Y222081D01*
X139672Y224116D01*
X139672Y228512D01*
X136564Y231620D01*
X132023Y231620D01*
X131831Y231575D01*
X131532Y231625D01*
X131277Y231789D01*
X131105Y232039D01*
X131045Y232336D01*
X131045Y233938D01*
X131101Y234224D01*
X131268Y234476D01*
X154812Y258021D01*
X155043Y258179D01*
X155339Y258244D01*
X155637Y258188D01*
X155890Y258021D01*
X157850Y256060D01*
X162246Y256060D01*
X163037Y256851D01*
X163257Y257004D01*
X163552Y257074D01*
X163851Y257023D01*
X164106Y256860D01*
X164278Y256610D01*
X164338Y256313D01*
X164338Y253917D01*
X164282Y253631D01*
X164115Y253379D01*
X161346Y250610D01*
X161346Y246214D01*
X164454Y243106D01*
X168850Y243106D01*
X169133Y243389D01*
X169353Y243542D01*
X169648Y243612D01*
X169947Y243561D01*
X170202Y243398D01*
X170374Y243148D01*
X170434Y242851D01*
X170434Y215759D01*
X212826Y173367D01*
X212989Y173125D01*
X213049Y172828D01*
X213049Y162820D01*
X213002Y162557D01*
X212843Y162299D01*
X212595Y162123D01*
G37*
G36*
X254602Y148904D02*
X254305Y148844D01*
X253313Y148844D01*
X253027Y148900D01*
X252774Y149067D01*
X236862Y164979D01*
X236704Y165209D01*
X236639Y165506D01*
X236695Y165804D01*
X236862Y166057D01*
X239917Y169111D01*
X239917Y173507D01*
X237628Y175796D01*
X237465Y176037D01*
X237405Y176334D01*
X237405Y179680D01*
X230645Y186440D01*
X230458Y186746D01*
X230425Y187048D01*
X230512Y187338D01*
X230706Y187572D01*
X230975Y187711D01*
X231277Y187735D01*
X231565Y187638D01*
X234034Y186213D01*
X241919Y184100D01*
X250081Y184100D01*
X257966Y186213D01*
X261939Y188506D01*
X262283Y188608D01*
X262583Y188562D01*
X262841Y188402D01*
X263016Y188155D01*
X263081Y187859D01*
X263026Y187561D01*
X262858Y187308D01*
X253452Y177901D01*
X253210Y177739D01*
X252913Y177678D01*
X252658Y177678D01*
X249550Y174570D01*
X249550Y170174D01*
X252658Y167066D01*
X257054Y167066D01*
X260162Y170174D01*
X260162Y174570D01*
X259631Y175100D01*
X259473Y175331D01*
X259408Y175627D01*
X259464Y175925D01*
X259631Y176178D01*
X288462Y205009D01*
X288704Y205172D01*
X289001Y205232D01*
X319277Y205232D01*
X319540Y205185D01*
X319798Y205026D01*
X319974Y204778D01*
X320039Y204482D01*
X319983Y204184D01*
X319816Y203931D01*
X319406Y203521D01*
X319406Y202946D01*
X319355Y202671D01*
X319191Y202416D01*
X318941Y202244D01*
X318644Y202184D01*
X316503Y202184D01*
X312446Y198127D01*
X312204Y197964D01*
X311907Y197904D01*
X307519Y197904D01*
X306626Y197011D01*
X306626Y188749D01*
X307519Y187856D01*
X314781Y187856D01*
X315674Y188749D01*
X315674Y193137D01*
X315730Y193423D01*
X315897Y193676D01*
X318105Y195884D01*
X318325Y196037D01*
X318620Y196107D01*
X318919Y196056D01*
X319174Y195892D01*
X319346Y195642D01*
X319406Y195345D01*
X319406Y195259D01*
X320299Y194366D01*
X327561Y194366D01*
X328391Y195196D01*
X328622Y195354D01*
X328918Y195419D01*
X329216Y195363D01*
X329469Y195196D01*
X330299Y194366D01*
X337561Y194366D01*
X338454Y195259D01*
X338454Y203521D01*
X338044Y203931D01*
X337891Y204151D01*
X337821Y204446D01*
X337872Y204745D01*
X338036Y205000D01*
X338286Y205172D01*
X338583Y205232D01*
X343723Y205232D01*
X350104Y211613D01*
X350346Y211776D01*
X350643Y211836D01*
X358698Y211836D01*
X358973Y211785D01*
X359228Y211621D01*
X359400Y211371D01*
X359460Y211074D01*
X359460Y206362D01*
X364262Y206362D01*
X364262Y198060D01*
X364944Y198060D01*
X365219Y198009D01*
X365474Y197845D01*
X365646Y197595D01*
X365706Y197298D01*
X365706Y190141D01*
X365650Y189855D01*
X365483Y189602D01*
X332259Y156378D01*
X332039Y156225D01*
X331744Y156155D01*
X331445Y156206D01*
X331190Y156370D01*
X331018Y156620D01*
X330958Y156917D01*
X330958Y160047D01*
X331014Y160333D01*
X331181Y160585D01*
X333470Y162874D01*
X333470Y167270D01*
X330362Y170378D01*
X326952Y170378D01*
X326677Y170429D01*
X326422Y170593D01*
X326250Y170843D01*
X326190Y171140D01*
X326190Y172118D01*
X321412Y172118D01*
X321412Y166840D01*
X322096Y166840D01*
X322371Y166789D01*
X322626Y166625D01*
X322798Y166375D01*
X322858Y166078D01*
X322858Y165244D01*
X322811Y164980D01*
X322652Y164722D01*
X322404Y164547D01*
X322108Y164482D01*
X321810Y164537D01*
X321557Y164705D01*
X320723Y165539D01*
X320570Y165759D01*
X320500Y166054D01*
X320551Y166353D01*
X320619Y166459D01*
X319888Y166459D01*
X319888Y172118D01*
X315110Y172118D01*
X315110Y168328D01*
X316077Y167361D01*
X316230Y167141D01*
X316300Y166846D01*
X316249Y166547D01*
X316181Y166441D01*
X316912Y166441D01*
X316912Y160782D01*
X321690Y160782D01*
X321690Y162203D01*
X321737Y162466D01*
X321896Y162724D01*
X322144Y162899D01*
X322440Y162964D01*
X322738Y162909D01*
X322991Y162741D01*
X325147Y160585D01*
X325310Y160344D01*
X325370Y160047D01*
X325370Y159203D01*
X325314Y158917D01*
X325147Y158664D01*
X322991Y156508D01*
X322771Y156355D01*
X322476Y156285D01*
X322177Y156336D01*
X321922Y156500D01*
X321750Y156750D01*
X321690Y157047D01*
X321690Y159258D01*
X315388Y159258D01*
X315388Y166060D01*
X312098Y166060D01*
X310970Y164933D01*
X310740Y164775D01*
X310444Y164709D01*
X310146Y164765D01*
X309893Y164933D01*
X309781Y165044D01*
X305393Y165044D01*
X305107Y165100D01*
X304854Y165267D01*
X304667Y165454D01*
X304504Y165696D01*
X304444Y165993D01*
X304444Y167094D01*
X304495Y167369D01*
X304659Y167624D01*
X304909Y167796D01*
X305206Y167856D01*
X305281Y167856D01*
X306174Y168749D01*
X306174Y177011D01*
X305281Y177904D01*
X298019Y177904D01*
X297126Y177011D01*
X297126Y168749D01*
X298019Y167856D01*
X298094Y167856D01*
X298369Y167805D01*
X298624Y167641D01*
X298796Y167391D01*
X298856Y167094D01*
X298856Y163363D01*
X301403Y160816D01*
X301566Y160574D01*
X301626Y160277D01*
X301626Y156793D01*
X301579Y156530D01*
X301420Y156272D01*
X301172Y156096D01*
X300876Y156031D01*
X300578Y156087D01*
X300325Y156254D01*
X292622Y163957D01*
X287092Y163957D01*
X286806Y164013D01*
X286554Y164180D01*
X284265Y166469D01*
X279869Y166469D01*
X276761Y163361D01*
X276761Y158965D01*
X277044Y158682D01*
X277197Y158462D01*
X277267Y158167D01*
X277216Y157868D01*
X277053Y157613D01*
X276803Y157441D01*
X276506Y157381D01*
X263158Y157381D01*
X254844Y149067D01*
X254602Y148904D01*
G37*
%LPC*%
G36*
X360948Y198060D02*
X362738Y198060D01*
X362738Y204838D01*
X359460Y204838D01*
X359460Y199548D01*
X360948Y198060D01*
G37*
G36*
X321412Y173642D02*
X326190Y173642D01*
X326190Y177432D01*
X324702Y178920D01*
X321412Y178920D01*
X321412Y173642D01*
G37*
G36*
X315110Y173642D02*
X319888Y173642D01*
X319888Y178920D01*
X316598Y178920D01*
X315110Y177432D01*
X315110Y173642D01*
G37*
%LPD*%
G36*
X555851Y89106D02*
X555491Y89009D01*
X555193Y89065D01*
X554940Y89232D01*
X547995Y96177D01*
X547455Y96401D01*
X547207Y96567D01*
X547028Y96746D01*
X546774Y96746D01*
X546482Y96804D01*
X545942Y97028D01*
X544654Y97028D01*
X544321Y97105D01*
X544080Y97289D01*
X543930Y97552D01*
X543895Y97853D01*
X543980Y98145D01*
X544171Y98380D01*
X615814Y157051D01*
X616000Y157163D01*
X616297Y157223D01*
X617989Y157223D01*
X618154Y157205D01*
X618431Y157082D01*
X618638Y156861D01*
X618743Y156576D01*
X618728Y156273D01*
X618596Y156000D01*
X601207Y133137D01*
X600898Y132896D01*
X600601Y132836D01*
X599782Y132836D01*
X596674Y129728D01*
X596674Y125332D01*
X599782Y122224D01*
X599913Y122224D01*
X600259Y122141D01*
X600496Y121953D01*
X600641Y121686D01*
X600671Y121385D01*
X600581Y121095D01*
X600385Y120864D01*
X581075Y105641D01*
X581027Y105606D01*
X558855Y90791D01*
X558804Y90760D01*
X555851Y89106D01*
G37*
G36*
X445636Y110804D02*
X445339Y110744D01*
X300907Y110744D01*
X300644Y110791D01*
X300386Y110950D01*
X300211Y111198D01*
X300146Y111494D01*
X300201Y111792D01*
X300369Y112045D01*
X301724Y113400D01*
X301724Y116105D01*
X301771Y116369D01*
X301930Y116627D01*
X302178Y116802D01*
X302474Y116867D01*
X302772Y116812D01*
X303025Y116644D01*
X304353Y115316D01*
X325421Y115316D01*
X338914Y128809D01*
X339155Y128972D01*
X339452Y129032D01*
X458263Y129032D01*
X466649Y137418D01*
X466879Y137576D01*
X467175Y137641D01*
X467473Y137585D01*
X467726Y137418D01*
X468542Y136602D01*
X469673Y136602D01*
X469936Y136555D01*
X470194Y136396D01*
X470369Y136148D01*
X470435Y135852D01*
X470379Y135554D01*
X470211Y135301D01*
X445877Y110967D01*
X445636Y110804D01*
G37*
G36*
X486139Y57268D02*
X485056Y56963D01*
X484612Y56972D01*
X484348Y57122D01*
X484164Y57363D01*
X484088Y57656D01*
X484133Y57956D01*
X484291Y58215D01*
X484538Y58392D01*
X485293Y58730D01*
X507225Y70987D01*
X527991Y85129D01*
X537710Y93088D01*
X538016Y93339D01*
X538174Y93439D01*
X538469Y93511D01*
X538768Y93463D01*
X539025Y93301D01*
X539198Y93053D01*
X539261Y92756D01*
X539242Y92657D01*
X539242Y90328D01*
X539466Y89788D01*
X539524Y89496D01*
X539524Y89242D01*
X539704Y89063D01*
X539869Y88815D01*
X540093Y88275D01*
X544505Y83862D01*
X544619Y83717D01*
X544720Y83431D01*
X544703Y83129D01*
X544568Y82857D01*
X544338Y82659D01*
X535538Y77730D01*
X535485Y77703D01*
X511268Y66539D01*
X511213Y66516D01*
X486196Y57287D01*
X486139Y57268D01*
G37*
G36*
X609966Y439254D02*
X609588Y439263D01*
X609230Y439292D01*
X608892Y439339D01*
X608574Y439406D01*
X608275Y439491D01*
X607996Y439596D01*
X607736Y439720D01*
X607496Y439862D01*
X607277Y440023D01*
X607078Y440199D01*
X606899Y440391D01*
X606741Y440599D01*
X606603Y440823D01*
X606486Y441064D01*
X606390Y441320D01*
X606314Y441592D01*
X607899Y441820D01*
X608002Y441510D01*
X608152Y441239D01*
X608350Y441005D01*
X608595Y440808D01*
X608886Y440653D01*
X609218Y440542D01*
X609593Y440476D01*
X610010Y440454D01*
X610295Y440464D01*
X610310Y440466D01*
X610562Y440497D01*
X610811Y440551D01*
X611041Y440626D01*
X611252Y440723D01*
X611446Y440842D01*
X611621Y440982D01*
X611777Y441143D01*
X611915Y441327D01*
X612035Y441531D01*
X612136Y441758D01*
X612219Y442005D01*
X612283Y442275D01*
X612329Y442566D01*
X612357Y442878D01*
X612366Y443212D01*
X612366Y444736D01*
X612349Y444736D01*
X612232Y444516D01*
X612104Y444309D01*
X611967Y444117D01*
X611819Y443938D01*
X611660Y443774D01*
X611491Y443624D01*
X611312Y443488D01*
X611135Y443374D01*
X611122Y443366D01*
X610923Y443258D01*
X610716Y443165D01*
X610501Y443086D01*
X610277Y443021D01*
X610045Y442971D01*
X609805Y442935D01*
X609557Y442913D01*
X609301Y442906D01*
X608879Y442924D01*
X608487Y442978D01*
X608123Y443069D01*
X607789Y443195D01*
X607483Y443358D01*
X607206Y443556D01*
X606958Y443791D01*
X606739Y444062D01*
X606547Y444372D01*
X606380Y444723D01*
X606240Y445115D01*
X606124Y445549D01*
X606035Y446024D01*
X605971Y446540D01*
X605933Y447098D01*
X605920Y447697D01*
X605933Y448305D01*
X605975Y448871D01*
X606044Y449397D01*
X606140Y449881D01*
X606264Y450324D01*
X606415Y450726D01*
X606594Y451087D01*
X606800Y451406D01*
X607034Y451686D01*
X607297Y451929D01*
X607589Y452135D01*
X607909Y452303D01*
X608258Y452434D01*
X608635Y452527D01*
X609041Y452583D01*
X609476Y452602D01*
X609723Y452594D01*
X609963Y452573D01*
X610194Y452537D01*
X610416Y452487D01*
X610630Y452422D01*
X610836Y452343D01*
X611034Y452250D01*
X611223Y452142D01*
X611572Y451888D01*
X611879Y451585D01*
X612144Y451233D01*
X612366Y450832D01*
X612384Y450832D01*
X612419Y451743D01*
X612454Y452245D01*
X612489Y452453D01*
X613986Y452453D01*
X613963Y452153D01*
X613947Y451726D01*
X613934Y450491D01*
X613934Y443248D01*
X613918Y442764D01*
X613872Y442311D01*
X613794Y441890D01*
X613686Y441500D01*
X613546Y441141D01*
X613376Y440814D01*
X613174Y440517D01*
X612942Y440252D01*
X612678Y440018D01*
X612384Y439815D01*
X612058Y439644D01*
X611702Y439503D01*
X611315Y439394D01*
X610896Y439316D01*
X610447Y439269D01*
X609966Y439254D01*
G37*
%LPC*%
G36*
X609835Y444071D02*
X610018Y444078D01*
X610197Y444098D01*
X610370Y444132D01*
X610538Y444180D01*
X610858Y444317D01*
X611157Y444509D01*
X611430Y444752D01*
X611576Y444928D01*
X611670Y445042D01*
X611877Y445380D01*
X612051Y445766D01*
X612189Y446194D01*
X612287Y446662D01*
X612346Y447169D01*
X612366Y447714D01*
X612346Y448272D01*
X612287Y448791D01*
X612189Y449269D01*
X612051Y449707D01*
X611877Y450101D01*
X611671Y450445D01*
X611432Y450740D01*
X611162Y450986D01*
X610865Y451179D01*
X610550Y451317D01*
X610385Y451366D01*
X610215Y451400D01*
X610040Y451421D01*
X609861Y451428D01*
X609569Y451414D01*
X609298Y451373D01*
X609047Y451305D01*
X608817Y451209D01*
X608607Y451086D01*
X608418Y450935D01*
X608249Y450757D01*
X608101Y450552D01*
X607971Y450316D01*
X607859Y450046D01*
X607764Y449743D01*
X607687Y449405D01*
X607626Y449033D01*
X607583Y448627D01*
X607557Y448188D01*
X607549Y447714D01*
X607557Y447245D01*
X607581Y446811D01*
X607621Y446410D01*
X607678Y446044D01*
X607751Y445712D01*
X607839Y445414D01*
X607944Y445150D01*
X608066Y444920D01*
X608206Y444721D01*
X608370Y444549D01*
X608557Y444403D01*
X608766Y444283D01*
X608999Y444190D01*
X609255Y444124D01*
X609533Y444084D01*
X609835Y444071D01*
G37*
%LPD*%
G36*
X618761Y442801D02*
X618415Y442813D01*
X618092Y442848D01*
X617790Y442907D01*
X617511Y442989D01*
X617254Y443095D01*
X617019Y443225D01*
X616806Y443378D01*
X616615Y443554D01*
X616447Y443751D01*
X616301Y443966D01*
X616178Y444198D01*
X616077Y444447D01*
X615998Y444715D01*
X615942Y444999D01*
X615908Y445301D01*
X615897Y445621D01*
X615912Y445978D01*
X615958Y446314D01*
X616033Y446629D01*
X616139Y446922D01*
X616275Y447194D01*
X616442Y447444D01*
X616638Y447673D01*
X616865Y447881D01*
X617126Y448066D01*
X617423Y448229D01*
X617758Y448369D01*
X618130Y448485D01*
X618538Y448579D01*
X618984Y448649D01*
X619467Y448697D01*
X619987Y448722D01*
X622116Y448757D01*
X622116Y449273D01*
X622108Y449552D01*
X622085Y449810D01*
X622047Y450048D01*
X621993Y450265D01*
X621924Y450462D01*
X621840Y450638D01*
X621740Y450794D01*
X621625Y450929D01*
X621494Y451046D01*
X621345Y451147D01*
X621179Y451233D01*
X620995Y451303D01*
X620793Y451358D01*
X620574Y451397D01*
X620338Y451420D01*
X620084Y451428D01*
X619590Y451406D01*
X619370Y451377D01*
X619169Y451338D01*
X618985Y451288D01*
X618819Y451226D01*
X618672Y451153D01*
X618542Y451069D01*
X618428Y450972D01*
X618326Y450863D01*
X618235Y450739D01*
X618157Y450603D01*
X618091Y450452D01*
X618037Y450289D01*
X617994Y450112D01*
X617964Y449922D01*
X616318Y450070D01*
X616380Y450380D01*
X616465Y450670D01*
X616574Y450940D01*
X616706Y451189D01*
X616862Y451419D01*
X617041Y451629D01*
X617244Y451819D01*
X617469Y451989D01*
X617719Y452138D01*
X617991Y452268D01*
X618287Y452378D01*
X618607Y452468D01*
X618950Y452538D01*
X619316Y452588D01*
X619706Y452618D01*
X620119Y452628D01*
X620552Y452615D01*
X620957Y452577D01*
X621335Y452513D01*
X621684Y452423D01*
X622007Y452308D01*
X622301Y452167D01*
X622568Y452001D01*
X622808Y451809D01*
X623019Y451593D01*
X623202Y451354D01*
X623357Y451092D01*
X623484Y450807D01*
X623583Y450500D01*
X623653Y450169D01*
X623696Y449816D01*
X623710Y449440D01*
X623710Y445358D01*
X623721Y445030D01*
X623756Y444744D01*
X623813Y444502D01*
X623894Y444303D01*
X624007Y444148D01*
X624161Y444037D01*
X624357Y443970D01*
X624594Y443948D01*
X624838Y443964D01*
X625111Y444010D01*
X625111Y443029D01*
X624812Y442967D01*
X624509Y442923D01*
X624203Y442897D01*
X623894Y442888D01*
X623682Y442896D01*
X623486Y442917D01*
X623304Y442953D01*
X623137Y443003D01*
X622985Y443068D01*
X622849Y443147D01*
X622727Y443240D01*
X622619Y443348D01*
X622525Y443471D01*
X622442Y443611D01*
X622369Y443766D01*
X622307Y443938D01*
X622256Y444127D01*
X622216Y444331D01*
X622168Y444789D01*
X622116Y444789D01*
X621801Y444286D01*
X621635Y444064D01*
X621462Y443862D01*
X621283Y443679D01*
X621098Y443517D01*
X620907Y443375D01*
X620710Y443252D01*
X620504Y443146D01*
X620288Y443055D01*
X620060Y442977D01*
X619822Y442914D01*
X619573Y442864D01*
X619313Y442829D01*
X619043Y442808D01*
X618761Y442801D01*
G37*
%LPC*%
G36*
X619120Y443983D02*
X619334Y443989D01*
X619542Y444008D01*
X619939Y444082D01*
X620313Y444205D01*
X620662Y444377D01*
X620981Y444593D01*
X621265Y444845D01*
X621513Y445134D01*
X621726Y445459D01*
X621897Y445805D01*
X622018Y446156D01*
X622091Y446513D01*
X622116Y446874D01*
X622116Y447653D01*
X620390Y447618D01*
X619868Y447597D01*
X619413Y447552D01*
X619025Y447483D01*
X618704Y447390D01*
X618434Y447271D01*
X618197Y447123D01*
X617994Y446947D01*
X617824Y446742D01*
X617690Y446506D01*
X617594Y446236D01*
X617537Y445933D01*
X617518Y445595D01*
X617524Y445408D01*
X617544Y445231D01*
X617576Y445066D01*
X617622Y444912D01*
X617680Y444768D01*
X617752Y444636D01*
X617836Y444514D01*
X617934Y444404D01*
X618043Y444305D01*
X618164Y444220D01*
X618296Y444147D01*
X618438Y444088D01*
X618592Y444042D01*
X618757Y444010D01*
X618933Y443990D01*
X619120Y443983D01*
G37*
%LPD*%
G36*
X604391Y442976D02*
X594669Y442976D01*
X594669Y455317D01*
X604032Y455317D01*
X604032Y453950D01*
X596342Y453950D01*
X596342Y449992D01*
X603507Y449992D01*
X603507Y448643D01*
X596342Y448643D01*
X596342Y444342D01*
X604391Y444342D01*
X604391Y442976D01*
G37*
G36*
X553282Y442801D02*
X552823Y442813D01*
X552381Y442849D01*
X551954Y442910D01*
X551542Y442995D01*
X551147Y443104D01*
X550767Y443237D01*
X550403Y443394D01*
X550054Y443576D01*
X549724Y443780D01*
X549414Y444005D01*
X549124Y444251D01*
X548855Y444518D01*
X548605Y444805D01*
X548376Y445113D01*
X548167Y445442D01*
X547979Y445792D01*
X547811Y446160D01*
X547666Y446545D01*
X547544Y446947D01*
X547443Y447365D01*
X547365Y447800D01*
X547310Y448251D01*
X547276Y448719D01*
X547265Y449203D01*
X547271Y449567D01*
X547290Y449921D01*
X547321Y450265D01*
X547365Y450599D01*
X547421Y450923D01*
X547489Y451237D01*
X547570Y451541D01*
X547663Y451835D01*
X547769Y452119D01*
X547888Y452393D01*
X548162Y452911D01*
X548485Y453390D01*
X548859Y453828D01*
X549277Y454220D01*
X549733Y454560D01*
X549975Y454710D01*
X550227Y454847D01*
X550488Y454971D01*
X550760Y455082D01*
X551040Y455181D01*
X551330Y455265D01*
X551630Y455337D01*
X551940Y455396D01*
X552259Y455442D01*
X552587Y455475D01*
X552926Y455494D01*
X553273Y455501D01*
X553756Y455489D01*
X554218Y455453D01*
X554660Y455392D01*
X555082Y455308D01*
X555483Y455200D01*
X555865Y455067D01*
X556226Y454911D01*
X556566Y454730D01*
X556886Y454526D01*
X557184Y454298D01*
X557460Y454047D01*
X557714Y453773D01*
X557946Y453476D01*
X558156Y453155D01*
X558344Y452811D01*
X558511Y452444D01*
X556926Y451918D01*
X556810Y452180D01*
X556678Y452425D01*
X556530Y452655D01*
X556366Y452869D01*
X556186Y453067D01*
X555989Y453249D01*
X555776Y453415D01*
X555546Y453565D01*
X555303Y453699D01*
X555049Y453814D01*
X554783Y453912D01*
X554507Y453992D01*
X554220Y454054D01*
X553921Y454099D01*
X553611Y454125D01*
X553291Y454134D01*
X552793Y454114D01*
X552323Y454052D01*
X551882Y453949D01*
X551469Y453805D01*
X551085Y453619D01*
X550729Y453393D01*
X550402Y453125D01*
X550103Y452816D01*
X549836Y452471D01*
X549605Y452096D01*
X549409Y451690D01*
X549249Y451254D01*
X549124Y450787D01*
X549035Y450290D01*
X548982Y449762D01*
X548964Y449203D01*
X548983Y448650D01*
X549038Y448125D01*
X549131Y447627D01*
X549261Y447157D01*
X549428Y446715D01*
X549632Y446301D01*
X549873Y445914D01*
X550151Y445555D01*
X550461Y445232D01*
X550796Y444952D01*
X551159Y444715D01*
X551547Y444521D01*
X551961Y444370D01*
X552402Y444262D01*
X552868Y444197D01*
X553361Y444176D01*
X553680Y444186D01*
X553989Y444216D01*
X554288Y444266D01*
X554577Y444336D01*
X554855Y444427D01*
X555124Y444537D01*
X555383Y444667D01*
X555631Y444817D01*
X555870Y444988D01*
X556099Y445178D01*
X556317Y445389D01*
X556525Y445619D01*
X556724Y445870D01*
X556912Y446141D01*
X557090Y446431D01*
X557258Y446742D01*
X558625Y446059D01*
X558425Y445672D01*
X558205Y445310D01*
X557966Y444971D01*
X557708Y444655D01*
X557431Y444364D01*
X557134Y444097D01*
X556818Y443853D01*
X556483Y443633D01*
X556131Y443438D01*
X555766Y443269D01*
X555386Y443126D01*
X554993Y443009D01*
X554586Y442918D01*
X554165Y442853D01*
X553731Y442814D01*
X553282Y442801D01*
G37*
G36*
X562143Y442976D02*
X560566Y442976D01*
X560566Y455974D01*
X562143Y455974D01*
X562143Y452593D01*
X562135Y452050D01*
X562112Y451489D01*
X562073Y450832D01*
X562099Y450832D01*
X562366Y451266D01*
X562659Y451637D01*
X562977Y451947D01*
X563321Y452194D01*
X563505Y452296D01*
X563702Y452384D01*
X563910Y452459D01*
X564130Y452520D01*
X564362Y452567D01*
X564606Y452601D01*
X564862Y452621D01*
X565130Y452628D01*
X565502Y452616D01*
X565850Y452580D01*
X566172Y452520D01*
X566469Y452436D01*
X566740Y452329D01*
X566986Y452197D01*
X567207Y452041D01*
X567403Y451862D01*
X567574Y451654D01*
X567722Y451413D01*
X567848Y451141D01*
X567951Y450836D01*
X568031Y450498D01*
X568088Y450128D01*
X568122Y449726D01*
X568134Y449291D01*
X568134Y442976D01*
X566549Y442976D01*
X566549Y448984D01*
X566537Y449452D01*
X566503Y449855D01*
X566445Y450194D01*
X566365Y450469D01*
X566258Y450696D01*
X566122Y450890D01*
X565956Y451053D01*
X565760Y451183D01*
X565530Y451282D01*
X565259Y451354D01*
X564947Y451396D01*
X564595Y451410D01*
X564324Y451398D01*
X564067Y451362D01*
X563823Y451302D01*
X563594Y451218D01*
X563378Y451109D01*
X563176Y450977D01*
X562987Y450820D01*
X562813Y450640D01*
X562656Y450439D01*
X562520Y450221D01*
X562405Y449987D01*
X562311Y449735D01*
X562237Y449468D01*
X562185Y449183D01*
X562153Y448882D01*
X562143Y448564D01*
X562143Y442976D01*
G37*
G36*
X627924Y442976D02*
X626348Y442976D01*
X626348Y450430D01*
X626335Y451763D01*
X626318Y452188D01*
X626295Y452453D01*
X627784Y452453D01*
X627802Y452216D01*
X627824Y451774D01*
X627854Y450832D01*
X627880Y450832D01*
X628163Y451287D01*
X628466Y451670D01*
X628626Y451835D01*
X628791Y451981D01*
X628962Y452110D01*
X629137Y452221D01*
X629321Y452316D01*
X629516Y452399D01*
X629721Y452469D01*
X629938Y452526D01*
X630165Y452571D01*
X630403Y452602D01*
X630651Y452622D01*
X630911Y452628D01*
X631288Y452616D01*
X631638Y452579D01*
X631963Y452519D01*
X632261Y452434D01*
X632533Y452325D01*
X632779Y452192D01*
X632999Y452034D01*
X633193Y451853D01*
X633362Y451643D01*
X633509Y451402D01*
X633633Y451129D01*
X633734Y450825D01*
X633813Y450489D01*
X633870Y450121D01*
X633904Y449722D01*
X633915Y449291D01*
X633915Y442976D01*
X632330Y442976D01*
X632330Y448984D01*
X632318Y449427D01*
X632284Y449816D01*
X632226Y450154D01*
X632146Y450438D01*
X632040Y450679D01*
X631907Y450883D01*
X631747Y451051D01*
X631559Y451183D01*
X631334Y451282D01*
X631062Y451354D01*
X630743Y451396D01*
X630377Y451410D01*
X630100Y451398D01*
X629837Y451362D01*
X629590Y451301D01*
X629358Y451216D01*
X629142Y451106D01*
X628940Y450972D01*
X628753Y450814D01*
X628581Y450631D01*
X628427Y450427D01*
X628294Y450203D01*
X628181Y449961D01*
X628088Y449700D01*
X628017Y449421D01*
X627965Y449122D01*
X627935Y448804D01*
X627924Y448468D01*
X627924Y442976D01*
G37*
G36*
X583736Y442801D02*
X583306Y442810D01*
X582902Y442837D01*
X582523Y442883D01*
X582169Y442946D01*
X581841Y443028D01*
X581538Y443128D01*
X581260Y443247D01*
X581008Y443383D01*
X580778Y443539D01*
X580570Y443715D01*
X580383Y443912D01*
X580216Y444129D01*
X580070Y444366D01*
X579946Y444624D01*
X579842Y444902D01*
X579759Y445201D01*
X581152Y445472D01*
X581209Y445288D01*
X581280Y445117D01*
X581364Y444958D01*
X581461Y444812D01*
X581572Y444679D01*
X581696Y444558D01*
X581833Y444451D01*
X581984Y444355D01*
X582149Y444272D01*
X582330Y444200D01*
X582526Y444139D01*
X582737Y444089D01*
X583206Y444023D01*
X583736Y444001D01*
X584026Y444006D01*
X584296Y444024D01*
X584545Y444052D01*
X584775Y444093D01*
X584984Y444144D01*
X585174Y444208D01*
X585343Y444282D01*
X585492Y444369D01*
X585622Y444466D01*
X585735Y444576D01*
X585831Y444696D01*
X585909Y444828D01*
X585970Y444972D01*
X586013Y445127D01*
X586039Y445294D01*
X586048Y445472D01*
X586024Y445739D01*
X585952Y445980D01*
X585831Y446195D01*
X585663Y446383D01*
X585440Y446551D01*
X585159Y446703D01*
X584819Y446840D01*
X584419Y446961D01*
X583289Y447259D01*
X582659Y447433D01*
X582128Y447606D01*
X581694Y447777D01*
X581358Y447946D01*
X581087Y448124D01*
X580847Y448320D01*
X580638Y448534D01*
X580460Y448765D01*
X580318Y449020D01*
X580217Y449302D01*
X580156Y449611D01*
X580136Y449948D01*
X580151Y450262D01*
X580194Y450557D01*
X580266Y450833D01*
X580367Y451090D01*
X580497Y451327D01*
X580656Y451545D01*
X580844Y451744D01*
X581060Y451923D01*
X581304Y452082D01*
X581575Y452220D01*
X581872Y452336D01*
X582195Y452432D01*
X582545Y452506D01*
X582922Y452559D01*
X583324Y452591D01*
X583753Y452602D01*
X584135Y452593D01*
X584497Y452567D01*
X584839Y452524D01*
X585160Y452464D01*
X585462Y452386D01*
X585743Y452291D01*
X586004Y452179D01*
X586245Y452050D01*
X586466Y451902D01*
X586665Y451732D01*
X586843Y451542D01*
X587000Y451332D01*
X587135Y451100D01*
X587249Y450848D01*
X587343Y450575D01*
X587414Y450281D01*
X585996Y450105D01*
X585956Y450259D01*
X585902Y450402D01*
X585835Y450537D01*
X585754Y450663D01*
X585550Y450886D01*
X585291Y451073D01*
X584979Y451221D01*
X584619Y451326D01*
X584211Y451389D01*
X583753Y451410D01*
X583254Y451390D01*
X582825Y451329D01*
X582637Y451284D01*
X582466Y451228D01*
X582313Y451162D01*
X582177Y451086D01*
X582058Y451000D01*
X581955Y450904D01*
X581867Y450797D01*
X581796Y450679D01*
X581740Y450551D01*
X581701Y450413D01*
X581677Y450264D01*
X581669Y450105D01*
X581682Y449913D01*
X581721Y449738D01*
X581787Y449580D01*
X581879Y449440D01*
X581997Y449313D01*
X582140Y449197D01*
X582308Y449090D01*
X582501Y448993D01*
X582764Y448892D01*
X583140Y448774D01*
X584235Y448485D01*
X584818Y448330D01*
X585312Y448182D01*
X585720Y448039D01*
X586039Y447903D01*
X586301Y447766D01*
X586533Y447621D01*
X586736Y447470D01*
X586911Y447311D01*
X587062Y447143D01*
X587194Y446962D01*
X587309Y446769D01*
X587406Y446563D01*
X587482Y446343D01*
X587537Y446108D01*
X587570Y445859D01*
X587581Y445595D01*
X587565Y445269D01*
X587518Y444963D01*
X587439Y444676D01*
X587328Y444408D01*
X587186Y444159D01*
X587012Y443930D01*
X586806Y443719D01*
X586569Y443528D01*
X586304Y443357D01*
X586013Y443210D01*
X585697Y443085D01*
X585355Y442983D01*
X584988Y442903D01*
X584596Y442846D01*
X584179Y442812D01*
X583736Y442801D01*
G37*
G36*
X572112Y442976D02*
X570535Y442976D01*
X570535Y450246D01*
X570522Y451297D01*
X570483Y452453D01*
X571972Y452453D01*
X572042Y450517D01*
X572077Y450517D01*
X572272Y451078D01*
X572482Y451542D01*
X572706Y451910D01*
X572823Y452058D01*
X572944Y452181D01*
X573073Y452286D01*
X573214Y452377D01*
X573368Y452453D01*
X573535Y452516D01*
X573714Y452565D01*
X573906Y452600D01*
X574111Y452621D01*
X574328Y452628D01*
X574645Y452606D01*
X574967Y452540D01*
X574967Y451095D01*
X574796Y451133D01*
X574599Y451161D01*
X574126Y451183D01*
X573888Y451170D01*
X573665Y451130D01*
X573456Y451064D01*
X573261Y450971D01*
X573081Y450853D01*
X572916Y450707D01*
X572765Y450536D01*
X572629Y450338D01*
X572507Y450115D01*
X572402Y449869D01*
X572314Y449601D01*
X572241Y449310D01*
X572184Y448995D01*
X572144Y448658D01*
X572120Y448299D01*
X572112Y447916D01*
X572112Y442976D01*
G37*
G36*
X578037Y442976D02*
X576460Y442976D01*
X576460Y452453D01*
X578037Y452453D01*
X578037Y442976D01*
G37*
G36*
X578037Y454467D02*
X576460Y454467D01*
X576460Y455974D01*
X578037Y455974D01*
X578037Y454467D01*
G37*
G36*
X553144Y478536D02*
X550504Y478561D01*
X547630Y478536D01*
X547847Y480781D01*
X547985Y482535D01*
X548058Y483756D01*
X548129Y485187D01*
X548267Y488676D01*
X548368Y491943D01*
X548402Y493932D01*
X548402Y495282D01*
X555273Y495257D01*
X558413Y495264D01*
X561431Y495282D01*
X561284Y492948D01*
X561247Y492147D01*
X561235Y491589D01*
X560168Y491626D01*
X558450Y491651D01*
X556034Y491651D01*
X553592Y491626D01*
X553482Y488768D01*
X555261Y488731D01*
X557248Y488731D01*
X558334Y488740D01*
X559873Y488768D01*
X559772Y486700D01*
X559747Y485855D01*
X559739Y485136D01*
X558021Y485182D01*
X556811Y485198D01*
X555121Y485182D01*
X553284Y485136D01*
X553157Y480720D01*
X553144Y479076D01*
X553144Y478536D01*
G37*
G36*
X562451Y465836D02*
X557495Y465873D01*
X555225Y465836D01*
X555454Y468354D01*
X555596Y470314D01*
X555744Y473185D01*
X555892Y476791D01*
X555975Y479401D01*
X556003Y481147D01*
X556003Y482582D01*
X557340Y482554D01*
X558480Y482545D01*
X559643Y482559D01*
X561117Y482600D01*
X562699Y482642D01*
X564184Y482656D01*
X564980Y482643D01*
X565726Y482606D01*
X566421Y482545D01*
X567066Y482459D01*
X567675Y482335D01*
X568263Y482159D01*
X568831Y481930D01*
X569378Y481650D01*
X569892Y481319D01*
X570363Y480941D01*
X570791Y480516D01*
X571174Y480042D01*
X571515Y479524D01*
X571812Y478964D01*
X572066Y478362D01*
X572278Y477718D01*
X572444Y477047D01*
X572563Y476367D01*
X572635Y475676D01*
X572658Y474976D01*
X572640Y474289D01*
X572585Y473615D01*
X572493Y472955D01*
X572364Y472307D01*
X572202Y471682D01*
X572011Y471088D01*
X571791Y470526D01*
X571542Y469995D01*
X571267Y469498D01*
X570970Y469036D01*
X570651Y468611D01*
X570309Y468222D01*
X569944Y467864D01*
X569553Y467534D01*
X569137Y467230D01*
X568696Y466952D01*
X568358Y466767D01*
X568018Y466603D01*
X567677Y466460D01*
X567334Y466339D01*
X566959Y466234D01*
X566521Y466140D01*
X566020Y466056D01*
X565457Y465983D01*
X564772Y465919D01*
X564043Y465873D01*
X563269Y465845D01*
X562451Y465836D01*
G37*
%LPC*%
G36*
X561939Y469467D02*
X562548Y469481D01*
X563122Y469523D01*
X563663Y469592D01*
X564171Y469688D01*
X564412Y469751D01*
X564646Y469830D01*
X564873Y469925D01*
X565092Y470035D01*
X565303Y470161D01*
X565507Y470302D01*
X565704Y470460D01*
X565893Y470633D01*
X566073Y470820D01*
X566240Y471020D01*
X566395Y471233D01*
X566538Y471459D01*
X566670Y471698D01*
X566789Y471950D01*
X566896Y472214D01*
X566991Y472491D01*
X567146Y473062D01*
X567257Y473640D01*
X567324Y474225D01*
X567346Y474816D01*
X567338Y475174D01*
X567313Y475517D01*
X567272Y475846D01*
X567214Y476161D01*
X567140Y476461D01*
X567049Y476747D01*
X566942Y477019D01*
X566819Y477276D01*
X566681Y477516D01*
X566533Y477738D01*
X566374Y477940D01*
X566204Y478124D01*
X566023Y478289D01*
X565831Y478434D01*
X565628Y478561D01*
X565414Y478668D01*
X565185Y478760D01*
X564936Y478840D01*
X564667Y478908D01*
X564379Y478963D01*
X564071Y479006D01*
X563743Y479036D01*
X563395Y479055D01*
X563028Y479061D01*
X562065Y479043D01*
X560942Y478987D01*
X560529Y469529D01*
X561219Y469483D01*
X561939Y469467D01*
G37*
%LPD*%
D10*
X19904Y312456D03*
D11*
X161404Y428556D03*
D12*
X165104Y414056D03*
D10*
X29904Y443956D03*
D13*
X52804Y381156D03*
X52804Y403156D03*
X52804Y425156D03*
X52804Y436156D03*
X52804Y359156D03*
X56804Y370156D03*
X50804Y392156D03*
X50804Y414156D03*
D14*
X161404Y371056D03*
D15*
X424200Y26820D02*
X424200Y13820D01*
X337800Y13820D02*
X337800Y26820D01*
X424200Y55620D02*
X424200Y68620D01*
X337800Y68620D02*
X337800Y55620D01*
D16*
X166370Y560550D03*
X166370Y580550D03*
D17*
X223870Y644050D03*
X223870Y537050D03*
D16*
X166370Y600550D03*
X166370Y620550D03*
D18*
X396000Y302440D03*
X410000Y302440D03*
X382000Y302440D03*
X410000Y288440D03*
X396000Y288440D03*
X382000Y288440D03*
X403000Y309440D03*
X389000Y309440D03*
X403000Y295440D03*
X389000Y295440D03*
X403000Y281440D03*
X389000Y281440D03*
D19*
X411750Y513347D03*
X394250Y513347D03*
X376750Y513347D03*
X359250Y513347D03*
D20*
X327250Y513347D03*
X434750Y513347D03*
D21*
X421250Y224600D03*
X340750Y224600D03*
D22*
X398500Y205600D03*
X393500Y205600D03*
X388500Y205600D03*
X383500Y205600D03*
X378500Y205600D03*
X373500Y205600D03*
X368500Y205600D03*
X363500Y205600D03*
D23*
X516000Y215100D03*
X246000Y215100D03*
X246000Y335100D03*
X516000Y335100D03*
D24*
X301650Y172880D03*
X320650Y172880D03*
X311150Y192880D03*
X333930Y199390D03*
X323930Y199390D03*
X316150Y160020D03*
X306150Y160020D03*
D25*
X55373Y548994D02*
X49311Y552494D01*
X55661Y563493D02*
X61723Y559993D01*
X68073Y570991D02*
X62011Y574491D01*
X68361Y585490D02*
X74423Y581990D01*
D26*
X520700Y660400D03*
X274320Y675640D03*
X381000Y20320D03*
X95250Y157480D03*
D27*
X240422Y285262D03*
D28*
X232628Y293055D02*
X232628Y294895D01*
X232628Y293055D02*
X240422Y285262D01*
D27*
X231533Y295990D03*
D28*
X232628Y294895D01*
D29*
X543560Y398780D02*
X552450Y389890D01*
D27*
X543560Y398780D03*
D29*
X543560Y421640D01*
X552450Y389890D02*
X552450Y312420D01*
X492308Y472892D02*
X414239Y472892D01*
X492308Y472892D02*
X543560Y421640D01*
D27*
X371270Y469216D03*
D29*
X371856Y468630D01*
X377582Y468630D01*
X377638Y468574D01*
X409921Y468574D01*
X414239Y472892D01*
X371856Y468630D02*
X287158Y468630D01*
X261620Y494168D01*
X235182Y580550D02*
X166370Y580550D01*
X261620Y554112D02*
X261620Y494168D01*
X261620Y554112D02*
X235182Y580550D01*
D27*
X494538Y305816D03*
D29*
X548259Y308229D02*
X552450Y312420D01*
X548259Y308229D02*
X540258Y300228D01*
X500126Y300228D02*
X494538Y305816D01*
X500126Y300228D02*
X540258Y300228D01*
D27*
X548259Y308229D03*
D29*
X221648Y600550D02*
X166370Y600550D01*
X221648Y600550D02*
X266700Y555498D01*
X266700Y495554D01*
X375988Y512585D02*
X376750Y513347D01*
X375988Y512585D02*
X375988Y475686D01*
D27*
X561340Y398780D03*
D29*
X561340Y410718D01*
X561340Y398780D02*
X561340Y334772D01*
X376992Y475686D02*
X375988Y475686D01*
X376632Y476046D02*
X376992Y475686D01*
X379532Y473146D01*
X286208Y476046D02*
X266700Y495554D01*
X286208Y476046D02*
X376632Y476046D01*
X379532Y473146D02*
X408027Y473146D01*
X412345Y477464D01*
X494594Y477464D01*
X561340Y410718D01*
X484886Y315976D02*
X484886Y303784D01*
D27*
X484886Y315976D03*
D29*
X484886Y303784D02*
X493014Y295656D01*
D27*
X561340Y334772D03*
D29*
X561340Y311651D01*
X545345Y295656D01*
X493014Y295656D01*
D27*
X413141Y179687D03*
D30*
X393500Y199328D01*
X393500Y205600D01*
X378500Y205600D02*
X378500Y184746D01*
X379629Y183616D02*
X379629Y178168D01*
X375777Y174316D01*
X379629Y183616D02*
X378500Y184746D01*
D27*
X365344Y170116D03*
D30*
X369544Y174316D02*
X375777Y174316D01*
X369544Y174316D02*
X365344Y170116D01*
X373500Y184778D02*
X373500Y205600D01*
D27*
X373053Y180892D03*
D30*
X373053Y184331D02*
X373500Y184778D01*
X373053Y184331D02*
X373053Y180892D01*
X389206Y204894D02*
X388500Y205600D01*
X389206Y204894D02*
X389206Y196203D01*
X395716Y189693D01*
X395716Y186608D01*
D27*
X432494Y152626D03*
D30*
X429698Y152626D02*
X395716Y186608D01*
X429698Y152626D02*
X432494Y152626D01*
D27*
X417727Y78843D03*
X344170Y80010D03*
D29*
X33020Y412496D02*
X33020Y413140D01*
X49788Y413140D02*
X50804Y414156D01*
X49788Y413140D02*
X33020Y413140D01*
D27*
X33020Y412496D03*
X246888Y473456D03*
X273304Y445516D03*
X474472Y505968D03*
X221996Y507238D03*
X629412Y525780D03*
X587502Y484124D03*
X554736Y534670D03*
X59690Y457200D03*
X54356Y478536D03*
X243332Y87122D03*
X188468Y116840D03*
X145542Y163322D03*
X176276Y190500D03*
X202692Y133350D03*
X64444Y305951D03*
X67908Y246595D03*
D30*
X60822Y315606D02*
X19904Y312456D01*
X60822Y315606D02*
X61468Y314960D01*
X64444Y311984D01*
X64444Y305951D01*
D27*
X315468Y504444D03*
X283718Y520446D03*
D30*
X55118Y457200D02*
X50038Y452120D01*
X55118Y457200D02*
X59690Y457200D01*
D27*
X82567Y304979D03*
X402590Y482516D03*
X591058Y259588D03*
X579120Y116840D03*
X656956Y194041D03*
X525597Y78232D03*
X711200Y432308D03*
X710431Y352147D03*
X684784Y525272D03*
X516128Y687578D03*
X236220Y685800D03*
X484632Y464058D03*
X206911Y166017D03*
X261067Y267761D03*
X670298Y247681D03*
X482120Y163322D03*
X263944Y172974D03*
X330866Y115412D03*
X166116Y232156D03*
X156718Y248666D03*
X238923Y249882D03*
X150431Y546417D03*
X80772Y599186D03*
X629412Y247396D03*
X687832Y319278D03*
X230579Y270256D03*
D30*
X41874Y443956D02*
X29904Y443956D01*
X41874Y443956D02*
X50038Y452120D01*
D31*
X71392Y583740D02*
X80772Y599186D01*
D27*
X244202Y180318D03*
D29*
X35834Y392156D02*
X35560Y392430D01*
X35834Y392156D02*
X50804Y392156D01*
D27*
X35560Y392430D03*
D32*
X466725Y125349D02*
X504952Y163576D01*
X466725Y125349D02*
X447548Y106172D01*
X353060Y106172D01*
X296418Y106172D01*
X264922Y106172D01*
X170942Y507390D02*
X170942Y555978D01*
X166370Y560550D01*
D30*
X466725Y125603D02*
X466725Y125349D01*
X264922Y106172D02*
X264414Y106680D01*
D31*
X411750Y488680D02*
X411750Y513347D01*
X411750Y488680D02*
X415544Y484886D01*
X501650Y484886D01*
X530860Y514096D01*
D30*
X215392Y417830D02*
X208280Y424942D01*
X201676Y431546D01*
D32*
X186944Y491388D02*
X171018Y507314D01*
X170942Y507390D01*
X186944Y491388D02*
X186944Y490546D01*
D27*
X501650Y484886D03*
X544068Y368300D03*
D29*
X515620Y396748D01*
X515620Y402082D01*
D27*
X515620Y402082D03*
D30*
X201676Y431546D02*
X199898Y433324D01*
X197140Y433324D01*
X195834Y433324D01*
D32*
X230962Y128092D02*
X237820Y121234D01*
X252882Y106172D01*
X264922Y106172D01*
D27*
X237820Y121234D03*
D32*
X504952Y163576D02*
X527356Y163576D01*
X576606Y212826D02*
X593904Y230124D01*
D27*
X112034Y244046D03*
D32*
X527356Y163576D02*
X576606Y212826D01*
X112034Y244046D02*
X111760Y244320D01*
X131854Y264414D01*
X111760Y244320D02*
X111760Y225008D01*
X195834Y393982D02*
X195834Y433324D01*
X111760Y225008D02*
X183169Y153599D01*
D27*
X167160Y290828D03*
D32*
X167896Y290828D01*
X167160Y290828D02*
X167160Y290828D01*
X167160Y290828D01*
X167149Y290828D02*
X167896Y290828D01*
X140735Y264414D02*
X131854Y264414D01*
X140735Y264414D02*
X167149Y290828D01*
X230962Y128092D02*
X230962Y128092D01*
X701949Y317901D02*
X701949Y411362D01*
X599215Y514096D02*
X530860Y514096D01*
X599215Y514096D02*
X701949Y411362D01*
D30*
X368500Y205600D02*
X368500Y188668D01*
D32*
X680946Y266796D02*
X680946Y277718D01*
X689836Y286608D01*
X689836Y305788D01*
X701949Y317901D01*
D27*
X505615Y162913D03*
D32*
X504952Y163576D01*
D30*
X291465Y161163D02*
X282067Y161163D01*
D27*
X282067Y161163D03*
X271798Y143528D03*
D30*
X273899Y143528D02*
X280267Y137160D01*
X273899Y143528D02*
X271798Y143528D01*
X327660Y147828D02*
X368500Y188668D01*
X327660Y147828D02*
X304800Y147828D01*
D27*
X309608Y129060D03*
X296418Y115598D03*
D30*
X296418Y106172D01*
X309608Y129060D02*
X307096Y131572D01*
X304800Y147828D02*
X291465Y161163D01*
X291839Y137160D02*
X280267Y137160D01*
X291839Y137160D02*
X297427Y131572D01*
X307096Y131572D01*
D27*
X264414Y116868D03*
D30*
X264414Y106680D01*
D27*
X576606Y212826D03*
D32*
X670185Y256035D02*
X680946Y266796D01*
X670185Y256035D02*
X666837Y256035D01*
X640926Y230124D02*
X593904Y230124D01*
X640926Y230124D02*
X666837Y256035D01*
D27*
X187517Y490546D03*
D32*
X186944Y490546D01*
X195580Y376964D02*
X195580Y318512D01*
X167896Y290828D01*
D27*
X230962Y126731D03*
D32*
X230962Y128092D01*
D27*
X226314Y415036D03*
D30*
X218186Y415036D01*
X215392Y417830D01*
D27*
X195608Y386974D03*
D32*
X194762Y441385D02*
X190810Y445337D01*
X190810Y445449D01*
X186944Y449315D01*
X186944Y491388D01*
X195580Y386946D02*
X195580Y376964D01*
X195580Y386946D02*
X195608Y386974D01*
X195608Y393756D01*
X195834Y393982D01*
X195834Y440313D02*
X194762Y441385D01*
X195834Y440313D02*
X195834Y433324D01*
X219453Y139601D02*
X230962Y128092D01*
X219453Y139601D02*
X218663Y139601D01*
X204665Y153599D02*
X183169Y153599D01*
X204665Y153599D02*
X218663Y139601D01*
D27*
X134366Y226314D03*
X91267Y547487D03*
D30*
X134366Y226314D02*
X134620Y226060D01*
X134620Y212188D01*
X187367Y159441D01*
D27*
X110490Y534924D03*
D28*
X97927Y547487D01*
X91267Y547487D01*
D30*
X204426Y447548D02*
X204934Y447040D01*
D27*
X159766Y536448D03*
D30*
X131064Y536448D01*
X129540Y534924D01*
D27*
X129540Y534924D03*
X204426Y449044D03*
D30*
X204426Y447548D01*
D27*
X214249Y155829D03*
D30*
X210637Y159441D01*
X187367Y159441D01*
D27*
X268986Y288798D03*
D30*
X268539Y288798D01*
X239357Y259616D01*
D27*
X253478Y117870D03*
D30*
X203708Y209426D02*
X203708Y227883D01*
X235441Y259616D02*
X239357Y259616D01*
X235441Y259616D02*
X203708Y227883D01*
D27*
X234611Y171309D03*
X222123Y147955D03*
D30*
X223393Y147955D01*
X253478Y117870D01*
X234611Y171309D02*
X234611Y178523D01*
X203708Y209426D01*
D29*
X33352Y370156D02*
X33274Y370078D01*
X33352Y370156D02*
X56804Y370156D01*
D27*
X33274Y370078D03*
X470740Y141908D03*
D30*
X467187Y141908D01*
X173228Y216916D02*
X173228Y287528D01*
X337979Y131826D02*
X324263Y118110D01*
X337979Y131826D02*
X457105Y131826D01*
X467187Y141908D01*
X305510Y118110D02*
X300176Y123444D01*
X305510Y118110D02*
X324263Y118110D01*
X300176Y123444D02*
X257204Y123444D01*
X173228Y287528D02*
X193576Y307876D01*
X193576Y308246D01*
D27*
X203934Y367869D03*
D30*
X201422Y316092D02*
X193576Y308246D01*
X201422Y316092D02*
X201422Y365357D01*
X203934Y367869D01*
X228107Y152541D02*
X257204Y123444D01*
X228107Y152541D02*
X226837Y152541D01*
X215843Y163535D01*
X215843Y174301D01*
X173228Y216916D01*
D27*
X495808Y250952D03*
D30*
X495808Y270256D01*
X489298Y276766D01*
X383500Y205600D02*
X383500Y185493D01*
X383693Y185299D01*
X383693Y182622D01*
D27*
X397322Y167765D03*
D30*
X397322Y168993D02*
X383693Y182622D01*
X397322Y168993D02*
X397322Y167765D01*
D27*
X458443Y174877D03*
D30*
X462788Y179223D01*
X475627Y276766D02*
X489298Y276766D01*
X475627Y276766D02*
X462788Y263927D01*
X462788Y179223D01*
D29*
X220416Y292340D02*
X220416Y296283D01*
X218631Y298068D01*
X218117Y298068D01*
X213936Y302249D01*
D30*
X213868Y302180D01*
D27*
X165128Y337684D03*
D29*
X220416Y292340D02*
X224755Y288001D01*
D27*
X238021Y275666D03*
X223131Y287155D03*
D29*
X237090Y275666D02*
X238021Y275666D01*
X237090Y275666D02*
X224755Y288001D01*
D30*
X223909Y287155D02*
X223131Y287155D01*
X223909Y287155D02*
X224755Y288001D01*
D27*
X213727Y301854D03*
D29*
X213727Y302039D02*
X213936Y302249D01*
X213727Y302039D02*
X213727Y301854D01*
D30*
X165104Y400046D02*
X165104Y414056D01*
X165104Y400046D02*
X167132Y398018D01*
X171450Y393700D01*
X171450Y363220D01*
X160020Y351790D01*
X160020Y342792D01*
X165128Y337684D01*
D27*
X96329Y555652D03*
X261874Y447548D03*
D30*
X271018Y456692D01*
D27*
X533908Y409194D03*
D30*
X159849Y305080D02*
X149580Y305080D01*
D27*
X211760Y434010D03*
D30*
X221008Y443258D02*
X257584Y443258D01*
X221008Y443258D02*
X211760Y434010D01*
X257584Y443258D02*
X261874Y447548D01*
D27*
X108915Y552653D03*
D28*
X105916Y555652D01*
X96329Y555652D01*
D27*
X148548Y306112D03*
D30*
X149580Y305080D01*
X271018Y456692D02*
X271526Y457200D01*
X499872Y457200D01*
X533908Y423164D02*
X533908Y409194D01*
X533908Y423164D02*
X499872Y457200D01*
D27*
X175852Y439253D03*
D30*
X181920Y327151D02*
X159849Y305080D01*
X181920Y327151D02*
X181920Y433185D01*
X175852Y439253D01*
D27*
X415290Y90170D03*
X356068Y79208D03*
D31*
X367030Y90170D01*
X381000Y90170D02*
X415290Y90170D01*
X381000Y90170D02*
X367030Y90170D01*
X44196Y528066D02*
X44196Y533708D01*
X44196Y528066D02*
X44450Y527812D01*
X44450Y526542D01*
X45720Y525272D01*
D27*
X45720Y525272D03*
X177292Y457454D03*
D31*
X337994Y97282D02*
X356068Y79208D01*
X178534Y456212D02*
X177292Y457454D01*
D27*
X381041Y90211D03*
D31*
X381000Y90170D01*
X127911Y271526D02*
X104140Y247755D01*
X104140Y221046D01*
X178700Y146487D01*
X136762Y271526D02*
X127911Y271526D01*
X178700Y146487D02*
X200661Y146487D01*
X223116Y124032D01*
X223116Y123481D01*
X249315Y97282D01*
X337994Y97282D01*
X183698Y440359D02*
X183698Y442503D01*
X178534Y447667D02*
X178534Y456212D01*
X178534Y447667D02*
X183698Y442503D01*
X183698Y440359D02*
X187254Y436803D01*
X187254Y322018D01*
X136762Y271526D01*
X44196Y533708D02*
X52342Y550744D01*
D27*
X22098Y429514D03*
D29*
X32142Y429514D01*
X36536Y433908D01*
X50556Y433908D02*
X52804Y436156D01*
X50556Y433908D02*
X36536Y433908D01*
X35814Y359156D02*
X52804Y359156D01*
D27*
X32053Y355395D03*
D29*
X35814Y359156D01*
D27*
X313690Y31750D03*
X279400Y45720D03*
X121920Y139700D03*
X36830Y302260D03*
X43180Y483870D03*
X302260Y725170D03*
X485140Y718820D03*
X640080Y622300D03*
X725170Y459740D03*
X622300Y121920D03*
X497840Y46990D03*
X149860Y113030D03*
X46990Y262890D03*
X42418Y455676D03*
X115570Y615696D03*
X266700Y713740D03*
X448310Y726440D03*
X612140Y650240D03*
X715010Y497840D03*
X727710Y313690D03*
X648970Y149860D03*
X544830Y91440D03*
D33*
X551180Y85090D01*
X551180Y82550D01*
D27*
X460520Y37053D03*
X252222Y60198D03*
X717550Y278384D03*
X138541Y640080D03*
X673354Y194310D03*
X372860Y79792D03*
X387032Y81372D03*
D30*
X385452Y79792D02*
X372860Y79792D01*
X385452Y79792D02*
X387032Y81372D01*
D27*
X192751Y263887D03*
D29*
X195944Y263887D01*
D27*
X223240Y256714D03*
D29*
X200859Y258972D02*
X195944Y263887D01*
X200859Y258972D02*
X220982Y258972D01*
X223240Y256714D01*
D27*
X125739Y233258D03*
D29*
X153847Y261366D01*
D27*
X160048Y261366D03*
D29*
X153847Y261366D01*
D27*
X320040Y129794D03*
X282780Y143947D03*
D30*
X314198Y135636D02*
X320040Y129794D01*
X314198Y135636D02*
X299111Y135636D01*
X290800Y143947D01*
X282780Y143947D01*
D27*
X298450Y54610D03*
D30*
X199390Y92710D01*
X196191Y93984D01*
X193024Y95334D01*
X189889Y96758D01*
X186790Y98257D01*
X183726Y99829D01*
X180701Y101473D01*
X177716Y103189D01*
X174773Y104975D01*
X171872Y106831D01*
X169017Y108755D01*
X166208Y110746D01*
X163448Y112803D01*
X160737Y114926D01*
X158077Y117112D01*
X155470Y119361D01*
X152917Y121671D01*
X150420Y124042D01*
X147979Y126471D01*
X145598Y128957D01*
X143275Y131499D01*
X141014Y134095D01*
X138816Y136745D01*
X136681Y139446D01*
X134610Y142197D01*
X132606Y144997D01*
X130669Y147843D01*
X128800Y150735D01*
X127000Y153670D01*
D27*
X127000Y153670D03*
X146050Y140970D03*
D30*
X123190Y170180D01*
X117294Y177897D01*
X111578Y185749D01*
X106046Y193731D01*
X100701Y201840D01*
X95545Y210071D01*
X90582Y218419D01*
X85814Y226880D01*
X81244Y235449D01*
X76874Y244122D01*
X72706Y252894D01*
X68743Y261761D01*
X64987Y270717D01*
X61440Y279758D01*
X58103Y288878D01*
X54979Y298074D01*
X52070Y307340D01*
D27*
X52070Y307340D03*
X167386Y346772D03*
X175344Y423644D03*
D30*
X176146Y352853D02*
X170065Y346772D01*
X167386Y346772D01*
X176146Y422842D02*
X175344Y423644D01*
X176146Y422842D02*
X176146Y352853D01*
D27*
X59690Y469900D03*
D30*
X63500Y490220D01*
X63499Y490220D02*
X64469Y495072D01*
X65554Y499899D01*
X66754Y504699D01*
X68068Y509469D01*
X69496Y514206D01*
X71036Y518908D01*
X72687Y523572D01*
X74450Y528195D01*
X76322Y532774D01*
X78303Y537308D01*
X80391Y541794D01*
X82586Y546228D01*
X84886Y550608D01*
X87289Y554933D01*
X89795Y559199D01*
X92402Y563404D01*
X95109Y567545D01*
X97914Y571621D01*
X100815Y575629D01*
X103811Y579567D01*
X106899Y583432D01*
X110079Y587222D01*
X113349Y590935D01*
X116706Y594570D01*
X120149Y598123D01*
X123676Y601593D01*
X127284Y604978D01*
X130972Y608276D01*
X134738Y611485D01*
X138579Y614604D01*
X142494Y617630D01*
D27*
X152200Y638879D03*
D30*
X142494Y629174D02*
X142361Y628817D01*
X142236Y628457D01*
X142120Y628094D01*
X142012Y627729D01*
X141913Y627361D01*
X141823Y626991D01*
X141742Y626618D01*
X141670Y626244D01*
X141607Y625869D01*
X141552Y625491D01*
X141507Y625113D01*
X141471Y624734D01*
X141443Y624354D01*
X141425Y623973D01*
X141416Y623592D01*
X141416Y623212D01*
X141425Y622831D01*
X141443Y622450D01*
X141471Y622070D01*
X141507Y621691D01*
X141552Y621313D01*
X141607Y620935D01*
X141670Y620560D01*
X141742Y620186D01*
X141823Y619813D01*
X141913Y619443D01*
X142012Y619075D01*
X142120Y618710D01*
X142236Y618347D01*
X142361Y617987D01*
X142494Y617630D01*
X142494Y629173D02*
X142682Y629585D01*
X142880Y629993D01*
X143087Y630396D01*
X143304Y630793D01*
X143530Y631186D01*
X143766Y631573D01*
X144011Y631954D01*
X144264Y632329D01*
X144527Y632698D01*
X144798Y633061D01*
X145078Y633417D01*
X145367Y633767D01*
X145663Y634109D01*
X145968Y634444D01*
X146281Y634772D01*
X146601Y635092D01*
X146929Y635405D01*
X147264Y635710D01*
X147606Y636006D01*
X147956Y636295D01*
X148312Y636575D01*
X148675Y636846D01*
X149044Y637109D01*
X149419Y637362D01*
X149800Y637607D01*
X150187Y637843D01*
X150580Y638069D01*
X150977Y638286D01*
X151380Y638493D01*
X151788Y638691D01*
X152200Y638879D01*
D27*
X194310Y657860D03*
D30*
X311150Y713740D01*
D27*
X311150Y713740D03*
X300990Y699770D03*
D30*
X321310Y711200D01*
X324197Y712779D01*
X327121Y714289D01*
X330079Y715730D01*
X333071Y717099D01*
X336095Y718397D01*
X339149Y719623D01*
X342231Y720776D01*
X345340Y721856D01*
X348473Y722861D01*
X351629Y723792D01*
X354807Y724647D01*
X358004Y725427D01*
X361218Y726131D01*
X364449Y726758D01*
X367693Y727308D01*
X370949Y727781D01*
X374216Y728177D01*
X377492Y728494D01*
X380774Y728734D01*
X384060Y728896D01*
X387350Y728980D01*
X391356Y728986D01*
X395360Y728894D01*
X399362Y728705D01*
X403357Y728420D01*
X407345Y728037D01*
X411322Y727557D01*
X415286Y726982D01*
X419235Y726309D01*
X423166Y725542D01*
X427078Y724679D01*
X430967Y723721D01*
X434833Y722669D01*
X438671Y721524D01*
X442481Y720285D01*
X446259Y718955D01*
X450004Y717533D01*
X453713Y716021D01*
X457385Y714419D01*
X461016Y712728D01*
X464605Y710950D01*
X468150Y709084D01*
X471649Y707134D01*
X475099Y705099D01*
X478499Y702981D01*
X481847Y700781D01*
X485140Y698500D01*
D27*
X485810Y700084D03*
D30*
X485140Y699414D02*
X485119Y699346D01*
X485102Y699276D01*
X485088Y699206D01*
X485078Y699135D01*
X485071Y699064D01*
X485067Y698993D01*
X485067Y698921D01*
X485071Y698850D01*
X485078Y698779D01*
X485088Y698708D01*
X485102Y698638D01*
X485119Y698568D01*
X485140Y698500D01*
X485140Y699415D02*
X485175Y699480D01*
X485213Y699544D01*
X485255Y699605D01*
X485299Y699665D01*
X485346Y699722D01*
X485396Y699777D01*
X485448Y699829D01*
X485503Y699879D01*
X485560Y699926D01*
X485620Y699970D01*
X485681Y700012D01*
X485745Y700050D01*
X485810Y700085D01*
D27*
X694436Y461264D03*
D30*
X694436Y452374D02*
X707859Y412105D01*
X694436Y452374D02*
X694436Y461264D01*
X707859Y412105D02*
X709222Y407847D01*
X710482Y403558D01*
X711639Y399239D01*
X712691Y394894D01*
X713640Y390526D01*
X714483Y386135D01*
X715220Y381726D01*
X715851Y377300D01*
X716376Y372860D01*
X716794Y368409D01*
X717106Y363949D01*
X717310Y359483D01*
X717406Y355014D01*
X717396Y350543D01*
X717278Y346074D01*
X717053Y341609D01*
X716721Y337151D01*
X716281Y332702D01*
X715736Y328265D01*
X715083Y323842D01*
X714325Y319436D01*
X713461Y315049D01*
X712493Y310685D01*
X711419Y306345D01*
X710242Y302032D01*
X708962Y297749D01*
X707579Y293497D01*
X706094Y289281D01*
X704509Y285100D01*
X702824Y280960D01*
X701040Y276860D01*
D27*
X701040Y276860D03*
D30*
X622188Y606874D02*
X621216Y606874D01*
X622188Y606874D02*
X641350Y607060D01*
X709930Y449580D01*
D27*
X709930Y449580D03*
X611828Y615732D03*
D30*
X612358Y615732D02*
X621216Y606874D01*
X612358Y615732D02*
X611828Y615732D01*
D27*
X471718Y698562D03*
D30*
X482168Y694146D01*
X482259Y694055D01*
X482383Y694055D01*
X574040Y655320D01*
X576296Y654335D01*
X578528Y653297D01*
X580735Y652205D01*
X582915Y651062D01*
X585067Y649867D01*
X587190Y648622D01*
X589284Y647326D01*
X591345Y645981D01*
X593375Y644588D01*
X595370Y643146D01*
X597331Y641658D01*
X599256Y640123D01*
X601144Y638543D01*
X602994Y636919D01*
X604804Y635251D01*
X606575Y633541D01*
X608304Y631789D01*
X609992Y629997D01*
X611636Y628165D01*
X613236Y626294D01*
X614792Y624386D01*
X616302Y622442D01*
X617765Y620462D01*
X619180Y618448D01*
X620548Y616401D01*
X621866Y614322D01*
X623135Y612213D01*
X623889Y612967D01*
X626903Y612967D02*
X627411Y613475D01*
X626903Y612966D02*
X626776Y613006D01*
X626648Y613043D01*
X626519Y613076D01*
X626389Y613106D01*
X626258Y613132D01*
X626126Y613154D01*
X625994Y613172D01*
X625862Y613187D01*
X625729Y613198D01*
X625596Y613206D01*
X625463Y613210D01*
X625329Y613210D01*
X625196Y613206D01*
X625063Y613198D01*
X624930Y613187D01*
X624798Y613172D01*
X624666Y613154D01*
X624534Y613132D01*
X624403Y613106D01*
X624273Y613076D01*
X624144Y613043D01*
X624016Y613006D01*
X623889Y612966D01*
D27*
X627411Y613475D03*
X618094Y162529D03*
D30*
X535940Y95250D01*
X535941Y95249D02*
X530763Y91110D01*
X525488Y87093D01*
X520121Y83202D01*
X514664Y79438D01*
X509119Y75803D01*
X503490Y72300D01*
X497781Y68931D01*
X491994Y65697D01*
X486132Y62600D01*
X480199Y59642D01*
X474198Y56824D01*
X468132Y54149D01*
X462005Y51617D01*
X455820Y49230D01*
X449581Y46989D01*
D27*
X449580Y46990D03*
D30*
X690880Y273050D02*
X698094Y288898D01*
X690880Y273049D02*
X684344Y259119D01*
X677486Y245343D01*
X670311Y231731D01*
X662822Y218288D01*
X655024Y205022D01*
X646920Y191940D01*
X638515Y179050D01*
X629814Y166358D01*
X620822Y153871D01*
X611542Y141596D01*
X601980Y129539D01*
D27*
X601980Y127530D03*
D30*
X601981Y127530D02*
X601933Y127592D01*
X601889Y127655D01*
X601847Y127721D01*
X601809Y127789D01*
X601775Y127858D01*
X601744Y127929D01*
X601716Y128002D01*
X601692Y128076D01*
X601671Y128151D01*
X601654Y128226D01*
X601641Y128303D01*
X601632Y128380D01*
X601626Y128457D01*
X601624Y128535D01*
X601626Y128613D01*
X601632Y128690D01*
X601641Y128767D01*
X601654Y128844D01*
X601671Y128919D01*
X601692Y128994D01*
X601716Y129068D01*
X601744Y129141D01*
X601775Y129212D01*
X601809Y129281D01*
X601847Y129349D01*
X601889Y129415D01*
X601933Y129478D01*
X601981Y129540D01*
D27*
X698726Y290641D03*
D30*
X698094Y290009D02*
X698094Y288898D01*
X698094Y290009D02*
X698726Y290641D01*
X359410Y513187D02*
X359250Y513347D01*
D27*
X359410Y483384D03*
D30*
X359410Y513187D01*
D27*
X271530Y251210D03*
D29*
X277114Y256794D01*
X443462Y256794D01*
X466322Y279654D01*
X468354Y281686D01*
X593090Y281686D01*
X661162Y281686D01*
X672592Y270256D01*
D27*
X672592Y270256D03*
X269240Y261620D03*
D29*
X274204Y261620D01*
X274458Y261366D01*
X441568Y261366D01*
X464428Y284226D01*
X466460Y286258D01*
X594106Y286258D01*
X672338Y286258D01*
X674624Y283972D01*
D27*
X674624Y283972D03*
X269240Y273050D03*
D29*
X276352Y265938D02*
X439674Y265938D01*
X276352Y265938D02*
X269240Y273050D01*
X439674Y265938D02*
X462534Y288798D01*
X464820Y291084D01*
X594868Y291084D01*
X680466Y291084D01*
X681482Y290068D01*
D27*
X681482Y290068D03*
D34*
X649986Y327660D03*
D27*
X660400Y377952D03*
D34*
X632421Y327623D03*
D32*
X637539Y332741D02*
X637539Y332816D01*
X637539Y332741D02*
X632421Y327623D01*
X660400Y355677D02*
X660400Y377952D01*
X660400Y355677D02*
X637539Y332816D01*
D27*
X164996Y276860D03*
D30*
X167132Y274724D01*
D27*
X166652Y248412D03*
D30*
X167132Y248892D02*
X167132Y274724D01*
X167132Y248892D02*
X166652Y248412D01*
D27*
X192250Y274582D03*
D30*
X203152Y263680D01*
D27*
X259033Y288591D03*
D30*
X235335Y263680D02*
X203152Y263680D01*
X235335Y263680D02*
X259033Y287377D01*
X259033Y288591D01*
X317660Y199390D02*
X311150Y192880D01*
X317660Y199390D02*
X323930Y199390D01*
X301650Y172880D02*
X301650Y164520D01*
X306150Y160020D01*
D27*
X328164Y165072D03*
D30*
X306150Y160020D02*
X306150Y154098D01*
X307340Y152908D01*
X308356Y151892D01*
X322326Y151892D01*
X328164Y157730D01*
X328164Y165072D01*
D35*
X621284Y203962D03*
X556260Y629920D03*
X127855Y499965D03*
X88757Y278591D03*
D29*
X31750Y422656D02*
X34250Y425156D01*
X52804Y425156D01*
D27*
X31750Y422656D03*
X485676Y270030D03*
D29*
X481855Y270030D01*
D30*
X466852Y255027D02*
X466852Y161544D01*
X466852Y255027D02*
X481855Y270030D01*
X466852Y161544D02*
X449580Y144272D01*
X440690Y144272D01*
X255778Y146050D02*
X251840Y146050D01*
X329851Y144272D02*
X440690Y144272D01*
X292294Y154587D02*
X264315Y154587D01*
X255778Y146050D01*
X292294Y154587D02*
X303117Y143764D01*
X329343Y143764D01*
X329851Y144272D01*
X185674Y221712D02*
X185674Y280924D01*
X206248Y301498D01*
X206248Y303676D01*
D27*
X209182Y404606D03*
D30*
X209182Y401054D01*
X213614Y356755D02*
X213614Y311042D01*
X213614Y356755D02*
X218638Y361779D01*
X213614Y311042D02*
X206248Y303676D01*
X218638Y361779D02*
X218638Y391598D01*
X209182Y401054D01*
X233157Y164733D02*
X251840Y146050D01*
X233157Y164733D02*
X231887Y164733D01*
X228035Y168585D01*
X228035Y179351D02*
X185674Y221712D01*
X228035Y179351D02*
X228035Y168585D01*
X34290Y381000D02*
X34446Y381156D01*
X52804Y381156D01*
D27*
X34290Y381000D03*
X486842Y255504D03*
D30*
X480548Y255504D01*
X201930Y302927D02*
X181610Y282607D01*
X471170Y246126D02*
X471170Y159512D01*
X471170Y246126D02*
X480548Y255504D01*
X257400Y141478D02*
X250665Y141478D01*
X181610Y220029D02*
X181610Y282607D01*
X334359Y139700D02*
X334613Y139954D01*
X451612Y139954D01*
X471170Y159512D01*
X300794Y139700D02*
X289971Y150523D01*
X300794Y139700D02*
X334359Y139700D01*
X266445Y150523D02*
X257400Y141478D01*
X266445Y150523D02*
X289971Y150523D01*
X201930Y302927D02*
X201930Y305105D01*
D27*
X209182Y388890D03*
D30*
X209550Y358438D02*
X209550Y312725D01*
X209550Y358438D02*
X214574Y363462D01*
X214574Y372277D01*
X209182Y377669D01*
X209550Y312725D02*
X201930Y305105D01*
X209182Y377669D02*
X209182Y388890D01*
X230204Y160669D02*
X231474Y160669D01*
X230204Y160669D02*
X223971Y166902D01*
X231474Y160669D02*
X250665Y141478D01*
X223971Y177668D02*
X181610Y220029D01*
X223971Y177668D02*
X223971Y166902D01*
X52804Y403156D02*
X48072Y402590D01*
X34290Y402590D01*
D27*
X34290Y402590D03*
D30*
X475234Y231140D02*
X475234Y167386D01*
X197866Y306070D02*
X177546Y285750D01*
X475234Y167386D02*
X475234Y155702D01*
X306884Y122484D02*
X301860Y127508D01*
X306884Y122484D02*
X322890Y122484D01*
X301860Y127508D02*
X258887Y127508D01*
X177546Y218345D02*
X177546Y285750D01*
D27*
X485771Y245749D03*
D30*
X485771Y241677D02*
X475234Y231140D01*
X485771Y241677D02*
X485771Y245749D01*
X455422Y135890D02*
X336296Y135890D01*
X322890Y122484D01*
X455422Y135890D02*
X475234Y155702D01*
X197866Y306070D02*
X197866Y306788D01*
D27*
X204188Y396748D03*
D30*
X202606Y395166D01*
X210510Y370593D02*
X210510Y365146D01*
X205486Y314408D02*
X197866Y306788D01*
X205486Y314408D02*
X205486Y360122D01*
X210510Y365146D01*
X202606Y378497D02*
X202606Y395166D01*
X202606Y378497D02*
X210510Y370593D01*
X229790Y156605D02*
X258887Y127508D01*
X229790Y156605D02*
X228520Y156605D01*
X219907Y165218D01*
X219907Y175984D01*
X177546Y218345D01*
X349170Y214630D02*
X380238Y214630D01*
X396240Y214630D01*
X397764Y213106D01*
X398500Y212370D01*
X398500Y205600D01*
X326644Y208026D02*
X287528Y208026D01*
X256126Y176624D01*
X342566Y208026D02*
X349170Y214630D01*
X342566Y208026D02*
X334010Y208026D01*
X326644Y208026D01*
X333930Y207946D02*
X333930Y199390D01*
X333930Y207946D02*
X334010Y208026D01*
D27*
X254856Y172372D03*
D30*
X256126Y173642D01*
X256126Y176624D01*
M02*
