G04 EAGLE Gerber RS-274X export*
G75*
%MOMM*%
%FSLAX34Y34*%
%LPD*%
%IN*%
%IPPOS*%
%AMOC8*
5,1,8,0,0,1.08239X$1,22.5*%
G01*
G04 Define Apertures*
%ADD10C,0.254000*%
D10*
X762000Y376324D02*
X762000Y385676D01*
X761771Y395025D01*
X761312Y404365D01*
X760624Y413691D01*
X759707Y422998D01*
X758562Y432279D01*
X757190Y441530D01*
X755591Y450743D01*
X753767Y459915D01*
X751718Y469040D01*
X749446Y478111D01*
X746952Y487124D01*
X744237Y496073D01*
X741304Y504953D01*
X738153Y513758D01*
X734787Y522483D01*
X731209Y531122D01*
X727419Y539672D01*
X723421Y548125D01*
X719216Y556478D01*
X714808Y564726D01*
X710198Y572863D01*
X705391Y580884D01*
X700388Y588784D01*
X695192Y596560D01*
X689807Y604206D01*
X684237Y611717D01*
X678483Y619089D01*
X672551Y626318D01*
X666442Y633399D01*
X660162Y640329D01*
X653714Y647101D01*
X647101Y653714D01*
X640329Y660162D01*
X633399Y666442D01*
X626318Y672551D01*
X619089Y678483D01*
X611717Y684237D01*
X604206Y689807D01*
X596560Y695192D01*
X588784Y700388D01*
X580884Y705391D01*
X572863Y710198D01*
X564726Y714808D01*
X556478Y719216D01*
X548125Y723421D01*
X539672Y727419D01*
X531122Y731209D01*
X522483Y734787D01*
X513758Y738153D01*
X504953Y741304D01*
X496073Y744237D01*
X487124Y746952D01*
X478111Y749446D01*
X469040Y751718D01*
X459915Y753767D01*
X450743Y755591D01*
X441530Y757190D01*
X432279Y758562D01*
X422998Y759707D01*
X413691Y760624D01*
X404365Y761312D01*
X395025Y761771D01*
X385676Y762000D01*
X376324Y762000D01*
X366975Y761771D01*
X357635Y761312D01*
X348309Y760624D01*
X339002Y759707D01*
X329721Y758562D01*
X320471Y757190D01*
X311257Y755591D01*
X302085Y753767D01*
X292960Y751718D01*
X283889Y749446D01*
X274876Y746952D01*
X265927Y744237D01*
X257047Y741304D01*
X248243Y738153D01*
X239518Y734787D01*
X230878Y731209D01*
X222328Y727419D01*
X213875Y723421D01*
X205522Y719216D01*
X197274Y714808D01*
X189137Y710198D01*
X181116Y705391D01*
X173216Y700388D01*
X165440Y695192D01*
X157794Y689807D01*
X150283Y684237D01*
X142911Y678483D01*
X135682Y672551D01*
X128601Y666442D01*
X121672Y660162D01*
X114899Y653714D01*
X108286Y647101D01*
X101838Y640329D01*
X95558Y633399D01*
X89449Y626318D01*
X83517Y619089D01*
X77763Y611717D01*
X72193Y604206D01*
X66808Y596560D01*
X61612Y588784D01*
X56609Y580884D01*
X51802Y572863D01*
X47192Y564726D01*
X42784Y556478D01*
X38579Y548125D01*
X34581Y539672D01*
X30791Y531122D01*
X27213Y522483D01*
X23847Y513758D01*
X20696Y504953D01*
X17763Y496073D01*
X15048Y487124D01*
X12554Y478111D01*
X10282Y469040D01*
X8233Y459915D01*
X6409Y450743D01*
X4810Y441530D01*
X3438Y432279D01*
X2293Y422998D01*
X1376Y413691D01*
X688Y404365D01*
X230Y395025D01*
X0Y385676D01*
X0Y376324D01*
X230Y366975D01*
X688Y357635D01*
X1376Y348309D01*
X2293Y339002D01*
X3438Y329721D01*
X4810Y320471D01*
X6409Y311257D01*
X8233Y302085D01*
X10282Y292960D01*
X12554Y283889D01*
X15048Y274876D01*
X17763Y265927D01*
X20696Y257047D01*
X23847Y248243D01*
X27213Y239518D01*
X30791Y230878D01*
X34581Y222328D01*
X38579Y213875D01*
X42784Y205522D01*
X47192Y197274D01*
X51802Y189137D01*
X56609Y181116D01*
X61612Y173216D01*
X66808Y165440D01*
X72193Y157794D01*
X77763Y150283D01*
X83517Y142911D01*
X89449Y135682D01*
X95558Y128601D01*
X101838Y121672D01*
X108286Y114899D01*
X114899Y108286D01*
X121672Y101838D01*
X128601Y95558D01*
X135682Y89449D01*
X142911Y83517D01*
X150283Y77763D01*
X157794Y72193D01*
X165440Y66808D01*
X173216Y61612D01*
X181116Y56609D01*
X189137Y51802D01*
X197274Y47192D01*
X205522Y42784D01*
X213875Y38579D01*
X222328Y34581D01*
X230878Y30791D01*
X239518Y27213D01*
X248243Y23847D01*
X257047Y20696D01*
X265927Y17763D01*
X274876Y15048D01*
X283889Y12554D01*
X292960Y10282D01*
X302085Y8233D01*
X311257Y6409D01*
X320471Y4810D01*
X329721Y3438D01*
X339002Y2293D01*
X348309Y1376D01*
X357635Y688D01*
X366975Y230D01*
X376324Y0D01*
X385676Y0D01*
X395025Y230D01*
X404365Y688D01*
X413691Y1376D01*
X422998Y2293D01*
X432279Y3438D01*
X441530Y4810D01*
X450743Y6409D01*
X459915Y8233D01*
X469040Y10282D01*
X478111Y12554D01*
X487124Y15048D01*
X496073Y17763D01*
X504953Y20696D01*
X513758Y23847D01*
X522483Y27213D01*
X531122Y30791D01*
X539672Y34581D01*
X548125Y38579D01*
X556478Y42784D01*
X564726Y47192D01*
X572863Y51802D01*
X580884Y56609D01*
X588784Y61612D01*
X596560Y66808D01*
X604206Y72193D01*
X611717Y77763D01*
X619089Y83517D01*
X626318Y89449D01*
X633399Y95558D01*
X640329Y101838D01*
X647101Y108286D01*
X653714Y114899D01*
X660162Y121672D01*
X666442Y128601D01*
X672551Y135682D01*
X678483Y142911D01*
X684237Y150283D01*
X689807Y157794D01*
X695192Y165440D01*
X700388Y173216D01*
X705391Y181116D01*
X710198Y189137D01*
X714808Y197274D01*
X719216Y205522D01*
X723421Y213875D01*
X727419Y222328D01*
X731209Y230878D01*
X734787Y239518D01*
X738153Y248243D01*
X741304Y257047D01*
X744237Y265927D01*
X746952Y274876D01*
X749446Y283889D01*
X751718Y292960D01*
X753767Y302085D01*
X755591Y311257D01*
X757190Y320471D01*
X758562Y329721D01*
X759707Y339002D01*
X760624Y348309D01*
X761312Y357635D01*
X761771Y366975D01*
X762000Y376324D01*
X287020Y386080D02*
X476250Y386080D01*
X476250Y453390D01*
X287020Y453390D01*
X287020Y386080D01*
X285750Y533400D02*
X476250Y533400D01*
X476250Y628650D01*
X475888Y636952D01*
X474803Y645190D01*
X473004Y653303D01*
X470506Y661227D01*
X467326Y668904D01*
X463489Y676275D01*
X459024Y683283D01*
X453966Y689876D01*
X448352Y696002D01*
X442226Y701616D01*
X435633Y706674D01*
X428625Y711139D01*
X421254Y714976D01*
X413577Y718156D01*
X405653Y720654D01*
X397540Y722453D01*
X389302Y723538D01*
X381000Y723900D01*
X372698Y723538D01*
X364460Y722453D01*
X356348Y720654D01*
X348423Y718156D01*
X340746Y714976D01*
X333375Y711139D01*
X326367Y706674D01*
X319774Y701616D01*
X313648Y696002D01*
X308034Y689876D01*
X302976Y683283D01*
X298511Y676275D01*
X294674Y668904D01*
X291494Y661227D01*
X288996Y653303D01*
X287197Y645190D01*
X286112Y636952D01*
X285750Y628650D01*
X285750Y533400D01*
X334800Y58120D02*
X334811Y57859D01*
X334846Y57599D01*
X334902Y57344D01*
X334981Y57094D01*
X335081Y56852D01*
X335202Y56620D01*
X335343Y56399D01*
X335502Y56192D01*
X335679Y55999D01*
X335872Y55822D01*
X336079Y55663D01*
X336300Y55522D01*
X336532Y55401D01*
X336774Y55301D01*
X337024Y55222D01*
X337279Y55166D01*
X337539Y55131D01*
X337800Y55120D01*
X338061Y55131D01*
X338321Y55166D01*
X338576Y55222D01*
X338826Y55301D01*
X339068Y55401D01*
X339300Y55522D01*
X339521Y55663D01*
X339728Y55822D01*
X339921Y55999D01*
X340098Y56192D01*
X340257Y56399D01*
X340398Y56620D01*
X340519Y56852D01*
X340619Y57094D01*
X340698Y57344D01*
X340754Y57599D01*
X340789Y57859D01*
X340800Y58120D01*
X340800Y66120D01*
X340789Y66381D01*
X340754Y66641D01*
X340698Y66896D01*
X340619Y67146D01*
X340519Y67388D01*
X340398Y67620D01*
X340257Y67841D01*
X340098Y68048D01*
X339921Y68241D01*
X339728Y68418D01*
X339521Y68577D01*
X339300Y68718D01*
X339068Y68839D01*
X338826Y68939D01*
X338576Y69018D01*
X338321Y69074D01*
X338061Y69109D01*
X337800Y69120D01*
X337539Y69109D01*
X337279Y69074D01*
X337024Y69018D01*
X336774Y68939D01*
X336532Y68839D01*
X336300Y68718D01*
X336079Y68577D01*
X335872Y68418D01*
X335679Y68241D01*
X335502Y68048D01*
X335343Y67841D01*
X335202Y67620D01*
X335081Y67388D01*
X334981Y67146D01*
X334902Y66896D01*
X334846Y66641D01*
X334811Y66381D01*
X334800Y66120D01*
X334800Y58120D01*
X421200Y58120D02*
X421211Y57859D01*
X421246Y57599D01*
X421302Y57344D01*
X421381Y57094D01*
X421481Y56852D01*
X421602Y56620D01*
X421743Y56399D01*
X421902Y56192D01*
X422079Y55999D01*
X422272Y55822D01*
X422479Y55663D01*
X422700Y55522D01*
X422932Y55401D01*
X423174Y55301D01*
X423424Y55222D01*
X423679Y55166D01*
X423939Y55131D01*
X424200Y55120D01*
X424461Y55131D01*
X424721Y55166D01*
X424976Y55222D01*
X425226Y55301D01*
X425468Y55401D01*
X425700Y55522D01*
X425921Y55663D01*
X426128Y55822D01*
X426321Y55999D01*
X426498Y56192D01*
X426657Y56399D01*
X426798Y56620D01*
X426919Y56852D01*
X427019Y57094D01*
X427098Y57344D01*
X427154Y57599D01*
X427189Y57859D01*
X427200Y58120D01*
X427200Y66120D01*
X427189Y66381D01*
X427154Y66641D01*
X427098Y66896D01*
X427019Y67146D01*
X426919Y67388D01*
X426798Y67620D01*
X426657Y67841D01*
X426498Y68048D01*
X426321Y68241D01*
X426128Y68418D01*
X425921Y68577D01*
X425700Y68718D01*
X425468Y68839D01*
X425226Y68939D01*
X424976Y69018D01*
X424721Y69074D01*
X424461Y69109D01*
X424200Y69120D01*
X423939Y69109D01*
X423679Y69074D01*
X423424Y69018D01*
X423174Y68939D01*
X422932Y68839D01*
X422700Y68718D01*
X422479Y68577D01*
X422272Y68418D01*
X422079Y68241D01*
X421902Y68048D01*
X421743Y67841D01*
X421602Y67620D01*
X421481Y67388D01*
X421381Y67146D01*
X421302Y66896D01*
X421246Y66641D01*
X421211Y66381D01*
X421200Y66120D01*
X421200Y58120D01*
X421200Y16320D02*
X421211Y16059D01*
X421246Y15799D01*
X421302Y15544D01*
X421381Y15294D01*
X421481Y15052D01*
X421602Y14820D01*
X421743Y14599D01*
X421902Y14392D01*
X422079Y14199D01*
X422272Y14022D01*
X422479Y13863D01*
X422700Y13722D01*
X422932Y13601D01*
X423174Y13501D01*
X423424Y13422D01*
X423679Y13366D01*
X423939Y13331D01*
X424200Y13320D01*
X424461Y13331D01*
X424721Y13366D01*
X424976Y13422D01*
X425226Y13501D01*
X425468Y13601D01*
X425700Y13722D01*
X425921Y13863D01*
X426128Y14022D01*
X426321Y14199D01*
X426498Y14392D01*
X426657Y14599D01*
X426798Y14820D01*
X426919Y15052D01*
X427019Y15294D01*
X427098Y15544D01*
X427154Y15799D01*
X427189Y16059D01*
X427200Y16320D01*
X427200Y24320D01*
X427189Y24581D01*
X427154Y24841D01*
X427098Y25096D01*
X427019Y25346D01*
X426919Y25588D01*
X426798Y25820D01*
X426657Y26041D01*
X426498Y26248D01*
X426321Y26441D01*
X426128Y26618D01*
X425921Y26777D01*
X425700Y26918D01*
X425468Y27039D01*
X425226Y27139D01*
X424976Y27218D01*
X424721Y27274D01*
X424461Y27309D01*
X424200Y27320D01*
X423939Y27309D01*
X423679Y27274D01*
X423424Y27218D01*
X423174Y27139D01*
X422932Y27039D01*
X422700Y26918D01*
X422479Y26777D01*
X422272Y26618D01*
X422079Y26441D01*
X421902Y26248D01*
X421743Y26041D01*
X421602Y25820D01*
X421481Y25588D01*
X421381Y25346D01*
X421302Y25096D01*
X421246Y24841D01*
X421211Y24581D01*
X421200Y24320D01*
X421200Y16320D01*
X334800Y16320D02*
X334811Y16059D01*
X334846Y15799D01*
X334902Y15544D01*
X334981Y15294D01*
X335081Y15052D01*
X335202Y14820D01*
X335343Y14599D01*
X335502Y14392D01*
X335679Y14199D01*
X335872Y14022D01*
X336079Y13863D01*
X336300Y13722D01*
X336532Y13601D01*
X336774Y13501D01*
X337024Y13422D01*
X337279Y13366D01*
X337539Y13331D01*
X337800Y13320D01*
X338061Y13331D01*
X338321Y13366D01*
X338576Y13422D01*
X338826Y13501D01*
X339068Y13601D01*
X339300Y13722D01*
X339521Y13863D01*
X339728Y14022D01*
X339921Y14199D01*
X340098Y14392D01*
X340257Y14599D01*
X340398Y14820D01*
X340519Y15052D01*
X340619Y15294D01*
X340698Y15544D01*
X340754Y15799D01*
X340789Y16059D01*
X340800Y16320D01*
X340800Y24320D01*
X340789Y24581D01*
X340754Y24841D01*
X340698Y25096D01*
X340619Y25346D01*
X340519Y25588D01*
X340398Y25820D01*
X340257Y26041D01*
X340098Y26248D01*
X339921Y26441D01*
X339728Y26618D01*
X339521Y26777D01*
X339300Y26918D01*
X339068Y27039D01*
X338826Y27139D01*
X338576Y27218D01*
X338321Y27274D01*
X338061Y27309D01*
X337800Y27320D01*
X337539Y27309D01*
X337279Y27274D01*
X337024Y27218D01*
X336774Y27139D01*
X336532Y27039D01*
X336300Y26918D01*
X336079Y26777D01*
X335872Y26618D01*
X335679Y26441D01*
X335502Y26248D01*
X335343Y26041D01*
X335202Y25820D01*
X335081Y25588D01*
X334981Y25346D01*
X334902Y25096D01*
X334846Y24841D01*
X334811Y24581D01*
X334800Y24320D01*
X334800Y16320D01*
M02*
