G04 EAGLE Gerber RS-274X export*
G75*
%MOMM*%
%FSLAX34Y34*%
%LPD*%
%INSilkscreen Top*%
%IPPOS*%
%AMOC8*
5,1,8,0,0,1.08239X$1,22.5*%
G01*
G04 Define Apertures*
%ADD10C,0.304800*%
%ADD11C,0.200000*%
%ADD12C,0.152400*%
%ADD13C,0.127000*%
%ADD14C,0.100000*%
G36*
X643259Y574802D02*
X639721Y574828D01*
X638100Y574802D01*
X638264Y576600D01*
X638365Y577999D01*
X638471Y580048D01*
X638576Y582623D01*
X638636Y584487D01*
X638656Y585733D01*
X638656Y586757D01*
X640424Y586731D01*
X641254Y586741D01*
X642307Y586771D01*
X643437Y586800D01*
X644496Y586810D01*
X645065Y586801D01*
X645597Y586775D01*
X646093Y586731D01*
X646554Y586670D01*
X646988Y586581D01*
X647408Y586455D01*
X647814Y586292D01*
X648204Y586092D01*
X648572Y585856D01*
X648908Y585586D01*
X649213Y585282D01*
X649487Y584944D01*
X649730Y584575D01*
X649942Y584175D01*
X650124Y583745D01*
X650275Y583285D01*
X650394Y582806D01*
X650479Y582320D01*
X650529Y581827D01*
X650546Y581327D01*
X650533Y580837D01*
X650494Y580356D01*
X650428Y579884D01*
X650336Y579422D01*
X650221Y578976D01*
X650084Y578552D01*
X649927Y578150D01*
X649749Y577771D01*
X649553Y577416D01*
X649341Y577087D01*
X649113Y576783D01*
X648869Y576506D01*
X648608Y576250D01*
X648329Y576014D01*
X648032Y575797D01*
X647717Y575599D01*
X647233Y575349D01*
X646745Y575161D01*
X646477Y575086D01*
X646165Y575019D01*
X645807Y574959D01*
X645405Y574907D01*
X644916Y574861D01*
X644396Y574828D01*
X643843Y574809D01*
X643259Y574802D01*
G37*
%LPC*%
G36*
X642894Y577395D02*
X643328Y577404D01*
X643738Y577434D01*
X644125Y577483D01*
X644487Y577552D01*
X644826Y577653D01*
X645144Y577800D01*
X645441Y577991D01*
X645717Y578227D01*
X645964Y578503D01*
X646177Y578817D01*
X646356Y579167D01*
X646500Y579554D01*
X646611Y579961D01*
X646690Y580374D01*
X646738Y580791D01*
X646754Y581213D01*
X646730Y581714D01*
X646660Y582173D01*
X646542Y582592D01*
X646377Y582969D01*
X646173Y583299D01*
X645938Y583575D01*
X645672Y583796D01*
X645374Y583963D01*
X645033Y584086D01*
X644635Y584174D01*
X644181Y584226D01*
X643671Y584244D01*
X642983Y584231D01*
X642182Y584191D01*
X641887Y577438D01*
X642379Y577405D01*
X642894Y577395D01*
G37*
%LPD*%
G36*
X592455Y574802D02*
X590544Y574820D01*
X588493Y574802D01*
X588593Y575887D01*
X588677Y577057D01*
X588742Y578313D01*
X588791Y579654D01*
X584019Y579654D01*
X583872Y574802D01*
X581838Y574820D01*
X579962Y574802D01*
X580301Y579584D01*
X580457Y583070D01*
X580501Y584620D01*
X580518Y585917D01*
X580509Y586757D01*
X582570Y586740D01*
X584429Y586757D01*
X584334Y585537D01*
X584258Y584390D01*
X584200Y583317D01*
X584161Y582317D01*
X588928Y582317D01*
X588970Y583163D01*
X589010Y584261D01*
X589050Y585932D01*
X589032Y586757D01*
X591105Y586740D01*
X592942Y586757D01*
X592686Y582832D01*
X592600Y581303D01*
X592542Y580062D01*
X592504Y578910D01*
X592477Y577650D01*
X592455Y574802D01*
G37*
G36*
X539364Y574574D02*
X538771Y574586D01*
X538184Y574622D01*
X537602Y574683D01*
X537025Y574767D01*
X536467Y574878D01*
X535938Y575019D01*
X535440Y575189D01*
X534971Y575389D01*
X534537Y575623D01*
X534140Y575895D01*
X533781Y576205D01*
X533460Y576554D01*
X533175Y576939D01*
X532925Y577357D01*
X532709Y577810D01*
X532527Y578297D01*
X532384Y578805D01*
X532281Y579321D01*
X532220Y579847D01*
X532199Y580381D01*
X532213Y580822D01*
X532254Y581254D01*
X532323Y581679D01*
X532420Y582096D01*
X532545Y582504D01*
X532697Y582905D01*
X532876Y583298D01*
X533084Y583683D01*
X533317Y584054D01*
X533574Y584405D01*
X533856Y584737D01*
X534162Y585048D01*
X534492Y585340D01*
X534847Y585612D01*
X535225Y585864D01*
X535628Y586096D01*
X536058Y586305D01*
X536518Y586485D01*
X537009Y586638D01*
X537530Y586763D01*
X538081Y586860D01*
X538662Y586930D01*
X539274Y586971D01*
X539915Y586985D01*
X540401Y586978D01*
X540900Y586956D01*
X541412Y586920D01*
X541936Y586869D01*
X543024Y586724D01*
X544163Y586521D01*
X544170Y585863D01*
X544192Y585170D01*
X544277Y583674D01*
X543257Y583994D01*
X542834Y584099D01*
X542346Y584196D01*
X541838Y584275D01*
X541356Y584331D01*
X540913Y584364D01*
X540520Y584375D01*
X540044Y584358D01*
X539582Y584306D01*
X539134Y584220D01*
X538698Y584099D01*
X538284Y583943D01*
X537900Y583749D01*
X537546Y583518D01*
X537222Y583250D01*
X536933Y582949D01*
X536682Y582620D01*
X536471Y582263D01*
X536298Y581879D01*
X536164Y581475D01*
X536068Y581060D01*
X536011Y580634D01*
X535991Y580197D01*
X536013Y579759D01*
X536079Y579344D01*
X536189Y578955D01*
X536342Y578590D01*
X536436Y578419D01*
X536543Y578259D01*
X536662Y578109D01*
X536795Y577969D01*
X537099Y577722D01*
X537454Y577517D01*
X537846Y577356D01*
X538260Y577241D01*
X538696Y577172D01*
X539153Y577149D01*
X539552Y577164D01*
X539970Y577206D01*
X540406Y577277D01*
X540861Y577377D01*
X540961Y579278D01*
X540285Y579304D01*
X539355Y579295D01*
X539416Y580372D01*
X539442Y580876D01*
X539460Y581774D01*
X541746Y581756D01*
X544654Y581774D01*
X544539Y580324D01*
X544422Y578375D01*
X544327Y576446D01*
X544278Y575056D01*
X543357Y574897D01*
X542609Y574789D01*
X541881Y574710D01*
X541019Y574640D01*
X540141Y574591D01*
X539364Y574574D01*
G37*
G36*
X637170Y574802D02*
X635329Y574820D01*
X633163Y574802D01*
X632950Y575556D01*
X632693Y576374D01*
X632394Y577255D01*
X632053Y578200D01*
X627644Y578200D01*
X626869Y576580D01*
X626069Y574802D01*
X624070Y574820D01*
X621921Y574802D01*
X622649Y576063D01*
X627179Y584594D01*
X627661Y585549D01*
X628248Y586757D01*
X630499Y586740D01*
X632785Y586757D01*
X634063Y583105D01*
X636662Y576081D01*
X637170Y574802D01*
G37*
%LPC*%
G36*
X631423Y580749D02*
X630313Y584150D01*
X629779Y582981D01*
X629333Y582043D01*
X628703Y580749D01*
X631423Y580749D01*
G37*
%LPD*%
G36*
X609870Y574802D02*
X607927Y574820D01*
X605861Y574802D01*
X605353Y576492D01*
X605214Y576950D01*
X605098Y577289D01*
X604476Y579032D01*
X603572Y581511D01*
X604041Y581445D01*
X604501Y581423D01*
X604813Y581436D01*
X605111Y581472D01*
X605393Y581532D01*
X605661Y581616D01*
X605906Y581726D01*
X606119Y581861D01*
X606300Y582023D01*
X606450Y582212D01*
X606566Y582416D01*
X606650Y582626D01*
X606700Y582841D01*
X606717Y583061D01*
X606704Y583244D01*
X606666Y583415D01*
X606603Y583575D01*
X606515Y583723D01*
X606400Y583856D01*
X606256Y583971D01*
X606082Y584068D01*
X605880Y584147D01*
X605634Y584209D01*
X605330Y584252D01*
X604966Y584279D01*
X604545Y584288D01*
X603910Y584274D01*
X603143Y584252D01*
X603037Y582260D01*
X602945Y579873D01*
X602873Y577314D01*
X602832Y574802D01*
X600929Y574820D01*
X599097Y574802D01*
X599246Y576267D01*
X599360Y577578D01*
X599450Y578912D01*
X599527Y580443D01*
X599589Y582116D01*
X599633Y583880D01*
X599659Y585504D01*
X599668Y586757D01*
X601437Y586731D01*
X602214Y586741D01*
X603144Y586771D01*
X604138Y586800D01*
X605106Y586810D01*
X606166Y586788D01*
X606649Y586761D01*
X607103Y586722D01*
X607424Y586684D01*
X607730Y586628D01*
X608021Y586557D01*
X608298Y586468D01*
X608557Y586367D01*
X608794Y586255D01*
X609010Y586133D01*
X609204Y586000D01*
X609541Y585707D01*
X609687Y585549D01*
X609817Y585382D01*
X609933Y585204D01*
X610035Y585011D01*
X610123Y584803D01*
X610198Y584581D01*
X610258Y584347D01*
X610300Y584105D01*
X610325Y583854D01*
X610334Y583596D01*
X610325Y583307D01*
X610297Y583027D01*
X610250Y582757D01*
X610185Y582496D01*
X610100Y582244D01*
X609993Y581999D01*
X609866Y581762D01*
X609716Y581533D01*
X609546Y581315D01*
X609355Y581113D01*
X609143Y580925D01*
X608911Y580753D01*
X608643Y580588D01*
X608327Y580422D01*
X607962Y580253D01*
X607549Y580083D01*
X608004Y578971D01*
X608416Y578025D01*
X609589Y575459D01*
X609870Y574802D01*
G37*
G36*
X674526Y574802D02*
X672583Y574820D01*
X670517Y574802D01*
X670009Y576492D01*
X669871Y576950D01*
X669754Y577289D01*
X669132Y579032D01*
X668229Y581511D01*
X668697Y581445D01*
X669157Y581423D01*
X669469Y581436D01*
X669767Y581472D01*
X670050Y581532D01*
X670318Y581616D01*
X670562Y581726D01*
X670775Y581861D01*
X670956Y582023D01*
X671106Y582212D01*
X671223Y582416D01*
X671306Y582626D01*
X671356Y582841D01*
X671373Y583061D01*
X671360Y583244D01*
X671323Y583415D01*
X671260Y583575D01*
X671171Y583723D01*
X671056Y583856D01*
X670912Y583971D01*
X670739Y584068D01*
X670536Y584147D01*
X670290Y584209D01*
X669986Y584252D01*
X669623Y584279D01*
X669201Y584288D01*
X668566Y584274D01*
X667799Y584252D01*
X667694Y582260D01*
X667601Y579873D01*
X667529Y577314D01*
X667488Y574802D01*
X665586Y574820D01*
X663753Y574802D01*
X663902Y576267D01*
X664017Y577578D01*
X664107Y578912D01*
X664183Y580443D01*
X664245Y582116D01*
X664289Y583880D01*
X664315Y585504D01*
X664324Y586757D01*
X666093Y586731D01*
X666870Y586741D01*
X667801Y586771D01*
X668794Y586800D01*
X669762Y586810D01*
X670822Y586788D01*
X671306Y586761D01*
X671759Y586722D01*
X672080Y586684D01*
X672386Y586628D01*
X672677Y586557D01*
X672954Y586468D01*
X673213Y586367D01*
X673450Y586255D01*
X673666Y586133D01*
X673861Y586000D01*
X674198Y585707D01*
X674343Y585549D01*
X674473Y585382D01*
X674589Y585204D01*
X674691Y585011D01*
X674780Y584803D01*
X674854Y584581D01*
X674914Y584347D01*
X674956Y584105D01*
X674982Y583854D01*
X674990Y583596D01*
X674981Y583307D01*
X674953Y583027D01*
X674906Y582757D01*
X674841Y582496D01*
X674756Y582244D01*
X674650Y581999D01*
X674522Y581762D01*
X674373Y581533D01*
X674202Y581315D01*
X674011Y581113D01*
X673800Y580925D01*
X673567Y580753D01*
X673300Y580588D01*
X672983Y580422D01*
X672619Y580253D01*
X672205Y580083D01*
X672660Y578971D01*
X673072Y578025D01*
X674246Y575459D01*
X674526Y574802D01*
G37*
G36*
X621451Y574802D02*
X616765Y574820D01*
X612912Y574811D01*
X611668Y574802D01*
X611858Y576878D01*
X611988Y578586D01*
X612089Y580360D01*
X612190Y582637D01*
X612266Y584737D01*
X612291Y585987D01*
X612283Y586757D01*
X617283Y586740D01*
X622056Y586757D01*
X622038Y586469D01*
X621994Y585710D01*
X621942Y584758D01*
X621924Y584139D01*
X620370Y584191D01*
X619086Y584209D01*
X617383Y584204D01*
X616003Y584165D01*
X615897Y582150D01*
X617016Y582131D01*
X618306Y582124D01*
X620917Y582185D01*
X620832Y580957D01*
X620751Y579514D01*
X618422Y579532D01*
X617142Y579516D01*
X615717Y579470D01*
X615613Y577342D01*
X616620Y577342D01*
X618467Y577368D01*
X620279Y577412D01*
X621626Y577482D01*
X621530Y576164D01*
X621451Y574802D01*
G37*
G36*
X661733Y574802D02*
X657047Y574820D01*
X653193Y574811D01*
X651949Y574802D01*
X652139Y576878D01*
X652270Y578586D01*
X652371Y580360D01*
X652472Y582637D01*
X652547Y584737D01*
X652573Y585987D01*
X652564Y586757D01*
X657564Y586740D01*
X662337Y586757D01*
X662319Y586469D01*
X662276Y585710D01*
X662223Y584758D01*
X662205Y584139D01*
X660651Y584191D01*
X659368Y584209D01*
X657664Y584204D01*
X656285Y584165D01*
X656179Y582150D01*
X657298Y582131D01*
X658588Y582124D01*
X661198Y582185D01*
X661113Y580957D01*
X661032Y579514D01*
X658704Y579532D01*
X657423Y579516D01*
X655999Y579470D01*
X655895Y577342D01*
X656901Y577342D01*
X658748Y577368D01*
X660560Y577412D01*
X661908Y577482D01*
X661811Y576164D01*
X661733Y574802D01*
G37*
G36*
X572092Y574802D02*
X570348Y574820D01*
X568524Y574802D01*
X568698Y577044D01*
X568925Y581423D01*
X569020Y584524D01*
X569029Y585522D01*
X569020Y586757D01*
X570878Y586731D01*
X571677Y586741D01*
X572726Y586771D01*
X573811Y586800D01*
X574715Y586810D01*
X575264Y586801D01*
X575737Y586773D01*
X576134Y586726D01*
X576454Y586661D01*
X576730Y586576D01*
X576992Y586469D01*
X577240Y586342D01*
X577475Y586192D01*
X577693Y586026D01*
X577891Y585845D01*
X578070Y585651D01*
X578229Y585444D01*
X578368Y585222D01*
X578489Y584985D01*
X578592Y584733D01*
X578675Y584467D01*
X578741Y584192D01*
X578787Y583914D01*
X578815Y583634D01*
X578824Y583350D01*
X578815Y583060D01*
X578789Y582776D01*
X578744Y582498D01*
X578682Y582227D01*
X578602Y581962D01*
X578504Y581703D01*
X578388Y581451D01*
X578255Y581204D01*
X578105Y580969D01*
X577941Y580749D01*
X577763Y580544D01*
X577570Y580355D01*
X577362Y580181D01*
X577140Y580022D01*
X576903Y579879D01*
X576652Y579751D01*
X576390Y579638D01*
X576120Y579540D01*
X575841Y579457D01*
X575555Y579389D01*
X575261Y579337D01*
X574959Y579299D01*
X574649Y579276D01*
X574331Y579269D01*
X573821Y579295D01*
X573236Y579374D01*
X573136Y579875D01*
X572974Y580574D01*
X572798Y581268D01*
X572658Y581756D01*
X573052Y581697D01*
X573464Y581677D01*
X573678Y581684D01*
X573878Y581704D01*
X574064Y581737D01*
X574236Y581784D01*
X574394Y581843D01*
X574537Y581916D01*
X574667Y582003D01*
X574782Y582102D01*
X574972Y582326D01*
X575107Y582574D01*
X575155Y582707D01*
X575189Y582845D01*
X575209Y582990D01*
X575216Y583140D01*
X575210Y583285D01*
X575192Y583422D01*
X575119Y583670D01*
X575064Y583781D01*
X574995Y583881D01*
X574911Y583971D01*
X574813Y584051D01*
X574592Y584174D01*
X574349Y584244D01*
X574077Y584277D01*
X573771Y584288D01*
X573114Y584270D01*
X572378Y584217D01*
X572278Y582433D01*
X572205Y580460D01*
X572120Y577447D01*
X572092Y575941D01*
X572092Y574802D01*
G37*
G36*
X563295Y574802D02*
X561385Y574820D01*
X559458Y574802D01*
X559554Y575759D01*
X559668Y577211D01*
X559760Y578660D01*
X559791Y579610D01*
X555779Y586757D01*
X557958Y586740D01*
X559928Y586757D01*
X560340Y585798D01*
X560878Y584669D01*
X561422Y583521D01*
X561854Y582502D01*
X562762Y584084D01*
X563474Y585273D01*
X563999Y586141D01*
X564349Y586757D01*
X566489Y586740D01*
X568462Y586757D01*
X564617Y581091D01*
X563756Y579797D01*
X563541Y579453D01*
X563469Y579313D01*
X563461Y579225D01*
X563461Y579137D01*
X563452Y579050D01*
X563391Y577719D01*
X563336Y576328D01*
X563295Y574802D01*
G37*
G36*
X555667Y574802D02*
X551279Y574820D01*
X546339Y574802D01*
X546528Y576679D01*
X546656Y578174D01*
X546817Y580549D01*
X546933Y582908D01*
X547002Y585046D01*
X547025Y586757D01*
X549134Y586740D01*
X550920Y586757D01*
X550709Y583587D01*
X550445Y578629D01*
X550410Y577412D01*
X552373Y577386D01*
X554396Y577401D01*
X555860Y577447D01*
X555667Y574802D01*
G37*
G36*
X624108Y561666D02*
X623690Y561683D01*
X623286Y561734D01*
X622896Y561820D01*
X622518Y561939D01*
X622158Y562097D01*
X621821Y562298D01*
X621507Y562542D01*
X621215Y562829D01*
X620956Y563151D01*
X620739Y563502D01*
X620564Y563881D01*
X620431Y564289D01*
X620333Y564718D01*
X620263Y565162D01*
X620221Y565620D01*
X620207Y566092D01*
X620226Y566671D01*
X620284Y567244D01*
X620382Y567813D01*
X620518Y568376D01*
X620690Y568910D01*
X620892Y569393D01*
X621126Y569824D01*
X621390Y570204D01*
X621688Y570534D01*
X622022Y570819D01*
X622392Y571058D01*
X622798Y571251D01*
X623228Y571399D01*
X623670Y571505D01*
X624124Y571569D01*
X624591Y571590D01*
X624869Y571583D01*
X625141Y571563D01*
X625406Y571528D01*
X625663Y571480D01*
X625914Y571418D01*
X626158Y571342D01*
X626395Y571252D01*
X626626Y571149D01*
X626846Y571029D01*
X627054Y570889D01*
X627250Y570730D01*
X627433Y570551D01*
X627603Y570353D01*
X627761Y570135D01*
X627907Y569897D01*
X628040Y569640D01*
X628159Y569367D01*
X628262Y569082D01*
X628350Y568785D01*
X628421Y568476D01*
X628477Y568156D01*
X628516Y567823D01*
X628540Y567478D01*
X628548Y567122D01*
X628529Y566556D01*
X628470Y565992D01*
X628373Y565432D01*
X628236Y564874D01*
X628067Y564344D01*
X627869Y563869D01*
X627643Y563449D01*
X627389Y563084D01*
X627100Y562765D01*
X626768Y562484D01*
X626394Y562242D01*
X625978Y562037D01*
X625532Y561875D01*
X625072Y561759D01*
X624597Y561689D01*
X624108Y561666D01*
G37*
%LPC*%
G36*
X624220Y563725D02*
X624427Y563748D01*
X624629Y563816D01*
X624731Y563873D01*
X624834Y563953D01*
X625050Y564180D01*
X625157Y564332D01*
X625257Y564513D01*
X625351Y564724D01*
X625438Y564965D01*
X625584Y565487D01*
X625684Y566033D01*
X625741Y566594D01*
X625761Y567164D01*
X625740Y567721D01*
X625678Y568202D01*
X625632Y568414D01*
X625575Y568607D01*
X625509Y568781D01*
X625431Y568936D01*
X625345Y569072D01*
X625252Y569190D01*
X625152Y569290D01*
X625044Y569372D01*
X624930Y569435D01*
X624808Y569481D01*
X624678Y569508D01*
X624542Y569517D01*
X624382Y569505D01*
X624230Y569468D01*
X624088Y569407D01*
X623954Y569321D01*
X623804Y569191D01*
X623672Y569039D01*
X623556Y568865D01*
X623456Y568670D01*
X623351Y568412D01*
X623260Y568136D01*
X623183Y567841D01*
X623120Y567528D01*
X623065Y567166D01*
X623026Y566786D01*
X623002Y566388D01*
X622994Y565973D01*
X623003Y565618D01*
X623029Y565295D01*
X623073Y565003D01*
X623134Y564744D01*
X623213Y564514D01*
X623310Y564312D01*
X623425Y564138D01*
X623558Y563991D01*
X623706Y563875D01*
X623865Y563792D01*
X624037Y563742D01*
X624220Y563725D01*
G37*
%LPD*%
G36*
X568618Y561848D02*
X567064Y561862D01*
X565412Y561848D01*
X565005Y563200D01*
X564802Y563837D01*
X564304Y565231D01*
X563582Y567213D01*
X563957Y567160D01*
X564324Y567143D01*
X564574Y567152D01*
X564812Y567181D01*
X565038Y567230D01*
X565252Y567297D01*
X565448Y567384D01*
X565618Y567493D01*
X565763Y567623D01*
X565883Y567773D01*
X565976Y567936D01*
X566043Y568104D01*
X566083Y568276D01*
X566096Y568453D01*
X566086Y568599D01*
X566056Y568735D01*
X566006Y568863D01*
X565935Y568981D01*
X565843Y569088D01*
X565728Y569180D01*
X565589Y569258D01*
X565427Y569321D01*
X565231Y569370D01*
X564987Y569405D01*
X564697Y569426D01*
X564359Y569433D01*
X563851Y569423D01*
X563239Y569405D01*
X563154Y567812D01*
X563080Y565903D01*
X563023Y563856D01*
X562990Y561848D01*
X561468Y561862D01*
X560003Y561848D01*
X560122Y563019D01*
X560214Y564068D01*
X560286Y565135D01*
X560347Y566358D01*
X560396Y567697D01*
X560431Y569107D01*
X560459Y571408D01*
X561874Y571387D01*
X562495Y571395D01*
X563239Y571419D01*
X564034Y571442D01*
X564808Y571450D01*
X565655Y571433D01*
X566405Y571380D01*
X566661Y571349D01*
X566906Y571305D01*
X567139Y571248D01*
X567361Y571177D01*
X567757Y571006D01*
X568085Y570802D01*
X568355Y570569D01*
X568576Y570309D01*
X568750Y570012D01*
X568880Y569668D01*
X568928Y569481D01*
X568962Y569287D01*
X568982Y569087D01*
X568989Y568880D01*
X568981Y568649D01*
X568959Y568425D01*
X568922Y568209D01*
X568870Y568001D01*
X568802Y567799D01*
X568716Y567603D01*
X568614Y567414D01*
X568495Y567230D01*
X568359Y567056D01*
X568206Y566894D01*
X568037Y566745D01*
X567851Y566607D01*
X567637Y566475D01*
X567384Y566342D01*
X566762Y566071D01*
X567126Y565182D01*
X567455Y564425D01*
X568393Y562373D01*
X568618Y561848D01*
G37*
G36*
X642914Y561666D02*
X642602Y561673D01*
X642301Y561692D01*
X642010Y561726D01*
X641730Y561772D01*
X641460Y561831D01*
X641200Y561904D01*
X640950Y561990D01*
X640712Y562090D01*
X640486Y562200D01*
X640276Y562321D01*
X640082Y562452D01*
X639904Y562592D01*
X639742Y562742D01*
X639597Y562903D01*
X639467Y563072D01*
X639353Y563252D01*
X639167Y563631D01*
X639035Y564029D01*
X638989Y564235D01*
X638956Y564445D01*
X638936Y564661D01*
X638929Y564881D01*
X638936Y565142D01*
X638958Y565416D01*
X639045Y566001D01*
X639120Y566321D01*
X639230Y566669D01*
X639376Y567047D01*
X639556Y567455D01*
X639772Y567892D01*
X640025Y568362D01*
X640641Y569398D01*
X641337Y570450D01*
X641690Y570941D01*
X642046Y571408D01*
X645632Y571408D01*
X644220Y569748D01*
X643738Y569115D01*
X643286Y568463D01*
X642886Y567825D01*
X642559Y567234D01*
X642291Y566672D01*
X642066Y566120D01*
X641964Y565809D01*
X641895Y565518D01*
X641856Y565247D01*
X641843Y564993D01*
X641851Y564830D01*
X641876Y564671D01*
X641917Y564515D01*
X641975Y564362D01*
X642050Y564220D01*
X642141Y564093D01*
X642249Y563982D01*
X642373Y563886D01*
X642513Y563809D01*
X642665Y563755D01*
X642830Y563722D01*
X643009Y563711D01*
X643178Y563721D01*
X643338Y563752D01*
X643487Y563804D01*
X643627Y563876D01*
X643753Y563966D01*
X643861Y564072D01*
X643953Y564193D01*
X644028Y564331D01*
X644086Y564478D01*
X644128Y564629D01*
X644153Y564785D01*
X644161Y564944D01*
X644154Y565081D01*
X644135Y565208D01*
X644103Y565326D01*
X644058Y565434D01*
X643930Y565621D01*
X643751Y565770D01*
X643547Y565883D01*
X643342Y565964D01*
X643139Y566013D01*
X642935Y566029D01*
X642557Y565994D01*
X643159Y566996D01*
X643727Y567948D01*
X644082Y567996D01*
X644420Y568011D01*
X644812Y567992D01*
X645184Y567933D01*
X645536Y567834D01*
X645866Y567696D01*
X646167Y567517D01*
X646429Y567294D01*
X646652Y567028D01*
X646836Y566719D01*
X646980Y566379D01*
X647083Y566020D01*
X647145Y565642D01*
X647166Y565245D01*
X647156Y564978D01*
X647128Y564715D01*
X647081Y564458D01*
X647015Y564205D01*
X646932Y563959D01*
X646832Y563723D01*
X646716Y563497D01*
X646584Y563280D01*
X646436Y563074D01*
X646270Y562879D01*
X646087Y562696D01*
X645887Y562524D01*
X645675Y562367D01*
X645457Y562231D01*
X645231Y562113D01*
X644998Y562016D01*
X644510Y561863D01*
X643993Y561753D01*
X643457Y561688D01*
X642914Y561666D01*
G37*
G36*
X618392Y561848D02*
X614743Y561862D01*
X610856Y561848D01*
X610901Y562719D01*
X610947Y563828D01*
X611645Y564415D01*
X612285Y564984D01*
X613216Y565867D01*
X614036Y566694D01*
X614596Y567305D01*
X615058Y567864D01*
X615256Y568153D01*
X615373Y568389D01*
X615415Y568538D01*
X615429Y568690D01*
X615407Y568880D01*
X615338Y569044D01*
X615221Y569183D01*
X615051Y569300D01*
X614834Y569395D01*
X614575Y569468D01*
X614275Y569515D01*
X613937Y569531D01*
X613434Y569510D01*
X612904Y569447D01*
X612263Y569325D01*
X611423Y569125D01*
X611605Y570126D01*
X611682Y570566D01*
X611787Y571282D01*
X612694Y571417D01*
X613572Y571513D01*
X614420Y571571D01*
X615240Y571590D01*
X615604Y571582D01*
X615960Y571557D01*
X616308Y571515D01*
X616648Y571457D01*
X616975Y571379D01*
X617285Y571278D01*
X617578Y571153D01*
X617853Y571005D01*
X618102Y570840D01*
X618318Y570661D01*
X618501Y570468D01*
X618651Y570263D01*
X618767Y570047D01*
X618851Y569823D01*
X618901Y569590D01*
X618917Y569349D01*
X618898Y569029D01*
X618840Y568712D01*
X618730Y568384D01*
X618553Y568004D01*
X618255Y567504D01*
X617895Y567010D01*
X617268Y566262D01*
X616550Y565490D01*
X615748Y564702D01*
X614799Y563823D01*
X615569Y563816D01*
X616651Y563830D01*
X617776Y563858D01*
X618553Y563921D01*
X618486Y563081D01*
X618392Y561848D01*
G37*
G36*
X637079Y561848D02*
X633430Y561862D01*
X629543Y561848D01*
X629589Y562719D01*
X629634Y563828D01*
X630333Y564415D01*
X630972Y564984D01*
X631904Y565867D01*
X632723Y566694D01*
X633283Y567305D01*
X633746Y567864D01*
X633943Y568153D01*
X634061Y568389D01*
X634103Y568538D01*
X634117Y568690D01*
X634094Y568880D01*
X634026Y569044D01*
X633908Y569183D01*
X633739Y569300D01*
X633521Y569395D01*
X633262Y569468D01*
X632963Y569515D01*
X632625Y569531D01*
X632122Y569510D01*
X631592Y569447D01*
X630950Y569325D01*
X630111Y569125D01*
X630293Y570126D01*
X630370Y570566D01*
X630475Y571282D01*
X631381Y571417D01*
X632259Y571513D01*
X633108Y571571D01*
X633928Y571590D01*
X634291Y571582D01*
X634647Y571557D01*
X634995Y571515D01*
X635335Y571457D01*
X635663Y571379D01*
X635973Y571278D01*
X636265Y571153D01*
X636540Y571005D01*
X636790Y570840D01*
X637006Y570661D01*
X637189Y570468D01*
X637339Y570263D01*
X637455Y570047D01*
X637538Y569823D01*
X637588Y569590D01*
X637605Y569349D01*
X637585Y569029D01*
X637528Y568712D01*
X637417Y568384D01*
X637240Y568004D01*
X636943Y567504D01*
X636582Y567010D01*
X635955Y566262D01*
X635237Y565490D01*
X634435Y564702D01*
X633486Y563823D01*
X634257Y563816D01*
X635339Y563830D01*
X636463Y563858D01*
X637240Y563921D01*
X637174Y563081D01*
X637079Y561848D01*
G37*
G36*
X574093Y561666D02*
X573684Y561673D01*
X573292Y561695D01*
X572917Y561731D01*
X572559Y561781D01*
X572221Y561850D01*
X571906Y561941D01*
X571616Y562055D01*
X571351Y562191D01*
X571107Y562347D01*
X570884Y562520D01*
X570681Y562712D01*
X570500Y562922D01*
X570338Y563151D01*
X570198Y563400D01*
X570077Y563670D01*
X569978Y563961D01*
X569900Y564264D01*
X569844Y564572D01*
X569810Y564883D01*
X569799Y565200D01*
X569822Y565645D01*
X569889Y566086D01*
X570000Y566521D01*
X570156Y566952D01*
X570348Y567358D01*
X570565Y567716D01*
X570808Y568028D01*
X571077Y568292D01*
X571370Y568516D01*
X571684Y568705D01*
X572020Y568859D01*
X572377Y568978D01*
X572747Y569067D01*
X573121Y569130D01*
X573499Y569168D01*
X573882Y569181D01*
X574277Y569169D01*
X574662Y569135D01*
X575039Y569077D01*
X575406Y568995D01*
X575754Y568885D01*
X576075Y568741D01*
X576369Y568561D01*
X576635Y568348D01*
X576869Y568109D01*
X577067Y567855D01*
X577228Y567587D01*
X577353Y567304D01*
X577446Y567008D01*
X577513Y566700D01*
X577553Y566381D01*
X577566Y566050D01*
X577544Y565628D01*
X577475Y565161D01*
X574656Y565157D01*
X572566Y565154D01*
X572559Y564952D01*
X572567Y564769D01*
X572592Y564600D01*
X572635Y564443D01*
X572694Y564298D01*
X572769Y564165D01*
X572862Y564045D01*
X572972Y563938D01*
X573098Y563843D01*
X573383Y563687D01*
X573697Y563576D01*
X574041Y563509D01*
X574415Y563487D01*
X574654Y563494D01*
X574909Y563514D01*
X575469Y563595D01*
X576130Y563742D01*
X576929Y563963D01*
X576796Y563245D01*
X576579Y561932D01*
X575831Y561798D01*
X575213Y561718D01*
X574656Y561679D01*
X574093Y561666D01*
G37*
%LPC*%
G36*
X574933Y566225D02*
X574940Y566428D01*
X574932Y566604D01*
X574908Y566766D01*
X574867Y566916D01*
X574810Y567052D01*
X574739Y567173D01*
X574653Y567276D01*
X574553Y567362D01*
X574439Y567430D01*
X574315Y567482D01*
X574183Y567519D01*
X574043Y567542D01*
X573896Y567549D01*
X573690Y567532D01*
X573490Y567483D01*
X573304Y567400D01*
X573137Y567286D01*
X572992Y567147D01*
X572874Y566989D01*
X572783Y566823D01*
X572720Y566663D01*
X572622Y566225D01*
X574933Y566225D01*
G37*
%LPD*%
G36*
X583421Y561848D02*
X581965Y561862D01*
X580423Y561848D01*
X579680Y564145D01*
X578005Y568999D01*
X579491Y568985D01*
X580837Y568999D01*
X581014Y568334D01*
X581307Y567307D01*
X581675Y565985D01*
X582078Y564432D01*
X582260Y565014D01*
X582589Y565910D01*
X583701Y568999D01*
X585129Y568985D01*
X586571Y568999D01*
X585605Y566919D01*
X583806Y562787D01*
X583421Y561848D01*
G37*
G36*
X596552Y561848D02*
X595103Y561862D01*
X593450Y561848D01*
X593553Y563268D01*
X593680Y565357D01*
X593790Y567435D01*
X593840Y568824D01*
X593337Y568505D01*
X592274Y567759D01*
X592351Y569156D01*
X592386Y570337D01*
X593193Y570820D01*
X593745Y571174D01*
X594049Y571408D01*
X595486Y571394D01*
X597064Y571408D01*
X596924Y569846D01*
X596622Y564664D01*
X596552Y562758D01*
X596552Y561848D01*
G37*
G36*
X606619Y564593D02*
X604735Y564614D01*
X602858Y564593D01*
X602926Y565590D01*
X602963Y566541D01*
X603930Y566520D01*
X604840Y566513D01*
X605759Y566520D01*
X606724Y566541D01*
X606656Y565600D01*
X606619Y564593D01*
G37*
G36*
X126330Y570738D02*
X123501Y570759D01*
X122205Y570738D01*
X122336Y572176D01*
X122417Y573294D01*
X122501Y574933D01*
X122586Y576992D01*
X122633Y578482D01*
X122649Y579479D01*
X122649Y580298D01*
X124063Y580277D01*
X124727Y580285D01*
X125569Y580309D01*
X126472Y580332D01*
X127319Y580340D01*
X127774Y580333D01*
X128200Y580312D01*
X128597Y580277D01*
X128965Y580228D01*
X129312Y580157D01*
X129648Y580057D01*
X129972Y579926D01*
X130285Y579766D01*
X130578Y579577D01*
X130847Y579361D01*
X131091Y579118D01*
X131310Y578848D01*
X131505Y578553D01*
X131674Y578233D01*
X131820Y577889D01*
X131940Y577521D01*
X132035Y577138D01*
X132103Y576750D01*
X132144Y576356D01*
X132158Y575956D01*
X132147Y575564D01*
X132115Y575179D01*
X132063Y574802D01*
X131989Y574432D01*
X131897Y574076D01*
X131788Y573736D01*
X131662Y573415D01*
X131520Y573112D01*
X131363Y572828D01*
X131194Y572565D01*
X131011Y572322D01*
X130816Y572100D01*
X130608Y571896D01*
X130385Y571707D01*
X130147Y571534D01*
X129895Y571375D01*
X129508Y571176D01*
X129118Y571025D01*
X128904Y570965D01*
X128654Y570911D01*
X128046Y570822D01*
X127239Y570759D01*
X126330Y570738D01*
G37*
%LPC*%
G36*
X126038Y572811D02*
X126385Y572819D01*
X126714Y572843D01*
X127022Y572882D01*
X127312Y572937D01*
X127583Y573018D01*
X127838Y573135D01*
X128075Y573288D01*
X128295Y573476D01*
X128493Y573698D01*
X128664Y573948D01*
X128807Y574228D01*
X128922Y574538D01*
X129011Y574863D01*
X129074Y575193D01*
X129112Y575527D01*
X129125Y575865D01*
X129106Y576265D01*
X129050Y576633D01*
X128955Y576967D01*
X128824Y577269D01*
X128661Y577533D01*
X128473Y577753D01*
X128260Y577930D01*
X128022Y578064D01*
X127749Y578162D01*
X127431Y578232D01*
X127068Y578274D01*
X126660Y578288D01*
X126110Y578278D01*
X125469Y578246D01*
X125233Y572846D01*
X125627Y572820D01*
X126038Y572811D01*
G37*
%LPD*%
G36*
X138018Y601218D02*
X135188Y601239D01*
X133893Y601218D01*
X134023Y602656D01*
X134104Y603774D01*
X134189Y605413D01*
X134273Y607472D01*
X134321Y608962D01*
X134337Y609959D01*
X134337Y610778D01*
X135751Y610757D01*
X136414Y610765D01*
X137256Y610789D01*
X138160Y610812D01*
X139007Y610820D01*
X139461Y610813D01*
X139887Y610792D01*
X140284Y610757D01*
X140652Y610708D01*
X141000Y610637D01*
X141336Y610537D01*
X141660Y610406D01*
X141972Y610246D01*
X142266Y610057D01*
X142535Y609841D01*
X142779Y609598D01*
X142998Y609328D01*
X143192Y609033D01*
X143362Y608713D01*
X143507Y608369D01*
X143628Y608001D01*
X143723Y607618D01*
X143791Y607230D01*
X143831Y606836D01*
X143845Y606436D01*
X143835Y606044D01*
X143803Y605659D01*
X143750Y605282D01*
X143677Y604912D01*
X143585Y604556D01*
X143476Y604216D01*
X143350Y603895D01*
X143208Y603592D01*
X143051Y603308D01*
X142881Y603045D01*
X142699Y602802D01*
X142504Y602580D01*
X142295Y602376D01*
X142072Y602187D01*
X141835Y602014D01*
X141583Y601855D01*
X141196Y601656D01*
X140805Y601505D01*
X140591Y601445D01*
X140341Y601391D01*
X139734Y601302D01*
X138927Y601239D01*
X138018Y601218D01*
G37*
%LPC*%
G36*
X137726Y603291D02*
X138073Y603299D01*
X138401Y603323D01*
X138710Y603362D01*
X138999Y603417D01*
X139271Y603498D01*
X139525Y603615D01*
X139763Y603768D01*
X139983Y603956D01*
X140181Y604178D01*
X140351Y604428D01*
X140494Y604708D01*
X140609Y605018D01*
X140698Y605343D01*
X140762Y605673D01*
X140800Y606007D01*
X140812Y606345D01*
X140794Y606745D01*
X140737Y607113D01*
X140643Y607447D01*
X140511Y607749D01*
X140348Y608013D01*
X140160Y608233D01*
X139947Y608410D01*
X139709Y608544D01*
X139436Y608642D01*
X139118Y608712D01*
X138755Y608754D01*
X138347Y608768D01*
X137797Y608758D01*
X137156Y608726D01*
X136921Y603326D01*
X137314Y603300D01*
X137726Y603291D01*
G37*
%LPD*%
G36*
X132064Y601218D02*
X130361Y601232D01*
X128538Y601218D01*
X128000Y602213D01*
X126825Y604210D01*
X126267Y605170D01*
X125755Y606088D01*
X125428Y606683D01*
X125090Y607335D01*
X124939Y604014D01*
X124868Y601218D01*
X123546Y601232D01*
X122104Y601218D01*
X122244Y602689D01*
X122518Y607675D01*
X122595Y609686D01*
X122595Y610778D01*
X124517Y610764D01*
X126193Y610778D01*
X129183Y605341D01*
X129595Y604542D01*
X129675Y605956D01*
X129757Y607842D01*
X129819Y609638D01*
X129839Y610778D01*
X131218Y610764D01*
X132589Y610778D01*
X132421Y608691D01*
X132106Y602892D01*
X132064Y601218D01*
G37*
G36*
X116457Y601036D02*
X115983Y601046D01*
X115513Y601074D01*
X115048Y601123D01*
X114587Y601190D01*
X114140Y601279D01*
X113718Y601391D01*
X113319Y601527D01*
X112945Y601687D01*
X112597Y601874D01*
X112280Y602092D01*
X111993Y602340D01*
X111736Y602619D01*
X111509Y602926D01*
X111308Y603261D01*
X111136Y603623D01*
X110990Y604013D01*
X110876Y604419D01*
X110793Y604832D01*
X110744Y605252D01*
X110728Y605679D01*
X110739Y606032D01*
X110772Y606378D01*
X110827Y606717D01*
X110905Y607050D01*
X111004Y607377D01*
X111126Y607698D01*
X111269Y608012D01*
X111435Y608320D01*
X111622Y608617D01*
X111828Y608897D01*
X112053Y609162D01*
X112298Y609412D01*
X112562Y609645D01*
X112845Y609862D01*
X113148Y610064D01*
X113470Y610249D01*
X113814Y610416D01*
X114182Y610560D01*
X114574Y610683D01*
X114990Y610783D01*
X115431Y610860D01*
X115896Y610916D01*
X116385Y610949D01*
X116898Y610960D01*
X117686Y610937D01*
X118514Y610867D01*
X119384Y610751D01*
X120295Y610589D01*
X120318Y609509D01*
X120386Y608313D01*
X119570Y608568D01*
X119232Y608653D01*
X118842Y608730D01*
X118435Y608793D01*
X118050Y608838D01*
X117696Y608864D01*
X117381Y608873D01*
X117001Y608859D01*
X116632Y608818D01*
X116273Y608749D01*
X115925Y608653D01*
X115593Y608527D01*
X115286Y608372D01*
X115003Y608188D01*
X114744Y607973D01*
X114513Y607733D01*
X114313Y607470D01*
X114144Y607185D01*
X114006Y606877D01*
X113898Y606554D01*
X113822Y606222D01*
X113776Y605882D01*
X113760Y605532D01*
X113778Y605181D01*
X113830Y604850D01*
X113918Y604539D01*
X114041Y604247D01*
X114201Y603982D01*
X114403Y603751D01*
X114646Y603553D01*
X114930Y603389D01*
X115243Y603260D01*
X115574Y603169D01*
X115923Y603113D01*
X116289Y603095D01*
X116608Y603106D01*
X116942Y603141D01*
X117291Y603197D01*
X117655Y603277D01*
X117734Y604797D01*
X117194Y604818D01*
X116450Y604811D01*
X116499Y605672D01*
X116520Y606075D01*
X116534Y606793D01*
X118362Y606779D01*
X120687Y606793D01*
X120595Y605634D01*
X120502Y604076D01*
X120426Y602533D01*
X120387Y601421D01*
X119650Y601294D01*
X119052Y601208D01*
X118470Y601144D01*
X117781Y601088D01*
X117079Y601049D01*
X116457Y601036D01*
G37*
G36*
X144225Y570738D02*
X142752Y570752D01*
X141021Y570738D01*
X140850Y571341D01*
X140645Y571995D01*
X140406Y572700D01*
X140133Y573455D01*
X136607Y573455D01*
X135988Y572160D01*
X135347Y570738D01*
X133749Y570752D01*
X132031Y570738D01*
X132613Y571747D01*
X136236Y578568D01*
X136621Y579332D01*
X137091Y580298D01*
X138890Y580284D01*
X140718Y580298D01*
X141740Y577378D01*
X143819Y571761D01*
X144225Y570738D01*
G37*
%LPC*%
G36*
X139629Y575494D02*
X138741Y578213D01*
X137958Y576528D01*
X137454Y575494D01*
X139629Y575494D01*
G37*
%LPD*%
G36*
X121297Y555316D02*
X120524Y555336D01*
X119788Y555396D01*
X118995Y555509D01*
X118054Y555687D01*
X117963Y556964D01*
X117872Y557949D01*
X118634Y557720D01*
X119359Y557555D01*
X119707Y557498D01*
X120046Y557457D01*
X120375Y557432D01*
X120695Y557424D01*
X121065Y557444D01*
X121398Y557502D01*
X121693Y557599D01*
X121952Y557736D01*
X122162Y557905D01*
X122312Y558101D01*
X122364Y558209D01*
X122402Y558323D01*
X122424Y558445D01*
X122432Y558573D01*
X122424Y558696D01*
X122401Y558811D01*
X122363Y558918D01*
X122310Y559016D01*
X122241Y559105D01*
X122158Y559186D01*
X121945Y559322D01*
X121668Y559426D01*
X121322Y559501D01*
X120909Y559545D01*
X120429Y559560D01*
X119791Y559541D01*
X119210Y559483D01*
X119299Y560567D01*
X119371Y561633D01*
X119887Y561565D01*
X120429Y561542D01*
X121005Y561562D01*
X121254Y561587D01*
X121476Y561622D01*
X121671Y561672D01*
X121842Y561741D01*
X121988Y561829D01*
X122109Y561936D01*
X122204Y562056D01*
X122272Y562180D01*
X122313Y562308D01*
X122327Y562442D01*
X122316Y562561D01*
X122284Y562674D01*
X122230Y562781D01*
X122155Y562881D01*
X122058Y562972D01*
X121940Y563048D01*
X121801Y563110D01*
X121640Y563157D01*
X121255Y563217D01*
X120786Y563237D01*
X120330Y563225D01*
X119847Y563188D01*
X119261Y563108D01*
X118495Y562964D01*
X118846Y564594D01*
X118930Y565058D01*
X119674Y565138D01*
X120387Y565195D01*
X121068Y565229D01*
X121717Y565240D01*
X122127Y565233D01*
X122528Y565212D01*
X122921Y565177D01*
X123307Y565128D01*
X123675Y565061D01*
X124015Y564970D01*
X124328Y564856D01*
X124613Y564718D01*
X124867Y564558D01*
X125084Y564376D01*
X125266Y564172D01*
X125412Y563945D01*
X125524Y563699D01*
X125603Y563439D01*
X125651Y563163D01*
X125667Y562873D01*
X125644Y562523D01*
X125573Y562187D01*
X125453Y561869D01*
X125282Y561574D01*
X125069Y561307D01*
X124820Y561073D01*
X124557Y560877D01*
X124302Y560723D01*
X124007Y560581D01*
X123629Y560422D01*
X124022Y560329D01*
X124319Y560233D01*
X124569Y560113D01*
X124820Y559949D01*
X125053Y559748D01*
X125247Y559515D01*
X125399Y559251D01*
X125506Y558958D01*
X125569Y558639D01*
X125590Y558300D01*
X125570Y557959D01*
X125511Y557632D01*
X125411Y557319D01*
X125272Y557018D01*
X125093Y556736D01*
X124878Y556479D01*
X124624Y556248D01*
X124333Y556041D01*
X124012Y555860D01*
X123668Y555707D01*
X123301Y555582D01*
X122911Y555484D01*
X122510Y555410D01*
X122107Y555358D01*
X121703Y555326D01*
X121297Y555316D01*
G37*
G36*
X139110Y555316D02*
X138336Y555336D01*
X137600Y555396D01*
X136808Y555509D01*
X135867Y555687D01*
X135776Y556964D01*
X135685Y557949D01*
X136447Y557720D01*
X137171Y557555D01*
X137519Y557498D01*
X137858Y557457D01*
X138187Y557432D01*
X138507Y557424D01*
X138877Y557444D01*
X139210Y557502D01*
X139506Y557599D01*
X139764Y557736D01*
X139974Y557905D01*
X140124Y558101D01*
X140177Y558209D01*
X140214Y558323D01*
X140237Y558445D01*
X140244Y558573D01*
X140237Y558696D01*
X140214Y558811D01*
X140176Y558918D01*
X140122Y559016D01*
X140054Y559105D01*
X139970Y559186D01*
X139757Y559322D01*
X139480Y559426D01*
X139135Y559501D01*
X138722Y559545D01*
X138241Y559560D01*
X137604Y559541D01*
X137022Y559483D01*
X137112Y560567D01*
X137183Y561633D01*
X137700Y561565D01*
X138241Y561542D01*
X138818Y561562D01*
X139066Y561587D01*
X139288Y561622D01*
X139484Y561672D01*
X139655Y561741D01*
X139801Y561829D01*
X139922Y561936D01*
X140017Y562056D01*
X140085Y562180D01*
X140125Y562308D01*
X140139Y562442D01*
X140128Y562561D01*
X140096Y562674D01*
X140043Y562781D01*
X139967Y562881D01*
X139871Y562972D01*
X139753Y563048D01*
X139614Y563110D01*
X139453Y563157D01*
X139067Y563217D01*
X138598Y563237D01*
X138143Y563225D01*
X137660Y563188D01*
X137073Y563108D01*
X136308Y562964D01*
X136658Y564594D01*
X136742Y565058D01*
X137486Y565138D01*
X138199Y565195D01*
X138880Y565229D01*
X139530Y565240D01*
X139939Y565233D01*
X140340Y565212D01*
X140734Y565177D01*
X141120Y565128D01*
X141488Y565061D01*
X141828Y564970D01*
X142141Y564856D01*
X142426Y564718D01*
X142679Y564558D01*
X142897Y564376D01*
X143078Y564172D01*
X143224Y563945D01*
X143336Y563699D01*
X143416Y563439D01*
X143464Y563163D01*
X143480Y562873D01*
X143456Y562523D01*
X143385Y562187D01*
X143265Y561869D01*
X143095Y561574D01*
X142881Y561307D01*
X142632Y561073D01*
X142370Y560877D01*
X142114Y560723D01*
X141820Y560581D01*
X141442Y560422D01*
X141835Y560329D01*
X142132Y560233D01*
X142381Y560113D01*
X142632Y559949D01*
X142865Y559748D01*
X143060Y559515D01*
X143212Y559251D01*
X143319Y558958D01*
X143382Y558639D01*
X143403Y558300D01*
X143383Y557959D01*
X143323Y557632D01*
X143224Y557319D01*
X143084Y557018D01*
X142906Y556736D01*
X142690Y556479D01*
X142437Y556248D01*
X142146Y556041D01*
X141824Y555860D01*
X141480Y555707D01*
X141113Y555582D01*
X140724Y555484D01*
X140322Y555410D01*
X139919Y555358D01*
X139515Y555326D01*
X139110Y555316D01*
G37*
G36*
X132180Y585796D02*
X131623Y585814D01*
X131085Y585867D01*
X130567Y585955D01*
X130068Y586080D01*
X129590Y586244D01*
X129132Y586454D01*
X128693Y586710D01*
X128275Y587011D01*
X127896Y587349D01*
X127576Y587716D01*
X127313Y588111D01*
X127204Y588319D01*
X127109Y588534D01*
X126956Y588985D01*
X126847Y589462D01*
X126781Y589966D01*
X126759Y590495D01*
X126766Y590808D01*
X126789Y591113D01*
X126826Y591410D01*
X126877Y591699D01*
X126944Y591980D01*
X127025Y592253D01*
X127121Y592518D01*
X127232Y592775D01*
X127356Y593023D01*
X127494Y593260D01*
X127644Y593487D01*
X127808Y593703D01*
X127984Y593909D01*
X128173Y594104D01*
X128591Y594463D01*
X129044Y594777D01*
X129519Y595043D01*
X130016Y595260D01*
X130534Y595430D01*
X131067Y595557D01*
X131609Y595648D01*
X132160Y595702D01*
X132719Y595720D01*
X133268Y595704D01*
X133878Y595654D01*
X134550Y595571D01*
X135283Y595454D01*
X135297Y594866D01*
X135339Y594018D01*
X135388Y593220D01*
X134646Y593385D01*
X134060Y593486D01*
X133571Y593539D01*
X133118Y593556D01*
X132658Y593532D01*
X132220Y593462D01*
X131807Y593343D01*
X131417Y593178D01*
X131058Y592967D01*
X130741Y592714D01*
X130463Y592418D01*
X130226Y592078D01*
X130036Y591708D01*
X129900Y591318D01*
X129853Y591116D01*
X129819Y590910D01*
X129798Y590698D01*
X129792Y590481D01*
X129814Y590096D01*
X129883Y589740D01*
X129997Y589412D01*
X130156Y589112D01*
X130354Y588843D01*
X130584Y588606D01*
X130846Y588402D01*
X131140Y588230D01*
X131468Y588093D01*
X131832Y587996D01*
X132233Y587938D01*
X132670Y587918D01*
X133189Y587938D01*
X133752Y587999D01*
X134412Y588117D01*
X135220Y588310D01*
X135016Y587162D01*
X134917Y586508D01*
X134855Y586020D01*
X134126Y585922D01*
X133437Y585852D01*
X132788Y585810D01*
X132180Y585796D01*
G37*
G36*
X117034Y570556D02*
X116430Y570577D01*
X115751Y570638D01*
X114997Y570741D01*
X114170Y570885D01*
X114072Y572228D01*
X113959Y573273D01*
X114342Y573112D01*
X114702Y572977D01*
X115042Y572868D01*
X115359Y572787D01*
X115936Y572684D01*
X116195Y572659D01*
X116436Y572650D01*
X116726Y572661D01*
X116985Y572695D01*
X117212Y572750D01*
X117408Y572829D01*
X117566Y572929D01*
X117679Y573050D01*
X117747Y573193D01*
X117770Y573357D01*
X117761Y573474D01*
X117734Y573585D01*
X117684Y573701D01*
X117601Y573830D01*
X117482Y573973D01*
X117320Y574128D01*
X116001Y575276D01*
X115355Y575844D01*
X115024Y576189D01*
X114776Y576509D01*
X114597Y576820D01*
X114474Y577136D01*
X114403Y577464D01*
X114380Y577812D01*
X114389Y578024D01*
X114417Y578235D01*
X114464Y578443D01*
X114530Y578649D01*
X114615Y578850D01*
X114719Y579045D01*
X114841Y579234D01*
X114982Y579416D01*
X115145Y579588D01*
X115332Y579748D01*
X115544Y579896D01*
X115780Y580032D01*
X116033Y580151D01*
X116295Y580250D01*
X116566Y580328D01*
X116845Y580386D01*
X117421Y580457D01*
X118015Y580480D01*
X118620Y580463D01*
X119251Y580412D01*
X119908Y580327D01*
X120592Y580207D01*
X120641Y579321D01*
X120774Y577910D01*
X120158Y578130D01*
X119871Y578210D01*
X119598Y578271D01*
X119102Y578347D01*
X118680Y578372D01*
X118418Y578359D01*
X118180Y578321D01*
X117965Y578258D01*
X117773Y578169D01*
X117615Y578061D01*
X117503Y577941D01*
X117435Y577809D01*
X117412Y577665D01*
X117426Y577526D01*
X117468Y577392D01*
X117549Y577247D01*
X117678Y577080D01*
X117857Y576893D01*
X118085Y576688D01*
X118876Y576054D01*
X119380Y575655D01*
X119613Y575453D01*
X119864Y575213D01*
X120105Y574956D01*
X120312Y574702D01*
X120479Y574461D01*
X120603Y574240D01*
X120691Y574029D01*
X120753Y573816D01*
X120790Y573595D01*
X120802Y573357D01*
X120783Y573046D01*
X120727Y572742D01*
X120633Y572445D01*
X120501Y572156D01*
X120335Y571884D01*
X120137Y571636D01*
X119907Y571414D01*
X119647Y571218D01*
X119363Y571048D01*
X119066Y570905D01*
X118756Y570790D01*
X118431Y570703D01*
X118096Y570639D01*
X117751Y570593D01*
X117397Y570565D01*
X117034Y570556D01*
G37*
G36*
X121784Y585796D02*
X121180Y585817D01*
X120501Y585878D01*
X119747Y585981D01*
X118920Y586125D01*
X118822Y587468D01*
X118709Y588513D01*
X119092Y588352D01*
X119452Y588217D01*
X119792Y588108D01*
X120109Y588027D01*
X120686Y587924D01*
X120945Y587899D01*
X121186Y587890D01*
X121476Y587901D01*
X121735Y587935D01*
X121962Y587990D01*
X122158Y588069D01*
X122316Y588169D01*
X122429Y588290D01*
X122497Y588433D01*
X122520Y588597D01*
X122511Y588714D01*
X122484Y588825D01*
X122434Y588941D01*
X122351Y589070D01*
X122232Y589213D01*
X122070Y589368D01*
X120751Y590516D01*
X120105Y591084D01*
X119774Y591429D01*
X119526Y591749D01*
X119347Y592060D01*
X119224Y592376D01*
X119153Y592704D01*
X119130Y593052D01*
X119139Y593264D01*
X119167Y593475D01*
X119214Y593683D01*
X119280Y593889D01*
X119365Y594090D01*
X119469Y594285D01*
X119591Y594474D01*
X119732Y594656D01*
X119895Y594828D01*
X120082Y594988D01*
X120294Y595136D01*
X120530Y595272D01*
X120783Y595391D01*
X121045Y595490D01*
X121316Y595568D01*
X121595Y595626D01*
X122171Y595697D01*
X122765Y595720D01*
X123370Y595703D01*
X124001Y595652D01*
X124658Y595567D01*
X125342Y595447D01*
X125391Y594561D01*
X125524Y593150D01*
X124908Y593370D01*
X124621Y593450D01*
X124348Y593511D01*
X123852Y593587D01*
X123430Y593612D01*
X123168Y593599D01*
X122930Y593561D01*
X122715Y593498D01*
X122523Y593409D01*
X122365Y593301D01*
X122253Y593181D01*
X122185Y593049D01*
X122162Y592905D01*
X122176Y592766D01*
X122218Y592632D01*
X122299Y592487D01*
X122428Y592320D01*
X122607Y592133D01*
X122835Y591928D01*
X123626Y591294D01*
X124130Y590895D01*
X124363Y590693D01*
X124614Y590453D01*
X124855Y590196D01*
X125062Y589942D01*
X125229Y589701D01*
X125353Y589480D01*
X125441Y589269D01*
X125503Y589056D01*
X125540Y588835D01*
X125552Y588597D01*
X125533Y588286D01*
X125477Y587982D01*
X125383Y587685D01*
X125251Y587396D01*
X125085Y587124D01*
X124887Y586876D01*
X124657Y586654D01*
X124397Y586458D01*
X124113Y586288D01*
X123816Y586145D01*
X123506Y586030D01*
X123181Y585943D01*
X122846Y585879D01*
X122501Y585833D01*
X122147Y585805D01*
X121784Y585796D01*
G37*
G36*
X143955Y585978D02*
X140446Y585992D01*
X136496Y585978D01*
X136647Y587479D01*
X136749Y588674D01*
X136879Y590573D01*
X136971Y592460D01*
X137026Y594170D01*
X137045Y595538D01*
X138731Y595524D01*
X140159Y595538D01*
X139990Y593003D01*
X139779Y589039D01*
X139751Y588065D01*
X141321Y588044D01*
X142939Y588056D01*
X144109Y588093D01*
X143955Y585978D01*
G37*
G36*
X132002Y555498D02*
X130545Y555512D01*
X129004Y555498D01*
X128261Y557795D01*
X126586Y562649D01*
X128072Y562635D01*
X129418Y562649D01*
X129595Y561984D01*
X129887Y560957D01*
X130255Y559635D01*
X130658Y558082D01*
X130840Y558664D01*
X131169Y559560D01*
X132282Y562649D01*
X133710Y562635D01*
X135151Y562649D01*
X134185Y560569D01*
X132387Y556437D01*
X132002Y555498D01*
G37*
G36*
X441611Y75002D02*
X441193Y75019D01*
X440789Y75070D01*
X440398Y75156D01*
X440021Y75275D01*
X439661Y75433D01*
X439324Y75634D01*
X439009Y75878D01*
X438718Y76165D01*
X438459Y76487D01*
X438242Y76838D01*
X438067Y77217D01*
X437934Y77625D01*
X437835Y78054D01*
X437765Y78498D01*
X437723Y78956D01*
X437709Y79428D01*
X437729Y80007D01*
X437787Y80580D01*
X437885Y81149D01*
X438021Y81712D01*
X438192Y82246D01*
X438395Y82729D01*
X438628Y83160D01*
X438893Y83540D01*
X439191Y83870D01*
X439525Y84155D01*
X439895Y84394D01*
X440301Y84587D01*
X440731Y84735D01*
X441173Y84841D01*
X441627Y84905D01*
X442094Y84926D01*
X442372Y84919D01*
X442644Y84899D01*
X442908Y84864D01*
X443166Y84816D01*
X443417Y84754D01*
X443661Y84678D01*
X443898Y84588D01*
X444128Y84485D01*
X444349Y84365D01*
X444557Y84225D01*
X444752Y84066D01*
X444936Y83887D01*
X445106Y83689D01*
X445264Y83471D01*
X445410Y83233D01*
X445543Y82976D01*
X445662Y82703D01*
X445765Y82418D01*
X445853Y82121D01*
X445924Y81812D01*
X445980Y81492D01*
X446019Y81159D01*
X446043Y80814D01*
X446051Y80458D01*
X446031Y79892D01*
X445973Y79328D01*
X445876Y78768D01*
X445739Y78210D01*
X445569Y77680D01*
X445372Y77205D01*
X445146Y76785D01*
X444892Y76420D01*
X444603Y76101D01*
X444271Y75820D01*
X443897Y75578D01*
X443481Y75373D01*
X443035Y75211D01*
X442575Y75095D01*
X442100Y75025D01*
X441611Y75002D01*
G37*
%LPC*%
G36*
X441723Y77061D02*
X441930Y77084D01*
X442132Y77152D01*
X442233Y77209D01*
X442337Y77289D01*
X442553Y77516D01*
X442660Y77668D01*
X442760Y77849D01*
X442854Y78060D01*
X442941Y78301D01*
X443087Y78823D01*
X443186Y79369D01*
X443244Y79930D01*
X443263Y80500D01*
X443243Y81057D01*
X443181Y81538D01*
X443135Y81750D01*
X443078Y81943D01*
X443011Y82117D01*
X442934Y82272D01*
X442848Y82408D01*
X442755Y82526D01*
X442655Y82626D01*
X442547Y82708D01*
X442432Y82771D01*
X442310Y82817D01*
X442181Y82844D01*
X442045Y82853D01*
X441885Y82841D01*
X441733Y82804D01*
X441590Y82743D01*
X441456Y82657D01*
X441307Y82527D01*
X441175Y82375D01*
X441059Y82201D01*
X440959Y82006D01*
X440854Y81748D01*
X440763Y81472D01*
X440686Y81177D01*
X440623Y80864D01*
X440568Y80502D01*
X440528Y80122D01*
X440505Y79724D01*
X440497Y79309D01*
X440506Y78954D01*
X440532Y78631D01*
X440576Y78339D01*
X440637Y78080D01*
X440716Y77850D01*
X440813Y77648D01*
X440928Y77474D01*
X441061Y77327D01*
X441208Y77211D01*
X441368Y77128D01*
X441539Y77078D01*
X441723Y77061D01*
G37*
%LPD*%
G36*
X450954Y75002D02*
X450537Y75019D01*
X450133Y75070D01*
X449742Y75156D01*
X449364Y75275D01*
X449005Y75433D01*
X448668Y75634D01*
X448353Y75878D01*
X448062Y76165D01*
X447803Y76487D01*
X447585Y76838D01*
X447410Y77217D01*
X447277Y77625D01*
X447179Y78054D01*
X447109Y78498D01*
X447067Y78956D01*
X447053Y79428D01*
X447073Y80007D01*
X447131Y80580D01*
X447228Y81149D01*
X447365Y81712D01*
X447536Y82246D01*
X447739Y82729D01*
X447972Y83160D01*
X448237Y83540D01*
X448535Y83870D01*
X448869Y84155D01*
X449239Y84394D01*
X449645Y84587D01*
X450074Y84735D01*
X450517Y84841D01*
X450971Y84905D01*
X451438Y84926D01*
X451716Y84919D01*
X451988Y84899D01*
X452252Y84864D01*
X452510Y84816D01*
X452761Y84754D01*
X453005Y84678D01*
X453242Y84588D01*
X453472Y84485D01*
X453693Y84365D01*
X453901Y84225D01*
X454096Y84066D01*
X454279Y83887D01*
X454450Y83689D01*
X454608Y83471D01*
X454754Y83233D01*
X454887Y82976D01*
X455006Y82703D01*
X455109Y82418D01*
X455196Y82121D01*
X455268Y81812D01*
X455323Y81492D01*
X455363Y81159D01*
X455387Y80814D01*
X455395Y80458D01*
X455375Y79892D01*
X455317Y79328D01*
X455219Y78768D01*
X455083Y78210D01*
X454913Y77680D01*
X454715Y77205D01*
X454489Y76785D01*
X454236Y76420D01*
X453946Y76101D01*
X453615Y75820D01*
X453241Y75578D01*
X452824Y75373D01*
X452379Y75211D01*
X451919Y75095D01*
X451444Y75025D01*
X450954Y75002D01*
G37*
%LPC*%
G36*
X451066Y77061D02*
X451274Y77084D01*
X451476Y77152D01*
X451577Y77209D01*
X451681Y77289D01*
X451896Y77516D01*
X452003Y77668D01*
X452104Y77849D01*
X452198Y78060D01*
X452285Y78301D01*
X452430Y78823D01*
X452530Y79369D01*
X452588Y79930D01*
X452607Y80500D01*
X452587Y81057D01*
X452525Y81538D01*
X452479Y81750D01*
X452422Y81943D01*
X452355Y82117D01*
X452278Y82272D01*
X452192Y82408D01*
X452099Y82526D01*
X451999Y82626D01*
X451891Y82708D01*
X451776Y82771D01*
X451654Y82817D01*
X451525Y82844D01*
X451389Y82853D01*
X451228Y82841D01*
X451077Y82804D01*
X450934Y82743D01*
X450800Y82657D01*
X450651Y82527D01*
X450518Y82375D01*
X450402Y82201D01*
X450303Y82006D01*
X450198Y81748D01*
X450107Y81472D01*
X450030Y81177D01*
X449967Y80864D01*
X449912Y80502D01*
X449872Y80122D01*
X449849Y79724D01*
X449841Y79309D01*
X449849Y78954D01*
X449876Y78631D01*
X449919Y78339D01*
X449981Y78080D01*
X450060Y77850D01*
X450157Y77648D01*
X450272Y77474D01*
X450404Y77327D01*
X450552Y77211D01*
X450712Y77128D01*
X450883Y77078D01*
X451066Y77061D01*
G37*
%LPD*%
G36*
X464142Y75002D02*
X463725Y75019D01*
X463321Y75070D01*
X462930Y75156D01*
X462552Y75275D01*
X462192Y75433D01*
X461855Y75634D01*
X461541Y75878D01*
X461249Y76165D01*
X460990Y76487D01*
X460773Y76838D01*
X460598Y77217D01*
X460465Y77625D01*
X460367Y78054D01*
X460297Y78498D01*
X460255Y78956D01*
X460241Y79428D01*
X460260Y80007D01*
X460319Y80580D01*
X460416Y81149D01*
X460552Y81712D01*
X460724Y82246D01*
X460926Y82729D01*
X461160Y83160D01*
X461424Y83540D01*
X461722Y83870D01*
X462056Y84155D01*
X462426Y84394D01*
X462832Y84587D01*
X463262Y84735D01*
X463704Y84841D01*
X464158Y84905D01*
X464625Y84926D01*
X464903Y84919D01*
X465175Y84899D01*
X465440Y84864D01*
X465697Y84816D01*
X465948Y84754D01*
X466192Y84678D01*
X466429Y84588D01*
X466660Y84485D01*
X466880Y84365D01*
X467088Y84225D01*
X467284Y84066D01*
X467467Y83887D01*
X467637Y83689D01*
X467796Y83471D01*
X467941Y83233D01*
X468074Y82976D01*
X468193Y82703D01*
X468297Y82418D01*
X468384Y82121D01*
X468455Y81812D01*
X468511Y81492D01*
X468550Y81159D01*
X468574Y80814D01*
X468582Y80458D01*
X468563Y79892D01*
X468504Y79328D01*
X468407Y78768D01*
X468271Y78210D01*
X468101Y77680D01*
X467903Y77205D01*
X467677Y76785D01*
X467423Y76420D01*
X467134Y76101D01*
X466802Y75820D01*
X466428Y75578D01*
X466012Y75373D01*
X465567Y75211D01*
X465107Y75095D01*
X464632Y75025D01*
X464142Y75002D01*
G37*
%LPC*%
G36*
X464254Y77061D02*
X464461Y77084D01*
X464664Y77152D01*
X464765Y77209D01*
X464868Y77289D01*
X465084Y77516D01*
X465191Y77668D01*
X465291Y77849D01*
X465385Y78060D01*
X465472Y78301D01*
X465618Y78823D01*
X465718Y79369D01*
X465775Y79930D01*
X465795Y80500D01*
X465774Y81057D01*
X465712Y81538D01*
X465666Y81750D01*
X465610Y81943D01*
X465543Y82117D01*
X465465Y82272D01*
X465380Y82408D01*
X465286Y82526D01*
X465186Y82626D01*
X465079Y82708D01*
X464964Y82771D01*
X464842Y82817D01*
X464712Y82844D01*
X464576Y82853D01*
X464416Y82841D01*
X464264Y82804D01*
X464122Y82743D01*
X463988Y82657D01*
X463838Y82527D01*
X463706Y82375D01*
X463590Y82201D01*
X463490Y82006D01*
X463385Y81748D01*
X463294Y81472D01*
X463217Y81177D01*
X463154Y80864D01*
X463099Y80502D01*
X463060Y80122D01*
X463036Y79724D01*
X463028Y79309D01*
X463037Y78954D01*
X463063Y78631D01*
X463107Y78339D01*
X463168Y78080D01*
X463247Y77850D01*
X463344Y77648D01*
X463459Y77474D01*
X463592Y77327D01*
X463740Y77211D01*
X463899Y77128D01*
X464071Y77078D01*
X464254Y77061D01*
G37*
%LPD*%
G36*
X473486Y75002D02*
X473068Y75019D01*
X472664Y75070D01*
X472273Y75156D01*
X471896Y75275D01*
X471536Y75433D01*
X471199Y75634D01*
X470884Y75878D01*
X470593Y76165D01*
X470334Y76487D01*
X470117Y76838D01*
X469942Y77217D01*
X469809Y77625D01*
X469710Y78054D01*
X469640Y78498D01*
X469598Y78956D01*
X469584Y79428D01*
X469604Y80007D01*
X469662Y80580D01*
X469760Y81149D01*
X469896Y81712D01*
X470067Y82246D01*
X470270Y82729D01*
X470503Y83160D01*
X470768Y83540D01*
X471066Y83870D01*
X471400Y84155D01*
X471770Y84394D01*
X472176Y84587D01*
X472606Y84735D01*
X473048Y84841D01*
X473502Y84905D01*
X473969Y84926D01*
X474247Y84919D01*
X474519Y84899D01*
X474783Y84864D01*
X475041Y84816D01*
X475292Y84754D01*
X475536Y84678D01*
X475773Y84588D01*
X476003Y84485D01*
X476224Y84365D01*
X476432Y84225D01*
X476627Y84066D01*
X476811Y83887D01*
X476981Y83689D01*
X477139Y83471D01*
X477285Y83233D01*
X477418Y82976D01*
X477537Y82703D01*
X477640Y82418D01*
X477728Y82121D01*
X477799Y81812D01*
X477855Y81492D01*
X477894Y81159D01*
X477918Y80814D01*
X477926Y80458D01*
X477906Y79892D01*
X477848Y79328D01*
X477751Y78768D01*
X477614Y78210D01*
X477444Y77680D01*
X477247Y77205D01*
X477021Y76785D01*
X476767Y76420D01*
X476478Y76101D01*
X476146Y75820D01*
X475772Y75578D01*
X475356Y75373D01*
X474910Y75211D01*
X474450Y75095D01*
X473975Y75025D01*
X473486Y75002D01*
G37*
%LPC*%
G36*
X473598Y77061D02*
X473805Y77084D01*
X474007Y77152D01*
X474108Y77209D01*
X474212Y77289D01*
X474428Y77516D01*
X474535Y77668D01*
X474635Y77849D01*
X474729Y78060D01*
X474816Y78301D01*
X474962Y78823D01*
X475061Y79369D01*
X475119Y79930D01*
X475138Y80500D01*
X475118Y81057D01*
X475056Y81538D01*
X475010Y81750D01*
X474953Y81943D01*
X474886Y82117D01*
X474809Y82272D01*
X474723Y82408D01*
X474630Y82526D01*
X474530Y82626D01*
X474422Y82708D01*
X474307Y82771D01*
X474185Y82817D01*
X474056Y82844D01*
X473920Y82853D01*
X473760Y82841D01*
X473608Y82804D01*
X473465Y82743D01*
X473331Y82657D01*
X473182Y82527D01*
X473050Y82375D01*
X472934Y82201D01*
X472834Y82006D01*
X472729Y81748D01*
X472638Y81472D01*
X472561Y81177D01*
X472498Y80864D01*
X472443Y80502D01*
X472403Y80122D01*
X472380Y79724D01*
X472372Y79309D01*
X472381Y78954D01*
X472407Y78631D01*
X472451Y78339D01*
X472512Y78080D01*
X472591Y77850D01*
X472688Y77648D01*
X472803Y77474D01*
X472936Y77327D01*
X473083Y77211D01*
X473243Y77128D01*
X473414Y77078D01*
X473598Y77061D01*
G37*
%LPD*%
G36*
X505361Y75002D02*
X504943Y75019D01*
X504539Y75070D01*
X504148Y75156D01*
X503771Y75275D01*
X503411Y75433D01*
X503074Y75634D01*
X502759Y75878D01*
X502468Y76165D01*
X502209Y76487D01*
X501992Y76838D01*
X501817Y77217D01*
X501684Y77625D01*
X501585Y78054D01*
X501515Y78498D01*
X501473Y78956D01*
X501459Y79428D01*
X501479Y80007D01*
X501537Y80580D01*
X501635Y81149D01*
X501771Y81712D01*
X501942Y82246D01*
X502145Y82729D01*
X502378Y83160D01*
X502643Y83540D01*
X502941Y83870D01*
X503275Y84155D01*
X503645Y84394D01*
X504051Y84587D01*
X504481Y84735D01*
X504923Y84841D01*
X505377Y84905D01*
X505844Y84926D01*
X506122Y84919D01*
X506394Y84899D01*
X506658Y84864D01*
X506916Y84816D01*
X507167Y84754D01*
X507411Y84678D01*
X507648Y84588D01*
X507878Y84485D01*
X508099Y84365D01*
X508307Y84225D01*
X508502Y84066D01*
X508686Y83887D01*
X508856Y83689D01*
X509014Y83471D01*
X509160Y83233D01*
X509293Y82976D01*
X509412Y82703D01*
X509515Y82418D01*
X509603Y82121D01*
X509674Y81812D01*
X509730Y81492D01*
X509769Y81159D01*
X509793Y80814D01*
X509801Y80458D01*
X509781Y79892D01*
X509723Y79328D01*
X509626Y78768D01*
X509489Y78210D01*
X509319Y77680D01*
X509122Y77205D01*
X508896Y76785D01*
X508642Y76420D01*
X508353Y76101D01*
X508021Y75820D01*
X507647Y75578D01*
X507231Y75373D01*
X506785Y75211D01*
X506325Y75095D01*
X505850Y75025D01*
X505361Y75002D01*
G37*
%LPC*%
G36*
X505473Y77061D02*
X505680Y77084D01*
X505882Y77152D01*
X505983Y77209D01*
X506087Y77289D01*
X506303Y77516D01*
X506410Y77668D01*
X506510Y77849D01*
X506604Y78060D01*
X506691Y78301D01*
X506837Y78823D01*
X506936Y79369D01*
X506994Y79930D01*
X507013Y80500D01*
X506993Y81057D01*
X506931Y81538D01*
X506885Y81750D01*
X506828Y81943D01*
X506761Y82117D01*
X506684Y82272D01*
X506598Y82408D01*
X506505Y82526D01*
X506405Y82626D01*
X506297Y82708D01*
X506182Y82771D01*
X506060Y82817D01*
X505931Y82844D01*
X505795Y82853D01*
X505635Y82841D01*
X505483Y82804D01*
X505340Y82743D01*
X505206Y82657D01*
X505057Y82527D01*
X504925Y82375D01*
X504809Y82201D01*
X504709Y82006D01*
X504604Y81748D01*
X504513Y81472D01*
X504436Y81177D01*
X504373Y80864D01*
X504318Y80502D01*
X504278Y80122D01*
X504255Y79724D01*
X504247Y79309D01*
X504256Y78954D01*
X504282Y78631D01*
X504326Y78339D01*
X504387Y78080D01*
X504466Y77850D01*
X504563Y77648D01*
X504678Y77474D01*
X504811Y77327D01*
X504958Y77211D01*
X505118Y77128D01*
X505289Y77078D01*
X505473Y77061D01*
G37*
%LPD*%
G36*
X485665Y75184D02*
X484230Y75198D01*
X482703Y75184D01*
X482817Y76508D01*
X482889Y77621D01*
X482125Y77614D01*
X481550Y77614D01*
X478914Y77572D01*
X478935Y77789D01*
X478956Y78245D01*
X479012Y79575D01*
X479019Y79961D01*
X479788Y80928D01*
X480667Y82107D01*
X481580Y83409D01*
X482448Y84744D01*
X484390Y84730D01*
X486058Y84744D01*
X485953Y83276D01*
X485874Y81841D01*
X485823Y80595D01*
X485802Y79694D01*
X486592Y79680D01*
X487004Y79684D01*
X487277Y79701D01*
X487256Y78838D01*
X487249Y77929D01*
X487249Y77600D01*
X486729Y77621D01*
X486011Y77628D01*
X485724Y77621D01*
X485698Y77214D01*
X485680Y76672D01*
X485665Y75184D01*
G37*
%LPC*%
G36*
X483288Y79589D02*
X483438Y82750D01*
X482680Y81601D01*
X482251Y80991D01*
X481233Y79589D01*
X483288Y79589D01*
G37*
%LPD*%
G36*
X432386Y75002D02*
X432074Y75009D01*
X431773Y75028D01*
X431482Y75062D01*
X431201Y75108D01*
X430931Y75167D01*
X430671Y75240D01*
X430422Y75326D01*
X430183Y75426D01*
X429957Y75536D01*
X429748Y75657D01*
X429554Y75788D01*
X429376Y75928D01*
X429214Y76078D01*
X429068Y76239D01*
X428938Y76408D01*
X428824Y76588D01*
X428639Y76967D01*
X428507Y77365D01*
X428460Y77571D01*
X428427Y77781D01*
X428407Y77997D01*
X428401Y78217D01*
X428408Y78478D01*
X428430Y78752D01*
X428516Y79337D01*
X428592Y79657D01*
X428702Y80005D01*
X428847Y80383D01*
X429028Y80791D01*
X429244Y81228D01*
X429497Y81698D01*
X430113Y82734D01*
X430809Y83786D01*
X431162Y84277D01*
X431517Y84744D01*
X435103Y84744D01*
X433691Y83084D01*
X433210Y82451D01*
X432758Y81799D01*
X432358Y81161D01*
X432031Y80570D01*
X431763Y80008D01*
X431538Y79456D01*
X431436Y79145D01*
X431367Y78854D01*
X431327Y78583D01*
X431314Y78329D01*
X431323Y78166D01*
X431347Y78007D01*
X431389Y77851D01*
X431447Y77698D01*
X431522Y77556D01*
X431613Y77429D01*
X431721Y77318D01*
X431845Y77222D01*
X431984Y77145D01*
X432136Y77091D01*
X432302Y77058D01*
X432480Y77047D01*
X432650Y77057D01*
X432809Y77088D01*
X432959Y77140D01*
X433098Y77212D01*
X433224Y77302D01*
X433333Y77408D01*
X433425Y77529D01*
X433500Y77667D01*
X433558Y77814D01*
X433599Y77965D01*
X433624Y78121D01*
X433633Y78280D01*
X433626Y78417D01*
X433607Y78544D01*
X433575Y78662D01*
X433530Y78770D01*
X433402Y78957D01*
X433223Y79106D01*
X433018Y79219D01*
X432814Y79300D01*
X432610Y79349D01*
X432407Y79365D01*
X432029Y79330D01*
X432631Y80332D01*
X433198Y81284D01*
X433554Y81332D01*
X433892Y81347D01*
X434284Y81328D01*
X434656Y81269D01*
X435007Y81170D01*
X435338Y81032D01*
X435639Y80853D01*
X435901Y80630D01*
X436124Y80364D01*
X436308Y80055D01*
X436452Y79715D01*
X436555Y79356D01*
X436617Y78978D01*
X436637Y78581D01*
X436628Y78314D01*
X436599Y78051D01*
X436552Y77794D01*
X436487Y77541D01*
X436403Y77295D01*
X436304Y77059D01*
X436188Y76833D01*
X436056Y76616D01*
X435907Y76410D01*
X435742Y76215D01*
X435559Y76032D01*
X435359Y75860D01*
X435147Y75703D01*
X434928Y75567D01*
X434702Y75449D01*
X434469Y75352D01*
X433982Y75199D01*
X433464Y75089D01*
X432929Y75024D01*
X432386Y75002D01*
G37*
G36*
X492537Y75184D02*
X488860Y75184D01*
X489666Y76684D01*
X491171Y79495D01*
X492410Y81851D01*
X492831Y82685D01*
X491886Y82692D01*
X490359Y82669D01*
X488706Y82601D01*
X488766Y83601D01*
X488804Y84744D01*
X496333Y84744D01*
X496228Y82538D01*
X494554Y79320D01*
X493490Y77210D01*
X492537Y75184D01*
G37*
G36*
X516868Y75184D02*
X515418Y75198D01*
X513766Y75184D01*
X513868Y76604D01*
X513995Y78693D01*
X514105Y80771D01*
X514155Y82160D01*
X513652Y81841D01*
X512589Y81095D01*
X512666Y82492D01*
X512701Y83673D01*
X513508Y84156D01*
X514060Y84510D01*
X514364Y84744D01*
X515802Y84730D01*
X517380Y84744D01*
X517239Y83182D01*
X516938Y78000D01*
X516868Y76094D01*
X516868Y75184D01*
G37*
G36*
X459591Y77929D02*
X457707Y77950D01*
X455830Y77929D01*
X455898Y78926D01*
X455935Y79877D01*
X456901Y79856D01*
X457812Y79849D01*
X458731Y79856D01*
X459696Y79877D01*
X459627Y78936D01*
X459591Y77929D01*
G37*
G36*
X500809Y77929D02*
X498925Y77950D01*
X497048Y77929D01*
X497117Y78926D01*
X497153Y79877D01*
X498120Y79856D01*
X499030Y79849D01*
X499950Y79856D01*
X500914Y79877D01*
X500846Y78936D01*
X500809Y77929D01*
G37*
G36*
X162208Y314785D02*
X157263Y314785D01*
X157263Y315642D01*
X159274Y315642D01*
X159274Y321712D01*
X157493Y320441D01*
X157493Y321393D01*
X159358Y322675D01*
X160287Y322675D01*
X160287Y315642D01*
X162208Y315642D01*
X162208Y314785D01*
G37*
G36*
X153199Y314673D02*
X152955Y314681D01*
X152723Y314706D01*
X152504Y314746D01*
X152298Y314803D01*
X152105Y314875D01*
X151924Y314964D01*
X151757Y315070D01*
X151601Y315191D01*
X151459Y315329D01*
X151329Y315482D01*
X151212Y315652D01*
X151108Y315839D01*
X151017Y316041D01*
X150938Y316259D01*
X150872Y316494D01*
X150819Y316745D01*
X151866Y316919D01*
X151932Y316612D01*
X152030Y316340D01*
X152159Y316105D01*
X152320Y315905D01*
X152507Y315746D01*
X152717Y315632D01*
X152950Y315564D01*
X153204Y315541D01*
X153346Y315547D01*
X153480Y315566D01*
X153725Y315641D01*
X153939Y315766D01*
X154123Y315941D01*
X154270Y316165D01*
X154375Y316435D01*
X154438Y316752D01*
X154459Y317115D01*
X154459Y321802D01*
X152941Y321802D01*
X152941Y322675D01*
X155523Y322675D01*
X155523Y317137D01*
X155513Y316858D01*
X155484Y316594D01*
X155435Y316345D01*
X155367Y316112D01*
X155280Y315893D01*
X155173Y315691D01*
X155047Y315503D01*
X154901Y315331D01*
X154739Y315177D01*
X154562Y315043D01*
X154370Y314930D01*
X154165Y314838D01*
X153945Y314766D01*
X153710Y314714D01*
X153462Y314683D01*
X153199Y314673D01*
G37*
G36*
X175286Y652446D02*
X174334Y652446D01*
X174334Y654232D01*
X170615Y654232D01*
X170615Y655016D01*
X174227Y660336D01*
X175286Y660336D01*
X175286Y655028D01*
X176394Y655028D01*
X176394Y654232D01*
X175286Y654232D01*
X175286Y652446D01*
G37*
%LPC*%
G36*
X174334Y655028D02*
X174334Y659200D01*
X174177Y658903D01*
X173958Y658533D01*
X171937Y655554D01*
X171634Y655140D01*
X171545Y655028D01*
X174334Y655028D01*
G37*
%LPD*%
G36*
X167161Y652334D02*
X166917Y652342D01*
X166685Y652366D01*
X166467Y652407D01*
X166261Y652463D01*
X166067Y652536D01*
X165887Y652625D01*
X165719Y652731D01*
X165564Y652852D01*
X165421Y652990D01*
X165292Y653143D01*
X165175Y653313D01*
X165071Y653499D01*
X164979Y653702D01*
X164900Y653920D01*
X164834Y654155D01*
X164781Y654406D01*
X165828Y654580D01*
X165895Y654273D01*
X165992Y654001D01*
X166121Y653766D01*
X166282Y653566D01*
X166470Y653407D01*
X166680Y653293D01*
X166912Y653225D01*
X167167Y653202D01*
X167309Y653208D01*
X167443Y653227D01*
X167688Y653302D01*
X167902Y653427D01*
X168085Y653602D01*
X168232Y653826D01*
X168337Y654096D01*
X168400Y654412D01*
X168421Y654776D01*
X168421Y659463D01*
X166904Y659463D01*
X166904Y660336D01*
X169485Y660336D01*
X169485Y654798D01*
X169475Y654519D01*
X169446Y654255D01*
X169398Y654006D01*
X169330Y653772D01*
X169242Y653554D01*
X169136Y653352D01*
X169009Y653164D01*
X168864Y652992D01*
X168701Y652838D01*
X168524Y652704D01*
X168333Y652591D01*
X168127Y652498D01*
X167907Y652427D01*
X167673Y652375D01*
X167424Y652344D01*
X167161Y652334D01*
G37*
G36*
X377190Y250608D02*
X373499Y250608D01*
X373499Y260476D01*
X376762Y260476D01*
X377371Y260457D01*
X377945Y260398D01*
X378482Y260300D01*
X378983Y260162D01*
X379449Y259985D01*
X379879Y259769D01*
X380274Y259514D01*
X380632Y259219D01*
X380951Y258888D01*
X381228Y258524D01*
X381462Y258127D01*
X381654Y257697D01*
X381803Y257233D01*
X381909Y256737D01*
X381973Y256207D01*
X381994Y255644D01*
X381985Y255268D01*
X381957Y254904D01*
X381911Y254552D01*
X381845Y254212D01*
X381762Y253884D01*
X381659Y253568D01*
X381538Y253264D01*
X381399Y252972D01*
X381242Y252694D01*
X381070Y252433D01*
X380882Y252188D01*
X380679Y251961D01*
X380461Y251750D01*
X380226Y251555D01*
X379976Y251378D01*
X379711Y251217D01*
X379433Y251075D01*
X379144Y250951D01*
X378844Y250846D01*
X378534Y250760D01*
X378214Y250694D01*
X377883Y250646D01*
X377542Y250618D01*
X377190Y250608D01*
G37*
%LPC*%
G36*
X377036Y251680D02*
X377303Y251687D01*
X377562Y251709D01*
X377813Y251747D01*
X378055Y251799D01*
X378290Y251866D01*
X378516Y251947D01*
X378734Y252044D01*
X378944Y252156D01*
X379144Y252281D01*
X379332Y252420D01*
X379508Y252572D01*
X379672Y252737D01*
X379824Y252915D01*
X379964Y253107D01*
X380092Y253311D01*
X380208Y253529D01*
X380312Y253758D01*
X380401Y253997D01*
X380477Y254246D01*
X380539Y254506D01*
X380587Y254775D01*
X380622Y255055D01*
X380643Y255344D01*
X380649Y255644D01*
X380634Y256089D01*
X380587Y256507D01*
X380508Y256897D01*
X380398Y257261D01*
X380257Y257597D01*
X380084Y257906D01*
X379880Y258187D01*
X379644Y258442D01*
X379379Y258667D01*
X379086Y258863D01*
X378764Y259029D01*
X378414Y259164D01*
X378037Y259269D01*
X377631Y259345D01*
X377197Y259390D01*
X376734Y259405D01*
X374836Y259405D01*
X374836Y251680D01*
X377036Y251680D01*
G37*
%LPD*%
G36*
X398743Y250608D02*
X397405Y250608D01*
X397405Y260476D01*
X401558Y260476D01*
X401961Y260464D01*
X402341Y260428D01*
X402698Y260367D01*
X403031Y260282D01*
X403340Y260173D01*
X403626Y260039D01*
X403889Y259881D01*
X404129Y259699D01*
X404342Y259495D01*
X404527Y259270D01*
X404683Y259026D01*
X404811Y258762D01*
X404911Y258478D01*
X404982Y258174D01*
X405025Y257850D01*
X405039Y257507D01*
X405025Y257166D01*
X404982Y256842D01*
X404910Y256537D01*
X404811Y256250D01*
X404682Y255980D01*
X404525Y255729D01*
X404339Y255495D01*
X404125Y255280D01*
X403886Y255086D01*
X403627Y254918D01*
X403347Y254776D01*
X403047Y254660D01*
X402727Y254569D01*
X402386Y254505D01*
X402024Y254466D01*
X401642Y254453D01*
X398743Y254453D01*
X398743Y250608D01*
G37*
%LPC*%
G36*
X401453Y255511D02*
X401724Y255518D01*
X401978Y255542D01*
X402215Y255580D01*
X402434Y255635D01*
X402635Y255704D01*
X402819Y255789D01*
X402985Y255890D01*
X403134Y256006D01*
X403265Y256138D01*
X403379Y256285D01*
X403475Y256447D01*
X403554Y256626D01*
X403615Y256819D01*
X403659Y257028D01*
X403686Y257253D01*
X403694Y257493D01*
X403685Y257724D01*
X403658Y257941D01*
X403614Y258143D01*
X403551Y258329D01*
X403470Y258501D01*
X403371Y258658D01*
X403255Y258800D01*
X403120Y258927D01*
X402967Y259039D01*
X402797Y259136D01*
X402608Y259218D01*
X402402Y259285D01*
X402178Y259338D01*
X401935Y259375D01*
X401675Y259397D01*
X401397Y259405D01*
X398743Y259405D01*
X398743Y255511D01*
X401453Y255511D01*
G37*
%LPD*%
G36*
X391498Y250468D02*
X391059Y250478D01*
X390644Y250507D01*
X390252Y250556D01*
X389884Y250625D01*
X389540Y250713D01*
X389220Y250821D01*
X388923Y250948D01*
X388650Y251095D01*
X388400Y251261D01*
X388174Y251447D01*
X387972Y251653D01*
X387794Y251878D01*
X387639Y252123D01*
X387508Y252388D01*
X387401Y252672D01*
X387317Y252975D01*
X388613Y253234D01*
X388677Y253019D01*
X388756Y252819D01*
X388852Y252634D01*
X388963Y252463D01*
X389090Y252307D01*
X389233Y252166D01*
X389391Y252040D01*
X389565Y251928D01*
X389756Y251831D01*
X389962Y251746D01*
X390185Y251674D01*
X390425Y251616D01*
X390681Y251570D01*
X390953Y251538D01*
X391242Y251518D01*
X391547Y251511D01*
X391862Y251518D01*
X392158Y251539D01*
X392436Y251574D01*
X392695Y251623D01*
X392936Y251685D01*
X393158Y251762D01*
X393362Y251852D01*
X393547Y251956D01*
X393712Y252074D01*
X393855Y252205D01*
X393976Y252348D01*
X394075Y252505D01*
X394152Y252675D01*
X394207Y252858D01*
X394240Y253054D01*
X394251Y253262D01*
X394237Y253493D01*
X394196Y253700D01*
X394127Y253885D01*
X394030Y254047D01*
X393909Y254191D01*
X393765Y254322D01*
X393599Y254440D01*
X393410Y254544D01*
X392973Y254724D01*
X392458Y254873D01*
X391232Y255160D01*
X390683Y255290D01*
X390204Y255420D01*
X389795Y255549D01*
X389457Y255679D01*
X389170Y255812D01*
X388915Y255953D01*
X388692Y256101D01*
X388501Y256257D01*
X388336Y256423D01*
X388192Y256602D01*
X388068Y256796D01*
X387965Y257002D01*
X387884Y257224D01*
X387826Y257461D01*
X387791Y257714D01*
X387779Y257983D01*
X387795Y258291D01*
X387840Y258580D01*
X387916Y258852D01*
X388022Y259105D01*
X388158Y259341D01*
X388325Y259558D01*
X388522Y259756D01*
X388749Y259937D01*
X389005Y260098D01*
X389287Y260237D01*
X389595Y260355D01*
X389929Y260452D01*
X390289Y260527D01*
X390675Y260581D01*
X391088Y260613D01*
X391526Y260623D01*
X391934Y260615D01*
X392317Y260591D01*
X392676Y260551D01*
X393009Y260495D01*
X393318Y260422D01*
X393603Y260334D01*
X393862Y260229D01*
X394097Y260109D01*
X394311Y259969D01*
X394508Y259806D01*
X394689Y259621D01*
X394853Y259413D01*
X395001Y259182D01*
X395132Y258929D01*
X395246Y258653D01*
X395343Y258354D01*
X394027Y258123D01*
X393966Y258312D01*
X393894Y258488D01*
X393809Y258651D01*
X393712Y258800D01*
X393602Y258935D01*
X393480Y259057D01*
X393346Y259166D01*
X393200Y259261D01*
X393041Y259344D01*
X392866Y259416D01*
X392677Y259477D01*
X392474Y259526D01*
X392022Y259593D01*
X391512Y259615D01*
X391225Y259609D01*
X390956Y259590D01*
X390703Y259560D01*
X390469Y259517D01*
X390252Y259462D01*
X390052Y259394D01*
X389870Y259315D01*
X389705Y259223D01*
X389559Y259119D01*
X389433Y259002D01*
X389326Y258874D01*
X389238Y258734D01*
X389170Y258582D01*
X389121Y258418D01*
X389092Y258241D01*
X389082Y258053D01*
X389097Y257835D01*
X389142Y257637D01*
X389218Y257459D01*
X389324Y257300D01*
X389458Y257157D01*
X389619Y257025D01*
X389806Y256905D01*
X390021Y256796D01*
X390305Y256687D01*
X390702Y256566D01*
X391212Y256433D01*
X391835Y256288D01*
X392742Y256074D01*
X393184Y255955D01*
X393607Y255815D01*
X394007Y255652D01*
X394380Y255462D01*
X394717Y255236D01*
X395007Y254964D01*
X395133Y254811D01*
X395245Y254644D01*
X395341Y254464D01*
X395424Y254271D01*
X395490Y254063D01*
X395537Y253837D01*
X395565Y253593D01*
X395575Y253332D01*
X395558Y253001D01*
X395508Y252688D01*
X395424Y252395D01*
X395308Y252121D01*
X395157Y251866D01*
X394974Y251631D01*
X394757Y251414D01*
X394506Y251217D01*
X394226Y251042D01*
X393918Y250889D01*
X393583Y250761D01*
X393220Y250655D01*
X392831Y250573D01*
X392414Y250515D01*
X391970Y250480D01*
X391498Y250468D01*
G37*
G36*
X413068Y250608D02*
X406883Y250608D01*
X406883Y251680D01*
X409398Y251680D01*
X409398Y259272D01*
X407170Y257682D01*
X407170Y258872D01*
X409503Y260476D01*
X410665Y260476D01*
X410665Y251680D01*
X413068Y251680D01*
X413068Y250608D01*
G37*
G36*
X385327Y250608D02*
X383989Y250608D01*
X383989Y260476D01*
X385327Y260476D01*
X385327Y250608D01*
G37*
G36*
X301937Y194832D02*
X298022Y194832D01*
X298022Y195365D01*
X298135Y195603D01*
X298260Y195827D01*
X298396Y196036D01*
X298545Y196231D01*
X298861Y196589D01*
X299193Y196911D01*
X299866Y197476D01*
X300184Y197736D01*
X300469Y197996D01*
X300711Y198262D01*
X300903Y198541D01*
X300975Y198689D01*
X301027Y198846D01*
X301058Y199012D01*
X301069Y199188D01*
X301051Y199417D01*
X300997Y199620D01*
X300908Y199795D01*
X300783Y199943D01*
X300627Y200060D01*
X300442Y200144D01*
X300230Y200195D01*
X299990Y200211D01*
X299760Y200195D01*
X299550Y200146D01*
X299362Y200064D01*
X299195Y199949D01*
X299055Y199805D01*
X298947Y199634D01*
X298871Y199437D01*
X298828Y199213D01*
X298056Y199284D01*
X298084Y199457D01*
X298125Y199621D01*
X298180Y199775D01*
X298248Y199921D01*
X298330Y200057D01*
X298426Y200185D01*
X298658Y200413D01*
X298936Y200596D01*
X299088Y200669D01*
X299250Y200728D01*
X299421Y200774D01*
X299602Y200806D01*
X299791Y200826D01*
X299990Y200833D01*
X300207Y200826D01*
X300411Y200806D01*
X300602Y200773D01*
X300781Y200727D01*
X300946Y200668D01*
X301098Y200595D01*
X301238Y200510D01*
X301364Y200411D01*
X301477Y200300D01*
X301575Y200178D01*
X301657Y200045D01*
X301725Y199900D01*
X301777Y199745D01*
X301815Y199579D01*
X301837Y199401D01*
X301845Y199213D01*
X301835Y199041D01*
X301806Y198870D01*
X301756Y198699D01*
X301688Y198529D01*
X301599Y198359D01*
X301492Y198189D01*
X301220Y197849D01*
X300768Y197416D01*
X300032Y196796D01*
X299599Y196421D01*
X299264Y196085D01*
X299019Y195774D01*
X298926Y195622D01*
X298853Y195474D01*
X301937Y195474D01*
X301937Y194832D01*
G37*
G36*
X295361Y194832D02*
X294564Y194832D01*
X294564Y200090D01*
X292533Y200090D01*
X292533Y200744D01*
X297392Y200744D01*
X297392Y200090D01*
X295361Y200090D01*
X295361Y194832D01*
G37*
G36*
X306908Y205772D02*
X306107Y205772D01*
X306107Y211684D01*
X308889Y211684D01*
X309132Y211677D01*
X309360Y211656D01*
X309574Y211622D01*
X309774Y211573D01*
X309960Y211510D01*
X310131Y211433D01*
X310288Y211342D01*
X310431Y211238D01*
X310558Y211120D01*
X310669Y210992D01*
X310762Y210853D01*
X310839Y210703D01*
X310898Y210542D01*
X310941Y210370D01*
X310966Y210187D01*
X310975Y209993D01*
X310951Y209677D01*
X310879Y209387D01*
X310759Y209123D01*
X310591Y208886D01*
X310380Y208682D01*
X310208Y208569D01*
X310134Y208519D01*
X309851Y208399D01*
X309531Y208319D01*
X310246Y207235D01*
X311209Y205772D01*
X310286Y205772D01*
X308751Y208227D01*
X306908Y208227D01*
X306908Y205772D01*
G37*
%LPC*%
G36*
X308843Y208860D02*
X309142Y208879D01*
X309405Y208934D01*
X309632Y209027D01*
X309823Y209156D01*
X309974Y209319D01*
X310082Y209511D01*
X310147Y209733D01*
X310169Y209985D01*
X310147Y210228D01*
X310081Y210440D01*
X309972Y210621D01*
X309818Y210772D01*
X309624Y210890D01*
X309391Y210975D01*
X309119Y211025D01*
X308809Y211042D01*
X306908Y211042D01*
X306908Y208860D01*
X308843Y208860D01*
G37*
%LPD*%
G36*
X315968Y205772D02*
X312053Y205772D01*
X312053Y206305D01*
X312166Y206543D01*
X312291Y206767D01*
X312427Y206976D01*
X312575Y207171D01*
X312892Y207529D01*
X313224Y207851D01*
X313897Y208416D01*
X314215Y208676D01*
X314499Y208936D01*
X314742Y209202D01*
X314934Y209481D01*
X315006Y209629D01*
X315058Y209786D01*
X315089Y209952D01*
X315099Y210128D01*
X315082Y210357D01*
X315028Y210560D01*
X314939Y210735D01*
X314814Y210883D01*
X314657Y211000D01*
X314473Y211084D01*
X314261Y211135D01*
X314021Y211151D01*
X313790Y211135D01*
X313581Y211086D01*
X313393Y211004D01*
X313226Y210889D01*
X313086Y210745D01*
X312978Y210574D01*
X312902Y210377D01*
X312859Y210153D01*
X312087Y210224D01*
X312114Y210397D01*
X312156Y210561D01*
X312211Y210715D01*
X312279Y210861D01*
X312361Y210997D01*
X312457Y211125D01*
X312689Y211353D01*
X312966Y211536D01*
X313119Y211609D01*
X313281Y211668D01*
X313452Y211714D01*
X313632Y211746D01*
X313822Y211766D01*
X314021Y211773D01*
X314238Y211766D01*
X314442Y211746D01*
X314633Y211713D01*
X314811Y211667D01*
X314977Y211608D01*
X315129Y211535D01*
X315269Y211450D01*
X315395Y211351D01*
X315508Y211240D01*
X315605Y211118D01*
X315688Y210985D01*
X315756Y210840D01*
X315808Y210685D01*
X315846Y210519D01*
X315868Y210341D01*
X315876Y210153D01*
X315866Y209981D01*
X315836Y209810D01*
X315787Y209639D01*
X315718Y209469D01*
X315630Y209299D01*
X315523Y209129D01*
X315250Y208789D01*
X314798Y208356D01*
X314063Y207736D01*
X313630Y207361D01*
X313295Y207025D01*
X313050Y206714D01*
X312957Y206562D01*
X312884Y206414D01*
X315968Y206414D01*
X315968Y205772D01*
G37*
G36*
X320749Y205772D02*
X316834Y205772D01*
X316834Y206305D01*
X316947Y206543D01*
X317072Y206767D01*
X317208Y206976D01*
X317357Y207171D01*
X317673Y207529D01*
X318005Y207851D01*
X318678Y208416D01*
X318996Y208676D01*
X319281Y208936D01*
X319523Y209202D01*
X319715Y209481D01*
X319787Y209629D01*
X319839Y209786D01*
X319870Y209952D01*
X319881Y210128D01*
X319863Y210357D01*
X319809Y210560D01*
X319720Y210735D01*
X319595Y210883D01*
X319439Y211000D01*
X319254Y211084D01*
X319042Y211135D01*
X318802Y211151D01*
X318572Y211135D01*
X318362Y211086D01*
X318174Y211004D01*
X318007Y210889D01*
X317867Y210745D01*
X317759Y210574D01*
X317683Y210377D01*
X317640Y210153D01*
X316868Y210224D01*
X316896Y210397D01*
X316937Y210561D01*
X316992Y210715D01*
X317060Y210861D01*
X317142Y210997D01*
X317238Y211125D01*
X317470Y211353D01*
X317748Y211536D01*
X317900Y211609D01*
X318062Y211668D01*
X318233Y211714D01*
X318414Y211746D01*
X318603Y211766D01*
X318802Y211773D01*
X319019Y211766D01*
X319223Y211746D01*
X319414Y211713D01*
X319593Y211667D01*
X319758Y211608D01*
X319910Y211535D01*
X320050Y211450D01*
X320176Y211351D01*
X320289Y211240D01*
X320387Y211118D01*
X320469Y210985D01*
X320537Y210840D01*
X320589Y210685D01*
X320627Y210519D01*
X320649Y210341D01*
X320657Y210153D01*
X320647Y209981D01*
X320618Y209810D01*
X320568Y209639D01*
X320500Y209469D01*
X320411Y209299D01*
X320304Y209129D01*
X320032Y208789D01*
X319580Y208356D01*
X318844Y207736D01*
X318411Y207361D01*
X318076Y207025D01*
X317831Y206714D01*
X317738Y206562D01*
X317665Y206414D01*
X320749Y206414D01*
X320749Y205772D01*
G37*
G36*
X304622Y148622D02*
X303821Y148622D01*
X303821Y154534D01*
X306603Y154534D01*
X306846Y154527D01*
X307074Y154506D01*
X307288Y154472D01*
X307488Y154423D01*
X307674Y154360D01*
X307845Y154283D01*
X308002Y154192D01*
X308145Y154088D01*
X308272Y153970D01*
X308383Y153842D01*
X308476Y153703D01*
X308553Y153553D01*
X308612Y153392D01*
X308655Y153220D01*
X308680Y153037D01*
X308689Y152843D01*
X308665Y152527D01*
X308593Y152237D01*
X308473Y151973D01*
X308305Y151736D01*
X308094Y151532D01*
X307922Y151419D01*
X307848Y151369D01*
X307565Y151249D01*
X307245Y151169D01*
X307960Y150085D01*
X308923Y148622D01*
X308000Y148622D01*
X306465Y151077D01*
X304622Y151077D01*
X304622Y148622D01*
G37*
%LPC*%
G36*
X306557Y151710D02*
X306856Y151729D01*
X307119Y151784D01*
X307346Y151877D01*
X307537Y152006D01*
X307688Y152169D01*
X307796Y152361D01*
X307861Y152583D01*
X307883Y152835D01*
X307861Y153078D01*
X307795Y153290D01*
X307686Y153471D01*
X307532Y153622D01*
X307338Y153740D01*
X307105Y153825D01*
X306833Y153875D01*
X306523Y153892D01*
X304622Y153892D01*
X304622Y151710D01*
X306557Y151710D01*
G37*
%LPD*%
G36*
X316512Y148538D02*
X316293Y148544D01*
X316086Y148563D01*
X315890Y148595D01*
X315705Y148639D01*
X315531Y148696D01*
X315369Y148766D01*
X315218Y148848D01*
X315079Y148943D01*
X314952Y149050D01*
X314839Y149170D01*
X314739Y149301D01*
X314653Y149445D01*
X314580Y149601D01*
X314521Y149769D01*
X314475Y149949D01*
X314443Y150141D01*
X315224Y150212D01*
X315277Y149966D01*
X315361Y149753D01*
X315476Y149573D01*
X315621Y149426D01*
X315798Y149311D01*
X316005Y149229D01*
X316243Y149180D01*
X316512Y149163D01*
X316782Y149181D01*
X317021Y149234D01*
X317230Y149321D01*
X317408Y149444D01*
X317550Y149602D01*
X317652Y149794D01*
X317713Y150020D01*
X317733Y150279D01*
X317710Y150508D01*
X317640Y150709D01*
X317524Y150884D01*
X317362Y151033D01*
X317155Y151151D01*
X316908Y151236D01*
X316619Y151286D01*
X316290Y151303D01*
X315862Y151303D01*
X315862Y151958D01*
X316273Y151958D01*
X316566Y151975D01*
X316824Y152026D01*
X317047Y152110D01*
X317236Y152229D01*
X317385Y152377D01*
X317492Y152551D01*
X317556Y152751D01*
X317578Y152978D01*
X317560Y153202D01*
X317508Y153402D01*
X317421Y153577D01*
X317299Y153727D01*
X317142Y153847D01*
X316952Y153933D01*
X316728Y153984D01*
X316470Y154001D01*
X316232Y153985D01*
X316018Y153937D01*
X315828Y153858D01*
X315662Y153746D01*
X315524Y153604D01*
X315418Y153437D01*
X315345Y153244D01*
X315304Y153024D01*
X314544Y153083D01*
X314572Y153259D01*
X314613Y153426D01*
X314668Y153582D01*
X314737Y153729D01*
X314819Y153865D01*
X314914Y153992D01*
X315023Y154109D01*
X315146Y154215D01*
X315424Y154394D01*
X315576Y154464D01*
X315738Y154521D01*
X315910Y154565D01*
X316090Y154597D01*
X316280Y154616D01*
X316478Y154623D01*
X316695Y154616D01*
X316898Y154597D01*
X317090Y154564D01*
X317269Y154519D01*
X317436Y154461D01*
X317590Y154390D01*
X317732Y154306D01*
X317861Y154209D01*
X317977Y154101D01*
X318077Y153982D01*
X318162Y153853D01*
X318231Y153715D01*
X318285Y153566D01*
X318323Y153406D01*
X318346Y153237D01*
X318354Y153057D01*
X318334Y152787D01*
X318275Y152544D01*
X318176Y152327D01*
X318037Y152136D01*
X317861Y151973D01*
X317649Y151839D01*
X317400Y151733D01*
X317116Y151656D01*
X317116Y151639D01*
X317429Y151584D01*
X317706Y151492D01*
X317946Y151362D01*
X318149Y151194D01*
X318310Y150995D01*
X318425Y150773D01*
X318495Y150525D01*
X318518Y150254D01*
X318510Y150056D01*
X318485Y149868D01*
X318445Y149693D01*
X318388Y149528D01*
X318315Y149376D01*
X318225Y149235D01*
X318119Y149105D01*
X317997Y148987D01*
X317860Y148882D01*
X317709Y148791D01*
X317545Y148713D01*
X317366Y148650D01*
X317173Y148601D01*
X316967Y148566D01*
X316746Y148545D01*
X316512Y148538D01*
G37*
G36*
X313682Y148622D02*
X309767Y148622D01*
X309767Y149155D01*
X309880Y149393D01*
X310005Y149617D01*
X310141Y149826D01*
X310289Y150021D01*
X310606Y150379D01*
X310938Y150701D01*
X311611Y151266D01*
X311929Y151526D01*
X312213Y151786D01*
X312456Y152052D01*
X312648Y152331D01*
X312720Y152479D01*
X312772Y152636D01*
X312803Y152802D01*
X312813Y152978D01*
X312796Y153207D01*
X312742Y153410D01*
X312653Y153585D01*
X312528Y153733D01*
X312371Y153850D01*
X312187Y153934D01*
X311975Y153985D01*
X311735Y154001D01*
X311504Y153985D01*
X311295Y153936D01*
X311107Y153854D01*
X310940Y153739D01*
X310800Y153595D01*
X310692Y153424D01*
X310616Y153227D01*
X310573Y153003D01*
X309801Y153074D01*
X309828Y153247D01*
X309870Y153411D01*
X309925Y153565D01*
X309993Y153711D01*
X310075Y153847D01*
X310171Y153975D01*
X310403Y154203D01*
X310680Y154386D01*
X310833Y154459D01*
X310995Y154518D01*
X311166Y154564D01*
X311346Y154596D01*
X311536Y154616D01*
X311735Y154623D01*
X311952Y154616D01*
X312156Y154596D01*
X312347Y154563D01*
X312525Y154517D01*
X312691Y154458D01*
X312843Y154385D01*
X312983Y154300D01*
X313109Y154201D01*
X313222Y154090D01*
X313319Y153968D01*
X313402Y153835D01*
X313470Y153690D01*
X313522Y153535D01*
X313560Y153369D01*
X313582Y153191D01*
X313590Y153003D01*
X313580Y152831D01*
X313550Y152660D01*
X313501Y152489D01*
X313432Y152319D01*
X313344Y152149D01*
X313237Y151979D01*
X312964Y151639D01*
X312512Y151206D01*
X311777Y150586D01*
X311344Y150211D01*
X311009Y149875D01*
X310764Y149564D01*
X310671Y149412D01*
X310598Y149264D01*
X313682Y149264D01*
X313682Y148622D01*
G37*
G36*
X76900Y532588D02*
X71780Y535544D01*
X73024Y537699D01*
X73151Y537904D01*
X73284Y538091D01*
X73422Y538257D01*
X73566Y538405D01*
X73715Y538533D01*
X73870Y538641D01*
X74031Y538730D01*
X74197Y538800D01*
X74367Y538849D01*
X74539Y538878D01*
X74713Y538886D01*
X74888Y538873D01*
X75065Y538840D01*
X75244Y538786D01*
X75425Y538711D01*
X75607Y538615D01*
X75780Y538506D01*
X75935Y538387D01*
X76072Y538258D01*
X76191Y538120D01*
X76293Y537973D01*
X76376Y537816D01*
X76442Y537650D01*
X76489Y537474D01*
X76518Y537292D01*
X76528Y537107D01*
X76518Y536920D01*
X76488Y536729D01*
X76439Y536536D01*
X76370Y536339D01*
X76282Y536140D01*
X76174Y535938D01*
X75306Y534434D01*
X77301Y533282D01*
X76900Y532588D01*
G37*
%LPC*%
G36*
X74757Y534750D02*
X75569Y536157D01*
X75710Y536439D01*
X75798Y536703D01*
X75833Y536949D01*
X75815Y537177D01*
X75744Y537388D01*
X75620Y537581D01*
X75442Y537756D01*
X75212Y537913D01*
X74969Y538029D01*
X74735Y538090D01*
X74511Y538095D01*
X74296Y538045D01*
X74091Y537940D01*
X73895Y537780D01*
X73708Y537565D01*
X73532Y537294D01*
X72736Y535917D01*
X74757Y534750D01*
G37*
%LPD*%
G36*
X79734Y537497D02*
X79178Y537818D01*
X79931Y539122D01*
X75992Y541397D01*
X76150Y539765D01*
X75532Y540121D01*
X75399Y541812D01*
X75747Y542415D01*
X80311Y539780D01*
X81031Y541027D01*
X81587Y540706D01*
X79734Y537497D01*
G37*
G36*
X73883Y528941D02*
X73546Y528989D01*
X73187Y529093D01*
X73466Y529838D01*
X73690Y529766D01*
X73903Y529727D01*
X74104Y529723D01*
X74294Y529752D01*
X74468Y529814D01*
X74620Y529908D01*
X74751Y530033D01*
X74862Y530190D01*
X74949Y530378D01*
X74992Y530566D01*
X74991Y530751D01*
X74946Y530936D01*
X74856Y531115D01*
X74720Y531284D01*
X74538Y531444D01*
X74310Y531594D01*
X71269Y533350D01*
X70700Y532365D01*
X70133Y532692D01*
X71101Y534368D01*
X74695Y532293D01*
X74872Y532182D01*
X75033Y532064D01*
X75176Y531939D01*
X75302Y531807D01*
X75411Y531669D01*
X75502Y531524D01*
X75577Y531372D01*
X75634Y531213D01*
X75673Y531049D01*
X75693Y530884D01*
X75695Y530718D01*
X75678Y530550D01*
X75642Y530380D01*
X75588Y530209D01*
X75515Y530036D01*
X75423Y529861D01*
X75326Y529706D01*
X75224Y529565D01*
X75001Y529325D01*
X74756Y529143D01*
X74488Y529019D01*
X74197Y528951D01*
X73883Y528941D01*
G37*
D10*
X39025Y646527D02*
X742773Y646527D01*
X743234Y644911D01*
X743253Y643535D01*
X743183Y641340D01*
X743061Y637993D01*
X742993Y635784D01*
X742927Y633164D01*
X742867Y630090D01*
X742818Y626522D01*
X742785Y622417D01*
X742773Y617735D01*
X742773Y-108669D01*
X739707Y-109059D01*
X737227Y-109075D01*
X735488Y-109053D01*
X733316Y-109016D01*
X730635Y-108968D01*
X727371Y-108913D01*
X723449Y-108855D01*
X718792Y-108799D01*
X713327Y-108748D01*
X706978Y-108707D01*
X699669Y-108679D01*
X691326Y-108669D01*
X-12422Y-108669D01*
X-12595Y-105621D01*
X-12422Y-102534D01*
X-12422Y646527D01*
X-9356Y646917D01*
X-6876Y646933D01*
X-5137Y646911D01*
X-2965Y646874D01*
X-284Y646826D01*
X2980Y646771D01*
X6903Y646713D01*
X11559Y646657D01*
X17024Y646606D01*
X23374Y646565D01*
X30683Y646537D01*
X39025Y646527D01*
X510469Y127408D02*
X510448Y126840D01*
X510469Y127408D02*
X510617Y128991D01*
X511029Y131451D01*
X511841Y134647D01*
X513188Y138441D01*
X515206Y142691D01*
X518031Y147259D01*
X521799Y152005D01*
X525128Y155362D01*
X529141Y158787D01*
X533440Y161879D01*
X537625Y164238D01*
X539221Y165149D01*
X540288Y166140D01*
X541220Y168446D01*
X541197Y171338D01*
X540996Y174998D01*
X541198Y178234D01*
X541195Y180748D01*
X540805Y181814D01*
X539988Y182793D01*
X538621Y183719D01*
X536578Y184622D01*
X534417Y185622D01*
X532659Y186832D01*
X530277Y189730D01*
X529290Y193019D01*
X529555Y196399D01*
X530930Y199573D01*
X533272Y202240D01*
X536437Y204102D01*
X540284Y204860D01*
X541111Y204882D01*
X542347Y204912D01*
X545893Y204990D01*
X550611Y205074D01*
X556188Y205145D01*
X568675Y205164D01*
X580856Y204886D01*
X584244Y203944D01*
X586974Y201771D01*
X588837Y198883D01*
X589622Y195790D01*
X589629Y193552D01*
X589386Y191673D01*
X588290Y188844D01*
X586606Y187010D01*
X584609Y185879D01*
X580763Y184562D01*
X579462Y183792D01*
X578938Y182558D01*
X578926Y181192D01*
X578938Y179167D01*
X579011Y174164D01*
X579106Y169589D01*
X579146Y168101D01*
X579173Y167486D01*
X579558Y166947D01*
X580485Y166239D01*
X581884Y165346D01*
X583687Y164254D01*
X588228Y161420D01*
X593551Y157623D01*
X599102Y152750D01*
X604328Y146688D01*
X606645Y143176D01*
X608673Y139325D01*
X610343Y135121D01*
X611584Y130548D01*
X612312Y126214D01*
X612645Y122049D01*
X612195Y114235D01*
X610384Y107122D01*
X607359Y100725D01*
X603268Y95061D01*
X598259Y90146D01*
X592479Y85995D01*
X586076Y82626D01*
X579197Y80053D01*
X571992Y78294D01*
X564607Y77363D01*
X557191Y77277D01*
X549890Y78052D01*
X542853Y79704D01*
X536228Y82249D01*
X530163Y85703D01*
X526052Y88779D01*
X522536Y91948D01*
X519572Y95175D01*
X517112Y98426D01*
X515112Y101667D01*
X513526Y104863D01*
X511415Y110985D01*
X510415Y116518D01*
X510163Y121188D01*
X510296Y124720D01*
X510448Y126840D01*
X385223Y297218D02*
X384392Y298688D01*
X383572Y301423D01*
X383123Y303389D01*
X382624Y305821D01*
X382058Y308766D01*
X381408Y312276D01*
X380656Y316399D01*
X379785Y321185D01*
X378778Y326683D01*
X377617Y332942D01*
X376285Y340014D01*
X374764Y347945D01*
X373037Y356787D01*
X371087Y366589D01*
X370771Y367912D01*
X370350Y368699D01*
X369670Y368872D01*
X368579Y368356D01*
X364674Y365864D01*
X361540Y364016D01*
X356504Y361475D01*
X351314Y359175D01*
X347987Y357627D01*
X343812Y355555D01*
X341314Y354315D01*
X339323Y353367D01*
X336294Y351816D01*
X333591Y349832D01*
X332007Y348344D01*
X330081Y346347D01*
X329855Y346105D01*
X329328Y345546D01*
X327624Y343757D01*
X323352Y339467D01*
X321781Y338094D01*
X321355Y337848D01*
X321251Y337988D01*
X321533Y338587D01*
X322262Y339713D01*
X323500Y341438D01*
X325310Y343832D01*
X326776Y345720D01*
X327897Y347130D01*
X328724Y348139D01*
X329309Y348825D01*
X329958Y349542D01*
X330257Y349903D01*
X333996Y355488D01*
X337335Y360414D01*
X340290Y364720D01*
X342879Y368449D01*
X345118Y371643D01*
X347024Y374344D01*
X348614Y376594D01*
X349903Y378435D01*
X350910Y379909D01*
X351651Y381057D01*
X352400Y382546D01*
X352284Y383237D01*
X351439Y383466D01*
X345247Y384042D01*
X339746Y384540D01*
X334805Y384976D01*
X330292Y385369D01*
X313896Y386842D01*
X304853Y387761D01*
X299660Y388326D01*
X293845Y388984D01*
X287275Y389753D01*
X279820Y390649D01*
X271349Y391689D01*
X261729Y392892D01*
X260040Y393243D01*
X259748Y393646D01*
X260500Y394070D01*
X261943Y394487D01*
X265486Y395185D01*
X266879Y395407D01*
X267548Y395505D01*
X273104Y396247D01*
X279216Y396985D01*
X292606Y398434D01*
X320545Y401105D01*
X327041Y401701D01*
X333092Y402259D01*
X338573Y402776D01*
X343358Y403248D01*
X347322Y403670D01*
X350340Y404037D01*
X352287Y404346D01*
X353038Y404593D01*
X352914Y405087D01*
X352338Y406090D01*
X351356Y407552D01*
X350013Y409424D01*
X348354Y411656D01*
X346423Y414199D01*
X341928Y420021D01*
X331660Y433225D01*
X326607Y439816D01*
X322088Y445874D01*
X321599Y446641D01*
X321430Y447156D01*
X321974Y447489D01*
X323569Y446995D01*
X326057Y445795D01*
X329286Y444010D01*
X333100Y441760D01*
X341868Y436354D01*
X351124Y430544D01*
X355549Y427791D01*
X359632Y425301D01*
X363220Y423194D01*
X366158Y421592D01*
X368290Y420615D01*
X369464Y420386D01*
X369587Y420642D01*
X369756Y421333D01*
X370223Y423908D01*
X370836Y427883D01*
X371570Y433028D01*
X372400Y439115D01*
X373299Y445915D01*
X375201Y460738D01*
X377069Y475667D01*
X377925Y482599D01*
X378694Y488871D01*
X379351Y494255D01*
X379870Y498521D01*
X380224Y501441D01*
X380332Y502324D01*
X380388Y502785D01*
X380729Y504487D01*
X381146Y504830D01*
X381639Y503911D01*
X382204Y501832D01*
X382841Y498689D01*
X383547Y494584D01*
X384322Y489614D01*
X385162Y483879D01*
X386067Y477478D01*
X387034Y470510D01*
X389150Y455268D01*
X394054Y422340D01*
X394417Y421003D01*
X395037Y420363D01*
X396031Y420387D01*
X397518Y421043D01*
X399613Y422298D01*
X402436Y424119D01*
X406103Y426474D01*
X410732Y429330D01*
X416378Y432739D01*
X421332Y435756D01*
X425639Y438403D01*
X429347Y440700D01*
X432502Y442670D01*
X435150Y444332D01*
X437338Y445709D01*
X439112Y446822D01*
X441603Y448339D01*
X442997Y449053D01*
X443663Y449135D01*
X443974Y448753D01*
X443714Y448187D01*
X442845Y446869D01*
X441449Y444902D01*
X439609Y442390D01*
X437406Y439437D01*
X434922Y436144D01*
X429441Y428957D01*
X423823Y421655D01*
X418723Y415065D01*
X416573Y412296D01*
X414799Y410014D01*
X413483Y408324D01*
X412707Y407329D01*
X411645Y405711D01*
X411352Y404589D01*
X411734Y403865D01*
X412696Y403441D01*
X414143Y403219D01*
X415980Y403104D01*
X420442Y402800D01*
X429009Y401832D01*
X436514Y400996D01*
X443033Y400283D01*
X448644Y399681D01*
X453425Y399178D01*
X457453Y398765D01*
X460805Y398429D01*
X463558Y398161D01*
X465790Y397948D01*
X467578Y397780D01*
X470132Y397533D01*
X473315Y397093D01*
X476633Y396492D01*
X479542Y395995D01*
X484253Y395275D01*
X487685Y394856D01*
X490073Y394661D01*
X491654Y394612D01*
X492665Y394632D01*
X493917Y394571D01*
X494737Y393499D01*
X494392Y392802D01*
X493022Y392409D01*
X492202Y392351D01*
X490960Y392254D01*
X489255Y392107D01*
X487045Y391898D01*
X484289Y391614D01*
X480944Y391243D01*
X476969Y390773D01*
X472323Y390193D01*
X462026Y388912D01*
X452898Y387844D01*
X444873Y386966D01*
X437887Y386252D01*
X431876Y385679D01*
X426776Y385221D01*
X422521Y384854D01*
X419047Y384554D01*
X416290Y384295D01*
X414185Y384054D01*
X412668Y383806D01*
X411675Y383527D01*
X411140Y383191D01*
X410999Y382774D01*
X411643Y381601D01*
X412136Y380912D01*
X413078Y379545D01*
X414404Y377596D01*
X416048Y375164D01*
X420030Y369248D01*
X424501Y362583D01*
X428940Y355958D01*
X432825Y350161D01*
X434395Y347819D01*
X435631Y345979D01*
X436468Y344740D01*
X436838Y344200D01*
X438195Y342295D01*
X439056Y340933D01*
X439466Y340061D01*
X439473Y339627D01*
X439123Y339577D01*
X438463Y339859D01*
X436395Y341210D01*
X433641Y343256D01*
X430572Y345578D01*
X427558Y347752D01*
X424971Y349358D01*
X421008Y351664D01*
X416510Y354600D01*
X407108Y361137D01*
X402805Y364123D01*
X399168Y366513D01*
X396497Y368000D01*
X395617Y368309D01*
X395092Y368276D01*
X394748Y367389D01*
X394335Y365232D01*
X393859Y361978D01*
X393327Y357796D01*
X392747Y352856D01*
X392126Y347329D01*
X390789Y335194D01*
X389373Y322753D01*
X388653Y316844D01*
X387935Y311369D01*
X387226Y306499D01*
X386533Y302403D01*
X385862Y299253D01*
X385223Y297218D01*
X604993Y122131D02*
X604607Y117802D01*
X603803Y113730D01*
X602609Y109917D01*
X601050Y106363D01*
X599153Y103070D01*
X596946Y100041D01*
X591703Y94779D01*
X585533Y90591D01*
X578650Y87489D01*
X571266Y85488D01*
X563593Y84600D01*
X555843Y84840D01*
X548228Y86221D01*
X540962Y88757D01*
X534257Y92461D01*
X528325Y97347D01*
X525715Y100237D01*
X523378Y103428D01*
X521341Y106921D01*
X519629Y110718D01*
X518270Y114821D01*
X517290Y119231D01*
X517060Y122666D01*
X517463Y126844D01*
X518596Y131571D01*
X520559Y136652D01*
X523450Y141894D01*
X527367Y147103D01*
X532409Y152086D01*
X538675Y156647D01*
X541082Y157990D01*
X543986Y159671D01*
X546448Y161601D01*
X547219Y162631D01*
X547528Y163690D01*
X547575Y165118D01*
X547647Y167735D01*
X547716Y171165D01*
X547751Y175029D01*
X547603Y182558D01*
X547361Y185468D01*
X546969Y187307D01*
X545902Y188542D01*
X544081Y189524D01*
X539622Y191191D01*
X537707Y192112D01*
X536483Y193246D01*
X536311Y194710D01*
X536732Y195603D01*
X537552Y196622D01*
X538492Y197137D01*
X540166Y197559D01*
X542468Y197895D01*
X545291Y198151D01*
X552068Y198450D01*
X559640Y198508D01*
X567150Y198379D01*
X573739Y198116D01*
X576420Y197950D01*
X578550Y197770D01*
X580021Y197582D01*
X580725Y197394D01*
X581953Y196167D01*
X582587Y194361D01*
X582369Y193390D01*
X581628Y192455D01*
X580238Y191615D01*
X578075Y190930D01*
X575645Y190232D01*
X573985Y189402D01*
X572957Y188387D01*
X572423Y187138D01*
X572247Y185604D01*
X572290Y183733D01*
X572416Y181474D01*
X572486Y178776D01*
X572469Y173522D01*
X572479Y169445D01*
X572589Y166355D01*
X572873Y164066D01*
X573404Y162389D01*
X574256Y161137D01*
X575501Y160121D01*
X577213Y159154D01*
X581192Y157034D01*
X584757Y154945D01*
X590743Y150813D01*
X595370Y146661D01*
X598834Y142388D01*
X601331Y137898D01*
X603059Y133090D01*
X604214Y127867D01*
X604993Y122131D01*
X329347Y174420D02*
X328872Y174500D01*
X329347Y174420D02*
X330610Y174204D01*
X332549Y173872D01*
X335052Y173442D01*
X341304Y172365D01*
X348476Y171121D01*
X355674Y169864D01*
X362006Y168743D01*
X364568Y168281D01*
X366580Y167909D01*
X367929Y167647D01*
X368504Y167513D01*
X372053Y165864D01*
X374969Y164344D01*
X377536Y163100D01*
X380037Y162281D01*
X382757Y162035D01*
X385980Y162510D01*
X389989Y163853D01*
X392377Y164897D01*
X395068Y166214D01*
X398554Y167578D01*
X401479Y168242D01*
X403548Y168639D01*
X406138Y169106D01*
X409340Y169662D01*
X413240Y170327D01*
X417929Y171121D01*
X423494Y172063D01*
X430024Y173174D01*
X437608Y174473D01*
X446334Y175980D01*
X456291Y177714D01*
X461253Y178573D01*
X465628Y179310D01*
X469452Y179931D01*
X472762Y180440D01*
X475597Y180844D01*
X477992Y181146D01*
X481611Y181469D01*
X483918Y181451D01*
X485207Y181132D01*
X485774Y180554D01*
X485917Y179759D01*
X485859Y178757D01*
X485653Y177080D01*
X485312Y174778D01*
X484847Y171900D01*
X484271Y168499D01*
X483597Y164622D01*
X482004Y155647D01*
X480167Y145376D01*
X478187Y134212D01*
X474193Y110811D01*
X473517Y106902D01*
X472929Y103945D01*
X472415Y101803D01*
X471959Y100341D01*
X471547Y99421D01*
X471165Y98907D01*
X470428Y98551D01*
X468918Y98251D01*
X466322Y97809D01*
X462801Y97248D01*
X458517Y96590D01*
X453630Y95858D01*
X448303Y95075D01*
X436972Y93445D01*
X425815Y91882D01*
X420705Y91182D01*
X416121Y90566D01*
X412227Y90057D01*
X409183Y89678D01*
X407150Y89451D01*
X406290Y89399D01*
X405825Y89667D01*
X405147Y90301D01*
X404247Y92289D01*
X404572Y93454D01*
X405778Y94606D01*
X408139Y95651D01*
X411929Y96493D01*
X419809Y97694D01*
X426907Y98752D01*
X433262Y99676D01*
X438912Y100480D01*
X443897Y101175D01*
X448255Y101774D01*
X452025Y102287D01*
X455245Y102728D01*
X457954Y103107D01*
X460190Y103438D01*
X463400Y104000D01*
X465185Y104510D01*
X465852Y105063D01*
X466076Y106052D01*
X466539Y108365D01*
X467203Y111813D01*
X468034Y116206D01*
X468992Y121356D01*
X470043Y127071D01*
X472275Y139444D01*
X474436Y151810D01*
X475398Y157516D01*
X476232Y162651D01*
X476901Y167027D01*
X477370Y170454D01*
X477601Y172742D01*
X477558Y173701D01*
X477250Y173774D01*
X476534Y173770D01*
X473983Y173552D01*
X470121Y173082D01*
X465167Y172398D01*
X459339Y171536D01*
X452855Y170531D01*
X438789Y168243D01*
X424711Y165825D01*
X418213Y164658D01*
X412366Y163568D01*
X407387Y162591D01*
X403495Y161764D01*
X400908Y161122D01*
X400172Y160883D01*
X399843Y160703D01*
X399718Y159748D01*
X399630Y157391D01*
X399572Y153829D01*
X399539Y149257D01*
X399522Y143873D01*
X399515Y137874D01*
X399503Y124817D01*
X399446Y111659D01*
X399384Y105534D01*
X399290Y99974D01*
X399157Y95177D01*
X398978Y91338D01*
X398746Y88654D01*
X398455Y87323D01*
X397598Y86202D01*
X396326Y85144D01*
X392782Y83316D01*
X388323Y82042D01*
X383448Y81523D01*
X378658Y81960D01*
X374450Y83555D01*
X372721Y84850D01*
X371325Y86510D01*
X370325Y88561D01*
X369783Y91028D01*
X369641Y93702D01*
X369628Y95841D01*
X369607Y99208D01*
X369582Y101515D01*
X369541Y104323D01*
X369481Y107699D01*
X369397Y111707D01*
X369284Y116413D01*
X369139Y121880D01*
X368956Y128175D01*
X368731Y135362D01*
X368567Y137510D01*
X368303Y140174D01*
X368166Y142261D01*
X368043Y145151D01*
X367945Y149067D01*
X367887Y154235D01*
X367842Y157570D01*
X367371Y159732D01*
X365903Y161089D01*
X364616Y161580D01*
X362865Y162008D01*
X361383Y162291D01*
X358644Y162793D01*
X354831Y163480D01*
X350128Y164317D01*
X344719Y165271D01*
X338788Y166308D01*
X326098Y168491D01*
X313527Y170593D01*
X307748Y171529D01*
X302550Y172342D01*
X298118Y172999D01*
X294637Y173465D01*
X292289Y173705D01*
X291260Y173687D01*
X290783Y173274D01*
X290632Y172271D01*
X290871Y170077D01*
X291157Y168345D01*
X291564Y166090D01*
X292100Y163237D01*
X292774Y159709D01*
X293593Y155433D01*
X294565Y150332D01*
X295698Y144331D01*
X297000Y137356D01*
X298479Y129331D01*
X300143Y120181D01*
X300846Y116179D01*
X301353Y113121D01*
X301680Y111026D01*
X301844Y109912D01*
X302315Y107530D01*
X302953Y105838D01*
X303802Y104705D01*
X304906Y104000D01*
X308054Y103353D01*
X310186Y103150D01*
X312747Y102853D01*
X313849Y102700D01*
X315622Y102453D01*
X317979Y102122D01*
X320831Y101720D01*
X327671Y100742D01*
X335442Y99608D01*
X343440Y98406D01*
X350965Y97225D01*
X357315Y96152D01*
X359830Y95684D01*
X361788Y95276D01*
X362490Y94873D01*
X363215Y94060D01*
X364095Y91845D01*
X363930Y90765D01*
X363150Y89917D01*
X361594Y89461D01*
X359102Y89559D01*
X348296Y91089D01*
X338816Y92428D01*
X330575Y93591D01*
X323486Y94597D01*
X317460Y95461D01*
X312411Y96199D01*
X308251Y96830D01*
X304893Y97368D01*
X302249Y97832D01*
X300231Y98237D01*
X298754Y98600D01*
X297728Y98937D01*
X296682Y99603D01*
X296395Y100368D01*
X294203Y113516D01*
X292198Y125170D01*
X290382Y135419D01*
X288756Y144351D01*
X287321Y152056D01*
X286078Y158622D01*
X285028Y164140D01*
X284172Y168697D01*
X283512Y172383D01*
X283048Y175287D01*
X282782Y177497D01*
X282714Y179104D01*
X282846Y180196D01*
X283179Y180862D01*
X284452Y181272D01*
X286098Y181186D01*
X288243Y180982D01*
X293733Y180281D01*
X300323Y179294D01*
X307418Y178148D01*
X314417Y176970D01*
X320725Y175885D01*
X323432Y175417D01*
X325742Y175019D01*
X327580Y174708D01*
X328872Y174500D01*
X182389Y372961D02*
X180623Y372883D01*
X182389Y372961D02*
X185377Y373188D01*
X189335Y373662D01*
X194010Y374480D01*
X199152Y375742D01*
X204507Y377546D01*
X209825Y379989D01*
X214852Y383171D01*
X215834Y383778D01*
X216397Y383840D01*
X216569Y383416D01*
X216380Y382562D01*
X215857Y381335D01*
X215031Y379791D01*
X212584Y375982D01*
X209268Y371591D01*
X205317Y367071D01*
X200960Y362878D01*
X196431Y359468D01*
X191693Y356723D01*
X186910Y354430D01*
X182098Y352576D01*
X177274Y351148D01*
X167656Y349516D01*
X158189Y349427D01*
X149005Y350773D01*
X140236Y353448D01*
X132014Y357345D01*
X124473Y362357D01*
X117743Y368376D01*
X111959Y375297D01*
X107251Y383012D01*
X103753Y391414D01*
X101597Y400396D01*
X100915Y409852D01*
X101169Y414724D01*
X101840Y419674D01*
X102946Y424689D01*
X104504Y429755D01*
X106426Y434315D01*
X109144Y439226D01*
X112635Y444290D01*
X116879Y449305D01*
X121855Y454071D01*
X127540Y458387D01*
X133915Y462052D01*
X140958Y464866D01*
X142913Y465487D01*
X145851Y466293D01*
X149728Y467073D01*
X154504Y467615D01*
X160138Y467705D01*
X166586Y467133D01*
X173809Y465685D01*
X181763Y463150D01*
X183020Y462614D01*
X183486Y462236D01*
X183230Y461960D01*
X182321Y461729D01*
X180826Y461484D01*
X178813Y461169D01*
X176351Y460726D01*
X173509Y460098D01*
X166953Y458059D01*
X163376Y456532D01*
X159691Y454591D01*
X155966Y452179D01*
X152269Y449238D01*
X148669Y445711D01*
X145233Y441541D01*
X142359Y437012D01*
X140109Y432105D01*
X138497Y426906D01*
X137532Y421506D01*
X137226Y415990D01*
X137590Y410447D01*
X138637Y404966D01*
X140377Y399633D01*
X142821Y394537D01*
X145982Y389766D01*
X149870Y385408D01*
X154497Y381550D01*
X159875Y378281D01*
X166014Y375688D01*
X172926Y373859D01*
X180623Y372883D01*
X445515Y505365D02*
X446142Y509369D01*
X447642Y512610D01*
X449831Y514983D01*
X452526Y516380D01*
X455543Y516694D01*
X458699Y515818D01*
X461808Y513645D01*
X464689Y510066D01*
X465218Y509584D01*
X465844Y509393D01*
X466911Y509231D01*
X468568Y509098D01*
X470966Y508990D01*
X474254Y508906D01*
X478581Y508843D01*
X484098Y508799D01*
X490955Y508772D01*
X499300Y508759D01*
X504079Y508758D01*
X509285Y508759D01*
X514939Y508763D01*
X521058Y508769D01*
X527662Y508778D01*
X534770Y508788D01*
X542400Y508799D01*
X550570Y508812D01*
X559300Y508825D01*
X568608Y508839D01*
X573107Y508839D01*
X577069Y508831D01*
X580531Y508820D01*
X583532Y508814D01*
X588300Y508848D01*
X591675Y508989D01*
X593958Y509295D01*
X595452Y509823D01*
X597280Y511778D01*
X598673Y513480D01*
X600503Y514868D01*
X602656Y515845D01*
X605017Y516319D01*
X607472Y516193D01*
X609908Y515374D01*
X612209Y513767D01*
X614262Y511277D01*
X615150Y510486D01*
X616111Y510259D01*
X617736Y510117D01*
X620261Y510042D01*
X623927Y510013D01*
X628971Y510011D01*
X632084Y510014D01*
X635631Y510016D01*
X641514Y510002D01*
X646020Y509988D01*
X649371Y510026D01*
X651790Y510168D01*
X653499Y510465D01*
X654719Y510969D01*
X656585Y512803D01*
X658380Y514625D01*
X660294Y515760D01*
X662241Y516326D01*
X664139Y516441D01*
X667443Y515784D01*
X669529Y514725D01*
X671727Y512648D01*
X673086Y510517D01*
X673771Y508421D01*
X673945Y506448D01*
X673424Y503216D01*
X673057Y502134D01*
X672838Y501523D01*
X672926Y500868D01*
X673417Y499949D01*
X675407Y497463D01*
X678392Y494353D01*
X681959Y490910D01*
X689179Y484181D01*
X692003Y481473D01*
X693037Y480411D01*
X693751Y479591D01*
X694187Y478521D01*
X694361Y477002D01*
X694503Y474246D01*
X694562Y472268D01*
X694611Y469818D01*
X694651Y466842D01*
X694682Y463284D01*
X694703Y459090D01*
X694715Y454206D01*
X694716Y448578D01*
X694706Y442151D01*
X694911Y440619D01*
X695471Y439419D01*
X697262Y437553D01*
X699304Y435630D01*
X700176Y434359D01*
X700819Y432727D01*
X701296Y429683D01*
X701058Y427198D01*
X700293Y425207D01*
X699188Y423647D01*
X696705Y421565D01*
X695701Y420914D01*
X695104Y420439D01*
X694926Y419755D01*
X694787Y418266D01*
X694682Y416082D01*
X694608Y413313D01*
X694537Y406453D01*
X694542Y398562D01*
X694593Y390515D01*
X694659Y383186D01*
X694688Y380065D01*
X694709Y377451D01*
X694718Y375455D01*
X694712Y374185D01*
X694275Y372686D01*
X693155Y370843D01*
X689717Y366584D01*
X686104Y362336D01*
X684767Y360506D01*
X684026Y359024D01*
X683441Y356295D01*
X683337Y353996D01*
X683602Y352099D01*
X684122Y350575D01*
X685480Y348528D01*
X686509Y347620D01*
X688892Y345387D01*
X690326Y343043D01*
X690975Y340684D01*
X691000Y338408D01*
X690563Y336313D01*
X689827Y334497D01*
X688954Y333058D01*
X688106Y332093D01*
X685964Y330513D01*
X683825Y329530D01*
X681728Y329090D01*
X679709Y329136D01*
X677807Y329615D01*
X676060Y330470D01*
X673180Y333089D01*
X671372Y336553D01*
X670936Y340418D01*
X671328Y342363D01*
X672177Y344244D01*
X673519Y346004D01*
X675395Y347588D01*
X676636Y348583D01*
X677460Y349583D01*
X678168Y351837D01*
X678149Y354840D01*
X678035Y359082D01*
X678428Y361032D01*
X679449Y363098D01*
X682643Y367377D01*
X686152Y371517D01*
X687567Y373411D01*
X688511Y375120D01*
X689246Y377626D01*
X689442Y379704D01*
X689537Y383006D01*
X689549Y385273D01*
X689538Y388036D01*
X689506Y391357D01*
X689454Y395299D01*
X689383Y399926D01*
X689293Y405300D01*
X689187Y411486D01*
X689065Y418545D01*
X688890Y419715D01*
X688454Y420568D01*
X687029Y421754D01*
X685262Y422969D01*
X683621Y425080D01*
X682534Y428333D01*
X682493Y431244D01*
X683221Y433786D01*
X684443Y435937D01*
X685882Y437671D01*
X687262Y438964D01*
X688308Y439790D01*
X688743Y440126D01*
X689340Y442067D01*
X689474Y443692D01*
X689516Y446283D01*
X689481Y450236D01*
X689440Y452847D01*
X689384Y455948D01*
X689317Y459588D01*
X689240Y463817D01*
X689154Y468685D01*
X689062Y474240D01*
X688646Y475858D01*
X687833Y476957D01*
X686336Y478593D01*
X683947Y481024D01*
X682352Y482618D01*
X680455Y484508D01*
X678230Y486726D01*
X675651Y489304D01*
X672691Y492273D01*
X669325Y495668D01*
X668146Y496421D01*
X666716Y496737D01*
X663321Y496946D01*
X661466Y497286D01*
X659578Y498079D01*
X657712Y499549D01*
X655923Y501919D01*
X654346Y503773D01*
X653171Y504284D01*
X651448Y504582D01*
X648956Y504715D01*
X645478Y504730D01*
X640794Y504675D01*
X634686Y504599D01*
X629326Y504606D01*
X625081Y504690D01*
X621787Y504761D01*
X619275Y504727D01*
X617381Y504499D01*
X615939Y503985D01*
X614781Y503094D01*
X613742Y501736D01*
X612372Y500062D01*
X610650Y498728D01*
X608668Y497787D01*
X606519Y497293D01*
X604293Y497299D01*
X602082Y497858D01*
X599979Y499025D01*
X598074Y500853D01*
X596969Y502086D01*
X595969Y502903D01*
X593813Y503598D01*
X590669Y503555D01*
X588433Y503450D01*
X585599Y503393D01*
X574744Y503370D01*
X564564Y503354D01*
X555036Y503345D01*
X546138Y503341D01*
X537849Y503341D01*
X530147Y503346D01*
X523009Y503354D01*
X516414Y503364D01*
X510341Y503376D01*
X504767Y503389D01*
X499670Y503402D01*
X495029Y503414D01*
X490822Y503424D01*
X487026Y503433D01*
X480583Y503439D01*
X475526Y503426D01*
X471679Y503389D01*
X468867Y503320D01*
X466917Y503213D01*
X465652Y503063D01*
X464899Y502862D01*
X464227Y502284D01*
X462766Y500302D01*
X461280Y498729D01*
X458291Y496706D01*
X455367Y496012D01*
X452617Y496444D01*
X450148Y497798D01*
X448070Y499872D01*
X446489Y502462D01*
X445515Y505365D01*
X200679Y147448D02*
X199686Y146355D01*
X199045Y145609D01*
X198462Y145364D01*
X197644Y145775D01*
X195726Y147336D01*
X194381Y148621D01*
X193515Y149657D01*
X193039Y150474D01*
X192891Y151560D01*
X193204Y152106D01*
X197622Y157298D01*
X201493Y161911D01*
X204892Y166027D01*
X207899Y169731D01*
X213042Y176238D01*
X217537Y182099D01*
X222002Y187985D01*
X227054Y194567D01*
X229993Y198327D01*
X233310Y202512D01*
X237082Y207206D01*
X241387Y212492D01*
X242151Y213424D01*
X243229Y214741D01*
X244602Y216416D01*
X246248Y218427D01*
X250281Y223353D01*
X255164Y229323D01*
X260734Y236140D01*
X266830Y243605D01*
X279943Y259694D01*
X293200Y276013D01*
X299474Y283767D01*
X305296Y290987D01*
X310503Y297476D01*
X314930Y303037D01*
X318416Y307473D01*
X319755Y309208D01*
X320797Y310587D01*
X322228Y311676D01*
X323971Y311814D01*
X325843Y311207D01*
X327663Y310065D01*
X329250Y308594D01*
X330420Y307002D01*
X330992Y305496D01*
X330785Y304284D01*
X323946Y294724D01*
X321892Y292034D01*
X319541Y288974D01*
X316815Y285415D01*
X313634Y281233D01*
X309920Y276301D01*
X305594Y270494D01*
X300575Y263685D01*
X294786Y255748D01*
X288146Y246557D01*
X284483Y241453D01*
X280577Y235987D01*
X276420Y230145D01*
X272000Y223911D01*
X267309Y217269D01*
X262336Y210203D01*
X257734Y203649D01*
X253420Y197495D01*
X249384Y191730D01*
X245617Y186340D01*
X242109Y181314D01*
X238851Y176638D01*
X233043Y168290D01*
X228117Y161197D01*
X223994Y155257D01*
X220599Y150373D01*
X217852Y146444D01*
X215677Y143369D01*
X213997Y141051D01*
X212733Y139388D01*
X211809Y138282D01*
X211148Y137632D01*
X210671Y137339D01*
X209961Y137425D01*
X209210Y138017D01*
X208094Y139001D01*
X205948Y140841D01*
X205520Y141363D01*
X205561Y142123D01*
X206245Y143447D01*
X207745Y145663D01*
X208857Y147207D01*
X210237Y149097D01*
X211909Y151373D01*
X213894Y154075D01*
X216213Y157246D01*
X218889Y160925D01*
X221943Y165154D01*
X225397Y169973D01*
X226546Y171583D01*
X228496Y174316D01*
X231126Y178003D01*
X234316Y182476D01*
X237945Y187568D01*
X241892Y193110D01*
X250261Y204874D01*
X258457Y216422D01*
X262188Y221696D01*
X265515Y226411D01*
X268316Y230401D01*
X270472Y233497D01*
X271861Y235531D01*
X272230Y236097D01*
X272362Y236335D01*
X272425Y237982D01*
X272227Y238283D01*
X271837Y238208D01*
X271225Y237734D01*
X270364Y236839D01*
X269222Y235501D01*
X267772Y233698D01*
X265983Y231408D01*
X263827Y228610D01*
X261273Y225282D01*
X258293Y221400D01*
X254858Y216945D01*
X250937Y211893D01*
X246503Y206223D01*
X241525Y199912D01*
X236433Y193407D01*
X230914Y186243D01*
X219439Y171223D01*
X213907Y164013D01*
X208795Y157432D01*
X204315Y151803D01*
X202379Y149446D01*
X200679Y147448D01*
X41351Y115673D02*
X41430Y111751D01*
X41351Y115673D02*
X41318Y119187D01*
X41343Y125088D01*
X41414Y129657D01*
X41438Y133091D01*
X41324Y135592D01*
X40981Y137358D01*
X40317Y138591D01*
X39241Y139490D01*
X37013Y141164D01*
X35445Y143019D01*
X34478Y144994D01*
X34059Y147032D01*
X34129Y149074D01*
X34634Y151061D01*
X36722Y154641D01*
X39873Y157303D01*
X41707Y158144D01*
X43639Y158580D01*
X45612Y158553D01*
X47570Y158005D01*
X49457Y156877D01*
X51217Y155111D01*
X52513Y153245D01*
X53384Y151470D01*
X54040Y148202D01*
X53560Y145321D01*
X52316Y142845D01*
X50685Y140789D01*
X49039Y139169D01*
X47752Y138001D01*
X47200Y137302D01*
X47178Y136647D01*
X47161Y135123D01*
X47148Y132852D01*
X47139Y129956D01*
X47135Y122777D01*
X47146Y114566D01*
X47173Y106300D01*
X47213Y98958D01*
X47239Y95938D01*
X47268Y93517D01*
X47300Y91816D01*
X47335Y90957D01*
X47720Y90209D01*
X48728Y88942D01*
X50273Y87234D01*
X52264Y85161D01*
X57234Y80235D01*
X62933Y74784D01*
X68651Y69430D01*
X73683Y64791D01*
X75720Y62935D01*
X77321Y61490D01*
X78395Y60535D01*
X78856Y60147D01*
X80555Y59661D01*
X83468Y59383D01*
X87179Y59270D01*
X91277Y59280D01*
X95347Y59370D01*
X98975Y59498D01*
X101747Y59621D01*
X103250Y59698D01*
X103916Y59978D01*
X104216Y60673D01*
X104280Y62992D01*
X104560Y66030D01*
X105131Y67623D01*
X106175Y69162D01*
X108828Y71409D01*
X111510Y72491D01*
X114118Y72660D01*
X116549Y72171D01*
X118701Y71277D01*
X120469Y70232D01*
X121752Y69290D01*
X122447Y68704D01*
X123915Y68060D01*
X125250Y67847D01*
X127151Y67695D01*
X129741Y67596D01*
X133145Y67542D01*
X137485Y67523D01*
X142887Y67531D01*
X149474Y67558D01*
X157369Y67595D01*
X166696Y67634D01*
X171936Y67651D01*
X177580Y67665D01*
X183644Y67676D01*
X190144Y67682D01*
X197094Y67682D01*
X204511Y67675D01*
X212410Y67659D01*
X220806Y67635D01*
X229714Y67600D01*
X239152Y67554D01*
X241015Y68021D01*
X242164Y69183D01*
X243952Y72028D01*
X245920Y73760D01*
X247969Y74915D01*
X250053Y75542D01*
X252126Y75687D01*
X256058Y74726D01*
X259403Y72414D01*
X261797Y69133D01*
X262877Y65265D01*
X262810Y63229D01*
X262278Y61190D01*
X261236Y59195D01*
X259638Y57292D01*
X257910Y55862D01*
X256195Y54908D01*
X252857Y54212D01*
X249734Y54783D01*
X246932Y56198D01*
X244558Y58035D01*
X242721Y59873D01*
X241527Y61289D01*
X241085Y61861D01*
X240641Y61909D01*
X239666Y61951D01*
X238196Y61987D01*
X236262Y62019D01*
X231144Y62067D01*
X224584Y62098D01*
X216855Y62113D01*
X208228Y62116D01*
X189371Y62089D01*
X170191Y62036D01*
X161160Y62004D01*
X152864Y61972D01*
X145577Y61942D01*
X139569Y61915D01*
X137130Y61904D01*
X135113Y61894D01*
X133552Y61887D01*
X132481Y61882D01*
X129268Y62073D01*
X127037Y62157D01*
X125430Y61347D01*
X124749Y60360D01*
X124089Y58854D01*
X123158Y56810D01*
X122061Y55194D01*
X119491Y53080D01*
X116616Y52185D01*
X113674Y52182D01*
X110904Y52742D01*
X108543Y53538D01*
X106829Y54243D01*
X106001Y54530D01*
X103740Y54334D01*
X101887Y54233D01*
X99327Y54143D01*
X95893Y54076D01*
X91418Y54044D01*
X85734Y54056D01*
X78672Y54124D01*
X76141Y54738D01*
X74401Y55956D01*
X71814Y58204D01*
X70079Y59813D01*
X67984Y61798D01*
X65479Y64200D01*
X62515Y67057D01*
X59041Y70410D01*
X55009Y74297D01*
X50368Y78760D01*
X45069Y83836D01*
X42688Y86691D01*
X42029Y88400D01*
X41638Y90696D01*
X41448Y93879D01*
X41394Y98249D01*
X41397Y100973D01*
X41409Y104107D01*
X41423Y107687D01*
X41430Y111751D01*
X57763Y484299D02*
X58424Y487473D01*
X57763Y484299D02*
X56792Y482096D01*
X55628Y480630D01*
X54389Y479666D01*
X52155Y478311D01*
X51396Y477453D01*
X51032Y476163D01*
X51022Y475712D01*
X51012Y474667D01*
X51002Y473113D01*
X50993Y471133D01*
X50978Y466237D01*
X50969Y460653D01*
X50971Y455055D01*
X50985Y450119D01*
X50997Y448110D01*
X51014Y446519D01*
X51035Y445431D01*
X51060Y444930D01*
X51576Y444388D01*
X52811Y443305D01*
X54416Y441729D01*
X56044Y439708D01*
X57345Y437292D01*
X57971Y434528D01*
X57574Y431465D01*
X55806Y428151D01*
X54357Y426591D01*
X52760Y425506D01*
X51058Y424861D01*
X49299Y424619D01*
X45790Y425199D01*
X42598Y426959D01*
X40087Y429610D01*
X38622Y432862D01*
X38397Y434624D01*
X38570Y436428D01*
X39187Y438238D01*
X40294Y440017D01*
X42418Y442197D01*
X44095Y443524D01*
X45199Y445047D01*
X45496Y446210D01*
X45604Y447817D01*
X45624Y453071D01*
X45638Y457677D01*
X45645Y461678D01*
X45643Y465119D01*
X45632Y468043D01*
X45611Y470496D01*
X45531Y474161D01*
X45394Y476470D01*
X45191Y477776D01*
X44550Y478796D01*
X42490Y480684D01*
X40954Y482537D01*
X39894Y484343D01*
X39265Y486090D01*
X39113Y489354D01*
X40128Y492231D01*
X41941Y494621D01*
X44182Y496425D01*
X46480Y497544D01*
X48466Y497879D01*
X50592Y497867D01*
X52273Y498133D01*
X53713Y498740D01*
X55120Y499754D01*
X56698Y501240D01*
X58653Y503261D01*
X61191Y505883D01*
X64518Y509170D01*
X65908Y509915D01*
X67351Y510085D01*
X69779Y510160D01*
X73554Y510169D01*
X76061Y510159D01*
X79042Y510143D01*
X82541Y510126D01*
X86605Y510112D01*
X91279Y510104D01*
X96609Y510105D01*
X100385Y510071D01*
X103332Y510003D01*
X105595Y509973D01*
X107322Y510053D01*
X109748Y510829D01*
X111780Y512901D01*
X113519Y514631D01*
X115543Y515762D01*
X117739Y516327D01*
X119997Y516358D01*
X122202Y515886D01*
X124243Y514945D01*
X126007Y513565D01*
X127383Y511781D01*
X129108Y509689D01*
X130301Y509156D01*
X131982Y508876D01*
X134350Y508781D01*
X137606Y508802D01*
X141951Y508873D01*
X147585Y508924D01*
X156879Y508951D01*
X165598Y508970D01*
X173759Y508984D01*
X181381Y508992D01*
X188483Y508996D01*
X195084Y508996D01*
X201202Y508994D01*
X206856Y508989D01*
X212065Y508983D01*
X216848Y508976D01*
X225208Y508965D01*
X232087Y508961D01*
X237635Y508972D01*
X242000Y509003D01*
X245333Y509061D01*
X247783Y509152D01*
X249499Y509283D01*
X250633Y509460D01*
X251332Y509689D01*
X252029Y510332D01*
X252362Y510810D01*
X252978Y511625D01*
X254935Y513759D01*
X257648Y515714D01*
X259208Y516308D01*
X260863Y516475D01*
X263889Y516014D01*
X266290Y515039D01*
X268103Y513640D01*
X269367Y511907D01*
X270118Y509932D01*
X270395Y507803D01*
X270234Y505613D01*
X269673Y503450D01*
X267503Y499571D01*
X265968Y498035D01*
X264184Y496888D01*
X262188Y496221D01*
X260018Y496124D01*
X257711Y496688D01*
X255304Y498003D01*
X253075Y500058D01*
X251922Y501801D01*
X251019Y503023D01*
X249537Y503520D01*
X246747Y503577D01*
X242561Y503620D01*
X237149Y503652D01*
X230681Y503673D01*
X223326Y503686D01*
X215256Y503694D01*
X197644Y503698D01*
X179202Y503701D01*
X161291Y503719D01*
X152957Y503738D01*
X145266Y503767D01*
X138386Y503807D01*
X132487Y503861D01*
X130186Y503633D01*
X128539Y502980D01*
X126336Y500931D01*
X124143Y498792D01*
X122508Y498024D01*
X120225Y497637D01*
X117445Y497767D01*
X115293Y498408D01*
X113650Y499402D01*
X112394Y500589D01*
X110560Y502910D01*
X109740Y503727D01*
X108825Y504102D01*
X106664Y504218D01*
X104935Y504225D01*
X102214Y504221D01*
X100351Y504219D01*
X98081Y504222D01*
X95354Y504230D01*
X92116Y504246D01*
X88315Y504272D01*
X83899Y504310D01*
X78814Y504362D01*
X73009Y504431D01*
X70393Y504352D01*
X68427Y504034D01*
X65714Y502647D01*
X63409Y500199D01*
X61953Y498555D01*
X60052Y496620D01*
X58889Y495420D01*
X58129Y494406D01*
X57558Y492596D01*
X57827Y490511D01*
X58424Y487473D01*
X597489Y115596D02*
X595290Y109741D01*
X592032Y104684D01*
X587872Y100430D01*
X582968Y96984D01*
X577477Y94349D01*
X571555Y92530D01*
X565360Y91532D01*
X559047Y91360D01*
X552775Y92017D01*
X546699Y93508D01*
X540978Y95839D01*
X535767Y99012D01*
X531224Y103034D01*
X527505Y107908D01*
X524768Y113638D01*
X523169Y120230D01*
X522937Y124451D01*
X523460Y128357D01*
X524763Y131751D01*
X526873Y134435D01*
X529817Y136210D01*
X533620Y136880D01*
X535853Y136738D01*
X538310Y136245D01*
X540995Y135377D01*
X543911Y134108D01*
X551433Y130635D01*
X558141Y127907D01*
X564090Y125847D01*
X569336Y124380D01*
X573934Y123430D01*
X577941Y122922D01*
X581412Y122780D01*
X584402Y122929D01*
X589164Y123797D01*
X592673Y124921D01*
X595373Y125697D01*
X597709Y125520D01*
X598142Y124965D01*
X598336Y123842D01*
X598223Y120640D01*
X597798Y117397D01*
X597603Y116224D01*
X597489Y115596D01*
X490858Y375180D02*
X482674Y376600D01*
X490858Y375180D02*
X498488Y373444D01*
X505574Y371416D01*
X512122Y369119D01*
X518141Y366577D01*
X523637Y363814D01*
X528619Y360855D01*
X533093Y357724D01*
X537068Y354444D01*
X540552Y351040D01*
X543551Y347535D01*
X546074Y343954D01*
X548128Y340321D01*
X549721Y336659D01*
X550860Y332993D01*
X551554Y329346D01*
X551809Y325744D01*
X551633Y322209D01*
X551034Y318766D01*
X550019Y315438D01*
X548597Y312251D01*
X546774Y309228D01*
X544559Y306392D01*
X541958Y303768D01*
X538981Y301381D01*
X535633Y299253D01*
X531924Y297409D01*
X527859Y295874D01*
X523448Y294670D01*
X518698Y293823D01*
X513616Y293355D01*
X508210Y293292D01*
X504066Y293647D01*
X500011Y294469D01*
X496092Y295722D01*
X492355Y297371D01*
X488846Y299380D01*
X485611Y301714D01*
X482696Y304338D01*
X480147Y307215D01*
X478009Y310312D01*
X476330Y313591D01*
X475155Y317019D01*
X474530Y320559D01*
X474501Y324177D01*
X475114Y327836D01*
X476416Y331501D01*
X478452Y335138D01*
X480572Y337812D01*
X482950Y339966D01*
X485514Y341612D01*
X488193Y342763D01*
X490914Y343431D01*
X493606Y343629D01*
X496198Y343369D01*
X498619Y342665D01*
X500796Y341527D01*
X502658Y339969D01*
X504134Y338003D01*
X505152Y335642D01*
X505641Y332899D01*
X505529Y329785D01*
X504744Y326313D01*
X503215Y322496D01*
X502639Y321803D01*
X502204Y322372D01*
X501758Y323833D01*
X501149Y325816D01*
X500225Y327952D01*
X498834Y329872D01*
X496822Y331204D01*
X494037Y331581D01*
X490860Y331032D01*
X488272Y329924D01*
X486271Y328341D01*
X484852Y326368D01*
X484012Y324088D01*
X483748Y321587D01*
X484055Y318949D01*
X484931Y316257D01*
X486371Y313596D01*
X488372Y311050D01*
X490931Y308703D01*
X494043Y306641D01*
X497706Y304946D01*
X501915Y303703D01*
X506667Y302997D01*
X511959Y302911D01*
X517316Y303643D01*
X522398Y305279D01*
X527069Y307721D01*
X531190Y310874D01*
X534623Y314638D01*
X537230Y318919D01*
X538873Y323619D01*
X539414Y328641D01*
X538714Y333887D01*
X536635Y339262D01*
X533041Y344669D01*
X530632Y347353D01*
X527792Y350009D01*
X524503Y352625D01*
X520750Y355187D01*
X516514Y357685D01*
X511777Y360106D01*
X506524Y362438D01*
X500736Y364668D01*
X494397Y366785D01*
X487488Y368777D01*
X479415Y370651D01*
X471605Y372064D01*
X464609Y373137D01*
X461588Y373583D01*
X458976Y373988D01*
X456842Y374369D01*
X455255Y374740D01*
X454284Y375116D01*
X453997Y375512D01*
X454463Y375943D01*
X455750Y376425D01*
X457928Y376971D01*
X461065Y377598D01*
X463757Y377904D01*
X466894Y377975D01*
X473622Y377634D01*
X476768Y377335D01*
X479473Y377025D01*
X481516Y376761D01*
X482674Y376600D01*
X654189Y113402D02*
X654192Y107033D01*
X654189Y113402D02*
X654185Y118356D01*
X654177Y122082D01*
X654163Y124768D01*
X654139Y126601D01*
X654103Y127769D01*
X653983Y128855D01*
X652852Y130767D01*
X650488Y133337D01*
X647251Y136543D01*
X643502Y140362D01*
X642463Y141634D01*
X641811Y143056D01*
X641461Y145041D01*
X641330Y148001D01*
X641333Y152348D01*
X641359Y155171D01*
X641387Y158495D01*
X641408Y162371D01*
X641410Y166852D01*
X641382Y171989D01*
X641315Y177834D01*
X640976Y179372D01*
X640141Y180302D01*
X637748Y181873D01*
X635905Y183799D01*
X634707Y185784D01*
X634092Y187783D01*
X633999Y189751D01*
X634367Y191643D01*
X635134Y193414D01*
X637621Y196415D01*
X640972Y198393D01*
X644696Y198989D01*
X646545Y198656D01*
X648303Y197843D01*
X649910Y196505D01*
X651304Y194596D01*
X652592Y191409D01*
X652809Y188545D01*
X652230Y186030D01*
X651131Y183894D01*
X649787Y182162D01*
X648476Y180865D01*
X647471Y180028D01*
X647050Y179679D01*
X646920Y179020D01*
X646814Y177815D01*
X646667Y174079D01*
X646593Y169082D01*
X646573Y163439D01*
X646591Y157763D01*
X646628Y152667D01*
X646669Y148763D01*
X646685Y147450D01*
X646695Y146665D01*
X647237Y145058D01*
X648639Y143060D01*
X652907Y138518D01*
X657257Y134291D01*
X658763Y132688D01*
X659450Y131634D01*
X659491Y131065D01*
X659526Y129784D01*
X659555Y127893D01*
X659577Y125493D01*
X659607Y119569D01*
X659620Y112821D01*
X659618Y106058D01*
X659607Y100088D01*
X659598Y97654D01*
X659589Y95721D01*
X659579Y94391D01*
X659568Y93765D01*
X659210Y93030D01*
X658231Y91760D01*
X656720Y90036D01*
X654766Y87937D01*
X649881Y82937D01*
X644287Y77403D01*
X638690Y71976D01*
X633800Y67298D01*
X631841Y65440D01*
X630325Y64010D01*
X629339Y63089D01*
X628974Y62755D01*
X628325Y62653D01*
X626875Y62561D01*
X624675Y62481D01*
X621779Y62410D01*
X618237Y62348D01*
X614102Y62296D01*
X609425Y62251D01*
X604259Y62214D01*
X592667Y62159D01*
X579740Y62127D01*
X565895Y62111D01*
X551546Y62108D01*
X523002Y62119D01*
X509638Y62122D01*
X497433Y62118D01*
X491895Y62111D01*
X486803Y62100D01*
X482208Y62085D01*
X478163Y62065D01*
X474720Y62039D01*
X471930Y62006D01*
X469846Y61967D01*
X468519Y61920D01*
X467089Y61213D01*
X466029Y59636D01*
X464828Y57702D01*
X462970Y55928D01*
X460661Y54731D01*
X458411Y54110D01*
X456253Y54008D01*
X454219Y54365D01*
X450644Y56232D01*
X447940Y59248D01*
X446357Y62953D01*
X446148Y66884D01*
X446638Y68790D01*
X447565Y70580D01*
X448961Y72196D01*
X450858Y73580D01*
X454481Y75043D01*
X457696Y75224D01*
X460490Y74452D01*
X462854Y73056D01*
X464776Y71365D01*
X466244Y69708D01*
X467250Y68414D01*
X467781Y67811D01*
X468307Y67771D01*
X469679Y67735D01*
X471840Y67705D01*
X474734Y67679D01*
X478305Y67657D01*
X482497Y67640D01*
X487254Y67627D01*
X492519Y67617D01*
X504350Y67609D01*
X517540Y67614D01*
X531640Y67630D01*
X546200Y67656D01*
X560770Y67690D01*
X574902Y67731D01*
X588145Y67776D01*
X600051Y67826D01*
X605361Y67851D01*
X610169Y67877D01*
X614417Y67903D01*
X618050Y67929D01*
X621011Y67954D01*
X623244Y67979D01*
X624693Y68003D01*
X625302Y68026D01*
X625966Y68363D01*
X627045Y69230D01*
X629009Y70978D01*
X630413Y72281D01*
X632147Y73922D01*
X634247Y75940D01*
X636749Y78374D01*
X639689Y81264D01*
X643104Y84647D01*
X647030Y88565D01*
X651503Y93055D01*
X653493Y95659D01*
X654236Y98349D01*
X654285Y101887D01*
X654222Y104211D01*
X654192Y107033D01*
X173490Y494605D02*
X172129Y494606D01*
X173490Y494605D02*
X175758Y494604D01*
X178802Y494603D01*
X182492Y494601D01*
X191290Y494597D01*
X201109Y494590D01*
X210906Y494581D01*
X219639Y494569D01*
X223280Y494562D01*
X226265Y494555D01*
X228463Y494546D01*
X229743Y494537D01*
X230889Y494322D01*
X231612Y493783D01*
X232100Y492149D01*
X231829Y490471D01*
X231424Y489586D01*
X230961Y489511D01*
X229802Y489446D01*
X227993Y489390D01*
X225577Y489343D01*
X222602Y489304D01*
X219111Y489272D01*
X215150Y489248D01*
X210765Y489229D01*
X200901Y489208D01*
X189880Y489205D01*
X178066Y489215D01*
X165819Y489234D01*
X141474Y489278D01*
X130101Y489295D01*
X119742Y489301D01*
X110759Y489292D01*
X106897Y489281D01*
X103515Y489264D01*
X100658Y489241D01*
X98372Y489212D01*
X96700Y489175D01*
X95690Y489131D01*
X94985Y488853D01*
X93905Y488135D01*
X92506Y487037D01*
X90847Y485619D01*
X86975Y482064D01*
X82748Y477957D01*
X78623Y473781D01*
X75061Y470020D01*
X73633Y468447D01*
X72518Y467159D01*
X71773Y466217D01*
X71455Y465682D01*
X71437Y465390D01*
X71421Y464669D01*
X71395Y462048D01*
X71375Y458042D01*
X71361Y452875D01*
X71353Y446771D01*
X71350Y439953D01*
X71357Y425072D01*
X71379Y410022D01*
X71395Y402993D01*
X71413Y396593D01*
X71432Y391045D01*
X71454Y386574D01*
X71476Y383403D01*
X71487Y382375D01*
X71499Y381756D01*
X71917Y380059D01*
X72945Y378247D01*
X76012Y374531D01*
X79072Y371116D01*
X80089Y369680D01*
X80493Y368512D01*
X80634Y363504D01*
X80747Y359098D01*
X80830Y355255D01*
X80882Y351935D01*
X80902Y349099D01*
X80889Y346709D01*
X80758Y343108D01*
X80477Y340818D01*
X80038Y339526D01*
X79428Y338920D01*
X78638Y338685D01*
X76758Y338565D01*
X75576Y339107D01*
X74944Y340479D01*
X74713Y342849D01*
X74733Y346387D01*
X74856Y351259D01*
X74933Y357635D01*
X74908Y361439D01*
X74815Y365682D01*
X74009Y367787D01*
X72119Y370328D01*
X67634Y375365D01*
X66786Y376584D01*
X66224Y378478D01*
X66031Y379965D01*
X65888Y381965D01*
X65788Y384592D01*
X65723Y387960D01*
X65687Y392186D01*
X65671Y397382D01*
X65670Y403663D01*
X65675Y411145D01*
X65679Y419942D01*
X65677Y430168D01*
X65670Y435853D01*
X65659Y441939D01*
X65643Y448439D01*
X65620Y455368D01*
X65515Y458797D01*
X65324Y461571D01*
X65267Y465825D01*
X65691Y467644D01*
X66609Y469482D01*
X68166Y471509D01*
X70509Y473894D01*
X74114Y477307D01*
X77259Y480319D01*
X79978Y482956D01*
X82307Y485241D01*
X84282Y487202D01*
X85940Y488862D01*
X88442Y491386D01*
X90101Y493015D01*
X91201Y493952D01*
X92872Y494567D01*
X97658Y494820D01*
X99355Y494833D01*
X101485Y494831D01*
X104163Y494818D01*
X107507Y494795D01*
X111631Y494765D01*
X116653Y494732D01*
X122687Y494697D01*
X129852Y494665D01*
X138262Y494637D01*
X148034Y494615D01*
X159284Y494604D01*
X165500Y494603D01*
X172129Y494606D01*
X664527Y200486D02*
X664522Y192413D01*
X664518Y185343D01*
X664517Y179207D01*
X664519Y173938D01*
X664525Y169467D01*
X664538Y165727D01*
X664557Y162650D01*
X664584Y160167D01*
X664621Y158211D01*
X664669Y156713D01*
X664799Y154822D01*
X664986Y153949D01*
X665237Y153551D01*
X671869Y146110D01*
X674518Y142705D01*
X675313Y141273D01*
X675616Y140092D01*
X675772Y131805D01*
X675853Y124458D01*
X675874Y118000D01*
X675848Y112378D01*
X675789Y107540D01*
X675712Y103434D01*
X675631Y100009D01*
X675560Y97212D01*
X675513Y94991D01*
X675504Y93294D01*
X675548Y92069D01*
X675658Y91265D01*
X676135Y90708D01*
X677047Y91207D01*
X677451Y91592D01*
X678219Y92452D01*
X678946Y93238D01*
X680012Y94358D01*
X681500Y95882D01*
X683491Y97881D01*
X684244Y99122D01*
X684508Y100567D01*
X684710Y103081D01*
X684790Y104859D01*
X684858Y107050D01*
X684915Y109702D01*
X684962Y112863D01*
X685000Y116583D01*
X685031Y120909D01*
X685055Y125890D01*
X685074Y131575D01*
X685064Y138755D01*
X685021Y144447D01*
X684990Y148817D01*
X685018Y152033D01*
X685150Y154262D01*
X685433Y155671D01*
X685913Y156427D01*
X686636Y156697D01*
X688442Y156742D01*
X689657Y156468D01*
X690386Y155883D01*
X690739Y154995D01*
X690746Y152340D01*
X690540Y148567D01*
X690505Y139814D01*
X690501Y132129D01*
X690519Y125437D01*
X690548Y119662D01*
X690579Y114728D01*
X690600Y110560D01*
X690601Y107081D01*
X690573Y104216D01*
X690504Y101889D01*
X690385Y100024D01*
X689954Y97375D01*
X689197Y95665D01*
X688033Y94285D01*
X687082Y93328D01*
X685687Y91937D01*
X683915Y90176D01*
X681829Y88109D01*
X676981Y83314D01*
X671667Y78067D01*
X666410Y72882D01*
X661734Y68273D01*
X659777Y66345D01*
X658162Y64753D01*
X656953Y63563D01*
X656217Y62838D01*
X655503Y62453D01*
X654649Y62455D01*
X652965Y63378D01*
X652056Y65127D01*
X652170Y66161D01*
X652811Y67222D01*
X656922Y71618D01*
X660515Y75161D01*
X663578Y78042D01*
X666100Y80448D01*
X668067Y82567D01*
X669468Y84590D01*
X670291Y86703D01*
X670523Y89096D01*
X670363Y106534D01*
X670407Y114937D01*
X670450Y122696D01*
X670428Y129485D01*
X670279Y134980D01*
X670136Y137139D01*
X669938Y138853D01*
X669677Y140081D01*
X669344Y140781D01*
X666427Y143598D01*
X663102Y146696D01*
X660365Y150200D01*
X659527Y152143D01*
X659209Y154233D01*
X659159Y169491D01*
X659211Y183511D01*
X659298Y196072D01*
X659335Y201738D01*
X659356Y206957D01*
X659354Y211702D01*
X659321Y215946D01*
X659248Y219661D01*
X659128Y222820D01*
X658952Y225396D01*
X658711Y227360D01*
X658399Y228687D01*
X658007Y229348D01*
X655412Y231609D01*
X653669Y233891D01*
X652692Y236144D01*
X652396Y238322D01*
X652695Y240376D01*
X653505Y242259D01*
X654738Y243924D01*
X656311Y245321D01*
X660132Y247127D01*
X662210Y247439D01*
X664285Y247293D01*
X666271Y246643D01*
X668084Y245440D01*
X669639Y243636D01*
X670848Y241184D01*
X671442Y238273D01*
X671135Y235757D01*
X670179Y233601D01*
X668827Y231768D01*
X665946Y228929D01*
X664920Y227853D01*
X664508Y226958D01*
X664507Y226639D01*
X664507Y225830D01*
X664508Y223006D01*
X664511Y219022D01*
X664514Y214416D01*
X664518Y209722D01*
X664522Y205478D01*
X664526Y202221D01*
X664527Y201129D01*
X664527Y200486D01*
X672057Y422045D02*
X672072Y426102D01*
X672057Y422045D02*
X672004Y418887D01*
X671988Y416470D01*
X672086Y414633D01*
X672934Y412066D01*
X673837Y411016D01*
X675161Y409910D01*
X677380Y407838D01*
X678801Y405689D01*
X679504Y403518D01*
X679574Y401385D01*
X679090Y399346D01*
X678137Y397458D01*
X676795Y395780D01*
X675147Y394368D01*
X673276Y393281D01*
X671262Y392576D01*
X669189Y392310D01*
X667138Y392542D01*
X665191Y393327D01*
X663431Y394725D01*
X661940Y396793D01*
X660799Y399587D01*
X660355Y402363D01*
X660664Y404704D01*
X661513Y406685D01*
X662689Y408382D01*
X665174Y411225D01*
X666058Y412523D01*
X666419Y413838D01*
X666550Y420389D01*
X666649Y426139D01*
X666715Y431145D01*
X666748Y435463D01*
X666748Y439149D01*
X666715Y442259D01*
X666648Y444849D01*
X666546Y446975D01*
X666239Y450061D01*
X665791Y451965D01*
X664461Y454021D01*
X663532Y455005D01*
X662152Y456414D01*
X660388Y458186D01*
X658307Y460255D01*
X653454Y465038D01*
X648122Y470256D01*
X642841Y475403D01*
X638138Y479973D01*
X636169Y481883D01*
X634543Y483459D01*
X633327Y484638D01*
X632585Y485356D01*
X631064Y486739D01*
X629714Y487706D01*
X626790Y488676D01*
X624845Y488822D01*
X622332Y488837D01*
X619066Y488793D01*
X614862Y488760D01*
X604356Y488753D01*
X594465Y488744D01*
X585170Y488732D01*
X576454Y488720D01*
X568297Y488707D01*
X560681Y488693D01*
X553588Y488681D01*
X546998Y488669D01*
X540894Y488659D01*
X535257Y488651D01*
X530067Y488646D01*
X525308Y488644D01*
X517003Y488653D01*
X510195Y488681D01*
X504734Y488734D01*
X500472Y488817D01*
X497262Y488932D01*
X494953Y489086D01*
X493399Y489282D01*
X492450Y489526D01*
X491775Y490172D01*
X491549Y491958D01*
X491721Y493150D01*
X492267Y493859D01*
X493160Y494193D01*
X495886Y494176D01*
X499695Y493971D01*
X511503Y493956D01*
X522576Y493950D01*
X532941Y493950D01*
X542620Y493957D01*
X551637Y493969D01*
X560018Y493986D01*
X567785Y494006D01*
X574963Y494028D01*
X581577Y494051D01*
X587649Y494075D01*
X593205Y494098D01*
X598268Y494119D01*
X602863Y494137D01*
X607013Y494152D01*
X614077Y494166D01*
X619652Y494153D01*
X623931Y494106D01*
X627107Y494015D01*
X629373Y493873D01*
X630921Y493672D01*
X631944Y493404D01*
X633187Y492634D01*
X634200Y491713D01*
X635841Y490164D01*
X638015Y488079D01*
X640628Y485552D01*
X646789Y479540D01*
X653565Y472870D01*
X660197Y466287D01*
X663221Y463260D01*
X665925Y460533D01*
X668213Y458199D01*
X669990Y456351D01*
X671162Y455082D01*
X671634Y454484D01*
X671735Y454059D01*
X671823Y453193D01*
X671897Y451662D01*
X671957Y449238D01*
X672005Y445696D01*
X672039Y440810D01*
X672052Y437792D01*
X672062Y434354D01*
X672068Y430466D01*
X672072Y426102D01*
X68679Y135353D02*
X68584Y132625D01*
X68502Y130737D01*
X69078Y129206D01*
X69814Y128423D01*
X70955Y127547D01*
X74168Y124464D01*
X75313Y122590D01*
X76059Y120563D01*
X76337Y118438D01*
X76080Y116266D01*
X75218Y114099D01*
X73682Y111990D01*
X71891Y109678D01*
X71102Y107026D01*
X70960Y105109D01*
X70922Y102550D01*
X70939Y99162D01*
X70960Y94761D01*
X71273Y93348D01*
X72151Y91713D01*
X73507Y89893D01*
X75256Y87927D01*
X79587Y83706D01*
X84452Y79352D01*
X89163Y75166D01*
X93031Y71451D01*
X94432Y69864D01*
X95365Y68508D01*
X95741Y67420D01*
X95475Y66639D01*
X94208Y66001D01*
X92410Y65774D01*
X90585Y65984D01*
X89235Y66656D01*
X85078Y70664D01*
X81438Y74177D01*
X78278Y77229D01*
X75566Y79857D01*
X73266Y82095D01*
X71345Y83978D01*
X69768Y85540D01*
X68501Y86818D01*
X66758Y88659D01*
X65843Y89779D01*
X65394Y90981D01*
X65342Y97146D01*
X65484Y102601D01*
X65342Y104951D01*
X64905Y106991D01*
X64057Y108676D01*
X62686Y109963D01*
X60736Y111398D01*
X59256Y112865D01*
X57523Y115839D01*
X57121Y118759D01*
X57686Y121499D01*
X58849Y123933D01*
X60247Y125934D01*
X61513Y127377D01*
X62281Y128134D01*
X62625Y128822D01*
X62866Y130080D01*
X63020Y131833D01*
X63100Y134002D01*
X63104Y139282D01*
X62998Y145304D01*
X62902Y151449D01*
X62938Y157100D01*
X63227Y161641D01*
X63503Y163302D01*
X63887Y164454D01*
X65811Y168020D01*
X67673Y171171D01*
X70974Y176514D01*
X73308Y181060D01*
X73962Y183214D01*
X74195Y185385D01*
X74211Y191486D01*
X74242Y196836D01*
X74285Y201488D01*
X74333Y205496D01*
X74382Y208914D01*
X74427Y211794D01*
X74461Y214190D01*
X74482Y216157D01*
X74458Y219014D01*
X74316Y220793D01*
X73511Y222829D01*
X73054Y223134D01*
X72055Y223725D01*
X69291Y225911D01*
X67955Y227581D01*
X66936Y229684D01*
X66450Y232257D01*
X66710Y235336D01*
X67468Y237688D01*
X68592Y239524D01*
X70013Y240875D01*
X71662Y241770D01*
X73470Y242240D01*
X75370Y242315D01*
X79166Y241398D01*
X82499Y239261D01*
X84821Y236142D01*
X85430Y234289D01*
X85580Y232282D01*
X85202Y230149D01*
X84227Y227920D01*
X82813Y226142D01*
X81389Y224968D01*
X80283Y223838D01*
X79828Y222193D01*
X79771Y215046D01*
X79740Y208780D01*
X79729Y203329D01*
X79730Y198630D01*
X79737Y194619D01*
X79742Y191232D01*
X79739Y188405D01*
X79721Y186072D01*
X79611Y182638D01*
X79358Y180417D01*
X78196Y177560D01*
X75234Y172650D01*
X73000Y168916D01*
X71388Y166172D01*
X70290Y164236D01*
X69600Y162924D01*
X69211Y162053D01*
X68910Y160900D01*
X68870Y160430D01*
X68836Y159540D01*
X68784Y156735D01*
X68748Y152947D01*
X68725Y148634D01*
X68701Y140280D01*
X68692Y137158D01*
X68679Y135353D01*
X375311Y120865D02*
X375511Y113648D01*
X375311Y120865D02*
X375102Y127238D01*
X374892Y132819D01*
X374690Y137659D01*
X374505Y141809D01*
X374346Y145320D01*
X374221Y148243D01*
X374138Y150629D01*
X374107Y152530D01*
X374137Y153995D01*
X374411Y155826D01*
X375030Y156531D01*
X376064Y156518D01*
X378866Y156010D01*
X381056Y155660D01*
X384306Y155431D01*
X387217Y155815D01*
X388983Y156233D01*
X391190Y156798D01*
X392187Y156874D01*
X392850Y156252D01*
X393240Y154565D01*
X393350Y153209D01*
X393415Y151450D01*
X393440Y149243D01*
X393434Y146543D01*
X393404Y143303D01*
X393358Y139478D01*
X393302Y135022D01*
X393244Y129890D01*
X393193Y124037D01*
X393154Y117416D01*
X393149Y113332D01*
X393161Y109676D01*
X393163Y103558D01*
X393024Y98869D01*
X392609Y95419D01*
X391781Y93015D01*
X390406Y91466D01*
X388346Y90581D01*
X385465Y90168D01*
X381971Y90157D01*
X379444Y90776D01*
X377723Y92131D01*
X376645Y94328D01*
X376047Y97473D01*
X375767Y101671D01*
X375643Y107027D01*
X375511Y113648D01*
X675733Y178640D02*
X676753Y180212D01*
X677694Y181389D01*
X679266Y183136D01*
X680309Y185029D01*
X680587Y186389D01*
X680680Y188216D01*
X680672Y191964D01*
X680665Y196960D01*
X680660Y203004D01*
X680655Y209894D01*
X680651Y217430D01*
X680647Y225411D01*
X680638Y241902D01*
X680627Y257758D01*
X680620Y264946D01*
X680611Y271373D01*
X680601Y276836D01*
X680588Y281136D01*
X680574Y284072D01*
X680565Y284965D01*
X680556Y285442D01*
X679880Y287087D01*
X678374Y288519D01*
X676621Y290057D01*
X675208Y292021D01*
X674280Y294640D01*
X673959Y297026D01*
X674173Y299165D01*
X674850Y301045D01*
X675917Y302652D01*
X677303Y303974D01*
X680743Y305708D01*
X684592Y306141D01*
X688273Y305167D01*
X689870Y304121D01*
X691209Y302683D01*
X692217Y300841D01*
X692823Y298582D01*
X692956Y295549D01*
X692457Y293064D01*
X691509Y291069D01*
X690296Y289509D01*
X687811Y287461D01*
X686908Y286859D01*
X686476Y286462D01*
X686389Y285999D01*
X686311Y285058D01*
X686242Y283671D01*
X686182Y281869D01*
X686087Y277139D01*
X686022Y271114D01*
X685982Y264040D01*
X685966Y256163D01*
X685987Y238982D01*
X686058Y221536D01*
X686103Y213328D01*
X686150Y205790D01*
X686195Y199170D01*
X686235Y193712D01*
X686267Y189661D01*
X686278Y188241D01*
X686286Y187264D01*
X686494Y185826D01*
X687045Y184887D01*
X688907Y183715D01*
X691337Y182158D01*
X692598Y180739D01*
X693801Y178629D01*
X694621Y176055D01*
X694719Y173678D01*
X694195Y171527D01*
X693147Y169635D01*
X691675Y168034D01*
X689876Y166754D01*
X687850Y165829D01*
X685697Y165289D01*
X683514Y165166D01*
X681401Y165491D01*
X679457Y166297D01*
X677781Y167615D01*
X676472Y169477D01*
X675628Y171914D01*
X675348Y174958D01*
X675733Y178640D01*
X157091Y107243D02*
X156615Y106202D01*
X157091Y107243D02*
X158264Y109131D01*
X159279Y110529D01*
X160669Y112304D01*
X162500Y114510D01*
X164840Y117204D01*
X166996Y119669D01*
X168646Y121609D01*
X171021Y124496D01*
X173150Y127022D01*
X174491Y128512D01*
X176214Y130345D01*
X177388Y131082D01*
X178435Y131034D01*
X180017Y130478D01*
X182306Y129242D01*
X185474Y127154D01*
X189694Y124041D01*
X192252Y122046D01*
X195137Y119731D01*
X196548Y118457D01*
X197423Y117345D01*
X197813Y116326D01*
X197771Y115331D01*
X196599Y113137D01*
X194322Y110211D01*
X191431Y106472D01*
X188845Y103132D01*
X186535Y100171D01*
X184471Y97572D01*
X180968Y93377D01*
X178104Y90391D01*
X175647Y88460D01*
X173364Y87429D01*
X171023Y87142D01*
X168392Y87444D01*
X165954Y88076D01*
X163863Y88946D01*
X160622Y91256D01*
X158460Y94091D01*
X157173Y97167D01*
X156551Y100200D01*
X156389Y102906D01*
X156479Y105001D01*
X156615Y106202D01*
X58795Y330314D02*
X58412Y332643D01*
X58795Y330314D02*
X59511Y328660D01*
X61567Y326482D01*
X63834Y324324D01*
X64814Y322694D01*
X65568Y320399D01*
X65935Y317268D01*
X65597Y314572D01*
X64657Y312309D01*
X63219Y310477D01*
X61385Y309073D01*
X59259Y308096D01*
X56945Y307543D01*
X54545Y307413D01*
X52163Y307703D01*
X49902Y308411D01*
X47866Y309535D01*
X46157Y311074D01*
X44880Y313024D01*
X44138Y315385D01*
X44033Y318153D01*
X44669Y321327D01*
X45581Y323512D01*
X46700Y325129D01*
X49164Y327220D01*
X51271Y328723D01*
X51943Y329605D01*
X52230Y330761D01*
X52262Y331465D01*
X52312Y332631D01*
X52445Y336091D01*
X52587Y340616D01*
X52693Y345678D01*
X52720Y350752D01*
X52622Y355312D01*
X52358Y358832D01*
X52149Y360038D01*
X51882Y360787D01*
X48912Y365169D01*
X45516Y369869D01*
X42713Y374319D01*
X41854Y376272D01*
X41527Y377950D01*
X41512Y382863D01*
X41556Y386710D01*
X41588Y389660D01*
X41537Y391882D01*
X41331Y393548D01*
X40900Y394827D01*
X39078Y396905D01*
X37001Y398930D01*
X35618Y401030D01*
X34865Y403153D01*
X34676Y405246D01*
X34987Y407257D01*
X35734Y409133D01*
X38272Y412272D01*
X41771Y414242D01*
X43719Y414659D01*
X45712Y414626D01*
X47687Y414092D01*
X49577Y413003D01*
X51318Y411308D01*
X52846Y408954D01*
X53799Y406084D01*
X53739Y403470D01*
X52939Y401128D01*
X51671Y399073D01*
X48817Y395884D01*
X47776Y394781D01*
X47356Y394025D01*
X47180Y389442D01*
X47066Y385802D01*
X47124Y382831D01*
X47461Y380250D01*
X48189Y377784D01*
X49417Y375156D01*
X51252Y372090D01*
X53806Y368310D01*
X55788Y365310D01*
X57139Y362864D01*
X57971Y360759D01*
X58399Y358776D01*
X58495Y354315D01*
X58389Y351404D01*
X58333Y347752D01*
X58338Y345234D01*
X58346Y343257D01*
X58366Y340203D01*
X58389Y337147D01*
X58401Y335166D01*
X58412Y332643D01*
X506424Y438651D02*
X508075Y438060D01*
X506424Y438651D02*
X504810Y439491D01*
X504307Y440165D01*
X504666Y440859D01*
X507399Y442418D01*
X509357Y443270D01*
X511332Y444069D01*
X514120Y445467D01*
X516996Y447539D01*
X518853Y449861D01*
X519907Y452338D01*
X520375Y454876D01*
X520420Y459763D01*
X520432Y461923D01*
X520726Y463770D01*
X521192Y464222D01*
X522032Y463990D01*
X523177Y463205D01*
X524555Y461997D01*
X530990Y455522D01*
X532166Y454528D01*
X533259Y453990D01*
X534443Y453858D01*
X535892Y454078D01*
X537780Y454600D01*
X540281Y455369D01*
X543570Y456334D01*
X547820Y457443D01*
X548919Y457264D01*
X549136Y456117D01*
X548689Y454253D01*
X547796Y451927D01*
X545544Y446906D01*
X544621Y444718D01*
X544123Y443083D01*
X544217Y441337D01*
X544917Y439372D01*
X547421Y435286D01*
X550216Y431833D01*
X551280Y430659D01*
X551885Y430020D01*
X552441Y429286D01*
X552515Y428793D01*
X551707Y428361D01*
X550440Y428370D01*
X549695Y428470D01*
X545554Y429171D01*
X542383Y429659D01*
X540040Y429961D01*
X538379Y430105D01*
X537259Y430118D01*
X536536Y430028D01*
X535708Y429645D01*
X535010Y428952D01*
X533843Y427563D01*
X530766Y423616D01*
X527805Y419644D01*
X526783Y418224D01*
X526288Y417488D01*
X525407Y416179D01*
X524736Y415766D01*
X524232Y416109D01*
X523852Y417069D01*
X523293Y420280D01*
X522719Y424279D01*
X521973Y427820D01*
X521083Y430444D01*
X519967Y432350D01*
X518541Y433736D01*
X516722Y434801D01*
X514427Y435744D01*
X511572Y436765D01*
X508075Y438060D01*
X448624Y143209D02*
X443971Y143511D01*
X448624Y143209D02*
X452407Y143060D01*
X455355Y142990D01*
X457508Y142921D01*
X458903Y142778D01*
X459578Y142484D01*
X459571Y141963D01*
X458919Y141138D01*
X457251Y139500D01*
X455853Y138308D01*
X453513Y136663D01*
X451184Y135008D01*
X449800Y133802D01*
X448151Y132144D01*
X447547Y130340D01*
X447838Y127651D01*
X449841Y121115D01*
X450919Y118018D01*
X451628Y115535D01*
X451650Y114041D01*
X451305Y113782D01*
X450670Y113911D01*
X448848Y114806D01*
X446729Y115991D01*
X442076Y118603D01*
X437669Y120490D01*
X435857Y120768D01*
X434464Y120395D01*
X430785Y117817D01*
X427540Y115339D01*
X424781Y113176D01*
X422561Y111544D01*
X420932Y110660D01*
X419947Y110740D01*
X419658Y112000D01*
X419791Y113141D01*
X420118Y114658D01*
X421032Y117971D01*
X421863Y120697D01*
X422473Y122967D01*
X422720Y124915D01*
X422465Y126674D01*
X421568Y128377D01*
X419888Y130155D01*
X417286Y132143D01*
X416320Y132759D01*
X414922Y133618D01*
X411738Y135710D01*
X410402Y136762D01*
X409537Y137700D01*
X409369Y138433D01*
X410123Y138871D01*
X421241Y140481D01*
X423761Y140992D01*
X425880Y141661D01*
X427451Y142545D01*
X428325Y143701D01*
X429900Y148253D01*
X431125Y152123D01*
X432074Y155253D01*
X432817Y157590D01*
X433428Y159075D01*
X433979Y159653D01*
X434541Y159267D01*
X435188Y157863D01*
X437077Y152245D01*
X438678Y147865D01*
X439601Y146193D01*
X440730Y144896D01*
X442156Y143995D01*
X443971Y143511D01*
X58359Y224381D02*
X58342Y234473D01*
X58359Y224381D02*
X58378Y215542D01*
X58398Y207865D01*
X58419Y201257D01*
X58439Y195629D01*
X58458Y190888D01*
X58475Y186942D01*
X58489Y183702D01*
X58499Y181075D01*
X58504Y178970D01*
X58498Y175961D01*
X58392Y172192D01*
X58107Y171085D01*
X57459Y170316D01*
X55561Y169742D01*
X53671Y170377D01*
X53034Y171119D01*
X52763Y172129D01*
X52677Y175361D01*
X52621Y179780D01*
X52590Y185197D01*
X52580Y191420D01*
X52584Y198261D01*
X52597Y205527D01*
X52628Y220578D01*
X52627Y235052D01*
X52602Y241596D01*
X52552Y247425D01*
X52473Y252349D01*
X52358Y256176D01*
X52202Y258718D01*
X52000Y259783D01*
X51558Y260024D01*
X50531Y260584D01*
X49135Y261491D01*
X47586Y262772D01*
X46098Y264455D01*
X44889Y266567D01*
X44172Y269134D01*
X44164Y272186D01*
X44811Y275036D01*
X45907Y277337D01*
X47375Y279114D01*
X49136Y280394D01*
X51113Y281202D01*
X53226Y281565D01*
X57551Y281062D01*
X61486Y279092D01*
X63113Y277623D01*
X64408Y275866D01*
X65293Y273847D01*
X65690Y271593D01*
X65521Y269129D01*
X64709Y266482D01*
X63841Y264865D01*
X62852Y263635D01*
X60797Y261953D01*
X59120Y260682D01*
X58395Y259066D01*
X58361Y256944D01*
X58340Y253817D01*
X58325Y246011D01*
X58327Y242067D01*
X58332Y238584D01*
X58338Y235931D01*
X58342Y234473D01*
X497808Y50692D02*
X537456Y50692D01*
X497808Y50692D02*
X496383Y50783D01*
X495496Y51242D01*
X494963Y52280D01*
X494812Y54346D01*
X495317Y55525D01*
X496592Y56056D01*
X498752Y56176D01*
X524085Y56128D01*
X536105Y56111D01*
X547632Y56098D01*
X558615Y56087D01*
X569009Y56078D01*
X578765Y56070D01*
X587834Y56061D01*
X596170Y56050D01*
X603724Y56037D01*
X610448Y56020D01*
X616294Y55999D01*
X621215Y55973D01*
X625163Y55940D01*
X628089Y55899D01*
X629946Y55850D01*
X630763Y55622D01*
X631310Y55083D01*
X631722Y53469D01*
X631441Y51800D01*
X630728Y50865D01*
X630353Y50818D01*
X629522Y50776D01*
X626607Y50705D01*
X622217Y50651D01*
X616587Y50611D01*
X609950Y50585D01*
X602541Y50571D01*
X586342Y50570D01*
X569861Y50595D01*
X562101Y50613D01*
X554972Y50632D01*
X548709Y50652D01*
X543546Y50669D01*
X539717Y50683D01*
X538376Y50688D01*
X537456Y50692D01*
X474732Y280718D02*
X476565Y285346D01*
X474732Y280718D02*
X472389Y276834D01*
X469621Y273645D01*
X466512Y271102D01*
X463147Y269156D01*
X459610Y267758D01*
X455987Y266859D01*
X452361Y266410D01*
X445442Y266666D01*
X442317Y267273D01*
X439529Y268134D01*
X437161Y269200D01*
X435299Y270422D01*
X434026Y271751D01*
X433429Y273138D01*
X433935Y273898D01*
X435675Y273993D01*
X438397Y273690D01*
X441845Y273254D01*
X445767Y272953D01*
X449909Y273053D01*
X454018Y273821D01*
X457839Y275522D01*
X459291Y276864D01*
X460951Y279209D01*
X462553Y282417D01*
X463828Y286344D01*
X464511Y290848D01*
X464335Y295786D01*
X463033Y301015D01*
X460337Y306393D01*
X459487Y308499D01*
X459244Y311225D01*
X459740Y312210D01*
X460856Y312618D01*
X462748Y312204D01*
X465571Y310725D01*
X468164Y308920D01*
X470358Y307033D01*
X473672Y303110D01*
X475761Y299145D01*
X476875Y295328D01*
X477263Y291850D01*
X477174Y288901D01*
X476858Y286669D01*
X476565Y285346D01*
X108149Y304161D02*
X102357Y302118D01*
X108149Y304161D02*
X110641Y305445D01*
X112861Y307138D01*
X114804Y309414D01*
X116470Y312448D01*
X117854Y316415D01*
X118955Y321489D01*
X119303Y323532D01*
X119545Y324782D01*
X119715Y325320D01*
X119853Y325227D01*
X119994Y324584D01*
X120176Y323470D01*
X120811Y320154D01*
X122057Y315925D01*
X124210Y311427D01*
X127568Y307305D01*
X129792Y305586D01*
X132429Y304204D01*
X135427Y303132D01*
X137535Y302652D01*
X139648Y302200D01*
X142659Y301214D01*
X143365Y300762D01*
X143166Y300327D01*
X142229Y299888D01*
X140725Y299426D01*
X136686Y298359D01*
X132398Y296971D01*
X130101Y295771D01*
X128139Y294222D01*
X125099Y290397D01*
X123043Y286138D01*
X121737Y282085D01*
X120945Y278878D01*
X120669Y277792D01*
X120433Y277159D01*
X120209Y277057D01*
X119966Y277567D01*
X119676Y278769D01*
X119309Y280744D01*
X117833Y286247D01*
X115702Y290438D01*
X113117Y293508D01*
X110280Y295650D01*
X107390Y297054D01*
X104649Y297913D01*
X102258Y298420D01*
X100417Y298765D01*
X98074Y299439D01*
X97141Y300063D01*
X97282Y300626D01*
X98161Y301117D01*
X100795Y301833D01*
X101878Y302035D01*
X102357Y302118D01*
X216128Y337362D02*
X217227Y342304D01*
X219449Y346814D01*
X222643Y350904D01*
X226657Y354584D01*
X231340Y357866D01*
X236540Y360759D01*
X242106Y363274D01*
X247887Y365422D01*
X259488Y368660D01*
X265004Y369770D01*
X270130Y370556D01*
X274713Y371028D01*
X278602Y371197D01*
X281646Y371072D01*
X283693Y370666D01*
X284675Y370064D01*
X284476Y369420D01*
X283222Y368716D01*
X281038Y367936D01*
X278051Y367062D01*
X274386Y366079D01*
X270170Y364967D01*
X265528Y363712D01*
X255470Y360699D01*
X245221Y356904D01*
X240339Y354671D01*
X235786Y352192D01*
X231690Y349448D01*
X228175Y346425D01*
X226227Y344293D01*
X224721Y342256D01*
X222827Y338498D01*
X222084Y335216D01*
X222080Y332474D01*
X222406Y330335D01*
X222651Y328864D01*
X222406Y328124D01*
X221259Y328179D01*
X219685Y328910D01*
X218472Y330041D01*
X216940Y332940D01*
X216285Y335755D01*
X216168Y336780D01*
X216128Y337362D01*
X583639Y457655D02*
X584995Y457983D01*
X587255Y458498D01*
X590298Y459136D01*
X594000Y459832D01*
X598242Y460522D01*
X602899Y461140D01*
X612977Y461903D01*
X617118Y462023D01*
X620763Y462112D01*
X623945Y462170D01*
X626693Y462198D01*
X631020Y462160D01*
X633996Y461998D01*
X635873Y461710D01*
X636905Y461296D01*
X637443Y460082D01*
X637328Y457845D01*
X636885Y456339D01*
X636111Y455433D01*
X635001Y454991D01*
X631760Y454971D01*
X627135Y455216D01*
X619092Y455119D01*
X611504Y454786D01*
X604372Y454251D01*
X597700Y453550D01*
X591490Y452716D01*
X585744Y451784D01*
X580465Y450788D01*
X575655Y449764D01*
X571316Y448745D01*
X567452Y447766D01*
X564064Y446863D01*
X561155Y446069D01*
X558728Y445418D01*
X556784Y444947D01*
X555327Y444688D01*
X554358Y444677D01*
X553365Y445153D01*
X553360Y446057D01*
X554513Y447338D01*
X556996Y448946D01*
X558790Y449857D01*
X560979Y450832D01*
X563587Y451863D01*
X566634Y452945D01*
X570141Y454072D01*
X574130Y455236D01*
X578622Y456433D01*
X583639Y457655D01*
X283073Y350077D02*
X274001Y344092D01*
X283073Y350077D02*
X291947Y355292D01*
X300337Y359716D01*
X307953Y363329D01*
X314507Y366111D01*
X317297Y367182D01*
X319713Y368038D01*
X321720Y368676D01*
X323282Y369092D01*
X324362Y369285D01*
X324925Y369251D01*
X325760Y368435D01*
X325545Y367393D01*
X324380Y366122D01*
X322362Y364619D01*
X319588Y362880D01*
X316157Y360902D01*
X312166Y358682D01*
X307712Y356217D01*
X297810Y350538D01*
X287232Y343839D01*
X276760Y336093D01*
X271809Y331820D01*
X267177Y327276D01*
X266426Y326672D01*
X264930Y326405D01*
X263930Y326781D01*
X262778Y327698D01*
X261486Y329311D01*
X260064Y331770D01*
X260260Y332856D01*
X261476Y334385D01*
X263422Y336201D01*
X265810Y338147D01*
X270756Y341801D01*
X272736Y343195D01*
X274001Y344092D01*
X627755Y265101D02*
X628261Y263816D01*
X627755Y265101D02*
X626693Y267370D01*
X624872Y270085D01*
X622086Y272714D01*
X620381Y273705D01*
X617905Y274850D01*
X615205Y275870D01*
X612831Y276483D01*
X611466Y276736D01*
X610512Y277001D01*
X609692Y277567D01*
X610087Y278184D01*
X611410Y278855D01*
X615703Y280370D01*
X620288Y282137D01*
X622201Y283294D01*
X623842Y284748D01*
X626400Y288265D01*
X628158Y292121D01*
X629311Y295754D01*
X630053Y298597D01*
X630331Y299546D01*
X630579Y300086D01*
X630821Y300146D01*
X631083Y299655D01*
X631388Y298544D01*
X631761Y296741D01*
X632493Y293645D01*
X633406Y290959D01*
X635679Y286691D01*
X638382Y283681D01*
X641320Y281672D01*
X644296Y280409D01*
X647112Y279634D01*
X649573Y279093D01*
X651481Y278529D01*
X652136Y278054D01*
X651903Y277590D01*
X650953Y277117D01*
X649454Y276616D01*
X641376Y273937D01*
X639101Y272579D01*
X637209Y270864D01*
X634423Y266703D01*
X632719Y262137D01*
X631796Y257848D01*
X631355Y254518D01*
X631222Y253426D01*
X631097Y252830D01*
X630943Y252814D01*
X630721Y253465D01*
X630396Y254867D01*
X629929Y257106D01*
X629538Y259119D01*
X629270Y260487D01*
X628915Y261842D01*
X628261Y263816D01*
X472291Y184837D02*
X461969Y183561D01*
X452605Y182249D01*
X444161Y180926D01*
X436596Y179621D01*
X429869Y178359D01*
X423940Y177167D01*
X418769Y176072D01*
X414316Y175101D01*
X410541Y174281D01*
X407402Y173638D01*
X404861Y173199D01*
X402875Y172990D01*
X401407Y173040D01*
X400414Y173373D01*
X399857Y174017D01*
X399696Y174999D01*
X399915Y175554D01*
X400532Y176147D01*
X402858Y177426D01*
X406464Y178805D01*
X411141Y180248D01*
X416681Y181723D01*
X422874Y183196D01*
X436380Y186000D01*
X449987Y188393D01*
X456304Y189351D01*
X462019Y190106D01*
X466922Y190623D01*
X470804Y190869D01*
X473456Y190810D01*
X474667Y190414D01*
X475487Y188944D01*
X475689Y187744D01*
X474835Y186054D01*
X473304Y185150D01*
X472291Y184837D01*
X338471Y184629D02*
X337399Y184852D01*
X338471Y184629D02*
X340095Y184299D01*
X344604Y183355D01*
X355893Y180583D01*
X361092Y178901D01*
X363234Y178018D01*
X364939Y177120D01*
X366109Y176214D01*
X366644Y175311D01*
X366447Y174420D01*
X365417Y173549D01*
X363888Y172935D01*
X362041Y172933D01*
X359163Y173509D01*
X357114Y174004D01*
X354540Y174631D01*
X351352Y175385D01*
X347461Y176263D01*
X342777Y177261D01*
X337211Y178373D01*
X330674Y179597D01*
X323078Y180927D01*
X314332Y182360D01*
X304349Y183891D01*
X301015Y184360D01*
X298361Y184725D01*
X296314Y185064D01*
X294806Y185458D01*
X293763Y185986D01*
X293117Y186728D01*
X292796Y187764D01*
X292729Y189174D01*
X292987Y190216D01*
X293658Y190837D01*
X295955Y191139D01*
X302410Y190193D01*
X308269Y189564D01*
X312882Y189069D01*
X316659Y188636D01*
X320011Y188192D01*
X323350Y187664D01*
X327086Y186980D01*
X331632Y186067D01*
X337399Y184852D01*
X125257Y134522D02*
X124017Y137280D01*
X122712Y139572D01*
X119975Y142939D01*
X117184Y144978D01*
X114475Y146046D01*
X111988Y146497D01*
X109861Y146689D01*
X108230Y146978D01*
X107235Y147719D01*
X107600Y148388D01*
X109343Y148991D01*
X112057Y149783D01*
X115334Y151019D01*
X118769Y152957D01*
X121953Y155852D01*
X124481Y159960D01*
X125372Y162548D01*
X125946Y165536D01*
X126330Y167763D01*
X126738Y168578D01*
X127179Y168249D01*
X127662Y167043D01*
X128799Y163066D01*
X130226Y158784D01*
X131349Y156735D01*
X132774Y154983D01*
X136242Y152263D01*
X140047Y150411D01*
X143608Y149217D01*
X146342Y148468D01*
X147218Y148195D01*
X147669Y147953D01*
X147623Y147718D01*
X147007Y147462D01*
X145748Y147159D01*
X143774Y146782D01*
X138662Y145354D01*
X134849Y143299D01*
X132134Y140826D01*
X130313Y138145D01*
X129185Y135465D01*
X128548Y132996D01*
X128199Y130946D01*
X127937Y129527D01*
X127568Y128795D01*
X127154Y128881D01*
X126297Y130646D01*
X125590Y133100D01*
X125363Y134047D01*
X125257Y134522D01*
X591235Y444395D02*
X593954Y444531D01*
X596100Y444663D01*
X599479Y444903D01*
X602991Y445083D01*
X605303Y445141D01*
X608254Y445172D01*
X613820Y445198D01*
X618081Y445198D01*
X621215Y445143D01*
X623399Y445006D01*
X624810Y444761D01*
X625625Y444378D01*
X626180Y443095D01*
X626292Y441487D01*
X626203Y440255D01*
X625356Y438731D01*
X623505Y438142D01*
X620517Y438106D01*
X613132Y438287D01*
X606272Y438360D01*
X599925Y438340D01*
X594078Y438242D01*
X588717Y438081D01*
X583830Y437869D01*
X579404Y437624D01*
X575426Y437358D01*
X571882Y437087D01*
X568761Y436825D01*
X563731Y436386D01*
X560233Y436159D01*
X558164Y436261D01*
X556441Y436957D01*
X556106Y437940D01*
X556503Y438508D01*
X557300Y439112D01*
X558516Y439738D01*
X560168Y440376D01*
X562274Y441011D01*
X564852Y441634D01*
X567920Y442230D01*
X571495Y442788D01*
X575597Y443295D01*
X580242Y443741D01*
X585449Y444111D01*
X591235Y444395D01*
X246225Y322282D02*
X243911Y320333D01*
X246225Y322282D02*
X248117Y323855D01*
X249676Y325021D01*
X250993Y325744D01*
X252158Y325992D01*
X253262Y325732D01*
X254392Y324929D01*
X255641Y323551D01*
X256207Y322021D01*
X255524Y320369D01*
X253687Y318396D01*
X250796Y315905D01*
X246946Y312698D01*
X242235Y308578D01*
X236761Y303347D01*
X230621Y296808D01*
X228549Y294273D01*
X227139Y292116D01*
X226320Y290307D01*
X226017Y288815D01*
X226160Y287610D01*
X226675Y286661D01*
X228536Y285413D01*
X231021Y284828D01*
X233551Y284663D01*
X235550Y284675D01*
X236439Y284622D01*
X236894Y283794D01*
X236895Y282986D01*
X235762Y281527D01*
X233493Y280440D01*
X230540Y279916D01*
X227357Y280147D01*
X224396Y281327D01*
X222111Y283646D01*
X221363Y285293D01*
X220954Y287297D01*
X220852Y288819D01*
X220991Y291009D01*
X221674Y293905D01*
X223207Y297546D01*
X225893Y301971D01*
X227763Y304490D01*
X230036Y307218D01*
X232749Y310162D01*
X235941Y313326D01*
X239649Y316715D01*
X243911Y320333D01*
X282683Y427444D02*
X283511Y427212D01*
X284891Y426820D01*
X286741Y426281D01*
X288977Y425611D01*
X294281Y423940D01*
X300143Y421929D01*
X305901Y419701D01*
X310897Y417376D01*
X312902Y416215D01*
X314469Y415077D01*
X315516Y413975D01*
X315959Y412926D01*
X315891Y411769D01*
X315004Y411427D01*
X314097Y411552D01*
X312799Y411868D01*
X311046Y412374D01*
X308777Y413064D01*
X305929Y413936D01*
X302440Y414985D01*
X298248Y416208D01*
X293290Y417601D01*
X287505Y419160D01*
X280829Y420883D01*
X273201Y422764D01*
X264557Y424800D01*
X261843Y425396D01*
X258712Y426085D01*
X252522Y427765D01*
X250124Y428769D01*
X248630Y429890D01*
X248370Y431135D01*
X248806Y431806D01*
X249674Y432510D01*
X251768Y433465D01*
X253588Y433668D01*
X256332Y433537D01*
X260307Y432962D01*
X262852Y432472D01*
X265820Y431829D01*
X269248Y431019D01*
X273176Y430027D01*
X277642Y428840D01*
X282683Y427444D01*
X350390Y207702D02*
X351569Y207133D01*
X353955Y205958D01*
X357309Y204217D01*
X361392Y201948D01*
X365965Y199188D01*
X370788Y195977D01*
X375622Y192353D01*
X380227Y188354D01*
X380516Y187780D01*
X380342Y187188D01*
X379545Y186945D01*
X377964Y187419D01*
X371100Y190609D01*
X365047Y193329D01*
X359736Y195623D01*
X355095Y197534D01*
X351055Y199104D01*
X347544Y200378D01*
X344492Y201397D01*
X341828Y202204D01*
X337382Y203358D01*
X333643Y204182D01*
X330045Y205020D01*
X326023Y206217D01*
X325257Y206894D01*
X324601Y208224D01*
X323767Y211897D01*
X323821Y215347D01*
X324273Y216398D01*
X325060Y216685D01*
X328135Y215960D01*
X331778Y214851D01*
X339684Y212020D01*
X343405Y210570D01*
X346610Y209277D01*
X349029Y208275D01*
X350390Y207702D01*
X144373Y260765D02*
X144095Y261597D01*
X144480Y261822D01*
X145410Y262025D01*
X146801Y262309D01*
X148570Y262782D01*
X150631Y263548D01*
X152903Y264712D01*
X155300Y266381D01*
X157739Y268659D01*
X159122Y270714D01*
X160239Y273315D01*
X161864Y278556D01*
X162467Y280398D01*
X162994Y281186D01*
X163244Y281061D01*
X163493Y280523D01*
X163747Y279523D01*
X164011Y278009D01*
X164789Y274343D01*
X165870Y271303D01*
X167200Y268827D01*
X168725Y266853D01*
X172144Y264166D01*
X175693Y262748D01*
X178943Y262108D01*
X181460Y261753D01*
X182812Y261191D01*
X182916Y260677D01*
X182568Y259928D01*
X181455Y259287D01*
X179338Y258725D01*
X176555Y258044D01*
X173441Y257042D01*
X170335Y255520D01*
X167574Y253277D01*
X165493Y250115D01*
X164813Y248126D01*
X164431Y245833D01*
X164311Y244778D01*
X163978Y242983D01*
X163411Y241875D01*
X163034Y242024D01*
X162591Y242882D01*
X161136Y248037D01*
X160271Y250758D01*
X158989Y253388D01*
X157049Y255786D01*
X154208Y257811D01*
X150222Y259323D01*
X147724Y259842D01*
X144848Y260180D01*
X144373Y260765D01*
X441989Y207414D02*
X442550Y209898D01*
X441989Y207414D02*
X440947Y206171D01*
X439202Y205538D01*
X436537Y204883D01*
X432239Y203696D01*
X428450Y202624D01*
X422114Y200737D01*
X416964Y199049D01*
X412434Y197387D01*
X407956Y195578D01*
X402966Y193447D01*
X396895Y190823D01*
X393278Y189272D01*
X389178Y187532D01*
X388047Y187139D01*
X387409Y187108D01*
X387237Y187408D01*
X387502Y188006D01*
X388178Y188870D01*
X389238Y189967D01*
X392398Y192734D01*
X396763Y196049D01*
X402116Y199654D01*
X408238Y203292D01*
X414910Y206703D01*
X418064Y208110D01*
X422061Y209785D01*
X431078Y213285D01*
X435347Y214784D01*
X438954Y215897D01*
X441523Y216460D01*
X442301Y216485D01*
X442679Y216311D01*
X442881Y214970D01*
X442757Y213196D01*
X442660Y211774D01*
X442550Y209898D01*
X311236Y472170D02*
X308284Y474453D01*
X311236Y472170D02*
X314143Y470569D01*
X316802Y469501D01*
X319011Y468816D01*
X320566Y468366D01*
X321265Y468000D01*
X320905Y467570D01*
X319283Y466926D01*
X315669Y465669D01*
X312703Y464516D01*
X310294Y463285D01*
X308351Y461795D01*
X306787Y459867D01*
X305510Y457318D01*
X304430Y453968D01*
X303459Y449637D01*
X302678Y448677D01*
X302022Y448890D01*
X301710Y449523D01*
X301440Y450642D01*
X300595Y454365D01*
X299495Y457450D01*
X298187Y459957D01*
X296718Y461950D01*
X293488Y464641D01*
X290181Y466023D01*
X287175Y466593D01*
X284849Y466851D01*
X283579Y467294D01*
X283459Y467741D01*
X283744Y468422D01*
X284625Y468892D01*
X286382Y469297D01*
X288762Y469877D01*
X291510Y470873D01*
X294373Y472526D01*
X297098Y475075D01*
X299430Y478762D01*
X300370Y481107D01*
X301116Y483826D01*
X301520Y485861D01*
X301733Y487007D01*
X301948Y487523D01*
X302354Y487666D01*
X303014Y487478D01*
X303351Y486802D01*
X303539Y485673D01*
X303750Y484126D01*
X304158Y482196D01*
X304934Y479917D01*
X306252Y477325D01*
X308284Y474453D01*
X452520Y201063D02*
X455195Y201368D01*
X457239Y201544D01*
X458739Y201604D01*
X459779Y201556D01*
X460821Y201180D01*
X461049Y200499D01*
X461086Y198881D01*
X460961Y197640D01*
X460121Y196053D01*
X458314Y195268D01*
X455328Y194816D01*
X450243Y194182D01*
X445757Y193586D01*
X441787Y193016D01*
X438248Y192461D01*
X432124Y191352D01*
X426709Y190167D01*
X421328Y188815D01*
X415304Y187206D01*
X411840Y186276D01*
X407962Y185248D01*
X403585Y184110D01*
X398625Y182850D01*
X396593Y182400D01*
X395195Y182220D01*
X394380Y182283D01*
X394098Y182561D01*
X394298Y183030D01*
X394928Y183661D01*
X397279Y185306D01*
X400742Y187283D01*
X404912Y189379D01*
X413742Y193077D01*
X421307Y195547D01*
X428088Y197409D01*
X434089Y198758D01*
X439314Y199685D01*
X443766Y200286D01*
X447448Y200654D01*
X450365Y200881D01*
X452520Y201063D01*
X346383Y195366D02*
X336472Y198107D01*
X346383Y195366D02*
X354932Y192437D01*
X358644Y190968D01*
X361956Y189531D01*
X364845Y188151D01*
X367292Y186856D01*
X369276Y185671D01*
X370777Y184623D01*
X371775Y183737D01*
X372249Y183041D01*
X372179Y182560D01*
X371545Y182320D01*
X370325Y182349D01*
X368501Y182671D01*
X362702Y184120D01*
X357566Y185636D01*
X347491Y188758D01*
X341656Y190312D01*
X334692Y191823D01*
X330647Y192555D01*
X326152Y193267D01*
X321151Y193954D01*
X315588Y194614D01*
X311447Y195257D01*
X308610Y196287D01*
X307018Y197941D01*
X306610Y200461D01*
X306953Y201078D01*
X307856Y201492D01*
X309242Y201724D01*
X311034Y201796D01*
X315531Y201548D01*
X320739Y200921D01*
X326047Y200089D01*
X330846Y199227D01*
X334524Y198509D01*
X335752Y198257D01*
X336472Y198107D01*
X602687Y477558D02*
X605957Y478158D01*
X608824Y478729D01*
X613407Y479585D01*
X615150Y479770D01*
X616546Y479727D01*
X617610Y479406D01*
X618354Y478757D01*
X619191Y477216D01*
X619051Y476131D01*
X617851Y475317D01*
X615509Y474589D01*
X611942Y473765D01*
X607067Y472660D01*
X600803Y471089D01*
X597124Y470072D01*
X593067Y468869D01*
X589770Y467844D01*
X586868Y466914D01*
X582020Y465281D01*
X578076Y463854D01*
X574586Y462518D01*
X571102Y461156D01*
X567176Y459653D01*
X562360Y457893D01*
X559477Y456880D01*
X556204Y455760D01*
X554368Y455469D01*
X553200Y455883D01*
X552901Y456801D01*
X553671Y458025D01*
X555819Y459800D01*
X558471Y461551D01*
X564959Y464941D01*
X572481Y468107D01*
X580383Y470964D01*
X588009Y473424D01*
X594705Y475400D01*
X597499Y476181D01*
X599816Y476807D01*
X601572Y477270D01*
X602687Y477558D01*
X604200Y393434D02*
X600332Y392631D01*
X597154Y391629D01*
X594598Y390464D01*
X592594Y389170D01*
X591074Y387782D01*
X589969Y386334D01*
X588726Y383397D01*
X588314Y380637D01*
X588182Y378330D01*
X587778Y376755D01*
X586549Y376188D01*
X585684Y376802D01*
X585319Y378411D01*
X585040Y380731D01*
X584434Y383475D01*
X583087Y386358D01*
X580584Y389095D01*
X578771Y390318D01*
X576513Y391398D01*
X573760Y392299D01*
X570459Y392984D01*
X568899Y393249D01*
X567929Y393470D01*
X567491Y393666D01*
X567526Y393859D01*
X568777Y394321D01*
X571211Y395024D01*
X574355Y396137D01*
X577739Y397828D01*
X580889Y400268D01*
X583334Y403623D01*
X584347Y405741D01*
X584879Y407217D01*
X585178Y408753D01*
X585491Y411049D01*
X585743Y412822D01*
X585930Y413973D01*
X586075Y414561D01*
X586200Y414647D01*
X586481Y413549D01*
X586955Y411158D01*
X587801Y407952D01*
X589202Y404411D01*
X591337Y401012D01*
X594387Y398235D01*
X596844Y396832D01*
X598913Y395958D01*
X600611Y395464D01*
X601958Y395198D01*
X603671Y394757D01*
X604074Y394280D01*
X604200Y393434D01*
X360025Y254177D02*
X360202Y253490D01*
X360025Y254177D02*
X359682Y255371D01*
X358490Y258707D01*
X356599Y262351D01*
X353986Y265154D01*
X351373Y266593D01*
X348666Y267638D01*
X346120Y268377D01*
X343992Y268897D01*
X342538Y269286D01*
X342013Y269629D01*
X342674Y270014D01*
X344777Y270529D01*
X345781Y270760D01*
X347465Y271261D01*
X349603Y272112D01*
X351968Y273395D01*
X354335Y275190D01*
X356477Y277577D01*
X358168Y280638D01*
X359182Y284452D01*
X359255Y284880D01*
X359439Y285817D01*
X360040Y288019D01*
X360407Y288683D01*
X360786Y288656D01*
X361152Y287637D01*
X361480Y285326D01*
X362048Y282176D01*
X363031Y279495D01*
X364352Y277243D01*
X365932Y275379D01*
X369563Y272653D01*
X373301Y270994D01*
X376527Y270078D01*
X378618Y269583D01*
X379044Y269392D01*
X378954Y269185D01*
X378270Y268921D01*
X376914Y268559D01*
X372494Y267325D01*
X369232Y266061D01*
X366906Y264676D01*
X365293Y263080D01*
X364171Y261182D01*
X363317Y258893D01*
X362511Y256120D01*
X361528Y252775D01*
X360202Y253490D01*
X591493Y337258D02*
X592907Y341580D01*
X593875Y345101D01*
X594261Y346125D01*
X594617Y346424D01*
X594972Y345823D01*
X595352Y344149D01*
X596094Y340860D01*
X597026Y338127D01*
X598115Y335895D01*
X599328Y334109D01*
X601993Y331663D01*
X604754Y330355D01*
X607346Y329755D01*
X609504Y329429D01*
X610961Y328944D01*
X611452Y327869D01*
X610836Y326918D01*
X609306Y326525D01*
X607116Y326259D01*
X604523Y325691D01*
X601782Y324390D01*
X599147Y321925D01*
X597950Y320121D01*
X596876Y317866D01*
X595956Y315103D01*
X595222Y311781D01*
X594896Y310584D01*
X594529Y310263D01*
X594145Y310601D01*
X593771Y311382D01*
X593151Y313408D01*
X592955Y314221D01*
X592869Y314612D01*
X592206Y316991D01*
X591328Y319022D01*
X589077Y322166D01*
X586417Y324294D01*
X583650Y325655D01*
X581078Y326498D01*
X579002Y327072D01*
X577724Y327627D01*
X577547Y328412D01*
X578261Y329170D01*
X579309Y329406D01*
X582327Y329556D01*
X584257Y330090D01*
X586442Y331345D01*
X588860Y333631D01*
X591493Y337258D01*
X575707Y140930D02*
X574143Y140449D01*
X575707Y140930D02*
X578255Y141632D01*
X581478Y142251D01*
X585066Y142483D01*
X588711Y142024D01*
X592102Y140569D01*
X593606Y139373D01*
X594931Y137814D01*
X596037Y135854D01*
X596887Y133456D01*
X596911Y132614D01*
X596532Y131846D01*
X594706Y130549D01*
X591691Y129587D01*
X587767Y128982D01*
X583215Y128758D01*
X578315Y128938D01*
X573348Y129544D01*
X568596Y130600D01*
X566432Y131338D01*
X564950Y132114D01*
X564073Y132915D01*
X563729Y133731D01*
X564342Y135360D01*
X566194Y136908D01*
X571247Y139394D01*
X573261Y140146D01*
X574143Y140449D01*
X362035Y346875D02*
X362335Y347606D01*
X362035Y346875D02*
X361537Y345748D01*
X360051Y342559D01*
X358078Y338558D01*
X355819Y334265D01*
X353473Y330198D01*
X351243Y326877D01*
X349328Y324820D01*
X348552Y324429D01*
X347929Y324548D01*
X346102Y326050D01*
X344979Y327200D01*
X343843Y328311D01*
X341975Y329698D01*
X340628Y330742D01*
X339917Y331705D01*
X339777Y332674D01*
X340143Y333730D01*
X340951Y334959D01*
X342136Y336444D01*
X343635Y338270D01*
X345382Y340519D01*
X345964Y341295D01*
X347020Y342665D01*
X350131Y346444D01*
X353871Y350369D01*
X355713Y351922D01*
X357395Y352954D01*
X359662Y353676D01*
X361198Y353562D01*
X362132Y352831D01*
X362595Y351704D01*
X362628Y349134D01*
X362457Y348130D01*
X362335Y347606D01*
X550790Y242233D02*
X553127Y240203D01*
X554701Y238048D01*
X555585Y235833D01*
X555849Y233618D01*
X555565Y231467D01*
X554805Y229442D01*
X553640Y227606D01*
X552141Y226020D01*
X550380Y224747D01*
X548429Y223849D01*
X546357Y223390D01*
X544238Y223431D01*
X542143Y224034D01*
X540142Y225263D01*
X538308Y227179D01*
X536711Y229845D01*
X536144Y231931D01*
X536139Y234480D01*
X536749Y237183D01*
X538023Y239733D01*
X540013Y241822D01*
X542770Y243140D01*
X546345Y243380D01*
X548456Y242999D01*
X550790Y242233D01*
X205105Y124071D02*
X204222Y123182D01*
X203301Y122812D01*
X202163Y123007D01*
X200627Y123808D01*
X198513Y125261D01*
X195641Y127409D01*
X191829Y130296D01*
X186899Y133965D01*
X184260Y135798D01*
X182638Y137111D01*
X182190Y138443D01*
X182456Y139284D01*
X183075Y140331D01*
X185018Y143177D01*
X186414Y144785D01*
X187735Y145157D01*
X189455Y144294D01*
X189785Y144075D01*
X190505Y143606D01*
X192875Y142047D01*
X196099Y139875D01*
X199708Y137348D01*
X203233Y134724D01*
X206207Y132262D01*
X208161Y130218D01*
X208610Y129435D01*
X208628Y128853D01*
X208012Y127874D01*
X207000Y126528D01*
X206183Y125464D01*
X205105Y124071D01*
X466009Y405677D02*
X464952Y408563D01*
X463780Y410926D01*
X462520Y412819D01*
X461201Y414296D01*
X458497Y416217D01*
X455894Y417120D01*
X453618Y417437D01*
X451894Y417596D01*
X450948Y418030D01*
X451005Y419169D01*
X451741Y419819D01*
X453129Y420164D01*
X454988Y420506D01*
X457138Y421144D01*
X459395Y422377D01*
X461581Y424506D01*
X463512Y427829D01*
X464326Y430033D01*
X465009Y432648D01*
X465206Y433370D01*
X465688Y434441D01*
X466371Y434596D01*
X466763Y433935D01*
X467174Y432571D01*
X467973Y429829D01*
X468943Y427537D01*
X471258Y424133D01*
X473848Y422016D01*
X476444Y420840D01*
X478775Y420261D01*
X480572Y419934D01*
X481563Y419514D01*
X481480Y418658D01*
X480705Y418132D01*
X479335Y417826D01*
X475461Y416981D01*
X473280Y415996D01*
X471152Y414340D01*
X469238Y411790D01*
X467701Y408123D01*
X467212Y406449D01*
X466959Y405571D01*
X466655Y405176D01*
X466009Y405677D01*
X454493Y358733D02*
X457328Y356386D01*
X454493Y358733D02*
X453347Y359735D01*
X452729Y360286D01*
X451131Y361763D01*
X450082Y362806D01*
X449029Y363854D01*
X447420Y365343D01*
X445928Y366792D01*
X445110Y367841D01*
X444903Y368520D01*
X445245Y368856D01*
X446071Y368879D01*
X447318Y368618D01*
X450827Y367360D01*
X455267Y365311D01*
X460132Y362703D01*
X464918Y359768D01*
X469122Y356736D01*
X471499Y354782D01*
X473300Y353184D01*
X474570Y351892D01*
X475353Y350855D01*
X475695Y350022D01*
X475639Y349341D01*
X474515Y348234D01*
X471992Y346923D01*
X469970Y346398D01*
X468252Y346598D01*
X466640Y347465D01*
X464938Y348937D01*
X462950Y350954D01*
X460479Y353457D01*
X457328Y356386D01*
X171485Y206328D02*
X170000Y208873D01*
X171485Y206328D02*
X172653Y204734D01*
X174137Y203482D01*
X176566Y201965D01*
X177641Y201141D01*
X177744Y200494D01*
X177079Y199859D01*
X175847Y199069D01*
X174254Y197958D01*
X172502Y196359D01*
X170794Y194106D01*
X169335Y191034D01*
X169025Y189391D01*
X168679Y187301D01*
X168109Y186066D01*
X167681Y186175D01*
X167128Y186985D01*
X166669Y189020D01*
X166031Y191775D01*
X165223Y193344D01*
X163867Y194997D01*
X161791Y196704D01*
X158830Y198432D01*
X157410Y198785D01*
X155462Y199333D01*
X154843Y199706D01*
X154758Y200158D01*
X155426Y200698D01*
X157070Y201337D01*
X161012Y203259D01*
X163745Y205860D01*
X165520Y208755D01*
X166584Y211556D01*
X167188Y213878D01*
X167582Y215335D01*
X168013Y215538D01*
X168322Y215050D01*
X168733Y214103D01*
X169234Y212580D01*
X169418Y211508D01*
X169577Y210425D01*
X170000Y208873D01*
X343016Y307226D02*
X345746Y310995D01*
X343016Y307226D02*
X341440Y306503D01*
X340524Y306734D01*
X339494Y307476D01*
X335855Y310740D01*
X332894Y313174D01*
X330582Y314942D01*
X328890Y316208D01*
X327790Y317135D01*
X327254Y317886D01*
X327254Y318627D01*
X327761Y319519D01*
X329492Y321809D01*
X330870Y323496D01*
X331943Y324667D01*
X332758Y325408D01*
X333810Y325955D01*
X334411Y325833D01*
X335088Y325431D01*
X336709Y324407D01*
X338942Y322916D01*
X341450Y321110D01*
X345959Y317173D01*
X347290Y315348D01*
X347560Y313825D01*
X347256Y313296D01*
X346728Y312506D01*
X345746Y310995D01*
X180315Y321511D02*
X179500Y319537D01*
X180315Y321511D02*
X180859Y323015D01*
X181348Y324901D01*
X181395Y325767D01*
X181427Y326183D01*
X181873Y327055D01*
X182200Y327366D01*
X182639Y326650D01*
X183023Y324737D01*
X183634Y322327D01*
X184803Y319667D01*
X186192Y317706D01*
X187701Y316331D01*
X189233Y315430D01*
X191967Y314605D01*
X193606Y314339D01*
X194345Y313912D01*
X194179Y313481D01*
X193315Y313025D01*
X191961Y312519D01*
X188609Y311272D01*
X185781Y309558D01*
X184725Y308110D01*
X183904Y306333D01*
X182738Y302905D01*
X182276Y301811D01*
X181817Y301501D01*
X181303Y302254D01*
X180676Y304349D01*
X179423Y307238D01*
X177527Y309334D01*
X175318Y310792D01*
X173124Y311763D01*
X171276Y312404D01*
X170103Y312866D01*
X169936Y313304D01*
X171104Y313872D01*
X174044Y314910D01*
X175944Y315809D01*
X177522Y317155D01*
X179500Y319537D01*
X414751Y302986D02*
X415882Y301635D01*
X414751Y302986D02*
X413891Y304021D01*
X412823Y305334D01*
X412354Y305964D01*
X412160Y306299D01*
X411625Y307583D01*
X411813Y308027D01*
X412633Y307890D01*
X413993Y307432D01*
X415802Y306913D01*
X417969Y306593D01*
X420403Y306732D01*
X423012Y307590D01*
X424742Y308315D01*
X426083Y308597D01*
X427122Y308463D01*
X427944Y307937D01*
X429292Y305821D01*
X430823Y302458D01*
X431242Y301348D01*
X431290Y300578D01*
X430447Y299713D01*
X428650Y299181D01*
X426254Y298297D01*
X424468Y297366D01*
X423156Y296605D01*
X421595Y295506D01*
X420242Y294343D01*
X419775Y294321D01*
X419316Y294709D01*
X418361Y296432D01*
X415882Y301635D01*
X409058Y276267D02*
X412216Y275609D01*
X414352Y274424D01*
X415640Y272883D01*
X416250Y271156D01*
X416131Y267832D01*
X415746Y266575D01*
X415374Y265817D01*
X413966Y264179D01*
X412438Y263118D01*
X410845Y262579D01*
X409241Y262500D01*
X406220Y263494D01*
X403813Y265632D01*
X402455Y268446D01*
X402307Y269961D01*
X402586Y271469D01*
X403346Y272912D01*
X404641Y274232D01*
X406527Y275370D01*
X409058Y276267D01*
X571082Y257321D02*
X573316Y259603D01*
X575478Y260653D01*
X577503Y260723D01*
X579326Y260064D01*
X580881Y258928D01*
X582104Y257566D01*
X582928Y256231D01*
X583290Y255174D01*
X583347Y253161D01*
X582995Y251481D01*
X582297Y250124D01*
X581318Y249080D01*
X578774Y247892D01*
X575879Y247836D01*
X573147Y248832D01*
X571094Y250798D01*
X570482Y252120D01*
X570234Y253655D01*
X570412Y255392D01*
X571082Y257321D01*
X576773Y217471D02*
X576170Y214967D01*
X575299Y213082D01*
X574216Y211763D01*
X572976Y210961D01*
X571635Y210622D01*
X570249Y210696D01*
X567562Y211873D01*
X565359Y214080D01*
X564085Y216903D01*
X564184Y219929D01*
X564888Y221389D01*
X566102Y222744D01*
X567250Y223354D01*
X569079Y223819D01*
X571253Y223895D01*
X573431Y223340D01*
X575030Y221998D01*
X576037Y220161D01*
X576577Y218446D01*
X576773Y217471D01*
X276815Y298740D02*
X275073Y297274D01*
X273398Y296347D01*
X271816Y295903D01*
X270353Y295883D01*
X267881Y296895D01*
X266187Y298930D01*
X265471Y301535D01*
X265937Y304258D01*
X267786Y306644D01*
X269293Y307571D01*
X271221Y308243D01*
X272300Y308331D01*
X273738Y308156D01*
X276755Y306817D01*
X277867Y305549D01*
X278404Y303814D01*
X278131Y301562D01*
X276815Y298740D01*
X379125Y167936D02*
X381665Y167121D01*
X379125Y167936D02*
X377272Y168835D01*
X376047Y169793D01*
X375386Y170782D01*
X375229Y171779D01*
X375514Y172757D01*
X377164Y174551D01*
X379847Y175960D01*
X383069Y176777D01*
X386341Y176796D01*
X389171Y175811D01*
X390691Y174593D01*
X391609Y173279D01*
X391875Y171937D01*
X391439Y170633D01*
X390250Y169433D01*
X388258Y168403D01*
X385413Y167610D01*
X381665Y167121D01*
X232589Y431160D02*
X231842Y431246D01*
X230210Y431451D01*
X225466Y432241D01*
X220702Y433577D01*
X219046Y434466D01*
X218264Y435511D01*
X218133Y436765D01*
X218314Y437688D01*
X219275Y438743D01*
X220462Y439075D01*
X221194Y439085D01*
X222386Y438913D01*
X224435Y438536D01*
X229867Y437439D01*
X235008Y436351D01*
X236694Y435984D01*
X237377Y435827D01*
X238196Y434959D01*
X238785Y433261D01*
X238471Y432397D01*
X237473Y431680D01*
X235582Y431228D01*
X232589Y431160D01*
X639116Y57871D02*
X638850Y56974D01*
X639116Y57871D02*
X639762Y59437D01*
X640842Y61093D01*
X642410Y62261D01*
X643221Y62532D01*
X644733Y62764D01*
X646589Y62493D01*
X648430Y61256D01*
X649584Y59715D01*
X650252Y58203D01*
X650352Y55388D01*
X649158Y53052D01*
X647102Y51435D01*
X644613Y50779D01*
X642121Y51323D01*
X641008Y52120D01*
X640056Y53308D01*
X639319Y54916D01*
X638850Y56974D01*
X427988Y464449D02*
X426027Y464806D01*
X424465Y465443D01*
X422446Y467348D01*
X421742Y469751D01*
X422166Y472238D01*
X423530Y474397D01*
X425646Y475815D01*
X428327Y476078D01*
X429821Y475647D01*
X431385Y474773D01*
X432230Y473850D01*
X432896Y472508D01*
X433287Y469582D01*
X432715Y467258D01*
X431834Y465982D01*
X430355Y465223D01*
X427988Y464449D01*
X552346Y144766D02*
X554434Y144201D01*
X552346Y144766D02*
X550772Y145583D01*
X549670Y146599D01*
X548997Y147762D01*
X548763Y150316D01*
X549729Y152821D01*
X551552Y154854D01*
X553887Y155991D01*
X556392Y155809D01*
X557601Y155091D01*
X558723Y153884D01*
X559036Y153330D01*
X559464Y152302D01*
X559952Y149397D01*
X559653Y147807D01*
X558753Y146315D01*
X557073Y145065D01*
X554434Y144201D01*
X126573Y233155D02*
X125463Y230746D01*
X126573Y233155D02*
X127931Y234641D01*
X129424Y235380D01*
X130939Y235549D01*
X133583Y234892D01*
X134485Y234420D01*
X134958Y234089D01*
X136113Y232756D01*
X136753Y231400D01*
X136732Y228770D01*
X135376Y226495D01*
X133168Y224868D01*
X130591Y224184D01*
X128126Y224740D01*
X127087Y225574D01*
X126256Y226828D01*
X125695Y228540D01*
X125463Y230746D01*
X414332Y330511D02*
X415381Y327795D01*
X414332Y330511D02*
X413618Y332354D01*
X412787Y334138D01*
X411385Y336672D01*
X409821Y339573D01*
X408924Y341671D01*
X408613Y343041D01*
X408806Y343756D01*
X409423Y343889D01*
X410382Y343515D01*
X411604Y342706D01*
X413006Y341535D01*
X416031Y338406D01*
X418810Y334714D01*
X420695Y331048D01*
X421100Y329409D01*
X421040Y327996D01*
X420589Y326621D01*
X420044Y325662D01*
X418710Y324932D01*
X417127Y325684D01*
X415381Y327795D01*
X304416Y331539D02*
X302374Y332217D01*
X304416Y331539D02*
X305921Y330674D01*
X306935Y329670D01*
X307506Y328569D01*
X307507Y326261D01*
X306302Y324111D01*
X304270Y322480D01*
X301788Y321728D01*
X299235Y322216D01*
X298049Y323037D01*
X296988Y324304D01*
X296449Y326386D01*
X296754Y328866D01*
X297921Y330432D01*
X299692Y331445D01*
X301399Y332006D01*
X302374Y332217D01*
X521674Y377760D02*
X524160Y376575D01*
X521674Y377760D02*
X520232Y379112D01*
X519619Y380535D01*
X519623Y381934D01*
X520622Y384277D01*
X521189Y385031D01*
X521516Y385379D01*
X522757Y386197D01*
X523970Y386593D01*
X526216Y386326D01*
X528055Y384989D01*
X529287Y382989D01*
X529712Y380739D01*
X529133Y378646D01*
X527348Y377122D01*
X525942Y376701D01*
X524160Y376575D01*
X538175Y282035D02*
X537894Y279822D01*
X538175Y282035D02*
X538872Y283172D01*
X540383Y284318D01*
X541819Y284818D01*
X543324Y284888D01*
X544695Y284633D01*
X545727Y284161D01*
X546895Y283158D01*
X547647Y282078D01*
X548074Y279832D01*
X547339Y277725D01*
X545777Y276059D01*
X543718Y275134D01*
X541496Y275253D01*
X539444Y276715D01*
X538585Y278044D01*
X537894Y279822D01*
X345610Y454314D02*
X344585Y456180D01*
X343715Y457857D01*
X343356Y458968D01*
X343444Y459569D01*
X343914Y459714D01*
X344699Y459457D01*
X345735Y458855D01*
X348295Y456831D01*
X351070Y454079D01*
X353536Y451039D01*
X355168Y448148D01*
X355508Y446896D01*
X355443Y445846D01*
X354759Y445108D01*
X354038Y445010D01*
X353030Y445328D01*
X351709Y446240D01*
X350049Y447924D01*
X348024Y450556D01*
X345610Y454314D01*
X261166Y449595D02*
X260017Y448218D01*
X258872Y447284D01*
X256677Y446566D01*
X254750Y447081D01*
X253265Y448466D01*
X252391Y450362D01*
X252301Y452406D01*
X253165Y454237D01*
X255156Y455493D01*
X256899Y455704D01*
X258364Y455371D01*
X259426Y454843D01*
X259963Y454469D01*
X260863Y453217D01*
X261210Y451696D01*
X261235Y450342D01*
X261166Y449595D01*
X530448Y120666D02*
X530496Y120144D01*
X530448Y120666D02*
X530419Y121628D01*
X530779Y124134D01*
X531348Y125307D01*
X532297Y126182D01*
X533715Y126573D01*
X535693Y126296D01*
X536876Y125766D01*
X537720Y125014D01*
X538506Y123050D01*
X538289Y120819D01*
X537308Y118735D01*
X535800Y117211D01*
X534004Y116662D01*
X532156Y117502D01*
X531288Y118572D01*
X530496Y120144D01*
X445941Y288898D02*
X444093Y289193D01*
X442670Y289709D01*
X440964Y291239D01*
X440551Y293147D01*
X441160Y295093D01*
X442518Y296737D01*
X444353Y297740D01*
X446393Y297761D01*
X448366Y296461D01*
X449252Y294629D01*
X449370Y292139D01*
X448506Y290367D01*
X447422Y289414D01*
X446454Y289013D01*
X445941Y288898D01*
X462722Y457703D02*
X463066Y458040D01*
X462722Y457703D02*
X462077Y457094D01*
X460211Y455501D01*
X458120Y454139D01*
X457195Y453820D01*
X456459Y453888D01*
X455502Y454545D01*
X455030Y455312D01*
X455314Y457094D01*
X456854Y459055D01*
X459194Y461020D01*
X464439Y464250D01*
X466430Y465161D01*
X467389Y465366D01*
X467984Y464589D01*
X467435Y463519D01*
X466744Y462683D01*
X465782Y461542D01*
X464555Y460020D01*
X463066Y458040D01*
X545294Y107300D02*
X546898Y106765D01*
X545294Y107300D02*
X544102Y107990D01*
X542811Y109691D01*
X542738Y111579D01*
X543597Y113361D01*
X545102Y114747D01*
X546968Y115445D01*
X548909Y115165D01*
X550638Y113615D01*
X551508Y111824D01*
X551618Y110356D01*
X551155Y109184D01*
X550310Y108279D01*
X548232Y107157D01*
X547377Y106884D01*
X546898Y106765D01*
X558278Y171300D02*
X557006Y172812D01*
X556428Y174213D01*
X556394Y175480D01*
X556752Y176587D01*
X558044Y178230D01*
X559104Y178947D01*
X561539Y179179D01*
X563335Y178244D01*
X564449Y176555D01*
X564837Y174526D01*
X564457Y172572D01*
X563266Y171107D01*
X561220Y170545D01*
X559864Y170732D01*
X558278Y171300D01*
X52252Y321314D02*
X51293Y320380D01*
X52252Y321314D02*
X52958Y321848D01*
X53768Y322043D01*
X55038Y321955D01*
X56730Y321488D01*
X57814Y320761D01*
X58720Y319380D01*
X58972Y317099D01*
X58074Y315351D01*
X56432Y314213D01*
X54452Y313762D01*
X52542Y314077D01*
X51107Y315233D01*
X50555Y317308D01*
X50737Y318715D01*
X51293Y320380D01*
X248358Y65790D02*
X248057Y64588D01*
X248358Y65790D02*
X249304Y67679D01*
X250112Y68484D01*
X251192Y68986D01*
X252582Y69025D01*
X254319Y68442D01*
X255876Y67066D01*
X256310Y65312D01*
X255848Y63497D01*
X254718Y61938D01*
X253146Y60951D01*
X251361Y60852D01*
X249589Y61959D01*
X248779Y63064D01*
X248057Y64588D01*
X452670Y64074D02*
X453313Y62573D01*
X452670Y64074D02*
X452373Y65124D01*
X452593Y66089D01*
X453499Y67335D01*
X453879Y67727D01*
X454669Y68315D01*
X455827Y68770D01*
X457310Y68764D01*
X459337Y67822D01*
X460429Y66281D01*
X460692Y64467D01*
X460233Y62700D01*
X459159Y61304D01*
X457577Y60602D01*
X455593Y60918D01*
X453313Y62573D01*
X57716Y268609D02*
X55103Y267091D01*
X53016Y266912D01*
X51501Y267731D01*
X50606Y269206D01*
X50376Y270993D01*
X50857Y272749D01*
X52096Y274134D01*
X54139Y274804D01*
X55963Y274388D01*
X57821Y273107D01*
X58651Y271913D01*
X58797Y270995D01*
X58428Y270009D01*
X57716Y268609D01*
X42666Y144881D02*
X43734Y144488D01*
X42666Y144881D02*
X41027Y145929D01*
X40003Y147774D01*
X40092Y149041D01*
X40778Y150561D01*
X42232Y151894D01*
X43945Y152130D01*
X45633Y151520D01*
X47011Y150312D01*
X47794Y148756D01*
X47699Y147100D01*
X46441Y145595D01*
X45286Y144976D01*
X43734Y144488D01*
X678061Y336476D02*
X679153Y335738D01*
X678061Y336476D02*
X676607Y338076D01*
X676262Y339106D01*
X676446Y340238D01*
X677366Y341435D01*
X679230Y342659D01*
X681082Y343076D01*
X682657Y342536D01*
X683827Y341334D01*
X684466Y339767D01*
X684446Y338128D01*
X683638Y336714D01*
X681916Y335818D01*
X679153Y335738D01*
X339550Y487146D02*
X338406Y487096D01*
X339550Y487146D02*
X341472Y486815D01*
X343094Y485519D01*
X343456Y484327D01*
X343338Y482673D01*
X342480Y480930D01*
X341049Y480040D01*
X339366Y479905D01*
X337751Y480425D01*
X336527Y481503D01*
X336014Y483040D01*
X336533Y484937D01*
X338406Y487096D01*
X116214Y59350D02*
X113559Y59100D01*
X111803Y59762D01*
X110862Y61035D01*
X110649Y62619D01*
X111077Y64212D01*
X112061Y65513D01*
X113515Y66221D01*
X115353Y66035D01*
X117023Y65170D01*
X117918Y64172D01*
X118203Y63112D01*
X118041Y62059D01*
X117035Y60263D01*
X116214Y59350D01*
X76664Y229187D02*
X78785Y230618D01*
X76664Y229187D02*
X74852Y229087D01*
X73443Y229959D01*
X72535Y231444D01*
X72224Y233185D01*
X72607Y234821D01*
X73780Y235996D01*
X75840Y236349D01*
X77366Y236026D01*
X78370Y235380D01*
X79195Y233540D01*
X79079Y231672D01*
X78785Y230618D01*
X684439Y171279D02*
X686767Y171941D01*
X684439Y171279D02*
X682765Y171675D01*
X681730Y172811D01*
X681317Y174365D01*
X681511Y176018D01*
X682297Y177448D01*
X683658Y178336D01*
X685579Y178361D01*
X687408Y177688D01*
X688406Y176804D01*
X688750Y175796D01*
X688613Y174751D01*
X687600Y172899D01*
X686767Y171941D01*
X415536Y447301D02*
X415820Y447738D01*
X415536Y447301D02*
X414974Y446481D01*
X413316Y444375D01*
X411439Y442778D01*
X410604Y442595D01*
X409937Y443048D01*
X409790Y443741D01*
X409999Y444744D01*
X411239Y447366D01*
X415279Y452903D01*
X417095Y454575D01*
X417737Y454864D01*
X418119Y454686D01*
X418180Y453961D01*
X417858Y452614D01*
X417092Y450566D01*
X415820Y447738D01*
X51813Y434563D02*
X50860Y432221D01*
X49511Y431057D01*
X47991Y430864D01*
X46527Y431436D01*
X45348Y432568D01*
X44679Y434054D01*
X44747Y435688D01*
X45781Y437265D01*
X47133Y438192D01*
X48316Y438416D01*
X50169Y437437D01*
X51336Y435696D01*
X51813Y434563D01*
X457027Y503467D02*
X458543Y505267D01*
X457027Y503467D02*
X455387Y502891D01*
X453824Y503263D01*
X452540Y504304D01*
X451738Y505738D01*
X451621Y507289D01*
X452389Y508679D01*
X454247Y509631D01*
X455645Y509779D01*
X456702Y509481D01*
X457979Y508045D01*
X458464Y506310D01*
X458543Y505267D01*
X685576Y299490D02*
X686780Y297340D01*
X686811Y295574D01*
X685986Y294258D01*
X684622Y293459D01*
X683036Y293243D01*
X681546Y293679D01*
X680469Y294832D01*
X680121Y296769D01*
X680406Y298220D01*
X681011Y299167D01*
X682767Y299925D01*
X684564Y299785D01*
X685576Y299490D01*
X503653Y266654D02*
X503748Y264019D01*
X503045Y262362D01*
X501816Y261568D01*
X500331Y261518D01*
X498861Y262096D01*
X497678Y263186D01*
X497053Y264671D01*
X497258Y266434D01*
X498105Y267736D01*
X499152Y268396D01*
X500098Y268631D01*
X500642Y268658D01*
X501810Y268552D01*
X502478Y268231D01*
X503653Y266654D01*
X49528Y491184D02*
X48428Y491498D01*
X49528Y491184D02*
X51216Y490245D01*
X51888Y489467D01*
X52238Y488443D01*
X52108Y487144D01*
X51342Y485541D01*
X50120Y484438D01*
X48664Y484207D01*
X47215Y484674D01*
X46011Y485669D01*
X45291Y487021D01*
X45294Y488557D01*
X46260Y490107D01*
X48428Y491498D01*
X661305Y504387D02*
X662062Y503511D01*
X661305Y504387D02*
X660398Y506096D01*
X660277Y507084D01*
X660588Y508066D01*
X661484Y508970D01*
X663122Y509725D01*
X664872Y509798D01*
X666256Y509010D01*
X667186Y507671D01*
X667578Y506088D01*
X667347Y504572D01*
X666408Y503431D01*
X664674Y502975D01*
X662062Y503511D01*
X642319Y192302D02*
X641330Y191949D01*
X642319Y192302D02*
X644114Y192600D01*
X645966Y192119D01*
X646679Y191363D01*
X647126Y190142D01*
X646965Y188364D01*
X645945Y187104D01*
X644414Y186388D01*
X642723Y186245D01*
X641219Y186702D01*
X640253Y187786D01*
X640174Y189526D01*
X641330Y191949D01*
X692295Y426740D02*
X689779Y427537D01*
X688479Y428724D01*
X688180Y430098D01*
X688666Y431458D01*
X689722Y432601D01*
X691132Y433325D01*
X692680Y433427D01*
X694153Y432706D01*
X695336Y431361D01*
X695756Y430188D01*
X695593Y429185D01*
X695025Y428354D01*
X693393Y427205D01*
X692295Y426740D01*
X672355Y399761D02*
X669957Y398836D01*
X668229Y399026D01*
X667147Y400008D01*
X666686Y401459D01*
X666824Y403053D01*
X667536Y404467D01*
X668798Y405377D01*
X670586Y405460D01*
X671841Y404981D01*
X672612Y404260D01*
X673077Y402443D01*
X672739Y400709D01*
X672355Y399761D01*
X257976Y507478D02*
X257595Y506349D01*
X257976Y507478D02*
X258988Y509202D01*
X259757Y509842D01*
X260717Y510095D01*
X261879Y509784D01*
X263254Y508730D01*
X264164Y507218D01*
X264207Y505642D01*
X263586Y504207D01*
X262502Y503120D01*
X261159Y502585D01*
X259759Y502807D01*
X258503Y503994D01*
X257595Y506349D01*
X41034Y404906D02*
X41816Y402465D01*
X41034Y404906D02*
X41251Y406659D01*
X42184Y407753D01*
X43548Y408218D01*
X45058Y408084D01*
X46428Y407380D01*
X47375Y406137D01*
X47613Y404383D01*
X47233Y402880D01*
X46548Y401976D01*
X44679Y401491D01*
X42828Y401972D01*
X41816Y402465D01*
X68136Y121857D02*
X69670Y119700D01*
X69990Y117937D01*
X69397Y116615D01*
X68192Y115782D01*
X66675Y115488D01*
X65147Y115779D01*
X63910Y116705D01*
X63263Y118314D01*
X63266Y119933D01*
X63684Y121033D01*
X65281Y122043D01*
X67088Y122074D01*
X68136Y121857D01*
X602747Y504600D02*
X602373Y505599D01*
X602121Y507384D01*
X602853Y509119D01*
X603857Y509705D01*
X605429Y509965D01*
X607052Y509597D01*
X608138Y508564D01*
X608678Y507156D01*
X608659Y505661D01*
X608068Y504369D01*
X606894Y503568D01*
X605124Y503549D01*
X602747Y504600D01*
X658890Y238365D02*
X658719Y237369D01*
X658890Y238365D02*
X659502Y240001D01*
X660815Y241301D01*
X661816Y241519D01*
X663091Y241286D01*
X664521Y240285D01*
X665071Y238828D01*
X664899Y237216D01*
X664162Y235751D01*
X663017Y234733D01*
X661624Y234463D01*
X660138Y235241D01*
X658719Y237369D01*
X122391Y505806D02*
X122070Y508213D01*
X122391Y505806D02*
X121792Y504262D01*
X120584Y503496D01*
X119075Y503422D01*
X117574Y503957D01*
X116389Y505016D01*
X115830Y506514D01*
X116206Y508365D01*
X117005Y509560D01*
X117901Y510134D01*
X119751Y509969D01*
X121295Y508965D01*
X122070Y508213D01*
X445990Y316071D02*
X446688Y315407D01*
X445990Y316071D02*
X445035Y317440D01*
X444718Y319259D01*
X445077Y320257D01*
X445930Y321273D01*
X447596Y322107D01*
X449007Y321726D01*
X450067Y320512D01*
X450677Y318850D01*
X450742Y317125D01*
X450163Y315720D01*
X448844Y315019D01*
X446688Y315407D01*
X361528Y252775D02*
X360202Y253490D01*
X360733Y252867D02*
X361528Y252775D01*
X360733Y252867D02*
X360202Y253490D01*
D11*
X165404Y437756D02*
X165404Y448206D01*
X165404Y361356D02*
X165404Y308206D01*
X32604Y308206D01*
X12904Y322656D02*
X12904Y448206D01*
X42604Y448206D02*
X165404Y448206D01*
X17204Y448206D02*
X12904Y448206D01*
X7504Y359156D02*
X7506Y359219D01*
X7512Y359281D01*
X7522Y359343D01*
X7535Y359405D01*
X7553Y359465D01*
X7574Y359524D01*
X7599Y359582D01*
X7628Y359638D01*
X7660Y359692D01*
X7695Y359744D01*
X7733Y359793D01*
X7775Y359841D01*
X7819Y359885D01*
X7867Y359927D01*
X7916Y359965D01*
X7968Y360000D01*
X8022Y360032D01*
X8078Y360061D01*
X8136Y360086D01*
X8195Y360107D01*
X8255Y360125D01*
X8317Y360138D01*
X8379Y360148D01*
X8441Y360154D01*
X8504Y360156D01*
X8567Y360154D01*
X8629Y360148D01*
X8691Y360138D01*
X8753Y360125D01*
X8813Y360107D01*
X8872Y360086D01*
X8930Y360061D01*
X8986Y360032D01*
X9040Y360000D01*
X9092Y359965D01*
X9141Y359927D01*
X9189Y359885D01*
X9233Y359841D01*
X9275Y359793D01*
X9313Y359744D01*
X9348Y359692D01*
X9380Y359638D01*
X9409Y359582D01*
X9434Y359524D01*
X9455Y359465D01*
X9473Y359405D01*
X9486Y359343D01*
X9496Y359281D01*
X9502Y359219D01*
X9504Y359156D01*
X9502Y359093D01*
X9496Y359031D01*
X9486Y358969D01*
X9473Y358907D01*
X9455Y358847D01*
X9434Y358788D01*
X9409Y358730D01*
X9380Y358674D01*
X9348Y358620D01*
X9313Y358568D01*
X9275Y358519D01*
X9233Y358471D01*
X9189Y358427D01*
X9141Y358385D01*
X9092Y358347D01*
X9040Y358312D01*
X8986Y358280D01*
X8930Y358251D01*
X8872Y358226D01*
X8813Y358205D01*
X8753Y358187D01*
X8691Y358174D01*
X8629Y358164D01*
X8567Y358158D01*
X8504Y358156D01*
X8441Y358158D01*
X8379Y358164D01*
X8317Y358174D01*
X8255Y358187D01*
X8195Y358205D01*
X8136Y358226D01*
X8078Y358251D01*
X8022Y358280D01*
X7968Y358312D01*
X7916Y358347D01*
X7867Y358385D01*
X7819Y358427D01*
X7775Y358471D01*
X7733Y358519D01*
X7695Y358568D01*
X7660Y358620D01*
X7628Y358674D01*
X7599Y358730D01*
X7574Y358788D01*
X7553Y358847D01*
X7535Y358907D01*
X7522Y358969D01*
X7512Y359031D01*
X7506Y359093D01*
X7504Y359156D01*
D12*
X156370Y650050D02*
X238870Y650050D01*
X238870Y531050D01*
X156370Y531050D01*
X156370Y650050D01*
X149130Y555650D02*
X149132Y555750D01*
X149138Y555851D01*
X149148Y555950D01*
X149162Y556050D01*
X149179Y556149D01*
X149201Y556247D01*
X149227Y556344D01*
X149256Y556440D01*
X149289Y556534D01*
X149326Y556628D01*
X149366Y556720D01*
X149410Y556810D01*
X149458Y556898D01*
X149509Y556985D01*
X149563Y557069D01*
X149621Y557151D01*
X149682Y557231D01*
X149746Y557308D01*
X149813Y557383D01*
X149883Y557455D01*
X149956Y557524D01*
X150031Y557590D01*
X150109Y557654D01*
X150189Y557714D01*
X150272Y557771D01*
X150357Y557824D01*
X150444Y557874D01*
X150533Y557921D01*
X150623Y557964D01*
X150715Y558004D01*
X150809Y558040D01*
X150904Y558072D01*
X151000Y558100D01*
X151098Y558125D01*
X151196Y558145D01*
X151295Y558162D01*
X151395Y558175D01*
X151494Y558184D01*
X151595Y558189D01*
X151695Y558190D01*
X151795Y558187D01*
X151896Y558180D01*
X151995Y558169D01*
X152095Y558154D01*
X152193Y558136D01*
X152291Y558113D01*
X152388Y558086D01*
X152483Y558056D01*
X152578Y558022D01*
X152671Y557984D01*
X152762Y557943D01*
X152852Y557898D01*
X152940Y557850D01*
X153026Y557798D01*
X153110Y557743D01*
X153191Y557684D01*
X153270Y557622D01*
X153347Y557558D01*
X153421Y557490D01*
X153492Y557419D01*
X153561Y557346D01*
X153626Y557270D01*
X153689Y557191D01*
X153748Y557110D01*
X153804Y557027D01*
X153857Y556942D01*
X153906Y556854D01*
X153952Y556765D01*
X153994Y556674D01*
X154033Y556581D01*
X154068Y556487D01*
X154099Y556392D01*
X154127Y556295D01*
X154150Y556198D01*
X154170Y556099D01*
X154186Y556000D01*
X154198Y555901D01*
X154206Y555800D01*
X154210Y555700D01*
X154210Y555600D01*
X154206Y555500D01*
X154198Y555399D01*
X154186Y555300D01*
X154170Y555201D01*
X154150Y555102D01*
X154127Y555005D01*
X154099Y554908D01*
X154068Y554813D01*
X154033Y554719D01*
X153994Y554626D01*
X153952Y554535D01*
X153906Y554446D01*
X153857Y554358D01*
X153804Y554273D01*
X153748Y554190D01*
X153689Y554109D01*
X153626Y554030D01*
X153561Y553954D01*
X153492Y553881D01*
X153421Y553810D01*
X153347Y553742D01*
X153270Y553678D01*
X153191Y553616D01*
X153110Y553557D01*
X153026Y553502D01*
X152940Y553450D01*
X152852Y553402D01*
X152762Y553357D01*
X152671Y553316D01*
X152578Y553278D01*
X152483Y553244D01*
X152388Y553214D01*
X152291Y553187D01*
X152193Y553164D01*
X152095Y553146D01*
X151995Y553131D01*
X151896Y553120D01*
X151795Y553113D01*
X151695Y553110D01*
X151595Y553111D01*
X151494Y553116D01*
X151395Y553125D01*
X151295Y553138D01*
X151196Y553155D01*
X151098Y553175D01*
X151000Y553200D01*
X150904Y553228D01*
X150809Y553260D01*
X150715Y553296D01*
X150623Y553336D01*
X150533Y553379D01*
X150444Y553426D01*
X150357Y553476D01*
X150272Y553529D01*
X150189Y553586D01*
X150109Y553646D01*
X150031Y553710D01*
X149956Y553776D01*
X149883Y553845D01*
X149813Y553917D01*
X149746Y553992D01*
X149682Y554069D01*
X149621Y554149D01*
X149563Y554231D01*
X149509Y554315D01*
X149458Y554402D01*
X149410Y554490D01*
X149366Y554580D01*
X149326Y554672D01*
X149289Y554766D01*
X149256Y554860D01*
X149227Y554956D01*
X149201Y555053D01*
X149179Y555151D01*
X149162Y555250D01*
X149148Y555350D01*
X149138Y555449D01*
X149132Y555550D01*
X149130Y555650D01*
D13*
X324500Y533387D02*
X324500Y638787D01*
X437500Y638787D01*
X437500Y533387D01*
X324500Y533387D01*
X353250Y588387D02*
X353258Y589068D01*
X353283Y589749D01*
X353325Y590428D01*
X353384Y591107D01*
X353459Y591784D01*
X353550Y592459D01*
X353659Y593131D01*
X353783Y593801D01*
X353924Y594467D01*
X354082Y595130D01*
X354255Y595788D01*
X354445Y596442D01*
X354651Y597092D01*
X354872Y597736D01*
X355109Y598374D01*
X355362Y599006D01*
X355631Y599632D01*
X355914Y600252D01*
X356213Y600864D01*
X356527Y601468D01*
X356855Y602065D01*
X357198Y602653D01*
X357555Y603233D01*
X357927Y603804D01*
X358312Y604366D01*
X358711Y604918D01*
X359123Y605460D01*
X359549Y605991D01*
X359987Y606513D01*
X360439Y607023D01*
X360902Y607522D01*
X361378Y608009D01*
X361865Y608485D01*
X362364Y608948D01*
X362874Y609400D01*
X363396Y609838D01*
X363927Y610264D01*
X364469Y610676D01*
X365021Y611075D01*
X365583Y611460D01*
X366154Y611832D01*
X366734Y612189D01*
X367322Y612532D01*
X367919Y612860D01*
X368523Y613174D01*
X369135Y613473D01*
X369755Y613756D01*
X370381Y614025D01*
X371013Y614278D01*
X371651Y614515D01*
X372295Y614736D01*
X372945Y614942D01*
X373599Y615132D01*
X374257Y615305D01*
X374920Y615463D01*
X375586Y615604D01*
X376256Y615728D01*
X376928Y615837D01*
X377603Y615928D01*
X378280Y616003D01*
X378959Y616062D01*
X379638Y616104D01*
X380319Y616129D01*
X381000Y616137D01*
X381681Y616129D01*
X382362Y616104D01*
X383041Y616062D01*
X383720Y616003D01*
X384397Y615928D01*
X385072Y615837D01*
X385744Y615728D01*
X386414Y615604D01*
X387080Y615463D01*
X387743Y615305D01*
X388401Y615132D01*
X389055Y614942D01*
X389705Y614736D01*
X390349Y614515D01*
X390987Y614278D01*
X391619Y614025D01*
X392245Y613756D01*
X392865Y613473D01*
X393477Y613174D01*
X394081Y612860D01*
X394678Y612532D01*
X395266Y612189D01*
X395846Y611832D01*
X396417Y611460D01*
X396979Y611075D01*
X397531Y610676D01*
X398073Y610264D01*
X398604Y609838D01*
X399126Y609400D01*
X399636Y608948D01*
X400135Y608485D01*
X400622Y608009D01*
X401098Y607522D01*
X401561Y607023D01*
X402013Y606513D01*
X402451Y605991D01*
X402877Y605460D01*
X403289Y604918D01*
X403688Y604366D01*
X404073Y603804D01*
X404445Y603233D01*
X404802Y602653D01*
X405145Y602065D01*
X405473Y601468D01*
X405787Y600864D01*
X406086Y600252D01*
X406369Y599632D01*
X406638Y599006D01*
X406891Y598374D01*
X407128Y597736D01*
X407349Y597092D01*
X407555Y596442D01*
X407745Y595788D01*
X407918Y595130D01*
X408076Y594467D01*
X408217Y593801D01*
X408341Y593131D01*
X408450Y592459D01*
X408541Y591784D01*
X408616Y591107D01*
X408675Y590428D01*
X408717Y589749D01*
X408742Y589068D01*
X408750Y588387D01*
X408742Y587706D01*
X408717Y587025D01*
X408675Y586346D01*
X408616Y585667D01*
X408541Y584990D01*
X408450Y584315D01*
X408341Y583643D01*
X408217Y582973D01*
X408076Y582307D01*
X407918Y581644D01*
X407745Y580986D01*
X407555Y580332D01*
X407349Y579682D01*
X407128Y579038D01*
X406891Y578400D01*
X406638Y577768D01*
X406369Y577142D01*
X406086Y576522D01*
X405787Y575910D01*
X405473Y575306D01*
X405145Y574709D01*
X404802Y574121D01*
X404445Y573541D01*
X404073Y572970D01*
X403688Y572408D01*
X403289Y571856D01*
X402877Y571314D01*
X402451Y570783D01*
X402013Y570261D01*
X401561Y569751D01*
X401098Y569252D01*
X400622Y568765D01*
X400135Y568289D01*
X399636Y567826D01*
X399126Y567374D01*
X398604Y566936D01*
X398073Y566510D01*
X397531Y566098D01*
X396979Y565699D01*
X396417Y565314D01*
X395846Y564942D01*
X395266Y564585D01*
X394678Y564242D01*
X394081Y563914D01*
X393477Y563600D01*
X392865Y563301D01*
X392245Y563018D01*
X391619Y562749D01*
X390987Y562496D01*
X390349Y562259D01*
X389705Y562038D01*
X389055Y561832D01*
X388401Y561642D01*
X387743Y561469D01*
X387080Y561311D01*
X386414Y561170D01*
X385744Y561046D01*
X385072Y560937D01*
X384397Y560846D01*
X383720Y560771D01*
X383041Y560712D01*
X382362Y560670D01*
X381681Y560645D01*
X381000Y560637D01*
X380319Y560645D01*
X379638Y560670D01*
X378959Y560712D01*
X378280Y560771D01*
X377603Y560846D01*
X376928Y560937D01*
X376256Y561046D01*
X375586Y561170D01*
X374920Y561311D01*
X374257Y561469D01*
X373599Y561642D01*
X372945Y561832D01*
X372295Y562038D01*
X371651Y562259D01*
X371013Y562496D01*
X370381Y562749D01*
X369755Y563018D01*
X369135Y563301D01*
X368523Y563600D01*
X367919Y563914D01*
X367322Y564242D01*
X366734Y564585D01*
X366154Y564942D01*
X365583Y565314D01*
X365021Y565699D01*
X364469Y566098D01*
X363927Y566510D01*
X363396Y566936D01*
X362874Y567374D01*
X362364Y567826D01*
X361865Y568289D01*
X361378Y568765D01*
X360902Y569252D01*
X360439Y569751D01*
X359987Y570261D01*
X359549Y570783D01*
X359123Y571314D01*
X358711Y571856D01*
X358312Y572408D01*
X357927Y572970D01*
X357555Y573541D01*
X357198Y574121D01*
X356855Y574709D01*
X356527Y575306D01*
X356213Y575910D01*
X355914Y576522D01*
X355631Y577142D01*
X355362Y577768D01*
X355109Y578400D01*
X354872Y579038D01*
X354651Y579682D01*
X354445Y580332D01*
X354255Y580986D01*
X354082Y581644D01*
X353924Y582307D01*
X353783Y582973D01*
X353659Y583643D01*
X353550Y584315D01*
X353459Y584990D01*
X353384Y585667D01*
X353325Y586346D01*
X353283Y587025D01*
X353258Y587706D01*
X353250Y588387D01*
D11*
X402000Y214600D02*
X402002Y214663D01*
X402008Y214725D01*
X402018Y214787D01*
X402031Y214849D01*
X402049Y214909D01*
X402070Y214968D01*
X402095Y215026D01*
X402124Y215082D01*
X402156Y215136D01*
X402191Y215188D01*
X402229Y215237D01*
X402271Y215285D01*
X402315Y215329D01*
X402363Y215371D01*
X402412Y215409D01*
X402464Y215444D01*
X402518Y215476D01*
X402574Y215505D01*
X402632Y215530D01*
X402691Y215551D01*
X402751Y215569D01*
X402813Y215582D01*
X402875Y215592D01*
X402937Y215598D01*
X403000Y215600D01*
X403063Y215598D01*
X403125Y215592D01*
X403187Y215582D01*
X403249Y215569D01*
X403309Y215551D01*
X403368Y215530D01*
X403426Y215505D01*
X403482Y215476D01*
X403536Y215444D01*
X403588Y215409D01*
X403637Y215371D01*
X403685Y215329D01*
X403729Y215285D01*
X403771Y215237D01*
X403809Y215188D01*
X403844Y215136D01*
X403876Y215082D01*
X403905Y215026D01*
X403930Y214968D01*
X403951Y214909D01*
X403969Y214849D01*
X403982Y214787D01*
X403992Y214725D01*
X403998Y214663D01*
X404000Y214600D01*
X403998Y214537D01*
X403992Y214475D01*
X403982Y214413D01*
X403969Y214351D01*
X403951Y214291D01*
X403930Y214232D01*
X403905Y214174D01*
X403876Y214118D01*
X403844Y214064D01*
X403809Y214012D01*
X403771Y213963D01*
X403729Y213915D01*
X403685Y213871D01*
X403637Y213829D01*
X403588Y213791D01*
X403536Y213756D01*
X403482Y213724D01*
X403426Y213695D01*
X403368Y213670D01*
X403309Y213649D01*
X403249Y213631D01*
X403187Y213618D01*
X403125Y213608D01*
X403063Y213602D01*
X403000Y213600D01*
X402937Y213602D01*
X402875Y213608D01*
X402813Y213618D01*
X402751Y213631D01*
X402691Y213649D01*
X402632Y213670D01*
X402574Y213695D01*
X402518Y213724D01*
X402464Y213756D01*
X402412Y213791D01*
X402363Y213829D01*
X402315Y213871D01*
X402271Y213915D01*
X402229Y213963D01*
X402191Y214012D01*
X402156Y214064D01*
X402124Y214118D01*
X402095Y214174D01*
X402070Y214232D01*
X402049Y214291D01*
X402031Y214351D01*
X402018Y214413D01*
X402008Y214475D01*
X402002Y214537D01*
X402000Y214600D01*
X403500Y208600D02*
X423500Y208600D01*
X423500Y214600D01*
X423500Y234600D02*
X423500Y237600D01*
X430500Y237600D01*
X430500Y248600D01*
X331500Y248600D01*
X331500Y237600D01*
X338500Y237600D01*
X338500Y234600D01*
X338500Y208600D02*
X358500Y208600D01*
X338500Y208600D02*
X338500Y214600D01*
D13*
X327650Y174380D02*
X294650Y174380D01*
X327650Y174380D02*
X327650Y191380D01*
X294650Y191380D01*
X294650Y174380D01*
D14*
X333930Y196890D02*
X333930Y201890D01*
X333930Y196890D02*
X323930Y196890D01*
X323930Y201890D01*
X333930Y201890D01*
X316150Y162520D02*
X316150Y157520D01*
X306150Y157520D01*
X306150Y162520D01*
X316150Y162520D01*
D13*
X61494Y530796D02*
X93244Y585788D01*
X61494Y530796D02*
X36197Y545401D01*
X67947Y600393D02*
X93244Y585788D01*
X67947Y600393D02*
X71122Y605893D01*
X67947Y600393D02*
X33022Y539901D01*
X53146Y557612D02*
X60021Y553643D01*
X53146Y557612D02*
X53008Y557690D01*
X52868Y557764D01*
X52726Y557834D01*
X52583Y557901D01*
X52438Y557964D01*
X52291Y558024D01*
X52143Y558080D01*
X51993Y558132D01*
X51843Y558181D01*
X51691Y558226D01*
X51538Y558267D01*
X51384Y558304D01*
X51229Y558337D01*
X51074Y558367D01*
X50917Y558392D01*
X50761Y558414D01*
X50603Y558431D01*
X50446Y558445D01*
X50288Y558455D01*
X50129Y558461D01*
X49971Y558463D01*
X49813Y558461D01*
X49654Y558455D01*
X49496Y558445D01*
X49339Y558431D01*
X49181Y558414D01*
X49025Y558392D01*
X48868Y558367D01*
X48713Y558337D01*
X48558Y558304D01*
X48404Y558267D01*
X48251Y558226D01*
X48099Y558181D01*
X47949Y558132D01*
X47799Y558080D01*
X47651Y558024D01*
X47504Y557964D01*
X47359Y557901D01*
X47216Y557834D01*
X47074Y557764D01*
X46934Y557690D01*
X46796Y557612D01*
X46660Y557531D01*
X46526Y557447D01*
X46394Y557360D01*
X46264Y557269D01*
X46137Y557175D01*
X46012Y557078D01*
X45889Y556977D01*
X45769Y556874D01*
X45652Y556768D01*
X45537Y556659D01*
X45425Y556547D01*
X45316Y556432D01*
X45210Y556315D01*
X45107Y556195D01*
X45006Y556072D01*
X44909Y555947D01*
X44815Y555820D01*
X44724Y555690D01*
X44637Y555558D01*
X44553Y555424D01*
X44472Y555288D01*
X44394Y555150D01*
X44320Y555010D01*
X44250Y554868D01*
X44183Y554725D01*
X44120Y554580D01*
X44060Y554433D01*
X44004Y554285D01*
X43952Y554135D01*
X43903Y553985D01*
X43858Y553833D01*
X43817Y553680D01*
X43780Y553526D01*
X43747Y553371D01*
X43717Y553216D01*
X43692Y553059D01*
X43670Y552903D01*
X43653Y552745D01*
X43639Y552588D01*
X43629Y552430D01*
X43623Y552271D01*
X43621Y552113D01*
X43623Y551955D01*
X43629Y551796D01*
X43639Y551638D01*
X43653Y551481D01*
X43670Y551323D01*
X43692Y551167D01*
X43717Y551010D01*
X43747Y550855D01*
X43780Y550700D01*
X43817Y550546D01*
X43858Y550393D01*
X43903Y550241D01*
X43952Y550091D01*
X44004Y549941D01*
X44060Y549793D01*
X44120Y549646D01*
X44183Y549501D01*
X44250Y549358D01*
X44320Y549216D01*
X44394Y549076D01*
X44472Y548938D01*
X44553Y548802D01*
X44637Y548668D01*
X44724Y548536D01*
X44815Y548406D01*
X44909Y548279D01*
X45006Y548154D01*
X45107Y548031D01*
X45210Y547911D01*
X45316Y547794D01*
X45425Y547679D01*
X45537Y547567D01*
X45652Y547458D01*
X45769Y547352D01*
X45889Y547249D01*
X46012Y547148D01*
X46137Y547051D01*
X46264Y546957D01*
X46394Y546866D01*
X46526Y546779D01*
X46660Y546695D01*
X46796Y546614D01*
X53671Y542645D01*
M02*
