G04 EAGLE Gerber RS-274X export*
G75*
%MOMM*%
%FSLAX34Y34*%
%LPD*%
%INSolderpaste Top*%
%IPPOS*%
%AMOC8*
5,1,8,0,0,1.08239X$1,22.5*%
G01*
G04 Define Apertures*
%ADD10R,1.900000X1.400000*%
%ADD11R,1.400000X1.200000*%
%ADD12R,1.040000X1.000000*%
%ADD13R,1.500000X0.800000*%
%ADD14R,1.400000X1.300000*%
%ADD15R,3.500000X1.000000*%
%ADD16R,3.400000X1.500000*%
%ADD17R,0.600000X3.500000*%
%ADD18R,0.800000X3.500000*%
%ADD19R,1.650000X1.300000*%
%ADD20R,0.300000X1.000000*%
%ADD21R,0.600000X0.700000*%
D10*
X19904Y312456D03*
D11*
X161404Y428556D03*
D12*
X165104Y414056D03*
D10*
X29904Y443956D03*
D13*
X52804Y381156D03*
X52804Y403156D03*
X52804Y425156D03*
X52804Y436156D03*
X52804Y359156D03*
X56804Y370156D03*
X50804Y392156D03*
X50804Y414156D03*
D14*
X161404Y371056D03*
D15*
X166370Y560550D03*
X166370Y580550D03*
D16*
X223870Y644050D03*
X223870Y537050D03*
D15*
X166370Y600550D03*
X166370Y620550D03*
D17*
X411750Y513347D03*
X394250Y513347D03*
X376750Y513347D03*
X359250Y513347D03*
D18*
X327250Y513347D03*
X434750Y513347D03*
D19*
X421250Y224600D03*
X340750Y224600D03*
D20*
X398500Y205600D03*
X393500Y205600D03*
X388500Y205600D03*
X383500Y205600D03*
X378500Y205600D03*
X373500Y205600D03*
X368500Y205600D03*
X363500Y205600D03*
D21*
X301650Y172880D03*
X320650Y172880D03*
X311150Y192880D03*
X333930Y199390D03*
X323930Y199390D03*
X316150Y160020D03*
X306150Y160020D03*
M02*
