G04 EAGLE Gerber RS-274X export*
G75*
%MOMM*%
%FSLAX34Y34*%
%LPD*%
%INSoldermask Top*%
%IPPOS*%
%AMOC8*
5,1,8,0,0,1.08239X$1,22.5*%
G01*
G04 Define Apertures*
%ADD10R,2.103200X1.603200*%
%ADD11R,1.603200X1.403200*%
%ADD12R,1.243200X1.203200*%
%ADD13R,1.703200X1.003200*%
%ADD14R,1.603200X1.503200*%
%ADD15C,0.853200*%
%ADD16C,1.503200*%
%ADD17R,3.703200X1.203200*%
%ADD18R,3.603200X1.703200*%
%ADD19R,0.803200X3.703200*%
%ADD20R,1.003200X3.703200*%
%ADD21R,1.853200X1.503200*%
%ADD22R,0.503200X1.203200*%
%ADD23C,4.519200*%
%ADD24R,0.803200X0.903200*%
%ADD25C,1.003200*%
%ADD26C,2.000000*%
%ADD27C,0.959600*%
%ADD28C,1.778200*%
%ADD29C,3.556000*%
D10*
X19904Y312456D03*
D11*
X161404Y428556D03*
D12*
X165104Y414056D03*
D10*
X29904Y443956D03*
D13*
X52804Y381156D03*
X52804Y403156D03*
X52804Y425156D03*
X52804Y436156D03*
X52804Y359156D03*
X56804Y370156D03*
X50804Y392156D03*
X50804Y414156D03*
D14*
X161404Y371056D03*
D15*
X409900Y57120D03*
D16*
X424200Y26820D02*
X424200Y13820D01*
X337800Y13820D02*
X337800Y26820D01*
X424200Y55620D02*
X424200Y68620D01*
X337800Y68620D02*
X337800Y55620D01*
D15*
X352100Y57120D03*
D17*
X166370Y560550D03*
X166370Y580550D03*
D18*
X223870Y644050D03*
X223870Y537050D03*
D17*
X166370Y600550D03*
X166370Y620550D03*
D19*
X411750Y513347D03*
X394250Y513347D03*
X376750Y513347D03*
X359250Y513347D03*
D20*
X327250Y513347D03*
X434750Y513347D03*
D21*
X421250Y224600D03*
X340750Y224600D03*
D22*
X398500Y205600D03*
X393500Y205600D03*
X388500Y205600D03*
X383500Y205600D03*
X378500Y205600D03*
X373500Y205600D03*
X368500Y205600D03*
X363500Y205600D03*
D23*
X516000Y215100D03*
X246000Y215100D03*
X246000Y335100D03*
X516000Y335100D03*
D24*
X301650Y172880D03*
X320650Y172880D03*
X311150Y192880D03*
X333930Y199390D03*
X323930Y199390D03*
X316150Y160020D03*
X306150Y160020D03*
D25*
X55373Y548994D02*
X49311Y552494D01*
X55661Y563493D02*
X61723Y559993D01*
X68073Y570991D02*
X62011Y574491D01*
X68361Y585490D02*
X74423Y581990D01*
D15*
X84570Y583464D03*
X78220Y572466D03*
X71870Y561467D03*
X65520Y550468D03*
X59170Y539470D03*
D26*
X520700Y660400D03*
X274320Y675640D03*
X381000Y20320D03*
X95250Y157480D03*
D27*
X240422Y285262D03*
X231533Y295990D03*
X543560Y398780D03*
X371270Y469216D03*
X494538Y305816D03*
X548259Y308229D03*
X561340Y398780D03*
X484886Y315976D03*
X561340Y334772D03*
X413141Y179687D03*
X365344Y170116D03*
X373053Y180892D03*
X432494Y152626D03*
X417727Y78843D03*
X344170Y80010D03*
X33020Y412496D03*
X246888Y473456D03*
X273304Y445516D03*
X474472Y505968D03*
X221996Y507238D03*
X629412Y525780D03*
X587502Y484124D03*
X554736Y534670D03*
X59690Y457200D03*
X54356Y478536D03*
X243332Y87122D03*
X188468Y116840D03*
X145542Y163322D03*
X176276Y190500D03*
X202692Y133350D03*
X64444Y305951D03*
X67908Y246595D03*
X315468Y504444D03*
X283718Y520446D03*
X82567Y304979D03*
X402590Y482516D03*
X591058Y259588D03*
X579120Y116840D03*
X656956Y194041D03*
X525597Y78232D03*
X711200Y432308D03*
X710431Y352147D03*
X684784Y525272D03*
X516128Y687578D03*
X236220Y685800D03*
X484632Y464058D03*
X206911Y166017D03*
X261067Y267761D03*
X670298Y247681D03*
X482120Y163322D03*
X263944Y172974D03*
X330866Y115412D03*
X166116Y232156D03*
X156718Y248666D03*
X238923Y249882D03*
X150431Y546417D03*
X80772Y599186D03*
X629412Y247396D03*
X687832Y319278D03*
X230579Y270256D03*
X244202Y180318D03*
X35560Y392430D03*
X501650Y484886D03*
X544068Y368300D03*
X515620Y402082D03*
X237820Y121234D03*
X112034Y244046D03*
X167160Y290828D03*
X505615Y162913D03*
X282067Y161163D03*
X271798Y143528D03*
X309608Y129060D03*
X296418Y115598D03*
X264414Y116868D03*
X576606Y212826D03*
X187517Y490546D03*
X230962Y126731D03*
X226314Y415036D03*
X195608Y386974D03*
X134366Y226314D03*
X91267Y547487D03*
X110490Y534924D03*
X159766Y536448D03*
X129540Y534924D03*
X204426Y449044D03*
X214249Y155829D03*
X268986Y288798D03*
X253478Y117870D03*
X234611Y171309D03*
X222123Y147955D03*
X33274Y370078D03*
X470740Y141908D03*
X203934Y367869D03*
X495808Y250952D03*
X397322Y167765D03*
X458443Y174877D03*
X165128Y337684D03*
X238021Y275666D03*
X223131Y287155D03*
X213727Y301854D03*
X96329Y555652D03*
X261874Y447548D03*
X533908Y409194D03*
X211760Y434010D03*
X108915Y552653D03*
X148548Y306112D03*
X175852Y439253D03*
X415290Y90170D03*
X356068Y79208D03*
X45720Y525272D03*
X177292Y457454D03*
X381041Y90211D03*
X22098Y429514D03*
X32053Y355395D03*
X313690Y31750D03*
X279400Y45720D03*
X121920Y139700D03*
X36830Y302260D03*
X43180Y483870D03*
X302260Y725170D03*
X485140Y718820D03*
X640080Y622300D03*
X725170Y459740D03*
X622300Y121920D03*
X497840Y46990D03*
X149860Y113030D03*
X46990Y262890D03*
X42418Y455676D03*
X115570Y615696D03*
X266700Y713740D03*
X448310Y726440D03*
X612140Y650240D03*
X715010Y497840D03*
X727710Y313690D03*
X648970Y149860D03*
X544830Y91440D03*
X460520Y37053D03*
X252222Y60198D03*
X717550Y278384D03*
X138541Y640080D03*
X673354Y194310D03*
X372860Y79792D03*
X387032Y81372D03*
X192751Y263887D03*
X223240Y256714D03*
X125739Y233258D03*
X160048Y261366D03*
X320040Y129794D03*
X282780Y143947D03*
X298450Y54610D03*
X127000Y153670D03*
X146050Y140970D03*
X52070Y307340D03*
X167386Y346772D03*
X175344Y423644D03*
X59690Y469900D03*
X152200Y638879D03*
X194310Y657860D03*
X311150Y713740D03*
X300990Y699770D03*
X485810Y700084D03*
X694436Y461264D03*
X701040Y276860D03*
X709930Y449580D03*
X611828Y615732D03*
X471718Y698562D03*
X627411Y613475D03*
X618094Y162529D03*
X449580Y46990D03*
X601980Y127530D03*
X698726Y290641D03*
X359410Y483384D03*
X271530Y251210D03*
X672592Y270256D03*
X269240Y261620D03*
X674624Y283972D03*
X269240Y273050D03*
X681482Y290068D03*
D28*
X649986Y327660D03*
D27*
X660400Y377952D03*
D28*
X632421Y327623D03*
D27*
X164996Y276860D03*
X166652Y248412D03*
X192250Y274582D03*
X259033Y288591D03*
X328164Y165072D03*
D29*
X621284Y203962D03*
X556260Y629920D03*
X127855Y499965D03*
X88757Y278591D03*
D27*
X31750Y422656D03*
X485676Y270030D03*
X209182Y404606D03*
X34290Y381000D03*
X486842Y255504D03*
X209182Y388890D03*
X34290Y402590D03*
X485771Y245749D03*
X204188Y396748D03*
X254856Y172372D03*
M02*
