G04 EAGLE Gerber RS-274X export*
G75*
%MOMM*%
%FSLAX34Y34*%
%LPD*%
%INSolderpaste Top*%
%IPPOS*%
%AMOC8*
5,1,8,0,0,1.08239X$1,22.5*%
G01*
G04 Define Apertures*
%ADD10R,0.700000X0.600000*%
%ADD11R,1.100000X0.700000*%
%ADD12R,1.830000X1.140000*%
%ADD13R,2.800000X0.860000*%
%ADD14R,3.330000X0.700000*%
%ADD15R,0.930000X0.900000*%
%ADD16R,0.780000X1.050000*%
%ADD17R,3.500000X1.000000*%
%ADD18R,3.400000X1.500000*%
%ADD19R,0.500000X0.525000*%
%ADD20R,0.500000X0.250000*%
%ADD21R,1.800000X1.350000*%
%ADD22R,0.600000X3.500000*%
%ADD23R,0.800000X3.500000*%
%ADD24R,1.650000X1.300000*%
%ADD25R,0.300000X1.000000*%
%ADD26R,0.600000X0.700000*%
D10*
X601980Y580216D03*
X601980Y590216D03*
X530860Y580216D03*
X530860Y590216D03*
D11*
X30110Y357200D03*
X30110Y368200D03*
X30110Y379200D03*
X30110Y390200D03*
X30110Y401200D03*
X30110Y412200D03*
X30110Y423200D03*
X30110Y434200D03*
D12*
X30260Y318400D03*
D13*
X35110Y445000D03*
D14*
X142760Y316200D03*
X142760Y445800D03*
D15*
X154760Y339300D03*
D16*
X155510Y381950D03*
D17*
X166370Y560550D03*
X166370Y580550D03*
D18*
X223870Y644050D03*
X223870Y537050D03*
D17*
X166370Y600550D03*
X166370Y620550D03*
D19*
X226496Y401051D03*
X217496Y401051D03*
D20*
X226496Y394676D03*
X226496Y389676D03*
D19*
X226496Y383301D03*
X217496Y383301D03*
D20*
X217496Y394676D03*
X217496Y389676D03*
D21*
X624840Y549226D03*
X624840Y590726D03*
X553720Y549226D03*
X553720Y590726D03*
D22*
X411750Y513347D03*
X394250Y513347D03*
X376750Y513347D03*
X359250Y513347D03*
D23*
X327250Y513347D03*
X434750Y513347D03*
D24*
X421250Y224600D03*
X340750Y224600D03*
D25*
X398500Y205600D03*
X393500Y205600D03*
X388500Y205600D03*
X383500Y205600D03*
X378500Y205600D03*
X373500Y205600D03*
X368500Y205600D03*
X363500Y205600D03*
D26*
X301650Y172880D03*
X320650Y172880D03*
X311150Y192880D03*
X333930Y199390D03*
X323930Y199390D03*
X316150Y160020D03*
X306150Y160020D03*
D10*
X213868Y282020D03*
X213868Y292020D03*
M02*
