G04 EAGLE Gerber RS-274X export*
G75*
%MOMM*%
%FSLAX34Y34*%
%LPD*%
%INSoldermask Bottom*%
%IPPOS*%
%AMOC8*
5,1,8,0,0,1.08239X$1,22.5*%
G01*
G04 Define Apertures*
%ADD10R,0.903200X0.803200*%
%ADD11R,2.903200X1.453200*%
%ADD12R,0.803200X0.903200*%
%ADD13R,1.203200X1.003200*%
%ADD14R,1.253200X1.153200*%
%ADD15R,0.783200X1.343200*%
%ADD16R,0.473200X1.343200*%
%ADD17C,0.853200*%
%ADD18C,1.503200*%
%ADD19R,0.603200X1.803200*%
%ADD20R,0.553200X1.803200*%
%ADD21R,0.803200X1.803200*%
%ADD22R,0.500000X0.600000*%
%ADD23R,1.753200X1.203200*%
%ADD24R,1.103200X1.103200*%
%ADD25R,1.703200X1.103200*%
%ADD26R,1.103200X1.703200*%
%ADD27C,0.353406*%
%ADD28R,1.964400X1.054000*%
%ADD29R,1.964400X3.354000*%
%ADD30R,0.803200X3.703200*%
%ADD31R,1.303200X1.203200*%
%ADD32R,1.473200X0.863600*%
%ADD33C,0.269722*%
%ADD34R,1.303200X1.303200*%
%ADD35R,0.838200X1.473200*%
%ADD36C,4.519200*%
%ADD37C,1.003200*%
%ADD38C,0.903200*%
%ADD39C,0.959600*%
%ADD40C,1.778200*%
%ADD41C,3.556000*%
G36*
X180721Y303022D02*
X180721Y297942D01*
X176911Y297942D01*
X176911Y303022D01*
X180721Y303022D01*
G37*
G36*
X262763Y485140D02*
X262763Y480060D01*
X258953Y480060D01*
X258953Y485140D01*
X262763Y485140D01*
G37*
G36*
X156804Y180886D02*
X157247Y181225D01*
X157765Y181440D01*
X158322Y181514D01*
X158879Y181440D01*
X159397Y181225D01*
X159843Y180884D01*
X160184Y180438D01*
X160399Y179920D01*
X160472Y179363D01*
X160399Y178806D01*
X160184Y178288D01*
X159845Y177845D01*
X153726Y171726D01*
X150685Y174767D01*
X156804Y180886D01*
G37*
G36*
X153726Y209274D02*
X159845Y203155D01*
X160184Y202712D01*
X160399Y202194D01*
X160472Y201637D01*
X160399Y201080D01*
X160184Y200562D01*
X159843Y200116D01*
X159397Y199775D01*
X158879Y199560D01*
X158322Y199486D01*
X157765Y199560D01*
X157247Y199775D01*
X156804Y200114D01*
X150685Y206233D01*
X153726Y209274D01*
G37*
G36*
X163875Y173815D02*
X164318Y174154D01*
X164837Y174369D01*
X165393Y174442D01*
X165950Y174369D01*
X166468Y174154D01*
X166914Y173813D01*
X167255Y173367D01*
X167470Y172849D01*
X167544Y172292D01*
X167470Y171735D01*
X167255Y171217D01*
X166916Y170774D01*
X160797Y164655D01*
X157756Y167696D01*
X163875Y173815D01*
G37*
G36*
X160797Y216345D02*
X166916Y210226D01*
X167255Y209783D01*
X167470Y209265D01*
X167544Y208708D01*
X167470Y208151D01*
X167255Y207633D01*
X166914Y207187D01*
X166468Y206846D01*
X165950Y206631D01*
X165393Y206558D01*
X164837Y206631D01*
X164318Y206846D01*
X163875Y207185D01*
X157756Y213304D01*
X160797Y216345D01*
G37*
G36*
X185805Y171217D02*
X185590Y171735D01*
X185517Y172292D01*
X185590Y172849D01*
X185805Y173367D01*
X186146Y173813D01*
X186592Y174154D01*
X187110Y174369D01*
X187667Y174442D01*
X188224Y174369D01*
X188742Y174154D01*
X189185Y173815D01*
X195304Y167696D01*
X192263Y164655D01*
X186144Y170774D01*
X185805Y171217D01*
G37*
G36*
X185805Y207633D02*
X185590Y208151D01*
X185517Y208708D01*
X185590Y209265D01*
X185805Y209783D01*
X186144Y210226D01*
X192263Y216345D01*
X195304Y213304D01*
X189185Y207185D01*
X188742Y206846D01*
X188224Y206631D01*
X187667Y206558D01*
X187110Y206631D01*
X186592Y206846D01*
X186146Y207187D01*
X185805Y207633D01*
G37*
G36*
X192876Y178288D02*
X192661Y178806D01*
X192588Y179363D01*
X192661Y179920D01*
X192876Y180438D01*
X193217Y180884D01*
X193663Y181225D01*
X194181Y181440D01*
X194738Y181514D01*
X195295Y181440D01*
X195813Y181225D01*
X196256Y180886D01*
X202375Y174767D01*
X199334Y171726D01*
X193215Y177845D01*
X192876Y178288D01*
G37*
G36*
X192876Y200562D02*
X192661Y201080D01*
X192588Y201637D01*
X192661Y202194D01*
X192876Y202712D01*
X193215Y203155D01*
X199334Y209274D01*
X202375Y206233D01*
X196256Y200114D01*
X195813Y199775D01*
X195295Y199560D01*
X194738Y199486D01*
X194181Y199560D01*
X193663Y199775D01*
X193217Y200116D01*
X192876Y200562D01*
G37*
G36*
X149733Y187957D02*
X150176Y188296D01*
X150694Y188511D01*
X151251Y188585D01*
X151808Y188511D01*
X152326Y188296D01*
X152772Y187955D01*
X153113Y187509D01*
X153328Y186991D01*
X153401Y186434D01*
X153328Y185878D01*
X153113Y185359D01*
X152774Y184916D01*
X146655Y178797D01*
X143614Y181838D01*
X149733Y187957D01*
G37*
G36*
X146655Y202203D02*
X152774Y196084D01*
X153113Y195641D01*
X153328Y195122D01*
X153401Y194566D01*
X153328Y194009D01*
X153113Y193491D01*
X152772Y193045D01*
X152326Y192704D01*
X151808Y192489D01*
X151251Y192415D01*
X150694Y192489D01*
X150176Y192704D01*
X149733Y193043D01*
X143614Y199162D01*
X146655Y202203D01*
G37*
G36*
X153269Y184421D02*
X153711Y184761D01*
X154230Y184976D01*
X154786Y185049D01*
X155343Y184976D01*
X155862Y184761D01*
X156307Y184419D01*
X156649Y183974D01*
X156864Y183455D01*
X156937Y182899D01*
X156864Y182342D01*
X156649Y181823D01*
X156309Y181381D01*
X150190Y175262D01*
X147150Y178302D01*
X153269Y184421D01*
G37*
G36*
X150190Y205738D02*
X156309Y199619D01*
X156649Y199177D01*
X156864Y198658D01*
X156937Y198101D01*
X156864Y197545D01*
X156649Y197026D01*
X156307Y196581D01*
X155862Y196239D01*
X155343Y196024D01*
X154786Y195951D01*
X154230Y196024D01*
X153711Y196239D01*
X153269Y196579D01*
X147150Y202698D01*
X150190Y205738D01*
G37*
G36*
X167411Y170279D02*
X167853Y170619D01*
X168372Y170834D01*
X168929Y170907D01*
X169485Y170834D01*
X170004Y170619D01*
X170449Y170277D01*
X170791Y169832D01*
X171006Y169313D01*
X171079Y168756D01*
X171006Y168200D01*
X170791Y167681D01*
X170451Y167239D01*
X164332Y161120D01*
X161292Y164160D01*
X167411Y170279D01*
G37*
G36*
X164332Y219880D02*
X170451Y213761D01*
X170791Y213319D01*
X171006Y212800D01*
X171079Y212244D01*
X171006Y211687D01*
X170791Y211168D01*
X170449Y210723D01*
X170004Y210381D01*
X169485Y210166D01*
X168929Y210093D01*
X168372Y210166D01*
X167853Y210381D01*
X167411Y210721D01*
X161292Y216840D01*
X164332Y219880D01*
G37*
G36*
X170946Y166744D02*
X171389Y167083D01*
X171908Y167298D01*
X172464Y167371D01*
X173021Y167298D01*
X173539Y167083D01*
X173985Y166742D01*
X174327Y166296D01*
X174541Y165778D01*
X174615Y165221D01*
X174541Y164664D01*
X174327Y164146D01*
X173987Y163703D01*
X167868Y157584D01*
X164827Y160625D01*
X170946Y166744D01*
G37*
G36*
X167868Y223416D02*
X173987Y217297D01*
X174327Y216854D01*
X174541Y216336D01*
X174615Y215779D01*
X174541Y215222D01*
X174327Y214704D01*
X173985Y214258D01*
X173539Y213917D01*
X173021Y213702D01*
X172464Y213629D01*
X171908Y213702D01*
X171389Y213917D01*
X170946Y214256D01*
X164827Y220375D01*
X167868Y223416D01*
G37*
G36*
X178734Y164146D02*
X178519Y164664D01*
X178445Y165221D01*
X178519Y165778D01*
X178734Y166296D01*
X179075Y166742D01*
X179521Y167083D01*
X180039Y167298D01*
X180596Y167371D01*
X181152Y167298D01*
X181671Y167083D01*
X182114Y166744D01*
X188233Y160625D01*
X185192Y157584D01*
X179073Y163703D01*
X178734Y164146D01*
G37*
G36*
X178734Y214704D02*
X178519Y215222D01*
X178445Y215779D01*
X178519Y216336D01*
X178734Y216854D01*
X179073Y217297D01*
X185192Y223416D01*
X188233Y220375D01*
X182114Y214256D01*
X181671Y213917D01*
X181152Y213702D01*
X180596Y213629D01*
X180039Y213702D01*
X179521Y213917D01*
X179075Y214258D01*
X178734Y214704D01*
G37*
G36*
X182269Y167681D02*
X182054Y168200D01*
X181981Y168756D01*
X182054Y169313D01*
X182269Y169832D01*
X182611Y170277D01*
X183056Y170619D01*
X183575Y170834D01*
X184131Y170907D01*
X184688Y170834D01*
X185207Y170619D01*
X185649Y170279D01*
X191768Y164160D01*
X188728Y161120D01*
X182609Y167239D01*
X182269Y167681D01*
G37*
G36*
X182269Y211168D02*
X182054Y211687D01*
X181981Y212244D01*
X182054Y212800D01*
X182269Y213319D01*
X182609Y213761D01*
X188728Y219880D01*
X191768Y216840D01*
X185649Y210721D01*
X185207Y210381D01*
X184688Y210166D01*
X184131Y210093D01*
X183575Y210166D01*
X183056Y210381D01*
X182611Y210723D01*
X182269Y211168D01*
G37*
G36*
X196411Y181823D02*
X196196Y182342D01*
X196123Y182899D01*
X196196Y183455D01*
X196411Y183974D01*
X196753Y184419D01*
X197198Y184761D01*
X197717Y184976D01*
X198274Y185049D01*
X198830Y184976D01*
X199349Y184761D01*
X199792Y184421D01*
X205910Y178302D01*
X202870Y175262D01*
X196751Y181381D01*
X196411Y181823D01*
G37*
G36*
X196411Y197026D02*
X196196Y197545D01*
X196123Y198101D01*
X196196Y198658D01*
X196411Y199177D01*
X196751Y199619D01*
X202870Y205738D01*
X205910Y202698D01*
X199792Y196579D01*
X199349Y196239D01*
X198830Y196024D01*
X198274Y195951D01*
X197717Y196024D01*
X197198Y196239D01*
X196753Y196581D01*
X196411Y197026D01*
G37*
G36*
X199947Y185359D02*
X199732Y185878D01*
X199659Y186434D01*
X199732Y186991D01*
X199947Y187509D01*
X200289Y187955D01*
X200734Y188296D01*
X201253Y188511D01*
X201809Y188585D01*
X202366Y188511D01*
X202884Y188296D01*
X203327Y187957D01*
X209446Y181838D01*
X206405Y178797D01*
X200286Y184916D01*
X199947Y185359D01*
G37*
G36*
X199947Y193491D02*
X199732Y194009D01*
X199659Y194566D01*
X199732Y195122D01*
X199947Y195641D01*
X200286Y196084D01*
X206405Y202203D01*
X209446Y199162D01*
X203327Y193043D01*
X202884Y192704D01*
X202366Y192489D01*
X201809Y192415D01*
X201253Y192489D01*
X200734Y192704D01*
X200289Y193045D01*
X199947Y193491D01*
G37*
G36*
X160340Y177350D02*
X160782Y177690D01*
X161301Y177905D01*
X161858Y177978D01*
X162414Y177905D01*
X162933Y177690D01*
X163378Y177348D01*
X163720Y176903D01*
X163935Y176384D01*
X164008Y175828D01*
X163935Y175271D01*
X163720Y174752D01*
X163380Y174310D01*
X157261Y168191D01*
X154221Y171231D01*
X160340Y177350D01*
G37*
G36*
X157261Y212809D02*
X163380Y206690D01*
X163720Y206248D01*
X163935Y205729D01*
X164008Y205172D01*
X163935Y204616D01*
X163720Y204097D01*
X163378Y203652D01*
X162933Y203310D01*
X162414Y203095D01*
X161858Y203022D01*
X161301Y203095D01*
X160782Y203310D01*
X160340Y203650D01*
X154221Y209769D01*
X157261Y212809D01*
G37*
G36*
X189340Y174752D02*
X189125Y175271D01*
X189052Y175828D01*
X189125Y176384D01*
X189340Y176903D01*
X189682Y177348D01*
X190127Y177690D01*
X190646Y177905D01*
X191202Y177978D01*
X191759Y177905D01*
X192278Y177690D01*
X192720Y177350D01*
X198839Y171231D01*
X195799Y168191D01*
X189680Y174310D01*
X189340Y174752D01*
G37*
G36*
X189340Y204097D02*
X189125Y204616D01*
X189052Y205172D01*
X189125Y205729D01*
X189340Y206248D01*
X189680Y206690D01*
X195799Y212809D01*
X198839Y209769D01*
X192720Y203650D01*
X192278Y203310D01*
X191759Y203095D01*
X191202Y203022D01*
X190646Y203095D01*
X190127Y203310D01*
X189682Y203652D01*
X189340Y204097D01*
G37*
G36*
X176530Y215107D02*
X199123Y192515D01*
X199123Y188485D01*
X176530Y165893D01*
X151923Y190500D01*
X176530Y215107D01*
G37*
D10*
X527050Y379810D03*
X527050Y389810D03*
D11*
X457200Y89700D03*
X457200Y62700D03*
D12*
X170100Y147320D03*
X160100Y147320D03*
X181690Y147320D03*
X191690Y147320D03*
X181690Y135890D03*
X191690Y135890D03*
D10*
X513080Y125810D03*
X513080Y135810D03*
X524510Y125810D03*
X524510Y135810D03*
X524510Y171370D03*
X524510Y161370D03*
G36*
X322869Y40862D02*
X331592Y38525D01*
X329513Y30768D01*
X320790Y33105D01*
X322869Y40862D01*
G37*
G36*
X320280Y31203D02*
X329003Y28866D01*
X326924Y21109D01*
X318201Y23446D01*
X320280Y31203D01*
G37*
G36*
X163593Y118163D02*
X169979Y111777D01*
X164299Y106097D01*
X157913Y112483D01*
X163593Y118163D01*
G37*
G36*
X156522Y111092D02*
X162908Y104706D01*
X157228Y99026D01*
X150842Y105412D01*
X156522Y111092D01*
G37*
G36*
X61301Y262080D02*
X63638Y253357D01*
X55881Y251278D01*
X53544Y260001D01*
X61301Y262080D01*
G37*
G36*
X51642Y259492D02*
X53979Y250769D01*
X46222Y248690D01*
X43885Y257413D01*
X51642Y259492D01*
G37*
X501650Y379810D03*
X501650Y389810D03*
G36*
X44672Y437861D02*
X42335Y429138D01*
X34578Y431217D01*
X36915Y439940D01*
X44672Y437861D01*
G37*
G36*
X35013Y440450D02*
X32676Y431727D01*
X24919Y433806D01*
X27256Y442529D01*
X35013Y440450D01*
G37*
G36*
X118163Y598407D02*
X111777Y592021D01*
X106097Y597701D01*
X112483Y604087D01*
X118163Y598407D01*
G37*
G36*
X111092Y605478D02*
X104706Y599092D01*
X99026Y604772D01*
X105412Y611158D01*
X111092Y605478D01*
G37*
G36*
X262080Y700699D02*
X253357Y698362D01*
X251278Y706119D01*
X260001Y708456D01*
X262080Y700699D01*
G37*
G36*
X259492Y710358D02*
X250769Y708021D01*
X248690Y715778D01*
X257413Y718115D01*
X259492Y710358D01*
G37*
G36*
X425228Y731809D02*
X427565Y740532D01*
X435322Y738453D01*
X432985Y729730D01*
X425228Y731809D01*
G37*
G36*
X434887Y729220D02*
X437224Y737943D01*
X444981Y735864D01*
X442644Y727141D01*
X434887Y729220D01*
G37*
G36*
X598407Y643837D02*
X592021Y650223D01*
X597701Y655903D01*
X604087Y649517D01*
X598407Y643837D01*
G37*
G36*
X605478Y650908D02*
X599092Y657294D01*
X604772Y662974D01*
X611158Y656588D01*
X605478Y650908D01*
G37*
G36*
X700699Y499920D02*
X698362Y508643D01*
X706119Y510722D01*
X708456Y501999D01*
X700699Y499920D01*
G37*
G36*
X710358Y502508D02*
X708021Y511231D01*
X715778Y513310D01*
X718115Y504587D01*
X710358Y502508D01*
G37*
G36*
X717328Y324139D02*
X719665Y332862D01*
X727422Y330783D01*
X725085Y322060D01*
X717328Y324139D01*
G37*
G36*
X726987Y321550D02*
X729324Y330273D01*
X737081Y328194D01*
X734744Y319471D01*
X726987Y321550D01*
G37*
G36*
X643837Y163593D02*
X650223Y169979D01*
X655903Y164299D01*
X649517Y157913D01*
X643837Y163593D01*
G37*
G36*
X650908Y156522D02*
X657294Y162908D01*
X662974Y157228D01*
X656588Y150842D01*
X650908Y156522D01*
G37*
G36*
X499920Y61301D02*
X508643Y63638D01*
X510722Y55881D01*
X501999Y53544D01*
X499920Y61301D01*
G37*
G36*
X502508Y51642D02*
X511231Y53979D01*
X513310Y46222D01*
X504587Y43885D01*
X502508Y51642D01*
G37*
D12*
X303450Y495300D03*
X293450Y495300D03*
D10*
X490220Y379810D03*
X490220Y389810D03*
X273050Y180260D03*
X273050Y170260D03*
G36*
X210148Y116745D02*
X217968Y112229D01*
X213952Y105275D01*
X206132Y109791D01*
X210148Y116745D01*
G37*
G36*
X205148Y108085D02*
X212968Y103569D01*
X208952Y96615D01*
X201132Y101131D01*
X205148Y108085D01*
G37*
D12*
X170100Y135890D03*
X160100Y135890D03*
D13*
X466090Y121800D03*
X466090Y106800D03*
D14*
X490220Y89660D03*
X490220Y121160D03*
D15*
X412000Y67820D03*
X404500Y67820D03*
D16*
X398500Y67820D03*
X393500Y67820D03*
X388500Y67820D03*
X383500Y67820D03*
X378500Y67820D03*
X373500Y67820D03*
X368500Y67820D03*
X363500Y67820D03*
D15*
X357500Y67820D03*
X350000Y67820D03*
D17*
X409900Y57120D03*
D18*
X424200Y26820D02*
X424200Y13820D01*
X337800Y13820D02*
X337800Y26820D01*
X424200Y55620D02*
X424200Y68620D01*
X337800Y68620D02*
X337800Y55620D01*
D17*
X352100Y57120D03*
D13*
X449580Y121800D03*
X449580Y106800D03*
D19*
G36*
X304675Y30528D02*
X310500Y28967D01*
X305833Y11550D01*
X300008Y13111D01*
X304675Y30528D01*
G37*
G36*
X297431Y32469D02*
X303256Y30908D01*
X298589Y13491D01*
X292764Y15052D01*
X297431Y32469D01*
G37*
D20*
G36*
X290669Y34281D02*
X296012Y32849D01*
X291345Y15433D01*
X286002Y16865D01*
X290669Y34281D01*
G37*
D21*
G36*
X281010Y36869D02*
X288767Y34790D01*
X284100Y17373D01*
X276343Y19452D01*
X281010Y36869D01*
G37*
D19*
G36*
X273283Y38940D02*
X279108Y37379D01*
X274441Y19962D01*
X268616Y21523D01*
X273283Y38940D01*
G37*
G36*
X266038Y40881D02*
X271863Y39320D01*
X267196Y21903D01*
X261371Y23464D01*
X266038Y40881D01*
G37*
D22*
G36*
X259796Y36842D02*
X264625Y35548D01*
X263072Y29754D01*
X258243Y31048D01*
X259796Y36842D01*
G37*
G36*
X309058Y23643D02*
X313887Y22349D01*
X312334Y16555D01*
X307505Y17849D01*
X309058Y23643D01*
G37*
D19*
G36*
X731472Y304675D02*
X733033Y310500D01*
X750450Y305833D01*
X748889Y300008D01*
X731472Y304675D01*
G37*
G36*
X729531Y297431D02*
X731092Y303256D01*
X748509Y298589D01*
X746948Y292764D01*
X729531Y297431D01*
G37*
D20*
G36*
X727719Y290669D02*
X729151Y296012D01*
X746567Y291345D01*
X745135Y286002D01*
X727719Y290669D01*
G37*
D21*
G36*
X725131Y281010D02*
X727210Y288767D01*
X744627Y284100D01*
X742548Y276343D01*
X725131Y281010D01*
G37*
D19*
G36*
X723060Y273283D02*
X724621Y279108D01*
X742038Y274441D01*
X740477Y268616D01*
X723060Y273283D01*
G37*
G36*
X721119Y266038D02*
X722680Y271863D01*
X740097Y267196D01*
X738536Y261371D01*
X721119Y266038D01*
G37*
D22*
G36*
X725158Y259796D02*
X726452Y264625D01*
X732246Y263072D01*
X730952Y258243D01*
X725158Y259796D01*
G37*
G36*
X738357Y309058D02*
X739651Y313887D01*
X745445Y312334D01*
X744151Y307505D01*
X738357Y309058D01*
G37*
D19*
G36*
X646355Y139664D02*
X650620Y143929D01*
X663369Y131180D01*
X659104Y126915D01*
X646355Y139664D01*
G37*
G36*
X641052Y134361D02*
X645317Y138626D01*
X658066Y125877D01*
X653801Y121612D01*
X641052Y134361D01*
G37*
D20*
G36*
X636102Y129411D02*
X640014Y133323D01*
X652764Y120573D01*
X648852Y116661D01*
X636102Y129411D01*
G37*
D21*
G36*
X629030Y122340D02*
X634710Y128020D01*
X647460Y115270D01*
X641780Y109590D01*
X629030Y122340D01*
G37*
D19*
G36*
X623374Y116683D02*
X627639Y120948D01*
X640388Y108199D01*
X636123Y103934D01*
X623374Y116683D01*
G37*
G36*
X618071Y111380D02*
X622336Y115645D01*
X635085Y102896D01*
X630820Y98631D01*
X618071Y111380D01*
G37*
D22*
G36*
X618447Y103955D02*
X621983Y107491D01*
X626225Y103249D01*
X622689Y99713D01*
X618447Y103955D01*
G37*
G36*
X654509Y140017D02*
X658045Y143553D01*
X662287Y139311D01*
X658751Y135775D01*
X654509Y140017D01*
G37*
D19*
G36*
X490137Y39320D02*
X495962Y40881D01*
X500629Y23464D01*
X494804Y21903D01*
X490137Y39320D01*
G37*
G36*
X482892Y37379D02*
X488717Y38940D01*
X493384Y21523D01*
X487559Y19962D01*
X482892Y37379D01*
G37*
D20*
G36*
X476130Y35566D02*
X481473Y36998D01*
X486140Y19582D01*
X480797Y18150D01*
X476130Y35566D01*
G37*
D21*
G36*
X466472Y32979D02*
X474229Y35058D01*
X478896Y17641D01*
X471139Y15562D01*
X466472Y32979D01*
G37*
D19*
G36*
X458744Y30908D02*
X464569Y32469D01*
X469236Y15052D01*
X463411Y13491D01*
X458744Y30908D01*
G37*
G36*
X451500Y28967D02*
X457325Y30528D01*
X461992Y13111D01*
X456167Y11550D01*
X451500Y28967D01*
G37*
D22*
G36*
X448113Y22349D02*
X452942Y23643D01*
X454495Y17849D01*
X449666Y16555D01*
X448113Y22349D01*
G37*
G36*
X497375Y35548D02*
X502204Y36842D01*
X503757Y31048D01*
X498928Y29754D01*
X497375Y35548D01*
G37*
D19*
G36*
X139664Y115645D02*
X143929Y111380D01*
X131180Y98631D01*
X126915Y102896D01*
X139664Y115645D01*
G37*
G36*
X134361Y120948D02*
X138626Y116683D01*
X125877Y103934D01*
X121612Y108199D01*
X134361Y120948D01*
G37*
D20*
G36*
X129411Y125898D02*
X133323Y121986D01*
X120573Y109236D01*
X116661Y113148D01*
X129411Y125898D01*
G37*
D21*
G36*
X122340Y132970D02*
X128020Y127290D01*
X115270Y114540D01*
X109590Y120220D01*
X122340Y132970D01*
G37*
D19*
G36*
X116683Y138626D02*
X120948Y134361D01*
X108199Y121612D01*
X103934Y125877D01*
X116683Y138626D01*
G37*
G36*
X111380Y143929D02*
X115645Y139664D01*
X102896Y126915D01*
X98631Y131180D01*
X111380Y143929D01*
G37*
D22*
G36*
X103955Y143553D02*
X107491Y140017D01*
X103249Y135775D01*
X99713Y139311D01*
X103955Y143553D01*
G37*
G36*
X140017Y107491D02*
X143553Y103955D01*
X139311Y99713D01*
X135775Y103249D01*
X140017Y107491D01*
G37*
D19*
G36*
X39320Y271863D02*
X40881Y266038D01*
X23464Y261371D01*
X21903Y267196D01*
X39320Y271863D01*
G37*
G36*
X37379Y279108D02*
X38940Y273283D01*
X21523Y268616D01*
X19962Y274441D01*
X37379Y279108D01*
G37*
D20*
G36*
X35566Y285870D02*
X36998Y280527D01*
X19582Y275860D01*
X18150Y281203D01*
X35566Y285870D01*
G37*
D21*
G36*
X32979Y295528D02*
X35058Y287771D01*
X17641Y283104D01*
X15562Y290861D01*
X32979Y295528D01*
G37*
D19*
G36*
X30908Y303256D02*
X32469Y297431D01*
X15052Y292764D01*
X13491Y298589D01*
X30908Y303256D01*
G37*
G36*
X28967Y310500D02*
X30528Y304675D01*
X13111Y300008D01*
X11550Y305833D01*
X28967Y310500D01*
G37*
D22*
G36*
X22349Y313887D02*
X23643Y309058D01*
X17849Y307505D01*
X16555Y312334D01*
X22349Y313887D01*
G37*
G36*
X35548Y264625D02*
X36842Y259796D01*
X31048Y258243D01*
X29754Y263072D01*
X35548Y264625D01*
G37*
D19*
G36*
X30528Y457325D02*
X28967Y451500D01*
X11550Y456167D01*
X13111Y461992D01*
X30528Y457325D01*
G37*
G36*
X32469Y464569D02*
X30908Y458744D01*
X13491Y463411D01*
X15052Y469236D01*
X32469Y464569D01*
G37*
D20*
G36*
X34281Y471331D02*
X32849Y465988D01*
X15433Y470655D01*
X16865Y475998D01*
X34281Y471331D01*
G37*
D21*
G36*
X36869Y480990D02*
X34790Y473233D01*
X17373Y477900D01*
X19452Y485657D01*
X36869Y480990D01*
G37*
D19*
G36*
X38940Y488717D02*
X37379Y482892D01*
X19962Y487559D01*
X21523Y493384D01*
X38940Y488717D01*
G37*
G36*
X40881Y495962D02*
X39320Y490137D01*
X21903Y494804D01*
X23464Y500629D01*
X40881Y495962D01*
G37*
D22*
G36*
X36842Y502204D02*
X35548Y497375D01*
X29754Y498928D01*
X31048Y503757D01*
X36842Y502204D01*
G37*
G36*
X23643Y452942D02*
X22349Y448113D01*
X16555Y449666D01*
X17849Y454495D01*
X23643Y452942D01*
G37*
D19*
G36*
X115645Y622336D02*
X111380Y618071D01*
X98631Y630820D01*
X102896Y635085D01*
X115645Y622336D01*
G37*
G36*
X120948Y627639D02*
X116683Y623374D01*
X103934Y636123D01*
X108199Y640388D01*
X120948Y627639D01*
G37*
D20*
G36*
X125898Y632589D02*
X121986Y628677D01*
X109236Y641427D01*
X113148Y645339D01*
X125898Y632589D01*
G37*
D21*
G36*
X132970Y639660D02*
X127290Y633980D01*
X114540Y646730D01*
X120220Y652410D01*
X132970Y639660D01*
G37*
D19*
G36*
X138626Y645317D02*
X134361Y641052D01*
X121612Y653801D01*
X125877Y658066D01*
X138626Y645317D01*
G37*
G36*
X143929Y650620D02*
X139664Y646355D01*
X126915Y659104D01*
X131180Y663369D01*
X143929Y650620D01*
G37*
D22*
G36*
X143553Y658045D02*
X140017Y654509D01*
X135775Y658751D01*
X139311Y662287D01*
X143553Y658045D01*
G37*
G36*
X107491Y621983D02*
X103955Y618447D01*
X99713Y622689D01*
X103249Y626225D01*
X107491Y621983D01*
G37*
D19*
G36*
X271863Y722680D02*
X266038Y721119D01*
X261371Y738536D01*
X267196Y740097D01*
X271863Y722680D01*
G37*
G36*
X279108Y724621D02*
X273283Y723060D01*
X268616Y740477D01*
X274441Y742038D01*
X279108Y724621D01*
G37*
D20*
G36*
X285870Y726434D02*
X280527Y725002D01*
X275860Y742418D01*
X281203Y743850D01*
X285870Y726434D01*
G37*
D21*
G36*
X295529Y729021D02*
X287772Y726942D01*
X283105Y744359D01*
X290862Y746438D01*
X295529Y729021D01*
G37*
D19*
G36*
X303256Y731092D02*
X297431Y729531D01*
X292764Y746948D01*
X298589Y748509D01*
X303256Y731092D01*
G37*
G36*
X310500Y733033D02*
X304675Y731472D01*
X300008Y748889D01*
X305833Y750450D01*
X310500Y733033D01*
G37*
D22*
G36*
X313887Y739651D02*
X309058Y738357D01*
X307505Y744151D01*
X312334Y745445D01*
X313887Y739651D01*
G37*
G36*
X264625Y726452D02*
X259796Y725158D01*
X258243Y730952D01*
X263072Y732246D01*
X264625Y726452D01*
G37*
D19*
G36*
X457325Y731472D02*
X451500Y733033D01*
X456167Y750450D01*
X461992Y748889D01*
X457325Y731472D01*
G37*
G36*
X464569Y729531D02*
X458744Y731092D01*
X463411Y748509D01*
X469236Y746948D01*
X464569Y729531D01*
G37*
D20*
G36*
X471331Y727719D02*
X465988Y729151D01*
X470655Y746567D01*
X475998Y745135D01*
X471331Y727719D01*
G37*
D21*
G36*
X480990Y725131D02*
X473233Y727210D01*
X477900Y744627D01*
X485657Y742548D01*
X480990Y725131D01*
G37*
D19*
G36*
X488717Y723060D02*
X482892Y724621D01*
X487559Y742038D01*
X493384Y740477D01*
X488717Y723060D01*
G37*
G36*
X495962Y721119D02*
X490137Y722680D01*
X494804Y740097D01*
X500629Y738536D01*
X495962Y721119D01*
G37*
D22*
G36*
X502204Y725158D02*
X497375Y726452D01*
X498928Y732246D01*
X503757Y730952D01*
X502204Y725158D01*
G37*
G36*
X452942Y738357D02*
X448113Y739651D01*
X449666Y745445D01*
X454495Y744151D01*
X452942Y738357D01*
G37*
D19*
G36*
X622336Y646355D02*
X618071Y650620D01*
X630820Y663369D01*
X635085Y659104D01*
X622336Y646355D01*
G37*
G36*
X627639Y641052D02*
X623374Y645317D01*
X636123Y658066D01*
X640388Y653801D01*
X627639Y641052D01*
G37*
D20*
G36*
X632589Y636102D02*
X628677Y640014D01*
X641427Y652764D01*
X645339Y648852D01*
X632589Y636102D01*
G37*
D21*
G36*
X639660Y629030D02*
X633980Y634710D01*
X646730Y647460D01*
X652410Y641780D01*
X639660Y629030D01*
G37*
D19*
G36*
X645317Y623374D02*
X641052Y627639D01*
X653801Y640388D01*
X658066Y636123D01*
X645317Y623374D01*
G37*
G36*
X650620Y618071D02*
X646355Y622336D01*
X659104Y635085D01*
X663369Y630820D01*
X650620Y618071D01*
G37*
D22*
G36*
X658045Y618447D02*
X654509Y621983D01*
X658751Y626225D01*
X662287Y622689D01*
X658045Y618447D01*
G37*
G36*
X621983Y654509D02*
X618447Y658045D01*
X622689Y662287D01*
X626225Y658751D01*
X621983Y654509D01*
G37*
D19*
G36*
X722680Y490137D02*
X721119Y495962D01*
X738536Y500629D01*
X740097Y494804D01*
X722680Y490137D01*
G37*
G36*
X724621Y482892D02*
X723060Y488717D01*
X740477Y493384D01*
X742038Y487559D01*
X724621Y482892D01*
G37*
D20*
G36*
X726434Y476130D02*
X725002Y481473D01*
X742418Y486140D01*
X743850Y480797D01*
X726434Y476130D01*
G37*
D21*
G36*
X729021Y466471D02*
X726942Y474228D01*
X744359Y478895D01*
X746438Y471138D01*
X729021Y466471D01*
G37*
D19*
G36*
X731092Y458744D02*
X729531Y464569D01*
X746948Y469236D01*
X748509Y463411D01*
X731092Y458744D01*
G37*
G36*
X733033Y451500D02*
X731472Y457325D01*
X748889Y461992D01*
X750450Y456167D01*
X733033Y451500D01*
G37*
D22*
G36*
X739651Y448113D02*
X738357Y452942D01*
X744151Y454495D01*
X745445Y449666D01*
X739651Y448113D01*
G37*
G36*
X726452Y497375D02*
X725158Y502204D01*
X730952Y503757D01*
X732246Y498928D01*
X726452Y497375D01*
G37*
D10*
X515620Y379810D03*
X515620Y389810D03*
X213360Y248840D03*
X213360Y238840D03*
D12*
X151050Y270510D03*
X141050Y270510D03*
X119460Y270510D03*
X129460Y270510D03*
X284400Y118110D03*
X274400Y118110D03*
X279320Y74930D03*
X269320Y74930D03*
X303450Y505460D03*
X293450Y505460D03*
D10*
X543560Y379810D03*
X543560Y389810D03*
X561340Y379810D03*
X561340Y389810D03*
X287020Y180260D03*
X287020Y170260D03*
G36*
X219112Y90265D02*
X211292Y94781D01*
X215308Y101735D01*
X223128Y97219D01*
X219112Y90265D01*
G37*
G36*
X224112Y98925D02*
X216292Y103441D01*
X220308Y110395D01*
X228128Y105879D01*
X224112Y98925D01*
G37*
X403860Y109300D03*
X403860Y119300D03*
X358140Y109300D03*
X358140Y119300D03*
X186690Y248840D03*
X186690Y238840D03*
X196850Y248840D03*
X196850Y238840D03*
D23*
G36*
X176832Y97401D02*
X192014Y88635D01*
X185998Y78215D01*
X170816Y86981D01*
X176832Y97401D01*
G37*
G36*
X168332Y82679D02*
X183514Y73913D01*
X177498Y63493D01*
X162316Y72259D01*
X168332Y82679D01*
G37*
G36*
X222298Y71151D02*
X237480Y62385D01*
X231464Y51965D01*
X216282Y60731D01*
X222298Y71151D01*
G37*
G36*
X213798Y56429D02*
X228980Y47663D01*
X222964Y37243D01*
X207782Y46009D01*
X213798Y56429D01*
G37*
D12*
X269900Y107790D03*
X288900Y107790D03*
X279400Y87790D03*
D24*
X396000Y295440D03*
D25*
X468500Y372640D03*
D24*
X410000Y295440D03*
X382000Y295440D03*
X410000Y281440D03*
X396000Y281440D03*
X382000Y281440D03*
X410000Y309440D03*
X396000Y309440D03*
X382000Y309440D03*
D25*
X468500Y359940D03*
X468500Y347240D03*
X468500Y334540D03*
X468500Y321840D03*
X468500Y309140D03*
X468500Y296440D03*
X468500Y283740D03*
X468500Y271040D03*
X468500Y258340D03*
X468500Y245640D03*
X468500Y232940D03*
X468500Y220240D03*
X468500Y207540D03*
D26*
X450850Y195040D03*
D25*
X293500Y207540D03*
X293500Y220240D03*
X293500Y232940D03*
X293500Y245640D03*
X293500Y258340D03*
X293500Y271040D03*
X293500Y283740D03*
X293500Y296440D03*
X293500Y309140D03*
X293500Y321840D03*
X293500Y334540D03*
X293500Y347240D03*
X293500Y359940D03*
X293500Y372640D03*
D26*
X438150Y195040D03*
X425450Y195040D03*
X412750Y195040D03*
X400050Y195040D03*
X387350Y195040D03*
X374650Y195040D03*
X361950Y195040D03*
X349250Y195040D03*
X336550Y195040D03*
X323850Y195040D03*
X311150Y195040D03*
D27*
X369251Y131049D02*
X369251Y120551D01*
X369251Y131049D02*
X373749Y131049D01*
X373749Y120551D01*
X369251Y120551D01*
X369251Y123908D02*
X373749Y123908D01*
X373749Y127265D02*
X369251Y127265D01*
X369251Y130622D02*
X373749Y130622D01*
X378751Y131049D02*
X378751Y120551D01*
X378751Y131049D02*
X383249Y131049D01*
X383249Y120551D01*
X378751Y120551D01*
X378751Y123908D02*
X383249Y123908D01*
X383249Y127265D02*
X378751Y127265D01*
X378751Y130622D02*
X383249Y130622D01*
X388251Y131049D02*
X388251Y120551D01*
X388251Y131049D02*
X392749Y131049D01*
X392749Y120551D01*
X388251Y120551D01*
X388251Y123908D02*
X392749Y123908D01*
X392749Y127265D02*
X388251Y127265D01*
X388251Y130622D02*
X392749Y130622D01*
X388251Y108049D02*
X388251Y97551D01*
X388251Y108049D02*
X392749Y108049D01*
X392749Y97551D01*
X388251Y97551D01*
X388251Y100908D02*
X392749Y100908D01*
X392749Y104265D02*
X388251Y104265D01*
X388251Y107622D02*
X392749Y107622D01*
X378751Y108049D02*
X378751Y97551D01*
X378751Y108049D02*
X383249Y108049D01*
X383249Y97551D01*
X378751Y97551D01*
X378751Y100908D02*
X383249Y100908D01*
X383249Y104265D02*
X378751Y104265D01*
X378751Y107622D02*
X383249Y107622D01*
X369251Y108049D02*
X369251Y97551D01*
X369251Y108049D02*
X373749Y108049D01*
X373749Y97551D01*
X369251Y97551D01*
X369251Y100908D02*
X373749Y100908D01*
X373749Y104265D02*
X369251Y104265D01*
X369251Y107622D02*
X373749Y107622D01*
D12*
X144120Y283370D03*
X125120Y283370D03*
X134620Y303370D03*
X125120Y257650D03*
X144120Y257650D03*
X134620Y237650D03*
D28*
X542520Y125590D03*
X542520Y148590D03*
X542520Y171590D03*
D29*
X603020Y148590D03*
D30*
X402750Y513347D03*
X385250Y513347D03*
X367750Y513347D03*
X350250Y513347D03*
D31*
X325780Y477400D03*
X344780Y477400D03*
X344780Y462400D03*
X325780Y462400D03*
D32*
X260858Y467106D03*
X260858Y477520D03*
X260858Y487934D03*
D12*
X299800Y462280D03*
X309800Y462280D03*
X311070Y477520D03*
X301070Y477520D03*
D33*
X648648Y321178D02*
X648648Y319142D01*
X640912Y319142D01*
X640912Y321178D01*
X648648Y321178D01*
X648648Y324142D02*
X648648Y326178D01*
X648648Y324142D02*
X640912Y324142D01*
X640912Y326178D01*
X648648Y326178D01*
X648648Y329142D02*
X648648Y331178D01*
X648648Y329142D02*
X640912Y329142D01*
X640912Y331178D01*
X648648Y331178D01*
X648648Y334142D02*
X648648Y336178D01*
X648648Y334142D02*
X640912Y334142D01*
X640912Y336178D01*
X648648Y336178D01*
X677348Y336178D02*
X677348Y334142D01*
X669612Y334142D01*
X669612Y336178D01*
X677348Y336178D01*
X677348Y331178D02*
X677348Y329142D01*
X669612Y329142D01*
X669612Y331178D01*
X677348Y331178D01*
X677348Y326178D02*
X677348Y324142D01*
X669612Y324142D01*
X669612Y326178D01*
X677348Y326178D01*
X677348Y321178D02*
X677348Y319142D01*
X669612Y319142D01*
X669612Y321178D01*
X677348Y321178D01*
X667648Y317178D02*
X667648Y309442D01*
X665612Y309442D01*
X665612Y317178D01*
X667648Y317178D01*
X667648Y312004D02*
X665612Y312004D01*
X665612Y314566D02*
X667648Y314566D01*
X667648Y317128D02*
X665612Y317128D01*
X662648Y317178D02*
X662648Y309442D01*
X660612Y309442D01*
X660612Y317178D01*
X662648Y317178D01*
X662648Y312004D02*
X660612Y312004D01*
X660612Y314566D02*
X662648Y314566D01*
X662648Y317128D02*
X660612Y317128D01*
X657648Y317178D02*
X657648Y309442D01*
X655612Y309442D01*
X655612Y317178D01*
X657648Y317178D01*
X657648Y312004D02*
X655612Y312004D01*
X655612Y314566D02*
X657648Y314566D01*
X657648Y317128D02*
X655612Y317128D01*
X652648Y317178D02*
X652648Y309442D01*
X650612Y309442D01*
X650612Y317178D01*
X652648Y317178D01*
X652648Y312004D02*
X650612Y312004D01*
X650612Y314566D02*
X652648Y314566D01*
X652648Y317128D02*
X650612Y317128D01*
X652648Y338142D02*
X652648Y345878D01*
X652648Y338142D02*
X650612Y338142D01*
X650612Y345878D01*
X652648Y345878D01*
X652648Y340704D02*
X650612Y340704D01*
X650612Y343266D02*
X652648Y343266D01*
X652648Y345828D02*
X650612Y345828D01*
X657648Y345878D02*
X657648Y338142D01*
X655612Y338142D01*
X655612Y345878D01*
X657648Y345878D01*
X657648Y340704D02*
X655612Y340704D01*
X655612Y343266D02*
X657648Y343266D01*
X657648Y345828D02*
X655612Y345828D01*
X662648Y345878D02*
X662648Y338142D01*
X660612Y338142D01*
X660612Y345878D01*
X662648Y345878D01*
X662648Y340704D02*
X660612Y340704D01*
X660612Y343266D02*
X662648Y343266D01*
X662648Y345828D02*
X660612Y345828D01*
X667648Y345878D02*
X667648Y338142D01*
X665612Y338142D01*
X665612Y345878D01*
X667648Y345878D01*
X667648Y340704D02*
X665612Y340704D01*
X665612Y343266D02*
X667648Y343266D01*
X667648Y345828D02*
X665612Y345828D01*
D34*
X659130Y327660D03*
D10*
X632460Y332820D03*
X632460Y342820D03*
X621030Y332820D03*
X621030Y342820D03*
D12*
X646350Y384810D03*
X636350Y384810D03*
X663020Y384810D03*
X673020Y384810D03*
X622380Y313690D03*
X632380Y313690D03*
D13*
X662940Y358260D03*
X662940Y373260D03*
X646430Y358260D03*
X646430Y373260D03*
D10*
X359410Y462360D03*
X359410Y472360D03*
D23*
G36*
X62385Y237480D02*
X71151Y222298D01*
X60731Y216282D01*
X51965Y231464D01*
X62385Y237480D01*
G37*
G36*
X47663Y228980D02*
X56429Y213798D01*
X46009Y207782D01*
X37243Y222964D01*
X47663Y228980D01*
G37*
G36*
X88635Y192014D02*
X97401Y176832D01*
X86981Y170816D01*
X78215Y185998D01*
X88635Y192014D01*
G37*
G36*
X73913Y183514D02*
X82679Y168332D01*
X72259Y162316D01*
X63493Y177498D01*
X73913Y183514D01*
G37*
D10*
G36*
X107149Y225588D02*
X111665Y217768D01*
X104711Y213752D01*
X100195Y221572D01*
X107149Y225588D01*
G37*
G36*
X98489Y220588D02*
X103005Y212768D01*
X96051Y208752D01*
X91535Y216572D01*
X98489Y220588D01*
G37*
G36*
X89701Y218912D02*
X85185Y226732D01*
X92139Y230748D01*
X96655Y222928D01*
X89701Y218912D01*
G37*
G36*
X98361Y223912D02*
X93845Y231732D01*
X100799Y235748D01*
X105315Y227928D01*
X98361Y223912D01*
G37*
D35*
X653542Y264160D03*
X661670Y264160D03*
X669798Y264160D03*
D10*
X661670Y292020D03*
X661670Y282020D03*
D36*
X516000Y215100D03*
X246000Y215100D03*
X246000Y335100D03*
X516000Y335100D03*
D32*
X178816Y284988D03*
X178816Y295402D03*
X178816Y305816D03*
D37*
X74423Y581990D02*
X68361Y585490D01*
X62011Y574491D02*
X68073Y570991D01*
X61723Y559993D02*
X55661Y563493D01*
X49311Y552494D02*
X55373Y548994D01*
D38*
X84570Y583464D03*
X78220Y572466D03*
X71870Y561467D03*
X65520Y550468D03*
X59170Y539470D03*
D39*
X232628Y294895D03*
X240930Y284343D03*
X543560Y398780D03*
X371270Y469216D03*
X494538Y305816D03*
X561340Y398780D03*
X484886Y315976D03*
X412305Y178851D03*
X399665Y179455D03*
X390330Y178933D03*
X372052Y174194D03*
X417727Y78843D03*
X344170Y80010D03*
X10160Y412750D03*
X246888Y473456D03*
X273304Y445516D03*
X474472Y505968D03*
X221996Y507238D03*
X629412Y525780D03*
X587502Y484124D03*
X554736Y534670D03*
X59690Y457200D03*
X54356Y478536D03*
X146304Y541528D03*
X75946Y593344D03*
X243332Y87122D03*
X188468Y116840D03*
X145542Y163322D03*
X176276Y190500D03*
X202692Y133350D03*
X64444Y305951D03*
X67908Y246595D03*
X262890Y172720D03*
X315468Y504444D03*
X283718Y520446D03*
X82567Y304979D03*
X235966Y180318D03*
X326136Y120142D03*
X402590Y482516D03*
X161064Y397538D03*
X591058Y259588D03*
X481076Y163322D03*
X579120Y116840D03*
X656956Y194041D03*
X525597Y78232D03*
X711200Y432308D03*
X710431Y352147D03*
X684784Y525272D03*
X516128Y687578D03*
X236220Y685800D03*
X484632Y464058D03*
X206911Y166017D03*
X197104Y281686D03*
X236392Y252219D03*
X261067Y267761D03*
X381000Y137579D03*
X11430Y389890D03*
X504952Y163576D03*
X264414Y117856D03*
X501650Y484886D03*
X544068Y368300D03*
X515620Y402082D03*
X237820Y121234D03*
X112034Y244046D03*
X170633Y506929D03*
X280390Y162580D03*
X186944Y383568D03*
X167160Y290828D03*
X230962Y127282D03*
X134366Y226314D03*
X91267Y547487D03*
X458724Y495046D03*
X413766Y462760D03*
X204216Y447040D03*
X215674Y157254D03*
X110490Y534924D03*
X268986Y288798D03*
X254254Y120650D03*
X10160Y368300D03*
X193576Y367826D03*
X225333Y154060D03*
X512826Y258318D03*
X442214Y171958D03*
X379730Y168003D03*
X165128Y339852D03*
X213936Y302249D03*
X237556Y275200D03*
X516890Y524002D03*
X96329Y555652D03*
X261874Y447548D03*
X516890Y437388D03*
X196774Y441630D03*
X169644Y444079D03*
X108915Y552653D03*
X148548Y306112D03*
X415290Y90170D03*
X356068Y79208D03*
X45720Y525272D03*
X155702Y485902D03*
X381041Y90211D03*
X11430Y433070D03*
X209296Y407127D03*
X10160Y356870D03*
X221348Y374980D03*
X313690Y31750D03*
X279400Y45720D03*
X121920Y139700D03*
X36830Y302260D03*
X43180Y483870D03*
X302260Y725170D03*
X485140Y718820D03*
X640080Y622300D03*
X725170Y459740D03*
X622300Y121920D03*
X497840Y46990D03*
X149860Y113030D03*
X46990Y262890D03*
X41910Y454660D03*
X115570Y615696D03*
X266700Y713740D03*
X448310Y726440D03*
X612140Y650240D03*
X715010Y497840D03*
X727710Y313690D03*
X648970Y149860D03*
X544830Y91440D03*
X460520Y37053D03*
X685546Y214630D03*
X252222Y60198D03*
X717550Y278384D03*
X138541Y640080D03*
X372860Y79792D03*
X387032Y81372D03*
X192751Y263887D03*
X223240Y256714D03*
X125739Y233258D03*
X160048Y261366D03*
X333756Y173200D03*
X314452Y125758D03*
X298450Y54610D03*
X127000Y153670D03*
X146050Y140970D03*
X52070Y307340D03*
X166624Y353568D03*
X167640Y417040D03*
X59690Y469900D03*
X152200Y638879D03*
X194310Y657860D03*
X311150Y713740D03*
X300990Y699770D03*
X485810Y700084D03*
X694436Y461264D03*
X701040Y276860D03*
X709930Y449580D03*
X611828Y615732D03*
X471718Y698562D03*
X627411Y613475D03*
X618094Y162529D03*
X449580Y46990D03*
X601980Y127530D03*
X698726Y290641D03*
X359410Y483384D03*
X271530Y251210D03*
X688725Y319655D03*
X269240Y261620D03*
X689610Y330200D03*
X269240Y273050D03*
X672874Y298450D03*
D40*
X666496Y406400D03*
X642110Y406400D03*
D39*
X259588Y288036D03*
X167414Y248412D03*
X191356Y274582D03*
X164996Y276860D03*
X296414Y161770D03*
D41*
X621284Y203962D03*
X558038Y631698D03*
X109728Y489204D03*
X88757Y278591D03*
D39*
X10160Y422910D03*
X207031Y398039D03*
X211046Y377122D03*
X249682Y165100D03*
X451358Y170942D03*
X506250Y268760D03*
X10922Y379222D03*
X204470Y388112D03*
X466908Y182118D03*
X498526Y263632D03*
X258621Y157529D03*
X10160Y401066D03*
X195382Y388874D03*
X490982Y255524D03*
X475996Y182372D03*
X251311Y151440D03*
X205054Y286588D03*
M02*
