M48
;GenerationSoftware,Autodesk,EAGLE,9.7.0*%
;CreationDate,2026-01-05T21:09:12Z*%
FMAT,2
ICI,OFF
METRIC,TZ,000.000
T4C0.350
T3C0.600
T2C0.650
T1C1.200
%
G90
M71
T1
X11608Y0
X21858Y0
X56693Y0
X46443Y0
T2
X5331Y2890
X5331Y-2890
T3
X5831Y-4320
X1651Y4320
X1651Y-4320
X5831Y4320
T4
X44069Y3937
X19939Y-3048
X10414Y-3810
X27686Y-3302
X11938Y-2667
X13081Y-2540
X3302Y0
X57912Y-3838
X32385Y-635
X7747Y3810
X55153Y-4283
X56430Y-4448
X59769Y2226
X3937Y-889
X4064Y1016
X8128Y1905
X7888Y-1781
X52832Y-837
X44704Y-3631
X8636Y0
X7772Y-3912
X70742Y-3048
X38862Y0
X30607Y-1374
X50038Y-2944
X53975Y-4448
X41783Y-4448
X59690Y-3533
X65001Y-3533
M30