G04 EAGLE Gerber RS-274X export*
G75*
%MOMM*%
%FSLAX34Y34*%
%LPD*%
%INTop Copper*%
%IPPOS*%
%AMOC8*
5,1,8,0,0,1.08239X$1,22.5*%
G01*
G04 Define Apertures*
%ADD10R,3.000000X1.400000*%
%ADD11R,0.736600X2.540000*%
%ADD12R,1.000000X1.000000*%
%ADD13R,0.500000X0.500000*%
%ADD14R,2.794000X0.889000*%
%ADD15R,0.700000X0.600000*%
%ADD16C,0.800000*%
%ADD17C,0.756400*%
%ADD18C,0.706400*%
%ADD19C,0.254000*%
%ADD20C,0.508000*%
%ADD21C,0.304800*%
%ADD22C,0.406400*%
%ADD23C,0.152400*%
G36*
X656621Y-5559D02*
X656326Y-5629D01*
X656027Y-5578D01*
X655772Y-5415D01*
X655600Y-5165D01*
X655540Y-4867D01*
X655540Y74168D01*
X655591Y74443D01*
X655755Y74698D01*
X656005Y74870D01*
X656302Y74930D01*
X823749Y74930D01*
X824012Y74883D01*
X824270Y74724D01*
X824445Y74476D01*
X824510Y74180D01*
X824455Y73882D01*
X824287Y73629D01*
X824004Y73346D01*
X824004Y68731D01*
X823953Y68456D01*
X823789Y68200D01*
X823539Y68029D01*
X823242Y67969D01*
X817184Y67969D01*
X816720Y67505D01*
X816479Y67342D01*
X816181Y67282D01*
X808770Y67282D01*
X797817Y56328D01*
X797597Y56175D01*
X797302Y56106D01*
X797003Y56157D01*
X796748Y56320D01*
X796576Y56570D01*
X796531Y56793D01*
X793408Y59916D01*
X789582Y59916D01*
X789307Y59967D01*
X789052Y60131D01*
X788880Y60381D01*
X788820Y60678D01*
X788820Y61964D01*
X785712Y65072D01*
X781316Y65072D01*
X778208Y61964D01*
X778208Y60602D01*
X778157Y60327D01*
X777993Y60072D01*
X777743Y59900D01*
X777446Y59840D01*
X773696Y59840D01*
X773687Y59831D01*
X773467Y59678D01*
X773172Y59608D01*
X772873Y59659D01*
X772618Y59822D01*
X772446Y60072D01*
X772386Y60369D01*
X772386Y61888D01*
X769278Y64996D01*
X764882Y64996D01*
X761774Y61888D01*
X761774Y61487D01*
X761727Y61224D01*
X761568Y60966D01*
X761320Y60790D01*
X761024Y60725D01*
X760726Y60781D01*
X760473Y60948D01*
X760312Y61110D01*
X755699Y61110D01*
X755601Y61086D01*
X755302Y61137D01*
X755046Y61301D01*
X754875Y61551D01*
X754815Y61848D01*
X754815Y62042D01*
X751853Y65004D01*
X747664Y65004D01*
X744703Y62042D01*
X744703Y60146D01*
X744651Y59871D01*
X744488Y59616D01*
X744238Y59444D01*
X743941Y59384D01*
X739586Y59384D01*
X739397Y59195D01*
X739177Y59042D01*
X738882Y58972D01*
X738583Y59023D01*
X738328Y59187D01*
X738156Y59437D01*
X738096Y59734D01*
X738096Y61888D01*
X734988Y64996D01*
X730592Y64996D01*
X727484Y61888D01*
X727484Y58901D01*
X727437Y58638D01*
X727278Y58380D01*
X727030Y58205D01*
X726734Y58140D01*
X726436Y58195D01*
X726183Y58363D01*
X725900Y58646D01*
X721504Y58646D01*
X721221Y58363D01*
X721001Y58210D01*
X720706Y58140D01*
X720407Y58191D01*
X720152Y58354D01*
X719980Y58604D01*
X719920Y58901D01*
X719920Y62348D01*
X716812Y65456D01*
X712416Y65456D01*
X709308Y62348D01*
X709308Y60678D01*
X709257Y60403D01*
X709093Y60148D01*
X708843Y59976D01*
X708546Y59916D01*
X704598Y59916D01*
X701490Y56808D01*
X701490Y52412D01*
X702305Y51597D01*
X702458Y51377D01*
X702528Y51082D01*
X702477Y50783D01*
X702314Y50528D01*
X702064Y50356D01*
X701767Y50296D01*
X674443Y50296D01*
X672084Y47937D01*
X672084Y14070D01*
X672028Y13784D01*
X671861Y13531D01*
X669314Y10984D01*
X669314Y7383D01*
X669258Y7097D01*
X669091Y6844D01*
X656841Y-5406D01*
X656621Y-5559D01*
G37*
%LPC*%
G36*
X687516Y55622D02*
X691704Y55622D01*
X694666Y58584D01*
X694666Y62772D01*
X691704Y65734D01*
X687516Y65734D01*
X684554Y62772D01*
X684554Y58584D01*
X687516Y55622D01*
G37*
%LPD*%
G36*
X874960Y41080D02*
X874664Y41015D01*
X874366Y41070D01*
X874113Y41238D01*
X869932Y45419D01*
X869769Y45661D01*
X869715Y45927D01*
X848276Y67366D01*
X834871Y67366D01*
X834608Y67413D01*
X834350Y67572D01*
X834175Y67820D01*
X834110Y68116D01*
X834165Y68414D01*
X834333Y68667D01*
X834616Y68950D01*
X834616Y73346D01*
X834333Y73629D01*
X834180Y73849D01*
X834110Y74144D01*
X834161Y74443D01*
X834324Y74698D01*
X834574Y74870D01*
X834871Y74930D01*
X850802Y74930D01*
X851088Y74874D01*
X851341Y74707D01*
X879461Y46587D01*
X879614Y46367D01*
X879684Y46072D01*
X879633Y45773D01*
X879470Y45518D01*
X879220Y45346D01*
X878923Y45286D01*
X878522Y45286D01*
X875414Y42178D01*
X875414Y41777D01*
X875367Y41513D01*
X875207Y41255D01*
X874960Y41080D01*
G37*
G36*
X825316Y-21554D02*
X825019Y-21614D01*
X823441Y-21614D01*
X823155Y-21558D01*
X822902Y-21391D01*
X821202Y-19690D01*
X821011Y-19655D01*
X820756Y-19491D01*
X820584Y-19241D01*
X820524Y-18944D01*
X820524Y-14869D01*
X819631Y-13976D01*
X788369Y-13976D01*
X787476Y-14869D01*
X787476Y-18944D01*
X787425Y-19219D01*
X787261Y-19474D01*
X787011Y-19646D01*
X786714Y-19706D01*
X737286Y-19706D01*
X737011Y-19655D01*
X736756Y-19491D01*
X736584Y-19241D01*
X736524Y-18944D01*
X736524Y-14869D01*
X735631Y-13976D01*
X704369Y-13976D01*
X703738Y-14607D01*
X703518Y-14760D01*
X703223Y-14830D01*
X702924Y-14779D01*
X702669Y-14615D01*
X702497Y-14365D01*
X702437Y-14068D01*
X702437Y-11307D01*
X701544Y-10414D01*
X700278Y-10414D01*
X700003Y-10363D01*
X699748Y-10199D01*
X699576Y-9949D01*
X699516Y-9652D01*
X699516Y-8358D01*
X699567Y-8083D01*
X699731Y-7828D01*
X699981Y-7656D01*
X700278Y-7596D01*
X700594Y-7596D01*
X703556Y-4634D01*
X703556Y-446D01*
X700594Y2516D01*
X696406Y2516D01*
X695891Y2001D01*
X695671Y1848D01*
X695376Y1778D01*
X695077Y1829D01*
X694822Y1992D01*
X694650Y2242D01*
X694590Y2540D01*
X694590Y3441D01*
X691628Y6402D01*
X688385Y6402D01*
X688121Y6449D01*
X687863Y6609D01*
X687688Y6856D01*
X687623Y7152D01*
X687678Y7450D01*
X687846Y7703D01*
X690626Y10483D01*
X690626Y37012D01*
X690682Y37298D01*
X690849Y37551D01*
X692981Y39683D01*
X693223Y39846D01*
X693520Y39906D01*
X748950Y39906D01*
X749236Y39850D01*
X749489Y39683D01*
X752136Y37036D01*
X798382Y37036D01*
X808025Y46679D01*
X808244Y46832D01*
X808539Y46901D01*
X808838Y46851D01*
X809094Y46687D01*
X809200Y46531D01*
X812287Y43445D01*
X814634Y43445D01*
X814909Y43393D01*
X815164Y43230D01*
X815336Y42980D01*
X815396Y42683D01*
X815396Y40984D01*
X815345Y40709D01*
X815182Y40454D01*
X814931Y40282D01*
X814634Y40222D01*
X812610Y40222D01*
X809648Y37260D01*
X809648Y33072D01*
X810395Y32325D01*
X810548Y32105D01*
X810618Y31810D01*
X810567Y31511D01*
X810403Y31256D01*
X810153Y31084D01*
X809856Y31024D01*
X788369Y31024D01*
X787476Y30131D01*
X787476Y26056D01*
X787425Y25781D01*
X787261Y25526D01*
X787011Y25354D01*
X786714Y25294D01*
X737286Y25294D01*
X737011Y25345D01*
X736756Y25509D01*
X736584Y25759D01*
X736524Y26056D01*
X736524Y30131D01*
X735631Y31024D01*
X704369Y31024D01*
X703476Y30131D01*
X703476Y14869D01*
X704369Y13976D01*
X735631Y13976D01*
X736524Y14869D01*
X736524Y18944D01*
X736575Y19219D01*
X736739Y19474D01*
X736989Y19646D01*
X737286Y19706D01*
X786714Y19706D01*
X786989Y19655D01*
X787244Y19491D01*
X787416Y19241D01*
X787476Y18944D01*
X787476Y14869D01*
X788369Y13976D01*
X811784Y13976D01*
X812059Y13925D01*
X812314Y13761D01*
X812486Y13511D01*
X812546Y13214D01*
X812546Y12066D01*
X812490Y11780D01*
X812323Y11527D01*
X811780Y10984D01*
X811780Y6796D01*
X814742Y3834D01*
X818930Y3834D01*
X821892Y6796D01*
X821892Y10984D01*
X820897Y11979D01*
X820734Y12221D01*
X820674Y12518D01*
X820674Y20769D01*
X820584Y20902D01*
X820524Y21199D01*
X820524Y30131D01*
X820282Y30373D01*
X820129Y30592D01*
X820060Y30887D01*
X820111Y31186D01*
X820274Y31442D01*
X820524Y31613D01*
X820821Y31674D01*
X825063Y31674D01*
X825338Y31622D01*
X825593Y31459D01*
X825765Y31209D01*
X825825Y30912D01*
X825825Y27346D01*
X828787Y24384D01*
X832389Y24384D01*
X832675Y24328D01*
X832927Y24161D01*
X833370Y23719D01*
X838605Y23719D01*
X838869Y23672D01*
X839127Y23512D01*
X839302Y23265D01*
X839367Y22969D01*
X839312Y22671D01*
X839144Y22418D01*
X838609Y21883D01*
X838609Y17487D01*
X841587Y14509D01*
X841745Y14278D01*
X841810Y13982D01*
X841755Y13684D01*
X841587Y13431D01*
X839244Y11088D01*
X839244Y6692D01*
X842352Y3584D01*
X846748Y3584D01*
X849856Y6692D01*
X849856Y11088D01*
X846878Y14066D01*
X846720Y14297D01*
X846655Y14593D01*
X846710Y14891D01*
X846878Y15144D01*
X849221Y17487D01*
X849221Y17888D01*
X849268Y18151D01*
X849427Y18409D01*
X849675Y18585D01*
X849971Y18650D01*
X850269Y18594D01*
X850522Y18427D01*
X860941Y8007D01*
X861099Y7777D01*
X861164Y7481D01*
X861109Y7183D01*
X860941Y6930D01*
X860320Y6309D01*
X860079Y6146D01*
X859782Y6086D01*
X853034Y6086D01*
X825558Y-21391D01*
X825316Y-21554D01*
G37*
%LPC*%
G36*
X781392Y-5080D02*
X785788Y-5080D01*
X788896Y-1972D01*
X788896Y-164D01*
X788947Y111D01*
X789111Y366D01*
X789361Y538D01*
X789658Y598D01*
X792962Y598D01*
X796070Y3706D01*
X796070Y8102D01*
X792962Y11210D01*
X788566Y11210D01*
X785458Y8102D01*
X785458Y6294D01*
X785407Y6019D01*
X785244Y5764D01*
X784993Y5592D01*
X784696Y5532D01*
X781392Y5532D01*
X778284Y2424D01*
X778284Y-1972D01*
X781392Y-5080D01*
G37*
%LPD*%
G36*
X2094074Y-22800D02*
X2093777Y-22860D01*
X1978069Y-22860D01*
X1977806Y-22813D01*
X1977548Y-22654D01*
X1977373Y-22406D01*
X1977308Y-22110D01*
X1977363Y-21812D01*
X1977531Y-21559D01*
X1978886Y-20204D01*
X1978886Y-15808D01*
X1975611Y-12533D01*
X1975458Y-12313D01*
X1975388Y-12018D01*
X1975439Y-11719D01*
X1975602Y-11464D01*
X1975852Y-11292D01*
X1976149Y-11232D01*
X1981321Y-11232D01*
X1982867Y-9686D01*
X1983109Y-9524D01*
X1983406Y-9463D01*
X2001763Y-9463D01*
X2002027Y-9510D01*
X2002285Y-9669D01*
X2002460Y-9917D01*
X2002525Y-10213D01*
X2002470Y-10511D01*
X2002302Y-10764D01*
X1999756Y-13311D01*
X1999756Y-17706D01*
X2002864Y-20814D01*
X2007259Y-20814D01*
X2010368Y-17706D01*
X2010368Y-13245D01*
X2010419Y-12971D01*
X2010582Y-12715D01*
X2010832Y-12544D01*
X2011130Y-12483D01*
X2011781Y-12483D01*
X2014889Y-9375D01*
X2014889Y-4979D01*
X2011781Y-1871D01*
X2007385Y-1871D01*
X2004588Y-4668D01*
X2004347Y-4831D01*
X2004049Y-4891D01*
X1981196Y-4891D01*
X1979651Y-6437D01*
X1979409Y-6600D01*
X1979112Y-6660D01*
X1978803Y-6660D01*
X1978540Y-6613D01*
X1978282Y-6454D01*
X1978107Y-6206D01*
X1978042Y-5910D01*
X1978097Y-5612D01*
X1978265Y-5359D01*
X1978886Y-4738D01*
X1978886Y-342D01*
X1975778Y2766D01*
X1971382Y2766D01*
X1968274Y-342D01*
X1968274Y-2342D01*
X1968223Y-2617D01*
X1968059Y-2872D01*
X1967809Y-3044D01*
X1967512Y-3104D01*
X1857812Y-3104D01*
X1857526Y-3048D01*
X1857273Y-2881D01*
X1854960Y-567D01*
X1850564Y-567D01*
X1848250Y-2881D01*
X1848009Y-3044D01*
X1847712Y-3104D01*
X1837276Y-3104D01*
X1836622Y-3758D01*
X1836402Y-3911D01*
X1836107Y-3981D01*
X1835808Y-3930D01*
X1835553Y-3767D01*
X1835381Y-3516D01*
X1835321Y-3219D01*
X1835321Y-1548D01*
X1832213Y1560D01*
X1827817Y1560D01*
X1825865Y-392D01*
X1825634Y-550D01*
X1825338Y-616D01*
X1825040Y-560D01*
X1824787Y-392D01*
X1821855Y2540D01*
X1817459Y2540D01*
X1814662Y-257D01*
X1814421Y-420D01*
X1814124Y-480D01*
X1795237Y-480D01*
X1794951Y-424D01*
X1794698Y-257D01*
X1772882Y21559D01*
X1772729Y21779D01*
X1772659Y22074D01*
X1772710Y22373D01*
X1772873Y22628D01*
X1773123Y22800D01*
X1773421Y22860D01*
X2063278Y22860D01*
X2063542Y22813D01*
X2063800Y22654D01*
X2063975Y22406D01*
X2064040Y22110D01*
X2063985Y21812D01*
X2063817Y21559D01*
X2062560Y20302D01*
X2062560Y15012D01*
X2077640Y15012D01*
X2077640Y20302D01*
X2076383Y21559D01*
X2076230Y21779D01*
X2076160Y22074D01*
X2076211Y22373D01*
X2076374Y22628D01*
X2076625Y22800D01*
X2076922Y22860D01*
X2096317Y22860D01*
X2096580Y22813D01*
X2096838Y22654D01*
X2097013Y22406D01*
X2097078Y22110D01*
X2097023Y21812D01*
X2096855Y21559D01*
X2096544Y21248D01*
X2096544Y16852D01*
X2099776Y13620D01*
X2099929Y13400D01*
X2099999Y13105D01*
X2099948Y12806D01*
X2099785Y12551D01*
X2099535Y12379D01*
X2099238Y12319D01*
X2097409Y12319D01*
X2096516Y11426D01*
X2096516Y1274D01*
X2097251Y539D01*
X2097409Y308D01*
X2097474Y12D01*
X2097418Y-286D01*
X2097251Y-539D01*
X2096516Y-1274D01*
X2096516Y-11712D01*
X2096465Y-11987D01*
X2096301Y-12242D01*
X2096051Y-12414D01*
X2095865Y-12452D01*
X2092734Y-15582D01*
X2092734Y-19978D01*
X2094315Y-21559D01*
X2094468Y-21779D01*
X2094538Y-22074D01*
X2094487Y-22373D01*
X2094324Y-22628D01*
X2094074Y-22800D01*
G37*
%LPC*%
G36*
X2064469Y-20774D02*
X2075731Y-20774D01*
X2076624Y-19881D01*
X2076624Y-8619D01*
X2075731Y-7726D01*
X2072386Y-7726D01*
X2072111Y-7675D01*
X2071856Y-7511D01*
X2071684Y-7261D01*
X2071624Y-6964D01*
X2071624Y-619D01*
X2071544Y-539D01*
X2071386Y-308D01*
X2071321Y-12D01*
X2071377Y286D01*
X2071544Y539D01*
X2071624Y619D01*
X2071624Y5948D01*
X2071675Y6223D01*
X2071839Y6478D01*
X2072089Y6650D01*
X2072386Y6710D01*
X2076152Y6710D01*
X2077640Y8198D01*
X2077640Y13488D01*
X2062560Y13488D01*
X2062560Y8198D01*
X2063353Y7405D01*
X2063516Y7164D01*
X2063576Y6866D01*
X2063576Y6798D01*
X2063525Y6523D01*
X2063361Y6268D01*
X2063111Y6096D01*
X2062814Y6036D01*
X2042506Y6036D01*
X2042220Y6092D01*
X2041967Y6259D01*
X2040234Y7992D01*
X2035839Y7992D01*
X2032730Y4884D01*
X2032730Y1396D01*
X2032679Y1121D01*
X2032516Y866D01*
X2032266Y694D01*
X2031968Y634D01*
X2025329Y634D01*
X2024436Y-259D01*
X2024436Y-7521D01*
X2024548Y-7633D01*
X2024706Y-7863D01*
X2024771Y-8159D01*
X2024715Y-8458D01*
X2024548Y-8710D01*
X2023420Y-9838D01*
X2023420Y-13128D01*
X2035500Y-13128D01*
X2035500Y-9838D01*
X2034373Y-8710D01*
X2034215Y-8480D01*
X2034149Y-8184D01*
X2034205Y-7886D01*
X2034373Y-7633D01*
X2034484Y-7521D01*
X2034484Y-7446D01*
X2034535Y-7171D01*
X2034699Y-6916D01*
X2034949Y-6744D01*
X2035246Y-6684D01*
X2038914Y-6684D01*
X2039200Y-6740D01*
X2039453Y-6907D01*
X2041943Y-9398D01*
X2046339Y-9398D01*
X2048970Y-6767D01*
X2049211Y-6604D01*
X2049509Y-6544D01*
X2062923Y-6544D01*
X2063209Y-6600D01*
X2063462Y-6767D01*
X2063906Y-7211D01*
X2064064Y-7442D01*
X2064129Y-7738D01*
X2064073Y-8036D01*
X2063906Y-8289D01*
X2063576Y-8619D01*
X2063576Y-19881D01*
X2064469Y-20774D01*
G37*
G36*
X1843112Y-1468D02*
X1847508Y-1468D01*
X1850616Y1640D01*
X1850616Y6036D01*
X1847508Y9144D01*
X1843112Y9144D01*
X1840004Y6036D01*
X1840004Y1640D01*
X1843112Y-1468D01*
G37*
G36*
X1888832Y-1496D02*
X1893228Y-1496D01*
X1896336Y1612D01*
X1896336Y6008D01*
X1893228Y9116D01*
X1888832Y9116D01*
X1885724Y6008D01*
X1885724Y1612D01*
X1888832Y-1496D01*
G37*
G36*
X2085682Y-11656D02*
X2090078Y-11656D01*
X2093186Y-8548D01*
X2093186Y-4152D01*
X2090078Y-1044D01*
X2085682Y-1044D01*
X2082574Y-4152D01*
X2082574Y-8548D01*
X2085682Y-11656D01*
G37*
G36*
X2030222Y-19430D02*
X2034012Y-19430D01*
X2035500Y-17942D01*
X2035500Y-14652D01*
X2030222Y-14652D01*
X2030222Y-19430D01*
G37*
G36*
X2024908Y-19430D02*
X2028698Y-19430D01*
X2028698Y-14652D01*
X2023420Y-14652D01*
X2023420Y-17942D01*
X2024908Y-19430D01*
G37*
%LPD*%
G36*
X957858Y9260D02*
X957561Y9200D01*
X955059Y9200D01*
X954773Y9256D01*
X954520Y9423D01*
X948480Y15463D01*
X948327Y15683D01*
X948257Y15978D01*
X948308Y16277D01*
X948472Y16532D01*
X948722Y16704D01*
X949019Y16764D01*
X1024840Y16764D01*
X1025115Y16713D01*
X1025370Y16549D01*
X1025542Y16299D01*
X1025602Y16002D01*
X1025602Y15494D01*
X1025551Y15219D01*
X1025387Y14964D01*
X1025137Y14792D01*
X1024840Y14732D01*
X963409Y14732D01*
X958100Y9423D01*
X957858Y9260D01*
G37*
G36*
X818158Y-65952D02*
X817861Y-66012D01*
X794429Y-66012D01*
X794166Y-65965D01*
X793908Y-65806D01*
X793733Y-65558D01*
X793668Y-65262D01*
X793723Y-64964D01*
X793891Y-64711D01*
X796516Y-62086D01*
X796516Y-57690D01*
X795344Y-56518D01*
X795186Y-56287D01*
X795121Y-55991D01*
X795176Y-55693D01*
X795344Y-55440D01*
X797786Y-52998D01*
X797786Y-48602D01*
X794678Y-45494D01*
X791864Y-45494D01*
X791589Y-45443D01*
X791334Y-45279D01*
X791162Y-45029D01*
X791102Y-44732D01*
X791102Y-40874D01*
X791153Y-40599D01*
X791316Y-40344D01*
X791567Y-40172D01*
X791864Y-40112D01*
X793408Y-40112D01*
X796516Y-37004D01*
X796516Y-32608D01*
X796233Y-32325D01*
X796080Y-32105D01*
X796010Y-31810D01*
X796061Y-31511D01*
X796224Y-31256D01*
X796474Y-31084D01*
X796771Y-31024D01*
X819631Y-31024D01*
X819994Y-30662D01*
X820224Y-30504D01*
X820520Y-30439D01*
X820818Y-30494D01*
X821071Y-30662D01*
X822136Y-31726D01*
X826324Y-31726D01*
X829286Y-28764D01*
X829286Y-25881D01*
X829342Y-25595D01*
X829509Y-25342D01*
X855126Y274D01*
X855367Y437D01*
X855664Y498D01*
X859782Y498D01*
X860068Y442D01*
X860320Y274D01*
X862359Y-1765D01*
X866548Y-1765D01*
X869510Y1197D01*
X869510Y4708D01*
X869561Y4982D01*
X869724Y5238D01*
X869974Y5409D01*
X870272Y5470D01*
X873999Y5470D01*
X876961Y8431D01*
X876961Y12620D01*
X876824Y12757D01*
X876671Y12976D01*
X876601Y13271D01*
X876652Y13570D01*
X876815Y13826D01*
X877065Y13997D01*
X877363Y14058D01*
X890122Y14058D01*
X890408Y14002D01*
X890661Y13835D01*
X896875Y7620D01*
X924816Y7620D01*
X925079Y7573D01*
X925337Y7414D01*
X925513Y7166D01*
X925578Y6870D01*
X925522Y6572D01*
X925355Y6319D01*
X925218Y6182D01*
X925218Y4036D01*
X925167Y3761D01*
X925003Y3506D01*
X924753Y3334D01*
X924456Y3274D01*
X908045Y3274D01*
X907759Y3330D01*
X907507Y3497D01*
X905416Y5588D01*
X878193Y5588D01*
X866415Y-6191D01*
X866173Y-6353D01*
X865876Y-6414D01*
X864922Y-6414D01*
X819178Y-52158D01*
X819178Y-52196D01*
X819122Y-52482D01*
X818955Y-52735D01*
X816408Y-55282D01*
X816408Y-59470D01*
X819370Y-62432D01*
X819917Y-62432D01*
X820180Y-62479D01*
X820438Y-62638D01*
X820614Y-62886D01*
X820679Y-63182D01*
X820623Y-63480D01*
X820456Y-63733D01*
X818400Y-65789D01*
X818158Y-65952D01*
G37*
G36*
X1969388Y-22800D02*
X1969091Y-22860D01*
X1068523Y-22860D01*
X1068260Y-22813D01*
X1068002Y-22654D01*
X1067827Y-22406D01*
X1067762Y-22110D01*
X1067817Y-21812D01*
X1067985Y-21559D01*
X1069566Y-19978D01*
X1069566Y-15582D01*
X1068493Y-14509D01*
X1068340Y-14289D01*
X1068270Y-13994D01*
X1068321Y-13695D01*
X1068484Y-13440D01*
X1068734Y-13268D01*
X1069031Y-13208D01*
X1106078Y-13208D01*
X1123635Y4349D01*
X1123876Y4512D01*
X1124173Y4572D01*
X1309500Y4572D01*
X1309763Y4525D01*
X1310021Y4366D01*
X1310197Y4118D01*
X1310262Y3822D01*
X1310206Y3524D01*
X1310039Y3271D01*
X1306854Y86D01*
X1306854Y-4102D01*
X1309816Y-7064D01*
X1313812Y-7064D01*
X1314098Y-7120D01*
X1314351Y-7287D01*
X1319199Y-12136D01*
X1429594Y-12136D01*
X1429869Y-12187D01*
X1430124Y-12351D01*
X1430296Y-12601D01*
X1430356Y-12898D01*
X1430356Y-15126D01*
X1433464Y-18234D01*
X1437860Y-18234D01*
X1440968Y-15126D01*
X1440968Y-10730D01*
X1437860Y-7622D01*
X1436594Y-7622D01*
X1436330Y-7575D01*
X1436072Y-7416D01*
X1435897Y-7168D01*
X1435832Y-6872D01*
X1435887Y-6574D01*
X1436055Y-6321D01*
X1439646Y-2730D01*
X1439865Y-2577D01*
X1440160Y-2508D01*
X1440459Y-2558D01*
X1440714Y-2722D01*
X1440886Y-2972D01*
X1440887Y-2979D01*
X1443908Y-5999D01*
X1448097Y-5999D01*
X1449508Y-4588D01*
X1449738Y-4430D01*
X1450035Y-4365D01*
X1450333Y-4421D01*
X1450586Y-4588D01*
X1457880Y-11882D01*
X1782299Y-11882D01*
X1782585Y-11938D01*
X1782838Y-12105D01*
X1790997Y-20264D01*
X1867357Y-20264D01*
X1876166Y-11455D01*
X1876407Y-11292D01*
X1876705Y-11232D01*
X1971011Y-11232D01*
X1971274Y-11279D01*
X1971532Y-11438D01*
X1971707Y-11686D01*
X1971772Y-11982D01*
X1971717Y-12280D01*
X1971549Y-12533D01*
X1968274Y-15808D01*
X1968274Y-20204D01*
X1969629Y-21559D01*
X1969782Y-21779D01*
X1969852Y-22074D01*
X1969801Y-22373D01*
X1969638Y-22628D01*
X1969388Y-22800D01*
G37*
%LPC*%
G36*
X1234782Y-16256D02*
X1239178Y-16256D01*
X1242286Y-13148D01*
X1242286Y-8752D01*
X1239178Y-5644D01*
X1234782Y-5644D01*
X1231674Y-8752D01*
X1231674Y-13148D01*
X1234782Y-16256D01*
G37*
G36*
X1299656Y-16006D02*
X1303844Y-16006D01*
X1306806Y-13044D01*
X1306806Y-8856D01*
X1303844Y-5894D01*
X1299656Y-5894D01*
X1296694Y-8856D01*
X1296694Y-13044D01*
X1299656Y-16006D01*
G37*
%LPD*%
G36*
X885799Y-23832D02*
X885504Y-23904D01*
X885205Y-23856D01*
X884948Y-23694D01*
X884774Y-23445D01*
X884712Y-23149D01*
X884770Y-22851D01*
X885669Y-20679D01*
X885669Y-18277D01*
X884750Y-16057D01*
X883050Y-14358D01*
X880831Y-13438D01*
X878428Y-13438D01*
X876208Y-14358D01*
X874509Y-16057D01*
X873589Y-18277D01*
X873589Y-20679D01*
X874115Y-21948D01*
X874172Y-22209D01*
X874124Y-22509D01*
X873962Y-22766D01*
X873713Y-22939D01*
X873417Y-23002D01*
X873119Y-22944D01*
X871850Y-22418D01*
X869447Y-22418D01*
X867541Y-23208D01*
X867274Y-23265D01*
X866975Y-23215D01*
X866719Y-23051D01*
X866548Y-22801D01*
X866488Y-22504D01*
X866488Y-20086D01*
X863526Y-17124D01*
X862517Y-17124D01*
X862254Y-17077D01*
X861996Y-16918D01*
X861820Y-16670D01*
X861755Y-16374D01*
X861811Y-16076D01*
X861978Y-15823D01*
X866592Y-11209D01*
X866834Y-11046D01*
X867131Y-10986D01*
X868085Y-10986D01*
X879864Y793D01*
X880106Y956D01*
X880403Y1016D01*
X896108Y1016D01*
X896371Y969D01*
X896629Y810D01*
X896805Y562D01*
X896870Y266D01*
X896814Y-32D01*
X896647Y-285D01*
X896199Y-733D01*
X895957Y-896D01*
X895660Y-956D01*
X892058Y-956D01*
X889096Y-3918D01*
X889096Y-8107D01*
X892058Y-11068D01*
X896247Y-11068D01*
X899208Y-8107D01*
X899208Y-5842D01*
X899259Y-5567D01*
X899423Y-5312D01*
X899673Y-5140D01*
X899970Y-5080D01*
X900681Y-5080D01*
X900967Y-5136D01*
X901220Y-5303D01*
X912069Y-16152D01*
X1014026Y-16152D01*
X1014312Y-16208D01*
X1014564Y-16375D01*
X1016453Y-18264D01*
X1023167Y-18264D01*
X1025942Y-15489D01*
X1026172Y-15331D01*
X1026469Y-15266D01*
X1026767Y-15321D01*
X1027020Y-15489D01*
X1027537Y-16006D01*
X1031725Y-16006D01*
X1034687Y-13044D01*
X1034687Y-8856D01*
X1031725Y-5894D01*
X1027537Y-5894D01*
X1024575Y-8856D01*
X1024575Y-10074D01*
X1024519Y-10360D01*
X1024352Y-10613D01*
X1021496Y-13469D01*
X1021255Y-13632D01*
X1020957Y-13692D01*
X1018663Y-13692D01*
X1018377Y-13636D01*
X1018124Y-13469D01*
X1016235Y-11580D01*
X965578Y-11580D01*
X965315Y-11533D01*
X965057Y-11374D01*
X964881Y-11126D01*
X964816Y-10830D01*
X964872Y-10532D01*
X965039Y-10279D01*
X965176Y-10142D01*
X965176Y-5954D01*
X964187Y-4965D01*
X964029Y-4734D01*
X963964Y-4438D01*
X964020Y-4140D01*
X964187Y-3887D01*
X965367Y-2707D01*
X965609Y-2544D01*
X965906Y-2484D01*
X1030508Y-2484D01*
X1030794Y-2540D01*
X1031047Y-2707D01*
X1041548Y-13208D01*
X1059489Y-13208D01*
X1059752Y-13255D01*
X1060010Y-13414D01*
X1060185Y-13662D01*
X1060250Y-13958D01*
X1060195Y-14256D01*
X1060027Y-14509D01*
X1058954Y-15582D01*
X1058954Y-19978D01*
X1060535Y-21559D01*
X1060688Y-21779D01*
X1060758Y-22074D01*
X1060707Y-22373D01*
X1060544Y-22628D01*
X1060294Y-22800D01*
X1059997Y-22860D01*
X903171Y-22860D01*
X903007Y-22974D01*
X902712Y-23044D01*
X902413Y-22993D01*
X902158Y-22830D01*
X901986Y-22580D01*
X901926Y-22282D01*
X901926Y-20662D01*
X898818Y-17554D01*
X894422Y-17554D01*
X893403Y-18573D01*
X893162Y-18736D01*
X892865Y-18796D01*
X890680Y-18796D01*
X887260Y-22216D01*
X887228Y-22381D01*
X887060Y-22634D01*
X886012Y-23682D01*
X885799Y-23832D01*
G37*
G36*
X724759Y-74870D02*
X724461Y-74930D01*
X704215Y-74930D01*
X703940Y-74879D01*
X703685Y-74715D01*
X703513Y-74465D01*
X703453Y-74168D01*
X703453Y-63500D01*
X696468Y-63500D01*
X696468Y-61976D01*
X703453Y-61976D01*
X703453Y-50292D01*
X703504Y-50017D01*
X703668Y-49762D01*
X703918Y-49590D01*
X704215Y-49530D01*
X727257Y-49530D01*
X727520Y-49577D01*
X727778Y-49736D01*
X727953Y-49984D01*
X728018Y-50280D01*
X727963Y-50578D01*
X727795Y-50831D01*
X727484Y-51142D01*
X727484Y-54670D01*
X727437Y-54933D01*
X727278Y-55192D01*
X727030Y-55367D01*
X726734Y-55432D01*
X726436Y-55376D01*
X726183Y-55209D01*
X725834Y-54860D01*
X721646Y-54860D01*
X721005Y-55501D01*
X720774Y-55659D01*
X720478Y-55724D01*
X720180Y-55668D01*
X719927Y-55501D01*
X716746Y-52320D01*
X712558Y-52320D01*
X709596Y-55282D01*
X709596Y-59470D01*
X712558Y-62432D01*
X713487Y-62432D01*
X713773Y-62488D01*
X714026Y-62655D01*
X725000Y-73629D01*
X725153Y-73849D01*
X725223Y-74144D01*
X725172Y-74443D01*
X725009Y-74698D01*
X724759Y-74870D01*
G37*
G36*
X851100Y-74870D02*
X850802Y-74930D01*
X821875Y-74930D01*
X821611Y-74883D01*
X821353Y-74724D01*
X821178Y-74476D01*
X821113Y-74180D01*
X821168Y-73882D01*
X821336Y-73629D01*
X829308Y-65657D01*
X829538Y-65499D01*
X829834Y-65434D01*
X830133Y-65490D01*
X830385Y-65657D01*
X831506Y-66778D01*
X835694Y-66778D01*
X838656Y-63816D01*
X838656Y-60729D01*
X838703Y-60465D01*
X838862Y-60207D01*
X839110Y-60032D01*
X839406Y-59967D01*
X839704Y-60022D01*
X839957Y-60190D01*
X840287Y-60520D01*
X842507Y-61439D01*
X844909Y-61439D01*
X847129Y-60520D01*
X847306Y-60343D01*
X847536Y-60185D01*
X847832Y-60120D01*
X848131Y-60176D01*
X848383Y-60343D01*
X851202Y-63162D01*
X856365Y-57998D01*
X857443Y-59076D01*
X852280Y-64239D01*
X855135Y-67095D01*
X856781Y-67777D01*
X857011Y-67925D01*
X857186Y-68172D01*
X857251Y-68469D01*
X857196Y-68767D01*
X857028Y-69020D01*
X851341Y-74707D01*
X851100Y-74870D01*
G37*
D10*
X720000Y22500D03*
X804000Y22500D03*
X720000Y-22500D03*
X804000Y-22500D03*
D11*
X659130Y-62738D03*
X659130Y-24638D03*
X671830Y-62738D03*
X671830Y-24638D03*
X684530Y-62738D03*
X684530Y-24638D03*
X697230Y-62738D03*
X697230Y-24638D03*
D12*
X2070100Y-14250D03*
X2070100Y14250D03*
D13*
X2067600Y-3750D03*
X2067600Y3750D03*
D14*
X2112010Y6350D03*
X2112010Y-6350D03*
D15*
X2029460Y-3890D03*
X2029460Y-13890D03*
D16*
X885780Y-34609D02*
X880832Y-29661D01*
X871852Y-38642D02*
X876800Y-43590D01*
X867820Y-52570D02*
X862872Y-47622D01*
X853891Y-56602D02*
X858839Y-61550D01*
D17*
X1531620Y-16510D03*
D18*
X1229360Y-3354D03*
X1189990Y-10136D03*
X840392Y71398D03*
X815340Y71120D03*
X723900Y0D03*
X723900Y8890D03*
X723900Y-8890D03*
X819150Y-41910D03*
X1019810Y-10160D03*
X1120140Y-12700D03*
D17*
X956310Y12982D03*
X2057400Y-19078D03*
X2057400Y19078D03*
D19*
X2065272Y19078D02*
X2070100Y14250D01*
X2065272Y19078D02*
X2057400Y19078D01*
D17*
X1891030Y-19078D03*
X1934210Y-15014D03*
X1965960Y3838D03*
D18*
X740410Y8890D03*
X740410Y-7620D03*
X706120Y-53340D03*
D20*
X845591Y-69850D02*
X856365Y-59076D01*
X845591Y-69850D02*
X842010Y-69850D01*
X830580Y-69850D01*
X829310Y-71120D01*
D17*
X829310Y-71120D03*
X2090420Y6350D03*
D19*
X697230Y-62738D02*
X684530Y-62738D01*
D21*
X1452479Y2139D02*
X1455889Y-1270D01*
X1452479Y2139D02*
X1448523Y6096D01*
D18*
X1311910Y-2008D03*
D21*
X1313382Y-2008D01*
X1320462Y-9088D01*
X1438165Y525D02*
X1443736Y6096D01*
X1438165Y525D02*
X1438165Y100D01*
X1428977Y-9088D01*
X1320462Y-9088D01*
X1443736Y6096D02*
X1448523Y6096D01*
D22*
X2112010Y6350D02*
X2112010Y8890D01*
X2101850Y19050D01*
D17*
X2101850Y19050D03*
X1489583Y-2105D03*
D21*
X1488749Y-1270D01*
X1455889Y-1270D01*
D18*
X1301750Y-10950D03*
D17*
X1435662Y-12928D03*
X1236980Y-10950D03*
D21*
X892363Y-22860D02*
X891347Y-23876D01*
D20*
X892363Y-22860D02*
X896620Y-22860D01*
D17*
X896620Y-22860D03*
D18*
X960120Y-8048D03*
D19*
X2046183Y-3750D02*
X2067600Y-3750D01*
D17*
X2044141Y-4092D03*
D19*
X2045841Y-4092D02*
X2046183Y-3750D01*
X2045841Y-4092D02*
X2044141Y-4092D01*
D17*
X1973580Y-18006D03*
D19*
X2029460Y-3890D02*
X2043939Y-3890D01*
X2044141Y-4092D01*
D20*
X891347Y-23876D02*
X891347Y-24094D01*
X883306Y-32135D01*
D23*
X671830Y-24638D02*
X671830Y-5080D01*
X681990Y5080D01*
X687070Y10160D01*
D18*
X688340Y42192D03*
X870114Y29465D03*
X839776Y48086D03*
D23*
X816791Y54319D02*
X811972Y54319D01*
X835821Y52041D02*
X839776Y48086D01*
X824931Y50999D02*
X820111Y50999D01*
X824931Y50999D02*
X825974Y52041D01*
X820111Y50999D02*
X816791Y54319D01*
X825974Y52041D02*
X835821Y52041D01*
X861383Y38197D02*
X870114Y29465D01*
X848687Y38197D02*
X845279Y41605D01*
X848687Y38197D02*
X861383Y38197D01*
X845279Y42583D02*
X839776Y48086D01*
X845279Y42583D02*
X845279Y41605D01*
X688340Y11430D02*
X687070Y10160D01*
X688340Y11430D02*
X688340Y42192D01*
X806422Y48769D02*
X811972Y54319D01*
X806422Y48769D02*
X806422Y48309D01*
X797435Y39322D01*
X750212Y42192D02*
X688340Y42192D01*
X753083Y39322D02*
X797435Y39322D01*
X753083Y39322D02*
X750212Y42192D01*
D18*
X689610Y60678D03*
D19*
X736600Y-43180D02*
X733044Y-46736D01*
X676388Y-46736D01*
D18*
X736600Y-43180D03*
D17*
X880720Y39980D03*
X922961Y-5409D03*
X1365250Y790D03*
X829310Y71148D03*
X843915Y19685D03*
X1891030Y3810D03*
X1845310Y3838D03*
D19*
X676388Y-46736D02*
X675894Y-46736D01*
X671830Y-50800D01*
X671830Y-62738D01*
D23*
X684530Y-24638D02*
X684530Y-3810D01*
D18*
X689534Y1346D03*
D23*
X689534Y1194D02*
X684530Y-3810D01*
X689534Y1194D02*
X689534Y1346D01*
D18*
X714652Y-57376D03*
D23*
X714652Y-60048D01*
D18*
X833600Y-61722D03*
D23*
X830011Y-61722D01*
X725950Y-71346D02*
X714652Y-60048D01*
X725950Y-71346D02*
X820386Y-71346D01*
X830011Y-61722D01*
X697230Y-24638D02*
X697230Y-3810D01*
X698500Y-2540D01*
D18*
X698500Y-2540D03*
D23*
X827532Y-51617D02*
X857250Y-21899D01*
X827532Y-51617D02*
X827532Y-59890D01*
D18*
X861432Y-22180D03*
D23*
X861150Y-21899D02*
X857250Y-21899D01*
X861150Y-21899D02*
X861432Y-22180D01*
D18*
X723740Y-59916D03*
D23*
X732122Y-68298D01*
X819124Y-68298D02*
X827532Y-59890D01*
X819124Y-68298D02*
X732122Y-68298D01*
X659130Y-24638D02*
X659130Y-6350D01*
X674370Y8890D01*
D18*
X674370Y8890D03*
D23*
X674370Y46990D01*
X823024Y57902D02*
X823024Y58109D01*
X840558Y58109D01*
D18*
X851097Y44015D03*
D23*
X851097Y47570D01*
X840558Y58109D01*
D18*
X822521Y56817D03*
D23*
X822521Y57399D02*
X823024Y57902D01*
X822521Y57399D02*
X822521Y56817D01*
X823024Y58109D02*
X811451Y58109D01*
X675390Y48010D02*
X674370Y46990D01*
X675390Y48010D02*
X720451Y48010D01*
X721189Y47272D01*
X803374Y49571D02*
X803374Y50032D01*
X811451Y58109D01*
X803374Y49571D02*
X796172Y42370D01*
X749443Y47272D02*
X721189Y47272D01*
X749443Y47272D02*
X754345Y42370D01*
X796172Y42370D01*
D18*
X758190Y-33020D03*
X930274Y4088D03*
D17*
X1064260Y-17780D03*
X844550Y8890D03*
D20*
X727636Y-41402D02*
X667258Y-41402D01*
X755626Y-35584D02*
X758190Y-33020D01*
X733454Y-35584D02*
X727636Y-41402D01*
X733454Y-35584D02*
X755626Y-35584D01*
X667258Y-41402D02*
X663448Y-41402D01*
X659130Y-45720D01*
X659130Y-62738D01*
D17*
X790764Y5904D03*
X783590Y226D03*
X785796Y-42244D03*
X792480Y-50800D03*
X791210Y-59888D03*
X774700Y-59690D03*
X767080Y-53340D03*
X757964Y-59690D03*
X749300Y-53340D03*
X741680Y-59690D03*
X732790Y-53340D03*
X791210Y-34806D03*
X758114Y55804D03*
X767080Y59690D03*
X775894Y54534D03*
X783514Y59766D03*
X791210Y54610D03*
X732790Y59690D03*
X723702Y53340D03*
X714614Y60150D03*
X706796Y54610D03*
D19*
X720000Y-22500D02*
X804000Y-22500D01*
D18*
X824230Y-26670D03*
D19*
X820060Y-22500D02*
X804000Y-22500D01*
X820060Y-22500D02*
X824230Y-26670D01*
D18*
X864454Y3292D03*
D19*
X854192Y3292D01*
X824230Y-26670D01*
X813160Y22500D02*
X804000Y22500D01*
D18*
X816836Y8890D03*
D19*
X816610Y9116D01*
D20*
X816610Y19050D01*
D19*
X813160Y22500D01*
X804000Y22500D02*
X720000Y22500D01*
D18*
X741680Y54328D03*
D23*
X1026950Y19050D02*
X1029970Y16030D01*
X1032990Y13010D01*
X1043029Y13010D01*
X1049069Y19050D01*
X889796Y30864D02*
X876944Y30864D01*
X889796Y30864D02*
X901610Y19050D01*
X741910Y54098D02*
X741680Y54328D01*
X864375Y43724D02*
X864375Y43433D01*
X876944Y30864D01*
X846067Y62032D02*
X825534Y62032D01*
X846067Y62032D02*
X864375Y43724D01*
X824931Y62635D02*
X819393Y62635D01*
X824931Y62635D02*
X825534Y62032D01*
X818707Y61948D02*
X810980Y61948D01*
X818707Y61948D02*
X819393Y62635D01*
X901610Y19050D02*
X1026950Y19050D01*
D18*
X1030658Y16030D03*
D23*
X1029970Y16030D01*
D17*
X1830015Y-3746D03*
D23*
X1824927Y-8834D01*
X1767847Y19050D02*
X1049069Y19050D01*
X1767847Y19050D02*
X1795731Y-8834D01*
X1824927Y-8834D01*
X810980Y61948D02*
X800326Y51294D01*
X800326Y50834D01*
X794910Y45418D01*
X746927Y54098D02*
X741910Y54098D01*
X755608Y45418D02*
X794910Y45418D01*
X755608Y45418D02*
X746927Y54098D01*
X1037590Y22098D02*
X1038201Y21487D01*
D18*
X1039246Y19078D03*
D23*
X1038201Y20123D01*
X1038201Y21487D01*
X902872Y22098D02*
X891059Y33912D01*
X878206Y33912D01*
X867423Y44695D01*
X867423Y44987D01*
X847329Y65080D01*
X826797Y65080D01*
X826194Y65683D01*
X818131Y65683D01*
X817444Y64996D01*
X809717Y64996D01*
X902872Y22098D02*
X1037590Y22098D01*
X1039246Y19078D02*
X1042266Y22098D01*
X1769110Y22098D01*
D17*
X1819657Y-2766D03*
D23*
X1793974Y-2766D01*
X1769110Y22098D01*
D18*
X749759Y59948D03*
D23*
X797278Y52557D02*
X809717Y64996D01*
X797278Y52557D02*
X797278Y52097D01*
X793647Y48466D01*
X752046Y53290D02*
X752046Y57660D01*
X749759Y59948D01*
X756870Y48466D02*
X793647Y48466D01*
X756870Y48466D02*
X752046Y53290D01*
D18*
X1029631Y-10950D03*
X894152Y-6012D03*
D23*
X897371Y-2794D01*
X901944Y-2794D01*
D18*
X871905Y10526D03*
D23*
X871672Y10293D01*
D18*
X830881Y29440D03*
D23*
X1017400Y-15978D02*
X1022220Y-15978D01*
X1027248Y-10950D02*
X1029631Y-10950D01*
X1027248Y-10950D02*
X1022220Y-15978D01*
X1017400Y-15978D02*
X1015288Y-13866D01*
X913016Y-13866D02*
X901944Y-2794D01*
X913016Y-13866D02*
X1015288Y-13866D01*
X871672Y10293D02*
X861889Y10293D01*
X846177Y26005D01*
X834317Y26005D01*
X830881Y29440D01*
X1050361Y9962D02*
X1056401Y16002D01*
X834725Y42268D02*
X834349Y42644D01*
X893909Y22440D02*
X900347Y16002D01*
D18*
X823500Y42826D03*
D23*
X823682Y42644D01*
X834349Y42644D01*
X953797Y6914D02*
X958824Y6914D01*
X944709Y16002D02*
X900347Y16002D01*
X958824Y6914D02*
X964356Y12446D01*
X953797Y6914D02*
X944709Y16002D01*
X893909Y22440D02*
X862674Y22440D01*
X849965Y35149D01*
X847425Y35149D01*
X840305Y42268D02*
X834725Y42268D01*
X840305Y42268D02*
X847425Y35149D01*
X964356Y12446D02*
X1026014Y12446D01*
X1028498Y9962D02*
X1050361Y9962D01*
X1028498Y9962D02*
X1026014Y12446D01*
D17*
X1973580Y-2540D03*
D23*
X1970730Y-5390D01*
X1852930Y-5390D02*
X1838223Y-5390D01*
X1866900Y-5390D02*
X1970730Y-5390D01*
X1838223Y-5390D02*
X1831731Y-11882D01*
X1766585Y16002D02*
X1056401Y16002D01*
X1766585Y16002D02*
X1794469Y-11882D01*
X1831731Y-11882D01*
X1852930Y-5390D02*
X1866900Y-5390D01*
D17*
X1852762Y-5873D03*
D23*
X1852930Y-5705D01*
X1852930Y-5390D01*
X1057663Y12954D02*
X1051623Y6914D01*
D18*
X814381Y48501D03*
D23*
X892647Y19392D02*
X899085Y12954D01*
X817682Y45200D02*
X814381Y48501D01*
X817682Y45200D02*
X817682Y40416D01*
X821090Y37008D01*
X825910Y37008D01*
X827209Y38306D01*
X952534Y3866D02*
X960086Y3866D01*
X943446Y12954D02*
X899085Y12954D01*
X943446Y12954D02*
X952534Y3866D01*
X960086Y3866D02*
X965618Y9398D01*
X892647Y19392D02*
X861411Y19392D01*
X848702Y32101D01*
X846162Y32101D02*
X839957Y38306D01*
X827209Y38306D01*
X846162Y32101D02*
X848702Y32101D01*
X965618Y9398D02*
X1024751Y9398D01*
X1027235Y6914D02*
X1051623Y6914D01*
X1027235Y6914D02*
X1024751Y9398D01*
X1057663Y12954D02*
X1496060Y12954D01*
X1497330Y12954D01*
D17*
X1840736Y-11458D03*
D23*
X1837264Y-14930D01*
X1765322Y12954D02*
X1496060Y12954D01*
X1765322Y12954D02*
X1793206Y-14930D01*
X1837264Y-14930D01*
D18*
X821464Y-57376D03*
D23*
X821464Y-53104D01*
X865869Y-8700D01*
X867139Y-8700D01*
X879140Y3302D01*
X904469Y3302D01*
X1042495Y-10922D02*
X1105131Y-10922D01*
X1042495Y-10922D02*
X1031771Y-198D01*
X906783Y988D02*
X904469Y3302D01*
X906783Y988D02*
X925146Y988D01*
X1105131Y-10922D02*
X1122911Y6858D01*
D18*
X1428537Y4088D03*
D23*
X1425767Y6858D02*
X1122911Y6858D01*
X1425767Y6858D02*
X1428537Y4088D01*
X964643Y-198D02*
X962611Y-2230D01*
X964643Y-198D02*
X1031771Y-198D01*
X962611Y-2230D02*
X928364Y-2230D01*
X925146Y988D01*
D18*
X1446002Y-943D03*
D23*
X1450174Y-943D01*
X1458826Y-9596D01*
D17*
X2009583Y-7177D03*
D23*
X1982143Y-7177D01*
X1980375Y-8946D01*
X1875442Y-8946D02*
X1866410Y-17978D01*
X1875442Y-8946D02*
X1980375Y-8946D01*
X1783562Y-9596D02*
X1458826Y-9596D01*
X1783562Y-9596D02*
X1791944Y-17978D01*
X1866410Y-17978D01*
D17*
X2087880Y-6350D03*
X1536700Y6886D03*
D23*
X1023620Y3810D02*
X1021080Y6350D01*
X1023620Y3810D02*
X1046480Y3810D01*
X1052830Y3810D01*
X1058926Y9906D01*
X1060450Y9906D01*
X1121410Y9906D01*
D18*
X1456788Y7136D03*
D23*
X1454018Y9906D01*
X1179830Y9906D02*
X1121410Y9906D01*
X1179830Y9906D02*
X1268730Y9906D01*
X1299210Y9906D01*
X1301750Y9906D01*
X1308100Y9906D01*
X1316990Y9906D01*
X1332230Y9906D01*
X1350010Y9906D01*
X1363980Y9906D01*
X1371600Y9906D01*
X1375410Y9906D01*
X1433830Y9906D01*
X1442158Y9906D02*
X1454018Y9906D01*
X1442158Y9906D02*
X1433830Y9906D01*
D18*
X814704Y35166D03*
D23*
X817468Y35166D01*
X891384Y16344D02*
X897822Y9906D01*
X828471Y35258D02*
X827173Y33960D01*
X818674Y33960D01*
X817468Y35166D01*
X951271Y818D02*
X961349Y818D01*
X966881Y6350D02*
X1021080Y6350D01*
X966881Y6350D02*
X961349Y818D01*
X942183Y9906D02*
X897822Y9906D01*
X942183Y9906D02*
X951271Y818D01*
X891384Y16344D02*
X860148Y16344D01*
X847440Y29053D01*
X844900Y29053D02*
X838694Y35258D01*
X828471Y35258D01*
X844900Y29053D02*
X847440Y29053D01*
D22*
X2109470Y-6350D02*
X2112010Y-6350D01*
X2109470Y-6350D02*
X2098040Y-17780D01*
D17*
X2098040Y-17780D03*
X2005062Y-15508D03*
D23*
X2040830Y3750D02*
X2067600Y3750D01*
D17*
X2038036Y2686D03*
D23*
X2039766Y2686D01*
X2040830Y3750D01*
D17*
X782122Y-53340D03*
M02*
