G04 EAGLE Gerber RS-274X export*
G75*
%MOMM*%
%FSLAX34Y34*%
%LPD*%
%INBottom Copper*%
%IPPOS*%
%AMOC8*
5,1,8,0,0,1.08239X$1,22.5*%
G01*
G04 Define Apertures*
%ADD10R,0.550000X0.800000*%
%ADD11R,0.600000X0.700000*%
%ADD12R,0.700000X0.600000*%
%ADD13R,0.800000X0.800000*%
%ADD14R,0.400000X0.800000*%
%ADD15R,0.800000X0.400000*%
%ADD16R,0.400000X0.400000*%
%ADD17R,1.200000X1.200000*%
%ADD18C,0.067500*%
%ADD19R,0.900000X1.300000*%
%ADD20C,0.062500*%
%ADD21R,0.300000X0.940000*%
%ADD22R,0.475000X0.250000*%
%ADD23R,0.250000X0.475000*%
%ADD24R,2.794000X0.889000*%
%ADD25R,1.000000X1.000000*%
%ADD26R,0.500000X0.500000*%
%ADD27C,0.800000*%
%ADD28C,0.254000*%
%ADD29C,0.304800*%
%ADD30C,0.756400*%
%ADD31C,0.706400*%
%ADD32C,0.508000*%
%ADD33C,0.609600*%
%ADD34C,0.152400*%
G36*
X892247Y-33731D02*
X891951Y-33799D01*
X891653Y-33746D01*
X891399Y-33580D01*
X891229Y-33329D01*
X890464Y-31481D01*
X883855Y-24872D01*
X883697Y-24641D01*
X883632Y-24345D01*
X883687Y-24047D01*
X883855Y-23794D01*
X884750Y-22899D01*
X885669Y-20679D01*
X885669Y-18277D01*
X884750Y-16057D01*
X883050Y-14358D01*
X880831Y-13438D01*
X878428Y-13438D01*
X876208Y-14358D01*
X874509Y-16057D01*
X873589Y-18277D01*
X873589Y-18542D01*
X873538Y-18817D01*
X873374Y-19072D01*
X873124Y-19244D01*
X872827Y-19304D01*
X866022Y-19304D01*
X865736Y-19248D01*
X865483Y-19081D01*
X863526Y-17124D01*
X859337Y-17124D01*
X858805Y-17656D01*
X858585Y-17809D01*
X858290Y-17879D01*
X857991Y-17828D01*
X857736Y-17665D01*
X857564Y-17415D01*
X857504Y-17118D01*
X857504Y28069D01*
X842745Y42828D01*
X842587Y43058D01*
X842522Y43354D01*
X842578Y43652D01*
X842745Y43905D01*
X844740Y45900D01*
X844960Y46053D01*
X845194Y46109D01*
X845064Y46192D01*
X844892Y46442D01*
X844832Y46739D01*
X844832Y50180D01*
X841870Y53142D01*
X837682Y53142D01*
X834720Y50180D01*
X834720Y48382D01*
X834673Y48119D01*
X834514Y47861D01*
X834266Y47685D01*
X833970Y47620D01*
X833672Y47676D01*
X833419Y47843D01*
X830117Y51145D01*
X829954Y51387D01*
X829894Y51684D01*
X829894Y52677D01*
X827801Y54770D01*
X827638Y55012D01*
X827577Y55309D01*
X827577Y58911D01*
X824616Y61873D01*
X820427Y61873D01*
X817465Y58911D01*
X817465Y58717D01*
X817418Y58454D01*
X817259Y58196D01*
X817012Y58020D01*
X816716Y57955D01*
X816417Y58011D01*
X816165Y58178D01*
X812557Y61786D01*
X808975Y61786D01*
X808689Y61842D01*
X808436Y62009D01*
X807953Y62493D01*
X807795Y62723D01*
X807729Y63019D01*
X807785Y63318D01*
X807953Y63570D01*
X809330Y64948D01*
X809330Y69238D01*
X802028Y69238D01*
X802028Y70762D01*
X809330Y70762D01*
X809330Y74168D01*
X809381Y74443D01*
X809545Y74698D01*
X809795Y74870D01*
X810092Y74930D01*
X823749Y74930D01*
X824012Y74883D01*
X824270Y74724D01*
X824445Y74476D01*
X824510Y74180D01*
X824455Y73882D01*
X824287Y73629D01*
X824004Y73346D01*
X824004Y68950D01*
X827112Y65842D01*
X831566Y65842D01*
X831611Y65873D01*
X831908Y65938D01*
X832206Y65883D01*
X832459Y65715D01*
X836404Y61770D01*
X839136Y61770D01*
X839422Y61714D01*
X839674Y61547D01*
X844079Y57143D01*
X844459Y57143D01*
X844734Y57091D01*
X844990Y56928D01*
X845161Y56678D01*
X845221Y56381D01*
X845221Y56044D01*
X850894Y50371D01*
X851047Y50152D01*
X851116Y49857D01*
X851066Y49558D01*
X850902Y49302D01*
X850652Y49131D01*
X850355Y49071D01*
X849003Y49071D01*
X846133Y46200D01*
X845913Y46047D01*
X845679Y45992D01*
X845809Y45909D01*
X845981Y45659D01*
X846041Y45361D01*
X846041Y41920D01*
X849003Y38959D01*
X853191Y38959D01*
X856153Y41920D01*
X856153Y43272D01*
X856200Y43536D01*
X856359Y43794D01*
X856607Y43969D01*
X856903Y44034D01*
X857201Y43979D01*
X857454Y43811D01*
X858684Y42581D01*
X859699Y42581D01*
X859974Y42530D01*
X860230Y42367D01*
X860401Y42117D01*
X860461Y41819D01*
X860461Y40804D01*
X866304Y34961D01*
X866621Y34961D01*
X866884Y34914D01*
X867142Y34755D01*
X867317Y34508D01*
X867382Y34211D01*
X867327Y33913D01*
X867159Y33661D01*
X865058Y31559D01*
X865058Y27371D01*
X868020Y24409D01*
X872208Y24409D01*
X874755Y26956D01*
X874997Y27119D01*
X875294Y27179D01*
X876754Y27179D01*
X877018Y27132D01*
X877276Y26973D01*
X877451Y26725D01*
X877516Y26429D01*
X877461Y26131D01*
X877293Y25878D01*
X876971Y25556D01*
X876971Y24294D01*
X882814Y18451D01*
X883194Y18451D01*
X883469Y18400D01*
X883725Y18237D01*
X883896Y17987D01*
X883956Y17689D01*
X883956Y17309D01*
X889799Y11466D01*
X891061Y11466D01*
X896197Y16602D01*
X896197Y16759D01*
X896248Y17034D01*
X896411Y17290D01*
X896662Y17461D01*
X896959Y17521D01*
X898553Y17521D01*
X900880Y19848D01*
X896070Y24658D01*
X897148Y25735D01*
X901957Y20926D01*
X903669Y22637D01*
X903910Y22800D01*
X904207Y22860D01*
X910501Y22860D01*
X910765Y22813D01*
X911023Y22654D01*
X911198Y22406D01*
X911263Y22110D01*
X911208Y21812D01*
X911040Y21559D01*
X909570Y20089D01*
X909570Y18732D01*
X914422Y18732D01*
X914422Y17208D01*
X909570Y17208D01*
X909570Y15851D01*
X910363Y15058D01*
X910526Y14817D01*
X910586Y14519D01*
X910586Y8058D01*
X910612Y7930D01*
X910612Y6476D01*
X910561Y6201D01*
X910397Y5946D01*
X910147Y5774D01*
X909850Y5714D01*
X908999Y5714D01*
X908106Y4821D01*
X908106Y-2441D01*
X908218Y-2553D01*
X908376Y-2783D01*
X908441Y-3079D01*
X908385Y-3378D01*
X908218Y-3630D01*
X907090Y-4758D01*
X907090Y-8048D01*
X913892Y-8048D01*
X913892Y-9572D01*
X907090Y-9572D01*
X907090Y-12954D01*
X907039Y-13229D01*
X906875Y-13484D01*
X906625Y-13656D01*
X906328Y-13716D01*
X901043Y-13716D01*
X900757Y-13660D01*
X900504Y-13493D01*
X900501Y-13490D01*
X892787Y-13490D01*
X892501Y-13434D01*
X892248Y-13267D01*
X891350Y-12369D01*
X891197Y-12150D01*
X891128Y-11855D01*
X891178Y-11556D01*
X891342Y-11300D01*
X891592Y-11129D01*
X891889Y-11068D01*
X896247Y-11068D01*
X899208Y-8107D01*
X899208Y-3918D01*
X896247Y-956D01*
X892058Y-956D01*
X889511Y-3503D01*
X889270Y-3666D01*
X888972Y-3726D01*
X888604Y-3726D01*
X888318Y-3671D01*
X888065Y-3503D01*
X877084Y7478D01*
X876926Y7708D01*
X876861Y8004D01*
X876917Y8302D01*
X876961Y8368D01*
X876961Y12620D01*
X873999Y15582D01*
X869810Y15582D01*
X866849Y12620D01*
X866849Y9110D01*
X866797Y8835D01*
X866634Y8579D01*
X866384Y8408D01*
X866087Y8348D01*
X862359Y8348D01*
X859398Y5386D01*
X859398Y1197D01*
X862359Y-1765D01*
X866548Y-1765D01*
X867317Y-996D01*
X867558Y-833D01*
X867855Y-773D01*
X871536Y-773D01*
X871822Y-828D01*
X872074Y-996D01*
X890157Y-19078D01*
X891059Y-19078D01*
X891322Y-19125D01*
X891580Y-19284D01*
X891755Y-19532D01*
X891820Y-19828D01*
X891765Y-20126D01*
X891597Y-20379D01*
X891314Y-20662D01*
X891314Y-25058D01*
X894422Y-28166D01*
X896042Y-28166D01*
X896306Y-28213D01*
X896564Y-28372D01*
X896739Y-28620D01*
X896804Y-28916D01*
X896749Y-29214D01*
X896581Y-29467D01*
X892472Y-33576D01*
X892247Y-33731D01*
G37*
G36*
X841836Y67926D02*
X841539Y67866D01*
X839244Y67866D01*
X838958Y67922D01*
X838706Y68089D01*
X834839Y71956D01*
X834676Y72197D01*
X834616Y72494D01*
X834616Y73346D01*
X834333Y73629D01*
X834180Y73849D01*
X834110Y74144D01*
X834161Y74443D01*
X834324Y74698D01*
X834574Y74870D01*
X834871Y74930D01*
X845642Y74930D01*
X845906Y74883D01*
X846164Y74724D01*
X846339Y74476D01*
X846404Y74180D01*
X846349Y73882D01*
X846181Y73629D01*
X844291Y71739D01*
X844291Y70145D01*
X844240Y69870D01*
X844077Y69615D01*
X843827Y69443D01*
X843529Y69383D01*
X843372Y69383D01*
X842078Y68089D01*
X841836Y67926D01*
G37*
G36*
X691052Y-63460D02*
X691052Y-70762D01*
X689528Y-70762D01*
X689528Y-63460D01*
X687238Y-63460D01*
X685860Y-64838D01*
X685630Y-64996D01*
X685334Y-65061D01*
X685036Y-65005D01*
X684783Y-64838D01*
X684421Y-64476D01*
X679159Y-64476D01*
X678079Y-65556D01*
X677848Y-65714D01*
X677552Y-65779D01*
X677254Y-65723D01*
X677001Y-65556D01*
X676879Y-65434D01*
X676716Y-65192D01*
X676656Y-64895D01*
X676656Y3710D01*
X676712Y3996D01*
X676879Y4249D01*
X679426Y6796D01*
X679426Y10984D01*
X676464Y13946D01*
X672276Y13946D01*
X670145Y11815D01*
X669914Y11657D01*
X669618Y11592D01*
X669320Y11648D01*
X669067Y11815D01*
X668671Y12211D01*
X668513Y12442D01*
X668448Y12738D01*
X668503Y13036D01*
X668671Y13289D01*
X669330Y13948D01*
X669330Y16238D01*
X662028Y16238D01*
X662028Y17762D01*
X669330Y17762D01*
X669330Y20052D01*
X668671Y20711D01*
X668513Y20942D01*
X668448Y21238D01*
X668503Y21536D01*
X668671Y21789D01*
X669330Y22448D01*
X669330Y24738D01*
X662028Y24738D01*
X662028Y26262D01*
X669330Y26262D01*
X669330Y28552D01*
X668671Y29211D01*
X668513Y29442D01*
X668448Y29738D01*
X668503Y30036D01*
X668671Y30289D01*
X669330Y30948D01*
X669330Y33238D01*
X662028Y33238D01*
X662028Y34762D01*
X669330Y34762D01*
X669330Y37052D01*
X668671Y37711D01*
X668513Y37942D01*
X668448Y38238D01*
X668503Y38536D01*
X668671Y38789D01*
X669330Y39448D01*
X669330Y41738D01*
X662028Y41738D01*
X662028Y43262D01*
X669330Y43262D01*
X669330Y45552D01*
X668671Y46211D01*
X668513Y46442D01*
X668448Y46738D01*
X668503Y47036D01*
X668671Y47289D01*
X669330Y47948D01*
X669330Y50238D01*
X662028Y50238D01*
X662028Y51762D01*
X669330Y51762D01*
X669330Y54052D01*
X668671Y54711D01*
X668513Y54942D01*
X668448Y55238D01*
X668503Y55536D01*
X668671Y55789D01*
X669330Y56448D01*
X669330Y58738D01*
X662028Y58738D01*
X662028Y60262D01*
X669330Y60262D01*
X669330Y62698D01*
X669381Y62973D01*
X669545Y63228D01*
X669795Y63400D01*
X670092Y63460D01*
X672528Y63460D01*
X672528Y70762D01*
X674052Y70762D01*
X674052Y63460D01*
X676342Y63460D01*
X677001Y64119D01*
X677232Y64277D01*
X677528Y64342D01*
X677826Y64287D01*
X678079Y64119D01*
X678738Y63460D01*
X681028Y63460D01*
X681028Y70762D01*
X682552Y70762D01*
X682552Y63460D01*
X683792Y63460D01*
X684067Y63409D01*
X684322Y63245D01*
X684494Y62995D01*
X684554Y62698D01*
X684554Y58584D01*
X687516Y55622D01*
X689051Y55622D01*
X689314Y55575D01*
X689572Y55416D01*
X689748Y55168D01*
X689813Y54872D01*
X689757Y54574D01*
X689590Y54321D01*
X686054Y50785D01*
X686054Y47372D01*
X685998Y47086D01*
X685831Y46833D01*
X683284Y44286D01*
X683284Y40098D01*
X686246Y37136D01*
X690434Y37136D01*
X693396Y40098D01*
X693396Y44286D01*
X690849Y46833D01*
X690686Y47075D01*
X690626Y47372D01*
X690626Y48576D01*
X690682Y48862D01*
X690849Y49115D01*
X701076Y59342D01*
X701076Y63815D01*
X701132Y64101D01*
X701299Y64354D01*
X702501Y65556D01*
X702732Y65714D01*
X703028Y65779D01*
X703326Y65723D01*
X703579Y65556D01*
X704781Y64354D01*
X704944Y64112D01*
X705004Y63815D01*
X705004Y60637D01*
X704948Y60351D01*
X704781Y60099D01*
X701490Y56808D01*
X701490Y52412D01*
X704598Y49304D01*
X708994Y49304D01*
X712102Y52412D01*
X712102Y54082D01*
X712153Y54356D01*
X712317Y54612D01*
X712567Y54783D01*
X712864Y54844D01*
X716812Y54844D01*
X717095Y55127D01*
X717315Y55280D01*
X717610Y55350D01*
X717909Y55299D01*
X718164Y55136D01*
X718336Y54886D01*
X718396Y54588D01*
X718396Y51142D01*
X721504Y48034D01*
X725900Y48034D01*
X729008Y51142D01*
X729008Y54129D01*
X729055Y54392D01*
X729214Y54650D01*
X729462Y54825D01*
X729758Y54890D01*
X730056Y54835D01*
X730309Y54667D01*
X730592Y54384D01*
X734988Y54384D01*
X735323Y54719D01*
X735543Y54872D01*
X735838Y54942D01*
X736137Y54891D01*
X736392Y54728D01*
X736564Y54478D01*
X736624Y54181D01*
X736624Y52234D01*
X739586Y49272D01*
X743774Y49272D01*
X746736Y52234D01*
X746736Y54130D01*
X746787Y54404D01*
X746951Y54660D01*
X747201Y54831D01*
X747498Y54892D01*
X752046Y54892D01*
X752320Y54840D01*
X752576Y54677D01*
X752747Y54427D01*
X752808Y54130D01*
X752808Y53606D01*
X755916Y50498D01*
X760312Y50498D01*
X763420Y53606D01*
X763420Y54007D01*
X763467Y54270D01*
X763626Y54528D01*
X763873Y54704D01*
X764170Y54769D01*
X764468Y54713D01*
X764721Y54546D01*
X764882Y54384D01*
X769278Y54384D01*
X769287Y54393D01*
X769506Y54546D01*
X769801Y54616D01*
X770100Y54565D01*
X770356Y54402D01*
X770527Y54152D01*
X770588Y53854D01*
X770588Y52336D01*
X773696Y49228D01*
X778092Y49228D01*
X781200Y52336D01*
X781200Y53698D01*
X781251Y53973D01*
X781414Y54228D01*
X781665Y54400D01*
X781962Y54460D01*
X785142Y54460D01*
X785417Y54409D01*
X785672Y54246D01*
X785844Y53995D01*
X785904Y53698D01*
X785904Y52412D01*
X789012Y49304D01*
X793408Y49304D01*
X795965Y51861D01*
X796185Y52014D01*
X796480Y52084D01*
X796779Y52033D01*
X797034Y51870D01*
X797206Y51620D01*
X797266Y51323D01*
X797266Y48369D01*
X798346Y47289D01*
X798504Y47058D01*
X798569Y46762D01*
X798513Y46464D01*
X798346Y46211D01*
X797266Y45131D01*
X797266Y39869D01*
X798346Y38789D01*
X798504Y38558D01*
X798569Y38262D01*
X798513Y37964D01*
X798346Y37711D01*
X797266Y36631D01*
X797266Y31369D01*
X798346Y30289D01*
X798504Y30058D01*
X798569Y29762D01*
X798513Y29464D01*
X798346Y29211D01*
X797266Y28131D01*
X797266Y22869D01*
X798346Y21789D01*
X798504Y21558D01*
X798569Y21262D01*
X798513Y20964D01*
X798346Y20711D01*
X797266Y19631D01*
X797266Y14369D01*
X798346Y13289D01*
X798504Y13058D01*
X798569Y12762D01*
X798513Y12464D01*
X798346Y12211D01*
X797266Y11131D01*
X797266Y8746D01*
X797219Y8483D01*
X797060Y8225D01*
X796812Y8049D01*
X796516Y7984D01*
X796218Y8040D01*
X795965Y8207D01*
X792962Y11210D01*
X788566Y11210D01*
X785458Y8102D01*
X785458Y6294D01*
X785407Y6019D01*
X785244Y5764D01*
X784993Y5592D01*
X784696Y5532D01*
X781392Y5532D01*
X778284Y2424D01*
X778284Y-1972D01*
X781392Y-5080D01*
X784629Y-5080D01*
X784915Y-5136D01*
X785168Y-5303D01*
X791159Y-11294D01*
X797113Y-11294D01*
X797399Y-11350D01*
X797652Y-11517D01*
X798346Y-12211D01*
X798504Y-12442D01*
X798569Y-12738D01*
X798513Y-13036D01*
X798346Y-13289D01*
X797266Y-14369D01*
X797266Y-19631D01*
X798346Y-20711D01*
X798504Y-20942D01*
X798569Y-21238D01*
X798513Y-21536D01*
X798346Y-21789D01*
X797266Y-22869D01*
X797266Y-28131D01*
X798346Y-29211D01*
X798504Y-29442D01*
X798569Y-29738D01*
X798513Y-30036D01*
X798346Y-30289D01*
X797652Y-30983D01*
X797410Y-31146D01*
X797113Y-31206D01*
X795429Y-31206D01*
X795143Y-31150D01*
X794891Y-30983D01*
X793408Y-29500D01*
X789012Y-29500D01*
X785904Y-32608D01*
X785904Y-36176D01*
X785853Y-36451D01*
X785689Y-36706D01*
X785439Y-36878D01*
X785142Y-36938D01*
X783598Y-36938D01*
X780490Y-40046D01*
X780490Y-44442D01*
X782781Y-46733D01*
X782934Y-46953D01*
X783004Y-47248D01*
X782953Y-47547D01*
X782789Y-47802D01*
X782539Y-47974D01*
X782242Y-48034D01*
X779924Y-48034D01*
X776816Y-51142D01*
X776816Y-53622D01*
X776765Y-53897D01*
X776601Y-54152D01*
X776351Y-54324D01*
X776054Y-54384D01*
X773148Y-54384D01*
X772873Y-54333D01*
X772618Y-54169D01*
X772446Y-53919D01*
X772386Y-53622D01*
X772386Y-51142D01*
X769278Y-48034D01*
X764882Y-48034D01*
X761774Y-51142D01*
X761774Y-54157D01*
X761727Y-54420D01*
X761568Y-54678D01*
X761320Y-54853D01*
X761024Y-54918D01*
X760726Y-54863D01*
X760473Y-54695D01*
X760162Y-54384D01*
X755705Y-54384D01*
X755687Y-54396D01*
X755392Y-54466D01*
X755093Y-54415D01*
X754838Y-54252D01*
X754666Y-54002D01*
X754606Y-53705D01*
X754606Y-51142D01*
X751498Y-48034D01*
X747102Y-48034D01*
X743994Y-51142D01*
X743994Y-53622D01*
X743943Y-53897D01*
X743779Y-54152D01*
X743529Y-54324D01*
X743232Y-54384D01*
X739482Y-54384D01*
X739397Y-54469D01*
X739177Y-54622D01*
X738882Y-54692D01*
X738583Y-54641D01*
X738328Y-54478D01*
X738156Y-54228D01*
X738096Y-53931D01*
X738096Y-51142D01*
X736491Y-49537D01*
X736338Y-49317D01*
X736268Y-49022D01*
X736319Y-48723D01*
X736482Y-48468D01*
X736732Y-48296D01*
X737029Y-48236D01*
X738694Y-48236D01*
X741656Y-45274D01*
X741656Y-41086D01*
X738694Y-38124D01*
X734506Y-38124D01*
X731544Y-41086D01*
X731544Y-45274D01*
X733003Y-46733D01*
X733156Y-46953D01*
X733226Y-47248D01*
X733175Y-47547D01*
X733011Y-47802D01*
X732761Y-47974D01*
X732464Y-48034D01*
X730592Y-48034D01*
X727484Y-51142D01*
X727484Y-54670D01*
X727437Y-54933D01*
X727278Y-55192D01*
X727030Y-55367D01*
X726734Y-55432D01*
X726436Y-55376D01*
X726183Y-55209D01*
X725834Y-54860D01*
X723728Y-54860D01*
X723443Y-54804D01*
X723190Y-54637D01*
X722979Y-54426D01*
X722816Y-54185D01*
X722790Y-54053D01*
X701009Y-32272D01*
X700846Y-32031D01*
X700786Y-31734D01*
X700786Y-7720D01*
X700842Y-7434D01*
X701009Y-7181D01*
X703556Y-4634D01*
X703556Y-446D01*
X700594Y2516D01*
X696406Y2516D01*
X695891Y2001D01*
X695671Y1848D01*
X695376Y1778D01*
X695077Y1829D01*
X694822Y1992D01*
X694650Y2242D01*
X694590Y2540D01*
X694590Y3441D01*
X691628Y6402D01*
X687439Y6402D01*
X684478Y3441D01*
X684478Y-748D01*
X687101Y-3371D01*
X687264Y-3613D01*
X687324Y-3910D01*
X687324Y-36198D01*
X695854Y-44728D01*
X702187Y-44728D01*
X702473Y-44784D01*
X702726Y-44951D01*
X710788Y-53013D01*
X710946Y-53243D01*
X711011Y-53539D01*
X710955Y-53837D01*
X710788Y-54090D01*
X709596Y-55282D01*
X709596Y-59470D01*
X712558Y-62432D01*
X712742Y-62432D01*
X713017Y-62483D01*
X713272Y-62647D01*
X713444Y-62897D01*
X713504Y-63194D01*
X713504Y-63815D01*
X713448Y-64101D01*
X713281Y-64354D01*
X712079Y-65556D01*
X711848Y-65714D01*
X711552Y-65779D01*
X711254Y-65723D01*
X711001Y-65556D01*
X709921Y-64476D01*
X704659Y-64476D01*
X704297Y-64838D01*
X704067Y-64996D01*
X703771Y-65061D01*
X703472Y-65005D01*
X703220Y-64838D01*
X701842Y-63460D01*
X699552Y-63460D01*
X699552Y-70762D01*
X698028Y-70762D01*
X698028Y-63460D01*
X695738Y-63460D01*
X695079Y-64119D01*
X694848Y-64277D01*
X694552Y-64342D01*
X694254Y-64287D01*
X694001Y-64119D01*
X693342Y-63460D01*
X691052Y-63460D01*
G37*
%LPC*%
G36*
X717052Y-25040D02*
X723342Y-25040D01*
X724001Y-24381D01*
X724232Y-24223D01*
X724528Y-24158D01*
X724826Y-24213D01*
X725079Y-24381D01*
X725738Y-25040D01*
X732028Y-25040D01*
X732028Y-15738D01*
X733552Y-15738D01*
X733552Y-25040D01*
X739842Y-25040D01*
X740501Y-24381D01*
X740732Y-24223D01*
X741028Y-24158D01*
X741326Y-24213D01*
X741579Y-24381D01*
X742238Y-25040D01*
X748528Y-25040D01*
X748528Y-15738D01*
X757830Y-15738D01*
X757830Y-9448D01*
X757171Y-8789D01*
X757013Y-8558D01*
X756948Y-8262D01*
X757003Y-7964D01*
X757171Y-7711D01*
X757830Y-7052D01*
X757830Y-762D01*
X748528Y-762D01*
X748528Y762D01*
X757830Y762D01*
X757830Y7052D01*
X757171Y7711D01*
X757013Y7942D01*
X756948Y8238D01*
X757003Y8536D01*
X757171Y8789D01*
X757830Y9448D01*
X757830Y15738D01*
X748528Y15738D01*
X748528Y25040D01*
X742238Y25040D01*
X741579Y24381D01*
X741348Y24223D01*
X741052Y24158D01*
X740754Y24213D01*
X740501Y24381D01*
X739842Y25040D01*
X733552Y25040D01*
X733552Y15738D01*
X732028Y15738D01*
X732028Y25040D01*
X725738Y25040D01*
X725128Y24430D01*
X724919Y24282D01*
X724625Y24208D01*
X724326Y24254D01*
X724068Y24414D01*
X724008Y24470D01*
X723853Y24594D01*
X723690Y24705D01*
X723518Y24804D01*
X723340Y24889D01*
X723155Y24959D01*
X722965Y25015D01*
X722772Y25056D01*
X722579Y25082D01*
X722322Y25094D01*
X717052Y25094D01*
X717052Y15738D01*
X707696Y15738D01*
X707696Y10465D01*
X707705Y10252D01*
X707728Y10056D01*
X707766Y9862D01*
X707819Y9672D01*
X707887Y9485D01*
X707969Y9305D01*
X708064Y9133D01*
X708174Y8967D01*
X708295Y8811D01*
X708384Y8714D01*
X708518Y8509D01*
X708583Y8213D01*
X708527Y7915D01*
X708360Y7662D01*
X707750Y7052D01*
X707750Y762D01*
X717052Y762D01*
X717052Y-762D01*
X707750Y-762D01*
X707750Y-7052D01*
X708409Y-7711D01*
X708567Y-7942D01*
X708632Y-8238D01*
X708577Y-8536D01*
X708409Y-8789D01*
X707750Y-9448D01*
X707750Y-15738D01*
X717052Y-15738D01*
X717052Y-25040D01*
G37*
G36*
X750052Y17262D02*
X757830Y17262D01*
X757830Y23552D01*
X756342Y25040D01*
X750052Y25040D01*
X750052Y17262D01*
G37*
G36*
X707809Y17262D02*
X715528Y17262D01*
X715528Y24982D01*
X715491Y24971D01*
X715305Y24903D01*
X715125Y24821D01*
X714952Y24726D01*
X714787Y24616D01*
X714632Y24496D01*
X714459Y24337D01*
X708452Y18330D01*
X708308Y18174D01*
X708185Y18019D01*
X708074Y17854D01*
X707978Y17682D01*
X707894Y17503D01*
X707825Y17318D01*
X707809Y17262D01*
G37*
G36*
X750052Y-25040D02*
X756342Y-25040D01*
X757830Y-23552D01*
X757830Y-17262D01*
X750052Y-17262D01*
X750052Y-25040D01*
G37*
G36*
X709238Y-25040D02*
X715528Y-25040D01*
X715528Y-17262D01*
X707750Y-17262D01*
X707750Y-23552D01*
X709238Y-25040D01*
G37*
G36*
X756096Y-38076D02*
X760284Y-38076D01*
X763246Y-35114D01*
X763246Y-30926D01*
X760284Y-27964D01*
X756096Y-27964D01*
X753134Y-30926D01*
X753134Y-35114D01*
X756096Y-38076D01*
G37*
%LPD*%
G36*
X1969388Y-22800D02*
X1969091Y-22860D01*
X1946351Y-22860D01*
X1946088Y-22813D01*
X1945830Y-22654D01*
X1945654Y-22406D01*
X1945589Y-22110D01*
X1945645Y-21812D01*
X1945812Y-21559D01*
X1949624Y-17747D01*
X1949624Y-7226D01*
X1949675Y-6951D01*
X1949839Y-6696D01*
X1950089Y-6524D01*
X1950386Y-6464D01*
X1956461Y-6464D01*
X1956726Y-6199D01*
X1956968Y-6036D01*
X1957265Y-5976D01*
X1969197Y-5976D01*
X1969483Y-6032D01*
X1969735Y-6199D01*
X1971382Y-7846D01*
X1975778Y-7846D01*
X1978886Y-4738D01*
X1978886Y-342D01*
X1975778Y2766D01*
X1971382Y2766D01*
X1968274Y-342D01*
X1968274Y-642D01*
X1968223Y-917D01*
X1968059Y-1172D01*
X1967809Y-1344D01*
X1967512Y-1404D01*
X1958116Y-1404D01*
X1957841Y-1353D01*
X1957586Y-1189D01*
X1957414Y-939D01*
X1957354Y-642D01*
X1957354Y3191D01*
X1957274Y3271D01*
X1957116Y3502D01*
X1957051Y3798D01*
X1957107Y4096D01*
X1957274Y4349D01*
X1957354Y4429D01*
X1957354Y7676D01*
X1957410Y7962D01*
X1957577Y8215D01*
X1958370Y9008D01*
X1958370Y10548D01*
X1952693Y10548D01*
X1952693Y15100D01*
X1950366Y15100D01*
X1950091Y15151D01*
X1949836Y15315D01*
X1949664Y15565D01*
X1949604Y15862D01*
X1949604Y15941D01*
X1949339Y16206D01*
X1949176Y16448D01*
X1949116Y16745D01*
X1949116Y20077D01*
X1947634Y21559D01*
X1947481Y21779D01*
X1947411Y22074D01*
X1947462Y22373D01*
X1947625Y22628D01*
X1947875Y22800D01*
X1948173Y22860D01*
X2096317Y22860D01*
X2096580Y22813D01*
X2096838Y22654D01*
X2097013Y22406D01*
X2097078Y22110D01*
X2097023Y21812D01*
X2096855Y21559D01*
X2096544Y21248D01*
X2096544Y16852D01*
X2098760Y14636D01*
X2098913Y14416D01*
X2098983Y14121D01*
X2098932Y13822D01*
X2098769Y13567D01*
X2098519Y13395D01*
X2098222Y13335D01*
X2096988Y13335D01*
X2095500Y11847D01*
X2095500Y7112D01*
X2111248Y7112D01*
X2111248Y13335D01*
X2105478Y13335D01*
X2105215Y13382D01*
X2104957Y13541D01*
X2104782Y13789D01*
X2104717Y14085D01*
X2104772Y14383D01*
X2104940Y14636D01*
X2107156Y16852D01*
X2107156Y21248D01*
X2106845Y21559D01*
X2106692Y21779D01*
X2106622Y22074D01*
X2106673Y22373D01*
X2106836Y22628D01*
X2107086Y22800D01*
X2107383Y22860D01*
X2125218Y22860D01*
X2125493Y22809D01*
X2125748Y22645D01*
X2125920Y22395D01*
X2125980Y22098D01*
X2125980Y14097D01*
X2125929Y13822D01*
X2125765Y13567D01*
X2125515Y13395D01*
X2125218Y13335D01*
X2112772Y13335D01*
X2112772Y5588D01*
X2095500Y5588D01*
X2095500Y853D01*
X2096533Y-180D01*
X2096691Y-410D01*
X2096756Y-706D01*
X2096700Y-1004D01*
X2096533Y-1257D01*
X2096516Y-1274D01*
X2096516Y-1524D01*
X2096465Y-1799D01*
X2096301Y-2054D01*
X2096051Y-2226D01*
X2095754Y-2286D01*
X2091635Y-2286D01*
X2091349Y-2230D01*
X2091097Y-2063D01*
X2090078Y-1044D01*
X2085682Y-1044D01*
X2082574Y-4152D01*
X2082574Y-8548D01*
X2085682Y-11656D01*
X2090078Y-11656D01*
X2091097Y-10637D01*
X2091338Y-10474D01*
X2091635Y-10414D01*
X2095754Y-10414D01*
X2096029Y-10465D01*
X2096284Y-10629D01*
X2096456Y-10879D01*
X2096516Y-11176D01*
X2096516Y-11712D01*
X2096465Y-11987D01*
X2096301Y-12242D01*
X2096051Y-12414D01*
X2095865Y-12452D01*
X2092734Y-15582D01*
X2092734Y-19978D01*
X2094315Y-21559D01*
X2094468Y-21779D01*
X2094538Y-22074D01*
X2094487Y-22373D01*
X2094324Y-22628D01*
X2094074Y-22800D01*
X2093777Y-22860D01*
X2076922Y-22860D01*
X2076658Y-22813D01*
X2076400Y-22654D01*
X2076225Y-22406D01*
X2076160Y-22110D01*
X2076215Y-21812D01*
X2076383Y-21559D01*
X2077640Y-20302D01*
X2077640Y-15012D01*
X2062560Y-15012D01*
X2062560Y-20302D01*
X2063817Y-21559D01*
X2063970Y-21779D01*
X2064040Y-22074D01*
X2063989Y-22373D01*
X2063826Y-22628D01*
X2063576Y-22800D01*
X2063278Y-22860D01*
X1978069Y-22860D01*
X1977806Y-22813D01*
X1977548Y-22654D01*
X1977373Y-22406D01*
X1977308Y-22110D01*
X1977363Y-21812D01*
X1977531Y-21559D01*
X1978968Y-20121D01*
X1979199Y-19963D01*
X1979495Y-19898D01*
X1979793Y-19954D01*
X1980046Y-20121D01*
X1980189Y-20264D01*
X1987451Y-20264D01*
X1988281Y-19434D01*
X1988512Y-19276D01*
X1988808Y-19211D01*
X1989106Y-19267D01*
X1989359Y-19434D01*
X1990189Y-20264D01*
X1997451Y-20264D01*
X1997680Y-20035D01*
X1997922Y-19872D01*
X1998219Y-19812D01*
X2001546Y-19812D01*
X2001832Y-19868D01*
X2002085Y-20035D01*
X2002864Y-20814D01*
X2007259Y-20814D01*
X2010368Y-17706D01*
X2010368Y-13245D01*
X2010419Y-12971D01*
X2010582Y-12715D01*
X2010832Y-12544D01*
X2011130Y-12483D01*
X2011781Y-12483D01*
X2014577Y-9686D01*
X2014819Y-9524D01*
X2015116Y-9463D01*
X2027886Y-9463D01*
X2028172Y-9519D01*
X2028424Y-9686D01*
X2031184Y-12446D01*
X2050727Y-12446D01*
X2056914Y-6259D01*
X2057155Y-6096D01*
X2057453Y-6036D01*
X2062814Y-6036D01*
X2063089Y-6087D01*
X2063344Y-6251D01*
X2063516Y-6501D01*
X2063576Y-6798D01*
X2063576Y-6866D01*
X2063520Y-7152D01*
X2063353Y-7405D01*
X2062560Y-8198D01*
X2062560Y-13488D01*
X2077640Y-13488D01*
X2077640Y-8198D01*
X2076152Y-6710D01*
X2072386Y-6710D01*
X2072111Y-6659D01*
X2071856Y-6495D01*
X2071684Y-6245D01*
X2071624Y-5948D01*
X2071624Y-619D01*
X2071544Y-539D01*
X2071386Y-308D01*
X2071321Y-12D01*
X2071377Y286D01*
X2071544Y539D01*
X2071624Y619D01*
X2071624Y6964D01*
X2071675Y7239D01*
X2071839Y7494D01*
X2072089Y7666D01*
X2072386Y7726D01*
X2075731Y7726D01*
X2076624Y8619D01*
X2076624Y19881D01*
X2075731Y20774D01*
X2064469Y20774D01*
X2063576Y19881D01*
X2063576Y13208D01*
X2063525Y12933D01*
X2063361Y12678D01*
X2063111Y12506D01*
X2062814Y12446D01*
X2045023Y12446D01*
X2040792Y8215D01*
X2040551Y8052D01*
X2040253Y7992D01*
X2035839Y7992D01*
X2035531Y7684D01*
X2035311Y7531D01*
X2035016Y7461D01*
X2034717Y7512D01*
X2034462Y7676D01*
X2034290Y7926D01*
X2034266Y8048D01*
X2022150Y8048D01*
X2022150Y4758D01*
X2023278Y3630D01*
X2023436Y3400D01*
X2023501Y3104D01*
X2023445Y2806D01*
X2023278Y2553D01*
X2023166Y2441D01*
X2023166Y-4129D01*
X2023115Y-4404D01*
X2022951Y-4659D01*
X2022701Y-4831D01*
X2022404Y-4891D01*
X2015116Y-4891D01*
X2014830Y-4836D01*
X2014577Y-4668D01*
X2011781Y-1871D01*
X2007385Y-1871D01*
X2004277Y-4979D01*
X2004277Y-9440D01*
X2004226Y-9715D01*
X2004062Y-9971D01*
X2003812Y-10142D01*
X2003515Y-10202D01*
X2002864Y-10202D01*
X2002621Y-10445D01*
X2002380Y-10608D01*
X2002083Y-10668D01*
X1998219Y-10668D01*
X1997933Y-10612D01*
X1997680Y-10445D01*
X1997451Y-10216D01*
X1990189Y-10216D01*
X1989359Y-11046D01*
X1989128Y-11204D01*
X1988832Y-11269D01*
X1988534Y-11213D01*
X1988281Y-11046D01*
X1987451Y-10216D01*
X1980189Y-10216D01*
X1979960Y-10445D01*
X1979718Y-10608D01*
X1979421Y-10668D01*
X1974452Y-10668D01*
X1972643Y-12477D01*
X1972402Y-12640D01*
X1972105Y-12700D01*
X1971382Y-12700D01*
X1968274Y-15808D01*
X1968274Y-20204D01*
X1969629Y-21559D01*
X1969782Y-21779D01*
X1969852Y-22074D01*
X1969801Y-22373D01*
X1969638Y-22628D01*
X1969388Y-22800D01*
G37*
%LPC*%
G36*
X1954217Y12072D02*
X1958370Y12072D01*
X1958370Y13612D01*
X1956882Y15100D01*
X1954217Y15100D01*
X1954217Y12072D01*
G37*
G36*
X2022150Y9572D02*
X2027428Y9572D01*
X2027428Y14350D01*
X2023638Y14350D01*
X2022150Y12862D01*
X2022150Y9572D01*
G37*
G36*
X2028952Y9572D02*
X2034230Y9572D01*
X2034230Y12862D01*
X2032742Y14350D01*
X2028952Y14350D01*
X2028952Y9572D01*
G37*
%LPD*%
G36*
X1411141Y-22800D02*
X1410844Y-22860D01*
X1068523Y-22860D01*
X1068260Y-22813D01*
X1068002Y-22654D01*
X1067827Y-22406D01*
X1067762Y-22110D01*
X1067817Y-21812D01*
X1067985Y-21559D01*
X1069566Y-19978D01*
X1069566Y-15582D01*
X1068393Y-14410D01*
X1068235Y-14179D01*
X1068170Y-13883D01*
X1068226Y-13585D01*
X1068393Y-13332D01*
X1068704Y-13021D01*
X1068704Y-12446D01*
X1068755Y-12171D01*
X1068919Y-11916D01*
X1069169Y-11744D01*
X1069466Y-11684D01*
X1073891Y-11684D01*
X1086184Y609D01*
X1086184Y4374D01*
X1086235Y4649D01*
X1086399Y4904D01*
X1086649Y5076D01*
X1086946Y5136D01*
X1087021Y5136D01*
X1087133Y5248D01*
X1087363Y5406D01*
X1087659Y5471D01*
X1087958Y5415D01*
X1088210Y5248D01*
X1089338Y4120D01*
X1092628Y4120D01*
X1092628Y16200D01*
X1089338Y16200D01*
X1088210Y15073D01*
X1087980Y14915D01*
X1087684Y14849D01*
X1087386Y14905D01*
X1087133Y15073D01*
X1087021Y15184D01*
X1079759Y15184D01*
X1078866Y14291D01*
X1078866Y13716D01*
X1078815Y13441D01*
X1078651Y13186D01*
X1078401Y13014D01*
X1078104Y12954D01*
X1075116Y12954D01*
X1074841Y13005D01*
X1074586Y13169D01*
X1074414Y13419D01*
X1074354Y13716D01*
X1074354Y14124D01*
X1074410Y14410D01*
X1074577Y14663D01*
X1075370Y15456D01*
X1075370Y16898D01*
X1068268Y16898D01*
X1068268Y18422D01*
X1075370Y18422D01*
X1075370Y19864D01*
X1073675Y21559D01*
X1073522Y21779D01*
X1073452Y22074D01*
X1073503Y22373D01*
X1073667Y22628D01*
X1073917Y22800D01*
X1074214Y22860D01*
X1395604Y22860D01*
X1395879Y22809D01*
X1396134Y22645D01*
X1396306Y22395D01*
X1396366Y22098D01*
X1396366Y17523D01*
X1396310Y17237D01*
X1396143Y16984D01*
X1393596Y14437D01*
X1393596Y13246D01*
X1393545Y12971D01*
X1393381Y12716D01*
X1393131Y12544D01*
X1392834Y12484D01*
X1392759Y12484D01*
X1391866Y11591D01*
X1391866Y11016D01*
X1391815Y10741D01*
X1391651Y10486D01*
X1391401Y10314D01*
X1391104Y10254D01*
X1370763Y10254D01*
X1366828Y6319D01*
X1366586Y6156D01*
X1366289Y6096D01*
X1363052Y6096D01*
X1359944Y2988D01*
X1359944Y-1408D01*
X1363052Y-4516D01*
X1367448Y-4516D01*
X1370556Y-1408D01*
X1370556Y1829D01*
X1370612Y2115D01*
X1370779Y2368D01*
X1372854Y4443D01*
X1373096Y4606D01*
X1373393Y4666D01*
X1391104Y4666D01*
X1391379Y4615D01*
X1391634Y4451D01*
X1391806Y4201D01*
X1391866Y3904D01*
X1391866Y3329D01*
X1392759Y2436D01*
X1400021Y2436D01*
X1400914Y3329D01*
X1400914Y11650D01*
X1400897Y11675D01*
X1400827Y11970D01*
X1400878Y12269D01*
X1401042Y12524D01*
X1401292Y12696D01*
X1401589Y12756D01*
X1404521Y12756D01*
X1405351Y13586D01*
X1405582Y13744D01*
X1405878Y13809D01*
X1406176Y13753D01*
X1406429Y13586D01*
X1407259Y12756D01*
X1410191Y12756D01*
X1410454Y12709D01*
X1410712Y12550D01*
X1410888Y12302D01*
X1410953Y12006D01*
X1410897Y11708D01*
X1410866Y11661D01*
X1410866Y3329D01*
X1411759Y2436D01*
X1419021Y2436D01*
X1419914Y3329D01*
X1419914Y4072D01*
X1419961Y4335D01*
X1420120Y4593D01*
X1420368Y4769D01*
X1420664Y4834D01*
X1420962Y4778D01*
X1421215Y4611D01*
X1423258Y2568D01*
X1423421Y2326D01*
X1423481Y2029D01*
X1423481Y1994D01*
X1426443Y-968D01*
X1427869Y-968D01*
X1428133Y-1015D01*
X1428391Y-1174D01*
X1428566Y-1422D01*
X1428631Y-1718D01*
X1428576Y-2016D01*
X1428408Y-2269D01*
X1418144Y-12533D01*
X1417903Y-12696D01*
X1417605Y-12756D01*
X1412499Y-12756D01*
X1411715Y-13540D01*
X1411495Y-13693D01*
X1411200Y-13763D01*
X1410901Y-13712D01*
X1410646Y-13548D01*
X1410474Y-13298D01*
X1410414Y-13001D01*
X1410414Y-8409D01*
X1409521Y-7516D01*
X1402259Y-7516D01*
X1401366Y-8409D01*
X1401366Y-16671D01*
X1402259Y-17564D01*
X1407365Y-17564D01*
X1407651Y-17620D01*
X1407904Y-17787D01*
X1410183Y-20066D01*
X1410844Y-20066D01*
X1411119Y-20117D01*
X1411374Y-20281D01*
X1411546Y-20531D01*
X1411606Y-20828D01*
X1411606Y-22098D01*
X1411555Y-22373D01*
X1411391Y-22628D01*
X1411141Y-22800D01*
G37*
%LPC*%
G36*
X1264608Y12762D02*
X1269136Y12762D01*
X1269136Y18540D01*
X1266096Y18540D01*
X1264608Y17052D01*
X1264608Y12762D01*
G37*
G36*
X1266517Y-17524D02*
X1273279Y-17524D01*
X1274109Y-16694D01*
X1274340Y-16536D01*
X1274636Y-16471D01*
X1274934Y-16527D01*
X1275187Y-16694D01*
X1276017Y-17524D01*
X1282779Y-17524D01*
X1283609Y-16694D01*
X1283840Y-16536D01*
X1284136Y-16471D01*
X1284434Y-16527D01*
X1284687Y-16694D01*
X1285517Y-17524D01*
X1292279Y-17524D01*
X1292816Y-16987D01*
X1293058Y-16824D01*
X1293355Y-16764D01*
X1299887Y-16764D01*
X1300422Y-16229D01*
X1300664Y-16066D01*
X1300961Y-16006D01*
X1303844Y-16006D01*
X1306806Y-13044D01*
X1306806Y-8856D01*
X1303844Y-5894D01*
X1299656Y-5894D01*
X1296694Y-8856D01*
X1296694Y-10414D01*
X1296643Y-10689D01*
X1296479Y-10944D01*
X1296229Y-11116D01*
X1295932Y-11176D01*
X1293934Y-11176D01*
X1293659Y-11125D01*
X1293404Y-10961D01*
X1293232Y-10711D01*
X1293172Y-10414D01*
X1293172Y-7369D01*
X1292279Y-6476D01*
X1285517Y-6476D01*
X1284687Y-7306D01*
X1284456Y-7464D01*
X1284160Y-7529D01*
X1283862Y-7473D01*
X1283609Y-7306D01*
X1282669Y-6366D01*
X1282506Y-6124D01*
X1282446Y-5827D01*
X1282446Y5827D01*
X1282502Y6113D01*
X1282669Y6366D01*
X1283609Y7306D01*
X1283840Y7464D01*
X1284136Y7529D01*
X1284434Y7473D01*
X1284687Y7306D01*
X1285517Y6476D01*
X1292279Y6476D01*
X1293172Y7369D01*
X1293172Y8190D01*
X1293223Y8465D01*
X1293387Y8720D01*
X1293637Y8892D01*
X1293934Y8952D01*
X1296324Y8952D01*
X1296610Y8896D01*
X1296863Y8729D01*
X1306631Y-1039D01*
X1306794Y-1281D01*
X1306854Y-1578D01*
X1306854Y-4102D01*
X1309816Y-7064D01*
X1314004Y-7064D01*
X1316966Y-4102D01*
X1316966Y86D01*
X1314004Y3048D01*
X1311480Y3048D01*
X1311194Y3104D01*
X1310941Y3271D01*
X1299165Y15048D01*
X1293934Y15048D01*
X1293659Y15099D01*
X1293404Y15263D01*
X1293232Y15513D01*
X1293172Y15810D01*
X1293172Y16631D01*
X1292279Y17524D01*
X1285517Y17524D01*
X1284687Y16694D01*
X1284456Y16536D01*
X1284160Y16471D01*
X1283862Y16527D01*
X1283609Y16694D01*
X1282779Y17524D01*
X1276017Y17524D01*
X1275905Y17413D01*
X1275675Y17255D01*
X1275379Y17189D01*
X1275080Y17245D01*
X1274828Y17413D01*
X1273700Y18540D01*
X1270660Y18540D01*
X1270660Y5460D01*
X1273700Y5460D01*
X1274828Y6588D01*
X1275058Y6746D01*
X1275354Y6811D01*
X1275652Y6755D01*
X1275905Y6588D01*
X1276127Y6366D01*
X1276290Y6124D01*
X1276350Y5827D01*
X1276350Y-5827D01*
X1276294Y-6113D01*
X1276127Y-6366D01*
X1275187Y-7306D01*
X1274956Y-7464D01*
X1274660Y-7529D01*
X1274362Y-7473D01*
X1274109Y-7306D01*
X1273279Y-6476D01*
X1266517Y-6476D01*
X1265624Y-7369D01*
X1265624Y-7620D01*
X1265573Y-7895D01*
X1265409Y-8150D01*
X1265159Y-8322D01*
X1264862Y-8382D01*
X1260728Y-8382D01*
X1260453Y-8331D01*
X1260198Y-8167D01*
X1260026Y-7917D01*
X1259966Y-7620D01*
X1259966Y-7299D01*
X1259073Y-6406D01*
X1251811Y-6406D01*
X1250981Y-7236D01*
X1250750Y-7394D01*
X1250454Y-7459D01*
X1250156Y-7403D01*
X1249903Y-7236D01*
X1249073Y-6406D01*
X1241811Y-6406D01*
X1241414Y-6803D01*
X1241184Y-6961D01*
X1240887Y-7026D01*
X1240589Y-6970D01*
X1240336Y-6803D01*
X1239178Y-5644D01*
X1234782Y-5644D01*
X1231674Y-8752D01*
X1231674Y-13148D01*
X1234782Y-16256D01*
X1239178Y-16256D01*
X1239856Y-15577D01*
X1240087Y-15419D01*
X1240383Y-15354D01*
X1240681Y-15410D01*
X1240934Y-15577D01*
X1241811Y-16454D01*
X1249073Y-16454D01*
X1249903Y-15624D01*
X1250134Y-15466D01*
X1250430Y-15401D01*
X1250728Y-15457D01*
X1250981Y-15624D01*
X1251811Y-16454D01*
X1259073Y-16454D01*
X1259966Y-15561D01*
X1259966Y-15240D01*
X1260017Y-14965D01*
X1260181Y-14710D01*
X1260431Y-14538D01*
X1260728Y-14478D01*
X1264862Y-14478D01*
X1265137Y-14529D01*
X1265392Y-14693D01*
X1265564Y-14943D01*
X1265624Y-15240D01*
X1265624Y-16631D01*
X1266517Y-17524D01*
G37*
G36*
X1094152Y10922D02*
X1098930Y10922D01*
X1098930Y14712D01*
X1097442Y16200D01*
X1094152Y16200D01*
X1094152Y10922D01*
G37*
G36*
X1266096Y5460D02*
X1269136Y5460D01*
X1269136Y11238D01*
X1264608Y11238D01*
X1264608Y6948D01*
X1266096Y5460D01*
G37*
G36*
X1094152Y4120D02*
X1097442Y4120D01*
X1098930Y5608D01*
X1098930Y9398D01*
X1094152Y9398D01*
X1094152Y4120D01*
G37*
%LPD*%
G36*
X976232Y-5366D02*
X975936Y-5431D01*
X975638Y-5375D01*
X975385Y-5208D01*
X975367Y-5190D01*
X975204Y-4948D01*
X975144Y-4651D01*
X975144Y-2059D01*
X974251Y-1166D01*
X965989Y-1166D01*
X965096Y-2059D01*
X965096Y-4034D01*
X965049Y-4297D01*
X964890Y-4555D01*
X964642Y-4731D01*
X964346Y-4796D01*
X964048Y-4740D01*
X963795Y-4573D01*
X963137Y-3915D01*
X962974Y-3673D01*
X962914Y-3376D01*
X962914Y1891D01*
X958201Y6604D01*
X955906Y6604D01*
X955631Y6655D01*
X955376Y6819D01*
X955204Y7069D01*
X955144Y7366D01*
X955144Y7441D01*
X954251Y8334D01*
X945930Y8334D01*
X945905Y8317D01*
X945610Y8247D01*
X945311Y8298D01*
X945056Y8462D01*
X944884Y8712D01*
X944824Y9009D01*
X944824Y11331D01*
X944713Y11443D01*
X944555Y11673D01*
X944489Y11969D01*
X944545Y12268D01*
X944713Y12520D01*
X945840Y13648D01*
X945840Y16938D01*
X939038Y16938D01*
X939038Y18462D01*
X945840Y18462D01*
X945840Y21947D01*
X945810Y22074D01*
X945861Y22373D01*
X946024Y22628D01*
X946275Y22800D01*
X946572Y22860D01*
X975924Y22860D01*
X976199Y22809D01*
X976454Y22645D01*
X976626Y22395D01*
X976686Y22098D01*
X976686Y15339D01*
X977516Y14509D01*
X977674Y14278D01*
X977739Y13982D01*
X977683Y13684D01*
X977516Y13431D01*
X977342Y13257D01*
X977100Y13094D01*
X976803Y13034D01*
X976459Y13034D01*
X976173Y13090D01*
X975920Y13257D01*
X975367Y13810D01*
X975204Y14052D01*
X975144Y14349D01*
X975144Y16941D01*
X974251Y17834D01*
X965989Y17834D01*
X965096Y16941D01*
X965096Y9679D01*
X965989Y8786D01*
X968581Y8786D01*
X968867Y8730D01*
X969120Y8563D01*
X972777Y4906D01*
X976803Y4906D01*
X977089Y4850D01*
X977342Y4683D01*
X977423Y4602D01*
X977586Y4360D01*
X977646Y4063D01*
X977646Y3557D01*
X977590Y3271D01*
X977423Y3018D01*
X976686Y2281D01*
X976686Y-4669D01*
X976639Y-4932D01*
X976480Y-5190D01*
X976232Y-5366D01*
G37*
G36*
X1060294Y-22800D02*
X1059997Y-22860D01*
X947675Y-22860D01*
X947412Y-22813D01*
X947154Y-22654D01*
X946978Y-22406D01*
X946913Y-22110D01*
X946969Y-21812D01*
X947136Y-21559D01*
X948054Y-20641D01*
X948054Y-14311D01*
X948101Y-14048D01*
X948260Y-13790D01*
X948508Y-13615D01*
X948804Y-13549D01*
X949102Y-13605D01*
X949355Y-13773D01*
X955290Y-19708D01*
X964950Y-19708D01*
X971131Y-13526D01*
X971362Y-13368D01*
X971658Y-13303D01*
X971956Y-13359D01*
X972209Y-13526D01*
X974097Y-15414D01*
X976803Y-15414D01*
X977089Y-15470D01*
X977342Y-15637D01*
X977579Y-15874D01*
X985841Y-15874D01*
X986706Y-15009D01*
X986948Y-14846D01*
X987245Y-14786D01*
X999325Y-14786D01*
X1013174Y-937D01*
X1013415Y-774D01*
X1013713Y-714D01*
X1017431Y-714D01*
X1017878Y-268D01*
X1018108Y-110D01*
X1018404Y-44D01*
X1018703Y-100D01*
X1018955Y-268D01*
X1019648Y-960D01*
X1022938Y-960D01*
X1022938Y11120D01*
X1019648Y11120D01*
X1018160Y9632D01*
X1018160Y9096D01*
X1018109Y8821D01*
X1017945Y8566D01*
X1017695Y8394D01*
X1017398Y8334D01*
X1009169Y8334D01*
X1008276Y7441D01*
X1008276Y3102D01*
X1008220Y2816D01*
X1008053Y2563D01*
X1000641Y-4849D01*
X1000421Y-5002D01*
X1000126Y-5072D01*
X999827Y-5021D01*
X999572Y-4858D01*
X999400Y-4608D01*
X999340Y-4310D01*
X999340Y-1638D01*
X997852Y-150D01*
X994062Y-150D01*
X994062Y-6452D01*
X987252Y-6452D01*
X987213Y-6668D01*
X987054Y-6926D01*
X986806Y-7102D01*
X986510Y-7167D01*
X986212Y-7111D01*
X985959Y-6944D01*
X985904Y-6889D01*
X985746Y-6658D01*
X985681Y-6362D01*
X985737Y-6064D01*
X985904Y-5811D01*
X985959Y-5756D01*
X986179Y-5603D01*
X986474Y-5533D01*
X986773Y-5584D01*
X986879Y-5652D01*
X986879Y-4928D01*
X992538Y-4928D01*
X992538Y-150D01*
X988748Y-150D01*
X988035Y-863D01*
X987815Y-1016D01*
X987520Y-1086D01*
X987221Y-1035D01*
X986966Y-872D01*
X986794Y-622D01*
X986734Y-324D01*
X986734Y2281D01*
X985997Y3018D01*
X985834Y3260D01*
X985774Y3557D01*
X985774Y4063D01*
X985830Y4349D01*
X985997Y4602D01*
X986734Y5339D01*
X986734Y12289D01*
X986781Y12552D01*
X986940Y12810D01*
X987188Y12986D01*
X987484Y13051D01*
X987782Y12995D01*
X988035Y12828D01*
X988053Y12810D01*
X988216Y12568D01*
X988276Y12271D01*
X988276Y9679D01*
X989169Y8786D01*
X997431Y8786D01*
X998324Y9679D01*
X998324Y16941D01*
X997431Y17834D01*
X994839Y17834D01*
X994553Y17890D01*
X994300Y18057D01*
X990798Y21559D01*
X990645Y21779D01*
X990575Y22074D01*
X990626Y22373D01*
X990790Y22628D01*
X991040Y22800D01*
X991337Y22860D01*
X1034038Y22860D01*
X1034301Y22813D01*
X1034559Y22654D01*
X1034735Y22406D01*
X1034800Y22110D01*
X1034744Y21812D01*
X1034577Y21559D01*
X1033967Y20949D01*
X1033736Y20791D01*
X1033440Y20726D01*
X1033142Y20782D01*
X1032889Y20949D01*
X1032752Y21086D01*
X1028564Y21086D01*
X1025602Y18124D01*
X1025602Y13936D01*
X1027117Y12421D01*
X1027270Y12201D01*
X1027340Y11906D01*
X1027289Y11607D01*
X1027125Y11352D01*
X1026875Y11180D01*
X1026578Y11120D01*
X1024462Y11120D01*
X1024462Y-960D01*
X1027752Y-960D01*
X1028880Y168D01*
X1029110Y326D01*
X1029406Y391D01*
X1029704Y335D01*
X1029957Y168D01*
X1030069Y56D01*
X1037331Y56D01*
X1038224Y949D01*
X1038224Y4612D01*
X1038275Y4887D01*
X1038439Y5142D01*
X1038689Y5314D01*
X1038986Y5374D01*
X1043244Y5374D01*
X1043519Y5323D01*
X1043774Y5159D01*
X1043946Y4909D01*
X1044006Y4612D01*
X1044006Y876D01*
X1045096Y-214D01*
X1046282Y-214D01*
X1046557Y-265D01*
X1046812Y-429D01*
X1046984Y-679D01*
X1047044Y-976D01*
X1047044Y-1541D01*
X1047709Y-2206D01*
X1047872Y-2448D01*
X1047933Y-2745D01*
X1047933Y-6619D01*
X1047877Y-6905D01*
X1047709Y-7158D01*
X1046426Y-8441D01*
X1046185Y-8604D01*
X1045887Y-8664D01*
X1034811Y-8664D01*
X1034525Y-8608D01*
X1034272Y-8441D01*
X1031725Y-5894D01*
X1027537Y-5894D01*
X1024575Y-8856D01*
X1024575Y-13044D01*
X1027537Y-16006D01*
X1031725Y-16006D01*
X1034272Y-13459D01*
X1034514Y-13296D01*
X1034811Y-13236D01*
X1048097Y-13236D01*
X1048445Y-12888D01*
X1048675Y-12730D01*
X1048972Y-12665D01*
X1049270Y-12720D01*
X1049523Y-12888D01*
X1050549Y-13914D01*
X1057811Y-13914D01*
X1058641Y-13084D01*
X1058872Y-12926D01*
X1059168Y-12861D01*
X1059466Y-12917D01*
X1059719Y-13084D01*
X1060047Y-13412D01*
X1060205Y-13642D01*
X1060270Y-13939D01*
X1060214Y-14237D01*
X1060047Y-14490D01*
X1058954Y-15582D01*
X1058954Y-19978D01*
X1060535Y-21559D01*
X1060688Y-21779D01*
X1060758Y-22074D01*
X1060707Y-22373D01*
X1060544Y-22628D01*
X1060294Y-22800D01*
G37*
G36*
X1918476Y-22800D02*
X1918179Y-22860D01*
X1707750Y-22860D01*
X1707558Y-22835D01*
X1707285Y-22702D01*
X1707086Y-22473D01*
X1706993Y-22185D01*
X1707019Y-21883D01*
X1707161Y-21615D01*
X1707898Y-20716D01*
X1707939Y-20654D01*
X1708726Y-19183D01*
X1708754Y-19114D01*
X1709238Y-17518D01*
X1709253Y-17445D01*
X1709418Y-15767D01*
X1709420Y-15729D01*
X1709420Y14713D01*
X1709418Y14751D01*
X1709253Y16429D01*
X1709238Y16502D01*
X1708754Y18098D01*
X1708726Y18167D01*
X1707939Y19638D01*
X1707898Y19700D01*
X1706840Y20989D01*
X1706787Y21042D01*
X1706558Y21230D01*
X1706395Y21416D01*
X1706289Y21700D01*
X1706245Y21979D01*
X1706287Y22373D01*
X1706450Y22628D01*
X1706700Y22800D01*
X1706997Y22860D01*
X1841697Y22860D01*
X1841960Y22813D01*
X1842218Y22654D01*
X1842394Y22406D01*
X1842459Y22110D01*
X1842403Y21812D01*
X1842236Y21559D01*
X1823075Y2398D01*
X1822844Y2240D01*
X1822548Y2175D01*
X1822250Y2230D01*
X1821997Y2398D01*
X1821855Y2540D01*
X1817459Y2540D01*
X1814351Y-568D01*
X1814351Y-4964D01*
X1817459Y-8072D01*
X1821855Y-8072D01*
X1823807Y-6120D01*
X1824038Y-5962D01*
X1824334Y-5897D01*
X1824632Y-5952D01*
X1824885Y-6120D01*
X1827817Y-9052D01*
X1832213Y-9052D01*
X1835321Y-5944D01*
X1835321Y-1989D01*
X1835377Y-1703D01*
X1835544Y-1450D01*
X1838780Y1786D01*
X1839011Y1944D01*
X1839307Y2009D01*
X1839605Y1954D01*
X1839858Y1786D01*
X1843112Y-1468D01*
X1843646Y-1468D01*
X1843920Y-1519D01*
X1844176Y-1683D01*
X1844347Y-1933D01*
X1844408Y-2230D01*
X1844408Y-4238D01*
X1844352Y-4524D01*
X1844185Y-4777D01*
X1843032Y-5929D01*
X1842791Y-6092D01*
X1842494Y-6152D01*
X1838538Y-6152D01*
X1835430Y-9260D01*
X1835430Y-13656D01*
X1838538Y-16764D01*
X1842934Y-16764D01*
X1846042Y-13656D01*
X1846042Y-9701D01*
X1846098Y-9415D01*
X1846265Y-9162D01*
X1846867Y-8560D01*
X1847098Y-8402D01*
X1847394Y-8337D01*
X1847692Y-8393D01*
X1847945Y-8560D01*
X1850564Y-11179D01*
X1854519Y-11179D01*
X1854805Y-11235D01*
X1855058Y-11402D01*
X1857153Y-13497D01*
X1857316Y-13739D01*
X1857376Y-14036D01*
X1857376Y-18101D01*
X1858269Y-18994D01*
X1865531Y-18994D01*
X1865643Y-18883D01*
X1865873Y-18725D01*
X1866169Y-18659D01*
X1866468Y-18715D01*
X1866720Y-18883D01*
X1867848Y-20010D01*
X1871138Y-20010D01*
X1871138Y-7930D01*
X1867848Y-7930D01*
X1866720Y-9058D01*
X1866490Y-9216D01*
X1866194Y-9281D01*
X1865896Y-9225D01*
X1865643Y-9058D01*
X1865531Y-8946D01*
X1859383Y-8946D01*
X1859097Y-8890D01*
X1858844Y-8723D01*
X1858291Y-8170D01*
X1858128Y-7928D01*
X1858068Y-7631D01*
X1858068Y-5786D01*
X1858119Y-5511D01*
X1858282Y-5256D01*
X1858533Y-5084D01*
X1858830Y-5024D01*
X1865531Y-5024D01*
X1865643Y-4913D01*
X1865873Y-4755D01*
X1866169Y-4689D01*
X1866468Y-4745D01*
X1866720Y-4913D01*
X1867848Y-6040D01*
X1871138Y-6040D01*
X1871138Y6040D01*
X1867848Y6040D01*
X1866720Y4913D01*
X1866490Y4755D01*
X1866194Y4689D01*
X1865896Y4745D01*
X1865643Y4913D01*
X1865531Y5024D01*
X1860150Y5024D01*
X1859887Y5071D01*
X1859629Y5230D01*
X1859453Y5478D01*
X1859388Y5774D01*
X1859444Y6072D01*
X1859611Y6325D01*
X1860655Y7369D01*
X1860897Y7532D01*
X1861194Y7592D01*
X1885469Y7592D01*
X1885732Y7545D01*
X1885990Y7386D01*
X1886165Y7138D01*
X1886230Y6842D01*
X1886175Y6544D01*
X1886007Y6291D01*
X1885724Y6008D01*
X1885724Y1612D01*
X1888832Y-1496D01*
X1893228Y-1496D01*
X1894247Y-477D01*
X1894488Y-314D01*
X1894785Y-254D01*
X1900048Y-254D01*
X1900323Y-305D01*
X1900578Y-469D01*
X1900750Y-719D01*
X1900810Y-1016D01*
X1900810Y-3048D01*
X1907112Y-3048D01*
X1907112Y-4572D01*
X1900810Y-4572D01*
X1900810Y-8362D01*
X1901434Y-8986D01*
X1901592Y-9217D01*
X1901657Y-9513D01*
X1901602Y-9811D01*
X1901434Y-10064D01*
X1900810Y-10688D01*
X1900810Y-14478D01*
X1907112Y-14478D01*
X1907112Y-21280D01*
X1910402Y-21280D01*
X1911530Y-20153D01*
X1911760Y-19995D01*
X1912056Y-19929D01*
X1912354Y-19985D01*
X1912607Y-20153D01*
X1912719Y-20264D01*
X1917107Y-20264D01*
X1917393Y-20320D01*
X1917646Y-20487D01*
X1918718Y-21559D01*
X1918871Y-21779D01*
X1918941Y-22074D01*
X1918890Y-22373D01*
X1918726Y-22628D01*
X1918476Y-22800D01*
G37*
%LPC*%
G36*
X1872662Y762D02*
X1877440Y762D01*
X1877440Y4552D01*
X1875952Y6040D01*
X1872662Y6040D01*
X1872662Y762D01*
G37*
G36*
X1872662Y-6040D02*
X1875952Y-6040D01*
X1877440Y-4552D01*
X1877440Y-762D01*
X1872662Y-762D01*
X1872662Y-6040D01*
G37*
G36*
X1872662Y-13208D02*
X1877440Y-13208D01*
X1877440Y-9418D01*
X1875952Y-7930D01*
X1872662Y-7930D01*
X1872662Y-13208D01*
G37*
G36*
X1872662Y-20010D02*
X1875952Y-20010D01*
X1877440Y-18522D01*
X1877440Y-14732D01*
X1872662Y-14732D01*
X1872662Y-20010D01*
G37*
G36*
X1902298Y-21280D02*
X1905588Y-21280D01*
X1905588Y-16002D01*
X1900810Y-16002D01*
X1900810Y-19792D01*
X1902298Y-21280D01*
G37*
%LPD*%
G36*
X1508802Y-22800D02*
X1508505Y-22860D01*
X1431416Y-22860D01*
X1431141Y-22809D01*
X1430886Y-22645D01*
X1430714Y-22395D01*
X1430654Y-22098D01*
X1430654Y-21336D01*
X1430705Y-21061D01*
X1430869Y-20806D01*
X1431119Y-20634D01*
X1431416Y-20574D01*
X1434987Y-20574D01*
X1437104Y-18457D01*
X1437346Y-18294D01*
X1437643Y-18234D01*
X1437860Y-18234D01*
X1440968Y-15126D01*
X1440968Y-10730D01*
X1437860Y-7622D01*
X1433464Y-7622D01*
X1430356Y-10730D01*
X1430356Y-11994D01*
X1430305Y-12269D01*
X1430141Y-12524D01*
X1429891Y-12696D01*
X1429594Y-12756D01*
X1426227Y-12756D01*
X1425963Y-12709D01*
X1425705Y-12550D01*
X1425530Y-12302D01*
X1425465Y-12006D01*
X1425520Y-11708D01*
X1425688Y-11455D01*
X1433690Y-3453D01*
X1433932Y-3290D01*
X1434229Y-3229D01*
X1440822Y-3229D01*
X1441108Y-3285D01*
X1441361Y-3453D01*
X1443908Y-5999D01*
X1448097Y-5999D01*
X1451058Y-3038D01*
X1451058Y1151D01*
X1448097Y4113D01*
X1443908Y4113D01*
X1441361Y1566D01*
X1441120Y1403D01*
X1440822Y1343D01*
X1434355Y1343D01*
X1434081Y1394D01*
X1433825Y1557D01*
X1433654Y1807D01*
X1433593Y2105D01*
X1433593Y6182D01*
X1430632Y9144D01*
X1426443Y9144D01*
X1425334Y8035D01*
X1425104Y7877D01*
X1424807Y7812D01*
X1424509Y7868D01*
X1424256Y8035D01*
X1422385Y9906D01*
X1420676Y9906D01*
X1420401Y9957D01*
X1420146Y10121D01*
X1419974Y10371D01*
X1419914Y10668D01*
X1419914Y11591D01*
X1419021Y12484D01*
X1418438Y12484D01*
X1418163Y12535D01*
X1417908Y12699D01*
X1417736Y12949D01*
X1417676Y13246D01*
X1417676Y14227D01*
X1415637Y16266D01*
X1415474Y16507D01*
X1415414Y16805D01*
X1415414Y22098D01*
X1415465Y22373D01*
X1415629Y22628D01*
X1415879Y22800D01*
X1416176Y22860D01*
X1677379Y22860D01*
X1677763Y22756D01*
X1677989Y22555D01*
X1678119Y22281D01*
X1678131Y21978D01*
X1678025Y21694D01*
X1677816Y21474D01*
X1677517Y21264D01*
X1677466Y21221D01*
X1676261Y20016D01*
X1676218Y19965D01*
X1675240Y18569D01*
X1675207Y18512D01*
X1674487Y16967D01*
X1674464Y16905D01*
X1674023Y15259D01*
X1674011Y15193D01*
X1673861Y13479D01*
X1673860Y13445D01*
X1673860Y4610D01*
X1673856Y4535D01*
X1673721Y3160D01*
X1673692Y3014D01*
X1673302Y1728D01*
X1673245Y1590D01*
X1672611Y405D01*
X1672528Y281D01*
X1671676Y-758D01*
X1671570Y-864D01*
X1670532Y-1716D01*
X1670407Y-1799D01*
X1669222Y-2433D01*
X1669084Y-2490D01*
X1667799Y-2880D01*
X1667652Y-2909D01*
X1666277Y-3044D01*
X1666202Y-3048D01*
X1644669Y-3048D01*
X1644631Y-3050D01*
X1643448Y-3166D01*
X1643375Y-3181D01*
X1642256Y-3521D01*
X1642187Y-3549D01*
X1641155Y-4100D01*
X1641093Y-4142D01*
X1640189Y-4884D01*
X1640136Y-4937D01*
X1639394Y-5841D01*
X1639352Y-5903D01*
X1638801Y-6935D01*
X1638773Y-7004D01*
X1638433Y-8123D01*
X1638418Y-8196D01*
X1638302Y-9379D01*
X1638300Y-9417D01*
X1638300Y-17014D01*
X1638300Y-17020D01*
X1638300Y-17020D01*
X1638310Y-18355D01*
X1638318Y-18430D01*
X1638581Y-19703D01*
X1638603Y-19774D01*
X1639110Y-20971D01*
X1639145Y-21037D01*
X1639575Y-21670D01*
X1639707Y-22074D01*
X1639656Y-22373D01*
X1639492Y-22628D01*
X1639242Y-22800D01*
X1638945Y-22860D01*
X1528232Y-22860D01*
X1527968Y-22813D01*
X1527710Y-22654D01*
X1527535Y-22406D01*
X1527470Y-22110D01*
X1527525Y-21812D01*
X1527693Y-21559D01*
X1528190Y-21062D01*
X1528190Y-17272D01*
X1521888Y-17272D01*
X1521888Y-10089D01*
X1522619Y-10089D01*
X1522567Y-10016D01*
X1522502Y-9720D01*
X1522558Y-9422D01*
X1522725Y-9169D01*
X1533450Y1555D01*
X1533680Y1713D01*
X1533976Y1778D01*
X1534274Y1723D01*
X1534490Y1580D01*
X1538898Y1580D01*
X1542006Y4688D01*
X1542006Y9084D01*
X1538898Y12192D01*
X1534502Y12192D01*
X1531394Y9084D01*
X1531394Y8436D01*
X1531338Y8150D01*
X1531171Y7897D01*
X1518925Y-4349D01*
X1518683Y-4512D01*
X1518386Y-4572D01*
X1515117Y-4572D01*
X1510609Y-9081D01*
X1510378Y-9239D01*
X1510082Y-9304D01*
X1509784Y-9248D01*
X1509531Y-9081D01*
X1508673Y-8222D01*
X1507696Y-8222D01*
X1507421Y-8171D01*
X1507166Y-8007D01*
X1506994Y-7757D01*
X1506934Y-7460D01*
X1506934Y-7139D01*
X1506041Y-6246D01*
X1498779Y-6246D01*
X1497886Y-7139D01*
X1497886Y-15401D01*
X1498779Y-16294D01*
X1506041Y-16294D01*
X1506544Y-15792D01*
X1506774Y-15634D01*
X1507070Y-15569D01*
X1507368Y-15624D01*
X1507621Y-15792D01*
X1507903Y-16073D01*
X1508066Y-16315D01*
X1508126Y-16612D01*
X1508126Y-20641D01*
X1509044Y-21559D01*
X1509197Y-21779D01*
X1509267Y-22074D01*
X1509216Y-22373D01*
X1509052Y-22628D01*
X1508802Y-22800D01*
G37*
%LPC*%
G36*
X1487385Y-7411D02*
X1491781Y-7411D01*
X1494889Y-4302D01*
X1494889Y93D01*
X1492577Y2405D01*
X1492424Y2625D01*
X1492354Y2920D01*
X1492405Y3219D01*
X1492569Y3474D01*
X1492819Y3646D01*
X1493116Y3706D01*
X1496541Y3706D01*
X1497434Y4599D01*
X1497434Y12861D01*
X1496541Y13754D01*
X1492512Y13754D01*
X1492226Y13810D01*
X1491973Y13977D01*
X1490283Y15668D01*
X1484066Y15668D01*
X1483791Y15719D01*
X1483536Y15883D01*
X1483364Y16133D01*
X1483350Y16206D01*
X1482411Y17144D01*
X1474149Y17144D01*
X1473215Y16210D01*
X1473205Y16155D01*
X1473041Y15900D01*
X1472791Y15728D01*
X1472494Y15668D01*
X1471732Y15668D01*
X1471457Y15719D01*
X1471202Y15883D01*
X1471030Y16133D01*
X1471016Y16206D01*
X1470077Y17144D01*
X1461815Y17144D01*
X1460922Y16251D01*
X1460922Y11992D01*
X1460875Y11729D01*
X1460716Y11471D01*
X1460468Y11295D01*
X1460172Y11230D01*
X1459874Y11286D01*
X1459621Y11453D01*
X1458882Y12192D01*
X1454694Y12192D01*
X1451732Y9230D01*
X1451732Y5042D01*
X1454694Y2080D01*
X1458271Y2080D01*
X1458557Y2024D01*
X1458810Y1857D01*
X1460372Y294D01*
X1460435Y283D01*
X1460690Y119D01*
X1460862Y-131D01*
X1460922Y-428D01*
X1460922Y-1011D01*
X1461815Y-1904D01*
X1470077Y-1904D01*
X1470939Y-1042D01*
X1471159Y-889D01*
X1471454Y-819D01*
X1471753Y-870D01*
X1472008Y-1034D01*
X1472180Y-1284D01*
X1472202Y-1394D01*
X1473728Y-2920D01*
X1477518Y-2920D01*
X1477518Y3382D01*
X1484320Y3382D01*
X1484320Y6672D01*
X1483193Y7800D01*
X1483035Y8030D01*
X1482969Y8326D01*
X1483025Y8624D01*
X1483193Y8877D01*
X1483345Y9030D01*
X1483355Y9085D01*
X1483519Y9340D01*
X1483769Y9512D01*
X1484066Y9572D01*
X1487442Y9572D01*
X1487728Y9516D01*
X1487981Y9349D01*
X1488163Y9167D01*
X1488326Y8925D01*
X1488386Y8628D01*
X1488386Y4599D01*
X1488482Y4502D01*
X1488635Y4283D01*
X1488705Y3988D01*
X1488654Y3689D01*
X1488491Y3433D01*
X1488241Y3262D01*
X1487944Y3202D01*
X1487385Y3202D01*
X1485621Y1437D01*
X1485401Y1284D01*
X1485106Y1214D01*
X1484807Y1265D01*
X1484552Y1429D01*
X1484380Y1679D01*
X1484344Y1858D01*
X1479042Y1858D01*
X1479042Y-2920D01*
X1482832Y-2920D01*
X1482976Y-2776D01*
X1483196Y-2623D01*
X1483491Y-2553D01*
X1483790Y-2604D01*
X1484045Y-2767D01*
X1484217Y-3018D01*
X1484277Y-3315D01*
X1484277Y-4302D01*
X1487385Y-7411D01*
G37*
G36*
X1506370Y9492D02*
X1511148Y9492D01*
X1511148Y14770D01*
X1507858Y14770D01*
X1506370Y13282D01*
X1506370Y9492D01*
G37*
G36*
X1512672Y9492D02*
X1517450Y9492D01*
X1517450Y13282D01*
X1515962Y14770D01*
X1512672Y14770D01*
X1512672Y9492D01*
G37*
G36*
X1512672Y2690D02*
X1515962Y2690D01*
X1517450Y4178D01*
X1517450Y7968D01*
X1512672Y7968D01*
X1512672Y2690D01*
G37*
G36*
X1507858Y2690D02*
X1511148Y2690D01*
X1511148Y7968D01*
X1506370Y7968D01*
X1506370Y4178D01*
X1507858Y2690D01*
G37*
G36*
X1523412Y-15748D02*
X1528190Y-15748D01*
X1528190Y-11958D01*
X1526702Y-10470D01*
X1523412Y-10470D01*
X1523412Y-15748D01*
G37*
%LPD*%
G36*
X1071558Y-6036D02*
X1071261Y-6096D01*
X1069466Y-6096D01*
X1069191Y-6045D01*
X1068936Y-5881D01*
X1068764Y-5631D01*
X1068704Y-5334D01*
X1068704Y-4759D01*
X1067811Y-3866D01*
X1060549Y-3866D01*
X1059719Y-4696D01*
X1059488Y-4854D01*
X1059192Y-4919D01*
X1058894Y-4863D01*
X1058641Y-4696D01*
X1057811Y-3866D01*
X1053267Y-3866D01*
X1052992Y-3815D01*
X1052736Y-3651D01*
X1052565Y-3401D01*
X1052505Y-3104D01*
X1052505Y-976D01*
X1052556Y-701D01*
X1052719Y-446D01*
X1052969Y-274D01*
X1053267Y-214D01*
X1053564Y-214D01*
X1054674Y897D01*
X1054916Y1060D01*
X1055213Y1120D01*
X1058418Y1120D01*
X1058418Y19200D01*
X1055213Y19200D01*
X1054927Y19256D01*
X1054674Y19423D01*
X1053564Y20534D01*
X1045064Y20534D01*
X1044789Y20585D01*
X1044534Y20749D01*
X1044362Y20999D01*
X1044333Y21141D01*
X1043915Y21559D01*
X1043762Y21779D01*
X1043692Y22074D01*
X1043743Y22373D01*
X1043906Y22628D01*
X1044157Y22800D01*
X1044454Y22860D01*
X1063846Y22860D01*
X1064109Y22813D01*
X1064367Y22654D01*
X1064543Y22406D01*
X1064608Y22110D01*
X1064552Y21812D01*
X1064385Y21559D01*
X1062668Y19842D01*
X1062639Y19687D01*
X1062475Y19432D01*
X1062225Y19260D01*
X1061928Y19200D01*
X1059942Y19200D01*
X1059942Y1120D01*
X1061928Y1120D01*
X1062203Y1069D01*
X1062458Y905D01*
X1062630Y655D01*
X1062665Y480D01*
X1064376Y-1230D01*
X1068268Y-1230D01*
X1068268Y3422D01*
X1075370Y3422D01*
X1075370Y4864D01*
X1074577Y5657D01*
X1074414Y5899D01*
X1074354Y6196D01*
X1074354Y6604D01*
X1074405Y6879D01*
X1074569Y7134D01*
X1074819Y7306D01*
X1075116Y7366D01*
X1078104Y7366D01*
X1078379Y7315D01*
X1078634Y7151D01*
X1078806Y6901D01*
X1078866Y6604D01*
X1078866Y6029D01*
X1079759Y5136D01*
X1079834Y5136D01*
X1080109Y5085D01*
X1080364Y4921D01*
X1080536Y4671D01*
X1080596Y4374D01*
X1080596Y3239D01*
X1080540Y2953D01*
X1080373Y2701D01*
X1071800Y-5873D01*
X1071558Y-6036D01*
G37*
%LPC*%
G36*
X1069792Y-1230D02*
X1073684Y-1230D01*
X1075370Y456D01*
X1075370Y1898D01*
X1069792Y1898D01*
X1069792Y-1230D01*
G37*
%LPD*%
G36*
X918972Y21210D02*
X918972Y13208D01*
X917448Y13208D01*
X917448Y21210D01*
X916945Y21210D01*
X916659Y21266D01*
X916406Y21433D01*
X916280Y21559D01*
X916127Y21779D01*
X916057Y22074D01*
X916108Y22373D01*
X916271Y22628D01*
X916521Y22800D01*
X916819Y22860D01*
X933028Y22860D01*
X933292Y22813D01*
X933550Y22654D01*
X933725Y22406D01*
X933790Y22110D01*
X933760Y21948D01*
X933760Y18540D01*
X933713Y18277D01*
X933554Y18019D01*
X933306Y17843D01*
X933010Y17778D01*
X932712Y17834D01*
X932459Y18001D01*
X929443Y21018D01*
X921270Y21018D01*
X920984Y21074D01*
X920778Y21210D01*
X918972Y21210D01*
G37*
G36*
X1940654Y-18736D02*
X1940357Y-18796D01*
X1924173Y-18796D01*
X1923887Y-18740D01*
X1923634Y-18573D01*
X1921097Y-16036D01*
X1920934Y-15794D01*
X1920874Y-15497D01*
X1920874Y-11109D01*
X1920637Y-10872D01*
X1920474Y-10630D01*
X1920414Y-10333D01*
X1920414Y-8717D01*
X1920470Y-8431D01*
X1920637Y-8178D01*
X1920874Y-7941D01*
X1920874Y-7246D01*
X1920925Y-6971D01*
X1921089Y-6716D01*
X1921339Y-6544D01*
X1921636Y-6484D01*
X1931599Y-6484D01*
X1931698Y-6464D01*
X1932278Y-6464D01*
X1932553Y-6515D01*
X1932808Y-6679D01*
X1932980Y-6929D01*
X1933040Y-7226D01*
X1933040Y-8742D01*
X1934528Y-10230D01*
X1936068Y-10230D01*
X1936068Y-400D01*
X1934866Y-400D01*
X1934591Y-349D01*
X1934336Y-185D01*
X1934164Y65D01*
X1934104Y362D01*
X1934104Y3191D01*
X1934024Y3271D01*
X1933866Y3502D01*
X1933801Y3798D01*
X1933857Y4096D01*
X1934024Y4349D01*
X1934104Y4429D01*
X1934104Y8274D01*
X1934155Y8549D01*
X1934319Y8804D01*
X1934569Y8976D01*
X1934866Y9036D01*
X1938711Y9036D01*
X1938791Y9116D01*
X1939022Y9274D01*
X1939318Y9339D01*
X1939616Y9283D01*
X1939869Y9116D01*
X1939949Y9036D01*
X1943711Y9036D01*
X1943791Y9116D01*
X1944022Y9274D01*
X1944318Y9339D01*
X1944616Y9283D01*
X1944869Y9116D01*
X1944949Y9036D01*
X1948196Y9036D01*
X1948482Y8980D01*
X1948735Y8813D01*
X1949333Y8215D01*
X1949496Y7974D01*
X1949556Y7676D01*
X1949556Y4429D01*
X1949636Y4349D01*
X1949794Y4118D01*
X1949859Y3822D01*
X1949803Y3524D01*
X1949636Y3271D01*
X1949556Y3191D01*
X1949556Y-654D01*
X1949505Y-929D01*
X1949341Y-1184D01*
X1949091Y-1356D01*
X1948794Y-1416D01*
X1945464Y-1416D01*
X1945178Y-1360D01*
X1944925Y-1193D01*
X1944132Y-400D01*
X1942592Y-400D01*
X1942592Y-10230D01*
X1943274Y-10230D01*
X1943549Y-10281D01*
X1943804Y-10445D01*
X1943976Y-10695D01*
X1944036Y-10992D01*
X1944036Y-15117D01*
X1943980Y-15403D01*
X1943813Y-15656D01*
X1940896Y-18573D01*
X1940654Y-18736D01*
G37*
%LPC*%
G36*
X1937592Y-10230D02*
X1941068Y-10230D01*
X1941068Y-400D01*
X1937592Y-400D01*
X1937592Y-10230D01*
G37*
%LPD*%
G36*
X670067Y-64996D02*
X669771Y-65061D01*
X669472Y-65005D01*
X669220Y-64838D01*
X668671Y-64289D01*
X668513Y-64058D01*
X668448Y-63762D01*
X668503Y-63464D01*
X668671Y-63211D01*
X669330Y-62552D01*
X669330Y-60262D01*
X662028Y-60262D01*
X662028Y-58738D01*
X669330Y-58738D01*
X669330Y-56448D01*
X668671Y-55789D01*
X668513Y-55558D01*
X668448Y-55262D01*
X668503Y-54964D01*
X668671Y-54711D01*
X669330Y-54052D01*
X669330Y-51762D01*
X662028Y-51762D01*
X662028Y-50238D01*
X669330Y-50238D01*
X669330Y-47948D01*
X668671Y-47289D01*
X668513Y-47058D01*
X668448Y-46762D01*
X668503Y-46464D01*
X668671Y-46211D01*
X669330Y-45552D01*
X669330Y-43262D01*
X662028Y-43262D01*
X662028Y-41738D01*
X669330Y-41738D01*
X669330Y-39448D01*
X668671Y-38789D01*
X668513Y-38558D01*
X668448Y-38262D01*
X668503Y-37964D01*
X668671Y-37711D01*
X669330Y-37052D01*
X669330Y-34762D01*
X662028Y-34762D01*
X662028Y-33238D01*
X669330Y-33238D01*
X669330Y-30948D01*
X668671Y-30289D01*
X668513Y-30058D01*
X668448Y-29762D01*
X668503Y-29464D01*
X668671Y-29211D01*
X669330Y-28552D01*
X669330Y-26262D01*
X662028Y-26262D01*
X662028Y-24738D01*
X669330Y-24738D01*
X669330Y-22448D01*
X668671Y-21789D01*
X668513Y-21558D01*
X668448Y-21262D01*
X668503Y-20964D01*
X668671Y-20711D01*
X669330Y-20052D01*
X669330Y-17762D01*
X662028Y-17762D01*
X662028Y-16238D01*
X669330Y-16238D01*
X669330Y-13948D01*
X668671Y-13289D01*
X668513Y-13058D01*
X668448Y-12762D01*
X668503Y-12464D01*
X668671Y-12211D01*
X669330Y-11552D01*
X669330Y-9262D01*
X662028Y-9262D01*
X662028Y-7738D01*
X669330Y-7738D01*
X669330Y-5448D01*
X668671Y-4789D01*
X668513Y-4558D01*
X668448Y-4262D01*
X668503Y-3964D01*
X668671Y-3711D01*
X669330Y-3052D01*
X669330Y-762D01*
X662028Y-762D01*
X662028Y762D01*
X669330Y762D01*
X669330Y3052D01*
X668671Y3711D01*
X668513Y3942D01*
X668448Y4238D01*
X668503Y4536D01*
X668671Y4789D01*
X669457Y5575D01*
X669688Y5733D01*
X669984Y5798D01*
X670282Y5743D01*
X670535Y5575D01*
X671861Y4249D01*
X672024Y4007D01*
X672084Y3710D01*
X672084Y-63714D01*
X672033Y-63989D01*
X671869Y-64244D01*
X671619Y-64416D01*
X671322Y-64476D01*
X670659Y-64476D01*
X670297Y-64838D01*
X670067Y-64996D01*
G37*
G36*
X851100Y-74870D02*
X850802Y-74930D01*
X810092Y-74930D01*
X809817Y-74879D01*
X809562Y-74715D01*
X809390Y-74465D01*
X809330Y-74168D01*
X809330Y-70762D01*
X802028Y-70762D01*
X802028Y-69238D01*
X809330Y-69238D01*
X809330Y-64948D01*
X807953Y-63570D01*
X807795Y-63340D01*
X807729Y-63044D01*
X807785Y-62746D01*
X807953Y-62493D01*
X808436Y-62009D01*
X808678Y-61846D01*
X808975Y-61786D01*
X818408Y-61786D01*
X818694Y-61842D01*
X818947Y-62009D01*
X819370Y-62432D01*
X823558Y-62432D01*
X826520Y-59470D01*
X826520Y-55282D01*
X823558Y-52320D01*
X819370Y-52320D01*
X816408Y-55282D01*
X816408Y-56452D01*
X816357Y-56727D01*
X816193Y-56982D01*
X815943Y-57154D01*
X815646Y-57214D01*
X808975Y-57214D01*
X808689Y-57158D01*
X808436Y-56991D01*
X807234Y-55789D01*
X807076Y-55558D01*
X807011Y-55262D01*
X807067Y-54964D01*
X807234Y-54711D01*
X808314Y-53631D01*
X808314Y-48369D01*
X807234Y-47289D01*
X807076Y-47058D01*
X807011Y-46762D01*
X807067Y-46464D01*
X807234Y-46211D01*
X808314Y-45131D01*
X808314Y-39869D01*
X807234Y-38789D01*
X807076Y-38558D01*
X807011Y-38262D01*
X807067Y-37964D01*
X807234Y-37711D01*
X808314Y-36631D01*
X808314Y-31369D01*
X807234Y-30289D01*
X807076Y-30058D01*
X807011Y-29762D01*
X807067Y-29464D01*
X807234Y-29211D01*
X808314Y-28131D01*
X808314Y-22869D01*
X807234Y-21789D01*
X807076Y-21558D01*
X807011Y-21262D01*
X807067Y-20964D01*
X807234Y-20711D01*
X808314Y-19631D01*
X808314Y-14369D01*
X807234Y-13289D01*
X807076Y-13058D01*
X807011Y-12762D01*
X807067Y-12464D01*
X807234Y-12211D01*
X808314Y-11131D01*
X808314Y-5869D01*
X807234Y-4789D01*
X807076Y-4558D01*
X807011Y-4262D01*
X807067Y-3964D01*
X807234Y-3711D01*
X808314Y-2631D01*
X808314Y-1305D01*
X808361Y-1042D01*
X808520Y-784D01*
X808768Y-608D01*
X809064Y-543D01*
X809362Y-599D01*
X809615Y-766D01*
X816723Y-7874D01*
X819024Y-7874D01*
X819299Y-7925D01*
X819554Y-8089D01*
X819726Y-8339D01*
X819786Y-8636D01*
X819786Y-9211D01*
X820679Y-10104D01*
X820754Y-10104D01*
X821029Y-10155D01*
X821284Y-10319D01*
X821456Y-10569D01*
X821516Y-10866D01*
X821516Y-11628D01*
X821465Y-11903D01*
X821301Y-12158D01*
X821051Y-12330D01*
X820754Y-12390D01*
X820679Y-12390D01*
X819786Y-13283D01*
X819786Y-21545D01*
X820456Y-22216D01*
X820614Y-22446D01*
X820680Y-22742D01*
X820624Y-23040D01*
X820456Y-23293D01*
X819174Y-24576D01*
X819174Y-28764D01*
X822136Y-31726D01*
X826324Y-31726D01*
X828363Y-29687D01*
X828605Y-29524D01*
X828902Y-29464D01*
X831737Y-29464D01*
X837104Y-24097D01*
X837104Y-23200D01*
X837155Y-22925D01*
X837319Y-22670D01*
X837569Y-22498D01*
X837866Y-22438D01*
X837941Y-22438D01*
X838834Y-21545D01*
X838834Y-13283D01*
X837972Y-12421D01*
X837819Y-12201D01*
X837749Y-11906D01*
X837800Y-11607D01*
X837964Y-11352D01*
X838214Y-11180D01*
X838324Y-11158D01*
X839850Y-9632D01*
X839850Y-5842D01*
X833548Y-5842D01*
X833548Y960D01*
X830258Y960D01*
X829130Y-168D01*
X828900Y-326D01*
X828604Y-391D01*
X828306Y-335D01*
X828053Y-168D01*
X827941Y-56D01*
X820679Y-56D01*
X819786Y-949D01*
X819786Y-1195D01*
X819739Y-1458D01*
X819580Y-1716D01*
X819332Y-1892D01*
X819036Y-1957D01*
X818738Y-1901D01*
X818485Y-1734D01*
X814218Y2533D01*
X814065Y2753D01*
X813995Y3048D01*
X814046Y3347D01*
X814210Y3602D01*
X814460Y3774D01*
X814757Y3834D01*
X818930Y3834D01*
X819699Y4603D01*
X819941Y4766D01*
X820238Y4826D01*
X820673Y4826D01*
X820959Y4770D01*
X821212Y4603D01*
X821949Y3866D01*
X829211Y3866D01*
X830041Y4696D01*
X830272Y4854D01*
X830568Y4919D01*
X830866Y4863D01*
X831119Y4696D01*
X831949Y3866D01*
X839211Y3866D01*
X839948Y4603D01*
X840190Y4766D01*
X840487Y4826D01*
X840795Y4826D01*
X841081Y4770D01*
X841333Y4603D01*
X842352Y3584D01*
X846748Y3584D01*
X848583Y5419D01*
X848803Y5572D01*
X849098Y5642D01*
X849397Y5591D01*
X849652Y5428D01*
X849824Y5178D01*
X849884Y4881D01*
X849884Y-2547D01*
X849828Y-2833D01*
X849661Y-3086D01*
X848506Y-4241D01*
X848506Y-36489D01*
X851323Y-39306D01*
X851479Y-39531D01*
X851546Y-39827D01*
X851493Y-40125D01*
X851327Y-40380D01*
X851076Y-40549D01*
X849267Y-41298D01*
X847568Y-42997D01*
X846819Y-44806D01*
X846670Y-45036D01*
X846423Y-45212D01*
X846127Y-45277D01*
X845829Y-45221D01*
X845576Y-45054D01*
X845226Y-44704D01*
X837253Y-44704D01*
X831314Y-50643D01*
X831314Y-56542D01*
X831258Y-56828D01*
X831091Y-57080D01*
X828544Y-59627D01*
X828544Y-63816D01*
X831506Y-66778D01*
X835694Y-66778D01*
X838656Y-63816D01*
X838656Y-60729D01*
X838703Y-60465D01*
X838862Y-60207D01*
X839110Y-60032D01*
X839406Y-59967D01*
X839704Y-60022D01*
X839957Y-60190D01*
X840287Y-60520D01*
X842507Y-61439D01*
X844909Y-61439D01*
X847129Y-60520D01*
X848024Y-59625D01*
X848255Y-59467D01*
X848551Y-59402D01*
X848849Y-59457D01*
X849102Y-59625D01*
X855711Y-66234D01*
X857559Y-66999D01*
X857788Y-67147D01*
X857964Y-67395D01*
X858029Y-67691D01*
X857973Y-67989D01*
X857806Y-68242D01*
X851341Y-74707D01*
X851100Y-74870D01*
G37*
%LPC*%
G36*
X835072Y-4318D02*
X839850Y-4318D01*
X839850Y-528D01*
X838362Y960D01*
X835072Y960D01*
X835072Y-4318D01*
G37*
%LPD*%
G36*
X1662435Y-19249D02*
X1662147Y-19239D01*
X1661878Y-19211D01*
X1661627Y-19165D01*
X1661395Y-19099D01*
X1661181Y-19015D01*
X1660986Y-18912D01*
X1660809Y-18791D01*
X1660651Y-18650D01*
X1660512Y-18491D01*
X1660391Y-18314D01*
X1660289Y-18118D01*
X1660206Y-17902D01*
X1660141Y-17669D01*
X1660094Y-17416D01*
X1660066Y-17145D01*
X1660057Y-16855D01*
X1660057Y-12514D01*
X1660049Y-11774D01*
X1660026Y-11339D01*
X1660923Y-11339D01*
X1660944Y-11463D01*
X1660965Y-11764D01*
X1660986Y-12310D01*
X1660997Y-12310D01*
X1661130Y-12070D01*
X1661289Y-11859D01*
X1661472Y-11677D01*
X1661682Y-11525D01*
X1661913Y-11404D01*
X1662165Y-11318D01*
X1662437Y-11267D01*
X1662729Y-11249D01*
X1662989Y-11261D01*
X1663233Y-11294D01*
X1663459Y-11350D01*
X1663668Y-11428D01*
X1663860Y-11529D01*
X1664034Y-11652D01*
X1664192Y-11798D01*
X1664332Y-11966D01*
X1664456Y-12157D01*
X1664563Y-12373D01*
X1664654Y-12614D01*
X1664728Y-12880D01*
X1664786Y-13170D01*
X1664827Y-13485D01*
X1664852Y-13825D01*
X1664860Y-14189D01*
X1664852Y-14548D01*
X1664829Y-14882D01*
X1664791Y-15191D01*
X1664737Y-15476D01*
X1664668Y-15736D01*
X1664584Y-15971D01*
X1664484Y-16182D01*
X1664369Y-16367D01*
X1664238Y-16530D01*
X1664089Y-16670D01*
X1663923Y-16789D01*
X1663740Y-16887D01*
X1663539Y-16963D01*
X1663321Y-17017D01*
X1663086Y-17049D01*
X1662834Y-17060D01*
X1662531Y-17043D01*
X1662248Y-16991D01*
X1661985Y-16905D01*
X1661742Y-16784D01*
X1661734Y-16779D01*
X1661521Y-16630D01*
X1661325Y-16441D01*
X1661153Y-16219D01*
X1661007Y-15963D01*
X1660997Y-15963D01*
X1660997Y-16876D01*
X1661019Y-17264D01*
X1661085Y-17600D01*
X1661195Y-17884D01*
X1661267Y-18007D01*
X1661350Y-18116D01*
X1661443Y-18213D01*
X1661548Y-18297D01*
X1661664Y-18368D01*
X1661791Y-18426D01*
X1661929Y-18472D01*
X1662078Y-18504D01*
X1662229Y-18522D01*
X1662238Y-18523D01*
X1662409Y-18530D01*
X1662658Y-18516D01*
X1662883Y-18477D01*
X1663082Y-18410D01*
X1663256Y-18317D01*
X1663403Y-18200D01*
X1663522Y-18059D01*
X1663612Y-17896D01*
X1663674Y-17711D01*
X1664624Y-17847D01*
X1664520Y-18164D01*
X1664368Y-18442D01*
X1664166Y-18682D01*
X1663915Y-18884D01*
X1663616Y-19044D01*
X1663269Y-19158D01*
X1662876Y-19226D01*
X1662435Y-19249D01*
G37*
%LPC*%
G36*
X1662514Y-16362D02*
X1662694Y-16354D01*
X1662861Y-16330D01*
X1663015Y-16290D01*
X1663154Y-16235D01*
X1663280Y-16163D01*
X1663391Y-16076D01*
X1663490Y-15972D01*
X1663574Y-15853D01*
X1663646Y-15715D01*
X1663709Y-15557D01*
X1663763Y-15379D01*
X1663806Y-15180D01*
X1663864Y-14720D01*
X1663884Y-14178D01*
X1663863Y-13631D01*
X1663801Y-13165D01*
X1663754Y-12963D01*
X1663698Y-12781D01*
X1663630Y-12619D01*
X1663553Y-12478D01*
X1663464Y-12355D01*
X1663363Y-12248D01*
X1663249Y-12158D01*
X1663124Y-12084D01*
X1662986Y-12027D01*
X1662835Y-11986D01*
X1662673Y-11961D01*
X1662498Y-11953D01*
X1662286Y-11969D01*
X1662085Y-12019D01*
X1661896Y-12102D01*
X1661718Y-12218D01*
X1661556Y-12365D01*
X1661413Y-12542D01*
X1661290Y-12748D01*
X1661186Y-12984D01*
X1661103Y-13247D01*
X1661044Y-13533D01*
X1661008Y-13844D01*
X1660997Y-14178D01*
X1661008Y-14505D01*
X1661044Y-14809D01*
X1661103Y-15089D01*
X1661186Y-15346D01*
X1661290Y-15577D01*
X1661414Y-15780D01*
X1661470Y-15848D01*
X1661558Y-15954D01*
X1661721Y-16099D01*
X1661900Y-16214D01*
X1662092Y-16296D01*
X1662297Y-16346D01*
X1662514Y-16362D01*
G37*
%LPD*%
G36*
X1657169Y-17123D02*
X1656839Y-17106D01*
X1656534Y-17055D01*
X1656255Y-16971D01*
X1656002Y-16853D01*
X1655769Y-16694D01*
X1655551Y-16487D01*
X1655348Y-16233D01*
X1655159Y-15931D01*
X1655128Y-15931D01*
X1655099Y-16206D01*
X1655044Y-16441D01*
X1654964Y-16638D01*
X1654857Y-16795D01*
X1654720Y-16916D01*
X1654547Y-17002D01*
X1654338Y-17053D01*
X1654094Y-17070D01*
X1653725Y-17049D01*
X1653364Y-16987D01*
X1653364Y-16399D01*
X1653528Y-16426D01*
X1653674Y-16435D01*
X1653816Y-16422D01*
X1653933Y-16382D01*
X1654026Y-16316D01*
X1654094Y-16223D01*
X1654142Y-16104D01*
X1654176Y-15958D01*
X1654197Y-15787D01*
X1654204Y-15590D01*
X1654204Y-13144D01*
X1654212Y-12919D01*
X1654238Y-12707D01*
X1654280Y-12509D01*
X1654339Y-12325D01*
X1654415Y-12154D01*
X1654508Y-11997D01*
X1654618Y-11854D01*
X1654744Y-11724D01*
X1654888Y-11609D01*
X1655048Y-11510D01*
X1655224Y-11425D01*
X1655418Y-11356D01*
X1655627Y-11303D01*
X1655854Y-11264D01*
X1656096Y-11241D01*
X1656356Y-11234D01*
X1656603Y-11240D01*
X1656837Y-11258D01*
X1657056Y-11287D01*
X1657262Y-11329D01*
X1657453Y-11383D01*
X1657631Y-11449D01*
X1657794Y-11527D01*
X1657944Y-11617D01*
X1658079Y-11719D01*
X1658200Y-11832D01*
X1658308Y-11958D01*
X1658401Y-12096D01*
X1658480Y-12245D01*
X1658545Y-12407D01*
X1658597Y-12581D01*
X1658634Y-12766D01*
X1657647Y-12856D01*
X1657604Y-12635D01*
X1657532Y-12447D01*
X1657431Y-12292D01*
X1657301Y-12168D01*
X1657135Y-12074D01*
X1656925Y-12007D01*
X1656673Y-11966D01*
X1656377Y-11953D01*
X1656083Y-11971D01*
X1655831Y-12028D01*
X1655621Y-12121D01*
X1655453Y-12252D01*
X1655324Y-12426D01*
X1655233Y-12650D01*
X1655177Y-12922D01*
X1655159Y-13244D01*
X1655159Y-13554D01*
X1656435Y-13575D01*
X1656746Y-13589D01*
X1657036Y-13618D01*
X1657303Y-13660D01*
X1657548Y-13716D01*
X1657771Y-13786D01*
X1657971Y-13870D01*
X1658150Y-13967D01*
X1658306Y-14079D01*
X1658442Y-14203D01*
X1658560Y-14340D01*
X1658659Y-14490D01*
X1658741Y-14653D01*
X1658804Y-14829D01*
X1658850Y-15017D01*
X1658877Y-15219D01*
X1658886Y-15433D01*
X1658879Y-15624D01*
X1658859Y-15806D01*
X1658825Y-15976D01*
X1658778Y-16136D01*
X1658718Y-16286D01*
X1658644Y-16425D01*
X1658556Y-16553D01*
X1658455Y-16672D01*
X1658341Y-16777D01*
X1658214Y-16869D01*
X1658073Y-16947D01*
X1657919Y-17010D01*
X1657751Y-17060D01*
X1657571Y-17095D01*
X1657377Y-17116D01*
X1657169Y-17123D01*
G37*
%LPC*%
G36*
X1656954Y-16414D02*
X1657172Y-16399D01*
X1657363Y-16351D01*
X1657528Y-16273D01*
X1657665Y-16162D01*
X1657775Y-16023D01*
X1657852Y-15858D01*
X1657899Y-15666D01*
X1657915Y-15449D01*
X1657903Y-15246D01*
X1657869Y-15064D01*
X1657811Y-14902D01*
X1657731Y-14761D01*
X1657629Y-14638D01*
X1657507Y-14533D01*
X1657365Y-14444D01*
X1657204Y-14373D01*
X1657011Y-14317D01*
X1656779Y-14275D01*
X1656506Y-14249D01*
X1656193Y-14236D01*
X1655159Y-14215D01*
X1655159Y-14682D01*
X1655174Y-14899D01*
X1655217Y-15112D01*
X1655290Y-15322D01*
X1655393Y-15530D01*
X1655520Y-15725D01*
X1655669Y-15898D01*
X1655839Y-16049D01*
X1656030Y-16178D01*
X1656240Y-16282D01*
X1656463Y-16355D01*
X1656702Y-16400D01*
X1656954Y-16414D01*
G37*
%LPD*%
G36*
X1671586Y-17018D02*
X1665759Y-17018D01*
X1665759Y-16199D01*
X1670583Y-16199D01*
X1670583Y-13622D01*
X1666289Y-13622D01*
X1666289Y-12814D01*
X1670583Y-12814D01*
X1670583Y-10441D01*
X1665974Y-10441D01*
X1665974Y-9622D01*
X1671586Y-9622D01*
X1671586Y-17018D01*
G37*
G36*
X1696378Y-17123D02*
X1696109Y-17115D01*
X1695849Y-17092D01*
X1695596Y-17053D01*
X1695353Y-16998D01*
X1695117Y-16928D01*
X1694889Y-16843D01*
X1694670Y-16741D01*
X1694460Y-16624D01*
X1694259Y-16493D01*
X1694069Y-16346D01*
X1693892Y-16186D01*
X1693725Y-16012D01*
X1693571Y-15823D01*
X1693428Y-15619D01*
X1693296Y-15402D01*
X1693176Y-15170D01*
X1693995Y-14761D01*
X1694203Y-15121D01*
X1694434Y-15434D01*
X1694690Y-15698D01*
X1694970Y-15914D01*
X1695274Y-16083D01*
X1695602Y-16203D01*
X1695954Y-16275D01*
X1696331Y-16299D01*
X1696626Y-16286D01*
X1696906Y-16247D01*
X1697170Y-16183D01*
X1697418Y-16092D01*
X1697651Y-15976D01*
X1697868Y-15834D01*
X1698069Y-15666D01*
X1698255Y-15472D01*
X1698421Y-15257D01*
X1698566Y-15026D01*
X1698688Y-14777D01*
X1698788Y-14512D01*
X1698866Y-14231D01*
X1698921Y-13932D01*
X1698955Y-13618D01*
X1698966Y-13286D01*
X1698955Y-12951D01*
X1698923Y-12635D01*
X1698870Y-12337D01*
X1698795Y-12057D01*
X1698699Y-11796D01*
X1698582Y-11552D01*
X1698443Y-11327D01*
X1698283Y-11121D01*
X1698104Y-10936D01*
X1697908Y-10775D01*
X1697695Y-10639D01*
X1697465Y-10528D01*
X1697217Y-10442D01*
X1696953Y-10380D01*
X1696671Y-10343D01*
X1696373Y-10331D01*
X1695995Y-10352D01*
X1695644Y-10416D01*
X1695319Y-10523D01*
X1695021Y-10672D01*
X1694756Y-10862D01*
X1694530Y-11089D01*
X1694343Y-11355D01*
X1694194Y-11659D01*
X1693244Y-11344D01*
X1693344Y-11124D01*
X1693457Y-10918D01*
X1693583Y-10726D01*
X1693722Y-10547D01*
X1693874Y-10383D01*
X1694040Y-10233D01*
X1694218Y-10096D01*
X1694410Y-9974D01*
X1694614Y-9866D01*
X1694830Y-9772D01*
X1695059Y-9692D01*
X1695299Y-9627D01*
X1695552Y-9577D01*
X1695817Y-9541D01*
X1696094Y-9519D01*
X1696383Y-9512D01*
X1696794Y-9528D01*
X1697182Y-9575D01*
X1697548Y-9653D01*
X1697890Y-9763D01*
X1698209Y-9904D01*
X1698505Y-10076D01*
X1698778Y-10280D01*
X1699029Y-10514D01*
X1699253Y-10777D01*
X1699447Y-11064D01*
X1699611Y-11374D01*
X1699745Y-11709D01*
X1699850Y-12067D01*
X1699924Y-12449D01*
X1699969Y-12856D01*
X1699984Y-13286D01*
X1699977Y-13576D01*
X1699957Y-13857D01*
X1699924Y-14127D01*
X1699877Y-14388D01*
X1699817Y-14638D01*
X1699743Y-14879D01*
X1699657Y-15110D01*
X1699556Y-15330D01*
X1699443Y-15540D01*
X1699318Y-15737D01*
X1699181Y-15922D01*
X1699031Y-16094D01*
X1698870Y-16254D01*
X1698696Y-16401D01*
X1698510Y-16536D01*
X1698312Y-16658D01*
X1698104Y-16767D01*
X1697885Y-16862D01*
X1697658Y-16942D01*
X1697421Y-17007D01*
X1697174Y-17058D01*
X1696918Y-17094D01*
X1696653Y-17116D01*
X1696378Y-17123D01*
G37*
G36*
X1688450Y-17018D02*
X1687500Y-17018D01*
X1687500Y-13233D01*
X1687506Y-12973D01*
X1687527Y-12732D01*
X1687561Y-12510D01*
X1687609Y-12308D01*
X1687671Y-12125D01*
X1687746Y-11961D01*
X1687835Y-11817D01*
X1687938Y-11693D01*
X1688055Y-11585D01*
X1688187Y-11492D01*
X1688335Y-11413D01*
X1688497Y-11348D01*
X1688675Y-11298D01*
X1688868Y-11262D01*
X1689077Y-11241D01*
X1689300Y-11234D01*
X1689614Y-11250D01*
X1689899Y-11299D01*
X1690156Y-11380D01*
X1690384Y-11493D01*
X1690590Y-11642D01*
X1690781Y-11827D01*
X1690956Y-12050D01*
X1691116Y-12310D01*
X1691132Y-12310D01*
X1691108Y-11916D01*
X1691090Y-11255D01*
X1691090Y-9228D01*
X1692035Y-9228D01*
X1692035Y-17018D01*
X1691090Y-17018D01*
X1691090Y-13669D01*
X1691084Y-13479D01*
X1691065Y-13298D01*
X1691033Y-13128D01*
X1690989Y-12967D01*
X1690933Y-12817D01*
X1690864Y-12676D01*
X1690688Y-12425D01*
X1690471Y-12223D01*
X1690350Y-12144D01*
X1690220Y-12079D01*
X1690083Y-12028D01*
X1689937Y-11992D01*
X1689783Y-11970D01*
X1689620Y-11963D01*
X1689409Y-11972D01*
X1689223Y-11997D01*
X1689060Y-12040D01*
X1688922Y-12100D01*
X1688805Y-12178D01*
X1688705Y-12275D01*
X1688624Y-12392D01*
X1688560Y-12527D01*
X1688512Y-12692D01*
X1688477Y-12896D01*
X1688456Y-13137D01*
X1688450Y-13417D01*
X1688450Y-17018D01*
G37*
G36*
X1649043Y-17018D02*
X1648093Y-17018D01*
X1648093Y-13233D01*
X1648100Y-12975D01*
X1648120Y-12736D01*
X1648154Y-12516D01*
X1648202Y-12314D01*
X1648262Y-12132D01*
X1648337Y-11968D01*
X1648425Y-11824D01*
X1648526Y-11698D01*
X1648642Y-11589D01*
X1648774Y-11495D01*
X1648922Y-11415D01*
X1649085Y-11350D01*
X1649263Y-11299D01*
X1649458Y-11263D01*
X1649668Y-11241D01*
X1649894Y-11234D01*
X1650198Y-11249D01*
X1650477Y-11295D01*
X1650730Y-11371D01*
X1650957Y-11478D01*
X1651164Y-11621D01*
X1651359Y-11808D01*
X1651541Y-12037D01*
X1651710Y-12310D01*
X1651726Y-12310D01*
X1651744Y-11745D01*
X1651757Y-11480D01*
X1651768Y-11339D01*
X1652660Y-11339D01*
X1652636Y-11752D01*
X1652628Y-12551D01*
X1652628Y-17018D01*
X1651684Y-17018D01*
X1651684Y-13727D01*
X1651677Y-13525D01*
X1651659Y-13335D01*
X1651628Y-13156D01*
X1651585Y-12988D01*
X1651530Y-12832D01*
X1651462Y-12687D01*
X1651382Y-12553D01*
X1651290Y-12430D01*
X1651187Y-12321D01*
X1651075Y-12226D01*
X1650954Y-12146D01*
X1650824Y-12080D01*
X1650685Y-12029D01*
X1650537Y-11992D01*
X1650380Y-11971D01*
X1650214Y-11963D01*
X1649994Y-11972D01*
X1649803Y-11997D01*
X1649640Y-12040D01*
X1649505Y-12100D01*
X1649393Y-12179D01*
X1649297Y-12279D01*
X1649217Y-12402D01*
X1649154Y-12546D01*
X1649105Y-12716D01*
X1649071Y-12919D01*
X1649050Y-13152D01*
X1649043Y-13417D01*
X1649043Y-17018D01*
G37*
G36*
X1678160Y-17123D02*
X1677895Y-17116D01*
X1677645Y-17096D01*
X1677410Y-17062D01*
X1677190Y-17014D01*
X1676985Y-16953D01*
X1676796Y-16878D01*
X1676621Y-16789D01*
X1676462Y-16687D01*
X1676320Y-16573D01*
X1676197Y-16447D01*
X1676093Y-16309D01*
X1676008Y-16160D01*
X1675941Y-15999D01*
X1675894Y-15827D01*
X1675865Y-15644D01*
X1675856Y-15449D01*
X1675863Y-15290D01*
X1675882Y-15141D01*
X1675915Y-15000D01*
X1675961Y-14869D01*
X1676088Y-14629D01*
X1676258Y-14420D01*
X1676484Y-14234D01*
X1676780Y-14065D01*
X1676971Y-13984D01*
X1677215Y-13898D01*
X1677861Y-13716D01*
X1678517Y-13543D01*
X1678900Y-13412D01*
X1679117Y-13290D01*
X1679273Y-13144D01*
X1679328Y-13060D01*
X1679368Y-12966D01*
X1679391Y-12861D01*
X1679399Y-12745D01*
X1679380Y-12561D01*
X1679323Y-12402D01*
X1679228Y-12267D01*
X1679095Y-12157D01*
X1678921Y-12072D01*
X1678706Y-12012D01*
X1678449Y-11975D01*
X1678150Y-11963D01*
X1677876Y-11976D01*
X1677631Y-12014D01*
X1677415Y-12077D01*
X1677229Y-12165D01*
X1677073Y-12277D01*
X1676951Y-12411D01*
X1676862Y-12567D01*
X1676806Y-12745D01*
X1675956Y-12640D01*
X1675999Y-12464D01*
X1676055Y-12300D01*
X1676123Y-12149D01*
X1676204Y-12010D01*
X1676298Y-11884D01*
X1676405Y-11770D01*
X1676524Y-11669D01*
X1676656Y-11580D01*
X1676957Y-11435D01*
X1677307Y-11332D01*
X1677704Y-11270D01*
X1678150Y-11249D01*
X1678407Y-11256D01*
X1678648Y-11275D01*
X1678874Y-11307D01*
X1679083Y-11351D01*
X1679277Y-11408D01*
X1679455Y-11478D01*
X1679617Y-11561D01*
X1679764Y-11656D01*
X1679894Y-11764D01*
X1680006Y-11883D01*
X1680101Y-12013D01*
X1680179Y-12155D01*
X1680240Y-12309D01*
X1680283Y-12475D01*
X1680309Y-12651D01*
X1680318Y-12840D01*
X1680305Y-13042D01*
X1680269Y-13227D01*
X1680208Y-13396D01*
X1680123Y-13548D01*
X1680017Y-13687D01*
X1679892Y-13815D01*
X1679748Y-13933D01*
X1679585Y-14039D01*
X1679384Y-14141D01*
X1679124Y-14243D01*
X1678805Y-14347D01*
X1678428Y-14451D01*
X1677751Y-14630D01*
X1677511Y-14703D01*
X1677307Y-14785D01*
X1677139Y-14876D01*
X1677005Y-14976D01*
X1676904Y-15089D01*
X1676832Y-15218D01*
X1676789Y-15362D01*
X1676775Y-15522D01*
X1676795Y-15729D01*
X1676858Y-15908D01*
X1676962Y-16059D01*
X1677108Y-16183D01*
X1677299Y-16280D01*
X1677538Y-16349D01*
X1677825Y-16390D01*
X1678160Y-16404D01*
X1678478Y-16391D01*
X1678759Y-16351D01*
X1679003Y-16284D01*
X1679210Y-16191D01*
X1679383Y-16070D01*
X1679524Y-15918D01*
X1679632Y-15735D01*
X1679709Y-15522D01*
X1680543Y-15685D01*
X1680494Y-15864D01*
X1680432Y-16030D01*
X1680357Y-16185D01*
X1680270Y-16327D01*
X1680170Y-16457D01*
X1680058Y-16575D01*
X1679933Y-16681D01*
X1679795Y-16774D01*
X1679644Y-16856D01*
X1679478Y-16927D01*
X1679296Y-16987D01*
X1679099Y-17036D01*
X1678660Y-17101D01*
X1678160Y-17123D01*
G37*
G36*
X1686066Y-17018D02*
X1685121Y-17018D01*
X1685121Y-14058D01*
X1685102Y-13613D01*
X1685044Y-13222D01*
X1684947Y-12887D01*
X1684811Y-12606D01*
X1684730Y-12488D01*
X1684639Y-12385D01*
X1684540Y-12298D01*
X1684432Y-12226D01*
X1684316Y-12171D01*
X1684190Y-12131D01*
X1684056Y-12108D01*
X1683914Y-12100D01*
X1683630Y-12113D01*
X1683410Y-12152D01*
X1683410Y-11286D01*
X1683603Y-11247D01*
X1683793Y-11234D01*
X1684046Y-11250D01*
X1684268Y-11301D01*
X1684460Y-11384D01*
X1684622Y-11501D01*
X1684765Y-11664D01*
X1684899Y-11884D01*
X1685025Y-12163D01*
X1685142Y-12499D01*
X1685163Y-12499D01*
X1685205Y-11339D01*
X1686097Y-11339D01*
X1686074Y-12031D01*
X1686066Y-12661D01*
X1686066Y-17018D01*
G37*
G36*
X1682498Y-17018D02*
X1681554Y-17018D01*
X1681554Y-11339D01*
X1682498Y-11339D01*
X1682498Y-17018D01*
G37*
G36*
X1682498Y-10131D02*
X1681554Y-10131D01*
X1681554Y-9228D01*
X1682498Y-9228D01*
X1682498Y-10131D01*
G37*
G36*
X1699619Y3302D02*
X1697567Y3320D01*
X1695682Y3302D01*
X1695682Y3687D01*
X1695673Y4861D01*
X1695582Y8014D01*
X1694271Y8047D01*
X1693064Y8058D01*
X1692201Y8047D01*
X1690974Y8014D01*
X1690950Y9131D01*
X1690878Y10607D01*
X1692752Y10580D01*
X1694171Y10580D01*
X1695441Y10607D01*
X1695362Y12647D01*
X1693620Y12665D01*
X1691894Y12665D01*
X1691281Y12656D01*
X1690668Y12647D01*
X1689906Y12621D01*
X1689871Y13591D01*
X1689766Y15257D01*
X1694163Y15240D01*
X1699068Y15257D01*
X1699068Y14294D01*
X1699092Y12874D01*
X1699164Y10541D01*
X1699262Y8050D01*
X1699365Y6157D01*
X1699464Y4905D01*
X1699619Y3302D01*
G37*
G36*
X1694557Y-5588D02*
X1692936Y-5562D01*
X1689398Y-5588D01*
X1688814Y-5581D01*
X1688261Y-5562D01*
X1687741Y-5529D01*
X1687252Y-5483D01*
X1686850Y-5431D01*
X1686492Y-5371D01*
X1686180Y-5304D01*
X1685912Y-5229D01*
X1685424Y-5041D01*
X1684940Y-4791D01*
X1684625Y-4593D01*
X1684328Y-4376D01*
X1684049Y-4140D01*
X1683788Y-3884D01*
X1683544Y-3607D01*
X1683316Y-3303D01*
X1683104Y-2974D01*
X1682908Y-2619D01*
X1682730Y-2240D01*
X1682573Y-1838D01*
X1682436Y-1414D01*
X1682321Y-968D01*
X1682229Y-506D01*
X1682163Y-34D01*
X1682124Y447D01*
X1682111Y937D01*
X1682128Y1437D01*
X1682179Y1930D01*
X1682263Y2416D01*
X1682382Y2895D01*
X1682533Y3355D01*
X1682715Y3785D01*
X1682927Y4185D01*
X1683170Y4554D01*
X1683444Y4892D01*
X1683749Y5196D01*
X1684086Y5466D01*
X1684453Y5702D01*
X1684843Y5902D01*
X1685249Y6065D01*
X1685669Y6191D01*
X1686104Y6280D01*
X1686564Y6341D01*
X1687060Y6385D01*
X1687593Y6411D01*
X1688161Y6420D01*
X1689221Y6410D01*
X1690350Y6381D01*
X1691403Y6351D01*
X1692233Y6341D01*
X1694001Y6367D01*
X1694001Y5343D01*
X1694021Y4097D01*
X1694081Y2233D01*
X1694187Y-342D01*
X1694292Y-2391D01*
X1694394Y-3790D01*
X1694557Y-5588D01*
G37*
%LPC*%
G36*
X1689763Y-2996D02*
X1690278Y-2985D01*
X1690770Y-2952D01*
X1690475Y3801D01*
X1689674Y3841D01*
X1688986Y3854D01*
X1688476Y3836D01*
X1688022Y3784D01*
X1687624Y3696D01*
X1687283Y3573D01*
X1686985Y3406D01*
X1686719Y3185D01*
X1686484Y2909D01*
X1686280Y2579D01*
X1686115Y2202D01*
X1685997Y1783D01*
X1685927Y1324D01*
X1685903Y823D01*
X1685919Y401D01*
X1685967Y-17D01*
X1686046Y-429D01*
X1686157Y-837D01*
X1686301Y-1223D01*
X1686480Y-1573D01*
X1686693Y-1887D01*
X1686940Y-2163D01*
X1687216Y-2399D01*
X1687513Y-2590D01*
X1687831Y-2737D01*
X1688170Y-2838D01*
X1688532Y-2907D01*
X1688919Y-2956D01*
X1689329Y-2986D01*
X1689763Y-2996D01*
G37*
%LPD*%
G36*
X710240Y10450D02*
X710240Y16521D01*
X716269Y22550D01*
X722340Y22550D01*
X722340Y10450D01*
X710240Y10450D01*
G37*
G36*
X710240Y10450D02*
X710240Y16521D01*
X716269Y22550D01*
X722340Y22550D01*
X722340Y10450D01*
X710240Y10450D01*
G37*
D10*
X1269898Y12000D03*
X1279398Y12000D03*
X1288898Y12000D03*
X1288898Y-12000D03*
X1279398Y-12000D03*
X1269898Y-12000D03*
D11*
X1255442Y-11430D03*
X1245442Y-11430D03*
D12*
X993300Y-5690D03*
X993300Y13310D03*
X1013300Y3810D03*
X970120Y13310D03*
X970120Y-5690D03*
X950120Y3810D03*
X981710Y18970D03*
X981710Y8970D03*
X981710Y-1350D03*
X981710Y-11350D03*
D13*
X662790Y70000D03*
X802790Y70000D03*
X662790Y-70000D03*
X802790Y-70000D03*
D14*
X673290Y70000D03*
X681790Y70000D03*
X690290Y70000D03*
X698790Y70000D03*
X707290Y70000D03*
X715790Y70000D03*
X724290Y70000D03*
X732790Y70000D03*
X741290Y70000D03*
X749790Y70000D03*
X758290Y70000D03*
X766790Y70000D03*
X775290Y70000D03*
X783790Y70000D03*
X792290Y70000D03*
D15*
X802790Y59500D03*
X802790Y51000D03*
X802790Y42500D03*
X802790Y34000D03*
X802790Y25500D03*
X802790Y17000D03*
X802790Y8500D03*
X802790Y0D03*
X802790Y-8500D03*
X802790Y-17000D03*
X802790Y-25500D03*
X802790Y-34000D03*
X802790Y-42500D03*
X802790Y-51000D03*
X802790Y-59500D03*
D14*
X792290Y-70000D03*
X783790Y-70000D03*
X775290Y-70000D03*
X766790Y-70000D03*
X758290Y-70000D03*
X749790Y-70000D03*
X741290Y-70000D03*
X732790Y-70000D03*
X724290Y-70000D03*
X715790Y-70000D03*
X707290Y-70000D03*
X698790Y-70000D03*
X690290Y-70000D03*
X681790Y-70000D03*
X673290Y-70000D03*
D15*
X662790Y-59500D03*
X662790Y-51000D03*
X662790Y-42500D03*
X662790Y-34000D03*
X662790Y-25500D03*
X662790Y-17000D03*
X662790Y-8500D03*
X662790Y0D03*
X662790Y8500D03*
X662790Y17000D03*
X662790Y25500D03*
X662790Y34000D03*
X662790Y42500D03*
X662790Y51000D03*
X662790Y59500D03*
D16*
X716290Y16500D03*
D17*
X732790Y0D03*
X716290Y0D03*
X716290Y-16500D03*
X732790Y-16500D03*
X749290Y-16500D03*
X749290Y0D03*
X749290Y16500D03*
X732790Y16500D03*
D12*
G36*
X844709Y58667D02*
X839760Y63616D01*
X844003Y67859D01*
X848952Y62910D01*
X844709Y58667D01*
G37*
G36*
X851781Y65738D02*
X846832Y70687D01*
X851075Y74930D01*
X856024Y69981D01*
X851781Y65738D01*
G37*
G36*
X851695Y51726D02*
X846746Y56675D01*
X850989Y60918D01*
X855938Y55969D01*
X851695Y51726D01*
G37*
G36*
X858766Y58797D02*
X853817Y63746D01*
X858060Y67989D01*
X863009Y63040D01*
X858766Y58797D01*
G37*
G36*
X859315Y44106D02*
X854366Y49055D01*
X858609Y53298D01*
X863558Y48349D01*
X859315Y44106D01*
G37*
G36*
X866386Y51177D02*
X861437Y56126D01*
X865680Y60369D01*
X870629Y55420D01*
X866386Y51177D01*
G37*
G36*
X866935Y36486D02*
X861986Y41435D01*
X866229Y45678D01*
X871178Y40729D01*
X866935Y36486D01*
G37*
G36*
X874006Y43557D02*
X869057Y48506D01*
X873300Y52749D01*
X878249Y47800D01*
X874006Y43557D01*
G37*
G36*
X883445Y19976D02*
X878496Y24925D01*
X882739Y29168D01*
X887688Y24219D01*
X883445Y19976D01*
G37*
G36*
X890516Y27047D02*
X885567Y31996D01*
X889810Y36239D01*
X894759Y31290D01*
X890516Y27047D01*
G37*
G36*
X890430Y12991D02*
X885481Y17940D01*
X889724Y22183D01*
X894673Y17234D01*
X890430Y12991D01*
G37*
G36*
X897501Y20062D02*
X892552Y25011D01*
X896795Y29254D01*
X901744Y24305D01*
X897501Y20062D01*
G37*
D11*
X933530Y-6350D03*
X943530Y-6350D03*
X933530Y-16510D03*
X943530Y-16510D03*
X835580Y8890D03*
X825580Y8890D03*
X835580Y20320D03*
X825580Y20320D03*
X834310Y-17414D03*
X824310Y-17414D03*
X834310Y-5080D03*
X824310Y-5080D03*
D18*
X1065567Y18673D02*
X1072493Y18673D01*
X1072493Y16647D01*
X1065567Y16647D01*
X1065567Y18673D01*
X1065567Y17288D02*
X1072493Y17288D01*
X1072493Y17929D02*
X1065567Y17929D01*
X1065567Y18570D02*
X1072493Y18570D01*
X1072493Y13673D02*
X1065567Y13673D01*
X1072493Y13673D02*
X1072493Y11647D01*
X1065567Y11647D01*
X1065567Y13673D01*
X1065567Y12288D02*
X1072493Y12288D01*
X1072493Y12929D02*
X1065567Y12929D01*
X1065567Y13570D02*
X1072493Y13570D01*
X1072493Y8673D02*
X1065567Y8673D01*
X1072493Y8673D02*
X1072493Y6647D01*
X1065567Y6647D01*
X1065567Y8673D01*
X1065567Y7288D02*
X1072493Y7288D01*
X1072493Y7929D02*
X1065567Y7929D01*
X1065567Y8570D02*
X1072493Y8570D01*
X1072493Y3673D02*
X1065567Y3673D01*
X1072493Y3673D02*
X1072493Y1647D01*
X1065567Y1647D01*
X1065567Y3673D01*
X1065567Y2288D02*
X1072493Y2288D01*
X1072493Y2929D02*
X1065567Y2929D01*
X1065567Y3570D02*
X1072493Y3570D01*
X1052793Y3673D02*
X1045867Y3673D01*
X1052793Y3673D02*
X1052793Y1647D01*
X1045867Y1647D01*
X1045867Y3673D01*
X1045867Y2288D02*
X1052793Y2288D01*
X1052793Y2929D02*
X1045867Y2929D01*
X1045867Y3570D02*
X1052793Y3570D01*
X1052793Y8673D02*
X1045867Y8673D01*
X1052793Y8673D02*
X1052793Y6647D01*
X1045867Y6647D01*
X1045867Y8673D01*
X1045867Y7288D02*
X1052793Y7288D01*
X1052793Y7929D02*
X1045867Y7929D01*
X1045867Y8570D02*
X1052793Y8570D01*
X1052793Y13673D02*
X1045867Y13673D01*
X1052793Y13673D02*
X1052793Y11647D01*
X1045867Y11647D01*
X1045867Y13673D01*
X1045867Y12288D02*
X1052793Y12288D01*
X1052793Y12929D02*
X1045867Y12929D01*
X1045867Y13570D02*
X1052793Y13570D01*
X1052793Y18673D02*
X1045867Y18673D01*
X1052793Y18673D02*
X1052793Y16647D01*
X1045867Y16647D01*
X1045867Y18673D01*
X1045867Y17288D02*
X1052793Y17288D01*
X1052793Y17929D02*
X1045867Y17929D01*
X1045867Y18570D02*
X1052793Y18570D01*
D19*
X1059180Y10160D03*
D11*
X1023700Y5080D03*
X1033700Y5080D03*
X1083390Y10160D03*
X1093390Y10160D03*
X1054180Y-8890D03*
X1064180Y-8890D03*
D20*
X914898Y9032D02*
X912422Y9032D01*
X912422Y10908D01*
X914898Y10908D01*
X914898Y9032D01*
X914898Y9626D02*
X912422Y9626D01*
X912422Y10220D02*
X914898Y10220D01*
X914898Y10814D02*
X912422Y10814D01*
X912422Y13032D02*
X914898Y13032D01*
X912422Y13032D02*
X912422Y14908D01*
X914898Y14908D01*
X914898Y13032D01*
X914898Y13626D02*
X912422Y13626D01*
X912422Y14220D02*
X914898Y14220D01*
X914898Y14814D02*
X912422Y14814D01*
X912422Y17032D02*
X914898Y17032D01*
X912422Y17032D02*
X912422Y18908D01*
X914898Y18908D01*
X914898Y17032D01*
X914898Y17626D02*
X912422Y17626D01*
X912422Y18220D02*
X914898Y18220D01*
X914898Y18814D02*
X912422Y18814D01*
X921522Y17032D02*
X923998Y17032D01*
X921522Y17032D02*
X921522Y18908D01*
X923998Y18908D01*
X923998Y17032D01*
X923998Y17626D02*
X921522Y17626D01*
X921522Y18220D02*
X923998Y18220D01*
X923998Y18814D02*
X921522Y18814D01*
X921522Y13032D02*
X923998Y13032D01*
X921522Y13032D02*
X921522Y14908D01*
X923998Y14908D01*
X923998Y13032D01*
X923998Y13626D02*
X921522Y13626D01*
X921522Y14220D02*
X923998Y14220D01*
X923998Y14814D02*
X921522Y14814D01*
X921522Y9032D02*
X923998Y9032D01*
X921522Y9032D02*
X921522Y10908D01*
X923998Y10908D01*
X923998Y9032D01*
X923998Y9626D02*
X921522Y9626D01*
X921522Y10220D02*
X923998Y10220D01*
X923998Y10814D02*
X921522Y10814D01*
D21*
X918210Y13970D03*
D12*
X939800Y7700D03*
X939800Y17700D03*
X913130Y1190D03*
X913130Y-8810D03*
D22*
X1953455Y6310D03*
X1953455Y1310D03*
X1953455Y-3690D03*
X1953455Y11310D03*
X1930205Y6310D03*
X1930205Y1310D03*
X1930205Y-3690D03*
X1930205Y11310D03*
D23*
X1941830Y12935D03*
X1946830Y12935D03*
X1936830Y12935D03*
X1941830Y-5315D03*
X1946830Y-5315D03*
X1936830Y-5315D03*
D11*
X1916350Y-3810D03*
X1906350Y-3810D03*
X1916350Y-15240D03*
X1906350Y-15240D03*
X1396390Y7460D03*
X1415390Y7460D03*
X1405890Y-12540D03*
X1416130Y-17780D03*
X1426130Y-17780D03*
X1410890Y17780D03*
X1400890Y17780D03*
X1492910Y8730D03*
X1511910Y8730D03*
X1502410Y-11270D03*
D12*
X1465946Y12620D03*
X1465946Y2620D03*
X1478280Y2620D03*
X1478280Y12620D03*
D11*
X1512650Y-16510D03*
X1522650Y-16510D03*
X1983820Y-15240D03*
X1993820Y-15240D03*
D24*
X2112010Y-6350D03*
X2112010Y6350D03*
D25*
X2070100Y14250D03*
X2070100Y-14250D03*
D26*
X2067600Y3750D03*
X2067600Y-3750D03*
D12*
X2028190Y-1190D03*
X2028190Y8810D03*
D11*
X1871900Y-13970D03*
X1861900Y-13970D03*
X1871900Y0D03*
X1861900Y0D03*
D27*
X858839Y-61550D02*
X853891Y-56602D01*
X862872Y-47622D02*
X867820Y-52570D01*
X876800Y-43590D02*
X871852Y-38642D01*
X880832Y-29661D02*
X885780Y-34609D01*
D28*
X662790Y-59500D02*
X662790Y-70000D01*
X662790Y-59500D02*
X662790Y-51000D01*
X662790Y-42500D01*
X662790Y-34000D01*
X662790Y-25500D01*
X662790Y-17000D01*
X662790Y-8500D01*
X662790Y0D01*
X662790Y8500D01*
X662790Y17000D01*
X662790Y25500D01*
X662790Y34000D01*
X662790Y42500D01*
X662790Y51000D01*
X662790Y59500D01*
X662790Y70000D01*
X673290Y70000D01*
X681790Y70000D01*
X690290Y-70000D02*
X698790Y-70000D01*
D29*
X716290Y-16500D02*
X716290Y0D01*
X716290Y16500D01*
X732790Y16500D01*
X749290Y16500D01*
X749290Y0D01*
X749290Y-16500D01*
X732790Y-16500D01*
X732790Y0D01*
X723900Y0D01*
X716290Y0D01*
X716290Y-16500D02*
X732790Y-16500D01*
X732790Y0D02*
X732790Y16500D01*
X732790Y0D02*
X749290Y0D01*
D28*
X1059180Y10160D02*
X1062436Y13416D01*
X1062436Y14970D01*
X1065126Y17660D01*
X1069030Y17660D01*
X1091050Y17660D01*
X1092200Y16510D01*
X1093390Y15320D01*
X1093390Y10160D01*
X1023700Y5080D02*
X1017350Y11430D01*
X1012190Y11430D01*
X1007110Y11430D01*
X1000760Y5080D01*
X993300Y-2380D01*
X993300Y-5690D01*
X851428Y71648D02*
X850928Y71148D01*
X851428Y71648D02*
X851428Y70334D01*
X851428Y71648D01*
D29*
X1522650Y-16510D02*
X1531620Y-16510D01*
D30*
X1531620Y-16510D03*
D31*
X1229360Y-3354D03*
X1189990Y-10136D03*
X840392Y71398D03*
D28*
X851428Y70334D02*
X858369Y63393D01*
X858413Y63393D01*
X866033Y55773D01*
X851428Y70334D02*
X850363Y71398D01*
X840392Y71398D01*
D31*
X815340Y71120D03*
X723900Y0D03*
X723900Y8890D03*
X723900Y-8890D03*
X819150Y-41910D03*
X1019810Y-10160D03*
X1120140Y-12700D03*
D29*
X918210Y13970D02*
X918210Y19050D01*
X914740Y19050D01*
D28*
X913660Y17970D01*
X903835Y17970D01*
X897148Y24658D01*
D30*
X956310Y12982D03*
D28*
X951592Y17700D02*
X939800Y17700D01*
X951592Y17700D02*
X956310Y12982D01*
D30*
X2057400Y-19078D03*
D28*
X2065272Y-19078D02*
X2070100Y-14250D01*
X2065272Y-19078D02*
X2057400Y-19078D01*
D30*
X2057400Y19078D03*
D32*
X1906350Y-10160D02*
X1906350Y-15240D01*
X1906350Y-10160D02*
X1906350Y-3810D01*
D30*
X1891030Y-19078D03*
D32*
X1897432Y-19078D02*
X1906350Y-10160D01*
X1897432Y-19078D02*
X1891030Y-19078D01*
D28*
X1939290Y-5315D02*
X1941830Y-5315D01*
X1939290Y-5315D02*
X1936830Y-5315D01*
D30*
X1934210Y-15014D03*
D28*
X1939290Y-9934D02*
X1939290Y-5315D01*
X1939290Y-9934D02*
X1934210Y-15014D01*
D30*
X1965960Y3838D03*
D28*
X1958488Y11310D02*
X1953455Y11310D01*
X1958488Y11310D02*
X1965960Y3838D01*
D31*
X740410Y8890D03*
X740410Y-7620D03*
X706120Y-53340D03*
D30*
X829310Y-71120D03*
D32*
X2090420Y6350D02*
X2112010Y6350D01*
D30*
X2090420Y6350D03*
D29*
X1269898Y-12000D02*
X1269328Y-11430D01*
X1255442Y-11430D01*
X1279398Y12000D02*
X1288898Y12000D01*
X1279398Y12000D02*
X1279398Y-12000D01*
D31*
X1311910Y-2008D03*
D29*
X1297902Y12000D01*
X1288898Y12000D01*
D30*
X2101850Y19050D03*
X1489583Y-2105D03*
D32*
X987640Y18970D02*
X981710Y18970D01*
X987640Y18970D02*
X993300Y13310D01*
X981710Y8970D02*
X981710Y-1350D01*
X974460Y8970D02*
X970120Y13310D01*
X974460Y8970D02*
X981710Y8970D01*
D29*
X1288898Y-12000D02*
X1288898Y-13970D01*
X1245442Y-11430D02*
X1244172Y-12700D01*
D31*
X1301750Y-10950D03*
D28*
X1298730Y-13970D01*
X1288898Y-13970D01*
X1426130Y-17780D02*
X1433830Y-17780D01*
D30*
X1435662Y-12928D03*
D28*
X1435662Y-15948D01*
X1433830Y-17780D01*
D29*
X1245442Y-11430D02*
X1237460Y-11430D01*
X1236980Y-10950D01*
D30*
X1236980Y-10950D03*
D28*
X960120Y734D02*
X957044Y3810D01*
X943690Y3810D02*
X939800Y7700D01*
D30*
X896620Y-22860D03*
D29*
X922760Y9970D02*
X926910Y9970D01*
X928370Y11430D01*
X930910Y11430D01*
X936070Y11430D01*
X939800Y7700D01*
X928180Y17970D02*
X922760Y17970D01*
X928180Y17970D02*
X929640Y16510D01*
X930910Y15240D01*
X930910Y11430D01*
D31*
X960120Y-8048D03*
D28*
X960120Y734D01*
X2048450Y3750D02*
X2067600Y3750D01*
X2045462Y762D02*
X2045462Y-918D01*
X2045462Y762D02*
X2048450Y3750D01*
X2045462Y-918D02*
X2044141Y-2239D01*
D30*
X2044141Y-4092D03*
D28*
X2044141Y-2239D01*
D30*
X1973580Y-18006D03*
D33*
X1976346Y-15240D02*
X1983820Y-15240D01*
X1976346Y-15240D02*
X1973580Y-18006D01*
D28*
X2028190Y-1190D02*
X2031092Y-4092D01*
X2044141Y-4092D01*
X957044Y3810D02*
X950120Y3810D01*
X943690Y3810D01*
D34*
X698790Y60289D02*
X698790Y70000D01*
D31*
X688340Y42192D03*
D34*
X688340Y49839D01*
X698790Y60289D01*
X858520Y-27850D02*
X859790Y-29120D01*
X858520Y-27850D02*
X858424Y-27754D01*
X839776Y42564D02*
X839776Y48086D01*
X883092Y24572D02*
X884194Y25674D01*
X883092Y24572D01*
X884194Y25674D02*
X890077Y19792D01*
X890077Y17587D01*
D31*
X870114Y29465D03*
D34*
X878198Y29465D02*
X883092Y24572D01*
X878198Y29465D02*
X870114Y29465D01*
D31*
X839776Y48086D03*
D34*
X859790Y-29120D02*
X862330Y-29120D01*
X858520Y-27850D02*
X855218Y-24548D01*
X855218Y27122D01*
X839776Y42564D01*
X862330Y-29120D02*
X874326Y-41116D01*
D31*
X689610Y60678D03*
D29*
X690290Y61358D02*
X690290Y70000D01*
X690290Y61358D02*
X689610Y60678D01*
D28*
X1396390Y13280D02*
X1396390Y7460D01*
X1396390Y13280D02*
X1400890Y17780D01*
D31*
X736600Y-43180D03*
D29*
X844356Y63263D02*
X844356Y64576D01*
X844356Y63263D01*
D30*
X880720Y39980D03*
D28*
X880720Y41086D02*
X873653Y48153D01*
X880720Y41086D02*
X880720Y39980D01*
X889057Y31643D02*
X890163Y31643D01*
X890163Y31643D01*
X889057Y31643D02*
X880720Y39980D01*
D30*
X922961Y-5409D03*
D32*
X922961Y-2211D01*
X919480Y1270D01*
X913210Y1270D01*
X913130Y1190D01*
D28*
X913660Y9970D02*
X913660Y13970D01*
D29*
X913660Y9970D02*
X913660Y1720D01*
X913210Y1270D01*
D30*
X1365250Y790D03*
D28*
X1371920Y7460D01*
X1396390Y7460D01*
X851342Y56322D02*
X851298Y56322D01*
X844356Y63263D01*
D30*
X829310Y71148D03*
D29*
X842801Y64818D02*
X844356Y63263D01*
X842801Y64818D02*
X837666Y64818D01*
X831336Y71148D02*
X829310Y71148D01*
X831336Y71148D02*
X837666Y64818D01*
D30*
X843915Y19685D03*
D32*
X843280Y20320D02*
X835580Y20320D01*
X843280Y20320D02*
X843915Y19685D01*
D30*
X1891030Y3810D03*
D32*
X1916350Y-3810D02*
X1916350Y-15240D01*
X1910977Y3810D02*
X1891030Y3810D01*
X1910977Y3810D02*
X1916350Y-1563D01*
X1916350Y-3810D01*
D28*
X1916470Y-3690D02*
X1930205Y-3690D01*
X1916470Y-3690D02*
X1916350Y-3810D01*
X1946830Y-5315D02*
X1946830Y-16590D01*
X1941830Y-21590D01*
X1922700Y-21590D02*
X1916350Y-15240D01*
X1922700Y-21590D02*
X1941830Y-21590D01*
X1936830Y12935D02*
X1934271Y15494D01*
X1920240Y15494D01*
D30*
X1845310Y3838D03*
D28*
X1856966Y15494D02*
X1920240Y15494D01*
X1856966Y15494D02*
X1845310Y3838D01*
D31*
X689534Y1346D03*
D34*
X689610Y1270D01*
X689610Y-35252D01*
X715790Y-61186D02*
X715790Y-70000D01*
X715790Y-61186D02*
X714652Y-60048D01*
D31*
X714652Y-57376D03*
D34*
X714652Y-58724D02*
X714652Y-60048D01*
X714652Y-58724D02*
X714652Y-57376D01*
X838200Y-46990D02*
X841739Y-46990D01*
D31*
X833600Y-61722D03*
D34*
X833600Y-51590D02*
X838200Y-46990D01*
X833600Y-51590D02*
X833600Y-61722D01*
X841739Y-46990D02*
X844279Y-46990D01*
X696801Y-42442D02*
X689610Y-35252D01*
X714652Y-53644D02*
X714652Y-58724D01*
X714652Y-53644D02*
X703450Y-42442D01*
X696801Y-42442D01*
X844279Y-46990D02*
X856365Y-59076D01*
D31*
X698500Y-2540D03*
D34*
X724290Y-58970D02*
X724290Y-70000D01*
X724290Y-58970D02*
X723740Y-58420D01*
D31*
X861432Y-22180D03*
D34*
X862022Y-21590D01*
X870221Y-21590D01*
D31*
X723740Y-59916D03*
D34*
X723740Y-58420D01*
X870221Y-21590D02*
X872761Y-21590D01*
X723740Y-58420D02*
X720470Y-55150D01*
X720470Y-54966D01*
X698500Y-32996D02*
X698500Y-2540D01*
X698500Y-32996D02*
X720470Y-54966D01*
X872761Y-21590D02*
X883306Y-32135D01*
D31*
X674370Y8890D03*
D34*
X674370Y-68920D01*
X673290Y-70000D01*
X858962Y48702D02*
X860064Y49804D01*
X858962Y48702D01*
X863874Y45994D02*
X866582Y43287D01*
X863874Y45994D02*
X863556Y46313D01*
X858476Y51393D01*
X860064Y49804D02*
X863556Y46313D01*
X866582Y43287D02*
X866582Y41082D01*
D31*
X851097Y44015D03*
D34*
X858476Y51393D01*
D31*
X822521Y56817D03*
D34*
X827608Y51730D01*
X827608Y50422D02*
X848022Y30007D01*
X827608Y50422D02*
X827608Y51730D01*
X850792Y-5188D02*
X850792Y-35542D01*
X850792Y-5188D02*
X852170Y-3810D01*
X852170Y25859D01*
X848022Y30007D01*
X850792Y-35542D02*
X865346Y-50096D01*
D28*
X1069030Y7660D02*
X1069030Y10160D01*
X1069030Y12660D01*
X1069030Y10160D02*
X1084500Y10160D01*
X1083390Y10160D01*
X1083390Y1766D01*
X1072734Y-8890D01*
X1064180Y-8890D01*
D31*
X758190Y-33020D03*
D32*
X931136Y-3956D02*
X933530Y-6350D01*
X931136Y-3956D02*
X931136Y-1830D01*
D31*
X930274Y4088D03*
D32*
X930274Y-968D02*
X931136Y-1830D01*
X930274Y-968D02*
X930274Y4088D01*
D28*
X1064180Y-8890D02*
X1064260Y-8970D01*
X1064260Y-17780D01*
D30*
X1064260Y-17780D03*
D32*
X844550Y8890D02*
X835580Y8890D01*
D30*
X844550Y8890D03*
X790764Y5904D03*
D28*
X796669Y0D02*
X802790Y0D01*
X796669Y0D02*
X790764Y5904D01*
D30*
X783590Y226D03*
D28*
X792316Y-8500D02*
X802790Y-8500D01*
X792316Y-8500D02*
X783590Y226D01*
X786720Y-42500D02*
X802790Y-42500D01*
D30*
X785796Y-42244D03*
D28*
X786464Y-42244D02*
X786720Y-42500D01*
X786464Y-42244D02*
X785796Y-42244D01*
X802590Y-50800D02*
X802790Y-51000D01*
X802590Y-50800D02*
X792480Y-50800D01*
D30*
X792480Y-50800D03*
X791210Y-59888D03*
D28*
X792290Y-60968D02*
X792290Y-70000D01*
X792290Y-60968D02*
X791210Y-59888D01*
X774700Y-59690D02*
X774700Y-69410D01*
X775290Y-70000D01*
D30*
X774700Y-59690D03*
D28*
X767080Y-69710D02*
X766790Y-70000D01*
X767080Y-69710D02*
X767080Y-53340D01*
D30*
X767080Y-53340D03*
X757964Y-59690D03*
D28*
X757964Y-69674D01*
X758290Y-70000D01*
X749300Y-69510D02*
X749300Y-53340D01*
X749300Y-69510D02*
X749790Y-70000D01*
D30*
X749300Y-53340D03*
X741680Y-59690D03*
D28*
X741186Y-60184D01*
X741186Y-69896D01*
X741290Y-70000D01*
X732790Y-70000D02*
X732790Y-53340D01*
D30*
X732790Y-53340D03*
X791210Y-34806D03*
D28*
X792016Y-34000D02*
X802790Y-34000D01*
X792016Y-34000D02*
X791210Y-34806D01*
X758290Y55980D02*
X758290Y70000D01*
D30*
X758114Y55804D03*
D28*
X758290Y55980D01*
X767080Y69710D02*
X766790Y70000D01*
X767080Y69710D02*
X767080Y59690D01*
D30*
X767080Y59690D03*
D28*
X775290Y55290D02*
X775290Y70000D01*
D30*
X775894Y54534D03*
D28*
X775894Y54686D02*
X775290Y55290D01*
X775894Y54686D02*
X775894Y54534D01*
D30*
X783514Y59766D03*
D28*
X783790Y60043D02*
X783790Y70000D01*
X783790Y60043D02*
X783514Y59766D01*
X792290Y55690D02*
X792290Y70000D01*
X792290Y55690D02*
X791210Y54610D01*
D30*
X791210Y54610D03*
D28*
X817880Y-5080D02*
X824310Y-5080D01*
X817880Y-5080D02*
X811530Y1270D01*
X810260Y2540D01*
X810260Y10160D01*
X810260Y24130D01*
X808990Y25400D01*
X808890Y25500D01*
X802790Y25500D01*
X824310Y-5080D02*
X824310Y-17414D01*
X732790Y59690D02*
X732790Y70000D01*
D30*
X732790Y59690D03*
X723702Y53340D03*
D28*
X724290Y53928D02*
X724290Y70000D01*
X724290Y53928D02*
X723702Y53340D01*
D30*
X714614Y60150D03*
D28*
X715790Y61326D02*
X715790Y70000D01*
X715790Y61326D02*
X714614Y60150D01*
D30*
X706796Y54610D03*
D34*
X707290Y55104D02*
X707290Y70000D01*
X707290Y55104D02*
X706796Y54610D01*
D32*
X943530Y-6350D02*
X943530Y-16510D01*
X975780Y-11350D02*
X981710Y-11350D01*
X975780Y-11350D02*
X970120Y-5690D01*
D29*
X981710Y-11350D02*
X982098Y-11738D01*
X1013300Y3500D02*
X1013300Y3810D01*
X1013300Y3500D02*
X998063Y-11738D01*
X982098Y-11738D01*
D32*
X963266Y-15644D02*
X956974Y-15644D01*
X963266Y-15644D02*
X967716Y-11194D01*
X947680Y-6350D02*
X943530Y-6350D01*
X967716Y-8094D02*
X967716Y-11194D01*
X967716Y-8094D02*
X970120Y-5690D01*
X956974Y-15644D02*
X947680Y-6350D01*
D28*
X873009Y2022D02*
X865724Y2022D01*
X864454Y3292D01*
D31*
X824230Y-26670D03*
D28*
X830580Y-26670D01*
X833120Y-24130D01*
X834310Y-22940D01*
X834310Y-17414D01*
D31*
X864454Y3292D03*
D28*
X899570Y-16510D02*
X933530Y-16510D01*
X899570Y-16510D02*
X899344Y-16284D01*
X891314Y-16284D02*
X873009Y2022D01*
X891314Y-16284D02*
X899344Y-16284D01*
D31*
X816836Y8890D03*
D32*
X825580Y8890D01*
D28*
X825580Y20320D01*
D34*
X1036280Y7660D02*
X1049330Y7660D01*
X1036280Y7660D02*
X1033700Y5080D01*
X741680Y69610D02*
X741290Y70000D01*
D31*
X741680Y54328D03*
D34*
X741680Y69610D01*
X1031428Y16030D02*
X1034798Y12660D01*
X1049330Y12660D01*
D31*
X1030658Y16030D03*
D34*
X1031428Y16030D01*
X1941830Y17780D02*
X1941830Y12935D01*
X1941830Y17780D02*
X1940560Y19050D01*
D30*
X1830015Y-3746D03*
D34*
X1839242Y5481D01*
X1839242Y6352D01*
X1851941Y19050D01*
X1940560Y19050D01*
D31*
X1039246Y19078D03*
D34*
X1040664Y17660D02*
X1049330Y17660D01*
X1040664Y17660D02*
X1039246Y19078D01*
X1946830Y19130D02*
X1946830Y12935D01*
D30*
X1819657Y-2766D03*
D34*
X1943862Y22098D02*
X1946830Y19130D01*
X1821144Y-2766D02*
X1819657Y-2766D01*
X1821144Y-2766D02*
X1846008Y22098D01*
X1943862Y22098D01*
D31*
X749759Y59948D03*
D34*
X749790Y59979D02*
X749790Y70000D01*
X749790Y59979D02*
X749759Y59948D01*
X1049210Y-8890D02*
X1054180Y-8890D01*
X1049210Y-8890D02*
X1047150Y-10950D01*
X803080Y34290D02*
X802790Y34000D01*
D31*
X1029631Y-10950D03*
D34*
X1049330Y-594D02*
X1049330Y2660D01*
X1049330Y-594D02*
X1050219Y-1483D01*
X1047150Y-10950D02*
X1029631Y-10950D01*
X1050219Y-7882D02*
X1050219Y-1483D01*
X1050219Y-7882D02*
X1049210Y-8890D01*
D31*
X894152Y-6012D03*
D34*
X887341Y-6012D01*
X807352Y34290D02*
X803080Y34290D01*
X807352Y34290D02*
X812294Y29348D01*
D31*
X871905Y10526D03*
D34*
X871905Y9424D02*
X887341Y-6012D01*
X871905Y9424D02*
X871905Y10526D01*
D31*
X830881Y29440D03*
D34*
X830789Y29348D01*
X812294Y29348D01*
X811610Y59500D02*
X802790Y59500D01*
X811610Y59500D02*
X823947Y47163D01*
D31*
X823500Y42826D03*
D34*
X823947Y43272D02*
X823947Y47163D01*
X823947Y43272D02*
X823500Y42826D01*
X1953455Y-3690D02*
X1972430Y-3690D01*
X1973580Y-2540D01*
D30*
X1973580Y-2540D03*
X1852762Y-5873D03*
D34*
X1860859Y-13970D02*
X1861900Y-13970D01*
X1860859Y-13970D02*
X1852762Y-5873D01*
X813363Y51000D02*
X802790Y51000D01*
D31*
X814381Y48501D03*
D34*
X814381Y49981D02*
X813363Y51000D01*
X814381Y49981D02*
X814381Y48501D01*
X1925280Y1310D02*
X1930205Y1310D01*
D30*
X1840736Y-11458D03*
D34*
X1916712Y9878D02*
X1925280Y1310D01*
X1916712Y9878D02*
X1859932Y9878D01*
X1852762Y2708D01*
X1855470Y0D02*
X1861900Y0D01*
X1855470Y0D02*
X1852762Y2708D01*
X1846694Y-3360D02*
X1846694Y-5500D01*
X1840736Y-11458D01*
X1846694Y-3360D02*
X1852762Y2708D01*
X819340Y-59500D02*
X802790Y-59500D01*
X1415390Y7460D02*
X1415550Y7620D01*
X1415390Y7460D02*
X1415390Y13280D01*
X1410890Y17780D01*
X1415550Y7620D02*
X1421439Y7620D01*
X821464Y-57376D02*
X819340Y-59500D01*
D31*
X821464Y-57376D03*
D34*
X1424971Y4088D02*
X1428537Y4088D01*
X1424971Y4088D02*
X1421439Y7620D01*
D31*
X1428537Y4088D03*
D34*
X1411130Y-17780D02*
X1405890Y-12540D01*
X1411130Y-17780D02*
X1416130Y-17780D01*
D31*
X1446002Y-943D03*
D34*
X1432967Y-943D02*
X1416130Y-17780D01*
X1432967Y-943D02*
X1446002Y-943D01*
X2049780Y-10160D02*
X2053590Y-6350D01*
X2056190Y-3750D01*
X2067600Y-3750D01*
D30*
X2009583Y-7177D03*
D34*
X2029148Y-7177D01*
X2032131Y-10160D01*
X2049780Y-10160D01*
D29*
X1507410Y-11270D02*
X1502410Y-11270D01*
X1507410Y-11270D02*
X1512650Y-16510D01*
X1512650Y-11350D01*
X1516380Y-7620D01*
D30*
X2087880Y-6350D03*
D29*
X1519964Y-7620D02*
X1516380Y-7620D01*
D30*
X1536700Y6886D03*
D29*
X1534470Y6886D01*
X1519964Y-7620D01*
D32*
X2087880Y-6350D02*
X2112010Y-6350D01*
D34*
X1465946Y2620D02*
X1461279Y2620D01*
X809892Y42500D02*
X802790Y42500D01*
D31*
X1456788Y7136D03*
D34*
X1456788Y7111D02*
X1461279Y2620D01*
X1456788Y7111D02*
X1456788Y7136D01*
D31*
X814704Y35166D03*
D34*
X814704Y37688D01*
X809892Y42500D01*
D29*
X1465946Y12620D02*
X1478280Y12620D01*
X1489020Y12620D01*
X1492910Y8730D01*
D30*
X2098040Y-17780D03*
X2005062Y-15508D03*
D33*
X2004793Y-15240D02*
X1993820Y-15240D01*
X2004793Y-15240D02*
X2005062Y-15508D01*
D34*
X2066010Y10160D02*
X2070100Y14250D01*
X2066010Y10160D02*
X2045970Y10160D01*
D30*
X2038036Y2686D03*
D34*
X2038496Y2686D02*
X2045970Y10160D01*
X2038496Y2686D02*
X2038036Y2686D01*
D30*
X782122Y-53340D03*
D28*
X783790Y-55008D02*
X783790Y-70000D01*
X783790Y-55008D02*
X782122Y-53340D01*
M02*
