G04 EAGLE Gerber RS-274X export*
G75*
%MOMM*%
%FSLAX34Y34*%
%LPD*%
%INSilkscreen Top*%
%IPPOS*%
%AMOC8*
5,1,8,0,0,1.08239X$1,22.5*%
G01*
G04 Define Apertures*
%ADD10C,0.127000*%
%ADD11C,0.200000*%
%ADD12C,0.152400*%
%ADD13C,0.100000*%
G36*
X630633Y36529D02*
X630202Y36544D01*
X629794Y36590D01*
X629411Y36666D01*
X629052Y36772D01*
X628718Y36908D01*
X628407Y37075D01*
X628121Y37273D01*
X627859Y37500D01*
X627625Y37755D01*
X627421Y38033D01*
X627250Y38336D01*
X627109Y38662D01*
X627000Y39011D01*
X626921Y39385D01*
X626875Y39782D01*
X626859Y40203D01*
X626866Y40481D01*
X626887Y40749D01*
X626922Y41008D01*
X626971Y41257D01*
X627034Y41497D01*
X627111Y41728D01*
X627203Y41949D01*
X627308Y42161D01*
X627426Y42363D01*
X627558Y42552D01*
X627702Y42728D01*
X627858Y42893D01*
X628028Y43045D01*
X628210Y43185D01*
X628405Y43313D01*
X628612Y43429D01*
X628831Y43532D01*
X629059Y43621D01*
X629297Y43696D01*
X629545Y43758D01*
X629803Y43806D01*
X630070Y43840D01*
X630346Y43860D01*
X630633Y43867D01*
X630918Y43860D01*
X631195Y43840D01*
X631462Y43805D01*
X631721Y43756D01*
X631970Y43694D01*
X632211Y43618D01*
X632442Y43528D01*
X632664Y43424D01*
X632876Y43307D01*
X633075Y43178D01*
X633261Y43037D01*
X633435Y42884D01*
X633596Y42719D01*
X633744Y42541D01*
X633880Y42352D01*
X634003Y42151D01*
X634112Y41939D01*
X634207Y41717D01*
X634288Y41487D01*
X634353Y41247D01*
X634404Y40997D01*
X634441Y40739D01*
X634463Y40470D01*
X634470Y40193D01*
X634463Y39913D01*
X634441Y39643D01*
X634405Y39383D01*
X634355Y39132D01*
X634290Y38891D01*
X634210Y38660D01*
X634116Y38439D01*
X634008Y38227D01*
X633886Y38027D01*
X633751Y37838D01*
X633604Y37662D01*
X633443Y37498D01*
X633270Y37347D01*
X633083Y37207D01*
X632884Y37080D01*
X632672Y36965D01*
X632449Y36863D01*
X632217Y36774D01*
X631976Y36699D01*
X631725Y36638D01*
X631466Y36590D01*
X631197Y36556D01*
X630920Y36536D01*
X630633Y36529D01*
G37*
%LPC*%
G36*
X630633Y37547D02*
X630972Y37558D01*
X631293Y37591D01*
X631595Y37646D01*
X631880Y37723D01*
X632147Y37821D01*
X632396Y37942D01*
X632627Y38084D01*
X632840Y38248D01*
X633031Y38432D01*
X633197Y38633D01*
X633338Y38850D01*
X633452Y39085D01*
X633542Y39336D01*
X633605Y39605D01*
X633644Y39890D01*
X633656Y40193D01*
X633644Y40504D01*
X633607Y40796D01*
X633545Y41070D01*
X633459Y41325D01*
X633348Y41561D01*
X633212Y41779D01*
X633052Y41978D01*
X632866Y42159D01*
X632659Y42319D01*
X632431Y42458D01*
X632182Y42576D01*
X631913Y42672D01*
X631624Y42747D01*
X631314Y42801D01*
X630984Y42833D01*
X630633Y42844D01*
X630297Y42833D01*
X629980Y42801D01*
X629681Y42747D01*
X629401Y42671D01*
X629139Y42574D01*
X628896Y42455D01*
X628671Y42315D01*
X628465Y42153D01*
X628281Y41972D01*
X628121Y41773D01*
X627985Y41556D01*
X627875Y41321D01*
X627788Y41068D01*
X627727Y40798D01*
X627690Y40510D01*
X627678Y40203D01*
X627690Y39895D01*
X627726Y39604D01*
X627787Y39332D01*
X627872Y39078D01*
X627981Y38841D01*
X628115Y38623D01*
X628273Y38423D01*
X628455Y38240D01*
X628659Y38078D01*
X628882Y37937D01*
X629125Y37818D01*
X629388Y37721D01*
X629670Y37645D01*
X629971Y37591D01*
X630292Y37558D01*
X630633Y37547D01*
G37*
%LPD*%
G36*
X630664Y44815D02*
X630203Y44825D01*
X629771Y44854D01*
X629370Y44902D01*
X628998Y44970D01*
X628656Y45058D01*
X628344Y45165D01*
X628061Y45291D01*
X627809Y45437D01*
X627586Y45604D01*
X627393Y45793D01*
X627230Y46005D01*
X627096Y46239D01*
X626993Y46496D01*
X626918Y46776D01*
X626874Y47078D01*
X626859Y47403D01*
X626874Y47719D01*
X626919Y48013D01*
X626994Y48287D01*
X627099Y48538D01*
X627234Y48769D01*
X627399Y48978D01*
X627594Y49166D01*
X627819Y49332D01*
X628074Y49477D01*
X628358Y49604D01*
X628670Y49711D01*
X629011Y49798D01*
X629381Y49866D01*
X629780Y49915D01*
X630208Y49944D01*
X630664Y49954D01*
X631114Y49944D01*
X631536Y49913D01*
X631931Y49862D01*
X632298Y49790D01*
X632638Y49698D01*
X632951Y49586D01*
X633236Y49453D01*
X633494Y49300D01*
X633723Y49127D01*
X633921Y48935D01*
X634089Y48723D01*
X634226Y48491D01*
X634333Y48240D01*
X634409Y47970D01*
X634455Y47680D01*
X634470Y47371D01*
X634455Y47062D01*
X634409Y46773D01*
X634333Y46504D01*
X634227Y46254D01*
X634091Y46025D01*
X633924Y45815D01*
X633727Y45625D01*
X633499Y45455D01*
X633242Y45305D01*
X632958Y45175D01*
X632645Y45065D01*
X632305Y44975D01*
X631937Y44905D01*
X631540Y44855D01*
X631116Y44825D01*
X630664Y44815D01*
G37*
%LPC*%
G36*
X630664Y45770D02*
X631045Y45776D01*
X631399Y45794D01*
X631727Y45824D01*
X632028Y45867D01*
X632303Y45921D01*
X632551Y45987D01*
X632773Y46066D01*
X632969Y46156D01*
X633140Y46260D01*
X633288Y46377D01*
X633413Y46509D01*
X633516Y46655D01*
X633596Y46816D01*
X633653Y46990D01*
X633687Y47179D01*
X633698Y47382D01*
X633687Y47583D01*
X633652Y47771D01*
X633594Y47945D01*
X633512Y48105D01*
X633407Y48251D01*
X633279Y48383D01*
X633128Y48501D01*
X632953Y48605D01*
X632754Y48696D01*
X632530Y48775D01*
X632282Y48841D01*
X632008Y48896D01*
X631710Y48939D01*
X631386Y48969D01*
X631038Y48987D01*
X630664Y48993D01*
X630278Y48987D01*
X629919Y48970D01*
X629588Y48941D01*
X629284Y48901D01*
X629008Y48849D01*
X628759Y48785D01*
X628538Y48710D01*
X628344Y48623D01*
X628176Y48523D01*
X628030Y48408D01*
X627906Y48278D01*
X627805Y48133D01*
X627726Y47973D01*
X627670Y47798D01*
X627637Y47608D01*
X627625Y47403D01*
X627636Y47193D01*
X627670Y46998D01*
X627725Y46818D01*
X627802Y46654D01*
X627902Y46505D01*
X628024Y46372D01*
X628168Y46254D01*
X628334Y46151D01*
X628525Y46062D01*
X628745Y45984D01*
X628994Y45919D01*
X629271Y45865D01*
X629576Y45824D01*
X629911Y45794D01*
X630273Y45776D01*
X630664Y45770D01*
G37*
%LPD*%
G36*
X645795Y33902D02*
X638399Y33902D01*
X638399Y37382D01*
X638408Y37685D01*
X638434Y37971D01*
X638478Y38239D01*
X638539Y38489D01*
X638618Y38721D01*
X638714Y38935D01*
X638827Y39132D01*
X638958Y39311D01*
X639105Y39470D01*
X639265Y39608D01*
X639439Y39725D01*
X639627Y39821D01*
X639828Y39895D01*
X640043Y39948D01*
X640272Y39980D01*
X640515Y39991D01*
X640716Y39983D01*
X640910Y39961D01*
X641096Y39923D01*
X641273Y39871D01*
X641442Y39803D01*
X641603Y39721D01*
X641756Y39623D01*
X641900Y39510D01*
X642034Y39385D01*
X642155Y39247D01*
X642263Y39099D01*
X642303Y39032D01*
X642358Y38939D01*
X642440Y38768D01*
X642509Y38585D01*
X642566Y38391D01*
X642609Y38185D01*
X643965Y39079D01*
X645795Y40285D01*
X645795Y39130D01*
X642724Y37209D01*
X642724Y34904D01*
X645795Y34904D01*
X645795Y33902D01*
G37*
%LPC*%
G36*
X641932Y34904D02*
X641932Y37324D01*
X641909Y37698D01*
X641839Y38027D01*
X641724Y38311D01*
X641562Y38550D01*
X641358Y38739D01*
X641242Y38814D01*
X641117Y38875D01*
X640983Y38922D01*
X640840Y38956D01*
X640687Y38976D01*
X640525Y38983D01*
X640368Y38976D01*
X640221Y38955D01*
X640084Y38921D01*
X639956Y38873D01*
X639838Y38812D01*
X639729Y38736D01*
X639541Y38545D01*
X639393Y38301D01*
X639287Y38010D01*
X639223Y37670D01*
X639202Y37282D01*
X639202Y34904D01*
X641932Y34904D01*
G37*
%LPD*%
G36*
X622935Y41058D02*
X615539Y41058D01*
X615539Y42223D01*
X621880Y46223D01*
X620993Y46176D01*
X620389Y46160D01*
X615539Y46160D01*
X615539Y47063D01*
X622935Y47063D01*
X622935Y45856D01*
X616636Y41898D01*
X617145Y41924D01*
X618022Y41950D01*
X622935Y41950D01*
X622935Y41058D01*
G37*
G36*
X622935Y33902D02*
X615539Y33902D01*
X615539Y39513D01*
X616358Y39513D01*
X616358Y34904D01*
X618731Y34904D01*
X618731Y39198D01*
X619539Y39198D01*
X619539Y34904D01*
X622116Y34904D01*
X622116Y39728D01*
X622935Y39728D01*
X622935Y33902D01*
G37*
G36*
X645795Y41011D02*
X641953Y43825D01*
X638399Y41227D01*
X638399Y42334D01*
X641302Y44392D01*
X638399Y46392D01*
X638399Y47499D01*
X641916Y44969D01*
X645795Y47714D01*
X645795Y46607D01*
X642562Y44387D01*
X645795Y42119D01*
X645795Y41011D01*
G37*
G36*
X657225Y39824D02*
X653383Y42637D01*
X649829Y40039D01*
X649829Y41147D01*
X652732Y43204D01*
X649829Y45204D01*
X649829Y46312D01*
X653346Y43782D01*
X657225Y46527D01*
X657225Y45419D01*
X653992Y43199D01*
X657225Y40931D01*
X657225Y39824D01*
G37*
G36*
X650648Y33261D02*
X649829Y33261D01*
X649829Y39340D01*
X650648Y39340D01*
X650648Y36799D01*
X657225Y36799D01*
X657225Y35802D01*
X650648Y35802D01*
X650648Y33261D01*
G37*
G36*
X634365Y34012D02*
X626969Y34012D01*
X626969Y35015D01*
X634365Y35015D01*
X634365Y34012D01*
G37*
G36*
X645795Y18277D02*
X638399Y18277D01*
X638399Y20723D01*
X638414Y21179D01*
X638458Y21609D01*
X638532Y22012D01*
X638635Y22387D01*
X638767Y22737D01*
X638929Y23059D01*
X639121Y23354D01*
X639341Y23623D01*
X639589Y23862D01*
X639862Y24070D01*
X640160Y24245D01*
X640482Y24389D01*
X640830Y24500D01*
X641202Y24580D01*
X641599Y24628D01*
X642021Y24644D01*
X642303Y24637D01*
X642575Y24616D01*
X642839Y24581D01*
X643094Y24532D01*
X643340Y24470D01*
X643576Y24393D01*
X643804Y24302D01*
X644023Y24198D01*
X644232Y24080D01*
X644427Y23951D01*
X644611Y23811D01*
X644781Y23658D01*
X644939Y23494D01*
X645085Y23319D01*
X645218Y23132D01*
X645338Y22933D01*
X645445Y22724D01*
X645538Y22508D01*
X645617Y22283D01*
X645681Y22051D01*
X645731Y21811D01*
X645766Y21563D01*
X645788Y21307D01*
X645795Y21043D01*
X645795Y18277D01*
G37*
%LPC*%
G36*
X644992Y19279D02*
X644992Y20928D01*
X644970Y21322D01*
X644903Y21692D01*
X644791Y22037D01*
X644635Y22358D01*
X644437Y22648D01*
X644199Y22903D01*
X643922Y23122D01*
X643606Y23305D01*
X643255Y23450D01*
X642874Y23553D01*
X642463Y23615D01*
X642021Y23636D01*
X641687Y23624D01*
X641374Y23589D01*
X641081Y23530D01*
X640809Y23448D01*
X640557Y23342D01*
X640326Y23212D01*
X640115Y23059D01*
X639924Y22883D01*
X639755Y22684D01*
X639608Y22464D01*
X639484Y22223D01*
X639383Y21961D01*
X639304Y21678D01*
X639247Y21374D01*
X639214Y21048D01*
X639202Y20702D01*
X639202Y19279D01*
X644992Y19279D01*
G37*
%LPD*%
G36*
X657225Y18277D02*
X649829Y18277D01*
X649829Y20723D01*
X649844Y21179D01*
X649888Y21609D01*
X649962Y22012D01*
X650065Y22387D01*
X650197Y22737D01*
X650359Y23059D01*
X650551Y23354D01*
X650771Y23623D01*
X651019Y23862D01*
X651292Y24070D01*
X651590Y24245D01*
X651912Y24389D01*
X652260Y24500D01*
X652632Y24580D01*
X653029Y24628D01*
X653451Y24644D01*
X653733Y24637D01*
X654005Y24616D01*
X654269Y24581D01*
X654524Y24532D01*
X654770Y24470D01*
X655006Y24393D01*
X655234Y24302D01*
X655453Y24198D01*
X655662Y24080D01*
X655857Y23951D01*
X656041Y23811D01*
X656211Y23658D01*
X656369Y23494D01*
X656515Y23319D01*
X656648Y23132D01*
X656768Y22933D01*
X656875Y22724D01*
X656968Y22508D01*
X657047Y22283D01*
X657111Y22051D01*
X657161Y21811D01*
X657196Y21563D01*
X657218Y21307D01*
X657225Y21043D01*
X657225Y18277D01*
G37*
%LPC*%
G36*
X656422Y19279D02*
X656422Y20928D01*
X656400Y21322D01*
X656333Y21692D01*
X656221Y22037D01*
X656065Y22358D01*
X655867Y22648D01*
X655629Y22903D01*
X655352Y23122D01*
X655036Y23305D01*
X654685Y23450D01*
X654304Y23553D01*
X653893Y23615D01*
X653451Y23636D01*
X653117Y23624D01*
X652804Y23589D01*
X652511Y23530D01*
X652239Y23448D01*
X651987Y23342D01*
X651756Y23212D01*
X651545Y23059D01*
X651354Y22883D01*
X651185Y22684D01*
X651038Y22464D01*
X650914Y22223D01*
X650813Y21961D01*
X650734Y21678D01*
X650677Y21374D01*
X650644Y21048D01*
X650632Y20702D01*
X650632Y19279D01*
X656422Y19279D01*
G37*
%LPD*%
G36*
X622935Y9308D02*
X615539Y9308D01*
X615539Y11996D01*
X615546Y12311D01*
X615567Y12606D01*
X615602Y12880D01*
X615651Y13135D01*
X615714Y13369D01*
X615792Y13582D01*
X615883Y13775D01*
X615988Y13948D01*
X616107Y14101D01*
X616240Y14233D01*
X616388Y14345D01*
X616549Y14436D01*
X616724Y14508D01*
X616914Y14558D01*
X617117Y14589D01*
X617334Y14599D01*
X617649Y14576D01*
X617938Y14507D01*
X618200Y14392D01*
X618437Y14232D01*
X618596Y14074D01*
X618641Y14029D01*
X618809Y13788D01*
X618941Y13509D01*
X619035Y13192D01*
X619067Y13407D01*
X619111Y13608D01*
X619167Y13797D01*
X619235Y13973D01*
X619315Y14137D01*
X619407Y14288D01*
X619510Y14426D01*
X619563Y14484D01*
X619626Y14552D01*
X619751Y14664D01*
X619884Y14761D01*
X620025Y14843D01*
X620175Y14910D01*
X620332Y14962D01*
X620497Y15000D01*
X620670Y15022D01*
X620851Y15030D01*
X621091Y15018D01*
X621317Y14985D01*
X621530Y14928D01*
X621728Y14850D01*
X621913Y14749D01*
X622085Y14625D01*
X622243Y14479D01*
X622387Y14310D01*
X622515Y14122D01*
X622626Y13916D01*
X622721Y13692D01*
X622798Y13451D01*
X622858Y13192D01*
X622901Y12916D01*
X622926Y12622D01*
X622935Y12311D01*
X622935Y9308D01*
G37*
%LPC*%
G36*
X622132Y10311D02*
X622132Y12258D01*
X622111Y12686D01*
X622047Y13052D01*
X621999Y13211D01*
X621940Y13355D01*
X621871Y13484D01*
X621791Y13597D01*
X621700Y13695D01*
X621599Y13780D01*
X621488Y13852D01*
X621366Y13911D01*
X621233Y13957D01*
X621090Y13990D01*
X620936Y14010D01*
X620772Y14016D01*
X620614Y14009D01*
X620466Y13988D01*
X620328Y13952D01*
X620201Y13902D01*
X620083Y13837D01*
X619976Y13758D01*
X619879Y13665D01*
X619792Y13557D01*
X619649Y13299D01*
X619547Y12983D01*
X619486Y12610D01*
X619465Y12179D01*
X619465Y10311D01*
X622132Y10311D01*
G37*
G36*
X618683Y10311D02*
X618683Y11996D01*
X618664Y12372D01*
X618608Y12697D01*
X618514Y12971D01*
X618382Y13195D01*
X618210Y13368D01*
X617999Y13492D01*
X617878Y13536D01*
X617747Y13567D01*
X617606Y13585D01*
X617455Y13591D01*
X617311Y13585D01*
X617177Y13566D01*
X617054Y13534D01*
X616942Y13489D01*
X616840Y13431D01*
X616749Y13361D01*
X616599Y13182D01*
X616487Y12954D01*
X616407Y12681D01*
X616358Y12361D01*
X616342Y11996D01*
X616342Y10311D01*
X618683Y10311D01*
G37*
%LPD*%
G36*
X622935Y15603D02*
X615539Y18622D01*
X615539Y19761D01*
X622935Y22732D01*
X622935Y21708D01*
X620772Y20863D01*
X620772Y17493D01*
X622935Y16643D01*
X622935Y15603D01*
G37*
%LPC*%
G36*
X619990Y17798D02*
X619990Y20564D01*
X617550Y19614D01*
X617164Y19467D01*
X616731Y19320D01*
X616295Y19178D01*
X616442Y19131D01*
X616939Y18968D01*
X617560Y18742D01*
X619990Y17798D01*
G37*
%LPD*%
G36*
X645795Y10527D02*
X638399Y10527D01*
X638399Y11692D01*
X644740Y15692D01*
X643853Y15645D01*
X643249Y15629D01*
X638399Y15629D01*
X638399Y16532D01*
X645795Y16532D01*
X645795Y15324D01*
X639496Y11367D01*
X640005Y11393D01*
X640882Y11419D01*
X645795Y11419D01*
X645795Y10527D01*
G37*
G36*
X657225Y10527D02*
X649829Y10527D01*
X649829Y11692D01*
X656170Y15692D01*
X655283Y15645D01*
X654679Y15629D01*
X649829Y15629D01*
X649829Y16532D01*
X657225Y16532D01*
X657225Y15324D01*
X650926Y11367D01*
X651435Y11393D01*
X652312Y11419D01*
X657225Y11419D01*
X657225Y10527D01*
G37*
G36*
X642063Y1811D02*
X641626Y1826D01*
X641214Y1871D01*
X640827Y1946D01*
X640466Y2052D01*
X640130Y2188D01*
X639820Y2354D01*
X639535Y2550D01*
X639276Y2776D01*
X639044Y3030D01*
X638844Y3308D01*
X638674Y3611D01*
X638536Y3938D01*
X638428Y4289D01*
X638351Y4665D01*
X638304Y5065D01*
X638289Y5490D01*
X638295Y5790D01*
X638315Y6075D01*
X638347Y6346D01*
X638393Y6603D01*
X638451Y6845D01*
X638522Y7073D01*
X638606Y7286D01*
X638704Y7485D01*
X638815Y7671D01*
X638942Y7846D01*
X639085Y8010D01*
X639243Y8163D01*
X639417Y8305D01*
X639606Y8437D01*
X639811Y8557D01*
X640032Y8666D01*
X640315Y7711D01*
X640021Y7538D01*
X639770Y7336D01*
X639562Y7104D01*
X639396Y6842D01*
X639270Y6548D01*
X639180Y6220D01*
X639126Y5859D01*
X639108Y5464D01*
X639120Y5153D01*
X639156Y4861D01*
X639217Y4588D01*
X639301Y4334D01*
X639410Y4099D01*
X639543Y3882D01*
X639701Y3685D01*
X639882Y3506D01*
X640085Y3347D01*
X640309Y3210D01*
X640552Y3093D01*
X640814Y2998D01*
X641097Y2924D01*
X641399Y2871D01*
X641721Y2840D01*
X642063Y2829D01*
X642404Y2840D01*
X642727Y2874D01*
X643031Y2930D01*
X643317Y3009D01*
X643584Y3110D01*
X643833Y3233D01*
X644063Y3380D01*
X644275Y3548D01*
X644466Y3736D01*
X644630Y3942D01*
X644770Y4165D01*
X644884Y4405D01*
X644972Y4662D01*
X645036Y4937D01*
X645074Y5229D01*
X645086Y5537D01*
X645073Y5894D01*
X645031Y6238D01*
X644962Y6569D01*
X644866Y6889D01*
X644746Y7188D01*
X644606Y7457D01*
X644447Y7696D01*
X644268Y7905D01*
X642934Y7905D01*
X642934Y5695D01*
X642094Y5695D01*
X642094Y8829D01*
X644645Y8829D01*
X644928Y8518D01*
X645176Y8174D01*
X645391Y7798D01*
X645572Y7388D01*
X645715Y6952D01*
X645818Y6499D01*
X645879Y6027D01*
X645900Y5537D01*
X645893Y5252D01*
X645871Y4977D01*
X645835Y4712D01*
X645785Y4457D01*
X645720Y4212D01*
X645640Y3978D01*
X645546Y3753D01*
X645438Y3538D01*
X645316Y3334D01*
X645182Y3142D01*
X645034Y2963D01*
X644874Y2797D01*
X644702Y2643D01*
X644516Y2501D01*
X644318Y2371D01*
X644107Y2254D01*
X643885Y2150D01*
X643654Y2060D01*
X643413Y1984D01*
X643162Y1922D01*
X642902Y1873D01*
X642632Y1838D01*
X642352Y1818D01*
X642063Y1811D01*
G37*
G36*
X653493Y1811D02*
X653056Y1826D01*
X652644Y1871D01*
X652257Y1946D01*
X651896Y2052D01*
X651560Y2188D01*
X651250Y2354D01*
X650965Y2550D01*
X650706Y2776D01*
X650474Y3030D01*
X650274Y3308D01*
X650104Y3611D01*
X649966Y3938D01*
X649858Y4289D01*
X649781Y4665D01*
X649734Y5065D01*
X649719Y5490D01*
X649725Y5790D01*
X649745Y6075D01*
X649777Y6346D01*
X649823Y6603D01*
X649881Y6845D01*
X649952Y7073D01*
X650036Y7286D01*
X650134Y7485D01*
X650245Y7671D01*
X650372Y7846D01*
X650515Y8010D01*
X650673Y8163D01*
X650847Y8305D01*
X651036Y8437D01*
X651241Y8557D01*
X651462Y8666D01*
X651745Y7711D01*
X651451Y7538D01*
X651200Y7336D01*
X650992Y7104D01*
X650826Y6842D01*
X650700Y6548D01*
X650610Y6220D01*
X650556Y5859D01*
X650538Y5464D01*
X650550Y5153D01*
X650586Y4861D01*
X650647Y4588D01*
X650731Y4334D01*
X650840Y4099D01*
X650973Y3882D01*
X651131Y3685D01*
X651312Y3506D01*
X651515Y3347D01*
X651739Y3210D01*
X651982Y3093D01*
X652244Y2998D01*
X652527Y2924D01*
X652829Y2871D01*
X653151Y2840D01*
X653493Y2829D01*
X653834Y2840D01*
X654157Y2874D01*
X654461Y2930D01*
X654747Y3009D01*
X655014Y3110D01*
X655263Y3233D01*
X655493Y3380D01*
X655705Y3548D01*
X655896Y3736D01*
X656060Y3942D01*
X656200Y4165D01*
X656314Y4405D01*
X656402Y4662D01*
X656466Y4937D01*
X656504Y5229D01*
X656516Y5537D01*
X656503Y5894D01*
X656461Y6238D01*
X656392Y6569D01*
X656296Y6889D01*
X656176Y7188D01*
X656036Y7457D01*
X655877Y7696D01*
X655698Y7905D01*
X654364Y7905D01*
X654364Y5695D01*
X653524Y5695D01*
X653524Y8829D01*
X656075Y8829D01*
X656358Y8518D01*
X656606Y8174D01*
X656821Y7798D01*
X657002Y7388D01*
X657145Y6952D01*
X657248Y6499D01*
X657309Y6027D01*
X657330Y5537D01*
X657323Y5252D01*
X657301Y4977D01*
X657265Y4712D01*
X657215Y4457D01*
X657150Y4212D01*
X657070Y3978D01*
X656976Y3753D01*
X656868Y3538D01*
X656746Y3334D01*
X656612Y3142D01*
X656464Y2963D01*
X656304Y2797D01*
X656132Y2643D01*
X655946Y2501D01*
X655748Y2371D01*
X655537Y2254D01*
X655315Y2150D01*
X655084Y2060D01*
X654843Y1984D01*
X654592Y1922D01*
X654332Y1873D01*
X654062Y1838D01*
X653782Y1818D01*
X653493Y1811D01*
G37*
G36*
X632465Y1679D02*
X632376Y2656D01*
X632683Y2722D01*
X632950Y2827D01*
X633175Y2971D01*
X633360Y3153D01*
X633503Y3374D01*
X633606Y3633D01*
X633667Y3931D01*
X633688Y4267D01*
X633666Y4605D01*
X633600Y4904D01*
X633490Y5165D01*
X633336Y5388D01*
X633243Y5483D01*
X633139Y5566D01*
X633024Y5636D01*
X632899Y5693D01*
X632763Y5737D01*
X632617Y5769D01*
X632460Y5788D01*
X632292Y5795D01*
X632145Y5787D01*
X632006Y5766D01*
X631876Y5729D01*
X631754Y5679D01*
X631641Y5613D01*
X631535Y5533D01*
X631349Y5330D01*
X631201Y5072D01*
X631096Y4763D01*
X631032Y4402D01*
X631011Y3989D01*
X631011Y3454D01*
X630192Y3454D01*
X630192Y3968D01*
X630171Y4335D01*
X630107Y4658D01*
X630002Y4937D01*
X629853Y5173D01*
X629668Y5360D01*
X629450Y5493D01*
X629329Y5540D01*
X629200Y5574D01*
X629062Y5594D01*
X628917Y5600D01*
X628636Y5579D01*
X628386Y5513D01*
X628167Y5404D01*
X627980Y5251D01*
X627829Y5056D01*
X627722Y4818D01*
X627657Y4537D01*
X627636Y4215D01*
X627656Y3917D01*
X627716Y3650D01*
X627816Y3412D01*
X627956Y3204D01*
X628132Y3032D01*
X628342Y2899D01*
X628584Y2807D01*
X628859Y2755D01*
X628785Y1805D01*
X628565Y1840D01*
X628356Y1892D01*
X628160Y1961D01*
X627977Y2046D01*
X627806Y2149D01*
X627648Y2268D01*
X627502Y2405D01*
X627368Y2559D01*
X627249Y2726D01*
X627145Y2906D01*
X627058Y3097D01*
X626986Y3299D01*
X626931Y3514D01*
X626891Y3739D01*
X626867Y3976D01*
X626859Y4225D01*
X626867Y4496D01*
X626891Y4751D01*
X626932Y4990D01*
X626988Y5214D01*
X627061Y5422D01*
X627150Y5615D01*
X627255Y5793D01*
X627376Y5955D01*
X627512Y6099D01*
X627660Y6225D01*
X627821Y6331D01*
X627995Y6417D01*
X628181Y6485D01*
X628380Y6533D01*
X628592Y6562D01*
X628817Y6572D01*
X628990Y6565D01*
X629155Y6547D01*
X629459Y6472D01*
X629731Y6349D01*
X629969Y6175D01*
X630173Y5955D01*
X630341Y5689D01*
X630473Y5379D01*
X630570Y5023D01*
X630591Y5023D01*
X630619Y5225D01*
X630659Y5415D01*
X630711Y5593D01*
X630775Y5761D01*
X630937Y6060D01*
X631147Y6314D01*
X631396Y6516D01*
X631532Y6596D01*
X631675Y6661D01*
X631826Y6711D01*
X631984Y6747D01*
X632150Y6769D01*
X632323Y6776D01*
X632572Y6766D01*
X632806Y6736D01*
X633026Y6685D01*
X633231Y6614D01*
X633422Y6522D01*
X633599Y6410D01*
X633761Y6278D01*
X633908Y6125D01*
X634040Y5954D01*
X634154Y5765D01*
X634251Y5559D01*
X634330Y5335D01*
X634391Y5094D01*
X634435Y4836D01*
X634461Y4560D01*
X634470Y4267D01*
X634462Y3993D01*
X634438Y3734D01*
X634399Y3489D01*
X634343Y3257D01*
X634272Y3040D01*
X634185Y2838D01*
X634082Y2649D01*
X633963Y2475D01*
X633829Y2316D01*
X633680Y2174D01*
X633515Y2049D01*
X633336Y1941D01*
X633141Y1850D01*
X632931Y1776D01*
X632705Y1719D01*
X632465Y1679D01*
G37*
G36*
X632465Y14804D02*
X632376Y15781D01*
X632683Y15847D01*
X632950Y15952D01*
X633175Y16096D01*
X633360Y16278D01*
X633503Y16499D01*
X633606Y16758D01*
X633667Y17056D01*
X633688Y17392D01*
X633666Y17730D01*
X633600Y18029D01*
X633490Y18290D01*
X633336Y18513D01*
X633243Y18608D01*
X633139Y18691D01*
X633024Y18761D01*
X632899Y18818D01*
X632763Y18862D01*
X632617Y18894D01*
X632460Y18913D01*
X632292Y18920D01*
X632145Y18912D01*
X632006Y18891D01*
X631876Y18854D01*
X631754Y18804D01*
X631641Y18738D01*
X631535Y18658D01*
X631349Y18455D01*
X631201Y18197D01*
X631096Y17888D01*
X631032Y17527D01*
X631011Y17114D01*
X631011Y16579D01*
X630192Y16579D01*
X630192Y17093D01*
X630171Y17460D01*
X630107Y17783D01*
X630002Y18062D01*
X629853Y18298D01*
X629668Y18485D01*
X629450Y18618D01*
X629329Y18665D01*
X629200Y18699D01*
X629062Y18719D01*
X628917Y18725D01*
X628636Y18704D01*
X628386Y18638D01*
X628167Y18529D01*
X627980Y18376D01*
X627829Y18181D01*
X627722Y17943D01*
X627657Y17662D01*
X627636Y17340D01*
X627656Y17042D01*
X627716Y16775D01*
X627816Y16537D01*
X627956Y16329D01*
X628132Y16157D01*
X628342Y16024D01*
X628584Y15932D01*
X628859Y15880D01*
X628785Y14930D01*
X628565Y14965D01*
X628356Y15017D01*
X628160Y15086D01*
X627977Y15171D01*
X627806Y15274D01*
X627648Y15393D01*
X627502Y15530D01*
X627368Y15684D01*
X627249Y15851D01*
X627145Y16031D01*
X627058Y16222D01*
X626986Y16424D01*
X626931Y16639D01*
X626891Y16864D01*
X626867Y17101D01*
X626859Y17350D01*
X626867Y17621D01*
X626891Y17876D01*
X626932Y18115D01*
X626988Y18339D01*
X627061Y18547D01*
X627150Y18740D01*
X627255Y18918D01*
X627376Y19080D01*
X627512Y19224D01*
X627660Y19350D01*
X627821Y19456D01*
X627995Y19542D01*
X628181Y19610D01*
X628380Y19658D01*
X628592Y19687D01*
X628817Y19697D01*
X628990Y19690D01*
X629155Y19672D01*
X629459Y19597D01*
X629731Y19474D01*
X629969Y19300D01*
X630173Y19080D01*
X630341Y18814D01*
X630473Y18504D01*
X630570Y18148D01*
X630591Y18148D01*
X630619Y18350D01*
X630659Y18540D01*
X630711Y18718D01*
X630775Y18886D01*
X630937Y19185D01*
X631147Y19439D01*
X631396Y19641D01*
X631532Y19721D01*
X631675Y19786D01*
X631826Y19836D01*
X631984Y19872D01*
X632150Y19894D01*
X632323Y19901D01*
X632572Y19891D01*
X632806Y19861D01*
X633026Y19810D01*
X633231Y19739D01*
X633422Y19647D01*
X633599Y19535D01*
X633761Y19403D01*
X633908Y19250D01*
X634040Y19079D01*
X634154Y18890D01*
X634251Y18684D01*
X634330Y18460D01*
X634391Y18219D01*
X634435Y17961D01*
X634461Y17685D01*
X634470Y17392D01*
X634462Y17118D01*
X634438Y16859D01*
X634399Y16614D01*
X634343Y16382D01*
X634272Y16165D01*
X634185Y15963D01*
X634082Y15774D01*
X633963Y15600D01*
X633829Y15441D01*
X633680Y15299D01*
X633515Y15174D01*
X633336Y15066D01*
X633141Y14975D01*
X632931Y14901D01*
X632705Y14844D01*
X632465Y14804D01*
G37*
G36*
X615539Y1317D02*
X615539Y2372D01*
X620746Y4419D01*
X622053Y4860D01*
X620746Y5301D01*
X615539Y7338D01*
X615539Y8393D01*
X622935Y5375D01*
X622935Y4335D01*
X615539Y1317D01*
G37*
G36*
X626969Y7286D02*
X626969Y8341D01*
X632176Y10388D01*
X633483Y10829D01*
X632176Y11270D01*
X626969Y13307D01*
X626969Y14362D01*
X634365Y11343D01*
X634365Y10304D01*
X626969Y7286D01*
G37*
G36*
X616358Y22168D02*
X615539Y22168D01*
X615539Y28246D01*
X616358Y28246D01*
X616358Y25706D01*
X622935Y25706D01*
X622935Y24708D01*
X616358Y24708D01*
X616358Y22168D01*
G37*
G36*
X2013434Y15875D02*
X2012432Y15875D01*
X2012432Y23271D01*
X2015912Y23271D01*
X2016215Y23262D01*
X2016501Y23236D01*
X2016769Y23192D01*
X2017019Y23131D01*
X2017251Y23053D01*
X2017465Y22956D01*
X2017662Y22843D01*
X2017841Y22712D01*
X2018000Y22565D01*
X2018138Y22405D01*
X2018255Y22231D01*
X2018351Y22043D01*
X2018425Y21842D01*
X2018478Y21627D01*
X2018510Y21398D01*
X2018521Y21156D01*
X2018513Y20954D01*
X2018491Y20760D01*
X2018453Y20574D01*
X2018401Y20397D01*
X2018333Y20228D01*
X2018251Y20067D01*
X2018153Y19914D01*
X2018040Y19770D01*
X2017915Y19636D01*
X2017777Y19515D01*
X2017629Y19407D01*
X2017562Y19367D01*
X2017469Y19312D01*
X2017298Y19230D01*
X2017115Y19161D01*
X2016921Y19104D01*
X2016715Y19061D01*
X2017609Y17705D01*
X2018815Y15875D01*
X2017660Y15875D01*
X2015739Y18946D01*
X2013434Y18946D01*
X2013434Y15875D01*
G37*
%LPC*%
G36*
X2015854Y19738D02*
X2016228Y19761D01*
X2016557Y19831D01*
X2016841Y19946D01*
X2017080Y20108D01*
X2017269Y20312D01*
X2017344Y20428D01*
X2017405Y20553D01*
X2017452Y20687D01*
X2017486Y20830D01*
X2017506Y20983D01*
X2017513Y21145D01*
X2017506Y21302D01*
X2017485Y21449D01*
X2017451Y21586D01*
X2017403Y21714D01*
X2017342Y21832D01*
X2017266Y21941D01*
X2017075Y22129D01*
X2016831Y22277D01*
X2016540Y22383D01*
X2016200Y22447D01*
X2015812Y22468D01*
X2013434Y22468D01*
X2013434Y19738D01*
X2015854Y19738D01*
G37*
%LPD*%
G36*
X1984258Y4445D02*
X1978432Y4445D01*
X1978432Y11841D01*
X1984043Y11841D01*
X1984043Y11022D01*
X1979434Y11022D01*
X1979434Y8649D01*
X1983728Y8649D01*
X1983728Y7841D01*
X1979434Y7841D01*
X1979434Y5264D01*
X1984258Y5264D01*
X1984258Y4445D01*
G37*
G36*
X2004540Y4445D02*
X1998713Y4445D01*
X1998713Y11841D01*
X2004324Y11841D01*
X2004324Y11022D01*
X1999716Y11022D01*
X1999716Y8649D01*
X2004009Y8649D01*
X2004009Y7841D01*
X1999716Y7841D01*
X1999716Y5264D01*
X2004540Y5264D01*
X2004540Y4445D01*
G37*
G36*
X2009139Y4340D02*
X2008865Y4347D01*
X2008599Y4369D01*
X2008343Y4405D01*
X2008097Y4456D01*
X2007860Y4521D01*
X2007632Y4601D01*
X2007414Y4696D01*
X2007205Y4805D01*
X2007007Y4927D01*
X2006821Y5062D01*
X2006648Y5209D01*
X2006486Y5369D01*
X2006337Y5541D01*
X2006199Y5726D01*
X2006074Y5923D01*
X2005961Y6133D01*
X2005861Y6353D01*
X2005774Y6584D01*
X2005701Y6825D01*
X2005640Y7075D01*
X2005594Y7336D01*
X2005560Y7606D01*
X2005540Y7887D01*
X2005533Y8177D01*
X2005548Y8607D01*
X2005593Y9014D01*
X2005668Y9396D01*
X2005772Y9754D01*
X2005907Y10089D01*
X2006071Y10399D01*
X2006265Y10686D01*
X2006489Y10949D01*
X2006739Y11184D01*
X2007012Y11387D01*
X2007309Y11559D01*
X2007628Y11700D01*
X2007970Y11810D01*
X2008335Y11888D01*
X2008723Y11935D01*
X2009134Y11951D01*
X2009423Y11944D01*
X2009700Y11922D01*
X2009965Y11886D01*
X2010218Y11836D01*
X2010459Y11771D01*
X2010687Y11691D01*
X2010904Y11597D01*
X2011108Y11489D01*
X2011299Y11367D01*
X2011478Y11230D01*
X2011643Y11080D01*
X2011795Y10916D01*
X2011935Y10738D01*
X2012061Y10545D01*
X2012173Y10339D01*
X2012273Y10119D01*
X2011323Y9804D01*
X2011175Y10108D01*
X2010988Y10374D01*
X2010762Y10601D01*
X2010496Y10791D01*
X2010198Y10940D01*
X2009874Y11047D01*
X2009522Y11111D01*
X2009145Y11132D01*
X2008846Y11120D01*
X2008565Y11083D01*
X2008300Y11021D01*
X2008053Y10935D01*
X2007823Y10824D01*
X2007609Y10688D01*
X2007413Y10527D01*
X2007234Y10342D01*
X2007074Y10136D01*
X2006936Y9911D01*
X2006818Y9667D01*
X2006722Y9406D01*
X2006648Y9126D01*
X2006594Y8828D01*
X2006562Y8512D01*
X2006552Y8177D01*
X2006563Y7846D01*
X2006596Y7531D01*
X2006652Y7232D01*
X2006730Y6951D01*
X2006830Y6686D01*
X2006952Y6437D01*
X2007096Y6206D01*
X2007263Y5991D01*
X2007449Y5797D01*
X2007650Y5629D01*
X2007867Y5487D01*
X2008100Y5371D01*
X2008348Y5280D01*
X2008612Y5216D01*
X2008891Y5177D01*
X2009187Y5164D01*
X2009563Y5188D01*
X2009915Y5260D01*
X2010243Y5380D01*
X2010548Y5549D01*
X2010827Y5765D01*
X2011083Y6029D01*
X2011315Y6342D01*
X2011523Y6702D01*
X2012341Y6293D01*
X2012221Y6061D01*
X2012090Y5844D01*
X2011947Y5640D01*
X2011792Y5452D01*
X2011626Y5277D01*
X2011448Y5117D01*
X2011259Y4970D01*
X2011058Y4839D01*
X2010847Y4722D01*
X2010628Y4621D01*
X2010401Y4535D01*
X2010165Y4465D01*
X2009921Y4410D01*
X2009669Y4371D01*
X2009408Y4348D01*
X2009139Y4340D01*
G37*
G36*
X1986591Y4445D02*
X1985588Y4445D01*
X1985588Y11841D01*
X1990842Y11841D01*
X1990842Y11022D01*
X1986591Y11022D01*
X1986591Y8272D01*
X1990716Y8272D01*
X1990716Y7442D01*
X1986591Y7442D01*
X1986591Y4445D01*
G37*
G36*
X1993153Y4445D02*
X1992151Y4445D01*
X1992151Y11841D01*
X1997405Y11841D01*
X1997405Y11022D01*
X1993153Y11022D01*
X1993153Y8272D01*
X1997279Y8272D01*
X1997279Y7442D01*
X1993153Y7442D01*
X1993153Y4445D01*
G37*
G36*
X2016517Y4445D02*
X2015519Y4445D01*
X2015519Y11022D01*
X2012979Y11022D01*
X2012979Y11841D01*
X2019057Y11841D01*
X2019057Y11022D01*
X2016517Y11022D01*
X2016517Y4445D01*
G37*
G36*
X2010545Y15875D02*
X2009542Y15875D01*
X2009542Y23271D01*
X2010545Y23271D01*
X2010545Y15875D01*
G37*
G36*
X738043Y32825D02*
X737494Y32837D01*
X736975Y32874D01*
X736485Y32935D01*
X736025Y33021D01*
X735595Y33131D01*
X735194Y33266D01*
X734822Y33425D01*
X734481Y33609D01*
X734169Y33817D01*
X733887Y34050D01*
X733634Y34307D01*
X733411Y34589D01*
X733217Y34895D01*
X733053Y35225D01*
X732919Y35581D01*
X732815Y35960D01*
X734435Y36284D01*
X734515Y36016D01*
X734614Y35765D01*
X734734Y35533D01*
X734873Y35320D01*
X735032Y35125D01*
X735210Y34949D01*
X735408Y34791D01*
X735626Y34651D01*
X735864Y34529D01*
X736123Y34423D01*
X736402Y34333D01*
X736701Y34260D01*
X737021Y34203D01*
X737362Y34162D01*
X737723Y34138D01*
X738105Y34130D01*
X738498Y34139D01*
X738869Y34165D01*
X739216Y34208D01*
X739540Y34269D01*
X739841Y34347D01*
X740119Y34443D01*
X740374Y34556D01*
X740605Y34686D01*
X740812Y34833D01*
X740990Y34997D01*
X741142Y35176D01*
X741265Y35372D01*
X741362Y35585D01*
X741430Y35813D01*
X741472Y36058D01*
X741486Y36319D01*
X741468Y36607D01*
X741417Y36867D01*
X741330Y37098D01*
X741210Y37300D01*
X741058Y37481D01*
X740878Y37644D01*
X740670Y37791D01*
X740434Y37922D01*
X740173Y38040D01*
X739887Y38148D01*
X739577Y38246D01*
X739243Y38334D01*
X737711Y38693D01*
X737023Y38855D01*
X736424Y39017D01*
X735913Y39179D01*
X735490Y39341D01*
X735131Y39508D01*
X734813Y39684D01*
X734534Y39869D01*
X734295Y40064D01*
X734089Y40272D01*
X733908Y40496D01*
X733754Y40738D01*
X733625Y40997D01*
X733523Y41274D01*
X733451Y41570D01*
X733407Y41887D01*
X733393Y42223D01*
X733412Y42608D01*
X733468Y42970D01*
X733563Y43309D01*
X733696Y43626D01*
X733866Y43920D01*
X734075Y44192D01*
X734321Y44440D01*
X734606Y44666D01*
X734925Y44868D01*
X735278Y45042D01*
X735663Y45189D01*
X736080Y45310D01*
X736531Y45404D01*
X737014Y45471D01*
X737530Y45511D01*
X738078Y45525D01*
X738588Y45515D01*
X739068Y45484D01*
X739516Y45434D01*
X739933Y45364D01*
X740319Y45273D01*
X740675Y45163D01*
X740999Y45032D01*
X741293Y44881D01*
X741560Y44706D01*
X741807Y44502D01*
X742033Y44271D01*
X742239Y44011D01*
X742423Y43722D01*
X742587Y43405D01*
X742730Y43060D01*
X742852Y42687D01*
X741205Y42398D01*
X741130Y42635D01*
X741039Y42855D01*
X740933Y43058D01*
X740811Y43244D01*
X740674Y43414D01*
X740522Y43566D01*
X740355Y43702D01*
X740172Y43821D01*
X739972Y43925D01*
X739754Y44015D01*
X739518Y44091D01*
X739263Y44153D01*
X738990Y44201D01*
X738699Y44236D01*
X738389Y44257D01*
X738061Y44263D01*
X737702Y44256D01*
X737365Y44233D01*
X737049Y44195D01*
X736756Y44141D01*
X736484Y44072D01*
X736235Y43988D01*
X736007Y43888D01*
X735801Y43773D01*
X735619Y43643D01*
X735460Y43498D01*
X735326Y43337D01*
X735217Y43162D01*
X735131Y42972D01*
X735070Y42766D01*
X735034Y42546D01*
X735022Y42310D01*
X735041Y42038D01*
X735097Y41790D01*
X735192Y41567D01*
X735324Y41369D01*
X735492Y41190D01*
X735693Y41025D01*
X735927Y40874D01*
X736195Y40738D01*
X736551Y40602D01*
X737047Y40450D01*
X737685Y40284D01*
X738464Y40103D01*
X739598Y39836D01*
X740151Y39687D01*
X740680Y39512D01*
X741180Y39307D01*
X741648Y39070D01*
X741866Y38936D01*
X742069Y38787D01*
X742258Y38625D01*
X742431Y38448D01*
X742589Y38256D01*
X742728Y38047D01*
X742849Y37822D01*
X742953Y37581D01*
X743035Y37320D01*
X743094Y37038D01*
X743129Y36733D01*
X743141Y36407D01*
X743120Y35992D01*
X743057Y35601D01*
X742953Y35235D01*
X742807Y34892D01*
X742619Y34573D01*
X742390Y34279D01*
X742118Y34008D01*
X741805Y33762D01*
X741454Y33542D01*
X741069Y33352D01*
X740650Y33191D01*
X740197Y33059D01*
X739710Y32957D01*
X739188Y32883D01*
X738633Y32840D01*
X738043Y32825D01*
G37*
G36*
X753043Y33000D02*
X744871Y33000D01*
X744871Y34112D01*
X745107Y34610D01*
X745367Y35077D01*
X745652Y35514D01*
X745961Y35921D01*
X746287Y36304D01*
X746621Y36668D01*
X746964Y37013D01*
X747315Y37340D01*
X748021Y37952D01*
X748720Y38518D01*
X749383Y39061D01*
X749977Y39604D01*
X750244Y39879D01*
X750484Y40160D01*
X750697Y40448D01*
X750884Y40743D01*
X751035Y41050D01*
X751143Y41378D01*
X751208Y41725D01*
X751230Y42091D01*
X751220Y42338D01*
X751192Y42571D01*
X751146Y42789D01*
X751081Y42993D01*
X750997Y43183D01*
X750895Y43359D01*
X750774Y43521D01*
X750634Y43668D01*
X750478Y43799D01*
X750307Y43913D01*
X750122Y44009D01*
X749922Y44088D01*
X749708Y44150D01*
X749480Y44193D01*
X749236Y44220D01*
X748979Y44228D01*
X748732Y44220D01*
X748497Y44194D01*
X748273Y44151D01*
X748060Y44092D01*
X747858Y44015D01*
X747667Y43921D01*
X747488Y43809D01*
X747319Y43681D01*
X747164Y43537D01*
X747026Y43380D01*
X746905Y43208D01*
X746801Y43023D01*
X746714Y42824D01*
X746643Y42611D01*
X746589Y42384D01*
X746553Y42144D01*
X744941Y42293D01*
X744999Y42653D01*
X745085Y42995D01*
X745200Y43318D01*
X745343Y43622D01*
X745514Y43907D01*
X745714Y44173D01*
X745942Y44420D01*
X746198Y44649D01*
X746478Y44854D01*
X746777Y45032D01*
X747096Y45183D01*
X747434Y45306D01*
X747791Y45402D01*
X748168Y45470D01*
X748563Y45511D01*
X748979Y45525D01*
X749432Y45511D01*
X749858Y45470D01*
X750256Y45401D01*
X750629Y45305D01*
X750974Y45181D01*
X751292Y45030D01*
X751583Y44851D01*
X751847Y44644D01*
X752082Y44413D01*
X752286Y44158D01*
X752458Y43880D01*
X752599Y43579D01*
X752709Y43255D01*
X752787Y42908D01*
X752834Y42537D01*
X752850Y42144D01*
X752829Y41785D01*
X752768Y41428D01*
X752665Y41072D01*
X752521Y40716D01*
X752337Y40362D01*
X752113Y40007D01*
X751849Y39652D01*
X751545Y39297D01*
X751147Y38894D01*
X750601Y38393D01*
X749908Y37795D01*
X749066Y37099D01*
X748588Y36697D01*
X748162Y36316D01*
X747787Y35955D01*
X747463Y35614D01*
X747186Y35287D01*
X746951Y34965D01*
X746757Y34650D01*
X746605Y34340D01*
X753043Y34340D01*
X753043Y33000D01*
G37*
G36*
X647700Y-53961D02*
X647058Y-53961D01*
X647058Y-52455D01*
X642509Y-52455D01*
X643462Y-53789D01*
X642749Y-53789D01*
X641788Y-52392D01*
X641788Y-51695D01*
X647058Y-51695D01*
X647058Y-50256D01*
X647700Y-50256D01*
X647700Y-53961D01*
G37*
G36*
X646231Y-58794D02*
X646101Y-58009D01*
X646331Y-57960D01*
X646535Y-57886D01*
X646711Y-57790D01*
X646861Y-57669D01*
X646980Y-57529D01*
X647065Y-57371D01*
X647117Y-57197D01*
X647134Y-57006D01*
X647115Y-56800D01*
X647059Y-56616D01*
X646965Y-56455D01*
X646834Y-56318D01*
X646666Y-56208D01*
X646464Y-56129D01*
X646227Y-56082D01*
X645954Y-56066D01*
X642442Y-56066D01*
X642442Y-57203D01*
X641788Y-57203D01*
X641788Y-55269D01*
X645938Y-55269D01*
X646147Y-55276D01*
X646345Y-55298D01*
X646531Y-55334D01*
X646706Y-55385D01*
X646869Y-55451D01*
X647021Y-55531D01*
X647162Y-55626D01*
X647291Y-55735D01*
X647406Y-55857D01*
X647507Y-55989D01*
X647591Y-56132D01*
X647661Y-56287D01*
X647715Y-56451D01*
X647753Y-56627D01*
X647776Y-56813D01*
X647784Y-57010D01*
X647778Y-57193D01*
X647760Y-57367D01*
X647687Y-57685D01*
X647566Y-57965D01*
X647396Y-58207D01*
X647177Y-58411D01*
X646911Y-58577D01*
X646595Y-58704D01*
X646231Y-58794D01*
G37*
G36*
X2062480Y-11655D02*
X2056568Y-11655D01*
X2056568Y-9700D01*
X2056579Y-9335D01*
X2056615Y-8991D01*
X2056674Y-8669D01*
X2056756Y-8369D01*
X2056862Y-8090D01*
X2056991Y-7832D01*
X2057144Y-7596D01*
X2057321Y-7381D01*
X2057519Y-7190D01*
X2057737Y-7024D01*
X2057975Y-6884D01*
X2058233Y-6769D01*
X2058511Y-6680D01*
X2058808Y-6616D01*
X2059126Y-6578D01*
X2059463Y-6565D01*
X2059906Y-6587D01*
X2060321Y-6654D01*
X2060706Y-6766D01*
X2061064Y-6922D01*
X2061387Y-7119D01*
X2061670Y-7353D01*
X2061912Y-7624D01*
X2062115Y-7933D01*
X2062275Y-8273D01*
X2062389Y-8638D01*
X2062457Y-9028D01*
X2062480Y-9444D01*
X2062480Y-11655D01*
G37*
%LPC*%
G36*
X2061838Y-10854D02*
X2061838Y-9536D01*
X2061820Y-9221D01*
X2061767Y-8925D01*
X2061678Y-8649D01*
X2061553Y-8393D01*
X2061394Y-8160D01*
X2061204Y-7957D01*
X2060983Y-7782D01*
X2060730Y-7635D01*
X2060450Y-7519D01*
X2060145Y-7437D01*
X2059816Y-7387D01*
X2059463Y-7371D01*
X2059196Y-7380D01*
X2058946Y-7408D01*
X2058712Y-7455D01*
X2058494Y-7521D01*
X2058293Y-7606D01*
X2058108Y-7709D01*
X2057939Y-7832D01*
X2057787Y-7973D01*
X2057651Y-8132D01*
X2057534Y-8308D01*
X2057435Y-8500D01*
X2057354Y-8710D01*
X2057291Y-8936D01*
X2057246Y-9179D01*
X2057219Y-9440D01*
X2057210Y-9716D01*
X2057210Y-10854D01*
X2061838Y-10854D01*
G37*
%LPD*%
G36*
X2062480Y-17374D02*
X2056568Y-17374D01*
X2056568Y-12888D01*
X2057222Y-12888D01*
X2057222Y-16572D01*
X2059119Y-16572D01*
X2059119Y-13140D01*
X2059765Y-13140D01*
X2059765Y-16572D01*
X2061825Y-16572D01*
X2061825Y-12716D01*
X2062480Y-12716D01*
X2062480Y-17374D01*
G37*
G36*
X2062480Y-5709D02*
X2061947Y-5709D01*
X2061709Y-5596D01*
X2061485Y-5471D01*
X2061276Y-5335D01*
X2061081Y-5187D01*
X2060723Y-4870D01*
X2060401Y-4538D01*
X2059836Y-3865D01*
X2059576Y-3548D01*
X2059316Y-3263D01*
X2059050Y-3020D01*
X2058771Y-2828D01*
X2058623Y-2756D01*
X2058466Y-2704D01*
X2058300Y-2673D01*
X2058124Y-2663D01*
X2057895Y-2680D01*
X2057692Y-2734D01*
X2057517Y-2823D01*
X2057369Y-2948D01*
X2057252Y-3105D01*
X2057168Y-3289D01*
X2057117Y-3501D01*
X2057101Y-3741D01*
X2057117Y-3972D01*
X2057166Y-4181D01*
X2057248Y-4369D01*
X2057363Y-4536D01*
X2057507Y-4676D01*
X2057678Y-4784D01*
X2057875Y-4860D01*
X2058099Y-4903D01*
X2058028Y-5676D01*
X2057855Y-5648D01*
X2057691Y-5606D01*
X2057537Y-5551D01*
X2057391Y-5483D01*
X2057255Y-5401D01*
X2057127Y-5305D01*
X2056899Y-5073D01*
X2056716Y-4796D01*
X2056643Y-4643D01*
X2056584Y-4481D01*
X2056539Y-4310D01*
X2056506Y-4130D01*
X2056486Y-3940D01*
X2056480Y-3741D01*
X2056486Y-3524D01*
X2056506Y-3320D01*
X2056539Y-3129D01*
X2056585Y-2951D01*
X2056644Y-2785D01*
X2056717Y-2633D01*
X2056802Y-2493D01*
X2056901Y-2367D01*
X2057012Y-2254D01*
X2057134Y-2157D01*
X2057267Y-2074D01*
X2057412Y-2006D01*
X2057567Y-1954D01*
X2057733Y-1916D01*
X2057911Y-1894D01*
X2058099Y-1886D01*
X2058271Y-1896D01*
X2058442Y-1926D01*
X2058613Y-1975D01*
X2058783Y-2044D01*
X2058953Y-2132D01*
X2059123Y-2239D01*
X2059463Y-2512D01*
X2059896Y-2964D01*
X2060516Y-3699D01*
X2060891Y-4132D01*
X2061227Y-4467D01*
X2061539Y-4712D01*
X2061690Y-4805D01*
X2061838Y-4878D01*
X2061838Y-1794D01*
X2062480Y-1794D01*
X2062480Y-5709D01*
G37*
G36*
X2062480Y-22155D02*
X2056568Y-22155D01*
X2056568Y-21354D01*
X2061825Y-21354D01*
X2061825Y-18366D01*
X2062480Y-18366D01*
X2062480Y-22155D01*
G37*
G36*
X2125546Y-23876D02*
X2121631Y-23876D01*
X2121631Y-23343D01*
X2121744Y-23105D01*
X2121869Y-22881D01*
X2122005Y-22672D01*
X2122153Y-22477D01*
X2122470Y-22119D01*
X2122802Y-21797D01*
X2123475Y-21232D01*
X2123793Y-20972D01*
X2124077Y-20712D01*
X2124320Y-20446D01*
X2124512Y-20167D01*
X2124584Y-20019D01*
X2124636Y-19862D01*
X2124667Y-19696D01*
X2124677Y-19520D01*
X2124660Y-19291D01*
X2124606Y-19088D01*
X2124517Y-18913D01*
X2124392Y-18765D01*
X2124235Y-18648D01*
X2124051Y-18564D01*
X2123839Y-18513D01*
X2123599Y-18497D01*
X2123368Y-18513D01*
X2123159Y-18562D01*
X2122971Y-18644D01*
X2122804Y-18759D01*
X2122664Y-18903D01*
X2122556Y-19074D01*
X2122480Y-19271D01*
X2122437Y-19495D01*
X2121665Y-19424D01*
X2121692Y-19251D01*
X2121734Y-19087D01*
X2121789Y-18933D01*
X2121857Y-18787D01*
X2121939Y-18651D01*
X2122035Y-18523D01*
X2122267Y-18295D01*
X2122544Y-18112D01*
X2122697Y-18039D01*
X2122859Y-17980D01*
X2123030Y-17935D01*
X2123210Y-17902D01*
X2123400Y-17882D01*
X2123599Y-17876D01*
X2123816Y-17882D01*
X2124020Y-17902D01*
X2124211Y-17935D01*
X2124389Y-17981D01*
X2124555Y-18040D01*
X2124707Y-18113D01*
X2124847Y-18198D01*
X2124973Y-18297D01*
X2125086Y-18408D01*
X2125183Y-18530D01*
X2125266Y-18663D01*
X2125334Y-18808D01*
X2125386Y-18963D01*
X2125424Y-19129D01*
X2125446Y-19307D01*
X2125454Y-19495D01*
X2125444Y-19667D01*
X2125414Y-19838D01*
X2125365Y-20009D01*
X2125296Y-20179D01*
X2125208Y-20349D01*
X2125101Y-20519D01*
X2124828Y-20859D01*
X2124376Y-21292D01*
X2123641Y-21912D01*
X2123208Y-22287D01*
X2122873Y-22623D01*
X2122628Y-22935D01*
X2122535Y-23086D01*
X2122462Y-23234D01*
X2125546Y-23234D01*
X2125546Y-23876D01*
G37*
G36*
X2118804Y-23960D02*
X2118621Y-23954D01*
X2118447Y-23936D01*
X2118129Y-23863D01*
X2117849Y-23742D01*
X2117607Y-23572D01*
X2117403Y-23353D01*
X2117237Y-23087D01*
X2117110Y-22771D01*
X2117021Y-22407D01*
X2117805Y-22277D01*
X2117855Y-22507D01*
X2117928Y-22711D01*
X2118025Y-22887D01*
X2118145Y-23037D01*
X2118286Y-23156D01*
X2118443Y-23241D01*
X2118617Y-23293D01*
X2118808Y-23310D01*
X2119015Y-23291D01*
X2119198Y-23235D01*
X2119359Y-23141D01*
X2119496Y-23010D01*
X2119606Y-22842D01*
X2119685Y-22640D01*
X2119732Y-22403D01*
X2119748Y-22130D01*
X2119748Y-18618D01*
X2118611Y-18618D01*
X2118611Y-17964D01*
X2120545Y-17964D01*
X2120545Y-22114D01*
X2120538Y-22323D01*
X2120516Y-22521D01*
X2120480Y-22707D01*
X2120429Y-22882D01*
X2120363Y-23045D01*
X2120283Y-23197D01*
X2120189Y-23338D01*
X2120080Y-23467D01*
X2119958Y-23582D01*
X2119825Y-23683D01*
X2119682Y-23767D01*
X2119528Y-23837D01*
X2119363Y-23891D01*
X2119187Y-23929D01*
X2119001Y-23952D01*
X2118804Y-23960D01*
G37*
G36*
X2042779Y-4624D02*
X2042347Y-4601D01*
X2041946Y-4531D01*
X2041574Y-4415D01*
X2041233Y-4253D01*
X2040926Y-4047D01*
X2040658Y-3802D01*
X2040429Y-3516D01*
X2040238Y-3191D01*
X2040089Y-2830D01*
X2039982Y-2437D01*
X2039918Y-2013D01*
X2039896Y-1557D01*
X2039908Y-1213D01*
X2039944Y-888D01*
X2040004Y-582D01*
X2040087Y-296D01*
X2040195Y-28D01*
X2040326Y220D01*
X2040481Y449D01*
X2040660Y659D01*
X2040860Y847D01*
X2041079Y1010D01*
X2041315Y1147D01*
X2041571Y1260D01*
X2041844Y1348D01*
X2042136Y1410D01*
X2042446Y1448D01*
X2042775Y1461D01*
X2043228Y1437D01*
X2043641Y1368D01*
X2044017Y1253D01*
X2044353Y1091D01*
X2044649Y884D01*
X2044902Y633D01*
X2045114Y337D01*
X2045284Y-4D01*
X2044525Y-256D01*
X2044406Y-13D01*
X2044257Y200D01*
X2044076Y382D01*
X2043864Y533D01*
X2043626Y652D01*
X2043366Y738D01*
X2043085Y789D01*
X2042783Y806D01*
X2042545Y796D01*
X2042320Y766D01*
X2042108Y717D01*
X2041911Y648D01*
X2041726Y559D01*
X2041556Y451D01*
X2041399Y322D01*
X2041256Y174D01*
X2041128Y9D01*
X2041017Y-171D01*
X2040924Y-365D01*
X2040847Y-574D01*
X2040787Y-798D01*
X2040745Y-1036D01*
X2040719Y-1289D01*
X2040710Y-1557D01*
X2040719Y-1822D01*
X2040746Y-2073D01*
X2040790Y-2312D01*
X2040853Y-2537D01*
X2040933Y-2749D01*
X2041030Y-2947D01*
X2041146Y-3132D01*
X2041279Y-3304D01*
X2041427Y-3459D01*
X2041588Y-3593D01*
X2041762Y-3707D01*
X2041948Y-3800D01*
X2042146Y-3872D01*
X2042357Y-3924D01*
X2042581Y-3955D01*
X2042817Y-3965D01*
X2043118Y-3946D01*
X2043399Y-3888D01*
X2043662Y-3792D01*
X2043905Y-3658D01*
X2044129Y-3485D01*
X2044333Y-3274D01*
X2044518Y-3024D01*
X2044684Y-2736D01*
X2045339Y-3063D01*
X2045138Y-3422D01*
X2044900Y-3735D01*
X2044625Y-4003D01*
X2044313Y-4225D01*
X2043969Y-4400D01*
X2043599Y-4524D01*
X2043202Y-4599D01*
X2042994Y-4618D01*
X2042779Y-4624D01*
G37*
G36*
X2047999Y-4540D02*
X2047210Y-4540D01*
X2047218Y-4255D01*
X2047240Y-3966D01*
X2047278Y-3673D01*
X2047330Y-3377D01*
X2047481Y-2773D01*
X2047691Y-2155D01*
X2047971Y-1504D01*
X2048332Y-807D01*
X2048774Y-62D01*
X2049296Y730D01*
X2046119Y730D01*
X2046119Y1372D01*
X2050026Y1372D01*
X2050026Y760D01*
X2049606Y105D01*
X2049253Y-475D01*
X2048966Y-980D01*
X2048746Y-1410D01*
X2048571Y-1801D01*
X2048419Y-2189D01*
X2048291Y-2575D01*
X2048186Y-2958D01*
X2048104Y-3343D01*
X2048046Y-3735D01*
X2048011Y-4134D01*
X2047999Y-4540D01*
G37*
G36*
X865216Y-15930D02*
X861036Y-11749D01*
X862795Y-9990D01*
X862971Y-9824D01*
X863148Y-9679D01*
X863324Y-9554D01*
X863501Y-9448D01*
X863679Y-9364D01*
X863857Y-9299D01*
X864035Y-9255D01*
X864214Y-9230D01*
X864390Y-9227D01*
X864564Y-9243D01*
X864734Y-9280D01*
X864900Y-9338D01*
X865062Y-9416D01*
X865221Y-9515D01*
X865376Y-9634D01*
X865528Y-9773D01*
X865666Y-9924D01*
X865785Y-10079D01*
X865884Y-10239D01*
X865964Y-10403D01*
X866023Y-10571D01*
X866063Y-10744D01*
X866084Y-10922D01*
X866084Y-11104D01*
X866065Y-11287D01*
X866027Y-11468D01*
X865968Y-11647D01*
X865890Y-11823D01*
X865793Y-11997D01*
X865676Y-12169D01*
X865539Y-12339D01*
X865383Y-12506D01*
X864154Y-13734D01*
X865783Y-15363D01*
X865216Y-15930D01*
G37*
%LPC*%
G36*
X863706Y-13286D02*
X864854Y-12138D01*
X865064Y-11903D01*
X865217Y-11670D01*
X865315Y-11442D01*
X865357Y-11216D01*
X865342Y-10994D01*
X865272Y-10776D01*
X865146Y-10561D01*
X864964Y-10349D01*
X864759Y-10174D01*
X864549Y-10055D01*
X864334Y-9992D01*
X864113Y-9985D01*
X863888Y-10033D01*
X863657Y-10137D01*
X863422Y-10297D01*
X863181Y-10512D01*
X862056Y-11637D01*
X863706Y-13286D01*
G37*
%LPD*%
G36*
X869225Y-11922D02*
X868771Y-11468D01*
X869836Y-10403D01*
X866619Y-7186D01*
X866349Y-8804D01*
X865845Y-8299D01*
X866154Y-6632D01*
X866646Y-6139D01*
X870373Y-9866D01*
X871391Y-8848D01*
X871845Y-9302D01*
X869225Y-11922D01*
G37*
G36*
X861963Y-18753D02*
X861665Y-18743D01*
X861359Y-18672D01*
X861045Y-18539D01*
X860725Y-18345D01*
X861188Y-17698D01*
X861386Y-17825D01*
X861581Y-17917D01*
X861774Y-17974D01*
X861965Y-17994D01*
X862149Y-17979D01*
X862321Y-17928D01*
X862480Y-17841D01*
X862627Y-17719D01*
X862760Y-17559D01*
X862850Y-17390D01*
X862897Y-17210D01*
X862901Y-17020D01*
X862861Y-16823D01*
X862773Y-16625D01*
X862639Y-16424D01*
X862458Y-16220D01*
X859974Y-13737D01*
X859170Y-14541D01*
X858707Y-14078D01*
X860075Y-12710D01*
X863010Y-15645D01*
X863153Y-15798D01*
X863277Y-15953D01*
X863383Y-16111D01*
X863471Y-16270D01*
X863540Y-16432D01*
X863591Y-16596D01*
X863623Y-16762D01*
X863637Y-16931D01*
X863633Y-17099D01*
X863610Y-17263D01*
X863568Y-17424D01*
X863509Y-17582D01*
X863430Y-17737D01*
X863333Y-17888D01*
X863218Y-18037D01*
X863084Y-18181D01*
X862950Y-18307D01*
X862815Y-18416D01*
X862538Y-18590D01*
X862254Y-18702D01*
X861963Y-18753D01*
G37*
D10*
X732000Y30000D02*
X792000Y30000D01*
X792000Y-30000D01*
X732000Y-30000D01*
X732000Y30000D01*
D11*
X646780Y-64008D02*
X646782Y-63945D01*
X646788Y-63883D01*
X646798Y-63821D01*
X646811Y-63759D01*
X646829Y-63699D01*
X646850Y-63640D01*
X646875Y-63582D01*
X646904Y-63526D01*
X646936Y-63472D01*
X646971Y-63420D01*
X647009Y-63371D01*
X647051Y-63323D01*
X647095Y-63279D01*
X647143Y-63237D01*
X647192Y-63199D01*
X647244Y-63164D01*
X647298Y-63132D01*
X647354Y-63103D01*
X647412Y-63078D01*
X647471Y-63057D01*
X647531Y-63039D01*
X647593Y-63026D01*
X647655Y-63016D01*
X647717Y-63010D01*
X647780Y-63008D01*
X647843Y-63010D01*
X647905Y-63016D01*
X647967Y-63026D01*
X648029Y-63039D01*
X648089Y-63057D01*
X648148Y-63078D01*
X648206Y-63103D01*
X648262Y-63132D01*
X648316Y-63164D01*
X648368Y-63199D01*
X648417Y-63237D01*
X648465Y-63279D01*
X648509Y-63323D01*
X648551Y-63371D01*
X648589Y-63420D01*
X648624Y-63472D01*
X648656Y-63526D01*
X648685Y-63582D01*
X648710Y-63640D01*
X648731Y-63699D01*
X648749Y-63759D01*
X648762Y-63821D01*
X648772Y-63883D01*
X648778Y-63945D01*
X648780Y-64008D01*
X648778Y-64071D01*
X648772Y-64133D01*
X648762Y-64195D01*
X648749Y-64257D01*
X648731Y-64317D01*
X648710Y-64376D01*
X648685Y-64434D01*
X648656Y-64490D01*
X648624Y-64544D01*
X648589Y-64596D01*
X648551Y-64645D01*
X648509Y-64693D01*
X648465Y-64737D01*
X648417Y-64779D01*
X648368Y-64817D01*
X648316Y-64852D01*
X648262Y-64884D01*
X648206Y-64913D01*
X648148Y-64938D01*
X648089Y-64959D01*
X648029Y-64977D01*
X647967Y-64990D01*
X647905Y-65000D01*
X647843Y-65006D01*
X647780Y-65008D01*
X647717Y-65006D01*
X647655Y-65000D01*
X647593Y-64990D01*
X647531Y-64977D01*
X647471Y-64959D01*
X647412Y-64938D01*
X647354Y-64913D01*
X647298Y-64884D01*
X647244Y-64852D01*
X647192Y-64817D01*
X647143Y-64779D01*
X647095Y-64737D01*
X647051Y-64693D01*
X647009Y-64645D01*
X646971Y-64596D01*
X646936Y-64544D01*
X646904Y-64490D01*
X646875Y-64434D01*
X646850Y-64376D01*
X646829Y-64317D01*
X646811Y-64257D01*
X646798Y-64195D01*
X646788Y-64133D01*
X646782Y-64071D01*
X646780Y-64008D01*
X651930Y-60838D02*
X651930Y-26538D01*
X704430Y-26538D02*
X704430Y-60838D01*
D10*
X2067600Y16000D02*
X2072600Y16000D01*
X2072600Y-16000D01*
X2067600Y-16000D01*
X2067600Y16000D01*
X2073100Y10000D02*
X2073344Y9997D01*
X2073587Y9988D01*
X2073830Y9973D01*
X2074073Y9953D01*
X2074315Y9926D01*
X2074556Y9893D01*
X2074796Y9855D01*
X2075036Y9811D01*
X2075274Y9761D01*
X2075511Y9705D01*
X2075747Y9643D01*
X2075981Y9576D01*
X2076213Y9503D01*
X2076444Y9424D01*
X2076672Y9340D01*
X2076899Y9250D01*
X2077123Y9155D01*
X2077345Y9054D01*
X2077564Y8948D01*
X2077780Y8837D01*
X2077994Y8720D01*
X2078205Y8599D01*
X2078413Y8472D01*
X2078618Y8340D01*
X2078819Y8203D01*
X2079017Y8061D01*
X2079212Y7915D01*
X2079403Y7764D01*
X2079590Y7608D01*
X2079773Y7448D01*
X2079953Y7283D01*
X2080128Y7114D01*
X2080299Y6941D01*
X2080466Y6763D01*
X2080628Y6582D01*
X2080786Y6397D01*
X2080940Y6208D01*
X2081089Y6015D01*
X2081233Y5819D01*
X2081372Y5619D01*
X2081507Y5416D01*
X2081636Y5209D01*
X2081760Y5000D01*
X2081879Y4788D01*
X2081993Y4572D01*
X2082102Y4355D01*
X2082205Y4134D01*
X2082303Y3911D01*
X2082396Y3686D01*
X2082483Y3458D01*
X2082564Y3229D01*
X2082640Y2997D01*
X2082710Y2764D01*
X2082775Y2529D01*
X2082834Y2293D01*
X2082887Y2055D01*
X2082934Y1816D01*
X2082975Y1576D01*
X2083010Y1335D01*
X2083040Y1094D01*
X2083064Y851D01*
X2083081Y608D01*
X2083093Y365D01*
X2083099Y122D01*
X2083099Y-122D01*
X2083093Y-365D01*
X2083081Y-608D01*
X2083064Y-851D01*
X2083040Y-1094D01*
X2083010Y-1335D01*
X2082975Y-1576D01*
X2082934Y-1816D01*
X2082887Y-2055D01*
X2082834Y-2293D01*
X2082775Y-2529D01*
X2082710Y-2764D01*
X2082640Y-2997D01*
X2082564Y-3229D01*
X2082483Y-3458D01*
X2082396Y-3686D01*
X2082303Y-3911D01*
X2082205Y-4134D01*
X2082102Y-4355D01*
X2081993Y-4572D01*
X2081879Y-4788D01*
X2081760Y-5000D01*
X2081636Y-5209D01*
X2081507Y-5416D01*
X2081372Y-5619D01*
X2081233Y-5819D01*
X2081089Y-6015D01*
X2080940Y-6208D01*
X2080786Y-6397D01*
X2080628Y-6582D01*
X2080466Y-6763D01*
X2080299Y-6941D01*
X2080128Y-7114D01*
X2079953Y-7283D01*
X2079773Y-7448D01*
X2079590Y-7608D01*
X2079403Y-7764D01*
X2079212Y-7915D01*
X2079017Y-8061D01*
X2078819Y-8203D01*
X2078618Y-8340D01*
X2078413Y-8472D01*
X2078205Y-8599D01*
X2077994Y-8720D01*
X2077780Y-8837D01*
X2077564Y-8948D01*
X2077345Y-9054D01*
X2077123Y-9155D01*
X2076899Y-9250D01*
X2076672Y-9340D01*
X2076444Y-9424D01*
X2076213Y-9503D01*
X2075981Y-9576D01*
X2075747Y-9643D01*
X2075511Y-9705D01*
X2075274Y-9761D01*
X2075036Y-9811D01*
X2074796Y-9855D01*
X2074556Y-9893D01*
X2074315Y-9926D01*
X2074073Y-9953D01*
X2073830Y-9973D01*
X2073587Y-9988D01*
X2073344Y-9997D01*
X2073100Y-10000D01*
D12*
X2065060Y-25650D02*
X2065062Y-25550D01*
X2065068Y-25449D01*
X2065078Y-25350D01*
X2065092Y-25250D01*
X2065109Y-25151D01*
X2065131Y-25053D01*
X2065157Y-24956D01*
X2065186Y-24860D01*
X2065219Y-24766D01*
X2065256Y-24672D01*
X2065296Y-24580D01*
X2065340Y-24490D01*
X2065388Y-24402D01*
X2065439Y-24315D01*
X2065493Y-24231D01*
X2065551Y-24149D01*
X2065612Y-24069D01*
X2065676Y-23992D01*
X2065743Y-23917D01*
X2065813Y-23845D01*
X2065886Y-23776D01*
X2065961Y-23710D01*
X2066039Y-23646D01*
X2066119Y-23586D01*
X2066202Y-23529D01*
X2066287Y-23476D01*
X2066374Y-23426D01*
X2066463Y-23379D01*
X2066553Y-23336D01*
X2066645Y-23296D01*
X2066739Y-23260D01*
X2066834Y-23228D01*
X2066930Y-23200D01*
X2067028Y-23175D01*
X2067126Y-23155D01*
X2067225Y-23138D01*
X2067325Y-23125D01*
X2067424Y-23116D01*
X2067525Y-23111D01*
X2067625Y-23110D01*
X2067725Y-23113D01*
X2067826Y-23120D01*
X2067925Y-23131D01*
X2068025Y-23146D01*
X2068123Y-23164D01*
X2068221Y-23187D01*
X2068318Y-23214D01*
X2068413Y-23244D01*
X2068508Y-23278D01*
X2068601Y-23316D01*
X2068692Y-23357D01*
X2068782Y-23402D01*
X2068870Y-23450D01*
X2068956Y-23502D01*
X2069040Y-23557D01*
X2069121Y-23616D01*
X2069200Y-23678D01*
X2069277Y-23742D01*
X2069351Y-23810D01*
X2069422Y-23881D01*
X2069491Y-23954D01*
X2069556Y-24030D01*
X2069619Y-24109D01*
X2069678Y-24190D01*
X2069734Y-24273D01*
X2069787Y-24358D01*
X2069836Y-24446D01*
X2069882Y-24535D01*
X2069924Y-24626D01*
X2069963Y-24719D01*
X2069998Y-24813D01*
X2070029Y-24908D01*
X2070057Y-25005D01*
X2070080Y-25102D01*
X2070100Y-25201D01*
X2070116Y-25300D01*
X2070128Y-25399D01*
X2070136Y-25500D01*
X2070140Y-25600D01*
X2070140Y-25700D01*
X2070136Y-25800D01*
X2070128Y-25901D01*
X2070116Y-26000D01*
X2070100Y-26099D01*
X2070080Y-26198D01*
X2070057Y-26295D01*
X2070029Y-26392D01*
X2069998Y-26487D01*
X2069963Y-26581D01*
X2069924Y-26674D01*
X2069882Y-26765D01*
X2069836Y-26854D01*
X2069787Y-26942D01*
X2069734Y-27027D01*
X2069678Y-27110D01*
X2069619Y-27191D01*
X2069556Y-27270D01*
X2069491Y-27346D01*
X2069422Y-27419D01*
X2069351Y-27490D01*
X2069277Y-27558D01*
X2069200Y-27622D01*
X2069121Y-27684D01*
X2069040Y-27743D01*
X2068956Y-27798D01*
X2068870Y-27850D01*
X2068782Y-27898D01*
X2068692Y-27943D01*
X2068601Y-27984D01*
X2068508Y-28022D01*
X2068413Y-28056D01*
X2068318Y-28086D01*
X2068221Y-28113D01*
X2068123Y-28136D01*
X2068025Y-28154D01*
X2067925Y-28169D01*
X2067826Y-28180D01*
X2067725Y-28187D01*
X2067625Y-28190D01*
X2067525Y-28189D01*
X2067424Y-28184D01*
X2067325Y-28175D01*
X2067225Y-28162D01*
X2067126Y-28145D01*
X2067028Y-28125D01*
X2066930Y-28100D01*
X2066834Y-28072D01*
X2066739Y-28040D01*
X2066645Y-28004D01*
X2066553Y-27964D01*
X2066463Y-27921D01*
X2066374Y-27874D01*
X2066287Y-27824D01*
X2066202Y-27771D01*
X2066119Y-27714D01*
X2066039Y-27654D01*
X2065961Y-27590D01*
X2065886Y-27524D01*
X2065813Y-27455D01*
X2065743Y-27383D01*
X2065676Y-27308D01*
X2065612Y-27231D01*
X2065551Y-27151D01*
X2065493Y-27069D01*
X2065439Y-26985D01*
X2065388Y-26898D01*
X2065340Y-26810D01*
X2065296Y-26720D01*
X2065256Y-26628D01*
X2065219Y-26534D01*
X2065186Y-26440D01*
X2065157Y-26344D01*
X2065131Y-26247D01*
X2065109Y-26149D01*
X2065092Y-26050D01*
X2065078Y-25950D01*
X2065068Y-25851D01*
X2065062Y-25750D01*
X2065060Y-25650D01*
D10*
X2128520Y-15494D02*
X2173478Y-15494D01*
X2128520Y-15494D02*
X2128520Y15494D01*
X2173478Y15494D01*
X2173478Y-15494D01*
D12*
X2120900Y17780D02*
X2120902Y17880D01*
X2120908Y17981D01*
X2120918Y18080D01*
X2120932Y18180D01*
X2120949Y18279D01*
X2120971Y18377D01*
X2120997Y18474D01*
X2121026Y18570D01*
X2121059Y18664D01*
X2121096Y18758D01*
X2121136Y18850D01*
X2121180Y18940D01*
X2121228Y19028D01*
X2121279Y19115D01*
X2121333Y19199D01*
X2121391Y19281D01*
X2121452Y19361D01*
X2121516Y19438D01*
X2121583Y19513D01*
X2121653Y19585D01*
X2121726Y19654D01*
X2121801Y19720D01*
X2121879Y19784D01*
X2121959Y19844D01*
X2122042Y19901D01*
X2122127Y19954D01*
X2122214Y20004D01*
X2122303Y20051D01*
X2122393Y20094D01*
X2122485Y20134D01*
X2122579Y20170D01*
X2122674Y20202D01*
X2122770Y20230D01*
X2122868Y20255D01*
X2122966Y20275D01*
X2123065Y20292D01*
X2123165Y20305D01*
X2123264Y20314D01*
X2123365Y20319D01*
X2123465Y20320D01*
X2123565Y20317D01*
X2123666Y20310D01*
X2123765Y20299D01*
X2123865Y20284D01*
X2123963Y20266D01*
X2124061Y20243D01*
X2124158Y20216D01*
X2124253Y20186D01*
X2124348Y20152D01*
X2124441Y20114D01*
X2124532Y20073D01*
X2124622Y20028D01*
X2124710Y19980D01*
X2124796Y19928D01*
X2124880Y19873D01*
X2124961Y19814D01*
X2125040Y19752D01*
X2125117Y19688D01*
X2125191Y19620D01*
X2125262Y19549D01*
X2125331Y19476D01*
X2125396Y19400D01*
X2125459Y19321D01*
X2125518Y19240D01*
X2125574Y19157D01*
X2125627Y19072D01*
X2125676Y18984D01*
X2125722Y18895D01*
X2125764Y18804D01*
X2125803Y18711D01*
X2125838Y18617D01*
X2125869Y18522D01*
X2125897Y18425D01*
X2125920Y18328D01*
X2125940Y18229D01*
X2125956Y18130D01*
X2125968Y18031D01*
X2125976Y17930D01*
X2125980Y17830D01*
X2125980Y17730D01*
X2125976Y17630D01*
X2125968Y17529D01*
X2125956Y17430D01*
X2125940Y17331D01*
X2125920Y17232D01*
X2125897Y17135D01*
X2125869Y17038D01*
X2125838Y16943D01*
X2125803Y16849D01*
X2125764Y16756D01*
X2125722Y16665D01*
X2125676Y16576D01*
X2125627Y16488D01*
X2125574Y16403D01*
X2125518Y16320D01*
X2125459Y16239D01*
X2125396Y16160D01*
X2125331Y16084D01*
X2125262Y16011D01*
X2125191Y15940D01*
X2125117Y15872D01*
X2125040Y15808D01*
X2124961Y15746D01*
X2124880Y15687D01*
X2124796Y15632D01*
X2124710Y15580D01*
X2124622Y15532D01*
X2124532Y15487D01*
X2124441Y15446D01*
X2124348Y15408D01*
X2124253Y15374D01*
X2124158Y15344D01*
X2124061Y15317D01*
X2123963Y15294D01*
X2123865Y15276D01*
X2123765Y15261D01*
X2123666Y15250D01*
X2123565Y15243D01*
X2123465Y15240D01*
X2123365Y15241D01*
X2123264Y15246D01*
X2123165Y15255D01*
X2123065Y15268D01*
X2122966Y15285D01*
X2122868Y15305D01*
X2122770Y15330D01*
X2122674Y15358D01*
X2122579Y15390D01*
X2122485Y15426D01*
X2122393Y15466D01*
X2122303Y15509D01*
X2122214Y15556D01*
X2122127Y15606D01*
X2122042Y15659D01*
X2121959Y15716D01*
X2121879Y15776D01*
X2121801Y15840D01*
X2121726Y15906D01*
X2121653Y15975D01*
X2121583Y16047D01*
X2121516Y16122D01*
X2121452Y16199D01*
X2121391Y16279D01*
X2121333Y16361D01*
X2121279Y16445D01*
X2121228Y16532D01*
X2121180Y16620D01*
X2121136Y16710D01*
X2121096Y16802D01*
X2121059Y16896D01*
X2121026Y16990D01*
X2120997Y17086D01*
X2120971Y17183D01*
X2120949Y17281D01*
X2120932Y17380D01*
X2120918Y17480D01*
X2120908Y17579D01*
X2120902Y17680D01*
X2120900Y17780D01*
D13*
X2031960Y-3890D02*
X2026960Y-3890D01*
X2031960Y-3890D02*
X2031960Y-13890D01*
X2026960Y-13890D01*
X2026960Y-3890D01*
D10*
X879629Y-10498D02*
X834728Y-55399D01*
X879629Y-10498D02*
X900284Y-31152D01*
X855382Y-76054D02*
X834728Y-55399D01*
X855382Y-76054D02*
X850892Y-80544D01*
X855382Y-76054D02*
X904774Y-26662D01*
X880752Y-38561D02*
X875139Y-32948D01*
X880752Y-38561D02*
X880865Y-38672D01*
X880981Y-38779D01*
X881100Y-38884D01*
X881221Y-38986D01*
X881345Y-39085D01*
X881471Y-39180D01*
X881600Y-39273D01*
X881731Y-39362D01*
X881864Y-39448D01*
X881999Y-39530D01*
X882136Y-39609D01*
X882275Y-39685D01*
X882416Y-39757D01*
X882558Y-39826D01*
X882703Y-39891D01*
X882849Y-39953D01*
X882996Y-40011D01*
X883145Y-40065D01*
X883295Y-40115D01*
X883446Y-40162D01*
X883598Y-40205D01*
X883752Y-40244D01*
X883906Y-40279D01*
X884061Y-40310D01*
X884217Y-40338D01*
X884374Y-40361D01*
X884531Y-40381D01*
X884689Y-40397D01*
X884846Y-40409D01*
X885005Y-40417D01*
X885163Y-40421D01*
X885321Y-40421D01*
X885479Y-40417D01*
X885638Y-40409D01*
X885795Y-40397D01*
X885953Y-40381D01*
X886110Y-40361D01*
X886267Y-40338D01*
X886423Y-40310D01*
X886578Y-40279D01*
X886732Y-40244D01*
X886886Y-40205D01*
X887038Y-40162D01*
X887189Y-40115D01*
X887339Y-40065D01*
X887488Y-40011D01*
X887635Y-39953D01*
X887781Y-39891D01*
X887926Y-39826D01*
X888068Y-39757D01*
X888209Y-39685D01*
X888348Y-39609D01*
X888485Y-39530D01*
X888620Y-39448D01*
X888753Y-39362D01*
X888884Y-39273D01*
X889013Y-39180D01*
X889139Y-39085D01*
X889263Y-38986D01*
X889384Y-38884D01*
X889503Y-38779D01*
X889619Y-38672D01*
X889732Y-38561D01*
X889843Y-38448D01*
X889950Y-38332D01*
X890055Y-38213D01*
X890157Y-38092D01*
X890256Y-37968D01*
X890351Y-37842D01*
X890444Y-37713D01*
X890533Y-37582D01*
X890619Y-37449D01*
X890701Y-37314D01*
X890780Y-37177D01*
X890856Y-37038D01*
X890928Y-36897D01*
X890997Y-36755D01*
X891062Y-36610D01*
X891124Y-36464D01*
X891182Y-36317D01*
X891236Y-36168D01*
X891286Y-36018D01*
X891333Y-35867D01*
X891376Y-35715D01*
X891415Y-35561D01*
X891450Y-35407D01*
X891481Y-35252D01*
X891509Y-35096D01*
X891532Y-34939D01*
X891552Y-34782D01*
X891568Y-34624D01*
X891580Y-34467D01*
X891588Y-34308D01*
X891592Y-34150D01*
X891592Y-33992D01*
X891588Y-33834D01*
X891580Y-33675D01*
X891568Y-33518D01*
X891552Y-33360D01*
X891532Y-33203D01*
X891509Y-33046D01*
X891481Y-32890D01*
X891450Y-32735D01*
X891415Y-32581D01*
X891376Y-32427D01*
X891333Y-32275D01*
X891286Y-32124D01*
X891236Y-31974D01*
X891182Y-31825D01*
X891124Y-31678D01*
X891062Y-31532D01*
X890997Y-31387D01*
X890928Y-31245D01*
X890856Y-31104D01*
X890780Y-30965D01*
X890701Y-30828D01*
X890619Y-30693D01*
X890533Y-30560D01*
X890444Y-30429D01*
X890351Y-30300D01*
X890256Y-30174D01*
X890157Y-30050D01*
X890055Y-29929D01*
X889950Y-29810D01*
X889843Y-29694D01*
X889732Y-29581D01*
X884119Y-23968D01*
M02*
