G04 EAGLE Gerber RS-274X export*
G75*
%MOMM*%
%FSLAX34Y34*%
%LPD*%
%INSoldermask Bottom*%
%IPPOS*%
%AMOC8*
5,1,8,0,0,1.08239X$1,22.5*%
G01*
G04 Define Apertures*
%ADD10R,0.753200X1.003200*%
%ADD11R,0.803200X0.903200*%
%ADD12R,0.903200X0.803200*%
%ADD13R,1.003200X1.003200*%
%ADD14R,0.603200X1.003200*%
%ADD15R,1.003200X0.603200*%
%ADD16R,1.403200X1.403200*%
%ADD17C,0.269722*%
%ADD18R,1.103200X1.503200*%
%ADD19C,0.267388*%
%ADD20R,0.503200X1.143200*%
%ADD21R,0.678200X0.453200*%
%ADD22R,0.453200X0.678200*%
%ADD23R,2.997200X1.092200*%
%ADD24R,1.203200X1.203200*%
%ADD25R,0.703200X0.703200*%
%ADD26C,1.003200*%
%ADD27C,0.903200*%
%ADD28C,0.959600*%
%ADD29C,0.909600*%
G36*
X709240Y9450D02*
X709240Y17021D01*
X715769Y23550D01*
X723340Y23550D01*
X723340Y9450D01*
X709240Y9450D01*
G37*
D10*
X1269898Y12000D03*
X1279398Y12000D03*
X1288898Y12000D03*
X1288898Y-12000D03*
X1279398Y-12000D03*
X1269898Y-12000D03*
D11*
X1255442Y-11430D03*
X1245442Y-11430D03*
D12*
X993300Y-5690D03*
X993300Y13310D03*
X1013300Y3810D03*
X970120Y13310D03*
X970120Y-5690D03*
X950120Y3810D03*
X981710Y18970D03*
X981710Y8970D03*
X981710Y-1350D03*
X981710Y-11350D03*
D13*
X662790Y70000D03*
X802790Y70000D03*
X662790Y-70000D03*
X802790Y-70000D03*
D14*
X673290Y70000D03*
X681790Y70000D03*
X690290Y70000D03*
X698790Y70000D03*
X707290Y70000D03*
X715790Y70000D03*
X724290Y70000D03*
X732790Y70000D03*
X741290Y70000D03*
X749790Y70000D03*
X758290Y70000D03*
X766790Y70000D03*
X775290Y70000D03*
X783790Y70000D03*
X792290Y70000D03*
D15*
X802790Y59500D03*
X802790Y51000D03*
X802790Y42500D03*
X802790Y34000D03*
X802790Y25500D03*
X802790Y17000D03*
X802790Y8500D03*
X802790Y0D03*
X802790Y-8500D03*
X802790Y-17000D03*
X802790Y-25500D03*
X802790Y-34000D03*
X802790Y-42500D03*
X802790Y-51000D03*
X802790Y-59500D03*
D14*
X792290Y-70000D03*
X783790Y-70000D03*
X775290Y-70000D03*
X766790Y-70000D03*
X758290Y-70000D03*
X749790Y-70000D03*
X741290Y-70000D03*
X732790Y-70000D03*
X724290Y-70000D03*
X715790Y-70000D03*
X707290Y-70000D03*
X698790Y-70000D03*
X690290Y-70000D03*
X681790Y-70000D03*
X673290Y-70000D03*
D15*
X662790Y-59500D03*
X662790Y-51000D03*
X662790Y-42500D03*
X662790Y-34000D03*
X662790Y-25500D03*
X662790Y-17000D03*
X662790Y-8500D03*
X662790Y0D03*
X662790Y8500D03*
X662790Y17000D03*
X662790Y25500D03*
X662790Y34000D03*
X662790Y42500D03*
X662790Y51000D03*
X662790Y59500D03*
D16*
X732790Y0D03*
X716290Y0D03*
X716290Y-16500D03*
X732790Y-16500D03*
X749290Y-16500D03*
X749290Y0D03*
X749290Y16500D03*
X732790Y16500D03*
D12*
G36*
X844709Y57230D02*
X838323Y63616D01*
X844003Y69296D01*
X850389Y62910D01*
X844709Y57230D01*
G37*
G36*
X851781Y64301D02*
X845395Y70687D01*
X851075Y76367D01*
X857461Y69981D01*
X851781Y64301D01*
G37*
G36*
X851695Y50289D02*
X845309Y56675D01*
X850989Y62355D01*
X857375Y55969D01*
X851695Y50289D01*
G37*
G36*
X858766Y57360D02*
X852380Y63746D01*
X858060Y69426D01*
X864446Y63040D01*
X858766Y57360D01*
G37*
G36*
X859315Y42669D02*
X852929Y49055D01*
X858609Y54735D01*
X864995Y48349D01*
X859315Y42669D01*
G37*
G36*
X866386Y49740D02*
X860000Y56126D01*
X865680Y61806D01*
X872066Y55420D01*
X866386Y49740D01*
G37*
G36*
X866935Y35049D02*
X860549Y41435D01*
X866229Y47115D01*
X872615Y40729D01*
X866935Y35049D01*
G37*
G36*
X874006Y42120D02*
X867620Y48506D01*
X873300Y54186D01*
X879686Y47800D01*
X874006Y42120D01*
G37*
G36*
X883445Y18539D02*
X877059Y24925D01*
X882739Y30605D01*
X889125Y24219D01*
X883445Y18539D01*
G37*
G36*
X890516Y25610D02*
X884130Y31996D01*
X889810Y37676D01*
X896196Y31290D01*
X890516Y25610D01*
G37*
G36*
X890430Y11554D02*
X884044Y17940D01*
X889724Y23620D01*
X896110Y17234D01*
X890430Y11554D01*
G37*
G36*
X897501Y18625D02*
X891115Y25011D01*
X896795Y30691D01*
X903181Y24305D01*
X897501Y18625D01*
G37*
D11*
X933530Y-6350D03*
X943530Y-6350D03*
X933530Y-16510D03*
X943530Y-16510D03*
X835580Y8890D03*
X825580Y8890D03*
X835580Y20320D03*
X825580Y20320D03*
X834310Y-17414D03*
X824310Y-17414D03*
X834310Y-5080D03*
X824310Y-5080D03*
D17*
X1065562Y18678D02*
X1072498Y18678D01*
X1072498Y16642D01*
X1065562Y16642D01*
X1065562Y18678D01*
X1065562Y13678D02*
X1072498Y13678D01*
X1072498Y11642D01*
X1065562Y11642D01*
X1065562Y13678D01*
X1065562Y8678D02*
X1072498Y8678D01*
X1072498Y6642D01*
X1065562Y6642D01*
X1065562Y8678D01*
X1065562Y3678D02*
X1072498Y3678D01*
X1072498Y1642D01*
X1065562Y1642D01*
X1065562Y3678D01*
X1052798Y3678D02*
X1045862Y3678D01*
X1052798Y3678D02*
X1052798Y1642D01*
X1045862Y1642D01*
X1045862Y3678D01*
X1045862Y8678D02*
X1052798Y8678D01*
X1052798Y6642D01*
X1045862Y6642D01*
X1045862Y8678D01*
X1045862Y13678D02*
X1052798Y13678D01*
X1052798Y11642D01*
X1045862Y11642D01*
X1045862Y13678D01*
X1045862Y18678D02*
X1052798Y18678D01*
X1052798Y16642D01*
X1045862Y16642D01*
X1045862Y18678D01*
D18*
X1059180Y10160D03*
D11*
X1023700Y5080D03*
X1033700Y5080D03*
X1083390Y10160D03*
X1093390Y10160D03*
X1054180Y-8890D03*
X1064180Y-8890D03*
D19*
X914889Y9041D02*
X912431Y9041D01*
X912431Y10899D01*
X914889Y10899D01*
X914889Y9041D01*
X914889Y13041D02*
X912431Y13041D01*
X912431Y14899D01*
X914889Y14899D01*
X914889Y13041D01*
X914889Y17041D02*
X912431Y17041D01*
X912431Y18899D01*
X914889Y18899D01*
X914889Y17041D01*
X921531Y17041D02*
X923989Y17041D01*
X921531Y17041D02*
X921531Y18899D01*
X923989Y18899D01*
X923989Y17041D01*
X923989Y13041D02*
X921531Y13041D01*
X921531Y14899D01*
X923989Y14899D01*
X923989Y13041D01*
X923989Y9041D02*
X921531Y9041D01*
X921531Y10899D01*
X923989Y10899D01*
X923989Y9041D01*
D20*
X918210Y13970D03*
D12*
X939800Y7700D03*
X939800Y17700D03*
X913130Y1190D03*
X913130Y-8810D03*
D21*
X1953455Y6310D03*
X1953455Y1310D03*
X1953455Y-3690D03*
X1953455Y11310D03*
X1930205Y6310D03*
X1930205Y1310D03*
X1930205Y-3690D03*
X1930205Y11310D03*
D22*
X1941830Y12935D03*
X1946830Y12935D03*
X1936830Y12935D03*
X1941830Y-5315D03*
X1946830Y-5315D03*
X1936830Y-5315D03*
D11*
X1916350Y-3810D03*
X1906350Y-3810D03*
X1916350Y-15240D03*
X1906350Y-15240D03*
X1396390Y7460D03*
X1415390Y7460D03*
X1405890Y-12540D03*
X1416130Y-17780D03*
X1426130Y-17780D03*
X1410890Y17780D03*
X1400890Y17780D03*
X1492910Y8730D03*
X1511910Y8730D03*
X1502410Y-11270D03*
D12*
X1465946Y12620D03*
X1465946Y2620D03*
X1478280Y2620D03*
X1478280Y12620D03*
D11*
X1512650Y-16510D03*
X1522650Y-16510D03*
X1983820Y-15240D03*
X1993820Y-15240D03*
D23*
X2112010Y-6350D03*
X2112010Y6350D03*
D24*
X2070100Y14250D03*
X2070100Y-14250D03*
D25*
X2067600Y3750D03*
X2067600Y-3750D03*
D12*
X2028190Y-1190D03*
X2028190Y8810D03*
D11*
X1871900Y-13970D03*
X1861900Y-13970D03*
X1871900Y0D03*
X1861900Y0D03*
D26*
X858839Y-61550D02*
X853891Y-56602D01*
X862872Y-47622D02*
X867820Y-52570D01*
X876800Y-43590D02*
X871852Y-38642D01*
X880832Y-29661D02*
X885780Y-34609D01*
D27*
X843708Y-55399D03*
X852688Y-46419D03*
X861669Y-37439D03*
X870649Y-28458D03*
X879629Y-19478D03*
D28*
X1531620Y-16510D03*
D29*
X1229360Y-3354D03*
X1189990Y-10136D03*
X840392Y71398D03*
X815340Y71120D03*
X723900Y0D03*
X723900Y8890D03*
X723900Y-8890D03*
X819150Y-41910D03*
X1019810Y-10160D03*
X1120140Y-12700D03*
D28*
X956310Y12982D03*
X2057400Y-19078D03*
X2057400Y19078D03*
X1891030Y-19078D03*
X1934210Y-15014D03*
X1965960Y3838D03*
D29*
X740410Y8890D03*
X740410Y-7620D03*
X706120Y-53340D03*
D28*
X829310Y-71120D03*
X2090420Y6350D03*
D29*
X1311910Y-2008D03*
D28*
X2101850Y19050D03*
X1489583Y-2105D03*
D29*
X1301750Y-10950D03*
D28*
X1435662Y-12928D03*
X1236980Y-10950D03*
X896620Y-22860D03*
D29*
X960120Y-8048D03*
D28*
X2044141Y-4092D03*
X1973580Y-18006D03*
D29*
X688340Y42192D03*
X870114Y29465D03*
X839776Y48086D03*
X689610Y60678D03*
X736600Y-43180D03*
D28*
X880720Y39980D03*
X922961Y-5409D03*
X1365250Y790D03*
X829310Y71148D03*
X843915Y19685D03*
X1891030Y3810D03*
X1845310Y3838D03*
D29*
X689534Y1346D03*
X714652Y-57376D03*
X833600Y-61722D03*
X698500Y-2540D03*
X861432Y-22180D03*
X723740Y-59916D03*
X674370Y8890D03*
X851097Y44015D03*
X822521Y56817D03*
X758190Y-33020D03*
X930274Y4088D03*
D28*
X1064260Y-17780D03*
X844550Y8890D03*
X790764Y5904D03*
X783590Y226D03*
X785796Y-42244D03*
X792480Y-50800D03*
X791210Y-59888D03*
X774700Y-59690D03*
X767080Y-53340D03*
X757964Y-59690D03*
X749300Y-53340D03*
X741680Y-59690D03*
X732790Y-53340D03*
X791210Y-34806D03*
X758114Y55804D03*
X767080Y59690D03*
X775894Y54534D03*
X783514Y59766D03*
X791210Y54610D03*
X732790Y59690D03*
X723702Y53340D03*
X714614Y60150D03*
X706796Y54610D03*
D29*
X824230Y-26670D03*
X864454Y3292D03*
X816836Y8890D03*
X741680Y54328D03*
X1030658Y16030D03*
D28*
X1830015Y-3746D03*
D29*
X1039246Y19078D03*
D28*
X1819657Y-2766D03*
D29*
X749759Y59948D03*
X1029631Y-10950D03*
X894152Y-6012D03*
X871905Y10526D03*
X830881Y29440D03*
X823500Y42826D03*
D28*
X1973580Y-2540D03*
X1852762Y-5873D03*
D29*
X814381Y48501D03*
D28*
X1840736Y-11458D03*
D29*
X821464Y-57376D03*
X1428537Y4088D03*
X1446002Y-943D03*
D28*
X2009583Y-7177D03*
X2087880Y-6350D03*
X1536700Y6886D03*
D29*
X1456788Y7136D03*
X814704Y35166D03*
D28*
X2098040Y-17780D03*
X2005062Y-15508D03*
X2038036Y2686D03*
X782122Y-53340D03*
M02*
