M48
;GenerationSoftware,Autodesk,EAGLE,9.7.0*%
;CreationDate,2026-01-05T21:03:36Z*%
FMAT,2
ICI,OFF
METRIC,TZ,000.000
T3C0.300
T2C0.350
T1C0.700
%
G90
M71
T1
X87065Y-2846
X86167Y-3744
X85269Y-4642
X84371Y-5540
X87963Y-1948
T2
X153162Y-1651
X76708Y-5334
X75796Y-5969
X74930Y-5334
X74168Y-5969
X73279Y-5334
X79121Y-3481
X75811Y5580
X76708Y5969
X77589Y5453
X78351Y5977
X95631Y1298
X205740Y-1908
X205740Y1908
X189103Y-1908
X193421Y-1501
X196596Y384
X79121Y5461
X73279Y5969
X72370Y5334
X82931Y-7112
X209042Y635
X71461Y6015
X210185Y1905
X148958Y-210
X70680Y5461
X143566Y-1293
X123698Y-1095
X89662Y-2286
X183001Y-375
X204414Y-409
X197358Y-1801
X181966Y-277
X197358Y-254
X185276Y-587
X184074Y-1146
X200958Y-718
X88072Y3998
X92296Y-541
X136525Y79
X82931Y7115
X84392Y1968
X189103Y381
X184531Y384
X208788Y-635
X153670Y689
X209804Y-1778
X200506Y-1551
X203804Y269
X78212Y-5334
X106426Y-1778
X84455Y889
X79076Y590
X78359Y23
X78580Y-4224
X79248Y-5080
X79121Y-5989
X77470Y-5969
T3
X122936Y-335
X118999Y-1014
X84039Y7140
X81534Y7112
X72390Y0
X72390Y889
X72390Y-889
X81915Y-4191
X101981Y-1016
X112014Y-1270
X74041Y889
X74041Y-762
X70612Y-5334
X131191Y-201
X130175Y-1095
X96012Y-805
X68834Y4219
X87011Y2947
X83978Y4809
X68961Y6068
X73660Y-4318
X68953Y135
X71465Y-5738
X83360Y-6172
X69850Y-254
X86143Y-2218
X72374Y-5992
X83088Y2944
X82350Y4283
X81684Y889
X74168Y5433
X81438Y4850
X103066Y1603
X82146Y-5738
X142854Y409
X103925Y1908
X82423Y-2667
X93027Y409
X86445Y329
X145679Y714
X81470Y3517
X74976Y5995
X102963Y-1095
X89415Y-601
X87190Y1053
X75819Y-3302
X82252Y5682
X85110Y4401
X67437Y889
X144600Y-94
M30