G04 EAGLE Gerber RS-274X export*
G75*
%MOMM*%
%FSLAX34Y34*%
%LPD*%
%INBottom Copper*%
%IPPOS*%
%AMOC8*
5,1,8,0,0,1.08239X$1,22.5*%
G01*
G04 Define Apertures*
%ADD10C,1.800000*%
%ADD11R,0.600000X1.100000*%
%ADD12R,0.700000X0.600000*%
%ADD13R,0.600000X0.700000*%
%ADD14R,1.000000X1.000000*%
%ADD15C,1.300000*%
%ADD16R,0.800000X1.000000*%
%ADD17R,2.700000X1.250000*%
%ADD18R,0.950000X1.050000*%
%ADD19C,0.150000*%
%ADD20R,1.270000X1.270000*%
%ADD21R,0.250000X0.250000*%
%ADD22R,0.762000X1.524000*%
%ADD23C,0.756400*%
%ADD24C,0.508000*%
%ADD25C,0.254000*%
%ADD26C,0.812800*%
%ADD27C,0.304800*%
%ADD28C,0.152400*%
G36*
X710735Y-48200D02*
X710438Y-48260D01*
X569860Y-48260D01*
X569597Y-48213D01*
X569339Y-48054D01*
X569164Y-47806D01*
X569099Y-47510D01*
X569154Y-47212D01*
X569322Y-46959D01*
X569605Y-46676D01*
X569605Y-42280D01*
X566497Y-39172D01*
X562542Y-39172D01*
X562256Y-39116D01*
X562003Y-38949D01*
X558231Y-35177D01*
X558078Y-34957D01*
X558008Y-34662D01*
X558059Y-34363D01*
X558222Y-34108D01*
X558472Y-33936D01*
X558770Y-33876D01*
X566041Y-33876D01*
X566327Y-33932D01*
X566580Y-34099D01*
X573149Y-40668D01*
X573587Y-40668D01*
X573873Y-40724D01*
X574125Y-40891D01*
X576922Y-43688D01*
X581318Y-43688D01*
X584426Y-40580D01*
X584426Y-36184D01*
X581318Y-33076D01*
X576922Y-33076D01*
X575011Y-34987D01*
X574781Y-35145D01*
X574485Y-35210D01*
X574187Y-35154D01*
X573934Y-34987D01*
X568251Y-29304D01*
X533606Y-29304D01*
X533331Y-29253D01*
X533076Y-29089D01*
X532904Y-28839D01*
X532844Y-28542D01*
X532844Y-27459D01*
X531951Y-26566D01*
X524689Y-26566D01*
X523796Y-27459D01*
X523796Y-31726D01*
X523749Y-31990D01*
X523590Y-32248D01*
X523342Y-32423D01*
X523046Y-32488D01*
X522748Y-32433D01*
X522495Y-32265D01*
X508264Y-18034D01*
X448436Y-18034D01*
X448161Y-17983D01*
X447906Y-17819D01*
X447734Y-17569D01*
X447674Y-17272D01*
X447674Y-16189D01*
X446781Y-15296D01*
X445896Y-15296D01*
X445621Y-15245D01*
X445366Y-15081D01*
X445194Y-14831D01*
X445134Y-14534D01*
X445134Y-13716D01*
X445185Y-13441D01*
X445349Y-13186D01*
X445599Y-13014D01*
X445896Y-12954D01*
X456436Y-12954D01*
X456722Y-13010D01*
X456975Y-13177D01*
X458385Y-14588D01*
X492283Y-14588D01*
X505124Y-1747D01*
X505366Y-1584D01*
X505663Y-1524D01*
X507874Y-1524D01*
X508149Y-1575D01*
X508404Y-1739D01*
X508576Y-1989D01*
X508636Y-2286D01*
X508636Y-2861D01*
X509529Y-3754D01*
X516791Y-3754D01*
X517621Y-2924D01*
X517852Y-2766D01*
X518148Y-2701D01*
X518446Y-2757D01*
X518699Y-2924D01*
X518727Y-2952D01*
X518890Y-3194D01*
X518950Y-3491D01*
X518950Y-5804D01*
X518899Y-6079D01*
X518735Y-6334D01*
X518485Y-6506D01*
X518188Y-6566D01*
X515189Y-6566D01*
X514296Y-7459D01*
X514296Y-15721D01*
X515189Y-16614D01*
X522451Y-16614D01*
X523344Y-15721D01*
X523344Y-12737D01*
X523391Y-12474D01*
X523550Y-12216D01*
X523798Y-12041D01*
X524094Y-11976D01*
X524392Y-12031D01*
X524645Y-12199D01*
X526122Y-13676D01*
X530109Y-13676D01*
X530395Y-13732D01*
X530648Y-13899D01*
X531133Y-14384D01*
X532534Y-14384D01*
X532809Y-14435D01*
X533064Y-14599D01*
X533236Y-14849D01*
X533296Y-15146D01*
X533296Y-15721D01*
X534189Y-16614D01*
X541451Y-16614D01*
X542344Y-15721D01*
X542344Y-15146D01*
X542395Y-14871D01*
X542559Y-14616D01*
X542809Y-14444D01*
X543106Y-14384D01*
X544717Y-14384D01*
X546354Y-12747D01*
X546354Y-4516D01*
X546405Y-4241D01*
X546569Y-3986D01*
X546819Y-3814D01*
X547110Y-3755D01*
X548004Y-2861D01*
X548004Y5401D01*
X547111Y6294D01*
X539849Y6294D01*
X539019Y5464D01*
X538788Y5306D01*
X538492Y5241D01*
X538194Y5297D01*
X537941Y5464D01*
X537111Y6294D01*
X537036Y6294D01*
X536761Y6345D01*
X536506Y6509D01*
X536334Y6759D01*
X536274Y7056D01*
X536274Y8317D01*
X536330Y8603D01*
X536497Y8856D01*
X536524Y8883D01*
X536766Y9046D01*
X537063Y9106D01*
X541451Y9106D01*
X542344Y9999D01*
X542344Y18261D01*
X541451Y19154D01*
X534189Y19154D01*
X533296Y18261D01*
X533296Y13873D01*
X533240Y13587D01*
X533073Y13334D01*
X530686Y10947D01*
X530686Y7056D01*
X530635Y6781D01*
X530471Y6526D01*
X530221Y6354D01*
X529924Y6294D01*
X529849Y6294D01*
X528859Y5304D01*
X528628Y5146D01*
X528332Y5081D01*
X528034Y5137D01*
X527781Y5304D01*
X526791Y6294D01*
X519529Y6294D01*
X518699Y5464D01*
X518468Y5306D01*
X518172Y5241D01*
X517874Y5297D01*
X517621Y5464D01*
X516791Y6294D01*
X516775Y6294D01*
X516512Y6341D01*
X516254Y6500D01*
X516078Y6748D01*
X516013Y7044D01*
X516069Y7342D01*
X516236Y7595D01*
X517524Y8883D01*
X517766Y9046D01*
X518063Y9106D01*
X522451Y9106D01*
X523344Y9999D01*
X523344Y18261D01*
X522451Y19154D01*
X515189Y19154D01*
X514296Y18261D01*
X514296Y13873D01*
X514240Y13587D01*
X514073Y13334D01*
X510366Y9627D01*
X510366Y7056D01*
X510315Y6781D01*
X510151Y6526D01*
X509901Y6354D01*
X509604Y6294D01*
X509529Y6294D01*
X508636Y5401D01*
X508636Y4826D01*
X508585Y4551D01*
X508421Y4296D01*
X508171Y4124D01*
X507874Y4064D01*
X503033Y4064D01*
X490192Y-8777D01*
X489950Y-8940D01*
X489653Y-9000D01*
X472151Y-9000D01*
X471888Y-8953D01*
X471629Y-8794D01*
X471454Y-8546D01*
X471389Y-8250D01*
X471445Y-7952D01*
X471612Y-7699D01*
X473350Y-5961D01*
X474952Y-2093D01*
X474952Y2093D01*
X473350Y5961D01*
X470389Y8922D01*
X466521Y10524D01*
X462335Y10524D01*
X458467Y8922D01*
X455506Y5961D01*
X453904Y2093D01*
X453904Y-2093D01*
X455506Y-5961D01*
X455610Y-6065D01*
X455763Y-6285D01*
X455833Y-6580D01*
X455782Y-6879D01*
X455619Y-7134D01*
X455368Y-7306D01*
X455071Y-7366D01*
X445896Y-7366D01*
X445621Y-7315D01*
X445366Y-7151D01*
X445194Y-6901D01*
X445134Y-6604D01*
X445134Y-6029D01*
X444241Y-5136D01*
X436979Y-5136D01*
X436149Y-5966D01*
X435918Y-6124D01*
X435622Y-6189D01*
X435324Y-6133D01*
X435071Y-5966D01*
X434241Y-5136D01*
X426979Y-5136D01*
X426086Y-6029D01*
X426086Y-10417D01*
X426030Y-10703D01*
X425863Y-10956D01*
X421565Y-15254D01*
X421323Y-15417D01*
X421026Y-15477D01*
X417872Y-15477D01*
X417609Y-15430D01*
X417351Y-15271D01*
X417176Y-15024D01*
X417110Y-14727D01*
X417166Y-14429D01*
X417334Y-14176D01*
X418220Y-13290D01*
X418327Y-13172D01*
X418413Y-13058D01*
X418488Y-12936D01*
X418551Y-12808D01*
X418583Y-12726D01*
X418757Y-12458D01*
X419010Y-12291D01*
X419131Y-12242D01*
X419258Y-12177D01*
X419378Y-12100D01*
X419494Y-12010D01*
X419585Y-11925D01*
X421755Y-9755D01*
X421863Y-9636D01*
X421949Y-9522D01*
X422024Y-9401D01*
X422087Y-9273D01*
X422138Y-9140D01*
X422176Y-9002D01*
X422201Y-8862D01*
X422213Y-8720D01*
X422212Y-8577D01*
X422197Y-8435D01*
X422170Y-8295D01*
X422129Y-8158D01*
X422076Y-8026D01*
X422010Y-7899D01*
X421933Y-7779D01*
X421843Y-7664D01*
X421758Y-7572D01*
X416091Y-1905D01*
X415903Y-1740D01*
X415618Y-1522D01*
X415487Y-1430D01*
X415359Y-1358D01*
X415302Y-1332D01*
X414991Y-1069D01*
X414873Y-790D01*
X414873Y-487D01*
X414888Y-413D01*
X414913Y-217D01*
X414922Y-19D01*
X414916Y179D01*
X414894Y375D01*
X414871Y499D01*
X414899Y887D01*
X415052Y1149D01*
X415295Y1330D01*
X415388Y1373D01*
X415514Y1448D01*
X415615Y1519D01*
X415903Y1740D01*
X416091Y1905D01*
X421755Y7569D01*
X421863Y7688D01*
X421949Y7802D01*
X422024Y7924D01*
X422087Y8051D01*
X422138Y8184D01*
X422176Y8322D01*
X422201Y8462D01*
X422213Y8604D01*
X422212Y8747D01*
X422197Y8889D01*
X422170Y9029D01*
X422129Y9166D01*
X422076Y9298D01*
X422010Y9425D01*
X421933Y9545D01*
X421843Y9660D01*
X421758Y9752D01*
X419588Y11922D01*
X419470Y12030D01*
X419356Y12116D01*
X419234Y12191D01*
X419106Y12254D01*
X419024Y12285D01*
X418756Y12459D01*
X418589Y12712D01*
X418540Y12833D01*
X418474Y12960D01*
X418397Y13081D01*
X418307Y13196D01*
X418222Y13288D01*
X416052Y15457D01*
X415934Y15565D01*
X415820Y15651D01*
X415698Y15726D01*
X415571Y15789D01*
X415488Y15820D01*
X415220Y15994D01*
X415053Y16248D01*
X415005Y16369D01*
X414939Y16496D01*
X414862Y16616D01*
X414772Y16731D01*
X414687Y16823D01*
X412517Y18993D01*
X412399Y19101D01*
X412285Y19187D01*
X412163Y19262D01*
X412035Y19325D01*
X411953Y19356D01*
X411685Y19530D01*
X411518Y19783D01*
X411469Y19905D01*
X411403Y20032D01*
X411326Y20152D01*
X411236Y20267D01*
X411151Y20359D01*
X408981Y22529D01*
X408863Y22636D01*
X408749Y22722D01*
X408627Y22797D01*
X408499Y22860D01*
X408417Y22892D01*
X408149Y23066D01*
X407982Y23319D01*
X407933Y23440D01*
X407868Y23567D01*
X407791Y23687D01*
X407701Y23802D01*
X407616Y23894D01*
X405446Y26064D01*
X405327Y26172D01*
X405214Y26258D01*
X405092Y26333D01*
X404964Y26396D01*
X404882Y26427D01*
X404614Y26601D01*
X404447Y26854D01*
X404398Y26976D01*
X404332Y27103D01*
X404255Y27223D01*
X404165Y27338D01*
X404080Y27430D01*
X401910Y29600D01*
X401792Y29707D01*
X401678Y29793D01*
X401556Y29868D01*
X401428Y29931D01*
X401346Y29963D01*
X401078Y30137D01*
X400911Y30390D01*
X400862Y30511D01*
X400797Y30638D01*
X400720Y30758D01*
X400630Y30874D01*
X400545Y30965D01*
X398375Y33135D01*
X398256Y33243D01*
X398142Y33329D01*
X398021Y33404D01*
X397893Y33467D01*
X397760Y33518D01*
X397622Y33556D01*
X397314Y33726D01*
X397276Y33778D01*
X397161Y33660D01*
X396946Y33570D01*
X396949Y33560D01*
X396778Y33509D01*
X396646Y33456D01*
X396519Y33390D01*
X396399Y33313D01*
X396284Y33223D01*
X396192Y33138D01*
X390525Y27471D01*
X390360Y27283D01*
X390142Y26998D01*
X390050Y26867D01*
X389978Y26739D01*
X389952Y26682D01*
X389689Y26370D01*
X389410Y26253D01*
X389107Y26253D01*
X389033Y26268D01*
X388837Y26293D01*
X388639Y26302D01*
X388442Y26296D01*
X388245Y26274D01*
X388121Y26251D01*
X387733Y26279D01*
X387471Y26432D01*
X387290Y26675D01*
X387247Y26768D01*
X387172Y26894D01*
X387101Y26995D01*
X386880Y27283D01*
X386715Y27471D01*
X381051Y33135D01*
X380932Y33243D01*
X380818Y33329D01*
X380697Y33404D01*
X380569Y33467D01*
X380436Y33518D01*
X380298Y33556D01*
X379990Y33726D01*
X379952Y33778D01*
X379837Y33660D01*
X379622Y33570D01*
X379625Y33560D01*
X379454Y33509D01*
X379322Y33456D01*
X379195Y33390D01*
X379075Y33313D01*
X378960Y33223D01*
X378868Y33138D01*
X376698Y30968D01*
X376590Y30850D01*
X376505Y30736D01*
X376430Y30614D01*
X376366Y30486D01*
X376335Y30404D01*
X376161Y30136D01*
X375908Y29969D01*
X375787Y29920D01*
X375660Y29854D01*
X375539Y29777D01*
X375424Y29687D01*
X375332Y29602D01*
X373163Y27432D01*
X373055Y27314D01*
X372969Y27200D01*
X372894Y27078D01*
X372831Y26951D01*
X372800Y26868D01*
X372626Y26600D01*
X372372Y26433D01*
X372251Y26384D01*
X372124Y26319D01*
X372004Y26242D01*
X371889Y26152D01*
X371797Y26067D01*
X369627Y23897D01*
X369519Y23778D01*
X369433Y23665D01*
X369358Y23543D01*
X369295Y23415D01*
X369264Y23333D01*
X369090Y23065D01*
X368837Y22898D01*
X368715Y22849D01*
X368588Y22783D01*
X368468Y22706D01*
X368353Y22616D01*
X368261Y22531D01*
X366091Y20361D01*
X365984Y20243D01*
X365898Y20129D01*
X365823Y20007D01*
X365760Y19879D01*
X365729Y19797D01*
X365554Y19529D01*
X365301Y19362D01*
X365180Y19313D01*
X365053Y19248D01*
X364933Y19171D01*
X364818Y19081D01*
X364726Y18996D01*
X362556Y16826D01*
X362448Y16707D01*
X362362Y16593D01*
X362287Y16472D01*
X362224Y16344D01*
X362193Y16262D01*
X362019Y15994D01*
X361766Y15827D01*
X361644Y15778D01*
X361517Y15712D01*
X361397Y15635D01*
X361282Y15545D01*
X361190Y15460D01*
X359020Y13290D01*
X358913Y13172D01*
X358827Y13058D01*
X358752Y12936D01*
X358689Y12808D01*
X358657Y12726D01*
X358483Y12458D01*
X358230Y12291D01*
X358109Y12242D01*
X357982Y12177D01*
X357862Y12100D01*
X357746Y12010D01*
X357655Y11925D01*
X355485Y9755D01*
X355377Y9636D01*
X355295Y9528D01*
X354984Y9284D01*
X354687Y9224D01*
X351226Y9224D01*
X350951Y9275D01*
X350696Y9439D01*
X350524Y9689D01*
X350464Y9986D01*
X350464Y10061D01*
X350353Y10173D01*
X350195Y10403D01*
X350129Y10699D01*
X350185Y10998D01*
X350353Y11250D01*
X351480Y12378D01*
X351480Y15668D01*
X344678Y15668D01*
X344678Y21970D01*
X340888Y21970D01*
X340264Y21346D01*
X340033Y21188D01*
X339737Y21123D01*
X339439Y21178D01*
X339186Y21346D01*
X338562Y21970D01*
X334772Y21970D01*
X334772Y15668D01*
X327970Y15668D01*
X327970Y12378D01*
X329098Y11250D01*
X329256Y11020D01*
X329321Y10724D01*
X329265Y10426D01*
X329098Y10173D01*
X328986Y10061D01*
X328986Y9986D01*
X328935Y9711D01*
X328771Y9456D01*
X328521Y9284D01*
X328224Y9224D01*
X308803Y9224D01*
X289104Y-10475D01*
X288862Y-10638D01*
X288565Y-10698D01*
X281486Y-10698D01*
X281211Y-10647D01*
X280956Y-10483D01*
X280784Y-10233D01*
X280724Y-9936D01*
X280724Y-7361D01*
X279831Y-6468D01*
X272569Y-6468D01*
X271676Y-7361D01*
X271676Y-19623D01*
X271913Y-19860D01*
X272076Y-20102D01*
X272136Y-20399D01*
X272136Y-29925D01*
X272080Y-30211D01*
X271913Y-30463D01*
X271554Y-30822D01*
X271554Y-35218D01*
X271837Y-35501D01*
X271990Y-35721D01*
X272060Y-36016D01*
X272009Y-36315D01*
X271846Y-36570D01*
X271596Y-36742D01*
X271299Y-36802D01*
X202411Y-36802D01*
X202148Y-36755D01*
X201890Y-36596D01*
X201715Y-36348D01*
X201650Y-36052D01*
X201705Y-35754D01*
X201873Y-35501D01*
X204696Y-32678D01*
X204696Y-28282D01*
X202917Y-26503D01*
X202754Y-26262D01*
X202694Y-25965D01*
X202694Y-7536D01*
X202745Y-7261D01*
X202909Y-7006D01*
X203159Y-6834D01*
X203456Y-6774D01*
X204011Y-6774D01*
X204904Y-5881D01*
X204904Y5881D01*
X204011Y6774D01*
X193249Y6774D01*
X192356Y5881D01*
X192356Y-5881D01*
X193249Y-6774D01*
X193804Y-6774D01*
X194079Y-6825D01*
X194334Y-6989D01*
X194506Y-7239D01*
X194566Y-7536D01*
X194566Y-27485D01*
X194510Y-27771D01*
X194343Y-28023D01*
X194084Y-28282D01*
X194084Y-32678D01*
X196907Y-35501D01*
X197060Y-35721D01*
X197130Y-36016D01*
X197079Y-36315D01*
X196916Y-36570D01*
X196666Y-36742D01*
X196369Y-36802D01*
X124479Y-36802D01*
X124193Y-36746D01*
X123940Y-36579D01*
X120638Y-33277D01*
X120485Y-33057D01*
X120415Y-32762D01*
X120466Y-32463D01*
X120630Y-32208D01*
X120880Y-32036D01*
X121177Y-31976D01*
X121578Y-31976D01*
X122597Y-30957D01*
X122838Y-30794D01*
X123135Y-30734D01*
X131429Y-30734D01*
X131567Y-30706D01*
X133008Y-30706D01*
X136116Y-27598D01*
X136116Y-26157D01*
X136172Y-25871D01*
X136339Y-25618D01*
X137414Y-24543D01*
X137414Y-22036D01*
X137465Y-21761D01*
X137629Y-21506D01*
X137879Y-21334D01*
X138176Y-21274D01*
X146491Y-21274D01*
X146777Y-21330D01*
X147030Y-21497D01*
X148647Y-23114D01*
X161474Y-23114D01*
X161749Y-23165D01*
X162004Y-23329D01*
X162176Y-23579D01*
X162236Y-23876D01*
X162236Y-24681D01*
X163129Y-25574D01*
X172391Y-25574D01*
X173284Y-24681D01*
X173284Y-13419D01*
X172391Y-12526D01*
X163129Y-12526D01*
X162236Y-13419D01*
X162236Y-14224D01*
X162185Y-14499D01*
X162021Y-14754D01*
X161771Y-14926D01*
X161474Y-14986D01*
X160566Y-14986D01*
X160291Y-14935D01*
X160036Y-14771D01*
X159864Y-14521D01*
X159804Y-14224D01*
X159804Y-6669D01*
X159827Y-6541D01*
X159808Y-6537D01*
X159555Y-6370D01*
X158911Y-5726D01*
X130649Y-5726D01*
X129756Y-6619D01*
X129756Y-15311D01*
X129700Y-15597D01*
X129533Y-15850D01*
X129286Y-16097D01*
X129286Y-19332D01*
X129235Y-19607D01*
X129071Y-19862D01*
X128821Y-20034D01*
X128635Y-20072D01*
X126323Y-22383D01*
X126082Y-22546D01*
X125785Y-22606D01*
X123135Y-22606D01*
X122849Y-22550D01*
X122597Y-22383D01*
X121578Y-21364D01*
X117182Y-21364D01*
X115981Y-22565D01*
X115761Y-22718D01*
X115466Y-22788D01*
X115167Y-22737D01*
X114912Y-22574D01*
X114740Y-22324D01*
X114680Y-22027D01*
X114680Y-16204D01*
X110062Y-11586D01*
X109912Y-11372D01*
X109839Y-11077D01*
X109888Y-10778D01*
X110049Y-10521D01*
X110298Y-10348D01*
X110595Y-10285D01*
X110892Y-10343D01*
X113783Y-11540D01*
X115316Y-11540D01*
X115316Y11540D01*
X113783Y11540D01*
X109541Y9783D01*
X106295Y6537D01*
X104538Y2295D01*
X104538Y865D01*
X104491Y601D01*
X104332Y343D01*
X104084Y168D01*
X103788Y103D01*
X103490Y158D01*
X103237Y326D01*
X91777Y11786D01*
X83286Y11786D01*
X83011Y11837D01*
X82756Y12001D01*
X82584Y12251D01*
X82524Y12548D01*
X82524Y12982D01*
X82575Y13257D01*
X82739Y13512D01*
X82989Y13684D01*
X83286Y13744D01*
X83478Y13744D01*
X86586Y16852D01*
X86586Y17272D01*
X86637Y17547D01*
X86801Y17802D01*
X87051Y17974D01*
X87348Y18034D01*
X87504Y18034D01*
X87779Y17983D01*
X88034Y17819D01*
X88206Y17569D01*
X88266Y17272D01*
X88266Y16189D01*
X89159Y15296D01*
X96421Y15296D01*
X96533Y15408D01*
X96763Y15566D01*
X97059Y15631D01*
X97358Y15575D01*
X97610Y15408D01*
X98738Y14280D01*
X102028Y14280D01*
X102028Y21082D01*
X108330Y21082D01*
X108330Y24877D01*
X108188Y25081D01*
X108118Y25376D01*
X108169Y25675D01*
X108332Y25930D01*
X108583Y26102D01*
X108880Y26162D01*
X161710Y26162D01*
X161974Y26115D01*
X162232Y25956D01*
X162407Y25708D01*
X162472Y25412D01*
X162417Y25114D01*
X162249Y24861D01*
X161220Y23832D01*
X161220Y22242D01*
X161173Y21978D01*
X161014Y21720D01*
X160766Y21545D01*
X160470Y21480D01*
X160172Y21535D01*
X159919Y21703D01*
X159332Y22290D01*
X145542Y22290D01*
X145542Y4710D01*
X159332Y4710D01*
X159555Y4933D01*
X159775Y5086D01*
X160070Y5156D01*
X160369Y5105D01*
X160624Y4942D01*
X160796Y4692D01*
X160856Y4394D01*
X160856Y-5831D01*
X160833Y-5959D01*
X160852Y-5963D01*
X161105Y-6130D01*
X161749Y-6774D01*
X172511Y-6774D01*
X173404Y-5881D01*
X173404Y-4826D01*
X173455Y-4551D01*
X173619Y-4296D01*
X173869Y-4124D01*
X174166Y-4064D01*
X177934Y-4064D01*
X178209Y-4115D01*
X178464Y-4279D01*
X178636Y-4529D01*
X178696Y-4826D01*
X178696Y-11764D01*
X178645Y-12039D01*
X178481Y-12294D01*
X178231Y-12466D01*
X178178Y-12476D01*
X177236Y-13419D01*
X177236Y-24681D01*
X178129Y-25574D01*
X187391Y-25574D01*
X188284Y-24681D01*
X188284Y-13419D01*
X187347Y-12481D01*
X187311Y-12475D01*
X187056Y-12311D01*
X186884Y-12061D01*
X186824Y-11764D01*
X186824Y10494D01*
X186875Y10769D01*
X187039Y11024D01*
X187289Y11196D01*
X187342Y11206D01*
X188284Y12149D01*
X188284Y23411D01*
X187391Y24304D01*
X178129Y24304D01*
X177236Y23411D01*
X177236Y12149D01*
X178173Y11211D01*
X178209Y11205D01*
X178464Y11041D01*
X178636Y10791D01*
X178696Y10494D01*
X178696Y4826D01*
X178645Y4551D01*
X178481Y4296D01*
X178231Y4124D01*
X177934Y4064D01*
X174166Y4064D01*
X173891Y4115D01*
X173636Y4279D01*
X173464Y4529D01*
X173404Y4826D01*
X173404Y5881D01*
X172511Y6774D01*
X161582Y6774D01*
X161307Y6825D01*
X161052Y6989D01*
X160880Y7239D01*
X160820Y7536D01*
X160820Y10288D01*
X160867Y10552D01*
X161026Y10810D01*
X161274Y10985D01*
X161570Y11050D01*
X161868Y10995D01*
X162121Y10827D01*
X162708Y10240D01*
X166998Y10240D01*
X166998Y18542D01*
X174300Y18542D01*
X174300Y23832D01*
X173271Y24861D01*
X173118Y25081D01*
X173048Y25376D01*
X173099Y25675D01*
X173262Y25930D01*
X173513Y26102D01*
X173810Y26162D01*
X247342Y26162D01*
X247628Y26106D01*
X247881Y25939D01*
X252453Y21367D01*
X252616Y21125D01*
X252676Y20828D01*
X252676Y8377D01*
X253569Y7484D01*
X260895Y7484D01*
X260923Y7504D01*
X261219Y7569D01*
X261518Y7513D01*
X261770Y7346D01*
X262648Y6468D01*
X265938Y6468D01*
X265938Y22548D01*
X262648Y22548D01*
X261770Y21671D01*
X261540Y21513D01*
X261244Y21447D01*
X260946Y21503D01*
X260859Y21560D01*
X260735Y21583D01*
X260480Y21747D01*
X260308Y21997D01*
X260274Y22167D01*
X250183Y32258D01*
X72397Y32258D01*
X64997Y24857D01*
X64755Y24694D01*
X64458Y24634D01*
X58950Y24634D01*
X58681Y24683D01*
X58425Y24844D01*
X58251Y25093D01*
X58188Y25390D01*
X58246Y25688D01*
X59100Y27748D01*
X59100Y30052D01*
X58219Y32180D01*
X56523Y33875D01*
X56370Y34095D01*
X56300Y34390D01*
X56351Y34689D01*
X56515Y34944D01*
X56765Y35116D01*
X57062Y35176D01*
X66406Y35176D01*
X69355Y36398D01*
X71612Y38655D01*
X72834Y41604D01*
X72834Y44796D01*
X71836Y47206D01*
X71778Y47474D01*
X71829Y47773D01*
X71992Y48028D01*
X72242Y48200D01*
X72540Y48260D01*
X600710Y48260D01*
X600985Y48209D01*
X601240Y48045D01*
X601412Y47795D01*
X601472Y47498D01*
X601472Y27818D01*
X601425Y27555D01*
X601266Y27297D01*
X601018Y27121D01*
X600722Y27056D01*
X600424Y27112D01*
X600171Y27279D01*
X599888Y27563D01*
X595746Y27563D01*
X595460Y27619D01*
X595207Y27786D01*
X586417Y36576D01*
X533606Y36576D01*
X533331Y36627D01*
X533076Y36791D01*
X532904Y37041D01*
X532844Y37338D01*
X532844Y38261D01*
X531951Y39154D01*
X524689Y39154D01*
X523796Y38261D01*
X523796Y29999D01*
X524689Y29106D01*
X531951Y29106D01*
X532844Y29999D01*
X532844Y31242D01*
X532895Y31517D01*
X533059Y31772D01*
X533309Y31944D01*
X533606Y32004D01*
X584207Y32004D01*
X584493Y31948D01*
X584746Y31781D01*
X592161Y24366D01*
X592324Y24125D01*
X592384Y23827D01*
X592384Y20059D01*
X595492Y16951D01*
X599888Y16951D01*
X600171Y17234D01*
X600391Y17387D01*
X600686Y17457D01*
X600985Y17406D01*
X601240Y17243D01*
X601412Y16993D01*
X601472Y16695D01*
X601472Y-18344D01*
X601421Y-18619D01*
X601257Y-18874D01*
X601007Y-19046D01*
X600710Y-19106D01*
X592097Y-19106D01*
X591811Y-19050D01*
X591558Y-18883D01*
X577026Y-4351D01*
X576866Y-4115D01*
X576803Y-3818D01*
X576861Y-3520D01*
X577452Y-2093D01*
X577452Y2093D01*
X575850Y5961D01*
X572889Y8922D01*
X569021Y10524D01*
X564835Y10524D01*
X560967Y8922D01*
X558006Y5961D01*
X556404Y2093D01*
X556404Y-2093D01*
X558006Y-5961D01*
X560967Y-8922D01*
X564835Y-10524D01*
X569021Y-10524D01*
X570448Y-9933D01*
X570728Y-9875D01*
X571026Y-9931D01*
X571279Y-10098D01*
X588415Y-27234D01*
X646947Y-27234D01*
X647233Y-27290D01*
X647486Y-27457D01*
X648756Y-28727D01*
X648909Y-28947D01*
X648979Y-29242D01*
X648928Y-29541D01*
X648764Y-29796D01*
X648514Y-29968D01*
X648217Y-30028D01*
X647816Y-30028D01*
X644708Y-33136D01*
X644708Y-37532D01*
X647816Y-40640D01*
X649642Y-40640D01*
X649928Y-40696D01*
X650181Y-40863D01*
X654021Y-44704D01*
X670447Y-44704D01*
X674624Y-40527D01*
X674624Y-40386D01*
X674675Y-40111D01*
X674839Y-39856D01*
X675089Y-39684D01*
X675386Y-39624D01*
X676271Y-39624D01*
X676923Y-38973D01*
X677153Y-38815D01*
X677449Y-38749D01*
X677748Y-38805D01*
X678000Y-38973D01*
X679668Y-40640D01*
X683768Y-40640D01*
X683768Y-29718D01*
X685292Y-29718D01*
X685292Y-40640D01*
X689392Y-40640D01*
X690341Y-39691D01*
X690572Y-39533D01*
X690868Y-39468D01*
X691166Y-39523D01*
X691419Y-39691D01*
X692368Y-40640D01*
X696468Y-40640D01*
X696468Y-29718D01*
X703580Y-29718D01*
X703580Y-21808D01*
X703571Y-21799D01*
X703418Y-21579D01*
X703348Y-21284D01*
X703399Y-20985D01*
X703562Y-20730D01*
X703812Y-20558D01*
X704110Y-20498D01*
X710438Y-20498D01*
X710713Y-20549D01*
X710968Y-20712D01*
X711140Y-20963D01*
X711200Y-21260D01*
X711200Y-47498D01*
X711149Y-47773D01*
X710985Y-48028D01*
X710735Y-48200D01*
G37*
%LPC*%
G36*
X267462Y6468D02*
X270752Y6468D01*
X271630Y7346D01*
X271860Y7504D01*
X272156Y7569D01*
X272454Y7513D01*
X272498Y7484D01*
X279831Y7484D01*
X280724Y8377D01*
X280724Y9652D01*
X280775Y9927D01*
X280939Y10182D01*
X281189Y10354D01*
X281486Y10414D01*
X290752Y10414D01*
X291973Y10920D01*
X292265Y10978D01*
X293271Y10978D01*
X293383Y11090D01*
X293613Y11248D01*
X293909Y11313D01*
X294208Y11257D01*
X294460Y11090D01*
X295588Y9962D01*
X298878Y9962D01*
X298878Y22042D01*
X297214Y22042D01*
X296951Y22089D01*
X296693Y22248D01*
X296517Y22496D01*
X296452Y22792D01*
X296508Y23090D01*
X296675Y23343D01*
X308161Y34829D01*
X308403Y34992D01*
X308700Y35052D01*
X379408Y35052D01*
X379800Y34944D01*
X379947Y34809D01*
X379955Y34820D01*
X380205Y34992D01*
X380502Y35052D01*
X396732Y35052D01*
X397124Y34944D01*
X397272Y34809D01*
X397279Y34820D01*
X397529Y34992D01*
X397826Y35052D01*
X437189Y35052D01*
X437475Y34996D01*
X437727Y34829D01*
X438492Y34064D01*
X442888Y34064D01*
X445996Y37172D01*
X445996Y41568D01*
X444547Y43017D01*
X444381Y43265D01*
X444157Y43805D01*
X442585Y45377D01*
X440532Y46228D01*
X304958Y46228D01*
X302905Y45377D01*
X284903Y27375D01*
X284052Y25322D01*
X284052Y22352D01*
X284001Y22077D01*
X283837Y21822D01*
X283587Y21650D01*
X283290Y21590D01*
X276582Y21590D01*
X276291Y21532D01*
X272505Y21532D01*
X272477Y21513D01*
X272181Y21447D01*
X271882Y21503D01*
X271630Y21671D01*
X270752Y22548D01*
X267462Y22548D01*
X267462Y6468D01*
G37*
G36*
X128740Y14262D02*
X144018Y14262D01*
X144018Y22290D01*
X130228Y22290D01*
X128740Y20802D01*
X128740Y14262D01*
G37*
G36*
X300402Y16764D02*
X305180Y16764D01*
X305180Y20554D01*
X303692Y22042D01*
X300402Y22042D01*
X300402Y16764D01*
G37*
G36*
X327970Y17192D02*
X333248Y17192D01*
X333248Y21970D01*
X329458Y21970D01*
X327970Y20482D01*
X327970Y17192D01*
G37*
G36*
X346202Y17192D02*
X351480Y17192D01*
X351480Y20482D01*
X349992Y21970D01*
X346202Y21970D01*
X346202Y17192D01*
G37*
G36*
X103552Y14280D02*
X106842Y14280D01*
X108330Y15768D01*
X108330Y19558D01*
X103552Y19558D01*
X103552Y14280D01*
G37*
G36*
X168522Y10240D02*
X172812Y10240D01*
X174300Y11728D01*
X174300Y17018D01*
X168522Y17018D01*
X168522Y10240D01*
G37*
G36*
X300402Y9962D02*
X303692Y9962D01*
X305180Y11450D01*
X305180Y15240D01*
X300402Y15240D01*
X300402Y9962D01*
G37*
G36*
X130228Y4710D02*
X144018Y4710D01*
X144018Y12738D01*
X128740Y12738D01*
X128740Y6198D01*
X130228Y4710D01*
G37*
G36*
X116840Y762D02*
X127618Y762D01*
X127618Y2295D01*
X125861Y6537D01*
X122615Y9783D01*
X118373Y11540D01*
X116840Y11540D01*
X116840Y762D01*
G37*
G36*
X219340Y762D02*
X230118Y762D01*
X230118Y2295D01*
X228361Y6537D01*
X225115Y9783D01*
X220873Y11540D01*
X219340Y11540D01*
X219340Y762D01*
G37*
G36*
X207038Y762D02*
X217816Y762D01*
X217816Y11540D01*
X216283Y11540D01*
X212041Y9783D01*
X208795Y6537D01*
X207038Y2295D01*
X207038Y762D01*
G37*
G36*
X244602Y6270D02*
X249880Y6270D01*
X249880Y9560D01*
X248392Y11048D01*
X244602Y11048D01*
X244602Y6270D01*
G37*
G36*
X237800Y6270D02*
X243078Y6270D01*
X243078Y11048D01*
X239288Y11048D01*
X237800Y9560D01*
X237800Y6270D01*
G37*
G36*
X253569Y-20516D02*
X260831Y-20516D01*
X261724Y-19623D01*
X261724Y-7361D01*
X260790Y-6427D01*
X260735Y-6417D01*
X260480Y-6253D01*
X260308Y-6003D01*
X260259Y-5758D01*
X255945Y-1444D01*
X249626Y-1444D01*
X249351Y-1393D01*
X249096Y-1229D01*
X248924Y-979D01*
X248910Y-906D01*
X248753Y-749D01*
X248595Y-519D01*
X248529Y-223D01*
X248585Y76D01*
X248753Y328D01*
X249880Y1456D01*
X249880Y4746D01*
X237800Y4746D01*
X237800Y1456D01*
X238928Y328D01*
X239086Y98D01*
X239151Y-198D01*
X239095Y-496D01*
X238928Y-749D01*
X238816Y-861D01*
X238816Y-8123D01*
X239709Y-9016D01*
X247971Y-9016D01*
X248905Y-8082D01*
X248915Y-8027D01*
X249079Y-7772D01*
X249329Y-7600D01*
X249626Y-7540D01*
X251914Y-7540D01*
X252189Y-7591D01*
X252444Y-7755D01*
X252616Y-8005D01*
X252676Y-8302D01*
X252676Y-19623D01*
X253569Y-20516D01*
G37*
G36*
X219340Y-11540D02*
X220873Y-11540D01*
X225115Y-9783D01*
X228361Y-6537D01*
X230118Y-2295D01*
X230118Y-762D01*
X219340Y-762D01*
X219340Y-11540D01*
G37*
G36*
X116840Y-11540D02*
X118373Y-11540D01*
X122615Y-9783D01*
X125861Y-6537D01*
X127618Y-2295D01*
X127618Y-762D01*
X116840Y-762D01*
X116840Y-11540D01*
G37*
G36*
X216283Y-11540D02*
X217816Y-11540D01*
X217816Y-762D01*
X207038Y-762D01*
X207038Y-2295D01*
X208795Y-6537D01*
X212041Y-9783D01*
X216283Y-11540D01*
G37*
G36*
X697992Y-40640D02*
X702092Y-40640D01*
X703580Y-39152D01*
X703580Y-31242D01*
X697992Y-31242D01*
X697992Y-40640D01*
G37*
%LPD*%
G36*
X38851Y-25340D02*
X38554Y-25400D01*
X24256Y-25400D01*
X23981Y-25349D01*
X23726Y-25185D01*
X23554Y-24935D01*
X23494Y-24638D01*
X23494Y-24317D01*
X22601Y-23424D01*
X15339Y-23424D01*
X14509Y-24254D01*
X14278Y-24412D01*
X13982Y-24477D01*
X13684Y-24421D01*
X13431Y-24254D01*
X12601Y-23424D01*
X11938Y-23424D01*
X11663Y-23373D01*
X11408Y-23209D01*
X11236Y-22959D01*
X11176Y-22662D01*
X11176Y-16786D01*
X11227Y-16511D01*
X11391Y-16256D01*
X11641Y-16084D01*
X11938Y-16024D01*
X13759Y-16024D01*
X14652Y-15131D01*
X14652Y-3869D01*
X13759Y-2976D01*
X3302Y-2976D01*
X3027Y-2925D01*
X2772Y-2761D01*
X2600Y-2511D01*
X2540Y-2214D01*
X2540Y2214D01*
X2591Y2489D01*
X2755Y2744D01*
X3005Y2916D01*
X3302Y2976D01*
X13759Y2976D01*
X14652Y3869D01*
X14652Y15131D01*
X13759Y16024D01*
X11938Y16024D01*
X11663Y16075D01*
X11408Y16239D01*
X11236Y16489D01*
X11176Y16786D01*
X11176Y20520D01*
X11232Y20806D01*
X11399Y21059D01*
X13739Y23399D01*
X13981Y23562D01*
X14278Y23622D01*
X35252Y23622D01*
X35538Y23566D01*
X35791Y23399D01*
X40651Y18538D01*
X67299Y18538D01*
X74699Y25939D01*
X74941Y26102D01*
X75238Y26162D01*
X88137Y26162D01*
X88400Y26115D01*
X88658Y25956D01*
X88834Y25708D01*
X88899Y25412D01*
X88843Y25114D01*
X88676Y24861D01*
X88266Y24451D01*
X88266Y23368D01*
X88215Y23093D01*
X88051Y22838D01*
X87801Y22666D01*
X87504Y22606D01*
X85543Y22606D01*
X85257Y22662D01*
X85005Y22829D01*
X83478Y24356D01*
X79082Y24356D01*
X75974Y21248D01*
X75974Y16852D01*
X77501Y15325D01*
X77654Y15105D01*
X77724Y14810D01*
X77673Y14511D01*
X77510Y14256D01*
X77260Y14084D01*
X76963Y14024D01*
X68808Y14024D01*
X67476Y12692D01*
X67476Y6308D01*
X67777Y6007D01*
X67935Y5777D01*
X68000Y5481D01*
X67944Y5182D01*
X67777Y4930D01*
X66460Y3613D01*
X66460Y762D01*
X83540Y762D01*
X83540Y3613D01*
X82223Y4930D01*
X82065Y5160D01*
X82000Y5456D01*
X82056Y5754D01*
X82223Y6007D01*
X82524Y6308D01*
X82524Y6452D01*
X82575Y6727D01*
X82739Y6982D01*
X82989Y7154D01*
X83286Y7214D01*
X89567Y7214D01*
X89853Y7158D01*
X90106Y6991D01*
X98455Y-1358D01*
X98618Y-1599D01*
X98678Y-1897D01*
X98678Y-6452D01*
X98627Y-6727D01*
X98463Y-6982D01*
X98213Y-7154D01*
X97916Y-7214D01*
X83286Y-7214D01*
X83011Y-7163D01*
X82756Y-6999D01*
X82584Y-6749D01*
X82524Y-6452D01*
X82524Y-6308D01*
X82223Y-6007D01*
X82065Y-5777D01*
X82000Y-5481D01*
X82056Y-5182D01*
X82223Y-4930D01*
X83540Y-3613D01*
X83540Y-762D01*
X66460Y-762D01*
X66460Y-3613D01*
X67777Y-4930D01*
X67935Y-5160D01*
X68000Y-5456D01*
X67944Y-5754D01*
X67777Y-6007D01*
X67476Y-6308D01*
X67476Y-12692D01*
X68808Y-14024D01*
X73320Y-14024D01*
X73583Y-14071D01*
X73841Y-14230D01*
X74017Y-14478D01*
X74082Y-14774D01*
X74026Y-15072D01*
X73859Y-15325D01*
X73575Y-15608D01*
X73575Y-19165D01*
X73529Y-19429D01*
X73369Y-19687D01*
X73122Y-19862D01*
X72826Y-19927D01*
X72527Y-19872D01*
X72438Y-19812D01*
X59192Y-19812D01*
X58906Y-19756D01*
X58653Y-19589D01*
X57602Y-18538D01*
X45731Y-18538D01*
X39093Y-25177D01*
X38851Y-25340D01*
G37*
%LPC*%
G36*
X37172Y-14196D02*
X41568Y-14196D01*
X43235Y-12529D01*
X43466Y-12371D01*
X43762Y-12306D01*
X44060Y-12361D01*
X44313Y-12529D01*
X45808Y-14024D01*
X58192Y-14024D01*
X59524Y-12692D01*
X59524Y-6308D01*
X58505Y-5289D01*
X58347Y-5058D01*
X58282Y-4762D01*
X58337Y-4464D01*
X58505Y-4211D01*
X59524Y-3192D01*
X59524Y3192D01*
X58505Y4211D01*
X58347Y4442D01*
X58282Y4738D01*
X58337Y5036D01*
X58505Y5289D01*
X59524Y6308D01*
X59524Y12692D01*
X58192Y14024D01*
X45808Y14024D01*
X45583Y13799D01*
X45352Y13641D01*
X45056Y13576D01*
X44758Y13631D01*
X44505Y13799D01*
X42838Y15466D01*
X38442Y15466D01*
X35334Y12358D01*
X35334Y7962D01*
X37931Y5365D01*
X38084Y5145D01*
X38154Y4850D01*
X38103Y4551D01*
X37940Y4296D01*
X37690Y4124D01*
X37393Y4064D01*
X36775Y4064D01*
X36489Y4120D01*
X36237Y4287D01*
X35218Y5306D01*
X30822Y5306D01*
X27714Y2198D01*
X27714Y-2198D01*
X30822Y-5306D01*
X33611Y-5306D01*
X33874Y-5353D01*
X34132Y-5512D01*
X34307Y-5760D01*
X34372Y-6056D01*
X34317Y-6354D01*
X34149Y-6607D01*
X34064Y-6692D01*
X34064Y-11088D01*
X37172Y-14196D01*
G37*
%LPD*%
G36*
X342217Y-36742D02*
X341919Y-36802D01*
X282421Y-36802D01*
X282158Y-36755D01*
X281900Y-36596D01*
X281725Y-36348D01*
X281660Y-36052D01*
X281715Y-35754D01*
X281883Y-35501D01*
X282166Y-35218D01*
X282166Y-30822D01*
X280487Y-29143D01*
X280324Y-28902D01*
X280264Y-28605D01*
X280264Y-20399D01*
X280320Y-20113D01*
X280487Y-19860D01*
X280724Y-19623D01*
X280724Y-17048D01*
X280775Y-16773D01*
X280939Y-16518D01*
X281189Y-16346D01*
X281486Y-16286D01*
X291195Y-16286D01*
X310894Y3413D01*
X311136Y3576D01*
X311433Y3636D01*
X328224Y3636D01*
X328499Y3585D01*
X328754Y3421D01*
X328926Y3171D01*
X328986Y2874D01*
X328986Y2799D01*
X329879Y1906D01*
X338141Y1906D01*
X339186Y2951D01*
X339417Y3109D01*
X339713Y3174D01*
X340011Y3118D01*
X340264Y2951D01*
X341309Y1906D01*
X349571Y1906D01*
X350464Y2799D01*
X350464Y2874D01*
X350515Y3149D01*
X350679Y3404D01*
X350929Y3576D01*
X351226Y3636D01*
X359103Y3636D01*
X359389Y3580D01*
X359641Y3413D01*
X361149Y1905D01*
X361337Y1740D01*
X361622Y1522D01*
X361754Y1430D01*
X361881Y1358D01*
X361938Y1332D01*
X362249Y1069D01*
X362367Y790D01*
X362367Y487D01*
X362352Y413D01*
X362327Y217D01*
X362318Y19D01*
X362324Y-179D01*
X362346Y-375D01*
X362369Y-499D01*
X362341Y-887D01*
X362188Y-1149D01*
X361945Y-1330D01*
X361852Y-1373D01*
X361726Y-1448D01*
X361625Y-1519D01*
X361337Y-1740D01*
X361149Y-1905D01*
X359707Y-3347D01*
X359466Y-3510D01*
X359169Y-3570D01*
X351226Y-3570D01*
X350951Y-3519D01*
X350696Y-3355D01*
X350524Y-3105D01*
X350464Y-2808D01*
X350464Y-2799D01*
X349571Y-1906D01*
X341309Y-1906D01*
X340264Y-2951D01*
X340033Y-3109D01*
X339737Y-3174D01*
X339439Y-3118D01*
X339186Y-2951D01*
X338141Y-1906D01*
X329879Y-1906D01*
X328933Y-2852D01*
X328703Y-3010D01*
X328406Y-3075D01*
X328108Y-3019D01*
X327855Y-2852D01*
X326048Y-1044D01*
X321652Y-1044D01*
X318544Y-4152D01*
X318544Y-8548D01*
X321652Y-11656D01*
X326048Y-11656D01*
X327775Y-9928D01*
X328006Y-9770D01*
X328302Y-9705D01*
X328600Y-9761D01*
X328853Y-9928D01*
X329098Y-10173D01*
X329256Y-10403D01*
X329321Y-10699D01*
X329265Y-10998D01*
X329098Y-11250D01*
X327970Y-12378D01*
X327970Y-15668D01*
X334772Y-15668D01*
X334772Y-21970D01*
X338562Y-21970D01*
X339186Y-21346D01*
X339417Y-21188D01*
X339713Y-21123D01*
X340011Y-21178D01*
X340264Y-21346D01*
X340888Y-21970D01*
X344678Y-21970D01*
X344678Y-15668D01*
X351480Y-15668D01*
X351480Y-12378D01*
X350353Y-11250D01*
X350195Y-11020D01*
X350129Y-10724D01*
X350185Y-10426D01*
X350353Y-10173D01*
X350464Y-10061D01*
X350464Y-9920D01*
X350515Y-9645D01*
X350679Y-9390D01*
X350929Y-9218D01*
X351226Y-9158D01*
X354642Y-9158D01*
X355073Y-9291D01*
X355284Y-9509D01*
X355307Y-9545D01*
X355397Y-9660D01*
X355482Y-9752D01*
X357652Y-11922D01*
X357770Y-12030D01*
X357884Y-12116D01*
X358006Y-12191D01*
X358134Y-12254D01*
X358216Y-12285D01*
X358484Y-12459D01*
X358651Y-12712D01*
X358700Y-12833D01*
X358766Y-12960D01*
X358843Y-13081D01*
X358933Y-13196D01*
X359018Y-13288D01*
X361188Y-15457D01*
X361306Y-15565D01*
X361429Y-15658D01*
X361668Y-15959D01*
X361733Y-16255D01*
X361678Y-16553D01*
X361510Y-16806D01*
X358394Y-19922D01*
X358394Y-20327D01*
X358338Y-20613D01*
X358171Y-20866D01*
X342458Y-36579D01*
X342217Y-36742D01*
G37*
%LPC*%
G36*
X346202Y-21970D02*
X349992Y-21970D01*
X351480Y-20482D01*
X351480Y-17192D01*
X346202Y-17192D01*
X346202Y-21970D01*
G37*
G36*
X329458Y-21970D02*
X333248Y-21970D01*
X333248Y-17192D01*
X327970Y-17192D01*
X327970Y-20482D01*
X329458Y-21970D01*
G37*
%LPD*%
G36*
X547917Y-48200D02*
X547620Y-48260D01*
X72540Y-48260D01*
X72271Y-48211D01*
X72014Y-48050D01*
X71840Y-47801D01*
X71778Y-47504D01*
X71836Y-47206D01*
X72834Y-44796D01*
X72834Y-41604D01*
X71612Y-38655D01*
X69355Y-36398D01*
X66406Y-35176D01*
X57062Y-35176D01*
X56799Y-35129D01*
X56541Y-34970D01*
X56365Y-34722D01*
X56300Y-34426D01*
X56356Y-34128D01*
X56523Y-33875D01*
X58219Y-32180D01*
X59100Y-30052D01*
X59100Y-27748D01*
X58774Y-26962D01*
X58717Y-26694D01*
X58767Y-26395D01*
X58931Y-26140D01*
X59181Y-25968D01*
X59478Y-25908D01*
X69542Y-25908D01*
X69828Y-25964D01*
X70081Y-26131D01*
X85097Y-41148D01*
X99369Y-41148D01*
X99655Y-41204D01*
X99907Y-41371D01*
X101942Y-43406D01*
X106338Y-43406D01*
X109446Y-40298D01*
X109446Y-35902D01*
X106338Y-32794D01*
X101942Y-32794D01*
X99907Y-34829D01*
X99666Y-34992D01*
X99369Y-35052D01*
X87938Y-35052D01*
X87652Y-34996D01*
X87399Y-34829D01*
X76983Y-24413D01*
X76830Y-24193D01*
X76761Y-23898D01*
X76811Y-23599D01*
X76975Y-23344D01*
X77225Y-23172D01*
X77522Y-23112D01*
X81079Y-23112D01*
X83876Y-20315D01*
X84118Y-20152D01*
X84415Y-20092D01*
X84964Y-20092D01*
X85239Y-20143D01*
X85494Y-20307D01*
X85666Y-20557D01*
X85726Y-20854D01*
X85726Y-23181D01*
X86619Y-24074D01*
X93881Y-24074D01*
X93993Y-23963D01*
X94223Y-23805D01*
X94519Y-23739D01*
X94818Y-23795D01*
X95070Y-23963D01*
X96198Y-25090D01*
X99488Y-25090D01*
X99488Y-18288D01*
X101012Y-18288D01*
X101012Y-25090D01*
X104302Y-25090D01*
X105759Y-23633D01*
X105979Y-23480D01*
X106274Y-23410D01*
X106573Y-23461D01*
X106828Y-23624D01*
X107000Y-23875D01*
X107060Y-24172D01*
X107060Y-30475D01*
X121007Y-44422D01*
X346469Y-44422D01*
X364098Y-26793D01*
X364339Y-26630D01*
X364637Y-26570D01*
X365283Y-26570D01*
X367553Y-24300D01*
X367878Y-24107D01*
X368180Y-24082D01*
X368468Y-24176D01*
X368697Y-24375D01*
X368736Y-24426D01*
X368908Y-24615D01*
X369453Y-25160D01*
X375185Y-19428D01*
X376263Y-20506D01*
X370531Y-26238D01*
X371078Y-26784D01*
X371234Y-26929D01*
X371389Y-27051D01*
X371553Y-27162D01*
X371725Y-27259D01*
X371905Y-27342D01*
X372090Y-27411D01*
X372280Y-27466D01*
X372474Y-27506D01*
X372670Y-27530D01*
X372868Y-27539D01*
X372928Y-27537D01*
X373238Y-27593D01*
X373490Y-27760D01*
X375330Y-29600D01*
X375448Y-29707D01*
X375562Y-29793D01*
X375684Y-29868D01*
X375812Y-29931D01*
X375894Y-29963D01*
X376162Y-30137D01*
X376329Y-30390D01*
X376378Y-30511D01*
X376443Y-30638D01*
X376520Y-30758D01*
X376610Y-30874D01*
X376696Y-30965D01*
X378865Y-33135D01*
X378984Y-33243D01*
X379098Y-33329D01*
X379219Y-33404D01*
X379347Y-33467D01*
X379480Y-33518D01*
X379618Y-33556D01*
X379758Y-33581D01*
X379900Y-33593D01*
X380043Y-33592D01*
X380185Y-33577D01*
X380325Y-33549D01*
X380462Y-33509D01*
X380594Y-33456D01*
X380721Y-33390D01*
X380841Y-33313D01*
X380956Y-33223D01*
X381048Y-33138D01*
X386715Y-27471D01*
X386880Y-27283D01*
X387098Y-26998D01*
X387190Y-26867D01*
X387262Y-26739D01*
X387314Y-26626D01*
X387456Y-26282D01*
X387511Y-26130D01*
X387547Y-25989D01*
X387568Y-25866D01*
X387617Y-25496D01*
X387630Y-25336D01*
X387630Y-25283D01*
X387681Y-25001D01*
X387845Y-24746D01*
X388095Y-24574D01*
X388392Y-24514D01*
X388848Y-24514D01*
X389116Y-24563D01*
X389373Y-24724D01*
X389547Y-24972D01*
X389610Y-25269D01*
X389611Y-25368D01*
X389623Y-25492D01*
X389671Y-25862D01*
X389700Y-26020D01*
X389739Y-26161D01*
X389782Y-26278D01*
X389925Y-26622D01*
X389993Y-26768D01*
X390068Y-26894D01*
X390140Y-26995D01*
X390360Y-27283D01*
X390525Y-27471D01*
X396189Y-33135D01*
X396308Y-33243D01*
X396422Y-33329D01*
X396544Y-33404D01*
X396671Y-33467D01*
X396804Y-33518D01*
X396845Y-33529D01*
X397180Y-33724D01*
X400539Y-37084D01*
X418974Y-37084D01*
X419249Y-37135D01*
X419504Y-37299D01*
X419676Y-37549D01*
X419736Y-37846D01*
X419736Y-38421D01*
X420629Y-39314D01*
X427891Y-39314D01*
X428721Y-38484D01*
X428952Y-38326D01*
X429248Y-38261D01*
X429546Y-38317D01*
X429799Y-38484D01*
X430629Y-39314D01*
X437891Y-39314D01*
X438784Y-38421D01*
X438784Y-37846D01*
X438835Y-37571D01*
X438999Y-37316D01*
X439249Y-37144D01*
X439546Y-37084D01*
X440972Y-37084D01*
X441247Y-37135D01*
X441502Y-37299D01*
X441674Y-37549D01*
X441734Y-37846D01*
X441734Y-38508D01*
X444842Y-41616D01*
X449238Y-41616D01*
X452346Y-38508D01*
X452346Y-34112D01*
X449761Y-31527D01*
X449608Y-31307D01*
X449538Y-31012D01*
X449589Y-30713D01*
X449752Y-30458D01*
X450002Y-30286D01*
X450299Y-30226D01*
X462991Y-30226D01*
X463277Y-30282D01*
X463529Y-30449D01*
X475790Y-42710D01*
X534476Y-42710D01*
X536267Y-40919D01*
X536509Y-40756D01*
X536806Y-40696D01*
X545464Y-40696D01*
X545738Y-40747D01*
X545994Y-40911D01*
X546165Y-41161D01*
X546226Y-41458D01*
X546226Y-45026D01*
X548159Y-46959D01*
X548312Y-47179D01*
X548381Y-47474D01*
X548330Y-47773D01*
X548167Y-48028D01*
X547917Y-48200D01*
G37*
G36*
X520360Y-38078D02*
X520063Y-38138D01*
X478000Y-38138D01*
X477714Y-38082D01*
X477461Y-37915D01*
X465200Y-25654D01*
X448311Y-25654D01*
X448048Y-25607D01*
X447790Y-25448D01*
X447614Y-25200D01*
X447549Y-24904D01*
X447605Y-24606D01*
X447674Y-24501D01*
X447674Y-23368D01*
X447725Y-23093D01*
X447889Y-22838D01*
X448139Y-22666D01*
X448436Y-22606D01*
X506055Y-22606D01*
X506341Y-22662D01*
X506593Y-22829D01*
X520601Y-36837D01*
X520754Y-37057D01*
X520824Y-37352D01*
X520773Y-37651D01*
X520610Y-37906D01*
X520360Y-38078D01*
G37*
G36*
X366101Y-6259D02*
X366475Y-6104D01*
X366876Y-6051D01*
X367278Y-6104D01*
X367652Y-6259D01*
X367973Y-6505D01*
X368219Y-6826D01*
X368374Y-7200D01*
X368427Y-7601D01*
X368374Y-8003D01*
X368219Y-8377D01*
X367975Y-8695D01*
X362280Y-14390D01*
X360088Y-12198D01*
X365783Y-6503D01*
X366101Y-6259D01*
G37*
G36*
X366101Y-6259D02*
X366475Y-6104D01*
X366876Y-6051D01*
X367278Y-6104D01*
X367652Y-6259D01*
X367973Y-6505D01*
X368219Y-6826D01*
X368374Y-7200D01*
X368427Y-7601D01*
X368374Y-8003D01*
X368219Y-8377D01*
X367975Y-8695D01*
X362280Y-14390D01*
X360088Y-12198D01*
X365783Y-6503D01*
X366101Y-6259D01*
G37*
G36*
X367975Y8695D02*
X368219Y8377D01*
X368374Y8003D01*
X368427Y7601D01*
X368374Y7200D01*
X368219Y6826D01*
X367973Y6505D01*
X367652Y6259D01*
X367278Y6104D01*
X366876Y6051D01*
X366475Y6104D01*
X366101Y6259D01*
X365783Y6503D01*
X360088Y12198D01*
X362280Y14390D01*
X367975Y8695D01*
G37*
G36*
X367975Y8695D02*
X368219Y8377D01*
X368374Y8003D01*
X368427Y7601D01*
X368374Y7200D01*
X368219Y6826D01*
X367973Y6505D01*
X367652Y6259D01*
X367278Y6104D01*
X366876Y6051D01*
X366475Y6104D01*
X366101Y6259D01*
X365783Y6503D01*
X360088Y12198D01*
X362280Y14390D01*
X367975Y8695D01*
G37*
G36*
X380243Y-20401D02*
X380617Y-20246D01*
X381019Y-20193D01*
X381420Y-20246D01*
X381794Y-20401D01*
X382115Y-20647D01*
X382361Y-20968D01*
X382516Y-21342D01*
X382569Y-21744D01*
X382516Y-22145D01*
X382361Y-22519D01*
X382117Y-22837D01*
X376422Y-28532D01*
X374230Y-26340D01*
X379925Y-20645D01*
X380243Y-20401D01*
G37*
G36*
X380243Y-20401D02*
X380617Y-20246D01*
X381019Y-20193D01*
X381420Y-20246D01*
X381794Y-20401D01*
X382115Y-20647D01*
X382361Y-20968D01*
X382516Y-21342D01*
X382569Y-21744D01*
X382516Y-22145D01*
X382361Y-22519D01*
X382117Y-22837D01*
X376422Y-28532D01*
X374230Y-26340D01*
X379925Y-20645D01*
X380243Y-20401D01*
G37*
G36*
X382117Y22837D02*
X382361Y22519D01*
X382516Y22145D01*
X382569Y21744D01*
X382516Y21342D01*
X382361Y20968D01*
X382115Y20647D01*
X381794Y20401D01*
X381420Y20246D01*
X381019Y20193D01*
X380617Y20246D01*
X380243Y20401D01*
X379925Y20645D01*
X374230Y26340D01*
X376422Y28532D01*
X382117Y22837D01*
G37*
G36*
X382117Y22837D02*
X382361Y22519D01*
X382516Y22145D01*
X382569Y21744D01*
X382516Y21342D01*
X382361Y20968D01*
X382115Y20647D01*
X381794Y20401D01*
X381420Y20246D01*
X381019Y20193D01*
X380617Y20246D01*
X380243Y20401D01*
X379925Y20645D01*
X374230Y26340D01*
X376422Y28532D01*
X382117Y22837D01*
G37*
G36*
X395446Y-20401D02*
X395820Y-20246D01*
X396221Y-20193D01*
X396623Y-20246D01*
X396997Y-20401D01*
X397315Y-20645D01*
X403010Y-26340D01*
X400818Y-28532D01*
X395123Y-22837D01*
X394879Y-22519D01*
X394724Y-22145D01*
X394671Y-21744D01*
X394724Y-21342D01*
X394879Y-20968D01*
X395125Y-20647D01*
X395446Y-20401D01*
G37*
G36*
X395446Y-20401D02*
X395820Y-20246D01*
X396221Y-20193D01*
X396623Y-20246D01*
X396997Y-20401D01*
X397315Y-20645D01*
X403010Y-26340D01*
X400818Y-28532D01*
X395123Y-22837D01*
X394879Y-22519D01*
X394724Y-22145D01*
X394671Y-21744D01*
X394724Y-21342D01*
X394879Y-20968D01*
X395125Y-20647D01*
X395446Y-20401D01*
G37*
G36*
X403010Y26340D02*
X397315Y20645D01*
X396997Y20401D01*
X396623Y20246D01*
X396221Y20193D01*
X395820Y20246D01*
X395446Y20401D01*
X395125Y20647D01*
X394879Y20968D01*
X394724Y21342D01*
X394671Y21744D01*
X394724Y22145D01*
X394879Y22519D01*
X395123Y22837D01*
X400818Y28532D01*
X403010Y26340D01*
G37*
G36*
X403010Y26340D02*
X397315Y20645D01*
X396997Y20401D01*
X396623Y20246D01*
X396221Y20193D01*
X395820Y20246D01*
X395446Y20401D01*
X395125Y20647D01*
X394879Y20968D01*
X394724Y21342D01*
X394671Y21744D01*
X394724Y22145D01*
X394879Y22519D01*
X395123Y22837D01*
X400818Y28532D01*
X403010Y26340D01*
G37*
G36*
X409588Y-6259D02*
X409962Y-6104D01*
X410364Y-6051D01*
X410765Y-6104D01*
X411139Y-6259D01*
X411457Y-6503D01*
X417152Y-12198D01*
X414960Y-14390D01*
X409265Y-8695D01*
X409021Y-8377D01*
X408866Y-8003D01*
X408813Y-7601D01*
X408866Y-7200D01*
X409021Y-6826D01*
X409267Y-6505D01*
X409588Y-6259D01*
G37*
G36*
X409588Y-6259D02*
X409962Y-6104D01*
X410364Y-6051D01*
X410765Y-6104D01*
X411139Y-6259D01*
X411457Y-6503D01*
X417152Y-12198D01*
X414960Y-14390D01*
X409265Y-8695D01*
X409021Y-8377D01*
X408866Y-8003D01*
X408813Y-7601D01*
X408866Y-7200D01*
X409021Y-6826D01*
X409267Y-6505D01*
X409588Y-6259D01*
G37*
G36*
X417152Y12198D02*
X411457Y6503D01*
X411139Y6259D01*
X410765Y6104D01*
X410364Y6051D01*
X409962Y6104D01*
X409588Y6259D01*
X409267Y6505D01*
X409021Y6826D01*
X408866Y7200D01*
X408813Y7601D01*
X408866Y8003D01*
X409021Y8377D01*
X409265Y8695D01*
X414960Y14390D01*
X417152Y12198D01*
G37*
G36*
X417152Y12198D02*
X411457Y6503D01*
X411139Y6259D01*
X410765Y6104D01*
X410364Y6051D01*
X409962Y6104D01*
X409588Y6259D01*
X409267Y6505D01*
X409021Y6826D01*
X408866Y7200D01*
X408813Y7601D01*
X408866Y8003D01*
X409021Y8377D01*
X409265Y8695D01*
X414960Y14390D01*
X417152Y12198D01*
G37*
G36*
X362566Y-2723D02*
X362940Y-2568D01*
X363341Y-2515D01*
X363742Y-2568D01*
X364116Y-2723D01*
X364437Y-2970D01*
X364684Y-3291D01*
X364839Y-3665D01*
X364891Y-4066D01*
X364839Y-4467D01*
X364684Y-4841D01*
X364439Y-5160D01*
X358745Y-10854D01*
X356553Y-8662D01*
X362247Y-2968D01*
X362566Y-2723D01*
G37*
G36*
X362566Y-2723D02*
X362940Y-2568D01*
X363341Y-2515D01*
X363742Y-2568D01*
X364116Y-2723D01*
X364437Y-2970D01*
X364684Y-3291D01*
X364839Y-3665D01*
X364891Y-4066D01*
X364839Y-4467D01*
X364684Y-4841D01*
X364439Y-5160D01*
X358745Y-10854D01*
X356553Y-8662D01*
X362247Y-2968D01*
X362566Y-2723D01*
G37*
G36*
X364439Y5160D02*
X364684Y4841D01*
X364839Y4467D01*
X364891Y4066D01*
X364839Y3665D01*
X364684Y3291D01*
X364437Y2970D01*
X364116Y2723D01*
X363742Y2568D01*
X363341Y2515D01*
X362940Y2568D01*
X362566Y2723D01*
X362247Y2968D01*
X356553Y8662D01*
X358745Y10854D01*
X364439Y5160D01*
G37*
G36*
X364439Y5160D02*
X364684Y4841D01*
X364839Y4467D01*
X364891Y4066D01*
X364839Y3665D01*
X364684Y3291D01*
X364437Y2970D01*
X364116Y2723D01*
X363742Y2568D01*
X363341Y2515D01*
X362940Y2568D01*
X362566Y2723D01*
X362247Y2968D01*
X356553Y8662D01*
X358745Y10854D01*
X364439Y5160D01*
G37*
G36*
X383779Y-23936D02*
X384153Y-23781D01*
X384554Y-23729D01*
X384955Y-23781D01*
X385329Y-23936D01*
X385650Y-24183D01*
X385897Y-24504D01*
X386052Y-24878D01*
X386105Y-25279D01*
X386052Y-25680D01*
X385897Y-26054D01*
X385653Y-26373D01*
X379958Y-32067D01*
X377766Y-29875D01*
X383460Y-24181D01*
X383779Y-23936D01*
G37*
G36*
X383779Y-23936D02*
X384153Y-23781D01*
X384554Y-23729D01*
X384955Y-23781D01*
X385329Y-23936D01*
X385650Y-24183D01*
X385897Y-24504D01*
X386052Y-24878D01*
X386105Y-25279D01*
X386052Y-25680D01*
X385897Y-26054D01*
X385653Y-26373D01*
X379958Y-32067D01*
X377766Y-29875D01*
X383460Y-24181D01*
X383779Y-23936D01*
G37*
G36*
X385653Y26373D02*
X385897Y26054D01*
X386052Y25680D01*
X386105Y25279D01*
X386052Y24878D01*
X385897Y24504D01*
X385650Y24183D01*
X385329Y23936D01*
X384955Y23781D01*
X384554Y23729D01*
X384153Y23781D01*
X383779Y23936D01*
X383460Y24181D01*
X377766Y29875D01*
X379958Y32067D01*
X385653Y26373D01*
G37*
G36*
X385653Y26373D02*
X385897Y26054D01*
X386052Y25680D01*
X386105Y25279D01*
X386052Y24878D01*
X385897Y24504D01*
X385650Y24183D01*
X385329Y23936D01*
X384955Y23781D01*
X384554Y23729D01*
X384153Y23781D01*
X383779Y23936D01*
X383460Y24181D01*
X377766Y29875D01*
X379958Y32067D01*
X385653Y26373D01*
G37*
G36*
X391911Y-23936D02*
X392285Y-23781D01*
X392686Y-23729D01*
X393087Y-23781D01*
X393461Y-23936D01*
X393780Y-24181D01*
X399474Y-29875D01*
X397282Y-32067D01*
X391588Y-26373D01*
X391343Y-26054D01*
X391188Y-25680D01*
X391135Y-25279D01*
X391188Y-24878D01*
X391343Y-24504D01*
X391590Y-24183D01*
X391911Y-23936D01*
G37*
G36*
X391911Y-23936D02*
X392285Y-23781D01*
X392686Y-23729D01*
X393087Y-23781D01*
X393461Y-23936D01*
X393780Y-24181D01*
X399474Y-29875D01*
X397282Y-32067D01*
X391588Y-26373D01*
X391343Y-26054D01*
X391188Y-25680D01*
X391135Y-25279D01*
X391188Y-24878D01*
X391343Y-24504D01*
X391590Y-24183D01*
X391911Y-23936D01*
G37*
G36*
X399474Y29875D02*
X393780Y24181D01*
X393461Y23936D01*
X393087Y23781D01*
X392686Y23729D01*
X392285Y23781D01*
X391911Y23936D01*
X391590Y24183D01*
X391343Y24504D01*
X391188Y24878D01*
X391135Y25279D01*
X391188Y25680D01*
X391343Y26054D01*
X391588Y26373D01*
X397282Y32067D01*
X399474Y29875D01*
G37*
G36*
X399474Y29875D02*
X393780Y24181D01*
X393461Y23936D01*
X393087Y23781D01*
X392686Y23729D01*
X392285Y23781D01*
X391911Y23936D01*
X391590Y24183D01*
X391343Y24504D01*
X391188Y24878D01*
X391135Y25279D01*
X391188Y25680D01*
X391343Y26054D01*
X391588Y26373D01*
X397282Y32067D01*
X399474Y29875D01*
G37*
G36*
X413124Y-2723D02*
X413498Y-2568D01*
X413899Y-2515D01*
X414300Y-2568D01*
X414674Y-2723D01*
X414993Y-2968D01*
X420687Y-8662D01*
X418495Y-10854D01*
X412801Y-5160D01*
X412556Y-4841D01*
X412401Y-4467D01*
X412349Y-4066D01*
X412401Y-3665D01*
X412556Y-3291D01*
X412803Y-2970D01*
X413124Y-2723D01*
G37*
G36*
X413124Y-2723D02*
X413498Y-2568D01*
X413899Y-2515D01*
X414300Y-2568D01*
X414674Y-2723D01*
X414993Y-2968D01*
X420687Y-8662D01*
X418495Y-10854D01*
X412801Y-5160D01*
X412556Y-4841D01*
X412401Y-4467D01*
X412349Y-4066D01*
X412401Y-3665D01*
X412556Y-3291D01*
X412803Y-2970D01*
X413124Y-2723D01*
G37*
G36*
X420687Y8662D02*
X414993Y2968D01*
X414674Y2723D01*
X414300Y2568D01*
X413899Y2515D01*
X413498Y2568D01*
X413124Y2723D01*
X412803Y2970D01*
X412556Y3291D01*
X412401Y3665D01*
X412349Y4066D01*
X412401Y4467D01*
X412556Y4841D01*
X412801Y5160D01*
X418495Y10854D01*
X420687Y8662D01*
G37*
G36*
X420687Y8662D02*
X414993Y2968D01*
X414674Y2723D01*
X414300Y2568D01*
X413899Y2515D01*
X413498Y2568D01*
X413124Y2723D01*
X412803Y2970D01*
X412556Y3291D01*
X412401Y3665D01*
X412349Y4066D01*
X412401Y4467D01*
X412556Y4841D01*
X412801Y5160D01*
X418495Y10854D01*
X420687Y8662D01*
G37*
G36*
X373172Y-13330D02*
X373546Y-13175D01*
X373948Y-13122D01*
X374349Y-13175D01*
X374723Y-13330D01*
X375044Y-13576D01*
X375290Y-13897D01*
X375445Y-14271D01*
X375498Y-14672D01*
X375445Y-15074D01*
X375290Y-15448D01*
X375046Y-15766D01*
X369351Y-21461D01*
X367159Y-19269D01*
X372854Y-13574D01*
X373172Y-13330D01*
G37*
G36*
X373172Y-13330D02*
X373546Y-13175D01*
X373948Y-13122D01*
X374349Y-13175D01*
X374723Y-13330D01*
X375044Y-13576D01*
X375290Y-13897D01*
X375445Y-14271D01*
X375498Y-14672D01*
X375445Y-15074D01*
X375290Y-15448D01*
X375046Y-15766D01*
X369351Y-21461D01*
X367159Y-19269D01*
X372854Y-13574D01*
X373172Y-13330D01*
G37*
G36*
X375046Y15766D02*
X375290Y15448D01*
X375445Y15074D01*
X375498Y14672D01*
X375445Y14271D01*
X375290Y13897D01*
X375044Y13576D01*
X374723Y13330D01*
X374349Y13175D01*
X373948Y13122D01*
X373546Y13175D01*
X373172Y13330D01*
X372854Y13574D01*
X367159Y19269D01*
X369351Y21461D01*
X375046Y15766D01*
G37*
G36*
X375046Y15766D02*
X375290Y15448D01*
X375445Y15074D01*
X375498Y14672D01*
X375445Y14271D01*
X375290Y13897D01*
X375044Y13576D01*
X374723Y13330D01*
X374349Y13175D01*
X373948Y13122D01*
X373546Y13175D01*
X373172Y13330D01*
X372854Y13574D01*
X367159Y19269D01*
X369351Y21461D01*
X375046Y15766D01*
G37*
G36*
X402517Y-13330D02*
X402891Y-13175D01*
X403292Y-13122D01*
X403694Y-13175D01*
X404068Y-13330D01*
X404386Y-13574D01*
X410081Y-19269D01*
X407889Y-21461D01*
X402194Y-15766D01*
X401950Y-15448D01*
X401795Y-15074D01*
X401742Y-14672D01*
X401795Y-14271D01*
X401950Y-13897D01*
X402196Y-13576D01*
X402517Y-13330D01*
G37*
G36*
X402517Y-13330D02*
X402891Y-13175D01*
X403292Y-13122D01*
X403694Y-13175D01*
X404068Y-13330D01*
X404386Y-13574D01*
X410081Y-19269D01*
X407889Y-21461D01*
X402194Y-15766D01*
X401950Y-15448D01*
X401795Y-15074D01*
X401742Y-14672D01*
X401795Y-14271D01*
X401950Y-13897D01*
X402196Y-13576D01*
X402517Y-13330D01*
G37*
G36*
X410081Y19269D02*
X404386Y13574D01*
X404068Y13330D01*
X403694Y13175D01*
X403292Y13122D01*
X402891Y13175D01*
X402517Y13330D01*
X402196Y13576D01*
X401950Y13897D01*
X401795Y14271D01*
X401742Y14672D01*
X401795Y15074D01*
X401950Y15448D01*
X402194Y15766D01*
X407889Y21461D01*
X410081Y19269D01*
G37*
G36*
X410081Y19269D02*
X404386Y13574D01*
X404068Y13330D01*
X403694Y13175D01*
X403292Y13122D01*
X402891Y13175D01*
X402517Y13330D01*
X402196Y13576D01*
X401950Y13897D01*
X401795Y14271D01*
X401742Y14672D01*
X401795Y15074D01*
X401950Y15448D01*
X402194Y15766D01*
X407889Y21461D01*
X410081Y19269D01*
G37*
G36*
X369637Y-9794D02*
X370011Y-9639D01*
X370412Y-9587D01*
X370813Y-9639D01*
X371187Y-9794D01*
X371508Y-10041D01*
X371755Y-10362D01*
X371910Y-10736D01*
X371962Y-11137D01*
X371910Y-11538D01*
X371755Y-11912D01*
X371510Y-12231D01*
X365816Y-17925D01*
X363624Y-15733D01*
X369318Y-10039D01*
X369637Y-9794D01*
G37*
G36*
X369637Y-9794D02*
X370011Y-9639D01*
X370412Y-9587D01*
X370813Y-9639D01*
X371187Y-9794D01*
X371508Y-10041D01*
X371755Y-10362D01*
X371910Y-10736D01*
X371962Y-11137D01*
X371910Y-11538D01*
X371755Y-11912D01*
X371510Y-12231D01*
X365816Y-17925D01*
X363624Y-15733D01*
X369318Y-10039D01*
X369637Y-9794D01*
G37*
G36*
X371510Y12231D02*
X371755Y11912D01*
X371910Y11538D01*
X371962Y11137D01*
X371910Y10736D01*
X371755Y10362D01*
X371508Y10041D01*
X371187Y9794D01*
X370813Y9639D01*
X370412Y9587D01*
X370011Y9639D01*
X369637Y9794D01*
X369318Y10039D01*
X363624Y15733D01*
X365816Y17925D01*
X371510Y12231D01*
G37*
G36*
X371510Y12231D02*
X371755Y11912D01*
X371910Y11538D01*
X371962Y11137D01*
X371910Y10736D01*
X371755Y10362D01*
X371508Y10041D01*
X371187Y9794D01*
X370813Y9639D01*
X370412Y9587D01*
X370011Y9639D01*
X369637Y9794D01*
X369318Y10039D01*
X363624Y15733D01*
X365816Y17925D01*
X371510Y12231D01*
G37*
G36*
X376708Y-16865D02*
X377082Y-16710D01*
X377483Y-16658D01*
X377884Y-16710D01*
X378258Y-16865D01*
X378579Y-17112D01*
X378826Y-17433D01*
X378981Y-17807D01*
X379034Y-18208D01*
X378981Y-18609D01*
X378826Y-18983D01*
X378581Y-19302D01*
X372887Y-24996D01*
X370695Y-22804D01*
X376389Y-17110D01*
X376708Y-16865D01*
G37*
G36*
X376708Y-16865D02*
X377082Y-16710D01*
X377483Y-16658D01*
X377884Y-16710D01*
X378258Y-16865D01*
X378579Y-17112D01*
X378826Y-17433D01*
X378981Y-17807D01*
X379034Y-18208D01*
X378981Y-18609D01*
X378826Y-18983D01*
X378581Y-19302D01*
X372887Y-24996D01*
X370695Y-22804D01*
X376389Y-17110D01*
X376708Y-16865D01*
G37*
G36*
X378581Y19302D02*
X378826Y18983D01*
X378981Y18609D01*
X379034Y18208D01*
X378981Y17807D01*
X378826Y17433D01*
X378579Y17112D01*
X378258Y16865D01*
X377884Y16710D01*
X377483Y16658D01*
X377082Y16710D01*
X376708Y16865D01*
X376389Y17110D01*
X370695Y22804D01*
X372887Y24996D01*
X378581Y19302D01*
G37*
G36*
X378581Y19302D02*
X378826Y18983D01*
X378981Y18609D01*
X379034Y18208D01*
X378981Y17807D01*
X378826Y17433D01*
X378579Y17112D01*
X378258Y16865D01*
X377884Y16710D01*
X377483Y16658D01*
X377082Y16710D01*
X376708Y16865D01*
X376389Y17110D01*
X370695Y22804D01*
X372887Y24996D01*
X378581Y19302D01*
G37*
G36*
X398982Y-16865D02*
X399356Y-16710D01*
X399757Y-16658D01*
X400158Y-16710D01*
X400532Y-16865D01*
X400851Y-17110D01*
X406545Y-22804D01*
X404353Y-24996D01*
X398659Y-19302D01*
X398414Y-18983D01*
X398259Y-18609D01*
X398207Y-18208D01*
X398259Y-17807D01*
X398414Y-17433D01*
X398661Y-17112D01*
X398982Y-16865D01*
G37*
G36*
X398982Y-16865D02*
X399356Y-16710D01*
X399757Y-16658D01*
X400158Y-16710D01*
X400532Y-16865D01*
X400851Y-17110D01*
X406545Y-22804D01*
X404353Y-24996D01*
X398659Y-19302D01*
X398414Y-18983D01*
X398259Y-18609D01*
X398207Y-18208D01*
X398259Y-17807D01*
X398414Y-17433D01*
X398661Y-17112D01*
X398982Y-16865D01*
G37*
G36*
X406545Y22804D02*
X400851Y17110D01*
X400532Y16865D01*
X400158Y16710D01*
X399757Y16658D01*
X399356Y16710D01*
X398982Y16865D01*
X398661Y17112D01*
X398414Y17433D01*
X398259Y17807D01*
X398207Y18208D01*
X398259Y18609D01*
X398414Y18983D01*
X398659Y19302D01*
X404353Y24996D01*
X406545Y22804D01*
G37*
G36*
X406545Y22804D02*
X400851Y17110D01*
X400532Y16865D01*
X400158Y16710D01*
X399757Y16658D01*
X399356Y16710D01*
X398982Y16865D01*
X398661Y17112D01*
X398414Y17433D01*
X398259Y17807D01*
X398207Y18208D01*
X398259Y18609D01*
X398414Y18983D01*
X398659Y19302D01*
X404353Y24996D01*
X406545Y22804D01*
G37*
G36*
X406053Y-9794D02*
X406427Y-9639D01*
X406828Y-9587D01*
X407229Y-9639D01*
X407603Y-9794D01*
X407922Y-10039D01*
X413616Y-15733D01*
X411424Y-17925D01*
X405730Y-12231D01*
X405485Y-11912D01*
X405330Y-11538D01*
X405278Y-11137D01*
X405330Y-10736D01*
X405485Y-10362D01*
X405732Y-10041D01*
X406053Y-9794D01*
G37*
G36*
X406053Y-9794D02*
X406427Y-9639D01*
X406828Y-9587D01*
X407229Y-9639D01*
X407603Y-9794D01*
X407922Y-10039D01*
X413616Y-15733D01*
X411424Y-17925D01*
X405730Y-12231D01*
X405485Y-11912D01*
X405330Y-11538D01*
X405278Y-11137D01*
X405330Y-10736D01*
X405485Y-10362D01*
X405732Y-10041D01*
X406053Y-9794D01*
G37*
G36*
X413616Y15733D02*
X407922Y10039D01*
X407603Y9794D01*
X407229Y9639D01*
X406828Y9587D01*
X406427Y9639D01*
X406053Y9794D01*
X405732Y10041D01*
X405485Y10362D01*
X405330Y10736D01*
X405278Y11137D01*
X405330Y11538D01*
X405485Y11912D01*
X405730Y12231D01*
X411424Y17925D01*
X413616Y15733D01*
G37*
G36*
X413616Y15733D02*
X407922Y10039D01*
X407603Y9794D01*
X407229Y9639D01*
X406828Y9587D01*
X406427Y9639D01*
X406053Y9794D01*
X405732Y10041D01*
X405485Y10362D01*
X405330Y10736D01*
X405278Y11137D01*
X405330Y11538D01*
X405485Y11912D01*
X405730Y12231D01*
X411424Y17925D01*
X413616Y15733D01*
G37*
G36*
X412379Y0D02*
X390409Y-21970D01*
X386832Y-21970D01*
X364861Y0D01*
X388620Y23759D01*
X412379Y0D01*
G37*
G36*
X412379Y0D02*
X390409Y-21970D01*
X386832Y-21970D01*
X364861Y0D01*
X388620Y23759D01*
X412379Y0D01*
G37*
D10*
X116078Y0D03*
X218578Y0D03*
X566928Y0D03*
X464428Y0D03*
D11*
X257200Y14508D03*
X266700Y14508D03*
X276200Y14508D03*
X276200Y-13492D03*
X257200Y-13492D03*
D12*
X243840Y-4492D03*
X243840Y5508D03*
D13*
X18970Y-28448D03*
X8970Y-28448D03*
X289640Y16002D03*
X299640Y16002D03*
D14*
X8128Y9500D03*
X8128Y-9500D03*
D15*
X10010Y43200D02*
X23010Y43200D01*
X23010Y-43200D02*
X10010Y-43200D01*
X51810Y43200D02*
X64810Y43200D01*
X64810Y-43200D02*
X51810Y-43200D01*
D16*
X182760Y-19050D03*
X167760Y-19050D03*
X182760Y17780D03*
X167760Y17780D03*
D17*
X144780Y-13500D03*
X144780Y13500D03*
D18*
X198630Y0D03*
X167130Y0D03*
D19*
X80250Y11750D02*
X69750Y11750D01*
X80250Y11750D02*
X80250Y7250D01*
X69750Y7250D01*
X69750Y11750D01*
X69750Y8675D02*
X80250Y8675D01*
X80250Y10100D02*
X69750Y10100D01*
X69750Y11525D02*
X80250Y11525D01*
X80250Y2250D02*
X69750Y2250D01*
X80250Y2250D02*
X80250Y-2250D01*
X69750Y-2250D01*
X69750Y2250D01*
X69750Y-825D02*
X80250Y-825D01*
X80250Y600D02*
X69750Y600D01*
X69750Y2025D02*
X80250Y2025D01*
X80250Y-7250D02*
X69750Y-7250D01*
X80250Y-7250D02*
X80250Y-11750D01*
X69750Y-11750D01*
X69750Y-7250D01*
X69750Y-10325D02*
X80250Y-10325D01*
X80250Y-8900D02*
X69750Y-8900D01*
X69750Y-7475D02*
X80250Y-7475D01*
X57250Y-7250D02*
X46750Y-7250D01*
X57250Y-7250D02*
X57250Y-11750D01*
X46750Y-11750D01*
X46750Y-7250D01*
X46750Y-10325D02*
X57250Y-10325D01*
X57250Y-8900D02*
X46750Y-8900D01*
X46750Y-7475D02*
X57250Y-7475D01*
X57250Y2250D02*
X46750Y2250D01*
X57250Y2250D02*
X57250Y-2250D01*
X46750Y-2250D01*
X46750Y2250D01*
X46750Y-825D02*
X57250Y-825D01*
X57250Y600D02*
X46750Y600D01*
X46750Y2025D02*
X57250Y2025D01*
X57250Y11750D02*
X46750Y11750D01*
X57250Y11750D02*
X57250Y7250D01*
X46750Y7250D01*
X46750Y11750D01*
X46750Y8675D02*
X57250Y8675D01*
X57250Y10100D02*
X46750Y10100D01*
X46750Y11525D02*
X57250Y11525D01*
D13*
X92790Y20320D03*
X102790Y20320D03*
X90250Y-19050D03*
X100250Y-19050D03*
D20*
G36*
X397600Y0D02*
X388620Y-8980D01*
X379640Y0D01*
X388620Y8980D01*
X397600Y0D01*
G37*
D21*
G36*
X362810Y6364D02*
X361043Y4597D01*
X359276Y6364D01*
X361043Y8131D01*
X362810Y6364D01*
G37*
G36*
X384023Y-27577D02*
X382256Y-29344D01*
X380489Y-27577D01*
X382256Y-25810D01*
X384023Y-27577D01*
G37*
G36*
X380488Y-24042D02*
X378721Y-25809D01*
X376954Y-24042D01*
X378721Y-22275D01*
X380488Y-24042D01*
G37*
G36*
X376952Y-20506D02*
X375185Y-22273D01*
X373418Y-20506D01*
X375185Y-18739D01*
X376952Y-20506D01*
G37*
G36*
X373416Y-16971D02*
X371649Y-18738D01*
X369882Y-16971D01*
X371649Y-15204D01*
X373416Y-16971D01*
G37*
G36*
X369881Y-13435D02*
X368114Y-15202D01*
X366347Y-13435D01*
X368114Y-11668D01*
X369881Y-13435D01*
G37*
G36*
X366345Y-9899D02*
X364578Y-11666D01*
X362811Y-9899D01*
X364578Y-8132D01*
X366345Y-9899D01*
G37*
G36*
X362810Y-6364D02*
X361043Y-8131D01*
X359276Y-6364D01*
X361043Y-4597D01*
X362810Y-6364D01*
G37*
G36*
X366345Y9899D02*
X364578Y8132D01*
X362811Y9899D01*
X364578Y11666D01*
X366345Y9899D01*
G37*
G36*
X369881Y13435D02*
X368114Y11668D01*
X366347Y13435D01*
X368114Y15202D01*
X369881Y13435D01*
G37*
G36*
X373416Y16971D02*
X371649Y15204D01*
X369882Y16971D01*
X371649Y18738D01*
X373416Y16971D01*
G37*
G36*
X376952Y20506D02*
X375185Y18739D01*
X373418Y20506D01*
X375185Y22273D01*
X376952Y20506D01*
G37*
G36*
X380488Y24042D02*
X378721Y22275D01*
X376954Y24042D01*
X378721Y25809D01*
X380488Y24042D01*
G37*
G36*
X384023Y27577D02*
X382256Y25810D01*
X380489Y27577D01*
X382256Y29344D01*
X384023Y27577D01*
G37*
G36*
X417964Y-6364D02*
X416197Y-8131D01*
X414430Y-6364D01*
X416197Y-4597D01*
X417964Y-6364D01*
G37*
G36*
X396751Y27577D02*
X394984Y25810D01*
X393217Y27577D01*
X394984Y29344D01*
X396751Y27577D01*
G37*
G36*
X400287Y24042D02*
X398520Y22275D01*
X396753Y24042D01*
X398520Y25809D01*
X400287Y24042D01*
G37*
G36*
X403822Y20506D02*
X402055Y18739D01*
X400288Y20506D01*
X402055Y22273D01*
X403822Y20506D01*
G37*
G36*
X407358Y16971D02*
X405591Y15204D01*
X403824Y16971D01*
X405591Y18738D01*
X407358Y16971D01*
G37*
G36*
X410893Y13435D02*
X409126Y11668D01*
X407359Y13435D01*
X409126Y15202D01*
X410893Y13435D01*
G37*
G36*
X414429Y9899D02*
X412662Y8132D01*
X410895Y9899D01*
X412662Y11666D01*
X414429Y9899D01*
G37*
G36*
X417964Y6364D02*
X416197Y4597D01*
X414430Y6364D01*
X416197Y8131D01*
X417964Y6364D01*
G37*
G36*
X414429Y-9899D02*
X412662Y-11666D01*
X410895Y-9899D01*
X412662Y-8132D01*
X414429Y-9899D01*
G37*
G36*
X410893Y-13435D02*
X409126Y-15202D01*
X407359Y-13435D01*
X409126Y-11668D01*
X410893Y-13435D01*
G37*
G36*
X407358Y-16971D02*
X405591Y-18738D01*
X403824Y-16971D01*
X405591Y-15204D01*
X407358Y-16971D01*
G37*
G36*
X403822Y-20506D02*
X402055Y-22273D01*
X400288Y-20506D01*
X402055Y-18739D01*
X403822Y-20506D01*
G37*
G36*
X400287Y-24042D02*
X398520Y-25809D01*
X396753Y-24042D01*
X398520Y-22275D01*
X400287Y-24042D01*
G37*
G36*
X396751Y-27577D02*
X394984Y-29344D01*
X393217Y-27577D01*
X394984Y-25810D01*
X396751Y-27577D01*
G37*
D12*
X345440Y6430D03*
X345440Y16430D03*
X334010Y6430D03*
X334010Y16430D03*
D13*
X440610Y-10160D03*
X430610Y-10160D03*
X443150Y-20320D03*
X433150Y-20320D03*
X434260Y-34290D03*
X424260Y-34290D03*
D12*
X345440Y-6430D03*
X345440Y-16430D03*
X334010Y-6430D03*
X334010Y-16430D03*
D13*
X537820Y14130D03*
X518820Y14130D03*
X528320Y34130D03*
X543480Y1270D03*
X533480Y1270D03*
X518820Y-11590D03*
X537820Y-11590D03*
X528320Y-31590D03*
X513160Y1270D03*
X523160Y1270D03*
D22*
X659130Y-30480D03*
X671830Y-30480D03*
X684530Y-30480D03*
X697230Y-30480D03*
D23*
X77470Y38100D03*
D24*
X75000Y0D02*
X86360Y0D01*
D23*
X86360Y0D03*
X77720Y-39120D03*
X707418Y-30480D03*
X388620Y0D03*
D25*
X388620Y-7071D02*
X375185Y-20506D01*
X388620Y-7071D02*
X388620Y0D01*
D23*
X306070Y-13744D03*
X500380Y-29436D03*
X539750Y-44478D03*
X417830Y-44478D03*
X596900Y-35334D03*
D24*
X277694Y16002D02*
X276200Y14508D01*
D26*
X277694Y16002D02*
X289640Y16002D01*
X289640Y24210D01*
X292100Y26670D01*
X306070Y40640D01*
X400050Y40640D01*
X439420Y40640D01*
D24*
X440690Y39370D01*
D23*
X440690Y39370D03*
D24*
X566928Y0D02*
X590098Y-23170D01*
X656256Y-30480D02*
X659130Y-30480D01*
X656256Y-30480D02*
X648946Y-23170D01*
X590098Y-23170D01*
D27*
X8128Y9500D02*
X8128Y22098D01*
X12700Y26670D01*
X36830Y26670D01*
X73660Y29210D02*
X179070Y29210D01*
X248920Y29210D01*
X252730Y25400D01*
X257200Y20930D01*
X257200Y14508D01*
X66036Y21586D02*
X41914Y21586D01*
X36830Y26670D01*
X66036Y21586D02*
X73660Y29210D01*
X8970Y-28448D02*
X8128Y-27606D01*
X8128Y-9500D01*
X257200Y-7010D02*
X257200Y-13492D01*
X257200Y-7010D02*
X255270Y-5080D01*
X254682Y-4492D01*
X243840Y-4492D01*
D25*
X334010Y6430D02*
X345440Y6430D01*
X360977Y6430D01*
X361043Y6364D01*
X334010Y6430D02*
X309960Y6430D01*
X298450Y-5080D01*
X290038Y-13492D01*
X276200Y-13492D01*
D23*
X199390Y-30480D03*
D24*
X198630Y-29720D01*
X198630Y0D01*
D27*
X40132Y-28448D02*
X18970Y-28448D01*
X71120Y-22860D02*
X77470Y-29210D01*
X71120Y-22860D02*
X57614Y-22860D01*
X77470Y-29210D02*
X86360Y-38100D01*
X104140Y-38100D01*
D23*
X104140Y-38100D03*
D24*
X276200Y-32360D02*
X276200Y-13492D01*
D25*
X276200Y-32360D02*
X276860Y-33020D01*
D23*
X276860Y-33020D03*
D27*
X57614Y-22860D02*
X56340Y-21586D01*
X46994Y-21586D01*
X40132Y-28448D01*
D24*
X150330Y-19050D02*
X167760Y-19050D01*
X150330Y-19050D02*
X144780Y-13500D01*
D23*
X119380Y-26670D03*
D24*
X129540Y-26670D01*
X130810Y-25400D01*
X133350Y-22860D02*
X133350Y-17780D01*
X133350Y-22860D02*
X130810Y-25400D01*
X133350Y-17780D02*
X137630Y-13500D01*
X144780Y-13500D01*
D23*
X130810Y-25400D03*
D24*
X52000Y0D02*
X33020Y0D01*
D23*
X33020Y0D03*
D28*
X528320Y-31590D02*
X567304Y-31590D01*
D23*
X579120Y-38382D03*
D28*
X574096Y-38382D02*
X567304Y-31590D01*
X574096Y-38382D02*
X579120Y-38382D01*
D23*
X323850Y-6350D03*
D25*
X333930Y-6350D02*
X334010Y-6430D01*
X364446Y-9899D02*
X364578Y-9899D01*
X345440Y-6430D02*
X334010Y-6430D01*
X323930Y-6430D01*
X323850Y-6350D01*
X361043Y-6364D02*
X364578Y-9899D01*
X361043Y-6364D02*
X345506Y-6364D01*
X345440Y-6430D01*
X671830Y-30480D02*
X671830Y-39370D01*
X669290Y-41910D01*
D23*
X650014Y-35334D03*
D25*
X655179Y-41910D02*
X669290Y-41910D01*
X655179Y-41910D02*
X650014Y-36745D01*
X650014Y-35334D01*
X409489Y-27940D02*
X402055Y-20506D01*
X409489Y-27940D02*
X409489Y-27940D01*
D28*
X464253Y-27940D01*
D23*
X551532Y-42828D03*
D28*
X476737Y-40424D02*
X464253Y-27940D01*
X476737Y-40424D02*
X533529Y-40424D01*
X535543Y-38410D01*
X547113Y-38410D01*
X551532Y-42828D01*
X507317Y-20320D02*
X443150Y-20320D01*
X507317Y-20320D02*
X524373Y-37376D01*
D23*
X564299Y-44478D03*
D28*
X532267Y-37376D02*
X524373Y-37376D01*
X555183Y-35362D02*
X564299Y-44478D01*
X555183Y-35362D02*
X534281Y-35362D01*
X532267Y-37376D01*
X528480Y34290D02*
X585470Y34290D01*
X528480Y34290D02*
X528320Y34130D01*
X585470Y34290D02*
X597503Y22257D01*
D23*
X597690Y22257D03*
D28*
X597503Y22257D01*
D24*
X182760Y0D02*
X182760Y-19050D01*
X182760Y0D02*
X182760Y17780D01*
X182760Y0D02*
X167130Y0D01*
D28*
X52000Y-9500D02*
X39980Y-9500D01*
X39370Y-8890D01*
D23*
X39370Y-8890D03*
D28*
X41300Y9500D02*
X52000Y9500D01*
X41300Y9500D02*
X40640Y10160D01*
D23*
X40640Y10160D03*
X81280Y19050D03*
D28*
X82550Y20320D02*
X92790Y20320D01*
X82550Y20320D02*
X81280Y19050D01*
D23*
X78881Y-17806D03*
D28*
X89006Y-17806D02*
X90250Y-19050D01*
X89006Y-17806D02*
X78881Y-17806D01*
X371649Y-16971D02*
X371649Y-16971D01*
X364336Y-24284D02*
X363374Y-24284D01*
X345522Y-42136D01*
X109346Y-29528D02*
X109346Y-18413D01*
X109346Y-29528D02*
X121954Y-42136D01*
X345522Y-42136D01*
X100433Y-9500D02*
X75000Y-9500D01*
X100433Y-9500D02*
X109346Y-18413D01*
X364336Y-24284D02*
X371649Y-16971D01*
X90830Y9500D02*
X75000Y9500D01*
X360680Y-20869D02*
X360680Y-21590D01*
X343182Y-39088D01*
X123217Y-39088D01*
X100964Y-634D02*
X90830Y9500D01*
X100964Y-634D02*
X100964Y-5721D01*
X112394Y-17151D02*
X112394Y-28266D01*
X123217Y-39088D01*
X112394Y-17151D02*
X100964Y-5721D01*
X360680Y-20869D02*
X368114Y-13435D01*
D25*
X422499Y-18271D02*
X430610Y-10160D01*
X413962Y-18271D02*
X409126Y-13435D01*
X413962Y-18271D02*
X422499Y-18271D01*
D28*
X430610Y-22860D02*
X433150Y-20320D01*
X430610Y-22860D02*
X411480Y-22860D01*
D25*
X405591Y-16971D01*
X411480Y-22860D02*
X411480Y-22860D01*
X401697Y-34290D02*
X424260Y-34290D01*
X401697Y-34290D02*
X394984Y-27577D01*
X394984Y-27577D01*
X532290Y-11590D02*
X537820Y-11590D01*
X543560Y-11590D01*
X543560Y1190D02*
X543480Y1270D01*
X543560Y1190D02*
X543560Y-11590D01*
D23*
X528320Y-8370D03*
D25*
X529070Y-8370D02*
X532290Y-11590D01*
X529070Y-8370D02*
X528320Y-8370D01*
D23*
X447040Y-36310D03*
D25*
X445020Y-34290D01*
X434260Y-34290D01*
X504190Y1270D02*
X513160Y1270D01*
X513160Y8470D01*
X518820Y14130D01*
X457909Y-10160D02*
X440610Y-10160D01*
X457909Y-10160D02*
X459543Y-11794D01*
X491126Y-11794D01*
X504190Y1270D01*
X533480Y1270D02*
X533480Y9790D01*
X537820Y14130D01*
X523160Y1270D02*
X523160Y-3480D01*
X521744Y-4896D01*
X521744Y-8666D01*
X518820Y-11590D01*
M02*
