G04 EAGLE Gerber RS-274X export*
G75*
%MOMM*%
%FSLAX34Y34*%
%LPD*%
%IN*%
%IPPOS*%
%AMOC8*
5,1,8,0,0,1.08239X$1,22.5*%
G01*
G04 Define Apertures*
%ADD10C,0.254000*%
D10*
X0Y-50800D02*
X713740Y-50800D01*
X713740Y-17958D01*
X604012Y-17958D01*
X604012Y50800D01*
X0Y50800D01*
X0Y-50800D01*
X54310Y-46200D02*
X62310Y-46200D01*
X62571Y-46189D01*
X62831Y-46154D01*
X63086Y-46098D01*
X63336Y-46019D01*
X63578Y-45919D01*
X63810Y-45798D01*
X64031Y-45657D01*
X64238Y-45498D01*
X64431Y-45321D01*
X64608Y-45128D01*
X64767Y-44921D01*
X64908Y-44700D01*
X65029Y-44468D01*
X65129Y-44226D01*
X65208Y-43976D01*
X65264Y-43721D01*
X65299Y-43461D01*
X65310Y-43200D01*
X65299Y-42939D01*
X65264Y-42679D01*
X65208Y-42424D01*
X65129Y-42174D01*
X65029Y-41932D01*
X64908Y-41700D01*
X64767Y-41479D01*
X64608Y-41272D01*
X64431Y-41079D01*
X64238Y-40902D01*
X64031Y-40743D01*
X63810Y-40602D01*
X63578Y-40481D01*
X63336Y-40381D01*
X63086Y-40302D01*
X62831Y-40246D01*
X62571Y-40211D01*
X62310Y-40200D01*
X54310Y-40200D01*
X54049Y-40211D01*
X53789Y-40246D01*
X53534Y-40302D01*
X53284Y-40381D01*
X53042Y-40481D01*
X52810Y-40602D01*
X52589Y-40743D01*
X52382Y-40902D01*
X52189Y-41079D01*
X52012Y-41272D01*
X51853Y-41479D01*
X51712Y-41700D01*
X51591Y-41932D01*
X51491Y-42174D01*
X51412Y-42424D01*
X51356Y-42679D01*
X51321Y-42939D01*
X51310Y-43200D01*
X51321Y-43461D01*
X51356Y-43721D01*
X51412Y-43976D01*
X51491Y-44226D01*
X51591Y-44468D01*
X51712Y-44700D01*
X51853Y-44921D01*
X52012Y-45128D01*
X52189Y-45321D01*
X52382Y-45498D01*
X52589Y-45657D01*
X52810Y-45798D01*
X53042Y-45919D01*
X53284Y-46019D01*
X53534Y-46098D01*
X53789Y-46154D01*
X54049Y-46189D01*
X54310Y-46200D01*
X54310Y40200D02*
X62310Y40200D01*
X62571Y40211D01*
X62831Y40246D01*
X63086Y40302D01*
X63336Y40381D01*
X63578Y40481D01*
X63810Y40602D01*
X64031Y40743D01*
X64238Y40902D01*
X64431Y41079D01*
X64608Y41272D01*
X64767Y41479D01*
X64908Y41700D01*
X65029Y41932D01*
X65129Y42174D01*
X65208Y42424D01*
X65264Y42679D01*
X65299Y42939D01*
X65310Y43200D01*
X65299Y43461D01*
X65264Y43721D01*
X65208Y43976D01*
X65129Y44226D01*
X65029Y44468D01*
X64908Y44700D01*
X64767Y44921D01*
X64608Y45128D01*
X64431Y45321D01*
X64238Y45498D01*
X64031Y45657D01*
X63810Y45798D01*
X63578Y45919D01*
X63336Y46019D01*
X63086Y46098D01*
X62831Y46154D01*
X62571Y46189D01*
X62310Y46200D01*
X54310Y46200D01*
X54049Y46189D01*
X53789Y46154D01*
X53534Y46098D01*
X53284Y46019D01*
X53042Y45919D01*
X52810Y45798D01*
X52589Y45657D01*
X52382Y45498D01*
X52189Y45321D01*
X52012Y45128D01*
X51853Y44921D01*
X51712Y44700D01*
X51591Y44468D01*
X51491Y44226D01*
X51412Y43976D01*
X51356Y43721D01*
X51321Y43461D01*
X51310Y43200D01*
X51321Y42939D01*
X51356Y42679D01*
X51412Y42424D01*
X51491Y42174D01*
X51591Y41932D01*
X51712Y41700D01*
X51853Y41479D01*
X52012Y41272D01*
X52189Y41079D01*
X52382Y40902D01*
X52589Y40743D01*
X52810Y40602D01*
X53042Y40481D01*
X53284Y40381D01*
X53534Y40302D01*
X53789Y40246D01*
X54049Y40211D01*
X54310Y40200D01*
X12510Y40200D02*
X20510Y40200D01*
X20771Y40211D01*
X21031Y40246D01*
X21286Y40302D01*
X21536Y40381D01*
X21778Y40481D01*
X22010Y40602D01*
X22231Y40743D01*
X22438Y40902D01*
X22631Y41079D01*
X22808Y41272D01*
X22967Y41479D01*
X23108Y41700D01*
X23229Y41932D01*
X23329Y42174D01*
X23408Y42424D01*
X23464Y42679D01*
X23499Y42939D01*
X23510Y43200D01*
X23499Y43461D01*
X23464Y43721D01*
X23408Y43976D01*
X23329Y44226D01*
X23229Y44468D01*
X23108Y44700D01*
X22967Y44921D01*
X22808Y45128D01*
X22631Y45321D01*
X22438Y45498D01*
X22231Y45657D01*
X22010Y45798D01*
X21778Y45919D01*
X21536Y46019D01*
X21286Y46098D01*
X21031Y46154D01*
X20771Y46189D01*
X20510Y46200D01*
X12510Y46200D01*
X12249Y46189D01*
X11989Y46154D01*
X11734Y46098D01*
X11484Y46019D01*
X11242Y45919D01*
X11010Y45798D01*
X10789Y45657D01*
X10582Y45498D01*
X10389Y45321D01*
X10212Y45128D01*
X10053Y44921D01*
X9912Y44700D01*
X9791Y44468D01*
X9691Y44226D01*
X9612Y43976D01*
X9556Y43721D01*
X9521Y43461D01*
X9510Y43200D01*
X9521Y42939D01*
X9556Y42679D01*
X9612Y42424D01*
X9691Y42174D01*
X9791Y41932D01*
X9912Y41700D01*
X10053Y41479D01*
X10212Y41272D01*
X10389Y41079D01*
X10582Y40902D01*
X10789Y40743D01*
X11010Y40602D01*
X11242Y40481D01*
X11484Y40381D01*
X11734Y40302D01*
X11989Y40246D01*
X12249Y40211D01*
X12510Y40200D01*
X12510Y-46200D02*
X20510Y-46200D01*
X20771Y-46189D01*
X21031Y-46154D01*
X21286Y-46098D01*
X21536Y-46019D01*
X21778Y-45919D01*
X22010Y-45798D01*
X22231Y-45657D01*
X22438Y-45498D01*
X22631Y-45321D01*
X22808Y-45128D01*
X22967Y-44921D01*
X23108Y-44700D01*
X23229Y-44468D01*
X23329Y-44226D01*
X23408Y-43976D01*
X23464Y-43721D01*
X23499Y-43461D01*
X23510Y-43200D01*
X23499Y-42939D01*
X23464Y-42679D01*
X23408Y-42424D01*
X23329Y-42174D01*
X23229Y-41932D01*
X23108Y-41700D01*
X22967Y-41479D01*
X22808Y-41272D01*
X22631Y-41079D01*
X22438Y-40902D01*
X22231Y-40743D01*
X22010Y-40602D01*
X21778Y-40481D01*
X21536Y-40381D01*
X21286Y-40302D01*
X21031Y-40246D01*
X20771Y-40211D01*
X20510Y-40200D01*
X12510Y-40200D01*
X12249Y-40211D01*
X11989Y-40246D01*
X11734Y-40302D01*
X11484Y-40381D01*
X11242Y-40481D01*
X11010Y-40602D01*
X10789Y-40743D01*
X10582Y-40902D01*
X10389Y-41079D01*
X10212Y-41272D01*
X10053Y-41479D01*
X9912Y-41700D01*
X9791Y-41932D01*
X9691Y-42174D01*
X9612Y-42424D01*
X9556Y-42679D01*
X9521Y-42939D01*
X9510Y-43200D01*
X9521Y-43461D01*
X9556Y-43721D01*
X9612Y-43976D01*
X9691Y-44226D01*
X9791Y-44468D01*
X9912Y-44700D01*
X10053Y-44921D01*
X10212Y-45128D01*
X10389Y-45321D01*
X10582Y-45498D01*
X10789Y-45657D01*
X11010Y-45798D01*
X11242Y-45919D01*
X11484Y-46019D01*
X11734Y-46098D01*
X11989Y-46154D01*
X12249Y-46189D01*
X12510Y-46200D01*
M02*
