G04 EAGLE Gerber RS-274X export*
G75*
%MOMM*%
%FSLAX34Y34*%
%LPD*%
%IN*%
%IPPOS*%
%AMOC8*
5,1,8,0,0,1.08239X$1,22.5*%
G01*
G04 Define Apertures*
%ADD10C,0.254000*%
D10*
X0Y-50800D02*
X828040Y-50800D01*
X828040Y50800D01*
X0Y50800D01*
X0Y-50800D01*
X15210Y-43200D02*
X15221Y-43461D01*
X15256Y-43721D01*
X15312Y-43976D01*
X15391Y-44226D01*
X15491Y-44468D01*
X15612Y-44700D01*
X15753Y-44921D01*
X15912Y-45128D01*
X16089Y-45321D01*
X16282Y-45498D01*
X16489Y-45657D01*
X16710Y-45798D01*
X16942Y-45919D01*
X17184Y-46019D01*
X17434Y-46098D01*
X17689Y-46154D01*
X17949Y-46189D01*
X18210Y-46200D01*
X24210Y-46200D01*
X24471Y-46189D01*
X24731Y-46154D01*
X24986Y-46098D01*
X25236Y-46019D01*
X25478Y-45919D01*
X25710Y-45798D01*
X25931Y-45657D01*
X26138Y-45498D01*
X26331Y-45321D01*
X26508Y-45128D01*
X26667Y-44921D01*
X26808Y-44700D01*
X26929Y-44468D01*
X27029Y-44226D01*
X27108Y-43976D01*
X27164Y-43721D01*
X27199Y-43461D01*
X27210Y-43200D01*
X27199Y-42939D01*
X27164Y-42679D01*
X27108Y-42424D01*
X27029Y-42174D01*
X26929Y-41932D01*
X26808Y-41700D01*
X26667Y-41479D01*
X26508Y-41272D01*
X26331Y-41079D01*
X26138Y-40902D01*
X25931Y-40743D01*
X25710Y-40602D01*
X25478Y-40481D01*
X25236Y-40381D01*
X24986Y-40302D01*
X24731Y-40246D01*
X24471Y-40211D01*
X24210Y-40200D01*
X18210Y-40200D01*
X17949Y-40211D01*
X17689Y-40246D01*
X17434Y-40302D01*
X17184Y-40381D01*
X16942Y-40481D01*
X16710Y-40602D01*
X16489Y-40743D01*
X16282Y-40902D01*
X16089Y-41079D01*
X15912Y-41272D01*
X15753Y-41479D01*
X15612Y-41700D01*
X15491Y-41932D01*
X15391Y-42174D01*
X15312Y-42424D01*
X15256Y-42679D01*
X15221Y-42939D01*
X15210Y-43200D01*
X15210Y43200D02*
X15221Y42939D01*
X15256Y42679D01*
X15312Y42424D01*
X15391Y42174D01*
X15491Y41932D01*
X15612Y41700D01*
X15753Y41479D01*
X15912Y41272D01*
X16089Y41079D01*
X16282Y40902D01*
X16489Y40743D01*
X16710Y40602D01*
X16942Y40481D01*
X17184Y40381D01*
X17434Y40302D01*
X17689Y40246D01*
X17949Y40211D01*
X18210Y40200D01*
X24210Y40200D01*
X24471Y40211D01*
X24731Y40246D01*
X24986Y40302D01*
X25236Y40381D01*
X25478Y40481D01*
X25710Y40602D01*
X25931Y40743D01*
X26138Y40902D01*
X26331Y41079D01*
X26508Y41272D01*
X26667Y41479D01*
X26808Y41700D01*
X26929Y41932D01*
X27029Y42174D01*
X27108Y42424D01*
X27164Y42679D01*
X27199Y42939D01*
X27210Y43200D01*
X27199Y43461D01*
X27164Y43721D01*
X27108Y43976D01*
X27029Y44226D01*
X26929Y44468D01*
X26808Y44700D01*
X26667Y44921D01*
X26508Y45128D01*
X26331Y45321D01*
X26138Y45498D01*
X25931Y45657D01*
X25710Y45798D01*
X25478Y45919D01*
X25236Y46019D01*
X24986Y46098D01*
X24731Y46154D01*
X24471Y46189D01*
X24210Y46200D01*
X18210Y46200D01*
X17949Y46189D01*
X17689Y46154D01*
X17434Y46098D01*
X17184Y46019D01*
X16942Y45919D01*
X16710Y45798D01*
X16489Y45657D01*
X16282Y45498D01*
X16089Y45321D01*
X15912Y45128D01*
X15753Y44921D01*
X15612Y44700D01*
X15491Y44468D01*
X15391Y44226D01*
X15312Y43976D01*
X15256Y43721D01*
X15221Y43461D01*
X15210Y43200D01*
X53210Y-43200D02*
X53221Y-43461D01*
X53256Y-43721D01*
X53312Y-43976D01*
X53391Y-44226D01*
X53491Y-44468D01*
X53612Y-44700D01*
X53753Y-44921D01*
X53912Y-45128D01*
X54089Y-45321D01*
X54282Y-45498D01*
X54489Y-45657D01*
X54710Y-45798D01*
X54942Y-45919D01*
X55184Y-46019D01*
X55434Y-46098D01*
X55689Y-46154D01*
X55949Y-46189D01*
X56210Y-46200D01*
X62210Y-46200D01*
X62471Y-46189D01*
X62731Y-46154D01*
X62986Y-46098D01*
X63236Y-46019D01*
X63478Y-45919D01*
X63710Y-45798D01*
X63931Y-45657D01*
X64138Y-45498D01*
X64331Y-45321D01*
X64508Y-45128D01*
X64667Y-44921D01*
X64808Y-44700D01*
X64929Y-44468D01*
X65029Y-44226D01*
X65108Y-43976D01*
X65164Y-43721D01*
X65199Y-43461D01*
X65210Y-43200D01*
X65199Y-42939D01*
X65164Y-42679D01*
X65108Y-42424D01*
X65029Y-42174D01*
X64929Y-41932D01*
X64808Y-41700D01*
X64667Y-41479D01*
X64508Y-41272D01*
X64331Y-41079D01*
X64138Y-40902D01*
X63931Y-40743D01*
X63710Y-40602D01*
X63478Y-40481D01*
X63236Y-40381D01*
X62986Y-40302D01*
X62731Y-40246D01*
X62471Y-40211D01*
X62210Y-40200D01*
X56210Y-40200D01*
X55949Y-40211D01*
X55689Y-40246D01*
X55434Y-40302D01*
X55184Y-40381D01*
X54942Y-40481D01*
X54710Y-40602D01*
X54489Y-40743D01*
X54282Y-40902D01*
X54089Y-41079D01*
X53912Y-41272D01*
X53753Y-41479D01*
X53612Y-41700D01*
X53491Y-41932D01*
X53391Y-42174D01*
X53312Y-42424D01*
X53256Y-42679D01*
X53221Y-42939D01*
X53210Y-43200D01*
X53210Y43200D02*
X53221Y42939D01*
X53256Y42679D01*
X53312Y42424D01*
X53391Y42174D01*
X53491Y41932D01*
X53612Y41700D01*
X53753Y41479D01*
X53912Y41272D01*
X54089Y41079D01*
X54282Y40902D01*
X54489Y40743D01*
X54710Y40602D01*
X54942Y40481D01*
X55184Y40381D01*
X55434Y40302D01*
X55689Y40246D01*
X55949Y40211D01*
X56210Y40200D01*
X62210Y40200D01*
X62471Y40211D01*
X62731Y40246D01*
X62986Y40302D01*
X63236Y40381D01*
X63478Y40481D01*
X63710Y40602D01*
X63931Y40743D01*
X64138Y40902D01*
X64331Y41079D01*
X64508Y41272D01*
X64667Y41479D01*
X64808Y41700D01*
X64929Y41932D01*
X65029Y42174D01*
X65108Y42424D01*
X65164Y42679D01*
X65199Y42939D01*
X65210Y43200D01*
X65199Y43461D01*
X65164Y43721D01*
X65108Y43976D01*
X65029Y44226D01*
X64929Y44468D01*
X64808Y44700D01*
X64667Y44921D01*
X64508Y45128D01*
X64331Y45321D01*
X64138Y45498D01*
X63931Y45657D01*
X63710Y45798D01*
X63478Y45919D01*
X63236Y46019D01*
X62986Y46098D01*
X62731Y46154D01*
X62471Y46189D01*
X62210Y46200D01*
X56210Y46200D01*
X55949Y46189D01*
X55689Y46154D01*
X55434Y46098D01*
X55184Y46019D01*
X54942Y45919D01*
X54710Y45798D01*
X54489Y45657D01*
X54282Y45498D01*
X54089Y45321D01*
X53912Y45128D01*
X53753Y44921D01*
X53612Y44700D01*
X53491Y44468D01*
X53391Y44226D01*
X53312Y43976D01*
X53256Y43721D01*
X53221Y43461D01*
X53210Y43200D01*
M02*
