G04 EAGLE Gerber RS-274X export*
G75*
%MOMM*%
%FSLAX34Y34*%
%LPD*%
%INSilkscreen Top*%
%IPPOS*%
%AMOC8*
5,1,8,0,0,1.08239X$1,22.5*%
G01*
G04 Define Apertures*
%ADD10C,0.127000*%
%ADD11C,0.200000*%
%ADD12C,0.100000*%
G36*
X225654Y34798D02*
X223359Y34816D01*
X221073Y34798D01*
X220872Y35998D01*
X220102Y40176D01*
X219993Y40951D01*
X219857Y42190D01*
X219551Y40833D01*
X219314Y39913D01*
X217903Y34798D01*
X215704Y34816D01*
X213505Y34798D01*
X213207Y36410D01*
X212883Y38004D01*
X211454Y44546D01*
X210937Y46753D01*
X212725Y46736D01*
X214513Y46753D01*
X214726Y45516D01*
X214890Y44660D01*
X215627Y41130D01*
X215868Y39867D01*
X216135Y38354D01*
X216423Y39580D01*
X217464Y43627D01*
X218180Y46753D01*
X220212Y46736D01*
X222235Y46753D01*
X222789Y43066D01*
X223554Y38371D01*
X223895Y39659D01*
X224096Y40333D01*
X224534Y41691D01*
X225602Y45054D01*
X226101Y46753D01*
X227851Y46745D01*
X229593Y46753D01*
X226197Y36576D01*
X225654Y34798D01*
G37*
G36*
X274091Y34798D02*
X271788Y34807D01*
X270088Y34798D01*
X270241Y36519D01*
X270333Y37828D01*
X270420Y39615D01*
X270504Y41962D01*
X270566Y44202D01*
X270587Y45667D01*
X270578Y46753D01*
X272426Y46727D01*
X273460Y46737D01*
X274651Y46767D01*
X275831Y46796D01*
X276832Y46806D01*
X277769Y46791D01*
X278120Y46771D01*
X278391Y46745D01*
X278688Y46698D01*
X278966Y46635D01*
X279225Y46557D01*
X279464Y46464D01*
X279685Y46358D01*
X279886Y46239D01*
X280068Y46108D01*
X280231Y45965D01*
X280392Y45781D01*
X280535Y45580D01*
X280659Y45361D01*
X280765Y45124D01*
X280861Y44839D01*
X280929Y44544D01*
X280970Y44239D01*
X280984Y43924D01*
X280976Y43678D01*
X280952Y43436D01*
X280913Y43200D01*
X280857Y42970D01*
X280787Y42748D01*
X280704Y42539D01*
X280607Y42343D01*
X280498Y42160D01*
X280252Y41834D01*
X279977Y41568D01*
X279691Y41358D01*
X279412Y41200D01*
X279089Y41069D01*
X278672Y40938D01*
X279090Y40853D01*
X279416Y40758D01*
X279706Y40627D01*
X280016Y40434D01*
X280172Y40315D01*
X280319Y40179D01*
X280459Y40028D01*
X280590Y39860D01*
X280709Y39680D01*
X280812Y39489D01*
X280899Y39288D01*
X280971Y39077D01*
X281026Y38857D01*
X281066Y38631D01*
X281090Y38399D01*
X281098Y38161D01*
X281084Y37833D01*
X281043Y37515D01*
X280975Y37207D01*
X280879Y36909D01*
X280758Y36626D01*
X280616Y36364D01*
X280452Y36122D01*
X280266Y35902D01*
X280087Y35729D01*
X279883Y35569D01*
X279653Y35422D01*
X279399Y35288D01*
X279130Y35171D01*
X278858Y35074D01*
X278583Y34996D01*
X278304Y34938D01*
X278029Y34905D01*
X277661Y34877D01*
X276644Y34833D01*
X275404Y34807D01*
X274091Y34798D01*
G37*
%LPC*%
G36*
X275473Y37198D02*
X276052Y37218D01*
X276275Y37242D01*
X276455Y37277D01*
X276795Y37388D01*
X276930Y37456D01*
X277042Y37531D01*
X277138Y37617D01*
X277223Y37717D01*
X277298Y37831D01*
X277362Y37960D01*
X277414Y38099D01*
X277451Y38247D01*
X277473Y38402D01*
X277481Y38564D01*
X277475Y38704D01*
X277457Y38836D01*
X277384Y39072D01*
X277264Y39274D01*
X277095Y39440D01*
X276881Y39568D01*
X276622Y39655D01*
X276462Y39683D01*
X276263Y39704D01*
X275746Y39720D01*
X273898Y39720D01*
X273790Y37198D01*
X275473Y37198D01*
G37*
G36*
X275236Y42094D02*
X275761Y42102D01*
X276108Y42125D01*
X276364Y42167D01*
X276613Y42234D01*
X276842Y42339D01*
X277038Y42497D01*
X277191Y42692D01*
X277292Y42908D01*
X277348Y43136D01*
X277367Y43364D01*
X277357Y43522D01*
X277328Y43670D01*
X277281Y43811D01*
X277213Y43942D01*
X277125Y44061D01*
X277013Y44163D01*
X276878Y44249D01*
X276719Y44319D01*
X276525Y44372D01*
X276287Y44411D01*
X276004Y44433D01*
X275676Y44441D01*
X274100Y44441D01*
X273991Y42094D01*
X275236Y42094D01*
G37*
%LPD*%
G36*
X346372Y34798D02*
X344069Y34807D01*
X342370Y34798D01*
X342523Y36519D01*
X342615Y37828D01*
X342701Y39615D01*
X342785Y41962D01*
X342847Y44202D01*
X342868Y45667D01*
X342859Y46753D01*
X344708Y46727D01*
X345741Y46737D01*
X346932Y46767D01*
X348113Y46796D01*
X349113Y46806D01*
X350051Y46791D01*
X350401Y46771D01*
X350673Y46745D01*
X350970Y46698D01*
X351247Y46635D01*
X351506Y46557D01*
X351746Y46464D01*
X351966Y46358D01*
X352167Y46239D01*
X352349Y46108D01*
X352512Y45965D01*
X352674Y45781D01*
X352816Y45580D01*
X352941Y45361D01*
X353046Y45124D01*
X353142Y44839D01*
X353211Y44544D01*
X353252Y44239D01*
X353265Y43924D01*
X353257Y43678D01*
X353234Y43436D01*
X353194Y43200D01*
X353138Y42970D01*
X353068Y42748D01*
X352985Y42539D01*
X352889Y42343D01*
X352779Y42160D01*
X352533Y41834D01*
X352258Y41568D01*
X351972Y41358D01*
X351693Y41200D01*
X351370Y41069D01*
X350953Y40938D01*
X351371Y40853D01*
X351697Y40758D01*
X351988Y40627D01*
X352297Y40434D01*
X352453Y40315D01*
X352601Y40179D01*
X352740Y40028D01*
X352871Y39860D01*
X352990Y39680D01*
X353093Y39489D01*
X353181Y39288D01*
X353252Y39077D01*
X353308Y38857D01*
X353347Y38631D01*
X353371Y38399D01*
X353379Y38161D01*
X353365Y37833D01*
X353324Y37515D01*
X353256Y37207D01*
X353160Y36909D01*
X353040Y36626D01*
X352897Y36364D01*
X352733Y36122D01*
X352547Y35902D01*
X352368Y35729D01*
X352164Y35569D01*
X351935Y35422D01*
X351680Y35288D01*
X351411Y35171D01*
X351139Y35074D01*
X350864Y34996D01*
X350585Y34938D01*
X350311Y34905D01*
X349942Y34877D01*
X348925Y34833D01*
X347685Y34807D01*
X346372Y34798D01*
G37*
%LPC*%
G36*
X347754Y37198D02*
X348333Y37218D01*
X348556Y37242D01*
X348736Y37277D01*
X349076Y37388D01*
X349211Y37456D01*
X349324Y37531D01*
X349419Y37617D01*
X349504Y37717D01*
X349579Y37831D01*
X349643Y37960D01*
X349695Y38099D01*
X349732Y38247D01*
X349754Y38402D01*
X349762Y38564D01*
X349756Y38704D01*
X349738Y38836D01*
X349666Y39072D01*
X349545Y39274D01*
X349376Y39440D01*
X349162Y39568D01*
X348903Y39655D01*
X348744Y39683D01*
X348544Y39704D01*
X348027Y39720D01*
X346179Y39720D01*
X346071Y37198D01*
X347754Y37198D01*
G37*
G36*
X347517Y42094D02*
X348042Y42102D01*
X348390Y42125D01*
X348645Y42167D01*
X348894Y42234D01*
X349123Y42339D01*
X349319Y42497D01*
X349473Y42692D01*
X349573Y42908D01*
X349629Y43136D01*
X349648Y43364D01*
X349638Y43522D01*
X349610Y43670D01*
X349562Y43811D01*
X349495Y43942D01*
X349406Y44061D01*
X349294Y44163D01*
X349159Y44249D01*
X349000Y44319D01*
X348807Y44372D01*
X348568Y44411D01*
X348285Y44433D01*
X347958Y44441D01*
X346381Y44441D01*
X346272Y42094D01*
X347517Y42094D01*
G37*
%LPD*%
G36*
X257203Y34570D02*
X256790Y34589D01*
X256390Y34647D01*
X256004Y34743D01*
X255631Y34877D01*
X255279Y35046D01*
X254954Y35248D01*
X254655Y35482D01*
X254384Y35748D01*
X254142Y36044D01*
X253933Y36366D01*
X253757Y36714D01*
X253613Y37088D01*
X253502Y37479D01*
X253423Y37878D01*
X253375Y38283D01*
X253359Y38696D01*
X253367Y38990D01*
X253388Y39283D01*
X253425Y39575D01*
X253475Y39865D01*
X253541Y40153D01*
X253621Y40440D01*
X253824Y41008D01*
X254074Y41543D01*
X254360Y42017D01*
X254681Y42432D01*
X254855Y42616D01*
X255038Y42786D01*
X255425Y43086D01*
X255835Y43339D01*
X256270Y43544D01*
X256729Y43701D01*
X257210Y43818D01*
X257710Y43901D01*
X258229Y43952D01*
X258767Y43968D01*
X259146Y43960D01*
X259556Y43935D01*
X259996Y43894D01*
X260468Y43837D01*
X260526Y45087D01*
X260563Y46753D01*
X262321Y46736D01*
X264106Y46753D01*
X263983Y45381D01*
X263868Y43865D01*
X263760Y42206D01*
X263660Y40403D01*
X263576Y38647D01*
X263516Y37128D01*
X263480Y35845D01*
X263468Y34798D01*
X261908Y34816D01*
X260208Y34798D01*
X260259Y35910D01*
X259939Y35609D01*
X259663Y35372D01*
X259373Y35169D01*
X259011Y34973D01*
X258597Y34802D01*
X258153Y34675D01*
X257921Y34629D01*
X257686Y34597D01*
X257446Y34577D01*
X257203Y34570D01*
G37*
%LPC*%
G36*
X258346Y37145D02*
X258582Y37162D01*
X258808Y37213D01*
X259023Y37298D01*
X259228Y37417D01*
X259419Y37568D01*
X259590Y37752D01*
X259744Y37967D01*
X259878Y38214D01*
X259993Y38489D01*
X260089Y38789D01*
X260164Y39113D01*
X260220Y39462D01*
X260263Y39864D01*
X260298Y40348D01*
X260347Y41560D01*
X259895Y41638D01*
X259679Y41658D01*
X259470Y41665D01*
X259060Y41644D01*
X258682Y41583D01*
X258336Y41480D01*
X258021Y41336D01*
X257740Y41149D01*
X257494Y40916D01*
X257282Y40637D01*
X257104Y40312D01*
X256964Y39965D01*
X256864Y39621D01*
X256804Y39279D01*
X256784Y38941D01*
X256795Y38693D01*
X256829Y38458D01*
X256885Y38235D01*
X256964Y38026D01*
X257066Y37833D01*
X257192Y37661D01*
X257342Y37511D01*
X257517Y37382D01*
X257708Y37278D01*
X257911Y37204D01*
X258123Y37160D01*
X258346Y37145D01*
G37*
%LPD*%
G36*
X388766Y34570D02*
X388352Y34589D01*
X387952Y34647D01*
X387566Y34743D01*
X387194Y34877D01*
X386842Y35046D01*
X386516Y35248D01*
X386218Y35482D01*
X385946Y35748D01*
X385704Y36044D01*
X385495Y36366D01*
X385319Y36714D01*
X385176Y37088D01*
X385065Y37479D01*
X384985Y37878D01*
X384938Y38283D01*
X384922Y38696D01*
X384929Y38990D01*
X384951Y39283D01*
X384987Y39575D01*
X385038Y39865D01*
X385103Y40153D01*
X385183Y40440D01*
X385386Y41008D01*
X385636Y41543D01*
X385922Y42017D01*
X386243Y42432D01*
X386417Y42616D01*
X386600Y42786D01*
X386987Y43086D01*
X387398Y43339D01*
X387833Y43544D01*
X388292Y43701D01*
X388772Y43818D01*
X389272Y43901D01*
X389791Y43952D01*
X390330Y43968D01*
X390709Y43960D01*
X391118Y43935D01*
X391559Y43894D01*
X392030Y43837D01*
X392088Y45087D01*
X392125Y46753D01*
X393884Y46736D01*
X395668Y46753D01*
X395546Y45381D01*
X395430Y43865D01*
X395323Y42206D01*
X395223Y40403D01*
X395139Y38647D01*
X395079Y37128D01*
X395043Y35845D01*
X395030Y34798D01*
X393471Y34816D01*
X391771Y34798D01*
X391821Y35910D01*
X391502Y35609D01*
X391226Y35372D01*
X390936Y35169D01*
X390573Y34973D01*
X390160Y34802D01*
X389715Y34675D01*
X389484Y34629D01*
X389248Y34597D01*
X389009Y34577D01*
X388766Y34570D01*
G37*
%LPC*%
G36*
X389909Y37145D02*
X390145Y37162D01*
X390371Y37213D01*
X390586Y37298D01*
X390791Y37417D01*
X390981Y37568D01*
X391153Y37752D01*
X391306Y37967D01*
X391440Y38214D01*
X391556Y38489D01*
X391651Y38789D01*
X391727Y39113D01*
X391783Y39462D01*
X391825Y39864D01*
X391861Y40348D01*
X391910Y41560D01*
X391458Y41638D01*
X391242Y41658D01*
X391032Y41665D01*
X390622Y41644D01*
X390244Y41583D01*
X389898Y41480D01*
X389584Y41336D01*
X389303Y41149D01*
X389056Y40916D01*
X388844Y40637D01*
X388667Y40312D01*
X388527Y39965D01*
X388426Y39621D01*
X388366Y39279D01*
X388346Y38941D01*
X388358Y38693D01*
X388391Y38458D01*
X388448Y38235D01*
X388526Y38026D01*
X388628Y37833D01*
X388755Y37661D01*
X388905Y37511D01*
X389079Y37382D01*
X389271Y37278D01*
X389473Y37204D01*
X389686Y37160D01*
X389909Y37145D01*
G37*
%LPD*%
G36*
X359932Y34570D02*
X359381Y34591D01*
X358841Y34651D01*
X358313Y34753D01*
X357795Y34894D01*
X357303Y35075D01*
X356854Y35293D01*
X356447Y35548D01*
X356082Y35840D01*
X355760Y36167D01*
X355480Y36523D01*
X355243Y36911D01*
X355049Y37329D01*
X354898Y37768D01*
X354790Y38218D01*
X354725Y38679D01*
X354703Y39151D01*
X354724Y39623D01*
X354787Y40084D01*
X354893Y40534D01*
X355040Y40973D01*
X355233Y41395D01*
X355476Y41796D01*
X355768Y42175D01*
X356109Y42532D01*
X356496Y42858D01*
X356927Y43144D01*
X357400Y43390D01*
X357917Y43596D01*
X358462Y43759D01*
X359017Y43875D01*
X359583Y43945D01*
X360160Y43968D01*
X360697Y43947D01*
X361225Y43885D01*
X361742Y43781D01*
X362248Y43635D01*
X362730Y43451D01*
X363174Y43229D01*
X363578Y42971D01*
X363943Y42676D01*
X364267Y42350D01*
X364544Y41998D01*
X364777Y41619D01*
X364964Y41214D01*
X365107Y40787D01*
X365210Y40345D01*
X365272Y39888D01*
X365292Y39414D01*
X365274Y38951D01*
X365219Y38500D01*
X365127Y38060D01*
X364999Y37631D01*
X364827Y37215D01*
X364603Y36812D01*
X364329Y36423D01*
X364005Y36046D01*
X363823Y35867D01*
X363630Y35699D01*
X363425Y35543D01*
X363209Y35399D01*
X362980Y35266D01*
X362739Y35145D01*
X362222Y34938D01*
X361673Y34777D01*
X361109Y34662D01*
X360528Y34593D01*
X359932Y34570D01*
G37*
%LPC*%
G36*
X359906Y37058D02*
X360174Y37076D01*
X360429Y37131D01*
X360669Y37223D01*
X360895Y37351D01*
X361101Y37515D01*
X361280Y37715D01*
X361431Y37949D01*
X361557Y38218D01*
X361654Y38510D01*
X361724Y38813D01*
X361766Y39126D01*
X361780Y39449D01*
X361769Y39714D01*
X361736Y39966D01*
X361681Y40204D01*
X361605Y40430D01*
X361503Y40638D01*
X361374Y40824D01*
X361216Y40988D01*
X361031Y41130D01*
X360823Y41245D01*
X360599Y41327D01*
X360357Y41377D01*
X360098Y41393D01*
X359826Y41375D01*
X359568Y41321D01*
X359326Y41231D01*
X359100Y41104D01*
X358894Y40943D01*
X358716Y40748D01*
X358564Y40520D01*
X358439Y40259D01*
X358341Y39975D01*
X358271Y39678D01*
X358229Y39368D01*
X358215Y39046D01*
X358223Y38812D01*
X358245Y38592D01*
X358283Y38387D01*
X358336Y38195D01*
X358403Y38018D01*
X358486Y37854D01*
X358584Y37705D01*
X358697Y37570D01*
X358821Y37450D01*
X358953Y37346D01*
X359093Y37258D01*
X359240Y37186D01*
X359395Y37130D01*
X359557Y37090D01*
X359728Y37066D01*
X359906Y37058D01*
G37*
%LPD*%
G36*
X328582Y30533D02*
X328267Y30542D01*
X327864Y30572D01*
X327141Y30651D01*
X326820Y30707D01*
X326409Y30795D01*
X326181Y32492D01*
X326041Y33397D01*
X326561Y33176D01*
X326798Y33096D01*
X327018Y33038D01*
X327414Y32965D01*
X327750Y32941D01*
X328065Y32963D01*
X328359Y33029D01*
X328615Y33126D01*
X328811Y33243D01*
X328985Y33404D01*
X329174Y33633D01*
X329346Y33877D01*
X329468Y34084D01*
X329564Y34313D01*
X329661Y34623D01*
X328013Y39606D01*
X326601Y43740D01*
X328434Y43723D01*
X330108Y43740D01*
X330726Y41411D01*
X331115Y39935D01*
X331379Y38818D01*
X331491Y38231D01*
X331598Y37504D01*
X331782Y38205D01*
X331983Y38844D01*
X332272Y39703D01*
X332841Y41297D01*
X333786Y43740D01*
X335440Y43723D01*
X337191Y43740D01*
X335502Y39922D01*
X332447Y32836D01*
X332156Y32302D01*
X331877Y31890D01*
X331612Y31595D01*
X331325Y31338D01*
X331034Y31137D01*
X330721Y30971D01*
X330260Y30791D01*
X329757Y30655D01*
X329466Y30602D01*
X329174Y30563D01*
X328879Y30540D01*
X328582Y30533D01*
G37*
G36*
X124339Y34798D02*
X122685Y34816D01*
X120786Y34798D01*
X120868Y35789D01*
X120954Y37167D01*
X121020Y38506D01*
X121042Y39379D01*
X121036Y39617D01*
X121018Y39836D01*
X120989Y40037D01*
X120947Y40218D01*
X120893Y40382D01*
X120828Y40526D01*
X120750Y40651D01*
X120661Y40758D01*
X120458Y40929D01*
X120230Y41051D01*
X119978Y41124D01*
X119701Y41148D01*
X119450Y41127D01*
X119207Y41065D01*
X118970Y40961D01*
X118741Y40815D01*
X118528Y40630D01*
X118341Y40407D01*
X118180Y40146D01*
X118044Y39847D01*
X117930Y39479D01*
X117835Y39008D01*
X117757Y38434D01*
X117697Y37758D01*
X117613Y36291D01*
X117561Y34798D01*
X115854Y34816D01*
X113954Y34798D01*
X114073Y35818D01*
X114177Y36890D01*
X114266Y38014D01*
X114341Y39190D01*
X114449Y41530D01*
X114482Y42651D01*
X114502Y43740D01*
X116317Y43723D01*
X118018Y43740D01*
X117931Y42549D01*
X118200Y42839D01*
X118430Y43062D01*
X118666Y43248D01*
X118951Y43430D01*
X119272Y43593D01*
X119613Y43723D01*
X119979Y43825D01*
X120379Y43903D01*
X120805Y43952D01*
X121250Y43968D01*
X121564Y43960D01*
X121873Y43934D01*
X122179Y43892D01*
X122481Y43832D01*
X122769Y43757D01*
X123032Y43668D01*
X123270Y43565D01*
X123484Y43447D01*
X123677Y43315D01*
X123854Y43167D01*
X124014Y43004D01*
X124158Y42825D01*
X124282Y42636D01*
X124384Y42439D01*
X124462Y42235D01*
X124517Y42024D01*
X124583Y41588D01*
X124605Y41139D01*
X124587Y40614D01*
X124534Y39703D01*
X124383Y36532D01*
X124350Y35630D01*
X124339Y34798D01*
G37*
G36*
X251714Y34798D02*
X250060Y34816D01*
X248161Y34798D01*
X248243Y35789D01*
X248329Y37167D01*
X248395Y38506D01*
X248417Y39379D01*
X248411Y39617D01*
X248393Y39836D01*
X248364Y40037D01*
X248322Y40218D01*
X248268Y40382D01*
X248203Y40526D01*
X248125Y40651D01*
X248036Y40758D01*
X247833Y40929D01*
X247605Y41051D01*
X247353Y41124D01*
X247076Y41148D01*
X246825Y41127D01*
X246582Y41065D01*
X246345Y40961D01*
X246116Y40815D01*
X245903Y40630D01*
X245716Y40407D01*
X245555Y40146D01*
X245419Y39847D01*
X245305Y39479D01*
X245210Y39008D01*
X245132Y38434D01*
X245072Y37758D01*
X244988Y36291D01*
X244936Y34798D01*
X243229Y34816D01*
X241329Y34798D01*
X241448Y35818D01*
X241552Y36890D01*
X241641Y38014D01*
X241716Y39190D01*
X241824Y41530D01*
X241857Y42651D01*
X241877Y43740D01*
X243692Y43723D01*
X245393Y43740D01*
X245306Y42549D01*
X245575Y42839D01*
X245805Y43062D01*
X246041Y43248D01*
X246326Y43430D01*
X246647Y43593D01*
X246988Y43723D01*
X247354Y43825D01*
X247754Y43903D01*
X248180Y43952D01*
X248625Y43968D01*
X248939Y43960D01*
X249248Y43934D01*
X249554Y43892D01*
X249856Y43832D01*
X250144Y43757D01*
X250407Y43668D01*
X250645Y43565D01*
X250859Y43447D01*
X251052Y43315D01*
X251229Y43167D01*
X251389Y43004D01*
X251533Y42825D01*
X251657Y42636D01*
X251759Y42439D01*
X251837Y42235D01*
X251892Y42024D01*
X251958Y41588D01*
X251980Y41139D01*
X251962Y40614D01*
X251909Y39703D01*
X251758Y36532D01*
X251725Y35630D01*
X251714Y34798D01*
G37*
G36*
X138978Y34570D02*
X138468Y34579D01*
X137978Y34606D01*
X137508Y34652D01*
X137060Y34715D01*
X136637Y34801D01*
X136244Y34915D01*
X135882Y35057D01*
X135549Y35227D01*
X135245Y35422D01*
X134966Y35639D01*
X134713Y35879D01*
X134485Y36141D01*
X134283Y36427D01*
X134107Y36739D01*
X133957Y37077D01*
X133833Y37440D01*
X133735Y37819D01*
X133665Y38204D01*
X133623Y38594D01*
X133609Y38989D01*
X133616Y39268D01*
X133637Y39546D01*
X133672Y39822D01*
X133721Y40097D01*
X133861Y40642D01*
X134056Y41181D01*
X134295Y41688D01*
X134567Y42136D01*
X134871Y42526D01*
X135208Y42857D01*
X135574Y43137D01*
X135966Y43373D01*
X136386Y43566D01*
X136832Y43714D01*
X137295Y43825D01*
X137763Y43905D01*
X138237Y43952D01*
X138715Y43968D01*
X139209Y43954D01*
X139691Y43910D01*
X140161Y43838D01*
X140620Y43736D01*
X141056Y43598D01*
X141458Y43418D01*
X141825Y43193D01*
X142158Y42926D01*
X142450Y42628D01*
X142697Y42311D01*
X142899Y41975D01*
X143055Y41621D01*
X143172Y41250D01*
X143256Y40865D01*
X143306Y40466D01*
X143322Y40053D01*
X143315Y39796D01*
X143294Y39525D01*
X143209Y38941D01*
X139683Y38936D01*
X137069Y38932D01*
X137060Y38679D01*
X137071Y38451D01*
X137102Y38239D01*
X137155Y38043D01*
X137229Y37861D01*
X137324Y37696D01*
X137439Y37546D01*
X137576Y37411D01*
X137735Y37292D01*
X137908Y37188D01*
X138090Y37098D01*
X138282Y37021D01*
X138483Y36959D01*
X138694Y36910D01*
X138914Y36875D01*
X139143Y36854D01*
X139381Y36847D01*
X139680Y36856D01*
X140000Y36881D01*
X140339Y36924D01*
X140699Y36983D01*
X141526Y37166D01*
X142525Y37443D01*
X142359Y36545D01*
X142088Y34903D01*
X141153Y34736D01*
X140380Y34636D01*
X139683Y34587D01*
X138978Y34570D01*
G37*
%LPC*%
G36*
X140029Y40272D02*
X140038Y40526D01*
X140028Y40746D01*
X139998Y40949D01*
X139947Y41135D01*
X139876Y41306D01*
X139786Y41457D01*
X139679Y41586D01*
X139554Y41693D01*
X139412Y41779D01*
X139256Y41844D01*
X139091Y41890D01*
X138917Y41918D01*
X138733Y41927D01*
X138475Y41907D01*
X138225Y41844D01*
X137992Y41741D01*
X137783Y41599D01*
X137602Y41425D01*
X137454Y41227D01*
X137340Y41020D01*
X137262Y40819D01*
X137200Y40584D01*
X137139Y40272D01*
X140029Y40272D01*
G37*
%LPD*%
G36*
X201041Y34570D02*
X200530Y34579D01*
X200040Y34606D01*
X199571Y34652D01*
X199123Y34715D01*
X198700Y34801D01*
X198307Y34915D01*
X197944Y35057D01*
X197612Y35227D01*
X197307Y35422D01*
X197028Y35639D01*
X196775Y35879D01*
X196548Y36141D01*
X196346Y36427D01*
X196170Y36739D01*
X196020Y37077D01*
X195895Y37440D01*
X195797Y37819D01*
X195728Y38204D01*
X195686Y38594D01*
X195672Y38989D01*
X195679Y39268D01*
X195700Y39546D01*
X195735Y39822D01*
X195783Y40097D01*
X195923Y40642D01*
X196118Y41181D01*
X196358Y41688D01*
X196630Y42136D01*
X196934Y42526D01*
X197270Y42857D01*
X197636Y43137D01*
X198029Y43373D01*
X198448Y43566D01*
X198895Y43714D01*
X199357Y43825D01*
X199826Y43905D01*
X200299Y43952D01*
X200778Y43968D01*
X201271Y43954D01*
X201753Y43910D01*
X202224Y43838D01*
X202683Y43736D01*
X203119Y43598D01*
X203521Y43418D01*
X203888Y43193D01*
X204220Y42926D01*
X204513Y42628D01*
X204760Y42311D01*
X204962Y41975D01*
X205118Y41621D01*
X205235Y41250D01*
X205318Y40865D01*
X205368Y40466D01*
X205385Y40053D01*
X205378Y39796D01*
X205357Y39525D01*
X205271Y38941D01*
X201746Y38936D01*
X199131Y38932D01*
X199123Y38679D01*
X199133Y38451D01*
X199165Y38239D01*
X199217Y38043D01*
X199291Y37861D01*
X199386Y37696D01*
X199502Y37546D01*
X199639Y37411D01*
X199797Y37292D01*
X199970Y37188D01*
X200153Y37098D01*
X200345Y37021D01*
X200546Y36959D01*
X200756Y36910D01*
X200976Y36875D01*
X201205Y36854D01*
X201444Y36847D01*
X201743Y36856D01*
X202062Y36881D01*
X202402Y36924D01*
X202762Y36983D01*
X203588Y37166D01*
X204588Y37443D01*
X204422Y36545D01*
X204150Y34903D01*
X203215Y34736D01*
X202442Y34636D01*
X201746Y34587D01*
X201041Y34570D01*
G37*
%LPC*%
G36*
X202092Y40272D02*
X202101Y40526D01*
X202090Y40746D01*
X202060Y40949D01*
X202009Y41135D01*
X201939Y41306D01*
X201849Y41457D01*
X201741Y41586D01*
X201617Y41693D01*
X201474Y41779D01*
X201319Y41844D01*
X201154Y41890D01*
X200979Y41918D01*
X200796Y41927D01*
X200537Y41907D01*
X200288Y41844D01*
X200054Y41741D01*
X199845Y41599D01*
X199665Y41425D01*
X199517Y41227D01*
X199403Y41020D01*
X199324Y40819D01*
X199263Y40584D01*
X199201Y40272D01*
X202092Y40272D01*
G37*
%LPD*%
G36*
X313916Y34570D02*
X313405Y34579D01*
X312915Y34606D01*
X312446Y34652D01*
X311998Y34715D01*
X311575Y34801D01*
X311182Y34915D01*
X310819Y35057D01*
X310487Y35227D01*
X310182Y35422D01*
X309903Y35639D01*
X309650Y35879D01*
X309423Y36141D01*
X309221Y36427D01*
X309045Y36739D01*
X308895Y37077D01*
X308770Y37440D01*
X308672Y37819D01*
X308603Y38204D01*
X308561Y38594D01*
X308547Y38989D01*
X308554Y39268D01*
X308575Y39546D01*
X308610Y39822D01*
X308658Y40097D01*
X308798Y40642D01*
X308993Y41181D01*
X309233Y41688D01*
X309505Y42136D01*
X309809Y42526D01*
X310145Y42857D01*
X310511Y43137D01*
X310904Y43373D01*
X311323Y43566D01*
X311770Y43714D01*
X312232Y43825D01*
X312701Y43905D01*
X313174Y43952D01*
X313653Y43968D01*
X314146Y43954D01*
X314628Y43910D01*
X315099Y43838D01*
X315558Y43736D01*
X315994Y43598D01*
X316396Y43418D01*
X316763Y43193D01*
X317095Y42926D01*
X317388Y42628D01*
X317635Y42311D01*
X317837Y41975D01*
X317993Y41621D01*
X318110Y41250D01*
X318193Y40865D01*
X318243Y40466D01*
X318260Y40053D01*
X318253Y39796D01*
X318232Y39525D01*
X318146Y38941D01*
X314621Y38936D01*
X312006Y38932D01*
X311998Y38679D01*
X312008Y38451D01*
X312040Y38239D01*
X312092Y38043D01*
X312166Y37861D01*
X312261Y37696D01*
X312377Y37546D01*
X312514Y37411D01*
X312672Y37292D01*
X312845Y37188D01*
X313028Y37098D01*
X313220Y37021D01*
X313421Y36959D01*
X313631Y36910D01*
X313851Y36875D01*
X314080Y36854D01*
X314319Y36847D01*
X314618Y36856D01*
X314937Y36881D01*
X315277Y36924D01*
X315637Y36983D01*
X316463Y37166D01*
X317463Y37443D01*
X317297Y36545D01*
X317025Y34903D01*
X316090Y34736D01*
X315317Y34636D01*
X314621Y34587D01*
X313916Y34570D01*
G37*
%LPC*%
G36*
X314967Y40272D02*
X314976Y40526D01*
X314965Y40746D01*
X314935Y40949D01*
X314884Y41135D01*
X314814Y41306D01*
X314724Y41457D01*
X314616Y41586D01*
X314492Y41693D01*
X314349Y41779D01*
X314194Y41844D01*
X314029Y41890D01*
X313854Y41918D01*
X313671Y41927D01*
X313412Y41907D01*
X313163Y41844D01*
X312929Y41741D01*
X312720Y41599D01*
X312540Y41425D01*
X312392Y41227D01*
X312278Y41020D01*
X312199Y40819D01*
X312138Y40584D01*
X312076Y40272D01*
X314967Y40272D01*
G37*
%LPD*%
G36*
X155080Y34570D02*
X154560Y34589D01*
X154085Y34646D01*
X153655Y34740D01*
X153271Y34872D01*
X152931Y35047D01*
X152632Y35268D01*
X152375Y35535D01*
X152159Y35849D01*
X151988Y36186D01*
X151867Y36523D01*
X151793Y36861D01*
X151769Y37198D01*
X151778Y37403D01*
X151805Y37605D01*
X151850Y37805D01*
X151914Y38004D01*
X151996Y38200D01*
X152098Y38393D01*
X152221Y38585D01*
X152364Y38774D01*
X152524Y38956D01*
X152697Y39124D01*
X152883Y39278D01*
X153082Y39418D01*
X153307Y39550D01*
X153569Y39678D01*
X153870Y39802D01*
X154207Y39922D01*
X154588Y40038D01*
X155016Y40152D01*
X156015Y40368D01*
X156452Y40459D01*
X156852Y40557D01*
X157178Y40651D01*
X157394Y40732D01*
X157541Y40813D01*
X157657Y40907D01*
X157744Y41010D01*
X157802Y41117D01*
X157834Y41230D01*
X157845Y41349D01*
X157828Y41506D01*
X157775Y41644D01*
X157688Y41762D01*
X157565Y41862D01*
X157409Y41940D01*
X157219Y41996D01*
X156997Y42030D01*
X156742Y42041D01*
X156355Y42028D01*
X155945Y41988D01*
X155513Y41922D01*
X155059Y41829D01*
X154583Y41709D01*
X154085Y41563D01*
X153564Y41391D01*
X153022Y41192D01*
X153157Y41924D01*
X153232Y42387D01*
X153372Y43416D01*
X154589Y43658D01*
X155164Y43753D01*
X155717Y43830D01*
X156248Y43891D01*
X156757Y43934D01*
X157243Y43960D01*
X157708Y43968D01*
X158214Y43954D01*
X158698Y43910D01*
X159160Y43838D01*
X159600Y43736D01*
X160006Y43602D01*
X160364Y43433D01*
X160676Y43228D01*
X160940Y42987D01*
X161053Y42851D01*
X161151Y42701D01*
X161234Y42537D01*
X161302Y42359D01*
X161354Y42167D01*
X161392Y41961D01*
X161415Y41741D01*
X161422Y41507D01*
X161389Y40710D01*
X161291Y39300D01*
X161229Y38375D01*
X161175Y37316D01*
X161129Y36124D01*
X161090Y34798D01*
X159381Y34816D01*
X157629Y34798D01*
X157690Y35408D01*
X157755Y36274D01*
X157894Y38774D01*
X157374Y38547D01*
X156714Y38336D01*
X155976Y38100D01*
X155727Y37990D01*
X155513Y37855D01*
X155344Y37704D01*
X155233Y37548D01*
X155171Y37382D01*
X155150Y37198D01*
X155165Y37054D01*
X155209Y36922D01*
X155283Y36800D01*
X155386Y36690D01*
X155522Y36598D01*
X155693Y36532D01*
X155899Y36493D01*
X156140Y36480D01*
X156330Y36487D01*
X156534Y36510D01*
X156783Y36564D01*
X157112Y36664D01*
X156834Y35834D01*
X156507Y34693D01*
X156136Y34639D01*
X155774Y34601D01*
X155422Y34578D01*
X155080Y34570D01*
G37*
G36*
X233424Y34570D02*
X232903Y34589D01*
X232428Y34646D01*
X231999Y34740D01*
X231615Y34872D01*
X231274Y35047D01*
X230976Y35268D01*
X230718Y35535D01*
X230503Y35849D01*
X230332Y36186D01*
X230210Y36523D01*
X230137Y36861D01*
X230113Y37198D01*
X230122Y37403D01*
X230149Y37605D01*
X230194Y37805D01*
X230257Y38004D01*
X230340Y38200D01*
X230442Y38393D01*
X230565Y38585D01*
X230708Y38774D01*
X230868Y38956D01*
X231041Y39124D01*
X231227Y39278D01*
X231426Y39418D01*
X231651Y39550D01*
X231913Y39678D01*
X232213Y39802D01*
X232551Y39922D01*
X232932Y40038D01*
X233360Y40152D01*
X234359Y40368D01*
X234796Y40459D01*
X235195Y40557D01*
X235522Y40651D01*
X235738Y40732D01*
X235885Y40813D01*
X236001Y40907D01*
X236087Y41010D01*
X236145Y41117D01*
X236178Y41230D01*
X236189Y41349D01*
X236172Y41506D01*
X236119Y41644D01*
X236031Y41762D01*
X235909Y41862D01*
X235752Y41940D01*
X235563Y41996D01*
X235341Y42030D01*
X235086Y42041D01*
X234699Y42028D01*
X234289Y41988D01*
X233857Y41922D01*
X233403Y41829D01*
X232927Y41709D01*
X232428Y41563D01*
X231908Y41391D01*
X231365Y41192D01*
X231501Y41924D01*
X231576Y42387D01*
X231716Y43416D01*
X232933Y43658D01*
X233508Y43753D01*
X234061Y43830D01*
X234592Y43891D01*
X235101Y43934D01*
X235587Y43960D01*
X236052Y43968D01*
X236557Y43954D01*
X237041Y43910D01*
X237504Y43838D01*
X237944Y43736D01*
X238349Y43602D01*
X238708Y43433D01*
X239020Y43228D01*
X239284Y42987D01*
X239397Y42851D01*
X239495Y42701D01*
X239578Y42537D01*
X239645Y42359D01*
X239698Y42167D01*
X239736Y41961D01*
X239758Y41741D01*
X239766Y41507D01*
X239733Y40710D01*
X239635Y39300D01*
X239573Y38375D01*
X239519Y37316D01*
X239473Y36124D01*
X239434Y34798D01*
X237725Y34816D01*
X235972Y34798D01*
X236034Y35408D01*
X236098Y36274D01*
X236238Y38774D01*
X235718Y38547D01*
X235058Y38336D01*
X234319Y38100D01*
X234070Y37990D01*
X233856Y37855D01*
X233688Y37704D01*
X233577Y37548D01*
X233514Y37382D01*
X233494Y37198D01*
X233508Y37054D01*
X233553Y36922D01*
X233627Y36800D01*
X233730Y36690D01*
X233866Y36598D01*
X234037Y36532D01*
X234242Y36493D01*
X234483Y36480D01*
X234674Y36487D01*
X234877Y36510D01*
X235127Y36564D01*
X235456Y36664D01*
X235177Y35834D01*
X234851Y34693D01*
X234480Y34639D01*
X234118Y34601D01*
X233766Y34578D01*
X233424Y34570D01*
G37*
G36*
X285549Y34570D02*
X285028Y34589D01*
X284553Y34646D01*
X284124Y34740D01*
X283740Y34872D01*
X283399Y35047D01*
X283101Y35268D01*
X282843Y35535D01*
X282628Y35849D01*
X282457Y36186D01*
X282335Y36523D01*
X282262Y36861D01*
X282238Y37198D01*
X282247Y37403D01*
X282274Y37605D01*
X282319Y37805D01*
X282382Y38004D01*
X282465Y38200D01*
X282567Y38393D01*
X282690Y38585D01*
X282833Y38774D01*
X282993Y38956D01*
X283166Y39124D01*
X283352Y39278D01*
X283551Y39418D01*
X283776Y39550D01*
X284038Y39678D01*
X284338Y39802D01*
X284676Y39922D01*
X285057Y40038D01*
X285485Y40152D01*
X286484Y40368D01*
X286921Y40459D01*
X287320Y40557D01*
X287647Y40651D01*
X287863Y40732D01*
X288010Y40813D01*
X288126Y40907D01*
X288212Y41010D01*
X288270Y41117D01*
X288303Y41230D01*
X288314Y41349D01*
X288297Y41506D01*
X288244Y41644D01*
X288156Y41762D01*
X288034Y41862D01*
X287877Y41940D01*
X287688Y41996D01*
X287466Y42030D01*
X287211Y42041D01*
X286824Y42028D01*
X286414Y41988D01*
X285982Y41922D01*
X285528Y41829D01*
X285052Y41709D01*
X284553Y41563D01*
X284033Y41391D01*
X283490Y41192D01*
X283626Y41924D01*
X283701Y42387D01*
X283841Y43416D01*
X285058Y43658D01*
X285633Y43753D01*
X286186Y43830D01*
X286717Y43891D01*
X287226Y43934D01*
X287712Y43960D01*
X288177Y43968D01*
X288682Y43954D01*
X289166Y43910D01*
X289629Y43838D01*
X290069Y43736D01*
X290474Y43602D01*
X290833Y43433D01*
X291145Y43228D01*
X291409Y42987D01*
X291522Y42851D01*
X291620Y42701D01*
X291703Y42537D01*
X291770Y42359D01*
X291823Y42167D01*
X291861Y41961D01*
X291883Y41741D01*
X291891Y41507D01*
X291858Y40710D01*
X291760Y39300D01*
X291698Y38375D01*
X291644Y37316D01*
X291598Y36124D01*
X291559Y34798D01*
X289850Y34816D01*
X288097Y34798D01*
X288159Y35408D01*
X288223Y36274D01*
X288363Y38774D01*
X287843Y38547D01*
X287183Y38336D01*
X286444Y38100D01*
X286195Y37990D01*
X285981Y37855D01*
X285813Y37704D01*
X285702Y37548D01*
X285639Y37382D01*
X285619Y37198D01*
X285633Y37054D01*
X285678Y36922D01*
X285752Y36800D01*
X285855Y36690D01*
X285991Y36598D01*
X286162Y36532D01*
X286367Y36493D01*
X286608Y36480D01*
X286799Y36487D01*
X287002Y36510D01*
X287252Y36564D01*
X287581Y36664D01*
X287302Y35834D01*
X286976Y34693D01*
X286605Y34639D01*
X286243Y34601D01*
X285891Y34578D01*
X285549Y34570D01*
G37*
G36*
X369455Y34570D02*
X368935Y34589D01*
X368460Y34646D01*
X368030Y34740D01*
X367646Y34872D01*
X367306Y35047D01*
X367007Y35268D01*
X366750Y35535D01*
X366534Y35849D01*
X366363Y36186D01*
X366242Y36523D01*
X366168Y36861D01*
X366144Y37198D01*
X366153Y37403D01*
X366180Y37605D01*
X366225Y37805D01*
X366289Y38004D01*
X366371Y38200D01*
X366473Y38393D01*
X366596Y38585D01*
X366739Y38774D01*
X366899Y38956D01*
X367072Y39124D01*
X367258Y39278D01*
X367457Y39418D01*
X367682Y39550D01*
X367944Y39678D01*
X368245Y39802D01*
X368582Y39922D01*
X368963Y40038D01*
X369391Y40152D01*
X370390Y40368D01*
X370827Y40459D01*
X371227Y40557D01*
X371553Y40651D01*
X371769Y40732D01*
X371916Y40813D01*
X372032Y40907D01*
X372119Y41010D01*
X372177Y41117D01*
X372209Y41230D01*
X372220Y41349D01*
X372203Y41506D01*
X372150Y41644D01*
X372063Y41762D01*
X371940Y41862D01*
X371784Y41940D01*
X371594Y41996D01*
X371372Y42030D01*
X371117Y42041D01*
X370730Y42028D01*
X370320Y41988D01*
X369888Y41922D01*
X369434Y41829D01*
X368958Y41709D01*
X368460Y41563D01*
X367939Y41391D01*
X367397Y41192D01*
X367532Y41924D01*
X367607Y42387D01*
X367747Y43416D01*
X368964Y43658D01*
X369539Y43753D01*
X370092Y43830D01*
X370623Y43891D01*
X371132Y43934D01*
X371618Y43960D01*
X372083Y43968D01*
X372589Y43954D01*
X373073Y43910D01*
X373535Y43838D01*
X373975Y43736D01*
X374381Y43602D01*
X374739Y43433D01*
X375051Y43228D01*
X375315Y42987D01*
X375428Y42851D01*
X375526Y42701D01*
X375609Y42537D01*
X375677Y42359D01*
X375729Y42167D01*
X375767Y41961D01*
X375790Y41741D01*
X375797Y41507D01*
X375764Y40710D01*
X375666Y39300D01*
X375604Y38375D01*
X375550Y37316D01*
X375504Y36124D01*
X375465Y34798D01*
X373756Y34816D01*
X372004Y34798D01*
X372065Y35408D01*
X372130Y36274D01*
X372269Y38774D01*
X371749Y38547D01*
X371089Y38336D01*
X370351Y38100D01*
X370102Y37990D01*
X369888Y37855D01*
X369719Y37704D01*
X369608Y37548D01*
X369546Y37382D01*
X369525Y37198D01*
X369540Y37054D01*
X369584Y36922D01*
X369658Y36800D01*
X369761Y36690D01*
X369897Y36598D01*
X370068Y36532D01*
X370274Y36493D01*
X370515Y36480D01*
X370705Y36487D01*
X370909Y36510D01*
X371158Y36564D01*
X371487Y36664D01*
X371209Y35834D01*
X370882Y34693D01*
X370511Y34639D01*
X370149Y34601D01*
X369797Y34578D01*
X369455Y34570D01*
G37*
G36*
X191515Y34798D02*
X189693Y34816D01*
X187766Y34798D01*
X186836Y37671D01*
X184741Y43740D01*
X186600Y43723D01*
X188283Y43740D01*
X188504Y42910D01*
X188870Y41625D01*
X189330Y39971D01*
X189834Y38030D01*
X190062Y38757D01*
X190473Y39878D01*
X191865Y43740D01*
X193650Y43723D01*
X195453Y43740D01*
X194245Y41139D01*
X191996Y35972D01*
X191515Y34798D01*
G37*
G36*
X129987Y34570D02*
X129625Y34578D01*
X129284Y34602D01*
X128964Y34642D01*
X128664Y34697D01*
X128387Y34774D01*
X128134Y34877D01*
X127906Y35006D01*
X127701Y35161D01*
X127524Y35336D01*
X127377Y35524D01*
X127261Y35724D01*
X127175Y35937D01*
X127114Y36159D01*
X127070Y36388D01*
X127044Y36623D01*
X127035Y36865D01*
X127044Y37176D01*
X127105Y38170D01*
X127297Y41200D01*
X125932Y41200D01*
X125973Y41901D01*
X126010Y42795D01*
X126037Y43609D01*
X127488Y43609D01*
X127547Y44251D01*
X127619Y45370D01*
X129118Y45676D01*
X129762Y45816D01*
X130872Y46079D01*
X130819Y44888D01*
X130784Y43609D01*
X132781Y43609D01*
X132728Y42096D01*
X132711Y41200D01*
X130696Y41200D01*
X130590Y39011D01*
X130573Y38380D01*
X130579Y38179D01*
X130596Y37995D01*
X130625Y37828D01*
X130665Y37680D01*
X130720Y37549D01*
X130792Y37439D01*
X130882Y37348D01*
X130989Y37277D01*
X131108Y37223D01*
X131233Y37185D01*
X131364Y37162D01*
X131502Y37154D01*
X131716Y37162D01*
X131940Y37185D01*
X132255Y37247D01*
X132746Y37373D01*
X132599Y36646D01*
X132474Y35937D01*
X132282Y34868D01*
X131510Y34710D01*
X130928Y34623D01*
X130450Y34583D01*
X129987Y34570D01*
G37*
G36*
X175893Y34570D02*
X175531Y34578D01*
X175190Y34602D01*
X174870Y34642D01*
X174571Y34697D01*
X174294Y34774D01*
X174041Y34877D01*
X173812Y35006D01*
X173607Y35161D01*
X173430Y35336D01*
X173283Y35524D01*
X173167Y35724D01*
X173082Y35937D01*
X173020Y36159D01*
X172977Y36388D01*
X172950Y36623D01*
X172942Y36865D01*
X172950Y37176D01*
X173011Y38170D01*
X173203Y41200D01*
X171838Y41200D01*
X171879Y41901D01*
X171917Y42795D01*
X171943Y43609D01*
X173394Y43609D01*
X173453Y44251D01*
X173525Y45370D01*
X175024Y45676D01*
X175669Y45816D01*
X176778Y46079D01*
X176725Y44888D01*
X176690Y43609D01*
X178687Y43609D01*
X178635Y42096D01*
X178617Y41200D01*
X176602Y41200D01*
X176497Y39011D01*
X176479Y38380D01*
X176485Y38179D01*
X176502Y37995D01*
X176531Y37828D01*
X176571Y37680D01*
X176626Y37549D01*
X176698Y37439D01*
X176788Y37348D01*
X176895Y37277D01*
X177014Y37223D01*
X177139Y37185D01*
X177271Y37162D01*
X177408Y37154D01*
X177623Y37162D01*
X177846Y37185D01*
X178161Y37247D01*
X178652Y37373D01*
X178505Y36646D01*
X178381Y35937D01*
X178188Y34868D01*
X177416Y34710D01*
X176835Y34623D01*
X176356Y34583D01*
X175893Y34570D01*
G37*
G36*
X297299Y34570D02*
X296938Y34578D01*
X296597Y34602D01*
X296276Y34642D01*
X295977Y34697D01*
X295700Y34774D01*
X295447Y34877D01*
X295218Y35006D01*
X295013Y35161D01*
X294836Y35336D01*
X294689Y35524D01*
X294573Y35724D01*
X294488Y35937D01*
X294427Y36159D01*
X294383Y36388D01*
X294357Y36623D01*
X294348Y36865D01*
X294356Y37176D01*
X294417Y38170D01*
X294609Y41200D01*
X293244Y41200D01*
X293286Y41901D01*
X293323Y42795D01*
X293349Y43609D01*
X294801Y43609D01*
X294859Y44251D01*
X294931Y45370D01*
X296431Y45676D01*
X297075Y45816D01*
X298184Y46079D01*
X298131Y44888D01*
X298096Y43609D01*
X300093Y43609D01*
X300041Y42096D01*
X300023Y41200D01*
X298008Y41200D01*
X297903Y39011D01*
X297885Y38380D01*
X297891Y38179D01*
X297908Y37995D01*
X297937Y37828D01*
X297977Y37680D01*
X298032Y37549D01*
X298104Y37439D01*
X298194Y37348D01*
X298302Y37277D01*
X298421Y37223D01*
X298546Y37185D01*
X298677Y37162D01*
X298814Y37154D01*
X299029Y37162D01*
X299252Y37185D01*
X299568Y37247D01*
X300058Y37373D01*
X299912Y36646D01*
X299787Y35937D01*
X299594Y34868D01*
X298822Y34710D01*
X298241Y34623D01*
X297763Y34583D01*
X297299Y34570D01*
G37*
G36*
X304924Y34570D02*
X304563Y34578D01*
X304222Y34602D01*
X303901Y34642D01*
X303602Y34697D01*
X303325Y34774D01*
X303072Y34877D01*
X302843Y35006D01*
X302638Y35161D01*
X302461Y35336D01*
X302314Y35524D01*
X302198Y35724D01*
X302113Y35937D01*
X302052Y36159D01*
X302008Y36388D01*
X301982Y36623D01*
X301973Y36865D01*
X301981Y37176D01*
X302042Y38170D01*
X302234Y41200D01*
X300869Y41200D01*
X300911Y41901D01*
X300948Y42795D01*
X300974Y43609D01*
X302426Y43609D01*
X302484Y44251D01*
X302556Y45370D01*
X304056Y45676D01*
X304700Y45816D01*
X305809Y46079D01*
X305756Y44888D01*
X305721Y43609D01*
X307718Y43609D01*
X307666Y42096D01*
X307648Y41200D01*
X305633Y41200D01*
X305528Y39011D01*
X305510Y38380D01*
X305516Y38179D01*
X305533Y37995D01*
X305562Y37828D01*
X305602Y37680D01*
X305657Y37549D01*
X305729Y37439D01*
X305819Y37348D01*
X305927Y37277D01*
X306046Y37223D01*
X306171Y37185D01*
X306302Y37162D01*
X306439Y37154D01*
X306654Y37162D01*
X306877Y37185D01*
X307193Y37247D01*
X307683Y37373D01*
X307537Y36646D01*
X307412Y35937D01*
X307219Y34868D01*
X306447Y34710D01*
X305866Y34623D01*
X305388Y34583D01*
X304924Y34570D01*
G37*
G36*
X167409Y34570D02*
X166946Y34582D01*
X166513Y34618D01*
X166110Y34679D01*
X165736Y34763D01*
X165322Y34899D01*
X164930Y35078D01*
X164560Y35302D01*
X164212Y35569D01*
X163889Y35880D01*
X163614Y36219D01*
X163386Y36585D01*
X163205Y36979D01*
X163040Y37470D01*
X162922Y37990D01*
X162852Y38539D01*
X162828Y39116D01*
X162851Y39654D01*
X162920Y40182D01*
X163035Y40701D01*
X163196Y41209D01*
X163402Y41691D01*
X163651Y42128D01*
X163945Y42521D01*
X164282Y42869D01*
X164651Y43168D01*
X165040Y43414D01*
X165448Y43606D01*
X165876Y43745D01*
X166325Y43843D01*
X166798Y43912D01*
X167293Y43954D01*
X167812Y43968D01*
X168436Y43952D01*
X169064Y43903D01*
X169398Y43860D01*
X169769Y43798D01*
X170623Y43618D01*
X170641Y43416D01*
X170680Y42773D01*
X170737Y41735D01*
X170790Y40955D01*
X170181Y41147D01*
X169609Y41284D01*
X169073Y41366D01*
X168819Y41386D01*
X168574Y41393D01*
X168238Y41376D01*
X167924Y41326D01*
X167632Y41243D01*
X167361Y41126D01*
X167117Y40978D01*
X166907Y40800D01*
X166732Y40592D01*
X166590Y40355D01*
X166481Y40093D01*
X166403Y39811D01*
X166356Y39509D01*
X166340Y39186D01*
X166354Y38863D01*
X166396Y38566D01*
X166466Y38298D01*
X166564Y38056D01*
X166692Y37843D01*
X166854Y37658D01*
X167049Y37501D01*
X167277Y37373D01*
X167529Y37273D01*
X167792Y37202D01*
X168067Y37160D01*
X168355Y37145D01*
X168680Y37161D01*
X169060Y37207D01*
X169441Y37271D01*
X169769Y37342D01*
X170112Y37442D01*
X170536Y37592D01*
X170325Y36304D01*
X170098Y34903D01*
X169414Y34758D01*
X168738Y34654D01*
X168069Y34591D01*
X167409Y34570D01*
G37*
G36*
X112005Y34798D02*
X110211Y34816D01*
X108057Y34798D01*
X108278Y38112D01*
X108436Y41021D01*
X108531Y43525D01*
X108554Y44625D01*
X108562Y45624D01*
X108553Y46753D01*
X110604Y46736D01*
X112489Y46753D01*
X112346Y44835D01*
X112234Y43022D01*
X112129Y40650D01*
X112058Y38437D01*
X112019Y36461D01*
X112005Y34798D01*
G37*
G36*
X148003Y34798D02*
X146294Y34816D01*
X144471Y34798D01*
X144742Y38687D01*
X144829Y40920D01*
X144838Y42155D01*
X144821Y43740D01*
X146503Y43723D01*
X148176Y43740D01*
X148139Y42751D01*
X148450Y43087D01*
X148700Y43324D01*
X148934Y43504D01*
X149199Y43666D01*
X149486Y43800D01*
X149787Y43894D01*
X150100Y43950D01*
X150426Y43968D01*
X150759Y43946D01*
X151127Y43881D01*
X151143Y43009D01*
X151171Y42304D01*
X151232Y40955D01*
X150996Y41017D01*
X150766Y41060D01*
X150545Y41087D01*
X150331Y41095D01*
X150078Y41086D01*
X149842Y41057D01*
X149625Y41009D01*
X149425Y40942D01*
X149240Y40856D01*
X149066Y40749D01*
X148903Y40624D01*
X148751Y40478D01*
X148612Y40313D01*
X148488Y40129D01*
X148378Y39925D01*
X148283Y39703D01*
X148202Y39437D01*
X148134Y39103D01*
X148080Y38701D01*
X148038Y38231D01*
X147986Y37152D01*
X147968Y35928D01*
X147977Y35418D01*
X148003Y34798D01*
G37*
G36*
X322941Y34798D02*
X321231Y34816D01*
X319408Y34798D01*
X319679Y38687D01*
X319767Y40920D01*
X319776Y42155D01*
X319758Y43740D01*
X321440Y43723D01*
X323113Y43740D01*
X323077Y42751D01*
X323388Y43087D01*
X323638Y43324D01*
X323872Y43504D01*
X324137Y43666D01*
X324424Y43800D01*
X324724Y43894D01*
X325037Y43950D01*
X325364Y43968D01*
X325697Y43946D01*
X326065Y43881D01*
X326080Y43009D01*
X326109Y42304D01*
X326170Y40955D01*
X325933Y41017D01*
X325704Y41060D01*
X325482Y41087D01*
X325269Y41095D01*
X325015Y41086D01*
X324780Y41057D01*
X324562Y41009D01*
X324363Y40942D01*
X324178Y40856D01*
X324004Y40749D01*
X323841Y40624D01*
X323689Y40478D01*
X323550Y40313D01*
X323425Y40129D01*
X323316Y39925D01*
X323221Y39703D01*
X323140Y39437D01*
X323072Y39103D01*
X323017Y38701D01*
X322976Y38231D01*
X322923Y37152D01*
X322906Y35928D01*
X322914Y35418D01*
X322941Y34798D01*
G37*
G36*
X380972Y34798D02*
X379263Y34816D01*
X377439Y34798D01*
X377711Y38687D01*
X377798Y40920D01*
X377807Y42155D01*
X377789Y43740D01*
X379471Y43723D01*
X381144Y43740D01*
X381108Y42751D01*
X381419Y43087D01*
X381669Y43324D01*
X381903Y43504D01*
X382168Y43666D01*
X382455Y43800D01*
X382755Y43894D01*
X383069Y43950D01*
X383395Y43968D01*
X383728Y43946D01*
X384096Y43881D01*
X384111Y43009D01*
X384140Y42304D01*
X384201Y40955D01*
X383964Y41017D01*
X383735Y41060D01*
X383514Y41087D01*
X383300Y41095D01*
X383046Y41086D01*
X382811Y41057D01*
X382593Y41009D01*
X382394Y40942D01*
X382209Y40856D01*
X382035Y40749D01*
X381872Y40624D01*
X381720Y40478D01*
X381581Y40313D01*
X381457Y40129D01*
X381347Y39925D01*
X381252Y39703D01*
X381171Y39437D01*
X381103Y39103D01*
X381048Y38701D01*
X381007Y38231D01*
X380954Y37152D01*
X380937Y35928D01*
X380946Y35418D01*
X380972Y34798D01*
G37*
G36*
X183453Y34798D02*
X181660Y34816D01*
X179708Y34798D01*
X179891Y36558D01*
X179951Y37347D01*
X180009Y38328D01*
X180109Y40710D01*
X180148Y42120D01*
X180179Y43740D01*
X182002Y43723D01*
X183790Y43740D01*
X183660Y42186D01*
X183573Y40833D01*
X183519Y39543D01*
X183489Y38179D01*
X183453Y34798D01*
G37*
G36*
X183711Y44862D02*
X182047Y44879D01*
X180260Y44862D01*
X180299Y45794D01*
X180313Y46508D01*
X180304Y46981D01*
X182082Y46964D01*
X183816Y46981D01*
X183781Y46526D01*
X183728Y45440D01*
X183711Y44862D01*
G37*
G36*
X366739Y18060D02*
X366217Y18082D01*
X365712Y18146D01*
X365223Y18252D01*
X364751Y18402D01*
X364301Y18599D01*
X363880Y18851D01*
X363486Y19156D01*
X363122Y19514D01*
X362798Y19917D01*
X362526Y20356D01*
X362410Y20589D01*
X362307Y20830D01*
X362218Y21081D01*
X362141Y21340D01*
X362018Y21877D01*
X361931Y22432D01*
X361878Y23005D01*
X361861Y23596D01*
X361867Y23958D01*
X361885Y24319D01*
X361958Y25036D01*
X362080Y25747D01*
X362250Y26451D01*
X362465Y27119D01*
X362718Y27723D01*
X362859Y28001D01*
X363010Y28262D01*
X363171Y28508D01*
X363341Y28737D01*
X363522Y28951D01*
X363714Y29151D01*
X363917Y29336D01*
X364131Y29507D01*
X364357Y29663D01*
X364594Y29805D01*
X364842Y29933D01*
X365101Y30046D01*
X365639Y30232D01*
X366192Y30365D01*
X366474Y30411D01*
X366760Y30445D01*
X367050Y30464D01*
X367344Y30471D01*
X367692Y30463D01*
X368031Y30437D01*
X368362Y30394D01*
X368685Y30333D01*
X368998Y30256D01*
X369304Y30161D01*
X369600Y30049D01*
X369888Y29919D01*
X370164Y29769D01*
X370424Y29594D01*
X370668Y29395D01*
X370897Y29172D01*
X371111Y28923D01*
X371308Y28651D01*
X371491Y28354D01*
X371657Y28032D01*
X371806Y27691D01*
X371935Y27334D01*
X372044Y26963D01*
X372133Y26577D01*
X372203Y26176D01*
X372252Y25760D01*
X372282Y25329D01*
X372292Y24883D01*
X372286Y24529D01*
X372268Y24175D01*
X372195Y23471D01*
X372073Y22770D01*
X371902Y22072D01*
X371690Y21410D01*
X371443Y20816D01*
X371160Y20291D01*
X371006Y20054D01*
X370843Y19834D01*
X370668Y19629D01*
X370481Y19435D01*
X370280Y19254D01*
X370066Y19084D01*
X369839Y18926D01*
X369599Y18780D01*
X369345Y18646D01*
X369078Y18524D01*
X368802Y18416D01*
X368521Y18321D01*
X368236Y18242D01*
X367946Y18176D01*
X367651Y18126D01*
X367352Y18089D01*
X367048Y18068D01*
X366739Y18060D01*
G37*
%LPC*%
G36*
X366879Y20635D02*
X367010Y20642D01*
X367139Y20664D01*
X367392Y20749D01*
X367518Y20820D01*
X367648Y20920D01*
X367781Y21048D01*
X367917Y21205D01*
X368051Y21394D01*
X368177Y21621D01*
X368294Y21884D01*
X368403Y22186D01*
X368501Y22509D01*
X368585Y22839D01*
X368655Y23177D01*
X368710Y23521D01*
X368782Y24223D01*
X368800Y24578D01*
X368806Y24936D01*
X368800Y25296D01*
X368780Y25633D01*
X368748Y25945D01*
X368703Y26234D01*
X368645Y26499D01*
X368575Y26741D01*
X368491Y26958D01*
X368395Y27152D01*
X368287Y27322D01*
X368171Y27470D01*
X368045Y27595D01*
X367911Y27697D01*
X367767Y27776D01*
X367614Y27833D01*
X367453Y27867D01*
X367282Y27879D01*
X367082Y27863D01*
X366892Y27817D01*
X366714Y27741D01*
X366546Y27633D01*
X366360Y27471D01*
X366194Y27281D01*
X366049Y27064D01*
X365925Y26819D01*
X365793Y26496D01*
X365679Y26151D01*
X365583Y25783D01*
X365504Y25391D01*
X365435Y24938D01*
X365386Y24463D01*
X365356Y23966D01*
X365347Y23447D01*
X365358Y23003D01*
X365390Y22598D01*
X365445Y22234D01*
X365522Y21910D01*
X365621Y21623D01*
X365742Y21370D01*
X365885Y21152D01*
X366052Y20968D01*
X366236Y20823D01*
X366436Y20718D01*
X366650Y20656D01*
X366879Y20635D01*
G37*
%LPD*%
G36*
X285215Y18288D02*
X283272Y18306D01*
X281206Y18288D01*
X280698Y19978D01*
X280560Y20436D01*
X280444Y20775D01*
X279821Y22518D01*
X278918Y24997D01*
X279386Y24931D01*
X279846Y24909D01*
X280159Y24922D01*
X280456Y24958D01*
X280739Y25018D01*
X281007Y25102D01*
X281251Y25212D01*
X281464Y25347D01*
X281645Y25509D01*
X281795Y25698D01*
X281912Y25902D01*
X281995Y26112D01*
X282045Y26327D01*
X282062Y26547D01*
X282049Y26730D01*
X282012Y26901D01*
X281949Y27061D01*
X281861Y27209D01*
X281745Y27342D01*
X281601Y27457D01*
X281428Y27554D01*
X281226Y27633D01*
X280980Y27695D01*
X280675Y27738D01*
X280312Y27765D01*
X279890Y27774D01*
X279255Y27760D01*
X278489Y27738D01*
X278383Y25746D01*
X278290Y23359D01*
X278219Y20800D01*
X278178Y18288D01*
X276275Y18306D01*
X274442Y18288D01*
X274591Y19753D01*
X274706Y21064D01*
X274796Y22398D01*
X274873Y23929D01*
X274934Y25602D01*
X274978Y27366D01*
X275004Y28990D01*
X275013Y30243D01*
X276782Y30217D01*
X277559Y30227D01*
X278490Y30257D01*
X279484Y30286D01*
X280451Y30296D01*
X281511Y30274D01*
X281995Y30247D01*
X282448Y30208D01*
X282769Y30170D01*
X283075Y30114D01*
X283367Y30043D01*
X283643Y29954D01*
X283902Y29853D01*
X284139Y29741D01*
X284355Y29619D01*
X284550Y29486D01*
X284887Y29193D01*
X285032Y29035D01*
X285163Y28868D01*
X285278Y28690D01*
X285380Y28497D01*
X285469Y28289D01*
X285544Y28067D01*
X285603Y27833D01*
X285645Y27591D01*
X285671Y27340D01*
X285679Y27082D01*
X285670Y26793D01*
X285642Y26513D01*
X285596Y26243D01*
X285530Y25982D01*
X285445Y25730D01*
X285339Y25485D01*
X285211Y25248D01*
X285062Y25019D01*
X284892Y24801D01*
X284701Y24599D01*
X284489Y24411D01*
X284256Y24239D01*
X283989Y24074D01*
X283672Y23908D01*
X283308Y23739D01*
X282894Y23569D01*
X283350Y22457D01*
X283761Y21511D01*
X284935Y18945D01*
X285215Y18288D01*
G37*
G36*
X390263Y18060D02*
X389873Y18069D01*
X389496Y18093D01*
X389133Y18135D01*
X388782Y18193D01*
X388444Y18267D01*
X388119Y18358D01*
X387807Y18466D01*
X387509Y18590D01*
X387226Y18729D01*
X386964Y18880D01*
X386721Y19043D01*
X386499Y19219D01*
X386297Y19406D01*
X386114Y19607D01*
X385952Y19819D01*
X385809Y20044D01*
X385685Y20278D01*
X385578Y20518D01*
X385486Y20764D01*
X385412Y21015D01*
X385354Y21273D01*
X385313Y21536D01*
X385288Y21805D01*
X385279Y22080D01*
X385288Y22408D01*
X385316Y22750D01*
X385361Y23108D01*
X385424Y23482D01*
X385518Y23881D01*
X385656Y24317D01*
X385838Y24790D01*
X386063Y25299D01*
X386334Y25847D01*
X386650Y26435D01*
X387013Y27062D01*
X387421Y27730D01*
X387854Y28402D01*
X388291Y29046D01*
X388732Y29659D01*
X389177Y30243D01*
X393661Y30243D01*
X392555Y28958D01*
X391895Y28168D01*
X391293Y27376D01*
X390728Y26560D01*
X390228Y25762D01*
X389819Y25023D01*
X389484Y24320D01*
X389203Y23631D01*
X389075Y23241D01*
X388989Y22877D01*
X388939Y22538D01*
X388923Y22221D01*
X388933Y22017D01*
X388964Y21818D01*
X389016Y21623D01*
X389089Y21432D01*
X389182Y21254D01*
X389296Y21095D01*
X389431Y20956D01*
X389587Y20837D01*
X389761Y20741D01*
X389951Y20673D01*
X390158Y20631D01*
X390381Y20618D01*
X390593Y20631D01*
X390793Y20669D01*
X390980Y20734D01*
X391154Y20824D01*
X391311Y20936D01*
X391448Y21069D01*
X391563Y21221D01*
X391656Y21393D01*
X391729Y21577D01*
X391781Y21766D01*
X391812Y21960D01*
X391822Y22159D01*
X391814Y22331D01*
X391790Y22490D01*
X391750Y22637D01*
X391694Y22772D01*
X391622Y22896D01*
X391534Y23007D01*
X391430Y23106D01*
X391310Y23193D01*
X391054Y23335D01*
X390798Y23436D01*
X390544Y23497D01*
X390289Y23517D01*
X390092Y23506D01*
X389816Y23473D01*
X390570Y24726D01*
X391279Y25917D01*
X391724Y25976D01*
X392146Y25996D01*
X392395Y25989D01*
X392637Y25971D01*
X393102Y25897D01*
X393541Y25774D01*
X393955Y25601D01*
X394149Y25496D01*
X394331Y25377D01*
X394501Y25245D01*
X394659Y25099D01*
X394804Y24939D01*
X394938Y24766D01*
X395059Y24580D01*
X395168Y24380D01*
X395348Y23954D01*
X395477Y23505D01*
X395522Y23271D01*
X395554Y23032D01*
X395573Y22787D01*
X395580Y22536D01*
X395568Y22202D01*
X395532Y21874D01*
X395474Y21551D01*
X395391Y21235D01*
X395287Y20928D01*
X395162Y20633D01*
X395018Y20350D01*
X394853Y20079D01*
X394667Y19821D01*
X394460Y19578D01*
X394231Y19348D01*
X393981Y19133D01*
X393716Y18938D01*
X393442Y18766D01*
X393160Y18620D01*
X392869Y18498D01*
X392568Y18396D01*
X392259Y18307D01*
X391940Y18231D01*
X391612Y18170D01*
X391278Y18122D01*
X390942Y18088D01*
X390604Y18067D01*
X390263Y18060D01*
G37*
G36*
X321932Y18288D02*
X317369Y18306D01*
X312508Y18288D01*
X312540Y18766D01*
X312565Y19377D01*
X312622Y20764D01*
X313496Y21498D01*
X314295Y22210D01*
X315460Y23314D01*
X316485Y24348D01*
X317185Y25112D01*
X317763Y25811D01*
X318011Y26172D01*
X318157Y26468D01*
X318210Y26654D01*
X318227Y26845D01*
X318220Y26968D01*
X318199Y27082D01*
X318163Y27189D01*
X318114Y27287D01*
X318048Y27378D01*
X317967Y27461D01*
X317755Y27607D01*
X317483Y27725D01*
X317159Y27817D01*
X316785Y27876D01*
X316362Y27896D01*
X316051Y27890D01*
X315732Y27870D01*
X315070Y27791D01*
X314268Y27638D01*
X313218Y27388D01*
X313445Y28641D01*
X313542Y29190D01*
X313673Y30086D01*
X314807Y30254D01*
X315904Y30375D01*
X316966Y30447D01*
X317991Y30471D01*
X318446Y30461D01*
X318891Y30430D01*
X319326Y30378D01*
X319751Y30305D01*
X320161Y30207D01*
X320549Y30080D01*
X320914Y29925D01*
X321258Y29740D01*
X321570Y29532D01*
X321840Y29308D01*
X322069Y29068D01*
X322256Y28811D01*
X322402Y28541D01*
X322506Y28261D01*
X322568Y27970D01*
X322589Y27668D01*
X322565Y27268D01*
X322493Y26871D01*
X322355Y26462D01*
X322134Y25987D01*
X321958Y25673D01*
X321762Y25361D01*
X321546Y25051D01*
X321310Y24743D01*
X320933Y24279D01*
X320527Y23808D01*
X319629Y22842D01*
X318626Y21857D01*
X317439Y20758D01*
X318403Y20749D01*
X319756Y20767D01*
X321162Y20802D01*
X321602Y20830D01*
X322134Y20881D01*
X322051Y19830D01*
X321932Y18288D01*
G37*
G36*
X359589Y18288D02*
X355025Y18306D01*
X350164Y18288D01*
X350196Y18766D01*
X350221Y19377D01*
X350278Y20764D01*
X351152Y21498D01*
X351951Y22210D01*
X353116Y23314D01*
X354141Y24348D01*
X354841Y25112D01*
X355420Y25811D01*
X355667Y26172D01*
X355814Y26468D01*
X355866Y26654D01*
X355884Y26845D01*
X355877Y26968D01*
X355855Y27082D01*
X355820Y27189D01*
X355770Y27287D01*
X355705Y27378D01*
X355623Y27461D01*
X355411Y27607D01*
X355139Y27725D01*
X354815Y27817D01*
X354441Y27876D01*
X354018Y27896D01*
X353708Y27890D01*
X353389Y27870D01*
X352726Y27791D01*
X351924Y27638D01*
X350874Y27388D01*
X351102Y28641D01*
X351198Y29190D01*
X351329Y30086D01*
X352463Y30254D01*
X353561Y30375D01*
X354622Y30447D01*
X355647Y30471D01*
X356102Y30461D01*
X356547Y30430D01*
X356982Y30378D01*
X357408Y30305D01*
X357817Y30207D01*
X358205Y30080D01*
X358570Y29925D01*
X358914Y29740D01*
X359226Y29532D01*
X359497Y29308D01*
X359725Y29068D01*
X359913Y28811D01*
X360058Y28541D01*
X360162Y28261D01*
X360225Y27970D01*
X360245Y27668D01*
X360221Y27268D01*
X360149Y26871D01*
X360011Y26462D01*
X359790Y25987D01*
X359614Y25673D01*
X359418Y25361D01*
X359202Y25051D01*
X358967Y24743D01*
X358589Y24279D01*
X358183Y23808D01*
X357285Y22842D01*
X356282Y21857D01*
X355095Y20758D01*
X356059Y20749D01*
X357412Y20767D01*
X358818Y20802D01*
X359258Y20830D01*
X359790Y20881D01*
X359707Y19830D01*
X359589Y18288D01*
G37*
G36*
X382964Y18288D02*
X378400Y18306D01*
X373539Y18288D01*
X373571Y18766D01*
X373596Y19377D01*
X373653Y20764D01*
X374527Y21498D01*
X375326Y22210D01*
X376491Y23314D01*
X377516Y24348D01*
X378216Y25112D01*
X378795Y25811D01*
X379042Y26172D01*
X379189Y26468D01*
X379241Y26654D01*
X379259Y26845D01*
X379252Y26968D01*
X379230Y27082D01*
X379195Y27189D01*
X379145Y27287D01*
X379080Y27378D01*
X378998Y27461D01*
X378786Y27607D01*
X378514Y27725D01*
X378190Y27817D01*
X377816Y27876D01*
X377393Y27896D01*
X377083Y27890D01*
X376764Y27870D01*
X376101Y27791D01*
X375299Y27638D01*
X374249Y27388D01*
X374477Y28641D01*
X374573Y29190D01*
X374704Y30086D01*
X375838Y30254D01*
X376936Y30375D01*
X377997Y30447D01*
X379022Y30471D01*
X379477Y30461D01*
X379922Y30430D01*
X380357Y30378D01*
X380783Y30305D01*
X381192Y30207D01*
X381580Y30080D01*
X381945Y29925D01*
X382289Y29740D01*
X382601Y29532D01*
X382872Y29308D01*
X383100Y29068D01*
X383288Y28811D01*
X383433Y28541D01*
X383537Y28261D01*
X383600Y27970D01*
X383620Y27668D01*
X383596Y27268D01*
X383524Y26871D01*
X383386Y26462D01*
X383165Y25987D01*
X382989Y25673D01*
X382793Y25361D01*
X382577Y25051D01*
X382342Y24743D01*
X381964Y24279D01*
X381558Y23808D01*
X380660Y22842D01*
X379657Y21857D01*
X378470Y20758D01*
X379434Y20749D01*
X380787Y20767D01*
X382193Y20802D01*
X382633Y20830D01*
X383165Y20881D01*
X383082Y19830D01*
X382964Y18288D01*
G37*
G36*
X292041Y18060D02*
X291530Y18069D01*
X291040Y18096D01*
X290571Y18142D01*
X290123Y18205D01*
X289700Y18291D01*
X289307Y18405D01*
X288944Y18547D01*
X288612Y18717D01*
X288307Y18912D01*
X288028Y19129D01*
X287775Y19369D01*
X287548Y19631D01*
X287346Y19917D01*
X287170Y20229D01*
X287020Y20567D01*
X286895Y20930D01*
X286797Y21309D01*
X286728Y21694D01*
X286686Y22084D01*
X286672Y22479D01*
X286679Y22758D01*
X286700Y23036D01*
X286735Y23312D01*
X286783Y23587D01*
X286923Y24132D01*
X287118Y24671D01*
X287358Y25178D01*
X287630Y25626D01*
X287934Y26016D01*
X288270Y26347D01*
X288636Y26627D01*
X289029Y26863D01*
X289448Y27056D01*
X289895Y27204D01*
X290357Y27315D01*
X290826Y27395D01*
X291299Y27442D01*
X291778Y27458D01*
X292271Y27444D01*
X292753Y27400D01*
X293224Y27328D01*
X293683Y27226D01*
X294119Y27088D01*
X294521Y26908D01*
X294888Y26683D01*
X295220Y26416D01*
X295513Y26118D01*
X295760Y25801D01*
X295962Y25465D01*
X296118Y25111D01*
X296235Y24740D01*
X296318Y24355D01*
X296368Y23956D01*
X296385Y23543D01*
X296378Y23286D01*
X296357Y23015D01*
X296271Y22431D01*
X292746Y22426D01*
X290131Y22422D01*
X290123Y22169D01*
X290133Y21941D01*
X290165Y21729D01*
X290217Y21533D01*
X290291Y21351D01*
X290386Y21186D01*
X290502Y21036D01*
X290639Y20901D01*
X290797Y20782D01*
X290970Y20678D01*
X291153Y20588D01*
X291345Y20511D01*
X291546Y20449D01*
X291756Y20400D01*
X291976Y20365D01*
X292205Y20344D01*
X292444Y20337D01*
X292743Y20346D01*
X293062Y20371D01*
X293402Y20414D01*
X293762Y20473D01*
X294588Y20656D01*
X295588Y20933D01*
X295422Y20035D01*
X295150Y18393D01*
X294215Y18226D01*
X293442Y18126D01*
X292746Y18077D01*
X292041Y18060D01*
G37*
%LPC*%
G36*
X293092Y23762D02*
X293101Y24016D01*
X293090Y24236D01*
X293060Y24439D01*
X293009Y24625D01*
X292939Y24796D01*
X292849Y24947D01*
X292741Y25076D01*
X292617Y25183D01*
X292474Y25269D01*
X292319Y25334D01*
X292154Y25380D01*
X291979Y25408D01*
X291796Y25417D01*
X291537Y25397D01*
X291288Y25334D01*
X291054Y25231D01*
X290845Y25089D01*
X290665Y24915D01*
X290517Y24717D01*
X290403Y24510D01*
X290324Y24309D01*
X290263Y24074D01*
X290201Y23762D01*
X293092Y23762D01*
G37*
%LPD*%
G36*
X303702Y18288D02*
X301880Y18306D01*
X299953Y18288D01*
X299024Y21161D01*
X296929Y27230D01*
X298787Y27213D01*
X300470Y27230D01*
X300692Y26400D01*
X301058Y25115D01*
X301518Y23461D01*
X302022Y21520D01*
X302250Y22247D01*
X302661Y23368D01*
X304052Y27230D01*
X305838Y27213D01*
X307641Y27230D01*
X306433Y24629D01*
X304184Y19462D01*
X303702Y18288D01*
G37*
G36*
X337069Y18288D02*
X335257Y18306D01*
X333191Y18288D01*
X333319Y20064D01*
X333478Y22676D01*
X333615Y25275D01*
X333678Y27012D01*
X333048Y26613D01*
X331719Y25680D01*
X331815Y27428D01*
X331848Y28298D01*
X331859Y28903D01*
X332868Y29508D01*
X333559Y29950D01*
X333939Y30243D01*
X335737Y30226D01*
X337710Y30243D01*
X337534Y28290D01*
X337157Y21809D01*
X337069Y19427D01*
X337069Y18288D01*
G37*
G36*
X327673Y18288D02*
X326149Y18306D01*
X324380Y18288D01*
X324445Y19667D01*
X324502Y21459D01*
X326306Y21432D01*
X327830Y21459D01*
X327756Y20189D01*
X327673Y18288D01*
G37*
G36*
X617933Y-43481D02*
X617502Y-43466D01*
X617094Y-43420D01*
X616711Y-43344D01*
X616352Y-43238D01*
X616018Y-43102D01*
X615707Y-42935D01*
X615421Y-42737D01*
X615159Y-42510D01*
X614925Y-42255D01*
X614721Y-41977D01*
X614550Y-41674D01*
X614409Y-41348D01*
X614300Y-40999D01*
X614221Y-40625D01*
X614175Y-40228D01*
X614159Y-39807D01*
X614166Y-39529D01*
X614187Y-39261D01*
X614222Y-39002D01*
X614271Y-38753D01*
X614334Y-38513D01*
X614411Y-38282D01*
X614503Y-38061D01*
X614608Y-37849D01*
X614726Y-37647D01*
X614858Y-37458D01*
X615002Y-37282D01*
X615158Y-37117D01*
X615328Y-36965D01*
X615510Y-36825D01*
X615705Y-36697D01*
X615912Y-36581D01*
X616131Y-36478D01*
X616359Y-36389D01*
X616597Y-36314D01*
X616845Y-36252D01*
X617103Y-36204D01*
X617370Y-36170D01*
X617646Y-36150D01*
X617933Y-36143D01*
X618218Y-36150D01*
X618495Y-36170D01*
X618762Y-36205D01*
X619021Y-36254D01*
X619270Y-36316D01*
X619511Y-36392D01*
X619742Y-36482D01*
X619964Y-36586D01*
X620176Y-36703D01*
X620375Y-36832D01*
X620561Y-36973D01*
X620735Y-37126D01*
X620896Y-37291D01*
X621044Y-37469D01*
X621180Y-37658D01*
X621303Y-37859D01*
X621412Y-38071D01*
X621507Y-38293D01*
X621588Y-38523D01*
X621653Y-38763D01*
X621704Y-39013D01*
X621741Y-39271D01*
X621763Y-39540D01*
X621770Y-39817D01*
X621763Y-40097D01*
X621741Y-40367D01*
X621705Y-40627D01*
X621655Y-40878D01*
X621590Y-41119D01*
X621510Y-41350D01*
X621416Y-41571D01*
X621308Y-41783D01*
X621186Y-41983D01*
X621051Y-42172D01*
X620904Y-42348D01*
X620743Y-42512D01*
X620570Y-42663D01*
X620383Y-42803D01*
X620184Y-42930D01*
X619972Y-43045D01*
X619749Y-43147D01*
X619517Y-43236D01*
X619276Y-43311D01*
X619025Y-43372D01*
X618766Y-43420D01*
X618497Y-43454D01*
X618220Y-43474D01*
X617933Y-43481D01*
G37*
%LPC*%
G36*
X617933Y-42463D02*
X618272Y-42452D01*
X618593Y-42419D01*
X618895Y-42364D01*
X619180Y-42287D01*
X619447Y-42189D01*
X619696Y-42068D01*
X619927Y-41926D01*
X620140Y-41762D01*
X620331Y-41578D01*
X620497Y-41377D01*
X620638Y-41160D01*
X620752Y-40925D01*
X620842Y-40674D01*
X620905Y-40405D01*
X620944Y-40120D01*
X620956Y-39817D01*
X620944Y-39506D01*
X620907Y-39214D01*
X620845Y-38940D01*
X620759Y-38685D01*
X620648Y-38449D01*
X620512Y-38231D01*
X620352Y-38032D01*
X620166Y-37851D01*
X619959Y-37691D01*
X619731Y-37552D01*
X619482Y-37434D01*
X619213Y-37338D01*
X618924Y-37263D01*
X618614Y-37209D01*
X618284Y-37177D01*
X617933Y-37166D01*
X617597Y-37177D01*
X617280Y-37209D01*
X616981Y-37263D01*
X616701Y-37339D01*
X616439Y-37436D01*
X616196Y-37555D01*
X615971Y-37695D01*
X615765Y-37857D01*
X615581Y-38038D01*
X615421Y-38237D01*
X615285Y-38454D01*
X615175Y-38689D01*
X615088Y-38942D01*
X615027Y-39212D01*
X614990Y-39501D01*
X614978Y-39807D01*
X614990Y-40115D01*
X615026Y-40406D01*
X615087Y-40678D01*
X615172Y-40932D01*
X615281Y-41169D01*
X615415Y-41387D01*
X615573Y-41587D01*
X615755Y-41770D01*
X615959Y-41932D01*
X616182Y-42073D01*
X616425Y-42192D01*
X616688Y-42289D01*
X616970Y-42365D01*
X617271Y-42419D01*
X617592Y-42452D01*
X617933Y-42463D01*
G37*
%LPD*%
G36*
X617964Y-35195D02*
X617503Y-35185D01*
X617071Y-35156D01*
X616670Y-35108D01*
X616298Y-35040D01*
X615956Y-34952D01*
X615644Y-34845D01*
X615361Y-34719D01*
X615109Y-34573D01*
X614886Y-34406D01*
X614693Y-34217D01*
X614530Y-34005D01*
X614396Y-33771D01*
X614293Y-33514D01*
X614218Y-33234D01*
X614174Y-32932D01*
X614159Y-32607D01*
X614174Y-32291D01*
X614219Y-31997D01*
X614294Y-31723D01*
X614399Y-31472D01*
X614534Y-31241D01*
X614699Y-31032D01*
X614894Y-30845D01*
X615119Y-30678D01*
X615374Y-30533D01*
X615658Y-30406D01*
X615970Y-30299D01*
X616311Y-30212D01*
X616681Y-30144D01*
X617080Y-30095D01*
X617508Y-30066D01*
X617964Y-30056D01*
X618414Y-30067D01*
X618836Y-30097D01*
X619231Y-30148D01*
X619598Y-30220D01*
X619938Y-30312D01*
X620251Y-30424D01*
X620536Y-30557D01*
X620794Y-30710D01*
X621023Y-30883D01*
X621221Y-31075D01*
X621389Y-31287D01*
X621526Y-31519D01*
X621633Y-31770D01*
X621709Y-32040D01*
X621755Y-32330D01*
X621770Y-32639D01*
X621755Y-32948D01*
X621709Y-33237D01*
X621633Y-33506D01*
X621527Y-33756D01*
X621391Y-33985D01*
X621224Y-34195D01*
X621027Y-34385D01*
X620799Y-34555D01*
X620542Y-34705D01*
X620258Y-34835D01*
X619945Y-34945D01*
X619605Y-35035D01*
X619237Y-35105D01*
X618840Y-35155D01*
X618416Y-35185D01*
X617964Y-35195D01*
G37*
%LPC*%
G36*
X617964Y-34240D02*
X618345Y-34234D01*
X618699Y-34216D01*
X619027Y-34186D01*
X619328Y-34143D01*
X619603Y-34089D01*
X619851Y-34023D01*
X620073Y-33944D01*
X620269Y-33854D01*
X620440Y-33750D01*
X620588Y-33633D01*
X620713Y-33501D01*
X620816Y-33355D01*
X620896Y-33194D01*
X620953Y-33020D01*
X620987Y-32831D01*
X620998Y-32628D01*
X620987Y-32427D01*
X620952Y-32239D01*
X620894Y-32065D01*
X620812Y-31905D01*
X620707Y-31759D01*
X620579Y-31627D01*
X620428Y-31509D01*
X620253Y-31405D01*
X620054Y-31314D01*
X619830Y-31235D01*
X619582Y-31169D01*
X619308Y-31114D01*
X619010Y-31072D01*
X618686Y-31041D01*
X618338Y-31023D01*
X617964Y-31017D01*
X617578Y-31023D01*
X617219Y-31040D01*
X616888Y-31069D01*
X616584Y-31109D01*
X616308Y-31161D01*
X616059Y-31225D01*
X615838Y-31300D01*
X615644Y-31387D01*
X615476Y-31487D01*
X615330Y-31602D01*
X615206Y-31732D01*
X615105Y-31877D01*
X615026Y-32037D01*
X614970Y-32212D01*
X614937Y-32402D01*
X614925Y-32607D01*
X614936Y-32818D01*
X614970Y-33012D01*
X615025Y-33192D01*
X615102Y-33356D01*
X615202Y-33505D01*
X615324Y-33638D01*
X615468Y-33756D01*
X615634Y-33859D01*
X615825Y-33948D01*
X616045Y-34026D01*
X616294Y-34091D01*
X616571Y-34145D01*
X616876Y-34186D01*
X617211Y-34216D01*
X617573Y-34234D01*
X617964Y-34240D01*
G37*
%LPD*%
G36*
X633095Y-46108D02*
X625699Y-46108D01*
X625699Y-42628D01*
X625708Y-42325D01*
X625734Y-42039D01*
X625778Y-41771D01*
X625839Y-41521D01*
X625918Y-41289D01*
X626014Y-41075D01*
X626127Y-40878D01*
X626258Y-40699D01*
X626405Y-40540D01*
X626565Y-40402D01*
X626739Y-40285D01*
X626927Y-40189D01*
X627128Y-40115D01*
X627343Y-40062D01*
X627572Y-40030D01*
X627815Y-40019D01*
X628016Y-40027D01*
X628210Y-40049D01*
X628396Y-40087D01*
X628573Y-40139D01*
X628742Y-40207D01*
X628903Y-40289D01*
X629056Y-40387D01*
X629200Y-40500D01*
X629334Y-40625D01*
X629455Y-40763D01*
X629563Y-40911D01*
X629603Y-40978D01*
X629658Y-41071D01*
X629740Y-41242D01*
X629809Y-41425D01*
X629866Y-41619D01*
X629909Y-41825D01*
X631265Y-40931D01*
X633095Y-39725D01*
X633095Y-40880D01*
X630024Y-42801D01*
X630024Y-45106D01*
X633095Y-45106D01*
X633095Y-46108D01*
G37*
%LPC*%
G36*
X629232Y-45106D02*
X629232Y-42686D01*
X629209Y-42312D01*
X629139Y-41983D01*
X629024Y-41699D01*
X628862Y-41460D01*
X628658Y-41271D01*
X628542Y-41196D01*
X628417Y-41135D01*
X628283Y-41088D01*
X628140Y-41054D01*
X627987Y-41034D01*
X627825Y-41027D01*
X627668Y-41034D01*
X627521Y-41055D01*
X627384Y-41089D01*
X627256Y-41137D01*
X627138Y-41198D01*
X627029Y-41274D01*
X626841Y-41465D01*
X626693Y-41709D01*
X626587Y-42000D01*
X626523Y-42340D01*
X626502Y-42728D01*
X626502Y-45106D01*
X629232Y-45106D01*
G37*
%LPD*%
G36*
X610235Y-38952D02*
X602839Y-38952D01*
X602839Y-37787D01*
X609180Y-33787D01*
X608293Y-33834D01*
X607689Y-33850D01*
X602839Y-33850D01*
X602839Y-32947D01*
X610235Y-32947D01*
X610235Y-34154D01*
X603936Y-38112D01*
X604445Y-38086D01*
X605322Y-38060D01*
X610235Y-38060D01*
X610235Y-38952D01*
G37*
G36*
X610235Y-46108D02*
X602839Y-46108D01*
X602839Y-40497D01*
X603658Y-40497D01*
X603658Y-45106D01*
X606031Y-45106D01*
X606031Y-40812D01*
X606839Y-40812D01*
X606839Y-45106D01*
X609416Y-45106D01*
X609416Y-40282D01*
X610235Y-40282D01*
X610235Y-46108D01*
G37*
G36*
X633095Y-38999D02*
X629253Y-36185D01*
X625699Y-38783D01*
X625699Y-37676D01*
X628602Y-35618D01*
X625699Y-33618D01*
X625699Y-32511D01*
X629216Y-35041D01*
X633095Y-32296D01*
X633095Y-33403D01*
X629862Y-35623D01*
X633095Y-37891D01*
X633095Y-38999D01*
G37*
G36*
X644525Y-40186D02*
X640683Y-37373D01*
X637129Y-39971D01*
X637129Y-38863D01*
X640032Y-36806D01*
X637129Y-34806D01*
X637129Y-33698D01*
X640646Y-36228D01*
X644525Y-33483D01*
X644525Y-34591D01*
X641292Y-36811D01*
X644525Y-39079D01*
X644525Y-40186D01*
G37*
G36*
X637948Y-46749D02*
X637129Y-46749D01*
X637129Y-40670D01*
X637948Y-40670D01*
X637948Y-43211D01*
X644525Y-43211D01*
X644525Y-44208D01*
X637948Y-44208D01*
X637948Y-46749D01*
G37*
G36*
X621665Y-45998D02*
X614269Y-45998D01*
X614269Y-44995D01*
X621665Y-44995D01*
X621665Y-45998D01*
G37*
G36*
X320537Y-45866D02*
X320204Y-45852D01*
X319881Y-45811D01*
X319568Y-45743D01*
X319266Y-45647D01*
X318978Y-45521D01*
X318709Y-45360D01*
X318458Y-45165D01*
X318224Y-44936D01*
X318017Y-44678D01*
X317844Y-44398D01*
X317704Y-44094D01*
X317597Y-43768D01*
X317519Y-43425D01*
X317463Y-43071D01*
X317429Y-42704D01*
X317418Y-42326D01*
X317434Y-41864D01*
X317480Y-41405D01*
X317558Y-40951D01*
X317667Y-40501D01*
X317804Y-40074D01*
X317966Y-39687D01*
X318153Y-39343D01*
X318364Y-39039D01*
X318603Y-38775D01*
X318870Y-38547D01*
X319166Y-38356D01*
X319490Y-38202D01*
X319834Y-38083D01*
X320187Y-37998D01*
X320551Y-37947D01*
X320924Y-37930D01*
X321363Y-37953D01*
X321781Y-38019D01*
X322177Y-38129D01*
X322550Y-38283D01*
X322727Y-38379D01*
X322893Y-38491D01*
X323049Y-38618D01*
X323196Y-38761D01*
X323332Y-38920D01*
X323459Y-39094D01*
X323575Y-39284D01*
X323682Y-39490D01*
X323777Y-39708D01*
X323859Y-39936D01*
X323929Y-40173D01*
X323986Y-40420D01*
X324031Y-40677D01*
X324062Y-40943D01*
X324081Y-41218D01*
X324088Y-41503D01*
X324072Y-41956D01*
X324025Y-42406D01*
X323947Y-42855D01*
X323838Y-43301D01*
X323703Y-43724D01*
X323544Y-44104D01*
X323364Y-44440D01*
X323161Y-44732D01*
X322930Y-44987D01*
X322665Y-45211D01*
X322365Y-45405D01*
X322032Y-45569D01*
X321676Y-45699D01*
X321309Y-45791D01*
X320929Y-45847D01*
X320537Y-45866D01*
G37*
%LPC*%
G36*
X320627Y-44219D02*
X320793Y-44201D01*
X320954Y-44146D01*
X321118Y-44037D01*
X321290Y-43855D01*
X321376Y-43734D01*
X321456Y-43589D01*
X321601Y-43228D01*
X321717Y-42810D01*
X321797Y-42374D01*
X321843Y-41925D01*
X321859Y-41470D01*
X321842Y-41024D01*
X321793Y-40639D01*
X321711Y-40316D01*
X321596Y-40053D01*
X321452Y-39850D01*
X321286Y-39704D01*
X321194Y-39653D01*
X321097Y-39617D01*
X320994Y-39595D01*
X320884Y-39588D01*
X320756Y-39598D01*
X320635Y-39627D01*
X320521Y-39676D01*
X320414Y-39745D01*
X320295Y-39849D01*
X320189Y-39970D01*
X320096Y-40109D01*
X320016Y-40266D01*
X319932Y-40472D01*
X319860Y-40693D01*
X319798Y-40928D01*
X319748Y-41178D01*
X319704Y-41468D01*
X319672Y-41772D01*
X319653Y-42090D01*
X319647Y-42422D01*
X319654Y-42706D01*
X319675Y-42964D01*
X319710Y-43197D01*
X319759Y-43404D01*
X319822Y-43588D01*
X319900Y-43750D01*
X319991Y-43889D01*
X320098Y-44006D01*
X320216Y-44100D01*
X320343Y-44166D01*
X320480Y-44206D01*
X320627Y-44219D01*
G37*
%LPD*%
G36*
X328006Y-45866D02*
X327672Y-45852D01*
X327349Y-45811D01*
X327037Y-45743D01*
X326735Y-45647D01*
X326447Y-45521D01*
X326178Y-45360D01*
X325926Y-45165D01*
X325693Y-44936D01*
X325486Y-44678D01*
X325312Y-44398D01*
X325172Y-44094D01*
X325066Y-43768D01*
X324988Y-43425D01*
X324932Y-43071D01*
X324898Y-42704D01*
X324887Y-42326D01*
X324902Y-41864D01*
X324949Y-41405D01*
X325027Y-40951D01*
X325136Y-40501D01*
X325273Y-40074D01*
X325435Y-39687D01*
X325622Y-39343D01*
X325833Y-39039D01*
X326072Y-38775D01*
X326339Y-38547D01*
X326634Y-38356D01*
X326959Y-38202D01*
X327302Y-38083D01*
X327656Y-37998D01*
X328019Y-37947D01*
X328392Y-37930D01*
X328832Y-37953D01*
X329250Y-38019D01*
X329646Y-38129D01*
X330019Y-38283D01*
X330195Y-38379D01*
X330362Y-38491D01*
X330518Y-38618D01*
X330665Y-38761D01*
X330801Y-38920D01*
X330927Y-39094D01*
X331044Y-39284D01*
X331150Y-39490D01*
X331246Y-39708D01*
X331328Y-39936D01*
X331398Y-40173D01*
X331455Y-40420D01*
X331499Y-40677D01*
X331531Y-40943D01*
X331550Y-41218D01*
X331556Y-41503D01*
X331541Y-41956D01*
X331494Y-42406D01*
X331416Y-42855D01*
X331307Y-43301D01*
X331171Y-43724D01*
X331013Y-44104D01*
X330833Y-44440D01*
X330630Y-44732D01*
X330398Y-44987D01*
X330133Y-45211D01*
X329834Y-45405D01*
X329501Y-45569D01*
X329145Y-45699D01*
X328777Y-45791D01*
X328398Y-45847D01*
X328006Y-45866D01*
G37*
%LPC*%
G36*
X328096Y-44219D02*
X328261Y-44201D01*
X328423Y-44146D01*
X328587Y-44037D01*
X328759Y-43855D01*
X328845Y-43734D01*
X328925Y-43589D01*
X329070Y-43228D01*
X329186Y-42810D01*
X329266Y-42374D01*
X329312Y-41925D01*
X329328Y-41470D01*
X329311Y-41024D01*
X329262Y-40639D01*
X329180Y-40316D01*
X329064Y-40053D01*
X328921Y-39850D01*
X328755Y-39704D01*
X328663Y-39653D01*
X328566Y-39617D01*
X328462Y-39595D01*
X328353Y-39588D01*
X328225Y-39598D01*
X328104Y-39627D01*
X327990Y-39676D01*
X327883Y-39745D01*
X327763Y-39849D01*
X327657Y-39970D01*
X327565Y-40109D01*
X327485Y-40266D01*
X327401Y-40472D01*
X327328Y-40693D01*
X327267Y-40928D01*
X327216Y-41178D01*
X327172Y-41468D01*
X327141Y-41772D01*
X327122Y-42090D01*
X327116Y-42422D01*
X327123Y-42706D01*
X327144Y-42964D01*
X327179Y-43197D01*
X327228Y-43404D01*
X327291Y-43588D01*
X327368Y-43750D01*
X327460Y-43889D01*
X327566Y-44006D01*
X327685Y-44100D01*
X327812Y-44166D01*
X327949Y-44206D01*
X328096Y-44219D01*
G37*
%LPD*%
G36*
X338537Y-45866D02*
X338204Y-45852D01*
X337881Y-45811D01*
X337568Y-45743D01*
X337266Y-45647D01*
X336978Y-45521D01*
X336709Y-45360D01*
X336458Y-45165D01*
X336224Y-44936D01*
X336017Y-44678D01*
X335844Y-44398D01*
X335704Y-44094D01*
X335597Y-43768D01*
X335519Y-43425D01*
X335463Y-43071D01*
X335429Y-42704D01*
X335418Y-42326D01*
X335434Y-41864D01*
X335480Y-41405D01*
X335558Y-40951D01*
X335667Y-40501D01*
X335804Y-40074D01*
X335966Y-39687D01*
X336153Y-39343D01*
X336364Y-39039D01*
X336603Y-38775D01*
X336870Y-38547D01*
X337166Y-38356D01*
X337490Y-38202D01*
X337834Y-38083D01*
X338187Y-37998D01*
X338551Y-37947D01*
X338924Y-37930D01*
X339363Y-37953D01*
X339781Y-38019D01*
X340177Y-38129D01*
X340550Y-38283D01*
X340727Y-38379D01*
X340893Y-38491D01*
X341049Y-38618D01*
X341196Y-38761D01*
X341332Y-38920D01*
X341459Y-39094D01*
X341575Y-39284D01*
X341682Y-39490D01*
X341777Y-39708D01*
X341859Y-39936D01*
X341929Y-40173D01*
X341986Y-40420D01*
X342031Y-40677D01*
X342062Y-40943D01*
X342081Y-41218D01*
X342088Y-41503D01*
X342072Y-41956D01*
X342025Y-42406D01*
X341947Y-42855D01*
X341838Y-43301D01*
X341703Y-43724D01*
X341544Y-44104D01*
X341364Y-44440D01*
X341161Y-44732D01*
X340930Y-44987D01*
X340665Y-45211D01*
X340365Y-45405D01*
X340032Y-45569D01*
X339676Y-45699D01*
X339309Y-45791D01*
X338929Y-45847D01*
X338537Y-45866D01*
G37*
%LPC*%
G36*
X338627Y-44219D02*
X338793Y-44201D01*
X338954Y-44146D01*
X339118Y-44037D01*
X339290Y-43855D01*
X339376Y-43734D01*
X339456Y-43589D01*
X339601Y-43228D01*
X339717Y-42810D01*
X339797Y-42374D01*
X339843Y-41925D01*
X339859Y-41470D01*
X339842Y-41024D01*
X339793Y-40639D01*
X339711Y-40316D01*
X339596Y-40053D01*
X339452Y-39850D01*
X339286Y-39704D01*
X339194Y-39653D01*
X339097Y-39617D01*
X338994Y-39595D01*
X338884Y-39588D01*
X338756Y-39598D01*
X338635Y-39627D01*
X338521Y-39676D01*
X338414Y-39745D01*
X338295Y-39849D01*
X338189Y-39970D01*
X338096Y-40109D01*
X338016Y-40266D01*
X337932Y-40472D01*
X337860Y-40693D01*
X337798Y-40928D01*
X337748Y-41178D01*
X337704Y-41468D01*
X337672Y-41772D01*
X337653Y-42090D01*
X337647Y-42422D01*
X337654Y-42706D01*
X337675Y-42964D01*
X337710Y-43197D01*
X337759Y-43404D01*
X337822Y-43588D01*
X337900Y-43750D01*
X337991Y-43889D01*
X338098Y-44006D01*
X338216Y-44100D01*
X338343Y-44166D01*
X338480Y-44206D01*
X338627Y-44219D01*
G37*
%LPD*%
G36*
X346006Y-45866D02*
X345672Y-45852D01*
X345349Y-45811D01*
X345037Y-45743D01*
X344735Y-45647D01*
X344447Y-45521D01*
X344178Y-45360D01*
X343926Y-45165D01*
X343693Y-44936D01*
X343486Y-44678D01*
X343312Y-44398D01*
X343172Y-44094D01*
X343066Y-43768D01*
X342988Y-43425D01*
X342932Y-43071D01*
X342898Y-42704D01*
X342887Y-42326D01*
X342902Y-41864D01*
X342949Y-41405D01*
X343027Y-40951D01*
X343136Y-40501D01*
X343273Y-40074D01*
X343435Y-39687D01*
X343622Y-39343D01*
X343833Y-39039D01*
X344072Y-38775D01*
X344339Y-38547D01*
X344634Y-38356D01*
X344959Y-38202D01*
X345302Y-38083D01*
X345656Y-37998D01*
X346019Y-37947D01*
X346392Y-37930D01*
X346832Y-37953D01*
X347250Y-38019D01*
X347646Y-38129D01*
X348019Y-38283D01*
X348195Y-38379D01*
X348362Y-38491D01*
X348518Y-38618D01*
X348665Y-38761D01*
X348801Y-38920D01*
X348927Y-39094D01*
X349044Y-39284D01*
X349150Y-39490D01*
X349246Y-39708D01*
X349328Y-39936D01*
X349398Y-40173D01*
X349455Y-40420D01*
X349499Y-40677D01*
X349531Y-40943D01*
X349550Y-41218D01*
X349556Y-41503D01*
X349541Y-41956D01*
X349494Y-42406D01*
X349416Y-42855D01*
X349307Y-43301D01*
X349171Y-43724D01*
X349013Y-44104D01*
X348833Y-44440D01*
X348630Y-44732D01*
X348398Y-44987D01*
X348133Y-45211D01*
X347834Y-45405D01*
X347501Y-45569D01*
X347145Y-45699D01*
X346777Y-45791D01*
X346398Y-45847D01*
X346006Y-45866D01*
G37*
%LPC*%
G36*
X346096Y-44219D02*
X346261Y-44201D01*
X346423Y-44146D01*
X346587Y-44037D01*
X346759Y-43855D01*
X346845Y-43734D01*
X346925Y-43589D01*
X347070Y-43228D01*
X347186Y-42810D01*
X347266Y-42374D01*
X347312Y-41925D01*
X347328Y-41470D01*
X347311Y-41024D01*
X347262Y-40639D01*
X347180Y-40316D01*
X347064Y-40053D01*
X346921Y-39850D01*
X346755Y-39704D01*
X346663Y-39653D01*
X346566Y-39617D01*
X346462Y-39595D01*
X346353Y-39588D01*
X346225Y-39598D01*
X346104Y-39627D01*
X345990Y-39676D01*
X345883Y-39745D01*
X345763Y-39849D01*
X345657Y-39970D01*
X345565Y-40109D01*
X345485Y-40266D01*
X345401Y-40472D01*
X345328Y-40693D01*
X345267Y-40928D01*
X345216Y-41178D01*
X345172Y-41468D01*
X345141Y-41772D01*
X345122Y-42090D01*
X345116Y-42422D01*
X345123Y-42706D01*
X345144Y-42964D01*
X345179Y-43197D01*
X345228Y-43404D01*
X345291Y-43588D01*
X345368Y-43750D01*
X345460Y-43889D01*
X345566Y-44006D01*
X345685Y-44100D01*
X345812Y-44166D01*
X345949Y-44206D01*
X346096Y-44219D01*
G37*
%LPD*%
G36*
X371475Y-45866D02*
X371141Y-45852D01*
X370818Y-45811D01*
X370506Y-45743D01*
X370204Y-45647D01*
X369916Y-45521D01*
X369646Y-45360D01*
X369395Y-45165D01*
X369162Y-44936D01*
X368955Y-44678D01*
X368781Y-44398D01*
X368641Y-44094D01*
X368535Y-43768D01*
X368456Y-43425D01*
X368400Y-43071D01*
X368367Y-42704D01*
X368356Y-42326D01*
X368371Y-41864D01*
X368418Y-41405D01*
X368496Y-40951D01*
X368605Y-40501D01*
X368742Y-40074D01*
X368904Y-39687D01*
X369090Y-39343D01*
X369302Y-39039D01*
X369540Y-38775D01*
X369807Y-38547D01*
X370103Y-38356D01*
X370428Y-38202D01*
X370771Y-38083D01*
X371125Y-37998D01*
X371488Y-37947D01*
X371861Y-37930D01*
X372301Y-37953D01*
X372719Y-38019D01*
X373114Y-38129D01*
X373488Y-38283D01*
X373664Y-38379D01*
X373831Y-38491D01*
X373987Y-38618D01*
X374133Y-38761D01*
X374270Y-38920D01*
X374396Y-39094D01*
X374513Y-39284D01*
X374619Y-39490D01*
X374714Y-39708D01*
X374797Y-39936D01*
X374867Y-40173D01*
X374924Y-40420D01*
X374968Y-40677D01*
X375000Y-40943D01*
X375019Y-41218D01*
X375025Y-41503D01*
X375010Y-41956D01*
X374963Y-42406D01*
X374885Y-42855D01*
X374776Y-43301D01*
X374640Y-43724D01*
X374482Y-44104D01*
X374301Y-44440D01*
X374098Y-44732D01*
X373867Y-44987D01*
X373602Y-45211D01*
X373303Y-45405D01*
X372970Y-45569D01*
X372614Y-45699D01*
X372246Y-45791D01*
X371866Y-45847D01*
X371475Y-45866D01*
G37*
%LPC*%
G36*
X371564Y-44219D02*
X371730Y-44201D01*
X371892Y-44146D01*
X372056Y-44037D01*
X372228Y-43855D01*
X372314Y-43734D01*
X372394Y-43589D01*
X372539Y-43228D01*
X372655Y-42810D01*
X372735Y-42374D01*
X372781Y-41925D01*
X372796Y-41470D01*
X372780Y-41024D01*
X372731Y-40639D01*
X372648Y-40316D01*
X372533Y-40053D01*
X372390Y-39850D01*
X372224Y-39704D01*
X372132Y-39653D01*
X372034Y-39617D01*
X371931Y-39595D01*
X371822Y-39588D01*
X371694Y-39598D01*
X371573Y-39627D01*
X371459Y-39676D01*
X371352Y-39745D01*
X371232Y-39849D01*
X371126Y-39970D01*
X371033Y-40109D01*
X370954Y-40266D01*
X370870Y-40472D01*
X370797Y-40693D01*
X370736Y-40928D01*
X370685Y-41178D01*
X370641Y-41468D01*
X370610Y-41772D01*
X370591Y-42090D01*
X370584Y-42422D01*
X370591Y-42706D01*
X370612Y-42964D01*
X370647Y-43197D01*
X370696Y-43404D01*
X370760Y-43588D01*
X370837Y-43750D01*
X370929Y-43889D01*
X371035Y-44006D01*
X371153Y-44100D01*
X371281Y-44166D01*
X371418Y-44206D01*
X371564Y-44219D01*
G37*
%LPD*%
G36*
X360971Y-45866D02*
X360661Y-45858D01*
X360356Y-45835D01*
X360057Y-45796D01*
X359765Y-45742D01*
X359483Y-45671D01*
X359217Y-45578D01*
X358966Y-45465D01*
X358731Y-45331D01*
X358520Y-45180D01*
X358339Y-45017D01*
X358190Y-44840D01*
X358071Y-44650D01*
X357980Y-44448D01*
X357915Y-44232D01*
X357876Y-44003D01*
X357863Y-43760D01*
X357882Y-43473D01*
X357939Y-43194D01*
X358034Y-42928D01*
X358169Y-42676D01*
X358335Y-42452D01*
X358524Y-42268D01*
X358724Y-42121D01*
X358919Y-42010D01*
X359152Y-41911D01*
X359465Y-41800D01*
X359183Y-41655D01*
X358986Y-41534D01*
X358835Y-41413D01*
X358689Y-41268D01*
X358559Y-41103D01*
X358451Y-40921D01*
X358370Y-40728D01*
X358317Y-40529D01*
X358288Y-40327D01*
X358278Y-40126D01*
X358293Y-39861D01*
X358339Y-39609D01*
X358416Y-39371D01*
X358524Y-39146D01*
X358662Y-38937D01*
X358829Y-38747D01*
X359026Y-38577D01*
X359252Y-38426D01*
X359497Y-38296D01*
X359751Y-38187D01*
X360012Y-38101D01*
X360283Y-38037D01*
X360561Y-37990D01*
X360845Y-37957D01*
X361137Y-37937D01*
X361436Y-37930D01*
X361722Y-37939D01*
X362003Y-37963D01*
X362279Y-38004D01*
X362551Y-38062D01*
X362810Y-38137D01*
X363050Y-38231D01*
X363270Y-38343D01*
X363472Y-38474D01*
X363651Y-38619D01*
X363804Y-38774D01*
X363932Y-38939D01*
X364035Y-39115D01*
X364113Y-39304D01*
X364169Y-39512D01*
X364203Y-39737D01*
X364214Y-39980D01*
X364202Y-40217D01*
X364166Y-40445D01*
X364105Y-40660D01*
X364018Y-40856D01*
X363906Y-41036D01*
X363771Y-41201D01*
X363622Y-41348D01*
X363463Y-41475D01*
X363246Y-41611D01*
X362920Y-41783D01*
X363237Y-41879D01*
X363469Y-41965D01*
X363656Y-42062D01*
X363836Y-42189D01*
X364000Y-42345D01*
X364138Y-42525D01*
X364247Y-42725D01*
X364320Y-42937D01*
X364362Y-43161D01*
X364376Y-43396D01*
X364359Y-43673D01*
X364308Y-43943D01*
X364222Y-44208D01*
X364102Y-44466D01*
X363952Y-44708D01*
X363778Y-44925D01*
X363578Y-45117D01*
X363354Y-45283D01*
X363108Y-45427D01*
X362843Y-45549D01*
X362558Y-45649D01*
X362254Y-45728D01*
X361939Y-45788D01*
X361620Y-45831D01*
X361297Y-45857D01*
X360971Y-45866D01*
G37*
%LPC*%
G36*
X361100Y-44309D02*
X361243Y-44302D01*
X361378Y-44281D01*
X361507Y-44246D01*
X361629Y-44197D01*
X361742Y-44134D01*
X361843Y-44058D01*
X361931Y-43967D01*
X362007Y-43864D01*
X362069Y-43749D01*
X362112Y-43626D01*
X362139Y-43496D01*
X362147Y-43357D01*
X362131Y-43177D01*
X362082Y-43018D01*
X362001Y-42880D01*
X361887Y-42763D01*
X361744Y-42670D01*
X361576Y-42604D01*
X361382Y-42564D01*
X361162Y-42550D01*
X360924Y-42566D01*
X360713Y-42614D01*
X360530Y-42694D01*
X360375Y-42805D01*
X360251Y-42942D01*
X360163Y-43097D01*
X360110Y-43271D01*
X360092Y-43463D01*
X360100Y-43579D01*
X360124Y-43690D01*
X360163Y-43797D01*
X360218Y-43900D01*
X360288Y-43995D01*
X360372Y-44077D01*
X360470Y-44147D01*
X360582Y-44205D01*
X360831Y-44283D01*
X360963Y-44302D01*
X361100Y-44309D01*
G37*
G36*
X361207Y-41072D02*
X361403Y-41057D01*
X361582Y-41013D01*
X361744Y-40938D01*
X361890Y-40834D01*
X362010Y-40706D01*
X362096Y-40560D01*
X362147Y-40397D01*
X362164Y-40215D01*
X362150Y-40056D01*
X362106Y-39913D01*
X362034Y-39787D01*
X361932Y-39678D01*
X361805Y-39589D01*
X361658Y-39526D01*
X361490Y-39489D01*
X361302Y-39476D01*
X361092Y-39491D01*
X360906Y-39538D01*
X360742Y-39615D01*
X360602Y-39722D01*
X360489Y-39853D01*
X360409Y-39997D01*
X360360Y-40155D01*
X360344Y-40327D01*
X360351Y-40432D01*
X360372Y-40532D01*
X360407Y-40609D01*
X360456Y-40719D01*
X360591Y-40875D01*
X360770Y-40985D01*
X360980Y-41050D01*
X361207Y-41072D01*
G37*
%LPD*%
G36*
X355742Y-45720D02*
X354595Y-45709D01*
X353374Y-45720D01*
X353465Y-44662D01*
X353522Y-43771D01*
X352911Y-43777D01*
X352452Y-43777D01*
X350344Y-43810D01*
X350361Y-43637D01*
X350378Y-43273D01*
X350423Y-42209D01*
X350428Y-41901D01*
X351043Y-41127D01*
X351746Y-40184D01*
X352476Y-39144D01*
X353170Y-38076D01*
X354722Y-38087D01*
X356056Y-38076D01*
X355972Y-39250D01*
X355909Y-40397D01*
X355869Y-41393D01*
X355851Y-42114D01*
X356483Y-42125D01*
X356813Y-42122D01*
X357031Y-42108D01*
X357008Y-43525D01*
X357008Y-43788D01*
X356593Y-43771D01*
X356019Y-43766D01*
X355789Y-43771D01*
X355754Y-44530D01*
X355742Y-45720D01*
G37*
%LPC*%
G36*
X353841Y-42198D02*
X353962Y-39670D01*
X353355Y-40589D01*
X353013Y-41077D01*
X352198Y-42198D01*
X353841Y-42198D01*
G37*
%LPD*%
G36*
X313164Y-45866D02*
X312674Y-45844D01*
X312217Y-45781D01*
X311793Y-45675D01*
X311402Y-45527D01*
X311054Y-45342D01*
X310757Y-45125D01*
X310511Y-44877D01*
X310316Y-44597D01*
X310168Y-44294D01*
X310062Y-43976D01*
X309998Y-43643D01*
X309977Y-43295D01*
X310000Y-42867D01*
X310070Y-42399D01*
X310130Y-42144D01*
X310218Y-41865D01*
X310334Y-41563D01*
X310478Y-41237D01*
X310854Y-40511D01*
X311346Y-39683D01*
X311903Y-38842D01*
X312469Y-38076D01*
X315336Y-38076D01*
X314207Y-39403D01*
X313822Y-39909D01*
X313461Y-40431D01*
X313141Y-40941D01*
X312880Y-41414D01*
X312665Y-41863D01*
X312486Y-42304D01*
X312404Y-42553D01*
X312349Y-42786D01*
X312317Y-43003D01*
X312307Y-43206D01*
X312314Y-43336D01*
X312333Y-43463D01*
X312413Y-43710D01*
X312473Y-43824D01*
X312546Y-43925D01*
X312632Y-44014D01*
X312731Y-44090D01*
X312843Y-44152D01*
X312964Y-44195D01*
X313097Y-44222D01*
X313239Y-44230D01*
X313375Y-44222D01*
X313502Y-44198D01*
X313622Y-44156D01*
X313733Y-44099D01*
X313834Y-44027D01*
X313921Y-43942D01*
X313995Y-43845D01*
X314054Y-43735D01*
X314134Y-43496D01*
X314154Y-43372D01*
X314160Y-43245D01*
X314140Y-43033D01*
X314079Y-42853D01*
X313976Y-42703D01*
X313833Y-42584D01*
X313669Y-42493D01*
X313506Y-42429D01*
X313343Y-42390D01*
X313180Y-42377D01*
X312878Y-42405D01*
X313360Y-41604D01*
X313813Y-40842D01*
X314097Y-40805D01*
X314368Y-40792D01*
X314681Y-40808D01*
X314979Y-40855D01*
X315260Y-40934D01*
X315524Y-41044D01*
X315765Y-41187D01*
X315974Y-41365D01*
X316152Y-41578D01*
X316300Y-41825D01*
X316415Y-42097D01*
X316497Y-42385D01*
X316546Y-42687D01*
X316563Y-43004D01*
X316555Y-43218D01*
X316533Y-43428D01*
X316495Y-43634D01*
X316442Y-43836D01*
X316296Y-44221D01*
X316098Y-44575D01*
X315847Y-44895D01*
X315541Y-45180D01*
X315196Y-45414D01*
X315016Y-45508D01*
X314830Y-45586D01*
X314440Y-45708D01*
X314026Y-45796D01*
X313598Y-45848D01*
X313164Y-45866D01*
G37*
G36*
X381844Y-45720D02*
X378927Y-45709D01*
X375819Y-45720D01*
X375855Y-45023D01*
X375891Y-44137D01*
X376450Y-43667D01*
X376961Y-43212D01*
X377706Y-42507D01*
X378361Y-41846D01*
X378809Y-41357D01*
X379179Y-40910D01*
X379337Y-40679D01*
X379431Y-40490D01*
X379464Y-40371D01*
X379475Y-40249D01*
X379457Y-40097D01*
X379403Y-39966D01*
X379309Y-39855D01*
X379173Y-39762D01*
X378999Y-39686D01*
X378792Y-39627D01*
X378553Y-39589D01*
X378283Y-39577D01*
X377880Y-39594D01*
X377457Y-39644D01*
X376944Y-39742D01*
X376272Y-39902D01*
X376418Y-39101D01*
X376563Y-38177D01*
X377288Y-38069D01*
X377990Y-37992D01*
X378669Y-37946D01*
X379324Y-37930D01*
X379615Y-37937D01*
X379900Y-37957D01*
X380178Y-37990D01*
X380450Y-38037D01*
X380712Y-38099D01*
X380959Y-38180D01*
X381193Y-38280D01*
X381413Y-38398D01*
X381613Y-38531D01*
X381785Y-38674D01*
X381932Y-38828D01*
X382051Y-38992D01*
X382145Y-39164D01*
X382211Y-39344D01*
X382251Y-39530D01*
X382264Y-39722D01*
X382249Y-39979D01*
X382203Y-40232D01*
X382114Y-40494D01*
X381973Y-40798D01*
X381735Y-41198D01*
X381447Y-41593D01*
X380945Y-42191D01*
X380371Y-42808D01*
X379730Y-43438D01*
X378971Y-44141D01*
X379587Y-44146D01*
X380453Y-44135D01*
X381351Y-44113D01*
X381973Y-44062D01*
X381920Y-44734D01*
X381844Y-45720D01*
G37*
G36*
X391517Y-45720D02*
X390358Y-45709D01*
X389037Y-45720D01*
X389119Y-44585D01*
X389220Y-42914D01*
X389308Y-41253D01*
X389348Y-40142D01*
X388946Y-40397D01*
X388096Y-40994D01*
X388158Y-39876D01*
X388185Y-38933D01*
X388831Y-38546D01*
X389272Y-38264D01*
X389515Y-38076D01*
X390665Y-38087D01*
X391926Y-38076D01*
X391814Y-39325D01*
X391573Y-43469D01*
X391517Y-44992D01*
X391517Y-45720D01*
G37*
G36*
X334909Y-43525D02*
X333403Y-43508D01*
X331902Y-43525D01*
X331957Y-42728D01*
X331986Y-41968D01*
X333487Y-41990D01*
X334993Y-41968D01*
X334939Y-42720D01*
X334909Y-43525D01*
G37*
G36*
X367847Y-43525D02*
X366340Y-43508D01*
X364839Y-43525D01*
X364894Y-42728D01*
X364923Y-41968D01*
X366424Y-41990D01*
X367931Y-41968D01*
X367876Y-42720D01*
X367847Y-43525D01*
G37*
G36*
X385511Y-45720D02*
X384536Y-45709D01*
X383405Y-45720D01*
X383447Y-44838D01*
X383483Y-43693D01*
X384637Y-43710D01*
X385611Y-43693D01*
X385564Y-44505D01*
X385511Y-45720D01*
G37*
G36*
X98738Y36000D02*
X94823Y36000D01*
X94823Y36533D01*
X94936Y36771D01*
X95060Y36995D01*
X95197Y37204D01*
X95345Y37399D01*
X95661Y37757D01*
X95993Y38079D01*
X96667Y38644D01*
X96984Y38904D01*
X97269Y39164D01*
X97512Y39430D01*
X97703Y39709D01*
X97776Y39857D01*
X97828Y40014D01*
X97859Y40180D01*
X97869Y40356D01*
X97851Y40585D01*
X97798Y40788D01*
X97709Y40963D01*
X97584Y41111D01*
X97427Y41228D01*
X97243Y41312D01*
X97031Y41363D01*
X96791Y41379D01*
X96560Y41363D01*
X96351Y41314D01*
X96162Y41232D01*
X95996Y41117D01*
X95855Y40973D01*
X95747Y40802D01*
X95672Y40605D01*
X95628Y40381D01*
X94856Y40452D01*
X94884Y40625D01*
X94925Y40789D01*
X94980Y40943D01*
X95049Y41089D01*
X95131Y41225D01*
X95226Y41353D01*
X95458Y41581D01*
X95736Y41764D01*
X95889Y41837D01*
X96051Y41896D01*
X96222Y41942D01*
X96402Y41974D01*
X96592Y41994D01*
X96791Y42001D01*
X97008Y41994D01*
X97212Y41974D01*
X97403Y41941D01*
X97581Y41895D01*
X97746Y41836D01*
X97899Y41763D01*
X98038Y41678D01*
X98165Y41579D01*
X98278Y41468D01*
X98375Y41346D01*
X98458Y41213D01*
X98525Y41068D01*
X98578Y40913D01*
X98615Y40747D01*
X98638Y40569D01*
X98645Y40381D01*
X98636Y40209D01*
X98606Y40038D01*
X98557Y39867D01*
X98488Y39697D01*
X98400Y39527D01*
X98292Y39357D01*
X98020Y39017D01*
X97568Y38584D01*
X96833Y37964D01*
X96399Y37589D01*
X96065Y37253D01*
X95819Y36942D01*
X95726Y36790D01*
X95654Y36642D01*
X98738Y36642D01*
X98738Y36000D01*
G37*
G36*
X91996Y35916D02*
X91813Y35922D01*
X91639Y35940D01*
X91321Y36013D01*
X91041Y36134D01*
X90799Y36304D01*
X90595Y36523D01*
X90429Y36789D01*
X90302Y37105D01*
X90212Y37469D01*
X90997Y37599D01*
X91047Y37369D01*
X91120Y37165D01*
X91216Y36989D01*
X91337Y36839D01*
X91477Y36720D01*
X91635Y36635D01*
X91809Y36584D01*
X92000Y36566D01*
X92207Y36585D01*
X92390Y36641D01*
X92551Y36735D01*
X92688Y36867D01*
X92798Y37034D01*
X92877Y37236D01*
X92924Y37474D01*
X92940Y37746D01*
X92940Y41258D01*
X91803Y41258D01*
X91803Y41912D01*
X93737Y41912D01*
X93737Y37762D01*
X93730Y37553D01*
X93708Y37355D01*
X93672Y37169D01*
X93621Y36994D01*
X93555Y36831D01*
X93475Y36679D01*
X93380Y36538D01*
X93271Y36409D01*
X93149Y36294D01*
X93017Y36193D01*
X92874Y36109D01*
X92719Y36039D01*
X92555Y35985D01*
X92379Y35947D01*
X92193Y35924D01*
X91996Y35916D01*
G37*
G36*
X582923Y-42180D02*
X582704Y-42174D01*
X582496Y-42155D01*
X582300Y-42123D01*
X582116Y-42079D01*
X581942Y-42022D01*
X581780Y-41952D01*
X581629Y-41870D01*
X581490Y-41775D01*
X581363Y-41668D01*
X581249Y-41548D01*
X581150Y-41417D01*
X581063Y-41273D01*
X580991Y-41117D01*
X580932Y-40949D01*
X580886Y-40769D01*
X580854Y-40577D01*
X581635Y-40506D01*
X581688Y-40752D01*
X581772Y-40965D01*
X581887Y-41145D01*
X582032Y-41292D01*
X582209Y-41407D01*
X582416Y-41489D01*
X582654Y-41538D01*
X582923Y-41555D01*
X583193Y-41537D01*
X583432Y-41484D01*
X583641Y-41397D01*
X583819Y-41274D01*
X583961Y-41116D01*
X584063Y-40924D01*
X584124Y-40698D01*
X584144Y-40439D01*
X584121Y-40211D01*
X584051Y-40009D01*
X583935Y-39834D01*
X583772Y-39685D01*
X583566Y-39567D01*
X583319Y-39482D01*
X583030Y-39432D01*
X582700Y-39415D01*
X582272Y-39415D01*
X582272Y-38760D01*
X582684Y-38760D01*
X582977Y-38743D01*
X583235Y-38692D01*
X583458Y-38608D01*
X583647Y-38489D01*
X583796Y-38341D01*
X583903Y-38167D01*
X583967Y-37967D01*
X583989Y-37740D01*
X583971Y-37516D01*
X583919Y-37316D01*
X583832Y-37141D01*
X583710Y-36991D01*
X583553Y-36871D01*
X583363Y-36785D01*
X583139Y-36734D01*
X582881Y-36717D01*
X582643Y-36733D01*
X582429Y-36781D01*
X582239Y-36861D01*
X582073Y-36973D01*
X581935Y-37114D01*
X581829Y-37281D01*
X581756Y-37474D01*
X581714Y-37694D01*
X580955Y-37636D01*
X580983Y-37459D01*
X581024Y-37292D01*
X581079Y-37136D01*
X581147Y-36989D01*
X581229Y-36853D01*
X581325Y-36726D01*
X581434Y-36609D01*
X581557Y-36503D01*
X581835Y-36324D01*
X581987Y-36255D01*
X582149Y-36197D01*
X582320Y-36153D01*
X582501Y-36121D01*
X582690Y-36102D01*
X582889Y-36096D01*
X583105Y-36102D01*
X583309Y-36121D01*
X583501Y-36154D01*
X583680Y-36199D01*
X583846Y-36257D01*
X584001Y-36328D01*
X584142Y-36412D01*
X584272Y-36509D01*
X584387Y-36617D01*
X584488Y-36736D01*
X584572Y-36865D01*
X584642Y-37003D01*
X584696Y-37153D01*
X584734Y-37312D01*
X584757Y-37481D01*
X584765Y-37661D01*
X584745Y-37931D01*
X584686Y-38174D01*
X584587Y-38391D01*
X584448Y-38582D01*
X584272Y-38745D01*
X584059Y-38879D01*
X583811Y-38985D01*
X583527Y-39062D01*
X583527Y-39079D01*
X583840Y-39134D01*
X584117Y-39226D01*
X584356Y-39356D01*
X584559Y-39524D01*
X584721Y-39723D01*
X584836Y-39945D01*
X584905Y-40193D01*
X584929Y-40464D01*
X584920Y-40663D01*
X584896Y-40850D01*
X584855Y-41025D01*
X584798Y-41190D01*
X584725Y-41342D01*
X584636Y-41483D01*
X584530Y-41613D01*
X584408Y-41731D01*
X584271Y-41836D01*
X584120Y-41927D01*
X583955Y-42005D01*
X583777Y-42068D01*
X583584Y-42117D01*
X583378Y-42152D01*
X583157Y-42173D01*
X582923Y-42180D01*
G37*
G36*
X578132Y-42180D02*
X577949Y-42174D01*
X577775Y-42156D01*
X577457Y-42083D01*
X577177Y-41962D01*
X576935Y-41792D01*
X576731Y-41573D01*
X576565Y-41307D01*
X576438Y-40991D01*
X576349Y-40627D01*
X577133Y-40497D01*
X577183Y-40727D01*
X577256Y-40931D01*
X577353Y-41107D01*
X577473Y-41257D01*
X577614Y-41376D01*
X577771Y-41461D01*
X577945Y-41513D01*
X578136Y-41530D01*
X578343Y-41511D01*
X578526Y-41455D01*
X578687Y-41361D01*
X578824Y-41230D01*
X578934Y-41062D01*
X579013Y-40860D01*
X579060Y-40623D01*
X579076Y-40350D01*
X579076Y-36838D01*
X577939Y-36838D01*
X577939Y-36184D01*
X579873Y-36184D01*
X579873Y-40334D01*
X579866Y-40543D01*
X579844Y-40741D01*
X579808Y-40927D01*
X579757Y-41102D01*
X579691Y-41265D01*
X579611Y-41417D01*
X579517Y-41558D01*
X579408Y-41687D01*
X579286Y-41802D01*
X579153Y-41903D01*
X579010Y-41987D01*
X578856Y-42057D01*
X578691Y-42111D01*
X578515Y-42149D01*
X578329Y-42172D01*
X578132Y-42180D01*
G37*
G36*
X78852Y23888D02*
X78068Y23888D01*
X72748Y27500D01*
X72748Y28559D01*
X78056Y28559D01*
X78056Y29667D01*
X78852Y29667D01*
X78852Y28559D01*
X80638Y28559D01*
X80638Y27607D01*
X78852Y27607D01*
X78852Y23888D01*
G37*
%LPC*%
G36*
X78056Y24818D02*
X78056Y27607D01*
X73884Y27607D01*
X74181Y27450D01*
X74551Y27231D01*
X77530Y25210D01*
X77944Y24907D01*
X78056Y24818D01*
G37*
%LPD*%
G36*
X78678Y18054D02*
X78504Y19101D01*
X78811Y19168D01*
X79083Y19265D01*
X79318Y19394D01*
X79518Y19555D01*
X79677Y19743D01*
X79791Y19953D01*
X79859Y20185D01*
X79882Y20440D01*
X79876Y20582D01*
X79857Y20716D01*
X79782Y20961D01*
X79657Y21175D01*
X79482Y21358D01*
X79258Y21505D01*
X78988Y21610D01*
X78672Y21673D01*
X78308Y21694D01*
X73621Y21694D01*
X73621Y20177D01*
X72748Y20177D01*
X72748Y22758D01*
X78286Y22758D01*
X78565Y22748D01*
X78829Y22719D01*
X79078Y22671D01*
X79312Y22603D01*
X79530Y22515D01*
X79732Y22409D01*
X79920Y22282D01*
X80092Y22137D01*
X80246Y21974D01*
X80380Y21797D01*
X80493Y21606D01*
X80586Y21400D01*
X80657Y21180D01*
X80709Y20946D01*
X80740Y20697D01*
X80750Y20434D01*
X80742Y20190D01*
X80718Y19958D01*
X80677Y19740D01*
X80621Y19534D01*
X80548Y19340D01*
X80459Y19160D01*
X80353Y18992D01*
X80232Y18837D01*
X80094Y18694D01*
X79941Y18565D01*
X79771Y18448D01*
X79585Y18344D01*
X79382Y18252D01*
X79164Y18173D01*
X78929Y18107D01*
X78678Y18054D01*
G37*
D10*
X89478Y31750D02*
X245178Y31750D01*
X245178Y-31750D01*
X89478Y-31750D01*
X89478Y31750D01*
X437828Y-31750D02*
X593528Y-31750D01*
X437828Y-31750D02*
X437828Y31750D01*
X593528Y31750D01*
X593528Y-31750D01*
D11*
X-9490Y-44700D02*
X-9490Y44700D01*
X67510Y44700D01*
X67510Y-44700D01*
X-9490Y-44700D01*
D12*
X71267Y38000D02*
X71269Y38130D01*
X71275Y38260D01*
X71285Y38390D01*
X71299Y38519D01*
X71317Y38648D01*
X71339Y38776D01*
X71364Y38903D01*
X71394Y39030D01*
X71427Y39156D01*
X71465Y39280D01*
X71506Y39404D01*
X71551Y39526D01*
X71599Y39646D01*
X71652Y39765D01*
X71708Y39883D01*
X71767Y39998D01*
X71830Y40112D01*
X71897Y40224D01*
X71966Y40334D01*
X72040Y40441D01*
X72116Y40546D01*
X72196Y40649D01*
X72278Y40749D01*
X72364Y40847D01*
X72453Y40942D01*
X72544Y41035D01*
X72639Y41124D01*
X72736Y41211D01*
X72836Y41294D01*
X72938Y41374D01*
X73042Y41452D01*
X73149Y41526D01*
X73258Y41596D01*
X73370Y41664D01*
X73483Y41728D01*
X73598Y41788D01*
X73715Y41845D01*
X73834Y41898D01*
X73954Y41947D01*
X74076Y41993D01*
X74199Y42035D01*
X74323Y42074D01*
X74449Y42108D01*
X74575Y42139D01*
X74702Y42165D01*
X74830Y42188D01*
X74959Y42207D01*
X75088Y42222D01*
X75218Y42233D01*
X75347Y42240D01*
X75477Y42243D01*
X75608Y42242D01*
X75737Y42237D01*
X75867Y42228D01*
X75997Y42215D01*
X76126Y42198D01*
X76254Y42177D01*
X76382Y42153D01*
X76508Y42124D01*
X76634Y42091D01*
X76759Y42055D01*
X76883Y42015D01*
X77005Y41971D01*
X77126Y41923D01*
X77246Y41872D01*
X77364Y41817D01*
X77480Y41758D01*
X77594Y41696D01*
X77706Y41630D01*
X77816Y41561D01*
X77924Y41489D01*
X78030Y41413D01*
X78134Y41335D01*
X78235Y41253D01*
X78333Y41168D01*
X78429Y41080D01*
X78522Y40989D01*
X78612Y40895D01*
X78699Y40799D01*
X78783Y40700D01*
X78865Y40598D01*
X78943Y40494D01*
X79017Y40388D01*
X79089Y40279D01*
X79157Y40168D01*
X79222Y40055D01*
X79283Y39941D01*
X79341Y39824D01*
X79395Y39706D01*
X79445Y39586D01*
X79492Y39465D01*
X79535Y39342D01*
X79574Y39218D01*
X79610Y39093D01*
X79641Y38967D01*
X79669Y38840D01*
X79693Y38712D01*
X79713Y38583D01*
X79729Y38454D01*
X79741Y38325D01*
X79749Y38195D01*
X79753Y38065D01*
X79753Y37935D01*
X79749Y37805D01*
X79741Y37675D01*
X79729Y37546D01*
X79713Y37417D01*
X79693Y37288D01*
X79669Y37160D01*
X79641Y37033D01*
X79610Y36907D01*
X79574Y36782D01*
X79535Y36658D01*
X79492Y36535D01*
X79445Y36414D01*
X79395Y36294D01*
X79341Y36176D01*
X79283Y36059D01*
X79222Y35945D01*
X79157Y35832D01*
X79089Y35721D01*
X79017Y35612D01*
X78943Y35506D01*
X78865Y35402D01*
X78783Y35300D01*
X78699Y35201D01*
X78612Y35105D01*
X78522Y35011D01*
X78429Y34920D01*
X78333Y34832D01*
X78235Y34747D01*
X78134Y34665D01*
X78030Y34587D01*
X77924Y34511D01*
X77816Y34439D01*
X77706Y34370D01*
X77594Y34304D01*
X77480Y34242D01*
X77364Y34183D01*
X77246Y34128D01*
X77126Y34077D01*
X77005Y34029D01*
X76883Y33985D01*
X76759Y33945D01*
X76634Y33909D01*
X76508Y33876D01*
X76382Y33847D01*
X76254Y33823D01*
X76126Y33802D01*
X75997Y33785D01*
X75867Y33772D01*
X75737Y33763D01*
X75608Y33758D01*
X75477Y33757D01*
X75347Y33760D01*
X75218Y33767D01*
X75088Y33778D01*
X74959Y33793D01*
X74830Y33812D01*
X74702Y33835D01*
X74575Y33861D01*
X74449Y33892D01*
X74323Y33926D01*
X74199Y33965D01*
X74076Y34007D01*
X73954Y34053D01*
X73834Y34102D01*
X73715Y34155D01*
X73598Y34212D01*
X73483Y34272D01*
X73370Y34336D01*
X73258Y34404D01*
X73149Y34474D01*
X73042Y34548D01*
X72938Y34626D01*
X72836Y34706D01*
X72736Y34789D01*
X72639Y34876D01*
X72544Y34965D01*
X72453Y35058D01*
X72364Y35153D01*
X72278Y35251D01*
X72196Y35351D01*
X72116Y35454D01*
X72040Y35559D01*
X71966Y35666D01*
X71897Y35776D01*
X71830Y35888D01*
X71767Y36002D01*
X71708Y36117D01*
X71652Y36235D01*
X71599Y36354D01*
X71551Y36474D01*
X71506Y36596D01*
X71465Y36720D01*
X71427Y36844D01*
X71394Y36970D01*
X71364Y37097D01*
X71339Y37224D01*
X71317Y37352D01*
X71299Y37481D01*
X71285Y37610D01*
X71275Y37740D01*
X71269Y37870D01*
X71267Y38000D01*
M02*
