G04 EAGLE Gerber RS-274X export*
G75*
%MOMM*%
%FSLAX34Y34*%
%LPD*%
%INSilkscreen Bottom*%
%IPPOS*%
%AMOC8*
5,1,8,0,0,1.08239X$1,22.5*%
G01*
G04 Define Apertures*
%ADD10C,0.254000*%
%ADD11C,0.152400*%
%ADD12C,0.100000*%
%ADD13C,0.127000*%
%ADD14C,0.200000*%
G36*
X632871Y-29983D02*
X625475Y-29983D01*
X625475Y-27217D01*
X625482Y-26953D01*
X625504Y-26697D01*
X625539Y-26449D01*
X625589Y-26209D01*
X625653Y-25977D01*
X625732Y-25752D01*
X625825Y-25536D01*
X625932Y-25327D01*
X626052Y-25128D01*
X626185Y-24941D01*
X626331Y-24766D01*
X626489Y-24602D01*
X626659Y-24449D01*
X626843Y-24309D01*
X627038Y-24180D01*
X627247Y-24062D01*
X627466Y-23958D01*
X627694Y-23867D01*
X627930Y-23790D01*
X628176Y-23728D01*
X628431Y-23679D01*
X628695Y-23644D01*
X628967Y-23623D01*
X629249Y-23616D01*
X629671Y-23632D01*
X630068Y-23680D01*
X630440Y-23760D01*
X630788Y-23871D01*
X631110Y-24015D01*
X631408Y-24190D01*
X631681Y-24398D01*
X631929Y-24637D01*
X632150Y-24906D01*
X632341Y-25201D01*
X632503Y-25523D01*
X632635Y-25873D01*
X632738Y-26248D01*
X632812Y-26651D01*
X632856Y-27081D01*
X632871Y-27537D01*
X632871Y-29983D01*
G37*
%LPC*%
G36*
X632068Y-28981D02*
X632068Y-27558D01*
X632056Y-27212D01*
X632023Y-26886D01*
X631966Y-26582D01*
X631887Y-26299D01*
X631786Y-26037D01*
X631662Y-25796D01*
X631515Y-25576D01*
X631346Y-25377D01*
X631155Y-25201D01*
X630944Y-25048D01*
X630713Y-24918D01*
X630461Y-24812D01*
X630189Y-24730D01*
X629896Y-24671D01*
X629583Y-24636D01*
X629249Y-24624D01*
X628807Y-24645D01*
X628396Y-24707D01*
X628015Y-24810D01*
X627664Y-24955D01*
X627348Y-25138D01*
X627071Y-25357D01*
X626833Y-25612D01*
X626635Y-25902D01*
X626479Y-26223D01*
X626367Y-26568D01*
X626300Y-26938D01*
X626278Y-27332D01*
X626278Y-28981D01*
X632068Y-28981D01*
G37*
%LPD*%
G36*
X644301Y-29983D02*
X636905Y-29983D01*
X636905Y-27217D01*
X636912Y-26953D01*
X636934Y-26697D01*
X636969Y-26449D01*
X637019Y-26209D01*
X637083Y-25977D01*
X637162Y-25752D01*
X637255Y-25536D01*
X637362Y-25327D01*
X637482Y-25128D01*
X637615Y-24941D01*
X637761Y-24766D01*
X637919Y-24602D01*
X638089Y-24449D01*
X638273Y-24309D01*
X638468Y-24180D01*
X638677Y-24062D01*
X638896Y-23958D01*
X639124Y-23867D01*
X639360Y-23790D01*
X639606Y-23728D01*
X639861Y-23679D01*
X640125Y-23644D01*
X640397Y-23623D01*
X640679Y-23616D01*
X641101Y-23632D01*
X641498Y-23680D01*
X641870Y-23760D01*
X642218Y-23871D01*
X642540Y-24015D01*
X642838Y-24190D01*
X643111Y-24398D01*
X643359Y-24637D01*
X643580Y-24906D01*
X643771Y-25201D01*
X643933Y-25523D01*
X644065Y-25873D01*
X644168Y-26248D01*
X644242Y-26651D01*
X644286Y-27081D01*
X644301Y-27537D01*
X644301Y-29983D01*
G37*
%LPC*%
G36*
X643498Y-28981D02*
X643498Y-27558D01*
X643486Y-27212D01*
X643453Y-26886D01*
X643396Y-26582D01*
X643317Y-26299D01*
X643216Y-26037D01*
X643092Y-25796D01*
X642945Y-25576D01*
X642776Y-25377D01*
X642585Y-25201D01*
X642374Y-25048D01*
X642143Y-24918D01*
X641891Y-24812D01*
X641619Y-24730D01*
X641326Y-24671D01*
X641013Y-24636D01*
X640679Y-24624D01*
X640237Y-24645D01*
X639826Y-24707D01*
X639445Y-24810D01*
X639094Y-24955D01*
X638778Y-25138D01*
X638501Y-25357D01*
X638263Y-25612D01*
X638065Y-25902D01*
X637909Y-26223D01*
X637797Y-26568D01*
X637730Y-26938D01*
X637708Y-27332D01*
X637708Y-28981D01*
X643498Y-28981D01*
G37*
%LPD*%
G36*
X610011Y-38952D02*
X602615Y-38952D01*
X602615Y-35950D01*
X602624Y-35638D01*
X602649Y-35344D01*
X602692Y-35068D01*
X602752Y-34809D01*
X602829Y-34568D01*
X602924Y-34344D01*
X603035Y-34138D01*
X603164Y-33950D01*
X603308Y-33781D01*
X603465Y-33635D01*
X603637Y-33511D01*
X603822Y-33410D01*
X604020Y-33332D01*
X604233Y-33275D01*
X604459Y-33242D01*
X604699Y-33231D01*
X604880Y-33238D01*
X605053Y-33260D01*
X605218Y-33298D01*
X605375Y-33350D01*
X605525Y-33417D01*
X605666Y-33499D01*
X605799Y-33596D01*
X605925Y-33708D01*
X605987Y-33776D01*
X606040Y-33834D01*
X606143Y-33972D01*
X606235Y-34123D01*
X606315Y-34287D01*
X606383Y-34463D01*
X606439Y-34652D01*
X606483Y-34854D01*
X606515Y-35068D01*
X606610Y-34751D01*
X606741Y-34472D01*
X606909Y-34231D01*
X606955Y-34186D01*
X607113Y-34028D01*
X607350Y-33868D01*
X607612Y-33753D01*
X607901Y-33684D01*
X608216Y-33661D01*
X608433Y-33671D01*
X608636Y-33702D01*
X608826Y-33752D01*
X609001Y-33824D01*
X609162Y-33915D01*
X609310Y-34027D01*
X609443Y-34159D01*
X609562Y-34312D01*
X609667Y-34485D01*
X609758Y-34678D01*
X609836Y-34891D01*
X609899Y-35125D01*
X609948Y-35380D01*
X609983Y-35654D01*
X610004Y-35949D01*
X610011Y-36264D01*
X610011Y-38952D01*
G37*
%LPC*%
G36*
X606085Y-37949D02*
X606085Y-36081D01*
X606064Y-35650D01*
X606003Y-35277D01*
X605901Y-34961D01*
X605758Y-34703D01*
X605671Y-34595D01*
X605574Y-34502D01*
X605467Y-34423D01*
X605349Y-34358D01*
X605222Y-34308D01*
X605084Y-34272D01*
X604936Y-34251D01*
X604778Y-34244D01*
X604614Y-34250D01*
X604460Y-34270D01*
X604317Y-34303D01*
X604184Y-34349D01*
X604062Y-34408D01*
X603951Y-34480D01*
X603850Y-34565D01*
X603759Y-34663D01*
X603679Y-34776D01*
X603610Y-34905D01*
X603551Y-35049D01*
X603503Y-35208D01*
X603439Y-35574D01*
X603418Y-36002D01*
X603418Y-37949D01*
X606085Y-37949D01*
G37*
G36*
X609208Y-37949D02*
X609208Y-36264D01*
X609192Y-35899D01*
X609143Y-35579D01*
X609063Y-35306D01*
X608951Y-35078D01*
X608801Y-34899D01*
X608710Y-34829D01*
X608608Y-34771D01*
X608496Y-34726D01*
X608373Y-34694D01*
X608239Y-34675D01*
X608095Y-34669D01*
X607944Y-34675D01*
X607803Y-34694D01*
X607672Y-34724D01*
X607551Y-34768D01*
X607340Y-34892D01*
X607169Y-35065D01*
X607036Y-35289D01*
X606942Y-35563D01*
X606886Y-35888D01*
X606867Y-36264D01*
X606867Y-37949D01*
X609208Y-37949D01*
G37*
%LPD*%
G36*
X602615Y-32657D02*
X602615Y-31617D01*
X604778Y-30767D01*
X604778Y-27397D01*
X602615Y-26552D01*
X602615Y-25528D01*
X610011Y-28499D01*
X610011Y-29638D01*
X602615Y-32657D01*
G37*
%LPC*%
G36*
X605560Y-30462D02*
X607990Y-29518D01*
X608611Y-29292D01*
X609108Y-29129D01*
X609255Y-29082D01*
X608819Y-28940D01*
X608386Y-28793D01*
X608000Y-28646D01*
X605560Y-27696D01*
X605560Y-30462D01*
G37*
%LPD*%
G36*
X632871Y-37733D02*
X625475Y-37733D01*
X625475Y-36841D01*
X630388Y-36841D01*
X631265Y-36867D01*
X631774Y-36893D01*
X625475Y-32936D01*
X625475Y-31728D01*
X632871Y-31728D01*
X632871Y-32631D01*
X628021Y-32631D01*
X627417Y-32615D01*
X626530Y-32568D01*
X632871Y-36568D01*
X632871Y-37733D01*
G37*
G36*
X644301Y-37733D02*
X636905Y-37733D01*
X636905Y-36841D01*
X641818Y-36841D01*
X642695Y-36867D01*
X643204Y-36893D01*
X636905Y-32936D01*
X636905Y-31728D01*
X644301Y-31728D01*
X644301Y-32631D01*
X639451Y-32631D01*
X638847Y-32615D01*
X637960Y-32568D01*
X644301Y-36568D01*
X644301Y-37733D01*
G37*
G36*
X629207Y-46449D02*
X628918Y-46442D01*
X628638Y-46422D01*
X628368Y-46387D01*
X628108Y-46338D01*
X627857Y-46276D01*
X627616Y-46200D01*
X627385Y-46110D01*
X627163Y-46006D01*
X626952Y-45889D01*
X626754Y-45759D01*
X626568Y-45617D01*
X626396Y-45463D01*
X626236Y-45297D01*
X626088Y-45118D01*
X625954Y-44926D01*
X625832Y-44722D01*
X625724Y-44507D01*
X625630Y-44283D01*
X625550Y-44048D01*
X625485Y-43803D01*
X625435Y-43548D01*
X625399Y-43283D01*
X625377Y-43008D01*
X625370Y-42723D01*
X625391Y-42233D01*
X625452Y-41761D01*
X625555Y-41308D01*
X625698Y-40872D01*
X625879Y-40462D01*
X626094Y-40086D01*
X626342Y-39742D01*
X626625Y-39431D01*
X629176Y-39431D01*
X629176Y-42565D01*
X628336Y-42565D01*
X628336Y-40355D01*
X627002Y-40355D01*
X626823Y-40564D01*
X626664Y-40803D01*
X626524Y-41072D01*
X626404Y-41371D01*
X626308Y-41691D01*
X626239Y-42022D01*
X626197Y-42366D01*
X626184Y-42723D01*
X626196Y-43032D01*
X626234Y-43323D01*
X626298Y-43598D01*
X626386Y-43855D01*
X626500Y-44095D01*
X626640Y-44318D01*
X626805Y-44524D01*
X626995Y-44712D01*
X627207Y-44880D01*
X627437Y-45027D01*
X627686Y-45150D01*
X627953Y-45251D01*
X628239Y-45330D01*
X628543Y-45386D01*
X628866Y-45420D01*
X629207Y-45431D01*
X629549Y-45420D01*
X629871Y-45389D01*
X630173Y-45336D01*
X630456Y-45262D01*
X630718Y-45167D01*
X630961Y-45050D01*
X631185Y-44913D01*
X631388Y-44754D01*
X631569Y-44575D01*
X631727Y-44378D01*
X631860Y-44161D01*
X631969Y-43926D01*
X632053Y-43672D01*
X632114Y-43399D01*
X632150Y-43107D01*
X632162Y-42796D01*
X632144Y-42401D01*
X632090Y-42040D01*
X632000Y-41712D01*
X631874Y-41418D01*
X631708Y-41156D01*
X631500Y-40924D01*
X631249Y-40722D01*
X630955Y-40549D01*
X631238Y-39594D01*
X631459Y-39703D01*
X631664Y-39823D01*
X631853Y-39955D01*
X632027Y-40097D01*
X632185Y-40250D01*
X632328Y-40414D01*
X632455Y-40589D01*
X632566Y-40775D01*
X632664Y-40974D01*
X632748Y-41187D01*
X632819Y-41415D01*
X632877Y-41657D01*
X632923Y-41914D01*
X632955Y-42185D01*
X632975Y-42470D01*
X632981Y-42770D01*
X632966Y-43195D01*
X632919Y-43595D01*
X632842Y-43971D01*
X632734Y-44322D01*
X632596Y-44649D01*
X632426Y-44952D01*
X632226Y-45230D01*
X631994Y-45484D01*
X631735Y-45710D01*
X631450Y-45906D01*
X631140Y-46072D01*
X630804Y-46208D01*
X630443Y-46314D01*
X630056Y-46389D01*
X629644Y-46434D01*
X629207Y-46449D01*
G37*
G36*
X640637Y-46449D02*
X640348Y-46442D01*
X640068Y-46422D01*
X639798Y-46387D01*
X639538Y-46338D01*
X639287Y-46276D01*
X639046Y-46200D01*
X638815Y-46110D01*
X638593Y-46006D01*
X638382Y-45889D01*
X638184Y-45759D01*
X637998Y-45617D01*
X637826Y-45463D01*
X637666Y-45297D01*
X637518Y-45118D01*
X637384Y-44926D01*
X637262Y-44722D01*
X637154Y-44507D01*
X637060Y-44283D01*
X636980Y-44048D01*
X636915Y-43803D01*
X636865Y-43548D01*
X636829Y-43283D01*
X636807Y-43008D01*
X636800Y-42723D01*
X636821Y-42233D01*
X636882Y-41761D01*
X636985Y-41308D01*
X637128Y-40872D01*
X637309Y-40462D01*
X637524Y-40086D01*
X637772Y-39742D01*
X638055Y-39431D01*
X640606Y-39431D01*
X640606Y-42565D01*
X639766Y-42565D01*
X639766Y-40355D01*
X638432Y-40355D01*
X638253Y-40564D01*
X638094Y-40803D01*
X637954Y-41072D01*
X637834Y-41371D01*
X637738Y-41691D01*
X637669Y-42022D01*
X637627Y-42366D01*
X637614Y-42723D01*
X637626Y-43032D01*
X637664Y-43323D01*
X637728Y-43598D01*
X637816Y-43855D01*
X637930Y-44095D01*
X638070Y-44318D01*
X638235Y-44524D01*
X638425Y-44712D01*
X638637Y-44880D01*
X638867Y-45027D01*
X639116Y-45150D01*
X639383Y-45251D01*
X639669Y-45330D01*
X639973Y-45386D01*
X640296Y-45420D01*
X640637Y-45431D01*
X640979Y-45420D01*
X641301Y-45389D01*
X641603Y-45336D01*
X641886Y-45262D01*
X642148Y-45167D01*
X642391Y-45050D01*
X642615Y-44913D01*
X642818Y-44754D01*
X642999Y-44575D01*
X643157Y-44378D01*
X643290Y-44161D01*
X643399Y-43926D01*
X643483Y-43672D01*
X643544Y-43399D01*
X643580Y-43107D01*
X643592Y-42796D01*
X643574Y-42401D01*
X643520Y-42040D01*
X643430Y-41712D01*
X643304Y-41418D01*
X643138Y-41156D01*
X642930Y-40924D01*
X642679Y-40722D01*
X642385Y-40549D01*
X642668Y-39594D01*
X642889Y-39703D01*
X643094Y-39823D01*
X643283Y-39955D01*
X643457Y-40097D01*
X643615Y-40250D01*
X643758Y-40414D01*
X643885Y-40589D01*
X643996Y-40775D01*
X644094Y-40974D01*
X644178Y-41187D01*
X644249Y-41415D01*
X644307Y-41657D01*
X644353Y-41914D01*
X644385Y-42185D01*
X644405Y-42470D01*
X644411Y-42770D01*
X644396Y-43195D01*
X644349Y-43595D01*
X644272Y-43971D01*
X644164Y-44322D01*
X644026Y-44649D01*
X643856Y-44952D01*
X643656Y-45230D01*
X643424Y-45484D01*
X643165Y-45710D01*
X642880Y-45906D01*
X642570Y-46072D01*
X642234Y-46208D01*
X641873Y-46314D01*
X641486Y-46389D01*
X641074Y-46434D01*
X640637Y-46449D01*
G37*
G36*
X615945Y-46581D02*
X615705Y-46541D01*
X615479Y-46484D01*
X615269Y-46410D01*
X615074Y-46319D01*
X614895Y-46211D01*
X614730Y-46086D01*
X614581Y-45944D01*
X614447Y-45785D01*
X614328Y-45611D01*
X614225Y-45422D01*
X614138Y-45220D01*
X614067Y-45003D01*
X614011Y-44771D01*
X613972Y-44526D01*
X613948Y-44267D01*
X613940Y-43993D01*
X613949Y-43700D01*
X613975Y-43424D01*
X614019Y-43166D01*
X614080Y-42925D01*
X614159Y-42701D01*
X614256Y-42495D01*
X614370Y-42306D01*
X614502Y-42135D01*
X614649Y-41982D01*
X614811Y-41850D01*
X614988Y-41738D01*
X615179Y-41647D01*
X615384Y-41575D01*
X615604Y-41524D01*
X615838Y-41494D01*
X616087Y-41484D01*
X616260Y-41491D01*
X616426Y-41513D01*
X616584Y-41549D01*
X616735Y-41599D01*
X616878Y-41664D01*
X617014Y-41744D01*
X617263Y-41946D01*
X617473Y-42200D01*
X617635Y-42499D01*
X617699Y-42667D01*
X617751Y-42845D01*
X617791Y-43035D01*
X617819Y-43237D01*
X617840Y-43237D01*
X617937Y-42882D01*
X618069Y-42571D01*
X618237Y-42305D01*
X618441Y-42085D01*
X618679Y-41911D01*
X618951Y-41788D01*
X619255Y-41713D01*
X619420Y-41695D01*
X619593Y-41689D01*
X619818Y-41698D01*
X620030Y-41727D01*
X620229Y-41775D01*
X620415Y-41843D01*
X620589Y-41929D01*
X620750Y-42035D01*
X620898Y-42161D01*
X621034Y-42305D01*
X621155Y-42467D01*
X621260Y-42645D01*
X621349Y-42838D01*
X621422Y-43046D01*
X621478Y-43270D01*
X621519Y-43509D01*
X621543Y-43764D01*
X621551Y-44035D01*
X621543Y-44284D01*
X621519Y-44521D01*
X621480Y-44747D01*
X621424Y-44961D01*
X621352Y-45163D01*
X621265Y-45354D01*
X621161Y-45534D01*
X621042Y-45701D01*
X620908Y-45855D01*
X620762Y-45992D01*
X620604Y-46111D01*
X620433Y-46214D01*
X620250Y-46299D01*
X620054Y-46368D01*
X619845Y-46420D01*
X619625Y-46455D01*
X619551Y-45505D01*
X619826Y-45453D01*
X620068Y-45361D01*
X620278Y-45228D01*
X620454Y-45056D01*
X620594Y-44848D01*
X620694Y-44610D01*
X620754Y-44343D01*
X620774Y-44045D01*
X620753Y-43723D01*
X620688Y-43442D01*
X620581Y-43204D01*
X620430Y-43009D01*
X620243Y-42856D01*
X620024Y-42747D01*
X619774Y-42681D01*
X619493Y-42660D01*
X619348Y-42666D01*
X619211Y-42686D01*
X619081Y-42720D01*
X618960Y-42767D01*
X618742Y-42900D01*
X618557Y-43087D01*
X618408Y-43323D01*
X618303Y-43602D01*
X618239Y-43925D01*
X618218Y-44292D01*
X618218Y-44806D01*
X617399Y-44806D01*
X617399Y-44271D01*
X617378Y-43858D01*
X617314Y-43497D01*
X617209Y-43188D01*
X617061Y-42930D01*
X616875Y-42727D01*
X616769Y-42647D01*
X616656Y-42582D01*
X616534Y-42531D01*
X616404Y-42494D01*
X616265Y-42473D01*
X616118Y-42465D01*
X615950Y-42472D01*
X615793Y-42491D01*
X615647Y-42523D01*
X615511Y-42567D01*
X615386Y-42624D01*
X615271Y-42694D01*
X615167Y-42777D01*
X615074Y-42872D01*
X614920Y-43095D01*
X614810Y-43356D01*
X614744Y-43655D01*
X614722Y-43993D01*
X614743Y-44329D01*
X614804Y-44627D01*
X614907Y-44886D01*
X615050Y-45107D01*
X615235Y-45289D01*
X615460Y-45433D01*
X615727Y-45538D01*
X616034Y-45604D01*
X615945Y-46581D01*
G37*
G36*
X615945Y-33456D02*
X615705Y-33416D01*
X615479Y-33359D01*
X615269Y-33285D01*
X615074Y-33194D01*
X614895Y-33086D01*
X614730Y-32961D01*
X614581Y-32819D01*
X614447Y-32660D01*
X614328Y-32486D01*
X614225Y-32297D01*
X614138Y-32095D01*
X614067Y-31878D01*
X614011Y-31646D01*
X613972Y-31401D01*
X613948Y-31142D01*
X613940Y-30868D01*
X613949Y-30575D01*
X613975Y-30299D01*
X614019Y-30041D01*
X614080Y-29800D01*
X614159Y-29576D01*
X614256Y-29370D01*
X614370Y-29181D01*
X614502Y-29010D01*
X614649Y-28857D01*
X614811Y-28725D01*
X614988Y-28613D01*
X615179Y-28522D01*
X615384Y-28450D01*
X615604Y-28399D01*
X615838Y-28369D01*
X616087Y-28359D01*
X616260Y-28366D01*
X616426Y-28388D01*
X616584Y-28424D01*
X616735Y-28474D01*
X616878Y-28539D01*
X617014Y-28619D01*
X617263Y-28821D01*
X617473Y-29075D01*
X617635Y-29374D01*
X617699Y-29542D01*
X617751Y-29720D01*
X617791Y-29910D01*
X617819Y-30112D01*
X617840Y-30112D01*
X617937Y-29757D01*
X618069Y-29446D01*
X618237Y-29180D01*
X618441Y-28960D01*
X618679Y-28786D01*
X618951Y-28663D01*
X619255Y-28588D01*
X619420Y-28570D01*
X619593Y-28564D01*
X619818Y-28573D01*
X620030Y-28602D01*
X620229Y-28650D01*
X620415Y-28718D01*
X620589Y-28804D01*
X620750Y-28910D01*
X620898Y-29036D01*
X621034Y-29180D01*
X621155Y-29342D01*
X621260Y-29520D01*
X621349Y-29713D01*
X621422Y-29921D01*
X621478Y-30145D01*
X621519Y-30384D01*
X621543Y-30639D01*
X621551Y-30910D01*
X621543Y-31159D01*
X621519Y-31396D01*
X621480Y-31622D01*
X621424Y-31836D01*
X621352Y-32038D01*
X621265Y-32229D01*
X621161Y-32409D01*
X621042Y-32576D01*
X620908Y-32730D01*
X620762Y-32867D01*
X620604Y-32986D01*
X620433Y-33089D01*
X620250Y-33174D01*
X620054Y-33243D01*
X619845Y-33295D01*
X619625Y-33330D01*
X619551Y-32380D01*
X619826Y-32328D01*
X620068Y-32236D01*
X620278Y-32103D01*
X620454Y-31931D01*
X620594Y-31723D01*
X620694Y-31485D01*
X620754Y-31218D01*
X620774Y-30920D01*
X620753Y-30598D01*
X620688Y-30317D01*
X620581Y-30079D01*
X620430Y-29884D01*
X620243Y-29731D01*
X620024Y-29622D01*
X619774Y-29556D01*
X619493Y-29535D01*
X619348Y-29541D01*
X619211Y-29561D01*
X619081Y-29595D01*
X618960Y-29642D01*
X618742Y-29775D01*
X618557Y-29962D01*
X618408Y-30198D01*
X618303Y-30477D01*
X618239Y-30800D01*
X618218Y-31167D01*
X618218Y-31681D01*
X617399Y-31681D01*
X617399Y-31146D01*
X617378Y-30733D01*
X617314Y-30372D01*
X617209Y-30063D01*
X617061Y-29805D01*
X616875Y-29602D01*
X616769Y-29522D01*
X616656Y-29457D01*
X616534Y-29406D01*
X616404Y-29369D01*
X616265Y-29348D01*
X616118Y-29340D01*
X615950Y-29347D01*
X615793Y-29366D01*
X615647Y-29398D01*
X615511Y-29442D01*
X615386Y-29499D01*
X615271Y-29569D01*
X615167Y-29652D01*
X615074Y-29747D01*
X614920Y-29970D01*
X614810Y-30231D01*
X614744Y-30530D01*
X614722Y-30868D01*
X614743Y-31204D01*
X614804Y-31502D01*
X614907Y-31761D01*
X615050Y-31982D01*
X615235Y-32164D01*
X615460Y-32308D01*
X615727Y-32413D01*
X616034Y-32479D01*
X615945Y-33456D01*
G37*
G36*
X610011Y-46943D02*
X602615Y-43925D01*
X602615Y-42885D01*
X610011Y-39867D01*
X610011Y-40922D01*
X604804Y-42959D01*
X603497Y-43400D01*
X604804Y-43841D01*
X610011Y-45888D01*
X610011Y-46943D01*
G37*
G36*
X621441Y-40974D02*
X614045Y-37956D01*
X614045Y-36917D01*
X621441Y-33898D01*
X621441Y-34953D01*
X616234Y-36990D01*
X614927Y-37431D01*
X616234Y-37872D01*
X621441Y-39919D01*
X621441Y-40974D01*
G37*
G36*
X610011Y-26092D02*
X609192Y-26092D01*
X609192Y-23552D01*
X602615Y-23552D01*
X602615Y-22554D01*
X609192Y-22554D01*
X609192Y-20014D01*
X610011Y-20014D01*
X610011Y-26092D01*
G37*
G36*
X244465Y-23380D02*
X244264Y-23371D01*
X244075Y-23346D01*
X243898Y-23305D01*
X243732Y-23246D01*
X243579Y-23171D01*
X243437Y-23079D01*
X243307Y-22970D01*
X243189Y-22845D01*
X243084Y-22705D01*
X242993Y-22551D01*
X242915Y-22385D01*
X242852Y-22206D01*
X242803Y-22015D01*
X242768Y-21810D01*
X242747Y-21592D01*
X242740Y-21361D01*
X242747Y-21125D01*
X242769Y-20903D01*
X242804Y-20695D01*
X242854Y-20501D01*
X242919Y-20322D01*
X242997Y-20156D01*
X243090Y-20005D01*
X243197Y-19868D01*
X243317Y-19746D01*
X243449Y-19640D01*
X243591Y-19551D01*
X243745Y-19477D01*
X243910Y-19420D01*
X244087Y-19380D01*
X244274Y-19355D01*
X244473Y-19347D01*
X244753Y-19367D01*
X245008Y-19426D01*
X245238Y-19524D01*
X245445Y-19662D01*
X245460Y-19677D01*
X245620Y-19835D01*
X245759Y-20040D01*
X245860Y-20276D01*
X245925Y-20543D01*
X245942Y-20543D01*
X246008Y-20313D01*
X246109Y-20108D01*
X246238Y-19937D01*
X246245Y-19929D01*
X246416Y-19775D01*
X246613Y-19652D01*
X246826Y-19564D01*
X247056Y-19512D01*
X247301Y-19494D01*
X247472Y-19502D01*
X247634Y-19526D01*
X247786Y-19565D01*
X247930Y-19621D01*
X248064Y-19692D01*
X248190Y-19779D01*
X248306Y-19881D01*
X248413Y-20000D01*
X248510Y-20132D01*
X248593Y-20276D01*
X248664Y-20431D01*
X248722Y-20597D01*
X248767Y-20775D01*
X248799Y-20965D01*
X248818Y-21166D01*
X248825Y-21378D01*
X248818Y-21586D01*
X248798Y-21783D01*
X248766Y-21968D01*
X248720Y-22144D01*
X248661Y-22308D01*
X248588Y-22461D01*
X248503Y-22604D01*
X248405Y-22736D01*
X248296Y-22854D01*
X248179Y-22957D01*
X248054Y-23044D01*
X247921Y-23115D01*
X247780Y-23170D01*
X247631Y-23210D01*
X247475Y-23233D01*
X247310Y-23241D01*
X247064Y-23224D01*
X246834Y-23172D01*
X246621Y-23084D01*
X246424Y-22962D01*
X246252Y-22810D01*
X246113Y-22632D01*
X246007Y-22429D01*
X245933Y-22201D01*
X245917Y-22201D01*
X245855Y-22447D01*
X245755Y-22671D01*
X245616Y-22871D01*
X245438Y-23048D01*
X245229Y-23193D01*
X244998Y-23297D01*
X244743Y-23359D01*
X244465Y-23380D01*
G37*
%LPC*%
G36*
X244528Y-22599D02*
X244776Y-22579D01*
X244996Y-22519D01*
X245188Y-22418D01*
X245352Y-22276D01*
X245483Y-22099D01*
X245577Y-21890D01*
X245633Y-21650D01*
X245652Y-21378D01*
X245635Y-21099D01*
X245582Y-20853D01*
X245495Y-20639D01*
X245373Y-20459D01*
X245217Y-20316D01*
X245026Y-20214D01*
X244802Y-20152D01*
X244544Y-20132D01*
X244243Y-20151D01*
X243986Y-20208D01*
X243772Y-20302D01*
X243602Y-20434D01*
X243473Y-20605D01*
X243381Y-20815D01*
X243325Y-21064D01*
X243307Y-21353D01*
X243326Y-21645D01*
X243383Y-21898D01*
X243478Y-22113D01*
X243612Y-22288D01*
X243784Y-22424D01*
X243993Y-22521D01*
X244241Y-22580D01*
X244528Y-22599D01*
G37*
G36*
X247259Y-22469D02*
X247494Y-22452D01*
X247697Y-22399D01*
X247869Y-22312D01*
X248010Y-22190D01*
X248121Y-22035D01*
X248199Y-21848D01*
X248246Y-21629D01*
X248262Y-21378D01*
X248247Y-21121D01*
X248200Y-20897D01*
X248121Y-20708D01*
X248012Y-20554D01*
X247870Y-20433D01*
X247698Y-20348D01*
X247494Y-20296D01*
X247259Y-20279D01*
X247004Y-20296D01*
X246786Y-20349D01*
X246606Y-20436D01*
X246464Y-20558D01*
X246357Y-20713D01*
X246280Y-20900D01*
X246234Y-21119D01*
X246219Y-21370D01*
X246235Y-21617D01*
X246285Y-21835D01*
X246369Y-22023D01*
X246485Y-22182D01*
X246633Y-22308D01*
X246812Y-22397D01*
X247021Y-22451D01*
X247259Y-22469D01*
G37*
%LPD*%
G36*
X248736Y-29309D02*
X244972Y-29309D01*
X244636Y-29290D01*
X244324Y-29235D01*
X244036Y-29141D01*
X243772Y-29011D01*
X243536Y-28847D01*
X243329Y-28652D01*
X243152Y-28427D01*
X243004Y-28172D01*
X242889Y-27890D01*
X242806Y-27584D01*
X242757Y-27256D01*
X242740Y-26905D01*
X242757Y-26539D01*
X242809Y-26199D01*
X242895Y-25884D01*
X243015Y-25593D01*
X243168Y-25331D01*
X243351Y-25100D01*
X243565Y-24901D01*
X243810Y-24733D01*
X244083Y-24600D01*
X244380Y-24505D01*
X244702Y-24448D01*
X245048Y-24429D01*
X248736Y-24429D01*
X248736Y-25226D01*
X245094Y-25226D01*
X244892Y-25233D01*
X244702Y-25254D01*
X244524Y-25288D01*
X244359Y-25337D01*
X244207Y-25399D01*
X244067Y-25475D01*
X243940Y-25565D01*
X243825Y-25669D01*
X243723Y-25785D01*
X243635Y-25912D01*
X243560Y-26051D01*
X243499Y-26200D01*
X243452Y-26361D01*
X243418Y-26532D01*
X243397Y-26715D01*
X243390Y-26909D01*
X243397Y-27097D01*
X243417Y-27274D01*
X243449Y-27440D01*
X243495Y-27594D01*
X243554Y-27737D01*
X243627Y-27868D01*
X243712Y-27988D01*
X243810Y-28096D01*
X243921Y-28193D01*
X244044Y-28276D01*
X244180Y-28347D01*
X244327Y-28405D01*
X244487Y-28450D01*
X244659Y-28482D01*
X244843Y-28501D01*
X245040Y-28508D01*
X248736Y-28508D01*
X248736Y-29309D01*
G37*
G36*
X241656Y-29427D02*
X235744Y-29427D01*
X235744Y-28626D01*
X238199Y-28626D01*
X238199Y-26783D01*
X235744Y-25248D01*
X235744Y-24325D01*
X237207Y-25288D01*
X238291Y-26003D01*
X238371Y-25683D01*
X238491Y-25400D01*
X238541Y-25326D01*
X238654Y-25154D01*
X238858Y-24943D01*
X239095Y-24775D01*
X239359Y-24656D01*
X239649Y-24584D01*
X239965Y-24560D01*
X240159Y-24568D01*
X240342Y-24593D01*
X240514Y-24636D01*
X240675Y-24695D01*
X240825Y-24772D01*
X240964Y-24865D01*
X241092Y-24976D01*
X241210Y-25103D01*
X241314Y-25246D01*
X241405Y-25403D01*
X241482Y-25575D01*
X241545Y-25760D01*
X241594Y-25960D01*
X241628Y-26174D01*
X241649Y-26402D01*
X241656Y-26645D01*
X241656Y-29427D01*
G37*
%LPC*%
G36*
X241014Y-28626D02*
X241014Y-26725D01*
X240997Y-26415D01*
X240947Y-26143D01*
X240862Y-25910D01*
X240744Y-25716D01*
X240593Y-25562D01*
X240412Y-25453D01*
X240200Y-25387D01*
X239957Y-25365D01*
X239705Y-25387D01*
X239483Y-25452D01*
X239291Y-25560D01*
X239128Y-25711D01*
X238999Y-25902D01*
X238906Y-26129D01*
X238851Y-26392D01*
X238832Y-26691D01*
X238832Y-28626D01*
X241014Y-28626D01*
G37*
%LPD*%
G36*
X236277Y-23481D02*
X235744Y-23481D01*
X235744Y-19566D01*
X236386Y-19566D01*
X236386Y-22650D01*
X236534Y-22577D01*
X236686Y-22484D01*
X236997Y-22239D01*
X237333Y-21904D01*
X237708Y-21471D01*
X238328Y-20736D01*
X238761Y-20284D01*
X239101Y-20011D01*
X239271Y-19904D01*
X239441Y-19816D01*
X239611Y-19747D01*
X239782Y-19698D01*
X239953Y-19668D01*
X240125Y-19658D01*
X240313Y-19666D01*
X240491Y-19688D01*
X240657Y-19726D01*
X240812Y-19778D01*
X240957Y-19846D01*
X241090Y-19929D01*
X241212Y-20026D01*
X241323Y-20139D01*
X241422Y-20265D01*
X241507Y-20405D01*
X241580Y-20557D01*
X241639Y-20723D01*
X241685Y-20901D01*
X241718Y-21092D01*
X241738Y-21296D01*
X241745Y-21513D01*
X241738Y-21712D01*
X241718Y-21902D01*
X241686Y-22082D01*
X241640Y-22253D01*
X241581Y-22415D01*
X241508Y-22568D01*
X241325Y-22845D01*
X241097Y-23077D01*
X240969Y-23173D01*
X240833Y-23255D01*
X240687Y-23323D01*
X240533Y-23378D01*
X240369Y-23420D01*
X240196Y-23448D01*
X240125Y-22675D01*
X240349Y-22632D01*
X240546Y-22556D01*
X240717Y-22448D01*
X240861Y-22308D01*
X240976Y-22141D01*
X241058Y-21953D01*
X241107Y-21744D01*
X241123Y-21513D01*
X241107Y-21273D01*
X241056Y-21061D01*
X240972Y-20877D01*
X240855Y-20720D01*
X240707Y-20595D01*
X240532Y-20506D01*
X240329Y-20452D01*
X240100Y-20435D01*
X239924Y-20445D01*
X239758Y-20476D01*
X239601Y-20528D01*
X239453Y-20600D01*
X239174Y-20792D01*
X238908Y-21035D01*
X238648Y-21320D01*
X238388Y-21637D01*
X237823Y-22310D01*
X237501Y-22642D01*
X237143Y-22959D01*
X236948Y-23107D01*
X236739Y-23243D01*
X236515Y-23368D01*
X236277Y-23481D01*
G37*
G36*
X236386Y-18477D02*
X235744Y-18477D01*
X235744Y-14772D01*
X236386Y-14772D01*
X236386Y-16211D01*
X241656Y-16211D01*
X241656Y-16908D01*
X240695Y-18305D01*
X239982Y-18305D01*
X240935Y-16971D01*
X236386Y-16971D01*
X236386Y-18477D01*
G37*
G36*
X31852Y-35523D02*
X25940Y-35523D01*
X25940Y-34722D01*
X28395Y-34722D01*
X28395Y-32879D01*
X25940Y-31344D01*
X25940Y-30421D01*
X27403Y-31384D01*
X28487Y-32099D01*
X28567Y-31779D01*
X28687Y-31496D01*
X28737Y-31422D01*
X28850Y-31250D01*
X29054Y-31039D01*
X29291Y-30871D01*
X29555Y-30752D01*
X29845Y-30680D01*
X30161Y-30656D01*
X30355Y-30664D01*
X30538Y-30689D01*
X30710Y-30732D01*
X30871Y-30791D01*
X31021Y-30868D01*
X31160Y-30961D01*
X31288Y-31072D01*
X31406Y-31199D01*
X31510Y-31342D01*
X31601Y-31499D01*
X31678Y-31671D01*
X31741Y-31856D01*
X31790Y-32056D01*
X31824Y-32270D01*
X31845Y-32498D01*
X31852Y-32741D01*
X31852Y-35523D01*
G37*
%LPC*%
G36*
X31210Y-34722D02*
X31210Y-32821D01*
X31193Y-32511D01*
X31143Y-32239D01*
X31058Y-32006D01*
X30940Y-31812D01*
X30789Y-31658D01*
X30608Y-31549D01*
X30396Y-31483D01*
X30153Y-31461D01*
X29901Y-31483D01*
X29679Y-31548D01*
X29487Y-31656D01*
X29324Y-31807D01*
X29195Y-31998D01*
X29102Y-32225D01*
X29047Y-32488D01*
X29028Y-32787D01*
X29028Y-34722D01*
X31210Y-34722D01*
G37*
%LPD*%
G36*
X26473Y-29577D02*
X25940Y-29577D01*
X25940Y-25662D01*
X26582Y-25662D01*
X26582Y-28746D01*
X26730Y-28673D01*
X26882Y-28580D01*
X27193Y-28335D01*
X27529Y-28000D01*
X27904Y-27567D01*
X28524Y-26832D01*
X28957Y-26380D01*
X29297Y-26107D01*
X29467Y-26000D01*
X29637Y-25912D01*
X29807Y-25843D01*
X29978Y-25794D01*
X30149Y-25764D01*
X30321Y-25754D01*
X30509Y-25762D01*
X30687Y-25784D01*
X30853Y-25822D01*
X31008Y-25874D01*
X31153Y-25942D01*
X31286Y-26025D01*
X31408Y-26122D01*
X31519Y-26235D01*
X31618Y-26361D01*
X31703Y-26501D01*
X31776Y-26653D01*
X31835Y-26819D01*
X31881Y-26997D01*
X31914Y-27188D01*
X31934Y-27392D01*
X31941Y-27609D01*
X31934Y-27808D01*
X31914Y-27998D01*
X31882Y-28178D01*
X31836Y-28349D01*
X31777Y-28511D01*
X31704Y-28664D01*
X31521Y-28941D01*
X31293Y-29173D01*
X31165Y-29269D01*
X31029Y-29351D01*
X30883Y-29419D01*
X30729Y-29474D01*
X30565Y-29516D01*
X30392Y-29544D01*
X30321Y-28771D01*
X30545Y-28728D01*
X30742Y-28652D01*
X30913Y-28544D01*
X31057Y-28404D01*
X31172Y-28237D01*
X31254Y-28049D01*
X31303Y-27840D01*
X31319Y-27609D01*
X31303Y-27369D01*
X31252Y-27157D01*
X31168Y-26973D01*
X31051Y-26816D01*
X30903Y-26691D01*
X30728Y-26602D01*
X30525Y-26548D01*
X30296Y-26531D01*
X30120Y-26541D01*
X29954Y-26572D01*
X29797Y-26624D01*
X29649Y-26696D01*
X29370Y-26888D01*
X29104Y-27131D01*
X28844Y-27416D01*
X28584Y-27733D01*
X28019Y-28406D01*
X27697Y-28738D01*
X27339Y-29055D01*
X27144Y-29203D01*
X26935Y-29339D01*
X26711Y-29464D01*
X26473Y-29577D01*
G37*
G36*
X26473Y-24796D02*
X25940Y-24796D01*
X25940Y-20881D01*
X26582Y-20881D01*
X26582Y-23965D01*
X26730Y-23892D01*
X26882Y-23799D01*
X27193Y-23554D01*
X27529Y-23219D01*
X27904Y-22786D01*
X28524Y-22050D01*
X28957Y-21598D01*
X29297Y-21326D01*
X29467Y-21219D01*
X29637Y-21130D01*
X29807Y-21062D01*
X29978Y-21012D01*
X30149Y-20983D01*
X30321Y-20973D01*
X30509Y-20981D01*
X30687Y-21003D01*
X30853Y-21041D01*
X31008Y-21093D01*
X31153Y-21161D01*
X31286Y-21243D01*
X31408Y-21341D01*
X31519Y-21454D01*
X31618Y-21580D01*
X31703Y-21720D01*
X31776Y-21872D01*
X31835Y-22037D01*
X31881Y-22216D01*
X31914Y-22407D01*
X31934Y-22611D01*
X31941Y-22828D01*
X31934Y-23027D01*
X31914Y-23216D01*
X31882Y-23397D01*
X31836Y-23568D01*
X31777Y-23730D01*
X31704Y-23883D01*
X31521Y-24160D01*
X31293Y-24392D01*
X31165Y-24488D01*
X31029Y-24570D01*
X30883Y-24638D01*
X30729Y-24693D01*
X30565Y-24734D01*
X30392Y-24762D01*
X30321Y-23990D01*
X30545Y-23947D01*
X30742Y-23871D01*
X30913Y-23763D01*
X31057Y-23623D01*
X31172Y-23456D01*
X31254Y-23268D01*
X31303Y-23058D01*
X31319Y-22828D01*
X31303Y-22588D01*
X31252Y-22376D01*
X31168Y-22191D01*
X31051Y-22035D01*
X30903Y-21910D01*
X30728Y-21821D01*
X30525Y-21767D01*
X30296Y-21749D01*
X30120Y-21760D01*
X29954Y-21791D01*
X29797Y-21843D01*
X29649Y-21915D01*
X29370Y-22107D01*
X29104Y-22349D01*
X28844Y-22634D01*
X28584Y-22952D01*
X28019Y-23625D01*
X27697Y-23957D01*
X27339Y-24273D01*
X27144Y-24422D01*
X26935Y-24558D01*
X26711Y-24683D01*
X26473Y-24796D01*
G37*
G36*
X308757Y9938D02*
X308043Y9938D01*
X308043Y11277D01*
X307212Y11277D01*
X307212Y11872D01*
X308043Y11872D01*
X308043Y15850D01*
X308836Y15850D01*
X311543Y11864D01*
X311543Y11277D01*
X308757Y11277D01*
X308757Y9938D01*
G37*
%LPC*%
G36*
X310846Y11872D02*
X310779Y11956D01*
X310553Y12267D01*
X309038Y14499D01*
X308874Y14776D01*
X308757Y14999D01*
X308757Y11872D01*
X310846Y11872D01*
G37*
%LPD*%
G36*
X319421Y9854D02*
X319206Y9860D01*
X318998Y9879D01*
X318601Y9954D01*
X318231Y10078D01*
X317887Y10253D01*
X317575Y10475D01*
X317300Y10743D01*
X317062Y11056D01*
X316861Y11415D01*
X317516Y11742D01*
X317682Y11454D01*
X317867Y11204D01*
X318071Y10993D01*
X318295Y10820D01*
X318538Y10686D01*
X318801Y10590D01*
X319082Y10532D01*
X319383Y10513D01*
X319619Y10523D01*
X319843Y10554D01*
X320054Y10606D01*
X320252Y10678D01*
X320438Y10771D01*
X320612Y10885D01*
X320773Y11019D01*
X320921Y11174D01*
X321054Y11346D01*
X321170Y11531D01*
X321267Y11729D01*
X321347Y11941D01*
X321410Y12166D01*
X321454Y12405D01*
X321481Y12656D01*
X321490Y12921D01*
X321481Y13189D01*
X321455Y13442D01*
X321413Y13680D01*
X321353Y13904D01*
X321276Y14113D01*
X321183Y14307D01*
X321072Y14487D01*
X320944Y14652D01*
X320801Y14800D01*
X320644Y14929D01*
X320474Y15037D01*
X320289Y15126D01*
X320092Y15195D01*
X319880Y15244D01*
X319655Y15274D01*
X319417Y15284D01*
X319115Y15267D01*
X318834Y15216D01*
X318574Y15130D01*
X318336Y15011D01*
X318124Y14860D01*
X317943Y14678D01*
X317794Y14465D01*
X317675Y14222D01*
X316916Y14474D01*
X317086Y14815D01*
X317298Y15111D01*
X317551Y15362D01*
X317847Y15569D01*
X318184Y15731D01*
X318559Y15846D01*
X318972Y15915D01*
X319425Y15939D01*
X319754Y15926D01*
X320064Y15888D01*
X320356Y15826D01*
X320629Y15738D01*
X320885Y15625D01*
X321121Y15488D01*
X321340Y15325D01*
X321540Y15137D01*
X321719Y14927D01*
X321874Y14698D01*
X322005Y14450D01*
X322113Y14182D01*
X322196Y13896D01*
X322256Y13590D01*
X322292Y13265D01*
X322304Y12921D01*
X322282Y12465D01*
X322218Y12041D01*
X322111Y11648D01*
X321962Y11287D01*
X321771Y10962D01*
X321542Y10677D01*
X321274Y10431D01*
X320967Y10225D01*
X320626Y10063D01*
X320254Y9947D01*
X319853Y9877D01*
X319421Y9854D01*
G37*
G36*
X315867Y9938D02*
X312161Y9938D01*
X312161Y10580D01*
X313601Y10580D01*
X313601Y15850D01*
X314297Y15850D01*
X315695Y14889D01*
X315695Y14176D01*
X314360Y15129D01*
X314360Y10580D01*
X315867Y10580D01*
X315867Y9938D01*
G37*
G36*
X16137Y-26416D02*
X13926Y-26416D01*
X13510Y-26393D01*
X13120Y-26325D01*
X12755Y-26211D01*
X12415Y-26051D01*
X12106Y-25848D01*
X11835Y-25606D01*
X11601Y-25323D01*
X11404Y-25000D01*
X11248Y-24642D01*
X11136Y-24257D01*
X11069Y-23842D01*
X11047Y-23399D01*
X11060Y-23062D01*
X11098Y-22744D01*
X11162Y-22447D01*
X11251Y-22169D01*
X11366Y-21911D01*
X11506Y-21673D01*
X11672Y-21455D01*
X11863Y-21257D01*
X12078Y-21080D01*
X12314Y-20927D01*
X12572Y-20798D01*
X12851Y-20692D01*
X13151Y-20610D01*
X13473Y-20551D01*
X13817Y-20515D01*
X14182Y-20504D01*
X16137Y-20504D01*
X16137Y-26416D01*
G37*
%LPC*%
G36*
X15336Y-25774D02*
X15336Y-21146D01*
X14198Y-21146D01*
X13922Y-21155D01*
X13661Y-21182D01*
X13418Y-21227D01*
X13192Y-21290D01*
X12982Y-21371D01*
X12790Y-21470D01*
X12614Y-21587D01*
X12455Y-21723D01*
X12314Y-21875D01*
X12191Y-22044D01*
X12088Y-22229D01*
X12003Y-22430D01*
X11937Y-22648D01*
X11890Y-22882D01*
X11862Y-23132D01*
X11853Y-23399D01*
X11869Y-23752D01*
X11919Y-24081D01*
X12001Y-24386D01*
X12117Y-24666D01*
X12264Y-24919D01*
X12439Y-25140D01*
X12642Y-25330D01*
X12875Y-25489D01*
X13131Y-25614D01*
X13407Y-25703D01*
X13703Y-25756D01*
X14018Y-25774D01*
X15336Y-25774D01*
G37*
%LPD*%
G36*
X21856Y-26416D02*
X17198Y-26416D01*
X17198Y-25761D01*
X21054Y-25761D01*
X21054Y-23701D01*
X17622Y-23701D01*
X17622Y-23055D01*
X21054Y-23055D01*
X21054Y-21158D01*
X17370Y-21158D01*
X17370Y-20504D01*
X21856Y-20504D01*
X21856Y-26416D01*
G37*
G36*
X9969Y-26416D02*
X6263Y-26416D01*
X6263Y-25774D01*
X7703Y-25774D01*
X7703Y-20504D01*
X8399Y-20504D01*
X9797Y-21465D01*
X9797Y-22178D01*
X8462Y-21225D01*
X8462Y-25774D01*
X9969Y-25774D01*
X9969Y-26416D01*
G37*
G36*
X26637Y-26416D02*
X22848Y-26416D01*
X22848Y-25761D01*
X25836Y-25761D01*
X25836Y-20504D01*
X26637Y-20504D01*
X26637Y-26416D01*
G37*
G36*
X178722Y1066D02*
X178080Y1066D01*
X178080Y4771D01*
X178722Y4771D01*
X178722Y3332D01*
X183992Y3332D01*
X183992Y2635D01*
X183031Y1238D01*
X182318Y1238D01*
X183271Y2572D01*
X178722Y2572D01*
X178722Y1066D01*
G37*
G36*
X183992Y-3665D02*
X178080Y-3665D01*
X178080Y124D01*
X178735Y124D01*
X178735Y-2864D01*
X183992Y-2864D01*
X183992Y-3665D01*
G37*
G36*
X181063Y32896D02*
X180607Y32918D01*
X180183Y32982D01*
X179790Y33089D01*
X179429Y33238D01*
X179104Y33429D01*
X178819Y33658D01*
X178573Y33926D01*
X178367Y34233D01*
X178205Y34574D01*
X178089Y34946D01*
X178019Y35347D01*
X177996Y35779D01*
X178002Y35994D01*
X178021Y36202D01*
X178096Y36599D01*
X178220Y36969D01*
X178395Y37313D01*
X178617Y37625D01*
X178885Y37900D01*
X179198Y38138D01*
X179557Y38339D01*
X179884Y37684D01*
X179596Y37518D01*
X179346Y37333D01*
X179135Y37129D01*
X178962Y36905D01*
X178828Y36662D01*
X178732Y36399D01*
X178674Y36118D01*
X178655Y35817D01*
X178665Y35581D01*
X178696Y35357D01*
X178748Y35146D01*
X178820Y34948D01*
X178913Y34762D01*
X179027Y34588D01*
X179161Y34427D01*
X179316Y34279D01*
X179488Y34146D01*
X179673Y34030D01*
X179871Y33933D01*
X180083Y33853D01*
X180308Y33790D01*
X180547Y33746D01*
X180798Y33719D01*
X181063Y33710D01*
X181331Y33719D01*
X181584Y33745D01*
X181822Y33787D01*
X182046Y33847D01*
X182255Y33924D01*
X182449Y34017D01*
X182629Y34128D01*
X182794Y34256D01*
X182942Y34399D01*
X183071Y34556D01*
X183179Y34726D01*
X183268Y34911D01*
X183337Y35108D01*
X183386Y35320D01*
X183416Y35545D01*
X183426Y35783D01*
X183409Y36085D01*
X183358Y36366D01*
X183272Y36626D01*
X183153Y36864D01*
X183002Y37076D01*
X182820Y37257D01*
X182607Y37406D01*
X182364Y37525D01*
X182616Y38284D01*
X182957Y38114D01*
X183253Y37902D01*
X183504Y37649D01*
X183711Y37353D01*
X183873Y37017D01*
X183988Y36641D01*
X184057Y36228D01*
X184081Y35775D01*
X184068Y35446D01*
X184030Y35136D01*
X183968Y34844D01*
X183880Y34571D01*
X183767Y34315D01*
X183630Y34079D01*
X183467Y33860D01*
X183279Y33660D01*
X183069Y33481D01*
X182840Y33326D01*
X182592Y33195D01*
X182324Y33087D01*
X182038Y33004D01*
X181732Y32944D01*
X181407Y32908D01*
X181063Y32896D01*
G37*
G36*
X179402Y43804D02*
X179080Y43895D01*
X178799Y44032D01*
X178558Y44216D01*
X178357Y44446D01*
X178199Y44720D01*
X178086Y45034D01*
X178019Y45387D01*
X177996Y45780D01*
X178005Y46020D01*
X178030Y46247D01*
X178072Y46460D01*
X178130Y46659D01*
X178206Y46845D01*
X178298Y47018D01*
X178407Y47177D01*
X178533Y47323D01*
X178674Y47453D01*
X178827Y47566D01*
X178992Y47661D01*
X179170Y47740D01*
X179360Y47800D01*
X179563Y47844D01*
X179778Y47870D01*
X180006Y47879D01*
X180207Y47870D01*
X180398Y47846D01*
X180579Y47806D01*
X180751Y47749D01*
X180913Y47676D01*
X181065Y47587D01*
X181208Y47482D01*
X181340Y47360D01*
X181460Y47225D01*
X181564Y47079D01*
X181652Y46922D01*
X181724Y46753D01*
X181780Y46574D01*
X181820Y46384D01*
X181844Y46182D01*
X181852Y45969D01*
X181829Y45619D01*
X181758Y45299D01*
X181640Y45009D01*
X181475Y44748D01*
X183350Y44862D01*
X183350Y47534D01*
X183992Y47534D01*
X183992Y44173D01*
X180812Y43976D01*
X180812Y44715D01*
X181009Y44979D01*
X181139Y45243D01*
X181211Y45518D01*
X181236Y45814D01*
X181214Y46093D01*
X181149Y46341D01*
X181042Y46560D01*
X180891Y46748D01*
X180706Y46899D01*
X180494Y47007D01*
X180255Y47072D01*
X179989Y47094D01*
X179685Y47072D01*
X179416Y47008D01*
X179181Y46900D01*
X178980Y46750D01*
X178819Y46561D01*
X178705Y46340D01*
X178636Y46085D01*
X178613Y45797D01*
X178627Y45561D01*
X178668Y45349D01*
X178736Y45160D01*
X178832Y44995D01*
X178955Y44853D01*
X179106Y44734D01*
X179284Y44639D01*
X179490Y44568D01*
X179402Y43804D01*
G37*
G36*
X178722Y39333D02*
X178080Y39333D01*
X178080Y43039D01*
X178722Y43039D01*
X178722Y41599D01*
X183992Y41599D01*
X183992Y40903D01*
X183031Y39505D01*
X182318Y39505D01*
X183271Y40840D01*
X178722Y40840D01*
X178722Y39333D01*
G37*
G36*
X163669Y-12390D02*
X163451Y-12381D01*
X163246Y-12356D01*
X163053Y-12314D01*
X162871Y-12255D01*
X162702Y-12179D01*
X162545Y-12085D01*
X162400Y-11976D01*
X162267Y-11849D01*
X162148Y-11707D01*
X162045Y-11553D01*
X161958Y-11387D01*
X161886Y-11209D01*
X161831Y-11018D01*
X161791Y-10815D01*
X161767Y-10599D01*
X161760Y-10372D01*
X161767Y-10161D01*
X161790Y-9961D01*
X161827Y-9773D01*
X161880Y-9595D01*
X161947Y-9429D01*
X162030Y-9273D01*
X162127Y-9129D01*
X162240Y-8995D01*
X162365Y-8875D01*
X162501Y-8771D01*
X162648Y-8683D01*
X162805Y-8611D01*
X162972Y-8555D01*
X163151Y-8515D01*
X163339Y-8491D01*
X163539Y-8483D01*
X163773Y-8496D01*
X163994Y-8533D01*
X164201Y-8595D01*
X164395Y-8683D01*
X164571Y-8794D01*
X164726Y-8928D01*
X164860Y-9084D01*
X164974Y-9264D01*
X164952Y-8727D01*
X164924Y-8484D01*
X164885Y-8257D01*
X164835Y-8048D01*
X164774Y-7855D01*
X164702Y-7679D01*
X164619Y-7520D01*
X164526Y-7379D01*
X164424Y-7257D01*
X164312Y-7153D01*
X164192Y-7069D01*
X164062Y-7003D01*
X163923Y-6956D01*
X163775Y-6928D01*
X163618Y-6918D01*
X163439Y-6929D01*
X163276Y-6963D01*
X163129Y-7020D01*
X162999Y-7099D01*
X162886Y-7200D01*
X162789Y-7324D01*
X162709Y-7471D01*
X162645Y-7640D01*
X161923Y-7510D01*
X162026Y-7228D01*
X162159Y-6983D01*
X162324Y-6776D01*
X162519Y-6607D01*
X162745Y-6475D01*
X163003Y-6381D01*
X163291Y-6324D01*
X163610Y-6306D01*
X163857Y-6318D01*
X164089Y-6357D01*
X164306Y-6421D01*
X164509Y-6511D01*
X164697Y-6627D01*
X164871Y-6768D01*
X165030Y-6935D01*
X165175Y-7128D01*
X165304Y-7345D01*
X165416Y-7584D01*
X165510Y-7845D01*
X165587Y-8129D01*
X165648Y-8435D01*
X165691Y-8763D01*
X165716Y-9113D01*
X165725Y-9486D01*
X165717Y-9830D01*
X165692Y-10153D01*
X165651Y-10455D01*
X165593Y-10736D01*
X165518Y-10995D01*
X165427Y-11234D01*
X165320Y-11451D01*
X165196Y-11647D01*
X165057Y-11821D01*
X164902Y-11972D01*
X164734Y-12100D01*
X164550Y-12204D01*
X164352Y-12286D01*
X164139Y-12344D01*
X163911Y-12378D01*
X163669Y-12390D01*
G37*
%LPC*%
G36*
X163694Y-11782D02*
X163823Y-11775D01*
X163946Y-11754D01*
X164175Y-11672D01*
X164380Y-11536D01*
X164560Y-11345D01*
X164708Y-11111D01*
X164814Y-10847D01*
X164877Y-10551D01*
X164898Y-10225D01*
X164878Y-9969D01*
X164817Y-9742D01*
X164715Y-9544D01*
X164573Y-9375D01*
X164398Y-9240D01*
X164197Y-9144D01*
X163971Y-9086D01*
X163719Y-9067D01*
X163453Y-9088D01*
X163219Y-9154D01*
X163015Y-9262D01*
X162842Y-9415D01*
X162704Y-9607D01*
X162606Y-9837D01*
X162547Y-10103D01*
X162527Y-10405D01*
X162547Y-10709D01*
X162605Y-10978D01*
X162702Y-11214D01*
X162838Y-11414D01*
X163008Y-11575D01*
X163207Y-11690D01*
X163436Y-11759D01*
X163694Y-11782D01*
G37*
%LPD*%
G36*
X173842Y-12390D02*
X173627Y-12384D01*
X173419Y-12365D01*
X173022Y-12290D01*
X172652Y-12166D01*
X172308Y-11991D01*
X171996Y-11769D01*
X171721Y-11501D01*
X171483Y-11188D01*
X171282Y-10829D01*
X171937Y-10502D01*
X172103Y-10790D01*
X172288Y-11040D01*
X172493Y-11251D01*
X172716Y-11424D01*
X172960Y-11558D01*
X173222Y-11654D01*
X173503Y-11712D01*
X173804Y-11731D01*
X174040Y-11721D01*
X174264Y-11690D01*
X174475Y-11638D01*
X174673Y-11566D01*
X174859Y-11473D01*
X175033Y-11359D01*
X175194Y-11225D01*
X175342Y-11070D01*
X175476Y-10898D01*
X175591Y-10713D01*
X175689Y-10515D01*
X175769Y-10303D01*
X175831Y-10078D01*
X175875Y-9839D01*
X175902Y-9588D01*
X175911Y-9323D01*
X175902Y-9055D01*
X175877Y-8802D01*
X175834Y-8564D01*
X175774Y-8340D01*
X175698Y-8131D01*
X175604Y-7937D01*
X175493Y-7757D01*
X175365Y-7592D01*
X175222Y-7444D01*
X175065Y-7315D01*
X174895Y-7207D01*
X174711Y-7118D01*
X174513Y-7049D01*
X174302Y-7000D01*
X174077Y-6970D01*
X173838Y-6960D01*
X173536Y-6977D01*
X173255Y-7028D01*
X172996Y-7114D01*
X172757Y-7233D01*
X172545Y-7384D01*
X172365Y-7566D01*
X172215Y-7779D01*
X172097Y-8022D01*
X171337Y-7770D01*
X171507Y-7429D01*
X171719Y-7133D01*
X171973Y-6882D01*
X172269Y-6675D01*
X172605Y-6513D01*
X172980Y-6398D01*
X173394Y-6329D01*
X173846Y-6306D01*
X174175Y-6318D01*
X174485Y-6356D01*
X174777Y-6418D01*
X175051Y-6506D01*
X175306Y-6619D01*
X175543Y-6756D01*
X175761Y-6919D01*
X175961Y-7107D01*
X176140Y-7317D01*
X176295Y-7546D01*
X176427Y-7794D01*
X176534Y-8062D01*
X176617Y-8348D01*
X176677Y-8654D01*
X176713Y-8979D01*
X176725Y-9323D01*
X176704Y-9779D01*
X176639Y-10203D01*
X176533Y-10596D01*
X176383Y-10957D01*
X176192Y-11282D01*
X175963Y-11568D01*
X175695Y-11813D01*
X175388Y-12019D01*
X175047Y-12181D01*
X174676Y-12297D01*
X174274Y-12367D01*
X173842Y-12390D01*
G37*
G36*
X170288Y-12306D02*
X166583Y-12306D01*
X166583Y-11664D01*
X168022Y-11664D01*
X168022Y-6394D01*
X168719Y-6394D01*
X170116Y-7355D01*
X170116Y-8068D01*
X168782Y-7115D01*
X168782Y-11664D01*
X170288Y-11664D01*
X170288Y-12306D01*
G37*
G36*
X199409Y21000D02*
X194793Y21000D01*
X194353Y21012D01*
X193926Y21048D01*
X193512Y21107D01*
X193111Y21190D01*
X192724Y21298D01*
X192349Y21429D01*
X191988Y21583D01*
X191640Y21762D01*
X191308Y21963D01*
X190995Y22185D01*
X190702Y22428D01*
X190429Y22691D01*
X190175Y22976D01*
X189940Y23282D01*
X189725Y23608D01*
X189529Y23956D01*
X189354Y24321D01*
X189203Y24702D01*
X189075Y25097D01*
X188971Y25507D01*
X188889Y25932D01*
X188831Y26373D01*
X188796Y26828D01*
X188784Y27297D01*
X188791Y27655D01*
X188811Y28001D01*
X188844Y28338D01*
X188891Y28664D01*
X188951Y28980D01*
X189024Y29285D01*
X189111Y29580D01*
X189210Y29865D01*
X189323Y30139D01*
X189450Y30403D01*
X189590Y30656D01*
X189743Y30900D01*
X189909Y31132D01*
X190089Y31355D01*
X190282Y31567D01*
X190488Y31769D01*
X190707Y31959D01*
X190936Y32137D01*
X191177Y32303D01*
X191429Y32456D01*
X191693Y32598D01*
X191967Y32727D01*
X192253Y32843D01*
X192550Y32948D01*
X192858Y33040D01*
X193177Y33120D01*
X193507Y33187D01*
X193849Y33243D01*
X194202Y33286D01*
X194566Y33316D01*
X194941Y33335D01*
X195327Y33341D01*
X199409Y33341D01*
X199409Y21000D01*
G37*
%LPC*%
G36*
X197736Y22340D02*
X197736Y32001D01*
X195362Y32001D01*
X194784Y31982D01*
X194241Y31925D01*
X193734Y31831D01*
X193261Y31700D01*
X192824Y31530D01*
X192422Y31323D01*
X192055Y31079D01*
X191723Y30796D01*
X191428Y30478D01*
X191173Y30126D01*
X190957Y29740D01*
X190780Y29320D01*
X190643Y28865D01*
X190545Y28377D01*
X190486Y27854D01*
X190466Y27297D01*
X190475Y26923D01*
X190501Y26561D01*
X190544Y26211D01*
X190604Y25874D01*
X190682Y25550D01*
X190777Y25238D01*
X190889Y24939D01*
X191018Y24652D01*
X191163Y24380D01*
X191324Y24125D01*
X191499Y23885D01*
X191689Y23663D01*
X191894Y23456D01*
X192114Y23266D01*
X192349Y23093D01*
X192599Y22936D01*
X192861Y22796D01*
X193134Y22675D01*
X193417Y22573D01*
X193710Y22489D01*
X194014Y22424D01*
X194327Y22377D01*
X194651Y22349D01*
X194986Y22340D01*
X197736Y22340D01*
G37*
%LPD*%
G36*
X186545Y21000D02*
X178811Y21000D01*
X178811Y22340D01*
X181815Y22340D01*
X181815Y33341D01*
X183269Y33341D01*
X186186Y31335D01*
X186186Y29846D01*
X183401Y31834D01*
X183401Y22340D01*
X186545Y22340D01*
X186545Y21000D01*
G37*
G36*
X60640Y17473D02*
X60306Y17490D01*
X59993Y17541D01*
X59699Y17627D01*
X59425Y17746D01*
X59171Y17900D01*
X58936Y18087D01*
X58721Y18309D01*
X58526Y18565D01*
X58352Y18853D01*
X58201Y19170D01*
X58073Y19516D01*
X57969Y19892D01*
X57888Y20297D01*
X57830Y20732D01*
X57795Y21196D01*
X57784Y21690D01*
X57794Y22163D01*
X57826Y22606D01*
X57879Y23018D01*
X57953Y23399D01*
X58048Y23750D01*
X58165Y24070D01*
X58302Y24360D01*
X58461Y24619D01*
X58641Y24847D01*
X58840Y25045D01*
X59059Y25212D01*
X59298Y25349D01*
X59558Y25456D01*
X59837Y25532D01*
X60136Y25578D01*
X60455Y25593D01*
X60756Y25582D01*
X61040Y25549D01*
X61307Y25493D01*
X61557Y25416D01*
X61790Y25316D01*
X62006Y25194D01*
X62205Y25051D01*
X62387Y24885D01*
X62550Y24699D01*
X62691Y24497D01*
X62810Y24279D01*
X62908Y24044D01*
X62984Y23792D01*
X63038Y23524D01*
X63070Y23240D01*
X63081Y22939D01*
X63071Y22645D01*
X63041Y22366D01*
X62991Y22103D01*
X62922Y21854D01*
X62832Y21620D01*
X62722Y21400D01*
X62592Y21196D01*
X62443Y21007D01*
X62277Y20836D01*
X62097Y20688D01*
X61904Y20563D01*
X61698Y20461D01*
X61479Y20381D01*
X61246Y20324D01*
X61000Y20290D01*
X60740Y20279D01*
X60422Y20298D01*
X60117Y20355D01*
X59826Y20450D01*
X59548Y20584D01*
X59296Y20749D01*
X59084Y20939D01*
X58912Y21153D01*
X58780Y21393D01*
X58793Y21030D01*
X58820Y20688D01*
X58861Y20368D01*
X58916Y20070D01*
X58986Y19793D01*
X59069Y19538D01*
X59167Y19304D01*
X59279Y19091D01*
X59404Y18902D01*
X59541Y18739D01*
X59691Y18600D01*
X59853Y18487D01*
X60027Y18398D01*
X60213Y18335D01*
X60412Y18298D01*
X60623Y18285D01*
X60869Y18300D01*
X61092Y18347D01*
X61293Y18424D01*
X61471Y18531D01*
X61626Y18670D01*
X61759Y18839D01*
X61869Y19040D01*
X61956Y19271D01*
X62919Y19119D01*
X62779Y18715D01*
X62599Y18371D01*
X62494Y18221D01*
X62380Y18087D01*
X62255Y17967D01*
X62121Y17862D01*
X61976Y17771D01*
X61819Y17692D01*
X61651Y17625D01*
X61472Y17570D01*
X61281Y17528D01*
X61079Y17497D01*
X60865Y17479D01*
X60640Y17473D01*
G37*
%LPC*%
G36*
X60500Y21074D02*
X60674Y21082D01*
X60839Y21105D01*
X60995Y21144D01*
X61142Y21199D01*
X61280Y21270D01*
X61408Y21356D01*
X61527Y21458D01*
X61636Y21575D01*
X61735Y21706D01*
X61820Y21848D01*
X61892Y22002D01*
X61951Y22166D01*
X61997Y22343D01*
X62030Y22530D01*
X62050Y22729D01*
X62056Y22939D01*
X62050Y23145D01*
X62030Y23339D01*
X61997Y23524D01*
X61951Y23697D01*
X61892Y23859D01*
X61820Y24010D01*
X61735Y24150D01*
X61636Y24280D01*
X61527Y24396D01*
X61407Y24497D01*
X61278Y24582D01*
X61139Y24651D01*
X60991Y24706D01*
X60833Y24744D01*
X60666Y24768D01*
X60488Y24775D01*
X60310Y24766D01*
X60140Y24739D01*
X59980Y24694D01*
X59829Y24630D01*
X59687Y24549D01*
X59555Y24449D01*
X59432Y24332D01*
X59318Y24196D01*
X59216Y24045D01*
X59127Y23883D01*
X59052Y23709D01*
X58990Y23523D01*
X58943Y23326D01*
X58909Y23117D01*
X58888Y22896D01*
X58881Y22664D01*
X58895Y22438D01*
X58935Y22225D01*
X59002Y22024D01*
X59097Y21835D01*
X59215Y21664D01*
X59352Y21513D01*
X59510Y21382D01*
X59688Y21273D01*
X59879Y21186D01*
X60078Y21123D01*
X60285Y21086D01*
X60500Y21074D01*
G37*
%LPD*%
G36*
X67806Y17473D02*
X67319Y17496D01*
X66865Y17565D01*
X66444Y17679D01*
X66056Y17840D01*
X65706Y18044D01*
X65398Y18288D01*
X65132Y18574D01*
X64908Y18901D01*
X64731Y19265D01*
X64604Y19661D01*
X64560Y19872D01*
X64528Y20091D01*
X64509Y20318D01*
X64502Y20553D01*
X64502Y25475D01*
X65566Y25475D01*
X65566Y20615D01*
X65576Y20344D01*
X65603Y20091D01*
X65650Y19854D01*
X65714Y19634D01*
X65797Y19430D01*
X65899Y19244D01*
X66019Y19074D01*
X66157Y18921D01*
X66312Y18785D01*
X66482Y18667D01*
X66667Y18567D01*
X66866Y18486D01*
X67081Y18423D01*
X67310Y18377D01*
X67553Y18350D01*
X67812Y18341D01*
X68063Y18350D01*
X68300Y18376D01*
X68521Y18420D01*
X68726Y18481D01*
X68917Y18560D01*
X69092Y18656D01*
X69252Y18770D01*
X69397Y18901D01*
X69525Y19049D01*
X69637Y19214D01*
X69731Y19394D01*
X69808Y19591D01*
X69868Y19804D01*
X69911Y20034D01*
X69937Y20280D01*
X69946Y20542D01*
X69946Y25475D01*
X71015Y25475D01*
X71015Y20452D01*
X71009Y20224D01*
X70990Y20003D01*
X70959Y19791D01*
X70916Y19587D01*
X70792Y19203D01*
X70618Y18851D01*
X70399Y18535D01*
X70139Y18258D01*
X69839Y18022D01*
X69498Y17826D01*
X69121Y17671D01*
X68714Y17561D01*
X68275Y17495D01*
X67806Y17473D01*
G37*
G36*
X88985Y5912D02*
X88784Y5921D01*
X88595Y5946D01*
X88418Y5987D01*
X88252Y6046D01*
X88099Y6121D01*
X87957Y6213D01*
X87827Y6322D01*
X87709Y6447D01*
X87604Y6587D01*
X87513Y6741D01*
X87435Y6907D01*
X87372Y7086D01*
X87323Y7277D01*
X87288Y7482D01*
X87267Y7700D01*
X87260Y7931D01*
X87267Y8167D01*
X87289Y8389D01*
X87324Y8597D01*
X87374Y8791D01*
X87439Y8970D01*
X87517Y9136D01*
X87610Y9287D01*
X87717Y9424D01*
X87837Y9546D01*
X87969Y9652D01*
X88111Y9741D01*
X88265Y9815D01*
X88430Y9872D01*
X88607Y9912D01*
X88794Y9937D01*
X88993Y9945D01*
X89273Y9925D01*
X89528Y9866D01*
X89758Y9768D01*
X89965Y9630D01*
X89980Y9615D01*
X90140Y9457D01*
X90279Y9252D01*
X90380Y9016D01*
X90445Y8749D01*
X90462Y8749D01*
X90528Y8979D01*
X90629Y9184D01*
X90758Y9355D01*
X90765Y9363D01*
X90936Y9517D01*
X91133Y9640D01*
X91346Y9728D01*
X91576Y9780D01*
X91821Y9798D01*
X91992Y9790D01*
X92154Y9766D01*
X92306Y9727D01*
X92450Y9671D01*
X92584Y9600D01*
X92710Y9513D01*
X92826Y9411D01*
X92933Y9292D01*
X93030Y9160D01*
X93113Y9016D01*
X93184Y8861D01*
X93242Y8695D01*
X93287Y8517D01*
X93319Y8327D01*
X93338Y8126D01*
X93345Y7914D01*
X93338Y7706D01*
X93318Y7510D01*
X93286Y7324D01*
X93240Y7149D01*
X93181Y6984D01*
X93108Y6831D01*
X93023Y6688D01*
X92925Y6556D01*
X92816Y6438D01*
X92699Y6335D01*
X92574Y6248D01*
X92441Y6177D01*
X92300Y6122D01*
X92151Y6082D01*
X91995Y6059D01*
X91830Y6051D01*
X91584Y6068D01*
X91354Y6120D01*
X91141Y6208D01*
X90944Y6330D01*
X90772Y6482D01*
X90633Y6660D01*
X90527Y6863D01*
X90453Y7091D01*
X90437Y7091D01*
X90375Y6845D01*
X90275Y6621D01*
X90136Y6421D01*
X89958Y6244D01*
X89749Y6099D01*
X89518Y5995D01*
X89263Y5933D01*
X88985Y5912D01*
G37*
%LPC*%
G36*
X89048Y6693D02*
X89296Y6713D01*
X89516Y6773D01*
X89708Y6874D01*
X89872Y7016D01*
X90003Y7193D01*
X90097Y7402D01*
X90153Y7642D01*
X90172Y7914D01*
X90155Y8193D01*
X90102Y8439D01*
X90015Y8653D01*
X89893Y8833D01*
X89737Y8976D01*
X89546Y9078D01*
X89322Y9140D01*
X89064Y9160D01*
X88763Y9141D01*
X88506Y9085D01*
X88292Y8990D01*
X88122Y8858D01*
X87993Y8687D01*
X87901Y8477D01*
X87845Y8228D01*
X87827Y7939D01*
X87846Y7647D01*
X87903Y7394D01*
X87998Y7180D01*
X88132Y7004D01*
X88304Y6868D01*
X88513Y6771D01*
X88761Y6712D01*
X89048Y6693D01*
G37*
G36*
X91779Y6823D02*
X92014Y6840D01*
X92217Y6893D01*
X92389Y6980D01*
X92530Y7102D01*
X92641Y7257D01*
X92719Y7444D01*
X92766Y7663D01*
X92782Y7914D01*
X92767Y8171D01*
X92720Y8395D01*
X92641Y8584D01*
X92532Y8738D01*
X92390Y8859D01*
X92218Y8944D01*
X92014Y8996D01*
X91779Y9013D01*
X91524Y8996D01*
X91306Y8943D01*
X91126Y8856D01*
X90984Y8734D01*
X90877Y8579D01*
X90800Y8392D01*
X90754Y8173D01*
X90739Y7922D01*
X90755Y7675D01*
X90805Y7457D01*
X90889Y7269D01*
X91005Y7110D01*
X91153Y6984D01*
X91332Y6895D01*
X91541Y6841D01*
X91779Y6823D01*
G37*
%LPD*%
G36*
X93256Y25D02*
X87344Y25D01*
X87344Y826D01*
X89799Y826D01*
X89799Y2669D01*
X87344Y4204D01*
X87344Y5127D01*
X88807Y4164D01*
X89891Y3449D01*
X89971Y3769D01*
X90091Y4052D01*
X90141Y4126D01*
X90254Y4298D01*
X90458Y4509D01*
X90695Y4677D01*
X90959Y4797D01*
X91249Y4869D01*
X91565Y4893D01*
X91759Y4884D01*
X91942Y4859D01*
X92114Y4816D01*
X92275Y4757D01*
X92425Y4680D01*
X92564Y4587D01*
X92692Y4476D01*
X92810Y4349D01*
X92914Y4206D01*
X93005Y4049D01*
X93082Y3878D01*
X93145Y3692D01*
X93194Y3492D01*
X93228Y3278D01*
X93249Y3050D01*
X93256Y2807D01*
X93256Y25D01*
G37*
%LPC*%
G36*
X92614Y826D02*
X92614Y2727D01*
X92597Y3037D01*
X92547Y3309D01*
X92462Y3542D01*
X92344Y3736D01*
X92193Y3890D01*
X92012Y3999D01*
X91800Y4065D01*
X91557Y4087D01*
X91305Y4065D01*
X91083Y4000D01*
X90891Y3892D01*
X90728Y3741D01*
X90599Y3550D01*
X90506Y3323D01*
X90451Y3060D01*
X90432Y2761D01*
X90432Y826D01*
X92614Y826D01*
G37*
%LPD*%
G36*
X90716Y-39345D02*
X84804Y-39345D01*
X84804Y-38544D01*
X87259Y-38544D01*
X87259Y-36701D01*
X84804Y-35166D01*
X84804Y-34243D01*
X86267Y-35206D01*
X87351Y-35921D01*
X87431Y-35601D01*
X87551Y-35318D01*
X87601Y-35244D01*
X87714Y-35072D01*
X87918Y-34861D01*
X88155Y-34693D01*
X88419Y-34574D01*
X88709Y-34502D01*
X89025Y-34478D01*
X89219Y-34486D01*
X89402Y-34511D01*
X89574Y-34554D01*
X89735Y-34613D01*
X89885Y-34690D01*
X90024Y-34783D01*
X90152Y-34894D01*
X90270Y-35021D01*
X90374Y-35164D01*
X90465Y-35321D01*
X90542Y-35493D01*
X90605Y-35678D01*
X90654Y-35878D01*
X90688Y-36092D01*
X90709Y-36320D01*
X90716Y-36563D01*
X90716Y-39345D01*
G37*
%LPC*%
G36*
X90074Y-38544D02*
X90074Y-36643D01*
X90057Y-36333D01*
X90007Y-36061D01*
X89922Y-35828D01*
X89804Y-35634D01*
X89653Y-35480D01*
X89472Y-35371D01*
X89260Y-35305D01*
X89017Y-35283D01*
X88765Y-35305D01*
X88543Y-35370D01*
X88351Y-35478D01*
X88188Y-35629D01*
X88059Y-35820D01*
X87966Y-36047D01*
X87911Y-36310D01*
X87892Y-36609D01*
X87892Y-38544D01*
X90074Y-38544D01*
G37*
%LPD*%
G36*
X88816Y-33428D02*
X88596Y-33421D01*
X88387Y-33399D01*
X88189Y-33361D01*
X88003Y-33309D01*
X87827Y-33242D01*
X87663Y-33159D01*
X87510Y-33062D01*
X87368Y-32950D01*
X87240Y-32826D01*
X87129Y-32691D01*
X87035Y-32546D01*
X86959Y-32392D01*
X86899Y-32228D01*
X86856Y-32053D01*
X86831Y-31869D01*
X86822Y-31674D01*
X86837Y-31436D01*
X86880Y-31208D01*
X86951Y-30989D01*
X87051Y-30781D01*
X87175Y-30592D01*
X87317Y-30433D01*
X87478Y-30305D01*
X87657Y-30206D01*
X87129Y-30235D01*
X86666Y-30308D01*
X86459Y-30360D01*
X86267Y-30422D01*
X86092Y-30495D01*
X85933Y-30579D01*
X85791Y-30673D01*
X85668Y-30776D01*
X85565Y-30888D01*
X85480Y-31009D01*
X85413Y-31140D01*
X85366Y-31279D01*
X85338Y-31428D01*
X85329Y-31586D01*
X85340Y-31771D01*
X85375Y-31938D01*
X85432Y-32089D01*
X85513Y-32222D01*
X85617Y-32338D01*
X85744Y-32438D01*
X85894Y-32520D01*
X86067Y-32585D01*
X85954Y-33307D01*
X85651Y-33202D01*
X85393Y-33067D01*
X85180Y-32903D01*
X85012Y-32709D01*
X84884Y-32483D01*
X84793Y-32223D01*
X84738Y-31928D01*
X84720Y-31599D01*
X84733Y-31349D01*
X84771Y-31114D01*
X84835Y-30894D01*
X84925Y-30689D01*
X85040Y-30498D01*
X85180Y-30322D01*
X85347Y-30161D01*
X85538Y-30015D01*
X85754Y-29885D01*
X85992Y-29772D01*
X86251Y-29676D01*
X86533Y-29598D01*
X86837Y-29537D01*
X87162Y-29494D01*
X87510Y-29468D01*
X87880Y-29459D01*
X88234Y-29467D01*
X88566Y-29491D01*
X88875Y-29530D01*
X89161Y-29586D01*
X89424Y-29657D01*
X89663Y-29744D01*
X89880Y-29848D01*
X90074Y-29967D01*
X90246Y-30101D01*
X90394Y-30250D01*
X90519Y-30415D01*
X90622Y-30594D01*
X90702Y-30788D01*
X90759Y-30997D01*
X90793Y-31221D01*
X90805Y-31460D01*
X90796Y-31686D01*
X90771Y-31899D01*
X90730Y-32099D01*
X90672Y-32286D01*
X90597Y-32461D01*
X90506Y-32623D01*
X90398Y-32772D01*
X90274Y-32908D01*
X90135Y-33030D01*
X89984Y-33136D01*
X89820Y-33225D01*
X89644Y-33298D01*
X89455Y-33355D01*
X89254Y-33396D01*
X89041Y-33420D01*
X88816Y-33428D01*
G37*
%LPC*%
G36*
X88816Y-32661D02*
X89116Y-32641D01*
X89384Y-32582D01*
X89618Y-32484D01*
X89821Y-32346D01*
X89983Y-32174D01*
X90099Y-31973D01*
X90169Y-31744D01*
X90192Y-31486D01*
X90185Y-31352D01*
X90165Y-31225D01*
X90131Y-31105D01*
X90083Y-30992D01*
X89948Y-30786D01*
X89758Y-30609D01*
X89523Y-30465D01*
X89254Y-30363D01*
X88949Y-30302D01*
X88610Y-30281D01*
X88441Y-30291D01*
X88281Y-30322D01*
X88130Y-30372D01*
X87989Y-30443D01*
X87860Y-30531D01*
X87747Y-30634D01*
X87649Y-30752D01*
X87567Y-30886D01*
X87502Y-31029D01*
X87455Y-31178D01*
X87428Y-31333D01*
X87418Y-31494D01*
X87442Y-31749D01*
X87512Y-31976D01*
X87629Y-32175D01*
X87794Y-32346D01*
X87998Y-32484D01*
X88237Y-32582D01*
X88509Y-32641D01*
X88816Y-32661D01*
G37*
%LPD*%
G36*
X399959Y-46183D02*
X399664Y-46178D01*
X399361Y-46136D01*
X399051Y-46057D01*
X398736Y-45942D01*
X398415Y-45791D01*
X398090Y-45604D01*
X397759Y-45381D01*
X397422Y-45122D01*
X397081Y-44826D01*
X396734Y-44495D01*
X396397Y-44143D01*
X396096Y-43798D01*
X395832Y-43461D01*
X395604Y-43130D01*
X395412Y-42807D01*
X395257Y-42491D01*
X395139Y-42182D01*
X395057Y-41880D01*
X395012Y-41584D01*
X395007Y-41296D01*
X395040Y-41013D01*
X395112Y-40738D01*
X395223Y-40468D01*
X395372Y-40206D01*
X395560Y-39949D01*
X395787Y-39700D01*
X396044Y-39466D01*
X396305Y-39272D01*
X396572Y-39117D01*
X396844Y-39001D01*
X397122Y-38925D01*
X397405Y-38889D01*
X397693Y-38891D01*
X397987Y-38933D01*
X398288Y-39014D01*
X398596Y-39132D01*
X398912Y-39286D01*
X399236Y-39478D01*
X399568Y-39708D01*
X399907Y-39974D01*
X400255Y-40278D01*
X400610Y-40618D01*
X400944Y-40967D01*
X401241Y-41309D01*
X401502Y-41646D01*
X401727Y-41977D01*
X401916Y-42301D01*
X402069Y-42620D01*
X402185Y-42933D01*
X402266Y-43240D01*
X402309Y-43540D01*
X402315Y-43832D01*
X402282Y-44116D01*
X402212Y-44392D01*
X402104Y-44660D01*
X401958Y-44921D01*
X401774Y-45173D01*
X401553Y-45418D01*
X401308Y-45639D01*
X401055Y-45823D01*
X400794Y-45970D01*
X400524Y-46078D01*
X400246Y-46149D01*
X399959Y-46183D01*
G37*
%LPC*%
G36*
X399892Y-45282D02*
X400088Y-45279D01*
X400277Y-45248D01*
X400459Y-45189D01*
X400634Y-45102D01*
X400802Y-44987D01*
X400963Y-44843D01*
X401107Y-44682D01*
X401224Y-44514D01*
X401312Y-44339D01*
X401373Y-44158D01*
X401406Y-43970D01*
X401411Y-43776D01*
X401388Y-43575D01*
X401337Y-43368D01*
X401258Y-43153D01*
X401149Y-42926D01*
X401012Y-42689D01*
X400846Y-42440D01*
X400650Y-42181D01*
X400426Y-41911D01*
X400172Y-41631D01*
X399890Y-41339D01*
X399590Y-41048D01*
X399303Y-40788D01*
X399029Y-40559D01*
X398767Y-40359D01*
X398517Y-40191D01*
X398280Y-40053D01*
X398056Y-39945D01*
X397845Y-39868D01*
X397642Y-39820D01*
X397444Y-39801D01*
X397251Y-39810D01*
X397064Y-39847D01*
X396882Y-39912D01*
X396705Y-40006D01*
X396532Y-40128D01*
X396366Y-40278D01*
X396219Y-40441D01*
X396101Y-40610D01*
X396012Y-40784D01*
X395950Y-40964D01*
X395917Y-41150D01*
X395912Y-41341D01*
X395936Y-41538D01*
X395987Y-41741D01*
X396068Y-41952D01*
X396178Y-42176D01*
X396318Y-42411D01*
X396487Y-42659D01*
X396685Y-42919D01*
X396914Y-43191D01*
X397171Y-43474D01*
X397458Y-43770D01*
X397745Y-44047D01*
X398021Y-44296D01*
X398288Y-44518D01*
X398545Y-44711D01*
X398793Y-44876D01*
X399031Y-45013D01*
X399259Y-45122D01*
X399478Y-45204D01*
X399688Y-45257D01*
X399892Y-45282D01*
G37*
%LPD*%
G36*
X408988Y-36830D02*
X408597Y-36816D01*
X408208Y-36743D01*
X407825Y-36611D01*
X407455Y-36421D01*
X407275Y-36303D01*
X407098Y-36171D01*
X406924Y-36024D01*
X406753Y-35862D01*
X403272Y-32381D01*
X404025Y-31629D01*
X407462Y-35066D01*
X407659Y-35250D01*
X407858Y-35410D01*
X408058Y-35545D01*
X408260Y-35655D01*
X408462Y-35740D01*
X408666Y-35800D01*
X408871Y-35836D01*
X409077Y-35846D01*
X409283Y-35832D01*
X409486Y-35796D01*
X409687Y-35735D01*
X409886Y-35652D01*
X410082Y-35545D01*
X410276Y-35415D01*
X410468Y-35262D01*
X410657Y-35086D01*
X410829Y-34902D01*
X410977Y-34716D01*
X411103Y-34529D01*
X411205Y-34340D01*
X411284Y-34150D01*
X411340Y-33958D01*
X411372Y-33764D01*
X411382Y-33569D01*
X411368Y-33373D01*
X411331Y-33178D01*
X411270Y-32984D01*
X411185Y-32790D01*
X411077Y-32597D01*
X410945Y-32404D01*
X410789Y-32212D01*
X410610Y-32021D01*
X407121Y-28532D01*
X407877Y-27776D01*
X411429Y-31328D01*
X411586Y-31494D01*
X411729Y-31663D01*
X411857Y-31835D01*
X411971Y-32010D01*
X412155Y-32370D01*
X412281Y-32742D01*
X412349Y-33120D01*
X412361Y-33499D01*
X412316Y-33878D01*
X412213Y-34258D01*
X412056Y-34634D01*
X411846Y-35000D01*
X411583Y-35356D01*
X411267Y-35703D01*
X410906Y-36032D01*
X410536Y-36304D01*
X410158Y-36521D01*
X409770Y-36682D01*
X409379Y-36785D01*
X408988Y-36830D01*
G37*
G36*
X404112Y-42700D02*
X403507Y-42094D01*
X404865Y-40736D01*
X399891Y-35762D01*
X400549Y-35105D01*
X402774Y-34693D01*
X403447Y-35366D01*
X401289Y-35726D01*
X405582Y-40019D01*
X407003Y-38597D01*
X407609Y-39203D01*
X404112Y-42700D01*
G37*
G36*
X357829Y900D02*
X357593Y907D01*
X357371Y929D01*
X357163Y964D01*
X356969Y1014D01*
X356790Y1079D01*
X356624Y1157D01*
X356473Y1250D01*
X356336Y1357D01*
X356214Y1477D01*
X356108Y1609D01*
X356019Y1751D01*
X355945Y1905D01*
X355888Y2070D01*
X355848Y2247D01*
X355823Y2434D01*
X355815Y2633D01*
X355835Y2913D01*
X355894Y3168D01*
X355992Y3398D01*
X356130Y3605D01*
X356145Y3620D01*
X356303Y3780D01*
X356508Y3919D01*
X356744Y4020D01*
X357011Y4085D01*
X357011Y4102D01*
X356781Y4168D01*
X356576Y4269D01*
X356405Y4398D01*
X356397Y4405D01*
X356243Y4576D01*
X356120Y4773D01*
X356032Y4986D01*
X355980Y5216D01*
X355962Y5461D01*
X355970Y5632D01*
X355994Y5794D01*
X356033Y5946D01*
X356089Y6090D01*
X356160Y6224D01*
X356247Y6350D01*
X356349Y6466D01*
X356468Y6573D01*
X356600Y6670D01*
X356744Y6753D01*
X356899Y6824D01*
X357065Y6882D01*
X357243Y6927D01*
X357433Y6959D01*
X357634Y6978D01*
X357846Y6985D01*
X358054Y6978D01*
X358251Y6958D01*
X358436Y6926D01*
X358612Y6880D01*
X358776Y6821D01*
X358929Y6748D01*
X359072Y6663D01*
X359204Y6565D01*
X359322Y6456D01*
X359425Y6339D01*
X359512Y6214D01*
X359583Y6081D01*
X359638Y5940D01*
X359678Y5791D01*
X359701Y5635D01*
X359709Y5470D01*
X359692Y5224D01*
X359640Y4994D01*
X359552Y4781D01*
X359430Y4584D01*
X359278Y4412D01*
X359100Y4273D01*
X358897Y4167D01*
X358669Y4093D01*
X358669Y4077D01*
X358915Y4015D01*
X359139Y3915D01*
X359339Y3776D01*
X359516Y3598D01*
X359661Y3389D01*
X359765Y3158D01*
X359827Y2903D01*
X359848Y2625D01*
X359839Y2424D01*
X359814Y2235D01*
X359773Y2058D01*
X359714Y1892D01*
X359639Y1739D01*
X359547Y1597D01*
X359438Y1467D01*
X359313Y1349D01*
X359173Y1244D01*
X359019Y1153D01*
X358853Y1075D01*
X358674Y1012D01*
X358483Y963D01*
X358278Y928D01*
X358060Y907D01*
X357829Y900D01*
G37*
%LPC*%
G36*
X357821Y1467D02*
X358113Y1486D01*
X358366Y1543D01*
X358581Y1638D01*
X358756Y1772D01*
X358892Y1944D01*
X358989Y2153D01*
X359048Y2401D01*
X359067Y2688D01*
X359047Y2936D01*
X358987Y3156D01*
X358886Y3348D01*
X358744Y3512D01*
X358567Y3643D01*
X358358Y3737D01*
X358118Y3793D01*
X357846Y3812D01*
X357567Y3795D01*
X357321Y3742D01*
X357107Y3655D01*
X356927Y3533D01*
X356784Y3377D01*
X356682Y3186D01*
X356620Y2962D01*
X356600Y2704D01*
X356619Y2403D01*
X356676Y2146D01*
X356770Y1932D01*
X356902Y1762D01*
X357073Y1633D01*
X357283Y1541D01*
X357532Y1485D01*
X357821Y1467D01*
G37*
G36*
X357838Y4379D02*
X358085Y4395D01*
X358303Y4445D01*
X358491Y4529D01*
X358650Y4645D01*
X358776Y4793D01*
X358865Y4972D01*
X358919Y5181D01*
X358937Y5419D01*
X358920Y5654D01*
X358867Y5857D01*
X358780Y6029D01*
X358658Y6170D01*
X358503Y6281D01*
X358316Y6359D01*
X358097Y6406D01*
X357846Y6422D01*
X357589Y6407D01*
X357365Y6360D01*
X357176Y6281D01*
X357022Y6172D01*
X356901Y6030D01*
X356816Y5858D01*
X356764Y5654D01*
X356747Y5419D01*
X356764Y5164D01*
X356817Y4946D01*
X356904Y4766D01*
X357026Y4624D01*
X357181Y4517D01*
X357368Y4440D01*
X357587Y4394D01*
X357838Y4379D01*
G37*
%LPD*%
G36*
X367902Y900D02*
X367687Y906D01*
X367479Y925D01*
X367082Y1000D01*
X366712Y1124D01*
X366368Y1299D01*
X366056Y1521D01*
X365781Y1789D01*
X365543Y2102D01*
X365342Y2461D01*
X365997Y2788D01*
X366163Y2500D01*
X366348Y2250D01*
X366553Y2039D01*
X366776Y1866D01*
X367020Y1732D01*
X367282Y1636D01*
X367563Y1578D01*
X367864Y1559D01*
X368100Y1569D01*
X368324Y1600D01*
X368535Y1652D01*
X368733Y1724D01*
X368919Y1817D01*
X369093Y1931D01*
X369254Y2065D01*
X369402Y2220D01*
X369536Y2392D01*
X369651Y2577D01*
X369749Y2775D01*
X369829Y2987D01*
X369891Y3212D01*
X369935Y3451D01*
X369962Y3702D01*
X369971Y3967D01*
X369962Y4235D01*
X369937Y4488D01*
X369894Y4726D01*
X369834Y4950D01*
X369758Y5159D01*
X369664Y5353D01*
X369553Y5533D01*
X369425Y5698D01*
X369282Y5846D01*
X369125Y5975D01*
X368955Y6083D01*
X368771Y6172D01*
X368573Y6241D01*
X368362Y6290D01*
X368137Y6320D01*
X367898Y6330D01*
X367596Y6313D01*
X367315Y6262D01*
X367056Y6176D01*
X366817Y6057D01*
X366605Y5906D01*
X366425Y5724D01*
X366275Y5511D01*
X366157Y5268D01*
X365397Y5520D01*
X365567Y5861D01*
X365779Y6157D01*
X366033Y6408D01*
X366329Y6615D01*
X366665Y6777D01*
X367040Y6892D01*
X367454Y6961D01*
X367906Y6985D01*
X368235Y6972D01*
X368545Y6934D01*
X368837Y6872D01*
X369111Y6784D01*
X369366Y6671D01*
X369603Y6534D01*
X369821Y6371D01*
X370021Y6183D01*
X370200Y5973D01*
X370355Y5744D01*
X370487Y5496D01*
X370594Y5228D01*
X370677Y4942D01*
X370737Y4636D01*
X370773Y4311D01*
X370785Y3967D01*
X370764Y3511D01*
X370699Y3087D01*
X370593Y2694D01*
X370443Y2333D01*
X370252Y2008D01*
X370023Y1723D01*
X369755Y1477D01*
X369448Y1271D01*
X369107Y1109D01*
X368736Y993D01*
X368334Y923D01*
X367902Y900D01*
G37*
G36*
X364348Y984D02*
X360643Y984D01*
X360643Y1626D01*
X362082Y1626D01*
X362082Y6896D01*
X362779Y6896D01*
X364176Y5935D01*
X364176Y5222D01*
X362842Y6175D01*
X362842Y1626D01*
X364348Y1626D01*
X364348Y984D01*
G37*
G36*
X346559Y900D02*
X346309Y913D01*
X346074Y951D01*
X345854Y1015D01*
X345649Y1105D01*
X345458Y1220D01*
X345282Y1360D01*
X345121Y1527D01*
X344975Y1718D01*
X344845Y1934D01*
X344732Y2172D01*
X344636Y2431D01*
X344558Y2713D01*
X344497Y3017D01*
X344454Y3342D01*
X344428Y3690D01*
X344419Y4060D01*
X344427Y4414D01*
X344451Y4746D01*
X344490Y5055D01*
X344546Y5341D01*
X344617Y5604D01*
X344704Y5843D01*
X344808Y6060D01*
X344927Y6254D01*
X345061Y6426D01*
X345210Y6574D01*
X345375Y6699D01*
X345554Y6802D01*
X345748Y6882D01*
X345957Y6939D01*
X346181Y6973D01*
X346420Y6985D01*
X346646Y6976D01*
X346859Y6951D01*
X347059Y6910D01*
X347246Y6852D01*
X347421Y6777D01*
X347583Y6686D01*
X347732Y6578D01*
X347868Y6454D01*
X347990Y6315D01*
X348096Y6164D01*
X348185Y6000D01*
X348258Y5824D01*
X348315Y5635D01*
X348356Y5434D01*
X348380Y5221D01*
X348388Y4996D01*
X348381Y4776D01*
X348359Y4567D01*
X348321Y4369D01*
X348269Y4183D01*
X348202Y4007D01*
X348119Y3843D01*
X348022Y3690D01*
X347910Y3548D01*
X347786Y3420D01*
X347651Y3309D01*
X347506Y3215D01*
X347352Y3139D01*
X347188Y3079D01*
X347013Y3036D01*
X346829Y3011D01*
X346634Y3002D01*
X346396Y3017D01*
X346168Y3060D01*
X345949Y3131D01*
X345741Y3231D01*
X345552Y3355D01*
X345393Y3497D01*
X345265Y3658D01*
X345166Y3837D01*
X345195Y3309D01*
X345268Y2846D01*
X345320Y2639D01*
X345382Y2447D01*
X345455Y2272D01*
X345539Y2113D01*
X345633Y1971D01*
X345736Y1848D01*
X345848Y1745D01*
X345969Y1660D01*
X346100Y1593D01*
X346239Y1546D01*
X346388Y1518D01*
X346546Y1509D01*
X346731Y1520D01*
X346898Y1555D01*
X347049Y1612D01*
X347182Y1693D01*
X347298Y1797D01*
X347398Y1924D01*
X347480Y2074D01*
X347545Y2247D01*
X348267Y2134D01*
X348162Y1831D01*
X348027Y1573D01*
X347863Y1360D01*
X347669Y1192D01*
X347443Y1064D01*
X347183Y973D01*
X346888Y918D01*
X346559Y900D01*
G37*
%LPC*%
G36*
X346454Y3598D02*
X346709Y3622D01*
X346936Y3692D01*
X347135Y3809D01*
X347306Y3974D01*
X347444Y4178D01*
X347542Y4417D01*
X347601Y4689D01*
X347621Y4996D01*
X347601Y5296D01*
X347542Y5564D01*
X347444Y5798D01*
X347306Y6001D01*
X347134Y6163D01*
X346933Y6279D01*
X346704Y6349D01*
X346446Y6372D01*
X346312Y6365D01*
X346185Y6345D01*
X346065Y6311D01*
X345952Y6263D01*
X345746Y6128D01*
X345569Y5938D01*
X345425Y5703D01*
X345323Y5434D01*
X345262Y5129D01*
X345241Y4790D01*
X345251Y4621D01*
X345282Y4461D01*
X345332Y4310D01*
X345403Y4169D01*
X345491Y4040D01*
X345594Y3927D01*
X345712Y3829D01*
X345846Y3747D01*
X345989Y3682D01*
X346138Y3635D01*
X346293Y3608D01*
X346454Y3598D01*
G37*
%LPD*%
G36*
X356472Y900D02*
X356257Y906D01*
X356049Y925D01*
X355652Y1000D01*
X355282Y1124D01*
X354938Y1299D01*
X354626Y1521D01*
X354351Y1789D01*
X354113Y2102D01*
X353912Y2461D01*
X354567Y2788D01*
X354733Y2500D01*
X354918Y2250D01*
X355123Y2039D01*
X355346Y1866D01*
X355590Y1732D01*
X355852Y1636D01*
X356133Y1578D01*
X356434Y1559D01*
X356670Y1569D01*
X356894Y1600D01*
X357105Y1652D01*
X357303Y1724D01*
X357489Y1817D01*
X357663Y1931D01*
X357824Y2065D01*
X357972Y2220D01*
X358106Y2392D01*
X358221Y2577D01*
X358319Y2775D01*
X358399Y2987D01*
X358461Y3212D01*
X358505Y3451D01*
X358532Y3702D01*
X358541Y3967D01*
X358532Y4235D01*
X358507Y4488D01*
X358464Y4726D01*
X358404Y4950D01*
X358328Y5159D01*
X358234Y5353D01*
X358123Y5533D01*
X357995Y5698D01*
X357852Y5846D01*
X357695Y5975D01*
X357525Y6083D01*
X357341Y6172D01*
X357143Y6241D01*
X356932Y6290D01*
X356707Y6320D01*
X356468Y6330D01*
X356166Y6313D01*
X355885Y6262D01*
X355626Y6176D01*
X355387Y6057D01*
X355175Y5906D01*
X354995Y5724D01*
X354845Y5511D01*
X354727Y5268D01*
X353967Y5520D01*
X354137Y5861D01*
X354349Y6157D01*
X354603Y6408D01*
X354899Y6615D01*
X355235Y6777D01*
X355610Y6892D01*
X356024Y6961D01*
X356476Y6985D01*
X356805Y6972D01*
X357115Y6934D01*
X357407Y6872D01*
X357681Y6784D01*
X357936Y6671D01*
X358173Y6534D01*
X358391Y6371D01*
X358591Y6183D01*
X358770Y5973D01*
X358925Y5744D01*
X359057Y5496D01*
X359164Y5228D01*
X359247Y4942D01*
X359307Y4636D01*
X359343Y4311D01*
X359355Y3967D01*
X359334Y3511D01*
X359269Y3087D01*
X359163Y2694D01*
X359013Y2333D01*
X358822Y2008D01*
X358593Y1723D01*
X358325Y1477D01*
X358018Y1271D01*
X357677Y1109D01*
X357306Y993D01*
X356904Y923D01*
X356472Y900D01*
G37*
G36*
X352918Y984D02*
X349213Y984D01*
X349213Y1626D01*
X350652Y1626D01*
X350652Y6896D01*
X351349Y6896D01*
X352746Y5935D01*
X352746Y5222D01*
X351412Y6175D01*
X351412Y1626D01*
X352918Y1626D01*
X352918Y984D01*
G37*
G36*
X442918Y11176D02*
X442557Y11184D01*
X442218Y11208D01*
X441901Y11248D01*
X441607Y11304D01*
X441335Y11376D01*
X441085Y11464D01*
X440858Y11568D01*
X440652Y11688D01*
X440470Y11824D01*
X440313Y11975D01*
X440179Y12143D01*
X440070Y12326D01*
X439985Y12526D01*
X439925Y12741D01*
X439888Y12972D01*
X439876Y13219D01*
X439888Y13466D01*
X439925Y13698D01*
X439986Y13914D01*
X440071Y14115D01*
X440181Y14300D01*
X440315Y14469D01*
X440474Y14623D01*
X440657Y14761D01*
X440863Y14884D01*
X441091Y14990D01*
X441340Y15080D01*
X441612Y15153D01*
X441906Y15210D01*
X442221Y15251D01*
X442559Y15276D01*
X442918Y15284D01*
X443283Y15276D01*
X443625Y15253D01*
X443944Y15214D01*
X444240Y15159D01*
X444513Y15090D01*
X444763Y15004D01*
X444989Y14903D01*
X445193Y14786D01*
X445373Y14654D01*
X445529Y14504D01*
X445661Y14337D01*
X445769Y14152D01*
X445853Y13951D01*
X445913Y13733D01*
X445949Y13497D01*
X445961Y13244D01*
X445949Y12985D01*
X445913Y12743D01*
X445854Y12520D01*
X445771Y12314D01*
X445664Y12127D01*
X445533Y11958D01*
X445379Y11806D01*
X445201Y11673D01*
X444999Y11556D01*
X444774Y11455D01*
X444524Y11370D01*
X444251Y11300D01*
X443953Y11246D01*
X443632Y11207D01*
X443287Y11183D01*
X442918Y11176D01*
G37*
%LPC*%
G36*
X442918Y11939D02*
X443521Y11958D01*
X444032Y12015D01*
X444254Y12058D01*
X444453Y12111D01*
X444628Y12172D01*
X444781Y12244D01*
X444914Y12326D01*
X445029Y12420D01*
X445127Y12527D01*
X445206Y12646D01*
X445268Y12777D01*
X445312Y12921D01*
X445339Y13076D01*
X445348Y13244D01*
X445339Y13408D01*
X445312Y13560D01*
X445267Y13700D01*
X445204Y13828D01*
X445123Y13944D01*
X445025Y14048D01*
X444908Y14140D01*
X444773Y14220D01*
X444618Y14289D01*
X444442Y14349D01*
X444022Y14442D01*
X443514Y14497D01*
X442918Y14516D01*
X442341Y14496D01*
X441844Y14438D01*
X441427Y14341D01*
X441248Y14278D01*
X441089Y14205D01*
X440949Y14122D01*
X440828Y14028D01*
X440726Y13922D01*
X440642Y13806D01*
X440577Y13678D01*
X440530Y13539D01*
X440502Y13389D01*
X440493Y13228D01*
X440502Y13065D01*
X440529Y12915D01*
X440575Y12775D01*
X440639Y12647D01*
X440721Y12530D01*
X440821Y12425D01*
X440939Y12331D01*
X441076Y12248D01*
X441233Y12176D01*
X441410Y12113D01*
X441609Y12060D01*
X441828Y12017D01*
X442331Y11959D01*
X442918Y11939D01*
G37*
%LPD*%
G36*
X445872Y545D02*
X439960Y545D01*
X439960Y1346D01*
X442415Y1346D01*
X442415Y3189D01*
X439960Y4724D01*
X439960Y5647D01*
X441423Y4684D01*
X442507Y3969D01*
X442587Y4289D01*
X442707Y4572D01*
X442757Y4646D01*
X442870Y4818D01*
X443074Y5029D01*
X443311Y5197D01*
X443575Y5317D01*
X443865Y5389D01*
X444181Y5413D01*
X444375Y5404D01*
X444558Y5379D01*
X444730Y5336D01*
X444891Y5277D01*
X445041Y5200D01*
X445180Y5107D01*
X445308Y4996D01*
X445426Y4869D01*
X445530Y4726D01*
X445621Y4569D01*
X445698Y4398D01*
X445761Y4212D01*
X445810Y4012D01*
X445844Y3798D01*
X445865Y3570D01*
X445872Y3327D01*
X445872Y545D01*
G37*
%LPC*%
G36*
X445230Y1346D02*
X445230Y3247D01*
X445213Y3557D01*
X445163Y3829D01*
X445078Y4062D01*
X444960Y4256D01*
X444809Y4410D01*
X444628Y4519D01*
X444416Y4585D01*
X444173Y4607D01*
X443921Y4585D01*
X443699Y4520D01*
X443507Y4412D01*
X443344Y4261D01*
X443215Y4070D01*
X443122Y3843D01*
X443067Y3580D01*
X443048Y3281D01*
X443048Y1346D01*
X445230Y1346D01*
G37*
%LPD*%
G36*
X440602Y6713D02*
X439960Y6713D01*
X439960Y10419D01*
X440602Y10419D01*
X440602Y8979D01*
X445872Y8979D01*
X445872Y8283D01*
X444911Y6885D01*
X444198Y6885D01*
X445151Y8220D01*
X440602Y8220D01*
X440602Y6713D01*
G37*
G36*
X448412Y-9615D02*
X442500Y-9615D01*
X442500Y-8814D01*
X444955Y-8814D01*
X444955Y-6971D01*
X442500Y-5436D01*
X442500Y-4513D01*
X443963Y-5476D01*
X445047Y-6191D01*
X445127Y-5871D01*
X445247Y-5588D01*
X445297Y-5514D01*
X445410Y-5342D01*
X445614Y-5131D01*
X445851Y-4963D01*
X446115Y-4844D01*
X446405Y-4772D01*
X446721Y-4748D01*
X446915Y-4756D01*
X447098Y-4781D01*
X447270Y-4824D01*
X447431Y-4883D01*
X447581Y-4960D01*
X447720Y-5053D01*
X447848Y-5164D01*
X447966Y-5291D01*
X448070Y-5434D01*
X448161Y-5591D01*
X448238Y-5763D01*
X448301Y-5948D01*
X448350Y-6148D01*
X448384Y-6362D01*
X448405Y-6590D01*
X448412Y-6833D01*
X448412Y-9615D01*
G37*
%LPC*%
G36*
X447770Y-8814D02*
X447770Y-6913D01*
X447753Y-6603D01*
X447703Y-6331D01*
X447618Y-6098D01*
X447500Y-5904D01*
X447349Y-5750D01*
X447168Y-5641D01*
X446956Y-5575D01*
X446713Y-5553D01*
X446461Y-5575D01*
X446239Y-5640D01*
X446047Y-5748D01*
X445884Y-5899D01*
X445755Y-6090D01*
X445662Y-6317D01*
X445607Y-6580D01*
X445588Y-6879D01*
X445588Y-8814D01*
X447770Y-8814D01*
G37*
%LPD*%
G36*
X443142Y-3447D02*
X442500Y-3447D01*
X442500Y259D01*
X443142Y259D01*
X443142Y-1181D01*
X448412Y-1181D01*
X448412Y-1877D01*
X447451Y-3275D01*
X446738Y-3275D01*
X447691Y-1940D01*
X443142Y-1940D01*
X443142Y-3447D01*
G37*
G36*
X443142Y710D02*
X442500Y710D01*
X442500Y4415D01*
X443142Y4415D01*
X443142Y2976D01*
X448412Y2976D01*
X448412Y2279D01*
X447451Y882D01*
X446738Y882D01*
X447691Y2216D01*
X443142Y2216D01*
X443142Y710D01*
G37*
G36*
X439522Y-23585D02*
X433610Y-23585D01*
X433610Y-22784D01*
X436065Y-22784D01*
X436065Y-20941D01*
X433610Y-19406D01*
X433610Y-18483D01*
X435073Y-19446D01*
X436157Y-20161D01*
X436237Y-19841D01*
X436357Y-19558D01*
X436407Y-19484D01*
X436520Y-19312D01*
X436724Y-19101D01*
X436961Y-18933D01*
X437225Y-18814D01*
X437515Y-18742D01*
X437831Y-18718D01*
X438025Y-18726D01*
X438208Y-18751D01*
X438380Y-18794D01*
X438541Y-18853D01*
X438691Y-18930D01*
X438830Y-19023D01*
X438958Y-19134D01*
X439076Y-19261D01*
X439180Y-19404D01*
X439271Y-19561D01*
X439348Y-19733D01*
X439411Y-19918D01*
X439460Y-20118D01*
X439494Y-20332D01*
X439515Y-20560D01*
X439522Y-20803D01*
X439522Y-23585D01*
G37*
%LPC*%
G36*
X438880Y-22784D02*
X438880Y-20883D01*
X438863Y-20573D01*
X438813Y-20301D01*
X438728Y-20068D01*
X438610Y-19874D01*
X438459Y-19720D01*
X438278Y-19611D01*
X438066Y-19545D01*
X437823Y-19523D01*
X437571Y-19545D01*
X437349Y-19610D01*
X437157Y-19718D01*
X436994Y-19869D01*
X436865Y-20060D01*
X436772Y-20287D01*
X436717Y-20550D01*
X436698Y-20849D01*
X436698Y-22784D01*
X438880Y-22784D01*
G37*
%LPD*%
G36*
X434143Y-12858D02*
X433610Y-12858D01*
X433610Y-8943D01*
X434252Y-8943D01*
X434252Y-12027D01*
X434400Y-11954D01*
X434552Y-11861D01*
X434863Y-11616D01*
X435199Y-11281D01*
X435574Y-10848D01*
X436194Y-10112D01*
X436627Y-9660D01*
X436967Y-9388D01*
X437137Y-9281D01*
X437307Y-9192D01*
X437477Y-9124D01*
X437648Y-9074D01*
X437819Y-9045D01*
X437991Y-9035D01*
X438179Y-9043D01*
X438357Y-9065D01*
X438523Y-9103D01*
X438678Y-9155D01*
X438823Y-9223D01*
X438956Y-9305D01*
X439078Y-9403D01*
X439189Y-9516D01*
X439288Y-9642D01*
X439373Y-9782D01*
X439446Y-9934D01*
X439505Y-10099D01*
X439551Y-10278D01*
X439584Y-10469D01*
X439604Y-10673D01*
X439611Y-10890D01*
X439604Y-11089D01*
X439584Y-11278D01*
X439552Y-11459D01*
X439506Y-11630D01*
X439447Y-11792D01*
X439374Y-11945D01*
X439191Y-12222D01*
X438963Y-12454D01*
X438835Y-12550D01*
X438699Y-12632D01*
X438553Y-12700D01*
X438399Y-12755D01*
X438235Y-12796D01*
X438062Y-12824D01*
X437991Y-12052D01*
X438215Y-12009D01*
X438412Y-11933D01*
X438583Y-11825D01*
X438727Y-11685D01*
X438842Y-11518D01*
X438924Y-11330D01*
X438973Y-11120D01*
X438989Y-10890D01*
X438973Y-10650D01*
X438922Y-10438D01*
X438838Y-10253D01*
X438721Y-10097D01*
X438573Y-9972D01*
X438398Y-9883D01*
X438195Y-9829D01*
X437966Y-9811D01*
X437790Y-9822D01*
X437624Y-9853D01*
X437467Y-9905D01*
X437319Y-9977D01*
X437040Y-10169D01*
X436774Y-10411D01*
X436514Y-10696D01*
X436254Y-11014D01*
X435689Y-11687D01*
X435367Y-12019D01*
X435009Y-12335D01*
X434814Y-12484D01*
X434605Y-12620D01*
X434381Y-12745D01*
X434143Y-12858D01*
G37*
G36*
X434252Y-17417D02*
X433610Y-17417D01*
X433610Y-13711D01*
X434252Y-13711D01*
X434252Y-15151D01*
X439522Y-15151D01*
X439522Y-15847D01*
X438561Y-17245D01*
X437848Y-17245D01*
X438801Y-15910D01*
X434252Y-15910D01*
X434252Y-17417D01*
G37*
G36*
X322061Y-7164D02*
X321814Y-7152D01*
X321582Y-7115D01*
X321366Y-7054D01*
X321165Y-6969D01*
X320980Y-6859D01*
X320811Y-6725D01*
X320657Y-6566D01*
X320519Y-6383D01*
X320396Y-6177D01*
X320290Y-5949D01*
X320200Y-5700D01*
X320127Y-5428D01*
X320070Y-5134D01*
X320029Y-4819D01*
X320004Y-4481D01*
X319996Y-4122D01*
X320004Y-3757D01*
X320027Y-3415D01*
X320066Y-3096D01*
X320121Y-2800D01*
X320191Y-2527D01*
X320276Y-2278D01*
X320377Y-2051D01*
X320494Y-1847D01*
X320626Y-1667D01*
X320776Y-1511D01*
X320943Y-1379D01*
X321128Y-1271D01*
X321329Y-1187D01*
X321547Y-1128D01*
X321783Y-1092D01*
X322036Y-1080D01*
X322295Y-1091D01*
X322537Y-1127D01*
X322760Y-1186D01*
X322966Y-1269D01*
X323153Y-1376D01*
X323322Y-1507D01*
X323474Y-1661D01*
X323607Y-1839D01*
X323724Y-2041D01*
X323825Y-2267D01*
X323910Y-2516D01*
X323980Y-2789D01*
X324034Y-3087D01*
X324073Y-3408D01*
X324097Y-3753D01*
X324104Y-4122D01*
X324096Y-4483D01*
X324072Y-4822D01*
X324032Y-5139D01*
X323976Y-5433D01*
X323904Y-5705D01*
X323816Y-5955D01*
X323712Y-6182D01*
X323592Y-6388D01*
X323456Y-6570D01*
X323305Y-6727D01*
X323137Y-6861D01*
X322954Y-6970D01*
X322754Y-7055D01*
X322539Y-7115D01*
X322308Y-7152D01*
X322061Y-7164D01*
G37*
%LPC*%
G36*
X322052Y-6547D02*
X322215Y-6538D01*
X322365Y-6511D01*
X322505Y-6465D01*
X322633Y-6401D01*
X322750Y-6319D01*
X322855Y-6219D01*
X322949Y-6101D01*
X323032Y-5964D01*
X323105Y-5807D01*
X323167Y-5630D01*
X323220Y-5431D01*
X323264Y-5212D01*
X323321Y-4709D01*
X323341Y-4122D01*
X323322Y-3519D01*
X323265Y-3008D01*
X323222Y-2786D01*
X323170Y-2588D01*
X323108Y-2412D01*
X323036Y-2259D01*
X322954Y-2126D01*
X322860Y-2011D01*
X322753Y-1913D01*
X322634Y-1834D01*
X322503Y-1772D01*
X322359Y-1728D01*
X322204Y-1701D01*
X322036Y-1692D01*
X321872Y-1701D01*
X321720Y-1728D01*
X321580Y-1773D01*
X321452Y-1836D01*
X321336Y-1917D01*
X321232Y-2016D01*
X321140Y-2132D01*
X321060Y-2267D01*
X320991Y-2422D01*
X320931Y-2599D01*
X320838Y-3018D01*
X320783Y-3526D01*
X320764Y-4122D01*
X320784Y-4699D01*
X320842Y-5196D01*
X320939Y-5613D01*
X321002Y-5792D01*
X321075Y-5951D01*
X321158Y-6091D01*
X321252Y-6212D01*
X321358Y-6314D01*
X321474Y-6398D01*
X321602Y-6463D01*
X321741Y-6510D01*
X321891Y-6538D01*
X322052Y-6547D01*
G37*
%LPD*%
G36*
X332121Y-7164D02*
X331906Y-7158D01*
X331698Y-7139D01*
X331301Y-7064D01*
X330931Y-6940D01*
X330587Y-6765D01*
X330275Y-6543D01*
X330000Y-6275D01*
X329762Y-5962D01*
X329561Y-5603D01*
X330216Y-5276D01*
X330382Y-5564D01*
X330567Y-5814D01*
X330771Y-6025D01*
X330995Y-6198D01*
X331238Y-6332D01*
X331501Y-6428D01*
X331782Y-6486D01*
X332083Y-6505D01*
X332319Y-6495D01*
X332543Y-6464D01*
X332754Y-6412D01*
X332952Y-6340D01*
X333138Y-6247D01*
X333312Y-6133D01*
X333473Y-5999D01*
X333621Y-5844D01*
X333754Y-5672D01*
X333870Y-5487D01*
X333967Y-5289D01*
X334047Y-5077D01*
X334110Y-4852D01*
X334154Y-4613D01*
X334181Y-4362D01*
X334190Y-4097D01*
X334181Y-3829D01*
X334155Y-3576D01*
X334113Y-3338D01*
X334053Y-3114D01*
X333976Y-2905D01*
X333883Y-2711D01*
X333772Y-2531D01*
X333644Y-2366D01*
X333501Y-2218D01*
X333344Y-2089D01*
X333174Y-1981D01*
X332989Y-1892D01*
X332792Y-1823D01*
X332580Y-1774D01*
X332355Y-1744D01*
X332117Y-1734D01*
X331815Y-1751D01*
X331534Y-1802D01*
X331274Y-1888D01*
X331036Y-2007D01*
X330824Y-2158D01*
X330643Y-2340D01*
X330494Y-2553D01*
X330375Y-2796D01*
X329616Y-2544D01*
X329786Y-2203D01*
X329998Y-1907D01*
X330251Y-1656D01*
X330547Y-1449D01*
X330884Y-1287D01*
X331259Y-1172D01*
X331672Y-1103D01*
X332125Y-1080D01*
X332454Y-1092D01*
X332764Y-1130D01*
X333056Y-1192D01*
X333329Y-1280D01*
X333585Y-1393D01*
X333821Y-1530D01*
X334040Y-1693D01*
X334240Y-1881D01*
X334419Y-2091D01*
X334574Y-2320D01*
X334705Y-2568D01*
X334813Y-2836D01*
X334896Y-3122D01*
X334956Y-3428D01*
X334992Y-3753D01*
X335004Y-4097D01*
X334982Y-4553D01*
X334918Y-4977D01*
X334811Y-5370D01*
X334662Y-5731D01*
X334471Y-6056D01*
X334242Y-6342D01*
X333974Y-6587D01*
X333667Y-6793D01*
X333326Y-6955D01*
X332954Y-7071D01*
X332553Y-7141D01*
X332121Y-7164D01*
G37*
G36*
X328789Y-7080D02*
X324874Y-7080D01*
X324874Y-6438D01*
X327958Y-6438D01*
X327885Y-6290D01*
X327792Y-6139D01*
X327547Y-5827D01*
X327212Y-5491D01*
X326779Y-5116D01*
X326044Y-4496D01*
X325592Y-4063D01*
X325319Y-3723D01*
X325212Y-3553D01*
X325124Y-3383D01*
X325055Y-3213D01*
X325006Y-3042D01*
X324976Y-2871D01*
X324966Y-2699D01*
X324974Y-2511D01*
X324996Y-2333D01*
X325034Y-2167D01*
X325086Y-2012D01*
X325154Y-1867D01*
X325237Y-1734D01*
X325334Y-1612D01*
X325447Y-1501D01*
X325573Y-1402D01*
X325713Y-1317D01*
X325865Y-1244D01*
X326031Y-1185D01*
X326209Y-1139D01*
X326400Y-1106D01*
X326604Y-1086D01*
X326821Y-1080D01*
X327020Y-1086D01*
X327210Y-1106D01*
X327390Y-1139D01*
X327561Y-1184D01*
X327723Y-1243D01*
X327876Y-1316D01*
X328153Y-1499D01*
X328385Y-1727D01*
X328481Y-1855D01*
X328563Y-1991D01*
X328631Y-2137D01*
X328686Y-2291D01*
X328728Y-2455D01*
X328756Y-2628D01*
X327983Y-2699D01*
X327940Y-2475D01*
X327864Y-2278D01*
X327756Y-2107D01*
X327616Y-1963D01*
X327449Y-1848D01*
X327261Y-1766D01*
X327052Y-1717D01*
X326821Y-1701D01*
X326581Y-1717D01*
X326369Y-1768D01*
X326185Y-1852D01*
X326028Y-1969D01*
X325903Y-2117D01*
X325814Y-2292D01*
X325760Y-2495D01*
X325743Y-2724D01*
X325753Y-2900D01*
X325784Y-3066D01*
X325836Y-3223D01*
X325908Y-3371D01*
X326100Y-3650D01*
X326343Y-3916D01*
X326628Y-4176D01*
X326945Y-4436D01*
X327618Y-5001D01*
X327950Y-5323D01*
X328267Y-5681D01*
X328415Y-5876D01*
X328551Y-6085D01*
X328676Y-6309D01*
X328789Y-6547D01*
X328789Y-7080D01*
G37*
G36*
X320691Y-7164D02*
X320476Y-7158D01*
X320268Y-7139D01*
X319871Y-7064D01*
X319501Y-6940D01*
X319157Y-6765D01*
X318845Y-6543D01*
X318570Y-6275D01*
X318332Y-5962D01*
X318131Y-5603D01*
X318786Y-5276D01*
X318952Y-5564D01*
X319137Y-5814D01*
X319341Y-6025D01*
X319565Y-6198D01*
X319808Y-6332D01*
X320071Y-6428D01*
X320352Y-6486D01*
X320653Y-6505D01*
X320889Y-6495D01*
X321113Y-6464D01*
X321324Y-6412D01*
X321522Y-6340D01*
X321708Y-6247D01*
X321882Y-6133D01*
X322043Y-5999D01*
X322191Y-5844D01*
X322324Y-5672D01*
X322440Y-5487D01*
X322537Y-5289D01*
X322617Y-5077D01*
X322680Y-4852D01*
X322724Y-4613D01*
X322751Y-4362D01*
X322760Y-4097D01*
X322751Y-3829D01*
X322725Y-3576D01*
X322683Y-3338D01*
X322623Y-3114D01*
X322546Y-2905D01*
X322453Y-2711D01*
X322342Y-2531D01*
X322214Y-2366D01*
X322071Y-2218D01*
X321914Y-2089D01*
X321744Y-1981D01*
X321559Y-1892D01*
X321362Y-1823D01*
X321150Y-1774D01*
X320925Y-1744D01*
X320687Y-1734D01*
X320385Y-1751D01*
X320104Y-1802D01*
X319844Y-1888D01*
X319606Y-2007D01*
X319394Y-2158D01*
X319213Y-2340D01*
X319064Y-2553D01*
X318945Y-2796D01*
X318186Y-2544D01*
X318356Y-2203D01*
X318568Y-1907D01*
X318821Y-1656D01*
X319117Y-1449D01*
X319454Y-1287D01*
X319829Y-1172D01*
X320242Y-1103D01*
X320695Y-1080D01*
X321024Y-1092D01*
X321334Y-1130D01*
X321626Y-1192D01*
X321899Y-1280D01*
X322155Y-1393D01*
X322391Y-1530D01*
X322610Y-1693D01*
X322810Y-1881D01*
X322989Y-2091D01*
X323144Y-2320D01*
X323275Y-2568D01*
X323383Y-2836D01*
X323466Y-3122D01*
X323526Y-3428D01*
X323562Y-3753D01*
X323574Y-4097D01*
X323552Y-4553D01*
X323488Y-4977D01*
X323381Y-5370D01*
X323232Y-5731D01*
X323041Y-6056D01*
X322812Y-6342D01*
X322544Y-6587D01*
X322237Y-6793D01*
X321896Y-6955D01*
X321524Y-7071D01*
X321123Y-7141D01*
X320691Y-7164D01*
G37*
G36*
X317359Y-7080D02*
X313444Y-7080D01*
X313444Y-6438D01*
X316528Y-6438D01*
X316455Y-6290D01*
X316362Y-6139D01*
X316117Y-5827D01*
X315782Y-5491D01*
X315349Y-5116D01*
X314614Y-4496D01*
X314162Y-4063D01*
X313889Y-3723D01*
X313782Y-3553D01*
X313694Y-3383D01*
X313625Y-3213D01*
X313576Y-3042D01*
X313546Y-2871D01*
X313536Y-2699D01*
X313544Y-2511D01*
X313566Y-2333D01*
X313604Y-2167D01*
X313656Y-2012D01*
X313724Y-1867D01*
X313807Y-1734D01*
X313904Y-1612D01*
X314017Y-1501D01*
X314143Y-1402D01*
X314283Y-1317D01*
X314435Y-1244D01*
X314601Y-1185D01*
X314779Y-1139D01*
X314970Y-1106D01*
X315174Y-1086D01*
X315391Y-1080D01*
X315590Y-1086D01*
X315780Y-1106D01*
X315960Y-1139D01*
X316131Y-1184D01*
X316293Y-1243D01*
X316446Y-1316D01*
X316723Y-1499D01*
X316955Y-1727D01*
X317051Y-1855D01*
X317133Y-1991D01*
X317201Y-2137D01*
X317256Y-2291D01*
X317298Y-2455D01*
X317326Y-2628D01*
X316553Y-2699D01*
X316510Y-2475D01*
X316434Y-2278D01*
X316326Y-2107D01*
X316186Y-1963D01*
X316019Y-1848D01*
X315831Y-1766D01*
X315622Y-1717D01*
X315391Y-1701D01*
X315151Y-1717D01*
X314939Y-1768D01*
X314755Y-1852D01*
X314598Y-1969D01*
X314473Y-2117D01*
X314384Y-2292D01*
X314330Y-2495D01*
X314313Y-2724D01*
X314323Y-2900D01*
X314354Y-3066D01*
X314406Y-3223D01*
X314478Y-3371D01*
X314670Y-3650D01*
X314913Y-3916D01*
X315198Y-4176D01*
X315515Y-4436D01*
X316188Y-5001D01*
X316520Y-5323D01*
X316837Y-5681D01*
X316985Y-5876D01*
X317121Y-6085D01*
X317246Y-6309D01*
X317359Y-6547D01*
X317359Y-7080D01*
G37*
G36*
X312355Y-7080D02*
X308650Y-7080D01*
X308650Y-6438D01*
X310089Y-6438D01*
X310089Y-1168D01*
X310786Y-1168D01*
X312183Y-2129D01*
X312183Y-2842D01*
X310849Y-1889D01*
X310849Y-6438D01*
X312355Y-6438D01*
X312355Y-7080D01*
G37*
G36*
X540253Y39046D02*
X539887Y39063D01*
X539547Y39115D01*
X539232Y39201D01*
X538941Y39321D01*
X538679Y39474D01*
X538448Y39657D01*
X538249Y39871D01*
X538081Y40116D01*
X537948Y40389D01*
X537853Y40686D01*
X537796Y41008D01*
X537777Y41354D01*
X537777Y45042D01*
X538574Y45042D01*
X538574Y41400D01*
X538581Y41198D01*
X538602Y41008D01*
X538636Y40830D01*
X538685Y40665D01*
X538747Y40513D01*
X538823Y40373D01*
X538913Y40246D01*
X539017Y40131D01*
X539133Y40029D01*
X539260Y39941D01*
X539399Y39866D01*
X539548Y39805D01*
X539709Y39758D01*
X539880Y39724D01*
X540063Y39703D01*
X540257Y39696D01*
X540445Y39703D01*
X540622Y39723D01*
X540788Y39755D01*
X540942Y39801D01*
X541085Y39860D01*
X541216Y39933D01*
X541336Y40018D01*
X541444Y40116D01*
X541541Y40227D01*
X541624Y40350D01*
X541695Y40486D01*
X541753Y40633D01*
X541798Y40793D01*
X541830Y40965D01*
X541849Y41149D01*
X541856Y41346D01*
X541856Y45042D01*
X542657Y45042D01*
X542657Y41278D01*
X542638Y40942D01*
X542583Y40630D01*
X542489Y40342D01*
X542359Y40078D01*
X542195Y39842D01*
X542000Y39635D01*
X541775Y39458D01*
X541520Y39310D01*
X541238Y39195D01*
X540932Y39112D01*
X540604Y39063D01*
X540253Y39046D01*
G37*
G36*
X532290Y39130D02*
X528585Y39130D01*
X528585Y39772D01*
X530024Y39772D01*
X530024Y45042D01*
X530721Y45042D01*
X532118Y44081D01*
X532118Y43368D01*
X530784Y44321D01*
X530784Y39772D01*
X532290Y39772D01*
X532290Y39130D01*
G37*
G36*
X536447Y39130D02*
X532741Y39130D01*
X532741Y39772D01*
X534181Y39772D01*
X534181Y45042D01*
X534877Y45042D01*
X536275Y44081D01*
X536275Y43368D01*
X534940Y44321D01*
X534940Y39772D01*
X536447Y39772D01*
X536447Y39130D01*
G37*
G36*
X548742Y11975D02*
X542830Y11975D01*
X542830Y12776D01*
X545285Y12776D01*
X545285Y14619D01*
X542830Y16154D01*
X542830Y17077D01*
X544293Y16114D01*
X545377Y15399D01*
X545457Y15719D01*
X545577Y16002D01*
X545627Y16076D01*
X545740Y16248D01*
X545944Y16459D01*
X546181Y16627D01*
X546445Y16747D01*
X546735Y16819D01*
X547051Y16843D01*
X547245Y16834D01*
X547428Y16809D01*
X547600Y16766D01*
X547761Y16707D01*
X547911Y16630D01*
X548050Y16537D01*
X548178Y16426D01*
X548296Y16299D01*
X548400Y16156D01*
X548491Y15999D01*
X548568Y15828D01*
X548631Y15642D01*
X548680Y15442D01*
X548714Y15228D01*
X548735Y15000D01*
X548742Y14757D01*
X548742Y11975D01*
G37*
%LPC*%
G36*
X548100Y12776D02*
X548100Y14677D01*
X548083Y14987D01*
X548033Y15259D01*
X547948Y15492D01*
X547830Y15686D01*
X547679Y15840D01*
X547498Y15949D01*
X547286Y16015D01*
X547043Y16037D01*
X546791Y16015D01*
X546569Y15950D01*
X546377Y15842D01*
X546214Y15691D01*
X546085Y15500D01*
X545992Y15273D01*
X545937Y15010D01*
X545918Y14711D01*
X545918Y12776D01*
X548100Y12776D01*
G37*
%LPD*%
G36*
X544349Y22597D02*
X544157Y22629D01*
X543977Y22675D01*
X543809Y22734D01*
X543653Y22807D01*
X543509Y22893D01*
X543378Y22993D01*
X543258Y23106D01*
X543151Y23233D01*
X543056Y23372D01*
X542974Y23523D01*
X542904Y23685D01*
X542847Y23859D01*
X542803Y24044D01*
X542771Y24240D01*
X542752Y24447D01*
X542746Y24666D01*
X542753Y24900D01*
X542774Y25121D01*
X542809Y25327D01*
X542858Y25520D01*
X542921Y25699D01*
X542999Y25863D01*
X543090Y26014D01*
X543195Y26151D01*
X543313Y26273D01*
X543443Y26379D01*
X543584Y26469D01*
X543736Y26542D01*
X543901Y26599D01*
X544076Y26639D01*
X544264Y26664D01*
X544462Y26672D01*
X544733Y26649D01*
X544981Y26579D01*
X545203Y26464D01*
X545402Y26303D01*
X545570Y26100D01*
X545700Y25860D01*
X545792Y25583D01*
X545847Y25270D01*
X545864Y25270D01*
X545941Y25554D01*
X546047Y25803D01*
X546181Y26015D01*
X546344Y26191D01*
X546535Y26330D01*
X546752Y26429D01*
X546995Y26488D01*
X547265Y26508D01*
X547445Y26500D01*
X547614Y26477D01*
X547774Y26439D01*
X547923Y26385D01*
X548061Y26316D01*
X548190Y26231D01*
X548309Y26131D01*
X548417Y26015D01*
X548514Y25886D01*
X548598Y25744D01*
X548669Y25590D01*
X548727Y25423D01*
X548772Y25244D01*
X548805Y25052D01*
X548824Y24849D01*
X548831Y24632D01*
X548824Y24434D01*
X548805Y24244D01*
X548773Y24064D01*
X548729Y23892D01*
X548672Y23730D01*
X548602Y23578D01*
X548423Y23300D01*
X548317Y23177D01*
X548200Y23068D01*
X548073Y22973D01*
X547937Y22891D01*
X547790Y22822D01*
X547634Y22767D01*
X547467Y22726D01*
X547291Y22698D01*
X547232Y23458D01*
X547452Y23499D01*
X547645Y23572D01*
X547812Y23678D01*
X547954Y23816D01*
X548066Y23982D01*
X548145Y24172D01*
X548193Y24386D01*
X548209Y24624D01*
X548192Y24882D01*
X548141Y25106D01*
X548055Y25296D01*
X547935Y25453D01*
X547785Y25575D01*
X547610Y25662D01*
X547410Y25714D01*
X547186Y25732D01*
X546959Y25710D01*
X546759Y25646D01*
X546585Y25539D01*
X546437Y25390D01*
X546318Y25201D01*
X546234Y24978D01*
X546183Y24720D01*
X546166Y24427D01*
X546166Y24016D01*
X545511Y24016D01*
X545511Y24444D01*
X545494Y24773D01*
X545444Y25062D01*
X545359Y25309D01*
X545241Y25516D01*
X545092Y25678D01*
X544917Y25794D01*
X544716Y25864D01*
X544487Y25887D01*
X544228Y25867D01*
X544002Y25806D01*
X543810Y25704D01*
X543652Y25562D01*
X543529Y25384D01*
X543442Y25175D01*
X543389Y24936D01*
X543371Y24666D01*
X543388Y24397D01*
X543437Y24159D01*
X543519Y23952D01*
X543634Y23775D01*
X543781Y23630D01*
X543961Y23515D01*
X544174Y23431D01*
X544420Y23378D01*
X544349Y22597D01*
G37*
G36*
X543472Y18143D02*
X542830Y18143D01*
X542830Y21849D01*
X543472Y21849D01*
X543472Y20409D01*
X548742Y20409D01*
X548742Y19713D01*
X547781Y18315D01*
X547068Y18315D01*
X548021Y19650D01*
X543472Y19650D01*
X543472Y18143D01*
G37*
G36*
X526034Y-42770D02*
X525669Y-42753D01*
X525328Y-42701D01*
X525013Y-42615D01*
X524723Y-42495D01*
X524460Y-42342D01*
X524230Y-42159D01*
X524030Y-41945D01*
X523862Y-41700D01*
X523729Y-41427D01*
X523634Y-41130D01*
X523577Y-40809D01*
X523558Y-40462D01*
X523558Y-36774D01*
X524355Y-36774D01*
X524355Y-40416D01*
X524362Y-40618D01*
X524383Y-40808D01*
X524418Y-40986D01*
X524466Y-41151D01*
X524528Y-41303D01*
X524604Y-41443D01*
X524694Y-41570D01*
X524798Y-41685D01*
X524914Y-41787D01*
X525042Y-41875D01*
X525180Y-41950D01*
X525329Y-42011D01*
X525490Y-42058D01*
X525662Y-42092D01*
X525844Y-42113D01*
X526038Y-42120D01*
X526226Y-42113D01*
X526403Y-42093D01*
X526569Y-42061D01*
X526723Y-42015D01*
X526866Y-41956D01*
X526997Y-41884D01*
X527117Y-41798D01*
X527226Y-41700D01*
X527322Y-41589D01*
X527406Y-41466D01*
X527476Y-41330D01*
X527534Y-41183D01*
X527579Y-41023D01*
X527611Y-40851D01*
X527630Y-40667D01*
X527637Y-40470D01*
X527637Y-36774D01*
X528438Y-36774D01*
X528438Y-40538D01*
X528420Y-40874D01*
X528364Y-41186D01*
X528271Y-41474D01*
X528140Y-41738D01*
X527976Y-41975D01*
X527782Y-42181D01*
X527557Y-42358D01*
X527301Y-42506D01*
X527019Y-42621D01*
X526714Y-42704D01*
X526385Y-42753D01*
X526034Y-42770D01*
G37*
G36*
X517669Y-42686D02*
X513754Y-42686D01*
X513754Y-42044D01*
X516838Y-42044D01*
X516765Y-41896D01*
X516672Y-41745D01*
X516427Y-41433D01*
X516092Y-41097D01*
X515659Y-40722D01*
X514924Y-40102D01*
X514472Y-39669D01*
X514199Y-39329D01*
X514092Y-39159D01*
X514004Y-38989D01*
X513935Y-38819D01*
X513886Y-38648D01*
X513856Y-38477D01*
X513846Y-38305D01*
X513854Y-38117D01*
X513876Y-37939D01*
X513914Y-37773D01*
X513966Y-37618D01*
X514034Y-37473D01*
X514117Y-37340D01*
X514214Y-37218D01*
X514327Y-37107D01*
X514453Y-37008D01*
X514593Y-36923D01*
X514745Y-36850D01*
X514911Y-36791D01*
X515089Y-36745D01*
X515280Y-36712D01*
X515484Y-36692D01*
X515701Y-36686D01*
X515900Y-36692D01*
X516090Y-36712D01*
X516270Y-36745D01*
X516441Y-36790D01*
X516603Y-36849D01*
X516756Y-36922D01*
X517033Y-37105D01*
X517265Y-37333D01*
X517361Y-37461D01*
X517443Y-37597D01*
X517511Y-37743D01*
X517566Y-37897D01*
X517608Y-38061D01*
X517636Y-38234D01*
X516863Y-38305D01*
X516820Y-38081D01*
X516744Y-37884D01*
X516636Y-37713D01*
X516496Y-37569D01*
X516329Y-37454D01*
X516141Y-37372D01*
X515932Y-37323D01*
X515701Y-37307D01*
X515461Y-37323D01*
X515249Y-37374D01*
X515065Y-37458D01*
X514908Y-37575D01*
X514783Y-37723D01*
X514694Y-37898D01*
X514640Y-38101D01*
X514623Y-38330D01*
X514633Y-38506D01*
X514664Y-38672D01*
X514716Y-38829D01*
X514788Y-38977D01*
X514980Y-39256D01*
X515223Y-39522D01*
X515508Y-39782D01*
X515825Y-40042D01*
X516498Y-40607D01*
X516830Y-40929D01*
X517147Y-41287D01*
X517295Y-41482D01*
X517431Y-41691D01*
X517556Y-41915D01*
X517669Y-42153D01*
X517669Y-42686D01*
G37*
G36*
X522228Y-42686D02*
X518523Y-42686D01*
X518523Y-42044D01*
X519962Y-42044D01*
X519962Y-36774D01*
X520659Y-36774D01*
X522056Y-37735D01*
X522056Y-38448D01*
X520722Y-37495D01*
X520722Y-42044D01*
X522228Y-42044D01*
X522228Y-42686D01*
G37*
G36*
X513626Y-23806D02*
X507714Y-23806D01*
X507714Y-23005D01*
X510169Y-23005D01*
X510169Y-21163D01*
X507714Y-19627D01*
X507714Y-18704D01*
X509177Y-19668D01*
X510261Y-20382D01*
X510341Y-20063D01*
X510461Y-19780D01*
X510511Y-19705D01*
X510624Y-19533D01*
X510828Y-19323D01*
X511065Y-19155D01*
X511329Y-19035D01*
X511619Y-18963D01*
X511935Y-18939D01*
X512129Y-18947D01*
X512312Y-18973D01*
X512484Y-19015D01*
X512645Y-19075D01*
X512795Y-19151D01*
X512934Y-19244D01*
X513062Y-19355D01*
X513180Y-19482D01*
X513284Y-19625D01*
X513375Y-19782D01*
X513452Y-19954D01*
X513515Y-20139D01*
X513564Y-20339D01*
X513598Y-20553D01*
X513619Y-20782D01*
X513626Y-21024D01*
X513626Y-23806D01*
G37*
%LPC*%
G36*
X512984Y-23005D02*
X512984Y-21104D01*
X512967Y-20794D01*
X512917Y-20522D01*
X512832Y-20289D01*
X512714Y-20095D01*
X512563Y-19942D01*
X512382Y-19832D01*
X512170Y-19766D01*
X511927Y-19744D01*
X511675Y-19766D01*
X511453Y-19831D01*
X511261Y-19939D01*
X511098Y-20091D01*
X510969Y-20282D01*
X510876Y-20509D01*
X510821Y-20772D01*
X510802Y-21070D01*
X510802Y-23005D01*
X512984Y-23005D01*
G37*
%LPD*%
G36*
X509640Y-13314D02*
X509053Y-13314D01*
X509053Y-10528D01*
X507714Y-10528D01*
X507714Y-9814D01*
X509053Y-9814D01*
X509053Y-8984D01*
X509648Y-8984D01*
X509648Y-9814D01*
X513626Y-9814D01*
X513626Y-10608D01*
X509640Y-13314D01*
G37*
%LPC*%
G36*
X509648Y-12617D02*
X509732Y-12550D01*
X510043Y-12324D01*
X512275Y-10809D01*
X512552Y-10645D01*
X512775Y-10528D01*
X509648Y-10528D01*
X509648Y-12617D01*
G37*
%LPD*%
G36*
X508356Y-17638D02*
X507714Y-17638D01*
X507714Y-13933D01*
X508356Y-13933D01*
X508356Y-15372D01*
X513626Y-15372D01*
X513626Y-16069D01*
X512665Y-17466D01*
X511952Y-17466D01*
X512905Y-16132D01*
X508356Y-16132D01*
X508356Y-17638D01*
G37*
D10*
X252200Y-7492D02*
X281200Y-7492D01*
X281200Y8508D01*
X252200Y8508D01*
X252200Y-7492D01*
D11*
X246380Y10668D02*
X246382Y10768D01*
X246388Y10869D01*
X246398Y10968D01*
X246412Y11068D01*
X246429Y11167D01*
X246451Y11265D01*
X246477Y11362D01*
X246506Y11458D01*
X246539Y11552D01*
X246576Y11646D01*
X246616Y11738D01*
X246660Y11828D01*
X246708Y11916D01*
X246759Y12003D01*
X246813Y12087D01*
X246871Y12169D01*
X246932Y12249D01*
X246996Y12326D01*
X247063Y12401D01*
X247133Y12473D01*
X247206Y12542D01*
X247281Y12608D01*
X247359Y12672D01*
X247439Y12732D01*
X247522Y12789D01*
X247607Y12842D01*
X247694Y12892D01*
X247783Y12939D01*
X247873Y12982D01*
X247965Y13022D01*
X248059Y13058D01*
X248154Y13090D01*
X248250Y13118D01*
X248348Y13143D01*
X248446Y13163D01*
X248545Y13180D01*
X248645Y13193D01*
X248744Y13202D01*
X248845Y13207D01*
X248945Y13208D01*
X249045Y13205D01*
X249146Y13198D01*
X249245Y13187D01*
X249345Y13172D01*
X249443Y13154D01*
X249541Y13131D01*
X249638Y13104D01*
X249733Y13074D01*
X249828Y13040D01*
X249921Y13002D01*
X250012Y12961D01*
X250102Y12916D01*
X250190Y12868D01*
X250276Y12816D01*
X250360Y12761D01*
X250441Y12702D01*
X250520Y12640D01*
X250597Y12576D01*
X250671Y12508D01*
X250742Y12437D01*
X250811Y12364D01*
X250876Y12288D01*
X250939Y12209D01*
X250998Y12128D01*
X251054Y12045D01*
X251107Y11960D01*
X251156Y11872D01*
X251202Y11783D01*
X251244Y11692D01*
X251283Y11599D01*
X251318Y11505D01*
X251349Y11410D01*
X251377Y11313D01*
X251400Y11216D01*
X251420Y11117D01*
X251436Y11018D01*
X251448Y10919D01*
X251456Y10818D01*
X251460Y10718D01*
X251460Y10618D01*
X251456Y10518D01*
X251448Y10417D01*
X251436Y10318D01*
X251420Y10219D01*
X251400Y10120D01*
X251377Y10023D01*
X251349Y9926D01*
X251318Y9831D01*
X251283Y9737D01*
X251244Y9644D01*
X251202Y9553D01*
X251156Y9464D01*
X251107Y9376D01*
X251054Y9291D01*
X250998Y9208D01*
X250939Y9127D01*
X250876Y9048D01*
X250811Y8972D01*
X250742Y8899D01*
X250671Y8828D01*
X250597Y8760D01*
X250520Y8696D01*
X250441Y8634D01*
X250360Y8575D01*
X250276Y8520D01*
X250190Y8468D01*
X250102Y8420D01*
X250012Y8375D01*
X249921Y8334D01*
X249828Y8296D01*
X249733Y8262D01*
X249638Y8232D01*
X249541Y8205D01*
X249443Y8182D01*
X249345Y8164D01*
X249245Y8149D01*
X249146Y8138D01*
X249045Y8131D01*
X248945Y8128D01*
X248845Y8129D01*
X248744Y8134D01*
X248645Y8143D01*
X248545Y8156D01*
X248446Y8173D01*
X248348Y8193D01*
X248250Y8218D01*
X248154Y8246D01*
X248059Y8278D01*
X247965Y8314D01*
X247873Y8354D01*
X247783Y8397D01*
X247694Y8444D01*
X247607Y8494D01*
X247522Y8547D01*
X247439Y8604D01*
X247359Y8664D01*
X247281Y8728D01*
X247206Y8794D01*
X247133Y8863D01*
X247063Y8935D01*
X246996Y9010D01*
X246932Y9087D01*
X246871Y9167D01*
X246813Y9249D01*
X246759Y9333D01*
X246708Y9420D01*
X246660Y9508D01*
X246616Y9598D01*
X246576Y9690D01*
X246539Y9784D01*
X246506Y9878D01*
X246477Y9974D01*
X246451Y10071D01*
X246429Y10169D01*
X246412Y10268D01*
X246398Y10368D01*
X246388Y10467D01*
X246382Y10568D01*
X246380Y10668D01*
D12*
X246340Y-4492D02*
X241340Y-4492D01*
X246340Y-4492D02*
X246340Y5508D01*
X241340Y5508D01*
X241340Y-4492D01*
X18970Y-25948D02*
X18970Y-30948D01*
X18970Y-25948D02*
X8970Y-25948D01*
X8970Y-30948D01*
X18970Y-30948D01*
X289640Y13502D02*
X289640Y18502D01*
X289640Y13502D02*
X299640Y13502D01*
X299640Y18502D01*
X289640Y18502D01*
D11*
X11128Y8500D02*
X11128Y-8500D01*
X5128Y-8500D01*
X5128Y-6000D01*
X128Y-6000D01*
X128Y6000D01*
X5128Y6000D01*
X5128Y8500D01*
X11128Y8500D01*
X3128Y3000D02*
X19676Y3000D01*
D12*
X167510Y-14800D02*
X167510Y-23300D01*
X167510Y-14800D02*
X183010Y-14800D01*
X183010Y-23300D01*
X167510Y-23300D01*
X167510Y13530D02*
X167510Y22030D01*
X183010Y22030D01*
X183010Y13530D01*
X167510Y13530D01*
X157280Y-16000D02*
X132280Y-16000D01*
X157280Y-16000D02*
X157280Y16000D01*
X132280Y16000D01*
X132280Y-16000D01*
D11*
X197380Y-10000D02*
X197380Y10000D01*
X197380Y-10000D02*
X168380Y-10000D01*
X168380Y10000D01*
X197380Y10000D01*
D10*
X189880Y15000D02*
X189880Y-15000D01*
D13*
X71625Y14625D02*
X55375Y14625D01*
X55375Y-14625D01*
X71625Y-14625D01*
X71625Y14625D01*
X71625Y15650D02*
X55375Y15650D01*
X55375Y-15650D02*
X71625Y-15650D01*
D11*
X74510Y17450D02*
X74512Y17550D01*
X74518Y17651D01*
X74528Y17750D01*
X74542Y17850D01*
X74559Y17949D01*
X74581Y18047D01*
X74607Y18144D01*
X74636Y18240D01*
X74669Y18334D01*
X74706Y18428D01*
X74746Y18520D01*
X74790Y18610D01*
X74838Y18698D01*
X74889Y18785D01*
X74943Y18869D01*
X75001Y18951D01*
X75062Y19031D01*
X75126Y19108D01*
X75193Y19183D01*
X75263Y19255D01*
X75336Y19324D01*
X75411Y19390D01*
X75489Y19454D01*
X75569Y19514D01*
X75652Y19571D01*
X75737Y19624D01*
X75824Y19674D01*
X75913Y19721D01*
X76003Y19764D01*
X76095Y19804D01*
X76189Y19840D01*
X76284Y19872D01*
X76380Y19900D01*
X76478Y19925D01*
X76576Y19945D01*
X76675Y19962D01*
X76775Y19975D01*
X76874Y19984D01*
X76975Y19989D01*
X77075Y19990D01*
X77175Y19987D01*
X77276Y19980D01*
X77375Y19969D01*
X77475Y19954D01*
X77573Y19936D01*
X77671Y19913D01*
X77768Y19886D01*
X77863Y19856D01*
X77958Y19822D01*
X78051Y19784D01*
X78142Y19743D01*
X78232Y19698D01*
X78320Y19650D01*
X78406Y19598D01*
X78490Y19543D01*
X78571Y19484D01*
X78650Y19422D01*
X78727Y19358D01*
X78801Y19290D01*
X78872Y19219D01*
X78941Y19146D01*
X79006Y19070D01*
X79069Y18991D01*
X79128Y18910D01*
X79184Y18827D01*
X79237Y18742D01*
X79286Y18654D01*
X79332Y18565D01*
X79374Y18474D01*
X79413Y18381D01*
X79448Y18287D01*
X79479Y18192D01*
X79507Y18095D01*
X79530Y17998D01*
X79550Y17899D01*
X79566Y17800D01*
X79578Y17701D01*
X79586Y17600D01*
X79590Y17500D01*
X79590Y17400D01*
X79586Y17300D01*
X79578Y17199D01*
X79566Y17100D01*
X79550Y17001D01*
X79530Y16902D01*
X79507Y16805D01*
X79479Y16708D01*
X79448Y16613D01*
X79413Y16519D01*
X79374Y16426D01*
X79332Y16335D01*
X79286Y16246D01*
X79237Y16158D01*
X79184Y16073D01*
X79128Y15990D01*
X79069Y15909D01*
X79006Y15830D01*
X78941Y15754D01*
X78872Y15681D01*
X78801Y15610D01*
X78727Y15542D01*
X78650Y15478D01*
X78571Y15416D01*
X78490Y15357D01*
X78406Y15302D01*
X78320Y15250D01*
X78232Y15202D01*
X78142Y15157D01*
X78051Y15116D01*
X77958Y15078D01*
X77863Y15044D01*
X77768Y15014D01*
X77671Y14987D01*
X77573Y14964D01*
X77475Y14946D01*
X77375Y14931D01*
X77276Y14920D01*
X77175Y14913D01*
X77075Y14910D01*
X76975Y14911D01*
X76874Y14916D01*
X76775Y14925D01*
X76675Y14938D01*
X76576Y14955D01*
X76478Y14975D01*
X76380Y15000D01*
X76284Y15028D01*
X76189Y15060D01*
X76095Y15096D01*
X76003Y15136D01*
X75913Y15179D01*
X75824Y15226D01*
X75737Y15276D01*
X75652Y15329D01*
X75569Y15386D01*
X75489Y15446D01*
X75411Y15510D01*
X75336Y15576D01*
X75263Y15645D01*
X75193Y15717D01*
X75126Y15792D01*
X75062Y15869D01*
X75001Y15949D01*
X74943Y16031D01*
X74889Y16115D01*
X74838Y16202D01*
X74790Y16290D01*
X74746Y16380D01*
X74706Y16472D01*
X74669Y16566D01*
X74636Y16660D01*
X74607Y16756D01*
X74581Y16853D01*
X74559Y16951D01*
X74542Y17050D01*
X74528Y17150D01*
X74518Y17249D01*
X74512Y17350D01*
X74510Y17450D01*
D12*
X92790Y17820D02*
X92790Y22820D01*
X92790Y17820D02*
X102790Y17820D01*
X102790Y22820D01*
X92790Y22820D01*
X90250Y-16550D02*
X90250Y-21550D01*
X100250Y-21550D01*
X100250Y-16550D01*
X90250Y-16550D01*
D14*
X379122Y-38947D02*
X379124Y-38847D01*
X379130Y-38746D01*
X379140Y-38647D01*
X379154Y-38547D01*
X379171Y-38448D01*
X379193Y-38350D01*
X379219Y-38253D01*
X379248Y-38157D01*
X379281Y-38063D01*
X379318Y-37969D01*
X379358Y-37877D01*
X379402Y-37787D01*
X379450Y-37699D01*
X379501Y-37612D01*
X379555Y-37528D01*
X379613Y-37446D01*
X379674Y-37366D01*
X379738Y-37289D01*
X379805Y-37214D01*
X379875Y-37142D01*
X379948Y-37073D01*
X380023Y-37007D01*
X380101Y-36943D01*
X380181Y-36883D01*
X380264Y-36826D01*
X380349Y-36773D01*
X380436Y-36723D01*
X380525Y-36676D01*
X380615Y-36633D01*
X380707Y-36593D01*
X380801Y-36557D01*
X380896Y-36525D01*
X380992Y-36497D01*
X381090Y-36472D01*
X381188Y-36452D01*
X381287Y-36435D01*
X381387Y-36422D01*
X381486Y-36413D01*
X381587Y-36408D01*
X381687Y-36407D01*
X381787Y-36410D01*
X381888Y-36417D01*
X381987Y-36428D01*
X382087Y-36443D01*
X382185Y-36461D01*
X382283Y-36484D01*
X382380Y-36511D01*
X382475Y-36541D01*
X382570Y-36575D01*
X382663Y-36613D01*
X382754Y-36654D01*
X382844Y-36699D01*
X382932Y-36747D01*
X383018Y-36799D01*
X383102Y-36854D01*
X383183Y-36913D01*
X383262Y-36975D01*
X383339Y-37039D01*
X383413Y-37107D01*
X383484Y-37178D01*
X383553Y-37251D01*
X383618Y-37327D01*
X383681Y-37406D01*
X383740Y-37487D01*
X383796Y-37570D01*
X383849Y-37655D01*
X383898Y-37743D01*
X383944Y-37832D01*
X383986Y-37923D01*
X384025Y-38016D01*
X384060Y-38110D01*
X384091Y-38205D01*
X384119Y-38302D01*
X384142Y-38399D01*
X384162Y-38498D01*
X384178Y-38597D01*
X384190Y-38696D01*
X384198Y-38797D01*
X384202Y-38897D01*
X384202Y-38997D01*
X384198Y-39097D01*
X384190Y-39198D01*
X384178Y-39297D01*
X384162Y-39396D01*
X384142Y-39495D01*
X384119Y-39592D01*
X384091Y-39689D01*
X384060Y-39784D01*
X384025Y-39878D01*
X383986Y-39971D01*
X383944Y-40062D01*
X383898Y-40151D01*
X383849Y-40239D01*
X383796Y-40324D01*
X383740Y-40407D01*
X383681Y-40488D01*
X383618Y-40567D01*
X383553Y-40643D01*
X383484Y-40716D01*
X383413Y-40787D01*
X383339Y-40855D01*
X383262Y-40919D01*
X383183Y-40981D01*
X383102Y-41040D01*
X383018Y-41095D01*
X382932Y-41147D01*
X382844Y-41195D01*
X382754Y-41240D01*
X382663Y-41281D01*
X382570Y-41319D01*
X382475Y-41353D01*
X382380Y-41383D01*
X382283Y-41410D01*
X382185Y-41433D01*
X382087Y-41451D01*
X381987Y-41466D01*
X381888Y-41477D01*
X381787Y-41484D01*
X381687Y-41487D01*
X381587Y-41486D01*
X381486Y-41481D01*
X381387Y-41472D01*
X381287Y-41459D01*
X381188Y-41442D01*
X381090Y-41422D01*
X380992Y-41397D01*
X380896Y-41369D01*
X380801Y-41337D01*
X380707Y-41301D01*
X380615Y-41261D01*
X380525Y-41218D01*
X380436Y-41171D01*
X380349Y-41121D01*
X380264Y-41068D01*
X380181Y-41011D01*
X380101Y-40951D01*
X380023Y-40887D01*
X379948Y-40821D01*
X379875Y-40752D01*
X379805Y-40680D01*
X379738Y-40605D01*
X379674Y-40528D01*
X379613Y-40448D01*
X379555Y-40366D01*
X379501Y-40282D01*
X379450Y-40195D01*
X379402Y-40107D01*
X379358Y-40017D01*
X379318Y-39925D01*
X379281Y-39831D01*
X379248Y-39737D01*
X379219Y-39641D01*
X379193Y-39544D01*
X379171Y-39446D01*
X379154Y-39347D01*
X379140Y-39247D01*
X379130Y-39148D01*
X379124Y-39047D01*
X379122Y-38947D01*
D13*
X388620Y-35355D02*
X392156Y-31820D01*
X388620Y-35355D02*
X385084Y-31820D01*
X420440Y-3536D02*
X423975Y0D01*
X420440Y3536D01*
X356800Y-3536D02*
X353265Y0D01*
X356800Y3536D01*
X385084Y31820D02*
X388620Y35355D01*
X392156Y31820D01*
D12*
X347940Y6430D02*
X342940Y6430D01*
X347940Y6430D02*
X347940Y16430D01*
X342940Y16430D01*
X342940Y6430D01*
X336510Y6430D02*
X331510Y6430D01*
X336510Y6430D02*
X336510Y16430D01*
X331510Y16430D01*
X331510Y6430D01*
X440610Y-7660D02*
X440610Y-12660D01*
X440610Y-7660D02*
X430610Y-7660D01*
X430610Y-12660D01*
X440610Y-12660D01*
X443150Y-17820D02*
X443150Y-22820D01*
X443150Y-17820D02*
X433150Y-17820D01*
X433150Y-22820D01*
X443150Y-22820D01*
X434260Y-31790D02*
X434260Y-36790D01*
X434260Y-31790D02*
X424260Y-31790D01*
X424260Y-36790D01*
X434260Y-36790D01*
X347940Y-6430D02*
X342940Y-6430D01*
X342940Y-16430D01*
X347940Y-16430D01*
X347940Y-6430D01*
X336510Y-6430D02*
X331510Y-6430D01*
X331510Y-16430D01*
X336510Y-16430D01*
X336510Y-6430D01*
D13*
X511820Y15630D02*
X544820Y15630D01*
X511820Y15630D02*
X511820Y32630D01*
X544820Y32630D01*
X544820Y15630D01*
D12*
X543480Y3770D02*
X543480Y-1230D01*
X543480Y3770D02*
X533480Y3770D01*
X533480Y-1230D01*
X543480Y-1230D01*
D13*
X544820Y-13090D02*
X511820Y-13090D01*
X544820Y-13090D02*
X544820Y-30090D01*
X511820Y-30090D01*
X511820Y-13090D01*
D12*
X513160Y-1230D02*
X513160Y3770D01*
X513160Y-1230D02*
X523160Y-1230D01*
X523160Y3770D01*
X513160Y3770D01*
M02*
