G04 EAGLE Gerber RS-274X export*
G75*
%MOMM*%
%FSLAX34Y34*%
%LPD*%
%INSolderpaste Bottom*%
%IPPOS*%
%AMOC8*
5,1,8,0,0,1.08239X$1,22.5*%
G01*
G04 Define Apertures*
%ADD10R,0.700000X0.600000*%
%ADD11R,0.800000X1.000000*%
%ADD12R,2.700000X1.250000*%
%ADD13R,0.950000X1.050000*%
%ADD14R,1.000000X1.000000*%
%ADD15R,0.600000X0.700000*%
%ADD16R,0.800000X0.550000*%
%ADD17R,0.600000X1.100000*%
D10*
X283210Y15160D03*
X283210Y5160D03*
D11*
X178950Y16510D03*
X163950Y16510D03*
D12*
X140970Y-14770D03*
X140970Y12230D03*
D13*
X194820Y-1270D03*
X163320Y-1270D03*
D11*
X178950Y-19050D03*
X163950Y-19050D03*
D14*
X8890Y9500D03*
X8890Y-9500D03*
D15*
X341710Y20320D03*
X351710Y20320D03*
X346790Y-8890D03*
X356790Y-8890D03*
D10*
X238760Y-13890D03*
X238760Y-3890D03*
D15*
X45640Y-19050D03*
X35640Y-19050D03*
D10*
X397510Y13890D03*
X397510Y3890D03*
X397510Y-5160D03*
X397510Y-15160D03*
D15*
X45640Y6350D03*
X35640Y6350D03*
X45640Y-6350D03*
X35640Y-6350D03*
D10*
X410370Y-9500D03*
X410370Y9500D03*
X430370Y0D03*
X385920Y9500D03*
X385920Y-9500D03*
X365920Y0D03*
D16*
X311850Y-9500D03*
X311850Y0D03*
X311850Y9500D03*
X335850Y9500D03*
X335850Y0D03*
X335850Y-9500D03*
D17*
X252120Y14000D03*
X261620Y14000D03*
X271120Y14000D03*
X271120Y-14000D03*
X252120Y-14000D03*
M02*
