G04 EAGLE Gerber RS-274X export*
G75*
%MOMM*%
%FSLAX34Y34*%
%LPD*%
%INSolderpaste Bottom*%
%IPPOS*%
%AMOC8*
5,1,8,0,0,1.08239X$1,22.5*%
G01*
G04 Define Apertures*
%ADD10R,0.600000X1.100000*%
%ADD11R,0.700000X0.600000*%
%ADD12R,0.600000X0.700000*%
%ADD13R,1.000000X1.000000*%
%ADD14R,0.800000X1.000000*%
%ADD15R,2.700000X1.250000*%
%ADD16R,0.950000X1.050000*%
%ADD17C,0.150000*%
%ADD18R,2.118719X2.118719*%
%ADD19R,0.762000X1.524000*%
G36*
X366101Y-6259D02*
X366475Y-6104D01*
X366876Y-6051D01*
X367278Y-6104D01*
X367652Y-6259D01*
X367973Y-6505D01*
X368219Y-6826D01*
X368374Y-7200D01*
X368427Y-7601D01*
X368374Y-8003D01*
X368219Y-8377D01*
X367975Y-8695D01*
X362280Y-14390D01*
X360088Y-12198D01*
X365783Y-6503D01*
X366101Y-6259D01*
G37*
G36*
X367975Y8695D02*
X368219Y8377D01*
X368374Y8003D01*
X368427Y7601D01*
X368374Y7200D01*
X368219Y6826D01*
X367973Y6505D01*
X367652Y6259D01*
X367278Y6104D01*
X366876Y6051D01*
X366475Y6104D01*
X366101Y6259D01*
X365783Y6503D01*
X360088Y12198D01*
X362280Y14390D01*
X367975Y8695D01*
G37*
G36*
X380243Y-20401D02*
X380617Y-20246D01*
X381019Y-20193D01*
X381420Y-20246D01*
X381794Y-20401D01*
X382115Y-20647D01*
X382361Y-20968D01*
X382516Y-21342D01*
X382569Y-21744D01*
X382516Y-22145D01*
X382361Y-22519D01*
X382117Y-22837D01*
X376422Y-28532D01*
X374230Y-26340D01*
X379925Y-20645D01*
X380243Y-20401D01*
G37*
G36*
X382117Y22837D02*
X382361Y22519D01*
X382516Y22145D01*
X382569Y21744D01*
X382516Y21342D01*
X382361Y20968D01*
X382115Y20647D01*
X381794Y20401D01*
X381420Y20246D01*
X381019Y20193D01*
X380617Y20246D01*
X380243Y20401D01*
X379925Y20645D01*
X374230Y26340D01*
X376422Y28532D01*
X382117Y22837D01*
G37*
G36*
X395446Y-20401D02*
X395820Y-20246D01*
X396221Y-20193D01*
X396623Y-20246D01*
X396997Y-20401D01*
X397315Y-20645D01*
X403010Y-26340D01*
X400818Y-28532D01*
X395123Y-22837D01*
X394879Y-22519D01*
X394724Y-22145D01*
X394671Y-21744D01*
X394724Y-21342D01*
X394879Y-20968D01*
X395125Y-20647D01*
X395446Y-20401D01*
G37*
G36*
X403010Y26340D02*
X397315Y20645D01*
X396997Y20401D01*
X396623Y20246D01*
X396221Y20193D01*
X395820Y20246D01*
X395446Y20401D01*
X395125Y20647D01*
X394879Y20968D01*
X394724Y21342D01*
X394671Y21744D01*
X394724Y22145D01*
X394879Y22519D01*
X395123Y22837D01*
X400818Y28532D01*
X403010Y26340D01*
G37*
G36*
X409588Y-6259D02*
X409962Y-6104D01*
X410364Y-6051D01*
X410765Y-6104D01*
X411139Y-6259D01*
X411457Y-6503D01*
X417152Y-12198D01*
X414960Y-14390D01*
X409265Y-8695D01*
X409021Y-8377D01*
X408866Y-8003D01*
X408813Y-7601D01*
X408866Y-7200D01*
X409021Y-6826D01*
X409267Y-6505D01*
X409588Y-6259D01*
G37*
G36*
X417152Y12198D02*
X411457Y6503D01*
X411139Y6259D01*
X410765Y6104D01*
X410364Y6051D01*
X409962Y6104D01*
X409588Y6259D01*
X409267Y6505D01*
X409021Y6826D01*
X408866Y7200D01*
X408813Y7601D01*
X408866Y8003D01*
X409021Y8377D01*
X409265Y8695D01*
X414960Y14390D01*
X417152Y12198D01*
G37*
G36*
X362566Y-2723D02*
X362940Y-2568D01*
X363341Y-2515D01*
X363742Y-2568D01*
X364116Y-2723D01*
X364437Y-2970D01*
X364684Y-3291D01*
X364839Y-3665D01*
X364891Y-4066D01*
X364839Y-4467D01*
X364684Y-4841D01*
X364439Y-5160D01*
X358745Y-10854D01*
X356553Y-8662D01*
X362247Y-2968D01*
X362566Y-2723D01*
G37*
G36*
X364439Y5160D02*
X364684Y4841D01*
X364839Y4467D01*
X364891Y4066D01*
X364839Y3665D01*
X364684Y3291D01*
X364437Y2970D01*
X364116Y2723D01*
X363742Y2568D01*
X363341Y2515D01*
X362940Y2568D01*
X362566Y2723D01*
X362247Y2968D01*
X356553Y8662D01*
X358745Y10854D01*
X364439Y5160D01*
G37*
G36*
X383779Y-23936D02*
X384153Y-23781D01*
X384554Y-23729D01*
X384955Y-23781D01*
X385329Y-23936D01*
X385650Y-24183D01*
X385897Y-24504D01*
X386052Y-24878D01*
X386105Y-25279D01*
X386052Y-25680D01*
X385897Y-26054D01*
X385653Y-26373D01*
X379958Y-32067D01*
X377766Y-29875D01*
X383460Y-24181D01*
X383779Y-23936D01*
G37*
G36*
X385653Y26373D02*
X385897Y26054D01*
X386052Y25680D01*
X386105Y25279D01*
X386052Y24878D01*
X385897Y24504D01*
X385650Y24183D01*
X385329Y23936D01*
X384955Y23781D01*
X384554Y23729D01*
X384153Y23781D01*
X383779Y23936D01*
X383460Y24181D01*
X377766Y29875D01*
X379958Y32067D01*
X385653Y26373D01*
G37*
G36*
X391911Y-23936D02*
X392285Y-23781D01*
X392686Y-23729D01*
X393087Y-23781D01*
X393461Y-23936D01*
X393780Y-24181D01*
X399474Y-29875D01*
X397282Y-32067D01*
X391588Y-26373D01*
X391343Y-26054D01*
X391188Y-25680D01*
X391135Y-25279D01*
X391188Y-24878D01*
X391343Y-24504D01*
X391590Y-24183D01*
X391911Y-23936D01*
G37*
G36*
X399474Y29875D02*
X393780Y24181D01*
X393461Y23936D01*
X393087Y23781D01*
X392686Y23729D01*
X392285Y23781D01*
X391911Y23936D01*
X391590Y24183D01*
X391343Y24504D01*
X391188Y24878D01*
X391135Y25279D01*
X391188Y25680D01*
X391343Y26054D01*
X391588Y26373D01*
X397282Y32067D01*
X399474Y29875D01*
G37*
G36*
X413124Y-2723D02*
X413498Y-2568D01*
X413899Y-2515D01*
X414300Y-2568D01*
X414674Y-2723D01*
X414993Y-2968D01*
X420687Y-8662D01*
X418495Y-10854D01*
X412801Y-5160D01*
X412556Y-4841D01*
X412401Y-4467D01*
X412349Y-4066D01*
X412401Y-3665D01*
X412556Y-3291D01*
X412803Y-2970D01*
X413124Y-2723D01*
G37*
G36*
X420687Y8662D02*
X414993Y2968D01*
X414674Y2723D01*
X414300Y2568D01*
X413899Y2515D01*
X413498Y2568D01*
X413124Y2723D01*
X412803Y2970D01*
X412556Y3291D01*
X412401Y3665D01*
X412349Y4066D01*
X412401Y4467D01*
X412556Y4841D01*
X412801Y5160D01*
X418495Y10854D01*
X420687Y8662D01*
G37*
G36*
X373172Y-13330D02*
X373546Y-13175D01*
X373948Y-13122D01*
X374349Y-13175D01*
X374723Y-13330D01*
X375044Y-13576D01*
X375290Y-13897D01*
X375445Y-14271D01*
X375498Y-14672D01*
X375445Y-15074D01*
X375290Y-15448D01*
X375046Y-15766D01*
X369351Y-21461D01*
X367159Y-19269D01*
X372854Y-13574D01*
X373172Y-13330D01*
G37*
G36*
X375046Y15766D02*
X375290Y15448D01*
X375445Y15074D01*
X375498Y14672D01*
X375445Y14271D01*
X375290Y13897D01*
X375044Y13576D01*
X374723Y13330D01*
X374349Y13175D01*
X373948Y13122D01*
X373546Y13175D01*
X373172Y13330D01*
X372854Y13574D01*
X367159Y19269D01*
X369351Y21461D01*
X375046Y15766D01*
G37*
G36*
X402517Y-13330D02*
X402891Y-13175D01*
X403292Y-13122D01*
X403694Y-13175D01*
X404068Y-13330D01*
X404386Y-13574D01*
X410081Y-19269D01*
X407889Y-21461D01*
X402194Y-15766D01*
X401950Y-15448D01*
X401795Y-15074D01*
X401742Y-14672D01*
X401795Y-14271D01*
X401950Y-13897D01*
X402196Y-13576D01*
X402517Y-13330D01*
G37*
G36*
X410081Y19269D02*
X404386Y13574D01*
X404068Y13330D01*
X403694Y13175D01*
X403292Y13122D01*
X402891Y13175D01*
X402517Y13330D01*
X402196Y13576D01*
X401950Y13897D01*
X401795Y14271D01*
X401742Y14672D01*
X401795Y15074D01*
X401950Y15448D01*
X402194Y15766D01*
X407889Y21461D01*
X410081Y19269D01*
G37*
G36*
X369637Y-9794D02*
X370011Y-9639D01*
X370412Y-9587D01*
X370813Y-9639D01*
X371187Y-9794D01*
X371508Y-10041D01*
X371755Y-10362D01*
X371910Y-10736D01*
X371962Y-11137D01*
X371910Y-11538D01*
X371755Y-11912D01*
X371510Y-12231D01*
X365816Y-17925D01*
X363624Y-15733D01*
X369318Y-10039D01*
X369637Y-9794D01*
G37*
G36*
X371510Y12231D02*
X371755Y11912D01*
X371910Y11538D01*
X371962Y11137D01*
X371910Y10736D01*
X371755Y10362D01*
X371508Y10041D01*
X371187Y9794D01*
X370813Y9639D01*
X370412Y9587D01*
X370011Y9639D01*
X369637Y9794D01*
X369318Y10039D01*
X363624Y15733D01*
X365816Y17925D01*
X371510Y12231D01*
G37*
G36*
X376708Y-16865D02*
X377082Y-16710D01*
X377483Y-16658D01*
X377884Y-16710D01*
X378258Y-16865D01*
X378579Y-17112D01*
X378826Y-17433D01*
X378981Y-17807D01*
X379034Y-18208D01*
X378981Y-18609D01*
X378826Y-18983D01*
X378581Y-19302D01*
X372887Y-24996D01*
X370695Y-22804D01*
X376389Y-17110D01*
X376708Y-16865D01*
G37*
G36*
X378581Y19302D02*
X378826Y18983D01*
X378981Y18609D01*
X379034Y18208D01*
X378981Y17807D01*
X378826Y17433D01*
X378579Y17112D01*
X378258Y16865D01*
X377884Y16710D01*
X377483Y16658D01*
X377082Y16710D01*
X376708Y16865D01*
X376389Y17110D01*
X370695Y22804D01*
X372887Y24996D01*
X378581Y19302D01*
G37*
G36*
X398982Y-16865D02*
X399356Y-16710D01*
X399757Y-16658D01*
X400158Y-16710D01*
X400532Y-16865D01*
X400851Y-17110D01*
X406545Y-22804D01*
X404353Y-24996D01*
X398659Y-19302D01*
X398414Y-18983D01*
X398259Y-18609D01*
X398207Y-18208D01*
X398259Y-17807D01*
X398414Y-17433D01*
X398661Y-17112D01*
X398982Y-16865D01*
G37*
G36*
X406545Y22804D02*
X400851Y17110D01*
X400532Y16865D01*
X400158Y16710D01*
X399757Y16658D01*
X399356Y16710D01*
X398982Y16865D01*
X398661Y17112D01*
X398414Y17433D01*
X398259Y17807D01*
X398207Y18208D01*
X398259Y18609D01*
X398414Y18983D01*
X398659Y19302D01*
X404353Y24996D01*
X406545Y22804D01*
G37*
G36*
X406053Y-9794D02*
X406427Y-9639D01*
X406828Y-9587D01*
X407229Y-9639D01*
X407603Y-9794D01*
X407922Y-10039D01*
X413616Y-15733D01*
X411424Y-17925D01*
X405730Y-12231D01*
X405485Y-11912D01*
X405330Y-11538D01*
X405278Y-11137D01*
X405330Y-10736D01*
X405485Y-10362D01*
X405732Y-10041D01*
X406053Y-9794D01*
G37*
G36*
X413616Y15733D02*
X407922Y10039D01*
X407603Y9794D01*
X407229Y9639D01*
X406828Y9587D01*
X406427Y9639D01*
X406053Y9794D01*
X405732Y10041D01*
X405485Y10362D01*
X405330Y10736D01*
X405278Y11137D01*
X405330Y11538D01*
X405485Y11912D01*
X405730Y12231D01*
X411424Y17925D01*
X413616Y15733D01*
G37*
D10*
X257200Y14508D03*
X266700Y14508D03*
X276200Y14508D03*
X276200Y-13492D03*
X257200Y-13492D03*
D11*
X243840Y-4492D03*
X243840Y5508D03*
D12*
X18970Y-28448D03*
X8970Y-28448D03*
X289640Y16002D03*
X299640Y16002D03*
D13*
X8128Y9500D03*
X8128Y-9500D03*
D14*
X182760Y-19050D03*
X167760Y-19050D03*
X182760Y17780D03*
X167760Y17780D03*
D15*
X144780Y-13500D03*
X144780Y13500D03*
D16*
X198630Y0D03*
X167130Y0D03*
D17*
X80250Y11750D02*
X69750Y11750D01*
X80250Y11750D02*
X80250Y7250D01*
X69750Y7250D01*
X69750Y11750D01*
X69750Y8675D02*
X80250Y8675D01*
X80250Y10100D02*
X69750Y10100D01*
X69750Y11525D02*
X80250Y11525D01*
X80250Y2250D02*
X69750Y2250D01*
X80250Y2250D02*
X80250Y-2250D01*
X69750Y-2250D01*
X69750Y2250D01*
X69750Y-825D02*
X80250Y-825D01*
X80250Y600D02*
X69750Y600D01*
X69750Y2025D02*
X80250Y2025D01*
X80250Y-7250D02*
X69750Y-7250D01*
X80250Y-7250D02*
X80250Y-11750D01*
X69750Y-11750D01*
X69750Y-7250D01*
X69750Y-10325D02*
X80250Y-10325D01*
X80250Y-8900D02*
X69750Y-8900D01*
X69750Y-7475D02*
X80250Y-7475D01*
X57250Y-7250D02*
X46750Y-7250D01*
X57250Y-7250D02*
X57250Y-11750D01*
X46750Y-11750D01*
X46750Y-7250D01*
X46750Y-10325D02*
X57250Y-10325D01*
X57250Y-8900D02*
X46750Y-8900D01*
X46750Y-7475D02*
X57250Y-7475D01*
X57250Y2250D02*
X46750Y2250D01*
X57250Y2250D02*
X57250Y-2250D01*
X46750Y-2250D01*
X46750Y2250D01*
X46750Y-825D02*
X57250Y-825D01*
X57250Y600D02*
X46750Y600D01*
X46750Y2025D02*
X57250Y2025D01*
X57250Y11750D02*
X46750Y11750D01*
X57250Y11750D02*
X57250Y7250D01*
X46750Y7250D01*
X46750Y11750D01*
X46750Y8675D02*
X57250Y8675D01*
X57250Y10100D02*
X46750Y10100D01*
X46750Y11525D02*
X57250Y11525D01*
D12*
X92790Y20320D03*
X102790Y20320D03*
X90250Y-19050D03*
X100250Y-19050D03*
D18*
G36*
X403600Y0D02*
X388620Y-14980D01*
X373640Y0D01*
X388620Y14980D01*
X403600Y0D01*
G37*
D11*
X345440Y6430D03*
X345440Y16430D03*
X334010Y6430D03*
X334010Y16430D03*
D12*
X440610Y-10160D03*
X430610Y-10160D03*
X443150Y-20320D03*
X433150Y-20320D03*
X434260Y-34290D03*
X424260Y-34290D03*
D11*
X345440Y-6430D03*
X345440Y-16430D03*
X334010Y-6430D03*
X334010Y-16430D03*
D12*
X537820Y14130D03*
X518820Y14130D03*
X528320Y34130D03*
X543480Y1270D03*
X533480Y1270D03*
X518820Y-11590D03*
X537820Y-11590D03*
X528320Y-31590D03*
X513160Y1270D03*
X523160Y1270D03*
D19*
X659130Y-30480D03*
X671830Y-30480D03*
X684530Y-30480D03*
X697230Y-30480D03*
M02*
