G04 EAGLE Gerber RS-274X export*
G75*
%MOMM*%
%FSLAX34Y34*%
%LPD*%
%INSoldermask Top*%
%IPPOS*%
%AMOC8*
5,1,8,0,0,1.08239X$1,22.5*%
G01*
G04 Define Apertures*
%ADD10R,4.163200X2.543200*%
%ADD11R,4.163200X5.283200*%
%ADD12C,2.003200*%
%ADD13R,1.343200X0.783200*%
%ADD14R,1.343200X0.473200*%
%ADD15C,0.853200*%
%ADD16C,1.503200*%
%ADD17R,0.965200X1.727200*%
%ADD18C,0.959600*%
D10*
X109278Y0D03*
D11*
X225678Y-1000D03*
D12*
X116078Y0D03*
X218578Y0D03*
D10*
X573728Y0D03*
D11*
X457328Y1000D03*
D12*
X566928Y0D03*
X464428Y0D03*
D13*
X64010Y31000D03*
X64010Y23500D03*
D14*
X64010Y17500D03*
X64010Y12500D03*
X64010Y7500D03*
X64010Y2500D03*
X64010Y-2500D03*
X64010Y-7500D03*
X64010Y-12500D03*
X64010Y-17500D03*
D13*
X64010Y-23500D03*
X64010Y-31000D03*
D15*
X53310Y28900D03*
D16*
X23010Y43200D02*
X10010Y43200D01*
X10010Y-43200D02*
X23010Y-43200D01*
X51810Y43200D02*
X64810Y43200D01*
X64810Y-43200D02*
X51810Y-43200D01*
D15*
X53310Y-28900D03*
D17*
X659130Y-30480D03*
X671830Y-30480D03*
X684530Y-30480D03*
X697230Y-30480D03*
D18*
X77470Y38100D03*
X86360Y0D03*
X77720Y-39120D03*
X707418Y-30480D03*
X388620Y0D03*
X306070Y-13744D03*
X500380Y-29436D03*
X539750Y-44478D03*
X417830Y-44478D03*
X596900Y-35334D03*
X440690Y39370D03*
X199390Y-30480D03*
X104140Y-38100D03*
X276860Y-33020D03*
X119380Y-26670D03*
X130810Y-25400D03*
X33020Y0D03*
X579120Y-38382D03*
X323850Y-6350D03*
X650014Y-35334D03*
X551532Y-42828D03*
X564299Y-44478D03*
X597690Y22257D03*
X39370Y-8890D03*
X40640Y10160D03*
X81280Y19050D03*
X78881Y-17806D03*
X528320Y-8370D03*
X447040Y-36310D03*
M02*
