G04 EAGLE Gerber RS-274X export*
G75*
%MOMM*%
%FSLAX34Y34*%
%LPD*%
%INSoldermask Bottom*%
%IPPOS*%
%AMOC8*
5,1,8,0,0,1.08239X$1,22.5*%
G01*
G04 Define Apertures*
%ADD10C,2.003200*%
%ADD11R,0.803200X1.303200*%
%ADD12R,0.903200X0.803200*%
%ADD13R,0.803200X0.903200*%
%ADD14R,1.203200X1.203200*%
%ADD15C,0.853200*%
%ADD16C,1.503200*%
%ADD17R,1.003200X1.203200*%
%ADD18R,2.903200X1.453200*%
%ADD19R,1.153200X1.253200*%
%ADD20C,0.353406*%
%ADD21R,0.965200X1.727200*%
%ADD22C,0.959600*%
G36*
X369337Y-9275D02*
X369855Y-9060D01*
X370412Y-8986D01*
X370969Y-9060D01*
X371487Y-9275D01*
X371933Y-9616D01*
X372274Y-10062D01*
X372489Y-10580D01*
X372562Y-11137D01*
X372489Y-11694D01*
X372274Y-12212D01*
X371935Y-12655D01*
X365816Y-18774D01*
X362775Y-15733D01*
X368894Y-9614D01*
X369337Y-9275D01*
G37*
G36*
X371935Y12655D02*
X372274Y12212D01*
X372489Y11694D01*
X372562Y11137D01*
X372489Y10580D01*
X372274Y10062D01*
X371933Y9616D01*
X371487Y9275D01*
X370969Y9060D01*
X370412Y8986D01*
X369855Y9060D01*
X369337Y9275D01*
X368894Y9614D01*
X362775Y15733D01*
X365816Y18774D01*
X371935Y12655D01*
G37*
G36*
X376408Y-16346D02*
X376927Y-16131D01*
X377483Y-16058D01*
X378040Y-16131D01*
X378558Y-16346D01*
X379004Y-16687D01*
X379345Y-17133D01*
X379560Y-17651D01*
X379634Y-18208D01*
X379560Y-18765D01*
X379345Y-19283D01*
X379006Y-19726D01*
X372887Y-25845D01*
X369846Y-22804D01*
X375965Y-16685D01*
X376408Y-16346D01*
G37*
G36*
X379006Y19726D02*
X379345Y19283D01*
X379560Y18765D01*
X379634Y18208D01*
X379560Y17651D01*
X379345Y17133D01*
X379004Y16687D01*
X378558Y16346D01*
X378040Y16131D01*
X377483Y16058D01*
X376927Y16131D01*
X376408Y16346D01*
X375965Y16685D01*
X369846Y22804D01*
X372887Y25845D01*
X379006Y19726D01*
G37*
G36*
X398682Y-16346D02*
X399200Y-16131D01*
X399757Y-16058D01*
X400314Y-16131D01*
X400832Y-16346D01*
X401275Y-16685D01*
X407394Y-22804D01*
X404353Y-25845D01*
X398234Y-19726D01*
X397895Y-19283D01*
X397680Y-18765D01*
X397607Y-18208D01*
X397680Y-17651D01*
X397895Y-17133D01*
X398236Y-16687D01*
X398682Y-16346D01*
G37*
G36*
X407394Y22804D02*
X401275Y16685D01*
X400832Y16346D01*
X400314Y16131D01*
X399757Y16058D01*
X399200Y16131D01*
X398682Y16346D01*
X398236Y16687D01*
X397895Y17133D01*
X397680Y17651D01*
X397607Y18208D01*
X397680Y18765D01*
X397895Y19283D01*
X398234Y19726D01*
X404353Y25845D01*
X407394Y22804D01*
G37*
G36*
X405753Y-9275D02*
X406271Y-9060D01*
X406828Y-8986D01*
X407385Y-9060D01*
X407903Y-9275D01*
X408346Y-9614D01*
X414465Y-15733D01*
X411424Y-18774D01*
X405305Y-12655D01*
X404966Y-12212D01*
X404751Y-11694D01*
X404678Y-11137D01*
X404751Y-10580D01*
X404966Y-10062D01*
X405307Y-9616D01*
X405753Y-9275D01*
G37*
G36*
X414465Y15733D02*
X408346Y9614D01*
X407903Y9275D01*
X407385Y9060D01*
X406828Y8986D01*
X406271Y9060D01*
X405753Y9275D01*
X405307Y9616D01*
X404966Y10062D01*
X404751Y10580D01*
X404678Y11137D01*
X404751Y11694D01*
X404966Y12212D01*
X405305Y12655D01*
X411424Y18774D01*
X414465Y15733D01*
G37*
G36*
X362266Y-2204D02*
X362784Y-1989D01*
X363341Y-1915D01*
X363898Y-1989D01*
X364416Y-2204D01*
X364862Y-2545D01*
X365203Y-2991D01*
X365418Y-3509D01*
X365491Y-4066D01*
X365418Y-4622D01*
X365203Y-5141D01*
X364864Y-5584D01*
X358745Y-11703D01*
X355704Y-8662D01*
X361823Y-2543D01*
X362266Y-2204D01*
G37*
G36*
X364864Y5584D02*
X365203Y5141D01*
X365418Y4622D01*
X365491Y4066D01*
X365418Y3509D01*
X365203Y2991D01*
X364862Y2545D01*
X364416Y2204D01*
X363898Y1989D01*
X363341Y1915D01*
X362784Y1989D01*
X362266Y2204D01*
X361823Y2543D01*
X355704Y8662D01*
X358745Y11703D01*
X364864Y5584D01*
G37*
G36*
X365801Y-5739D02*
X366320Y-5524D01*
X366876Y-5451D01*
X367433Y-5524D01*
X367952Y-5739D01*
X368397Y-6081D01*
X368739Y-6526D01*
X368954Y-7045D01*
X369027Y-7601D01*
X368954Y-8158D01*
X368739Y-8677D01*
X368399Y-9119D01*
X362280Y-15238D01*
X359240Y-12198D01*
X365359Y-6079D01*
X365801Y-5739D01*
G37*
G36*
X368399Y9119D02*
X368739Y8677D01*
X368954Y8158D01*
X369027Y7601D01*
X368954Y7045D01*
X368739Y6526D01*
X368397Y6081D01*
X367952Y5739D01*
X367433Y5524D01*
X366876Y5451D01*
X366320Y5524D01*
X365801Y5739D01*
X365359Y6079D01*
X359240Y12198D01*
X362280Y15238D01*
X368399Y9119D01*
G37*
G36*
X379943Y-19881D02*
X380462Y-19666D01*
X381019Y-19593D01*
X381575Y-19666D01*
X382094Y-19881D01*
X382539Y-20223D01*
X382881Y-20668D01*
X383096Y-21187D01*
X383169Y-21744D01*
X383096Y-22300D01*
X382881Y-22819D01*
X382541Y-23261D01*
X376422Y-29380D01*
X373382Y-26340D01*
X379501Y-20221D01*
X379943Y-19881D01*
G37*
G36*
X382541Y23261D02*
X382881Y22819D01*
X383096Y22300D01*
X383169Y21744D01*
X383096Y21187D01*
X382881Y20668D01*
X382539Y20223D01*
X382094Y19881D01*
X381575Y19666D01*
X381019Y19593D01*
X380462Y19666D01*
X379943Y19881D01*
X379501Y20221D01*
X373382Y26340D01*
X376422Y29380D01*
X382541Y23261D01*
G37*
G36*
X383479Y-23417D02*
X383998Y-23202D01*
X384554Y-23129D01*
X385111Y-23202D01*
X385629Y-23417D01*
X386075Y-23758D01*
X386417Y-24204D01*
X386631Y-24722D01*
X386705Y-25279D01*
X386631Y-25836D01*
X386417Y-26354D01*
X386077Y-26797D01*
X379958Y-32916D01*
X376917Y-29875D01*
X383036Y-23756D01*
X383479Y-23417D01*
G37*
G36*
X386077Y26797D02*
X386417Y26354D01*
X386631Y25836D01*
X386705Y25279D01*
X386631Y24722D01*
X386417Y24204D01*
X386075Y23758D01*
X385629Y23417D01*
X385111Y23202D01*
X384554Y23129D01*
X383998Y23202D01*
X383479Y23417D01*
X383036Y23756D01*
X376917Y29875D01*
X379958Y32916D01*
X386077Y26797D01*
G37*
G36*
X391611Y-23417D02*
X392129Y-23202D01*
X392686Y-23129D01*
X393242Y-23202D01*
X393761Y-23417D01*
X394204Y-23756D01*
X400323Y-29875D01*
X397282Y-32916D01*
X391163Y-26797D01*
X390824Y-26354D01*
X390609Y-25836D01*
X390535Y-25279D01*
X390609Y-24722D01*
X390824Y-24204D01*
X391165Y-23758D01*
X391611Y-23417D01*
G37*
G36*
X400323Y29875D02*
X394204Y23756D01*
X393761Y23417D01*
X393242Y23202D01*
X392686Y23129D01*
X392129Y23202D01*
X391611Y23417D01*
X391165Y23758D01*
X390824Y24204D01*
X390609Y24722D01*
X390535Y25279D01*
X390609Y25836D01*
X390824Y26354D01*
X391163Y26797D01*
X397282Y32916D01*
X400323Y29875D01*
G37*
G36*
X395146Y-19881D02*
X395665Y-19666D01*
X396221Y-19593D01*
X396778Y-19666D01*
X397297Y-19881D01*
X397739Y-20221D01*
X403858Y-26340D01*
X400818Y-29380D01*
X394699Y-23261D01*
X394359Y-22819D01*
X394144Y-22300D01*
X394071Y-21744D01*
X394144Y-21187D01*
X394359Y-20668D01*
X394701Y-20223D01*
X395146Y-19881D01*
G37*
G36*
X403858Y26340D02*
X397739Y20221D01*
X397297Y19881D01*
X396778Y19666D01*
X396221Y19593D01*
X395665Y19666D01*
X395146Y19881D01*
X394701Y20223D01*
X394359Y20668D01*
X394144Y21187D01*
X394071Y21744D01*
X394144Y22300D01*
X394359Y22819D01*
X394699Y23261D01*
X400818Y29380D01*
X403858Y26340D01*
G37*
G36*
X409288Y-5739D02*
X409807Y-5524D01*
X410364Y-5451D01*
X410920Y-5524D01*
X411439Y-5739D01*
X411882Y-6079D01*
X418000Y-12198D01*
X414960Y-15238D01*
X408841Y-9119D01*
X408501Y-8677D01*
X408286Y-8158D01*
X408213Y-7601D01*
X408286Y-7045D01*
X408501Y-6526D01*
X408843Y-6081D01*
X409288Y-5739D01*
G37*
G36*
X418000Y12198D02*
X411882Y6079D01*
X411439Y5739D01*
X410920Y5524D01*
X410364Y5451D01*
X409807Y5524D01*
X409288Y5739D01*
X408843Y6081D01*
X408501Y6526D01*
X408286Y7045D01*
X408213Y7601D01*
X408286Y8158D01*
X408501Y8677D01*
X408841Y9119D01*
X414960Y15238D01*
X418000Y12198D01*
G37*
G36*
X412824Y-2204D02*
X413343Y-1989D01*
X413899Y-1915D01*
X414456Y-1989D01*
X414974Y-2204D01*
X415417Y-2543D01*
X421536Y-8662D01*
X418495Y-11703D01*
X412376Y-5584D01*
X412037Y-5141D01*
X411822Y-4622D01*
X411749Y-4066D01*
X411822Y-3509D01*
X412037Y-2991D01*
X412379Y-2545D01*
X412824Y-2204D01*
G37*
G36*
X421536Y8662D02*
X415417Y2543D01*
X414974Y2204D01*
X414456Y1989D01*
X413899Y1915D01*
X413343Y1989D01*
X412824Y2204D01*
X412379Y2545D01*
X412037Y2991D01*
X411822Y3509D01*
X411749Y4066D01*
X411822Y4622D01*
X412037Y5141D01*
X412376Y5584D01*
X418495Y11703D01*
X421536Y8662D01*
G37*
G36*
X372872Y-12810D02*
X373391Y-12595D01*
X373948Y-12522D01*
X374504Y-12595D01*
X375023Y-12810D01*
X375468Y-13152D01*
X375810Y-13597D01*
X376025Y-14116D01*
X376098Y-14672D01*
X376025Y-15229D01*
X375810Y-15748D01*
X375470Y-16190D01*
X369351Y-22309D01*
X366311Y-19269D01*
X372430Y-13150D01*
X372872Y-12810D01*
G37*
G36*
X375470Y16190D02*
X375810Y15748D01*
X376025Y15229D01*
X376098Y14672D01*
X376025Y14116D01*
X375810Y13597D01*
X375468Y13152D01*
X375023Y12810D01*
X374504Y12595D01*
X373948Y12522D01*
X373391Y12595D01*
X372872Y12810D01*
X372430Y13150D01*
X366311Y19269D01*
X369351Y22309D01*
X375470Y16190D01*
G37*
G36*
X402217Y-12810D02*
X402736Y-12595D01*
X403292Y-12522D01*
X403849Y-12595D01*
X404368Y-12810D01*
X404810Y-13150D01*
X410929Y-19269D01*
X407889Y-22309D01*
X401770Y-16190D01*
X401430Y-15748D01*
X401215Y-15229D01*
X401142Y-14672D01*
X401215Y-14116D01*
X401430Y-13597D01*
X401772Y-13152D01*
X402217Y-12810D01*
G37*
G36*
X410929Y19269D02*
X404810Y13150D01*
X404368Y12810D01*
X403849Y12595D01*
X403292Y12522D01*
X402736Y12595D01*
X402217Y12810D01*
X401772Y13152D01*
X401430Y13597D01*
X401215Y14116D01*
X401142Y14672D01*
X401215Y15229D01*
X401430Y15748D01*
X401770Y16190D01*
X407889Y22309D01*
X410929Y19269D01*
G37*
G36*
X413227Y0D02*
X390635Y-22593D01*
X386605Y-22593D01*
X364013Y0D01*
X388620Y24607D01*
X413227Y0D01*
G37*
D10*
X116078Y0D03*
X218578Y0D03*
X566928Y0D03*
X464428Y0D03*
D11*
X257200Y14508D03*
X266700Y14508D03*
X276200Y14508D03*
X276200Y-13492D03*
X257200Y-13492D03*
D12*
X243840Y-4492D03*
X243840Y5508D03*
D13*
X18970Y-28448D03*
X8970Y-28448D03*
X289640Y16002D03*
X299640Y16002D03*
D14*
X8128Y9500D03*
X8128Y-9500D03*
D15*
X53310Y28900D03*
D16*
X23010Y43200D02*
X10010Y43200D01*
X10010Y-43200D02*
X23010Y-43200D01*
X51810Y43200D02*
X64810Y43200D01*
X64810Y-43200D02*
X51810Y-43200D01*
D15*
X53310Y-28900D03*
D17*
X182760Y-19050D03*
X167760Y-19050D03*
X182760Y17780D03*
X167760Y17780D03*
D18*
X144780Y-13500D03*
X144780Y13500D03*
D19*
X198630Y0D03*
X167130Y0D03*
D20*
X80249Y11749D02*
X69751Y11749D01*
X80249Y11749D02*
X80249Y7251D01*
X69751Y7251D01*
X69751Y11749D01*
X69751Y10608D02*
X80249Y10608D01*
X80249Y2249D02*
X69751Y2249D01*
X80249Y2249D02*
X80249Y-2249D01*
X69751Y-2249D01*
X69751Y2249D01*
X69751Y1108D02*
X80249Y1108D01*
X80249Y-7251D02*
X69751Y-7251D01*
X80249Y-7251D02*
X80249Y-11749D01*
X69751Y-11749D01*
X69751Y-7251D01*
X69751Y-8392D02*
X80249Y-8392D01*
X57249Y-7251D02*
X46751Y-7251D01*
X57249Y-7251D02*
X57249Y-11749D01*
X46751Y-11749D01*
X46751Y-7251D01*
X46751Y-8392D02*
X57249Y-8392D01*
X57249Y2249D02*
X46751Y2249D01*
X57249Y2249D02*
X57249Y-2249D01*
X46751Y-2249D01*
X46751Y2249D01*
X46751Y1108D02*
X57249Y1108D01*
X57249Y11749D02*
X46751Y11749D01*
X57249Y11749D02*
X57249Y7251D01*
X46751Y7251D01*
X46751Y11749D01*
X46751Y10608D02*
X57249Y10608D01*
D13*
X92790Y20320D03*
X102790Y20320D03*
X90250Y-19050D03*
X100250Y-19050D03*
D12*
X345440Y6430D03*
X345440Y16430D03*
X334010Y6430D03*
X334010Y16430D03*
D13*
X440610Y-10160D03*
X430610Y-10160D03*
X443150Y-20320D03*
X433150Y-20320D03*
X434260Y-34290D03*
X424260Y-34290D03*
D12*
X345440Y-6430D03*
X345440Y-16430D03*
X334010Y-6430D03*
X334010Y-16430D03*
D13*
X537820Y14130D03*
X518820Y14130D03*
X528320Y34130D03*
X543480Y1270D03*
X533480Y1270D03*
X518820Y-11590D03*
X537820Y-11590D03*
X528320Y-31590D03*
X513160Y1270D03*
X523160Y1270D03*
D21*
X659130Y-30480D03*
X671830Y-30480D03*
X684530Y-30480D03*
X697230Y-30480D03*
D22*
X77470Y38100D03*
X86360Y0D03*
X77720Y-39120D03*
X707418Y-30480D03*
X388620Y0D03*
X306070Y-13744D03*
X500380Y-29436D03*
X539750Y-44478D03*
X417830Y-44478D03*
X596900Y-35334D03*
X440690Y39370D03*
X199390Y-30480D03*
X104140Y-38100D03*
X276860Y-33020D03*
X119380Y-26670D03*
X130810Y-25400D03*
X33020Y0D03*
X579120Y-38382D03*
X323850Y-6350D03*
X650014Y-35334D03*
X551532Y-42828D03*
X564299Y-44478D03*
X597690Y22257D03*
X39370Y-8890D03*
X40640Y10160D03*
X81280Y19050D03*
X78881Y-17806D03*
X528320Y-8370D03*
X447040Y-36310D03*
M02*
