M48
;GenerationSoftware,Autodesk,EAGLE,9.7.0*%
;CreationDate,2026-01-05T21:12:30Z*%
FMAT,2
ICI,OFF
METRIC,TZ,000.000
T7C0.350
T6C0.600
T5C0.650
T4C0.700
T3C1.050
T2C2.337
T1C3.300
%
G90
M71
T1
X51600Y33510
X51600Y21510
X24600Y21510
X24600Y33510
T2
X62128Y20396
X55804Y63170
X10973Y48920
X8876Y27859
T3
X66650Y40640
X64211Y40640
T4
X8457Y58346
X7822Y57247
X7187Y56147
X6552Y55047
X5917Y53947
T5
X40990Y5712
X35210Y5712
T6
X42420Y2032
X33780Y2032
X42420Y6212
X33780Y6212
T7
X55474Y53467
X5969Y45720
X5436Y47854
X14630Y54153
X7595Y59334
X24333Y8712
X18847Y11684
X17628Y19050
X20269Y13335
X6444Y30595
X6791Y24660
X26289Y17272
X31547Y50444
X28372Y52045
X8257Y30498
X23597Y18032
X32614Y12014
X40259Y48252
X16106Y39754
X59106Y25959
X48108Y16332
X57912Y11684
X65696Y19404
X52560Y7823
X71120Y43231
X71043Y35215
X68478Y52527
X51613Y68758
X23622Y68580
X48463Y46406
X20691Y16602
X19710Y28169
X23639Y25222
X26107Y26776
X38100Y13758
X1143Y38989
X50495Y16358
X26441Y11786
X50165Y48489
X54407Y36830
X51562Y40208
X23782Y12123
X11203Y24405
X17063Y50693
X28039Y16258
X18694Y38357
X16716Y29083
X23096Y12728
X13437Y22631
X9127Y54749
X45872Y49505
X41377Y46276
X20422Y44704
X21567Y15725
X11049Y53492
X26899Y28880
X25425Y12065
X1016Y36830
X19358Y36783
X22533Y15406
X51283Y25832
X44221Y17196
X37973Y16800
X16513Y33985
X21394Y30225
X23756Y27520
X51689Y52400
X9633Y55565
X26187Y44755
X51689Y43739
X19677Y44163
X16964Y44408
X10891Y55265
X14855Y30611
X41529Y9017
X35607Y7921
X4572Y52527
X15570Y48590
X38104Y9021
X1143Y43307
X20930Y40713
X1016Y35687
X22135Y37498
X31369Y3175
X27940Y4572
X12192Y13970
X3683Y30226
X4318Y48387
X30226Y72517
X48514Y71882
X14554Y16332
X72517Y45974
X62230Y12192
X49784Y4699
X14986Y11303
X4699Y26289
X4191Y45466
X11557Y61570
X26670Y71374
X44831Y72644
X61214Y65024
X71501Y49784
X72771Y31369
X64897Y14986
X54483Y9144
X46052Y3705
X68555Y21463
X25222Y6020
X71755Y27838
X13854Y64008
X37286Y7979
X38703Y8137
X19275Y26389
X22324Y25671
X12574Y23326
X16005Y26137
X33376Y17320
X31445Y12576
X29845Y5461
X12700Y15367
X14605Y14097
X5207Y30734
X16662Y35357
X16764Y41704
X5969Y46990
X15220Y63888
X19431Y65786
X31115Y71374
X30099Y69977
X48581Y70008
X69444Y46126
X70104Y27686
X70993Y44958
X61183Y61573
X47172Y69856
X62741Y61347
X61809Y16253
X44958Y4699
X60198Y12753
X69873Y29064
X35941Y48338
X27153Y25121
X68872Y31966
X26924Y26162
X68961Y33020
X26924Y27305
X67287Y29845
X23263Y29489
X24093Y28434
X25959Y28804
X16741Y24841
X19136Y27458
X16500Y27686
X29641Y16177
X54356Y39878
X37127Y46922
X49454Y30582
X56134Y39878
X1016Y42291
X20703Y39804
X21105Y37712
X24968Y16510
X45136Y17094
X50625Y26876
X1092Y37922
X20447Y38811
X46691Y18212
X49853Y26363
X25862Y15753
X1016Y40107
X19538Y38887
X49098Y25552
X47600Y18237
X25131Y15144
X64008Y62230
X48489Y31598
X41231Y17885
X39967Y17945
X39033Y17893
X37205Y17419
X41773Y7884
X34417Y8001
X1016Y41275
X24689Y47346
X27330Y44552
X47447Y50597
X39600Y30244
X41000Y30244
X38200Y30244
X41000Y28844
X39600Y28844
X38200Y28844
X40300Y30944
X38900Y30944
X40300Y29544
X38900Y29544
X40300Y28144
X38900Y28144
X22200Y50724
X62941Y52578
X58750Y48412
X20505Y28659
M30