M48
;GenerationSoftware,Autodesk,EAGLE,9.7.0*%
;CreationDate,2026-01-27T23:28:59Z*%
FMAT,2
ICI,OFF
METRIC,TZ,000.000
T6C0.350
T5C0.600
T4C0.650
T3C1.050
T2C2.337
T1C3.300
%
G90
M71
T1
X51600Y33510
X51600Y21510
X24600Y21510
X24600Y33510
T2
X62128Y20396
X55626Y62992
X12785Y49996
X8876Y27859
T3
X64999Y32766
X63242Y32762
T4
X40990Y5712
X35210Y5712
X8457Y58346
X7822Y57247
X7187Y56147
X6552Y55047
X5917Y53947
T5
X42420Y2032
X33780Y2032
X42420Y6212
X33780Y6212
T6
X58750Y48412
X55474Y53467
X5969Y45720
X5436Y47854
X24333Y8712
X18847Y11684
X14554Y16332
X17628Y19050
X20269Y13335
X6444Y30595
X6791Y24660
X31547Y50444
X28372Y52045
X8257Y30498
X40259Y48252
X59106Y25959
X57912Y11684
X65696Y19404
X52560Y7823
X71120Y43231
X71043Y35215
X68478Y52527
X51613Y68758
X23622Y68580
X48463Y46406
X20691Y16602
X26107Y26776
X67030Y24768
X48212Y16332
X26394Y17297
X33087Y11541
X16612Y23216
X15672Y24867
X23892Y24988
X15043Y54642
X8077Y59919
X62941Y24740
X68783Y31928
X23058Y27026
X24420Y18032
X3556Y39243
X50165Y48489
X54407Y36830
X51562Y40208
X23782Y12123
X11203Y24405
X16716Y29083
X50561Y16291
X28207Y16116
X27180Y14353
X30961Y12906
X29642Y11560
X26441Y11687
X57661Y21283
X18752Y49055
X23096Y12673
X22631Y41504
X19561Y38697
X13437Y22631
X9127Y54749
X11049Y53492
X15977Y53645
X12954Y53492
X20443Y44904
X21425Y15583
X26899Y28880
X25348Y11787
X23461Y17131
X22212Y14795
X3327Y37008
X47074Y14191
X20393Y36787
X49581Y25095
X39732Y16777
X45844Y17488
X16513Y33768
X23802Y27567
X22313Y28716
X21373Y30185
X9633Y55565
X26187Y44755
X53391Y40919
X21176Y43401
X10891Y55265
X14855Y30611
X17585Y43925
X41529Y9017
X35607Y7921
X4572Y52527
X17729Y45745
X38104Y9021
X2210Y42951
X3205Y35540
X31369Y3175
X27940Y4572
X12192Y13970
X3683Y30226
X4318Y48387
X30226Y72517
X48514Y71882
X64008Y62230
X72517Y45974
X62230Y12192
X49784Y4699
X14986Y11303
X4699Y26289
X4242Y45568
X11557Y61570
X26670Y71374
X44831Y72644
X61214Y65024
X71501Y49784
X72771Y31369
X64897Y14986
X54483Y9144
X46052Y3705
X25222Y6020
X71755Y27838
X13854Y64008
X67335Y19431
X37286Y7979
X38703Y8137
X19275Y26389
X22324Y25671
X12574Y23326
X16005Y26137
X32004Y12979
X28278Y14395
X29845Y5461
X12700Y15367
X14605Y14097
X5207Y30734
X16739Y34677
X17534Y42364
X5969Y46990
X15220Y63888
X19431Y65786
X31115Y71374
X30099Y69977
X48581Y70008
X69444Y46126
X70104Y27686
X70993Y44958
X61183Y61573
X47172Y69856
X62741Y61347
X61809Y16253
X44958Y4699
X60198Y12753
X24042Y28526
X35941Y48338
X27153Y25121
X67259Y27026
X26924Y26162
X67462Y28397
X26924Y27305
X68148Y29007
X23153Y29599
X66040Y37795
X54356Y39878
X16500Y27686
X16665Y24841
X19225Y27458
X25903Y28859
X32816Y16507
X37127Y46922
X49454Y30582
X54826Y30823
X56134Y39878
X3175Y42266
X48568Y27003
X20918Y40461
X3429Y38100
X48684Y25550
X20918Y38889
X3429Y40259
X48577Y24575
X69873Y29064
X25486Y17237
X48489Y31598
X56134Y33477
X41314Y17969
X36534Y17012
X37305Y18089
X43249Y15263
X41773Y7884
X34417Y8001
X3302Y41250
X24689Y47346
X27330Y44552
X39600Y30244
X41000Y30244
X38200Y30244
X41000Y28844
X39600Y28844
X38200Y28844
X40300Y30944
X38900Y30944
X40300Y29544
X38900Y29544
X40300Y28144
X38900Y28144
X47447Y50597
X22200Y50724
X62941Y52578
X20419Y39675
M30